<?xml version="1.0" encoding="UTF-8" standalone="no"?>
<svg width="233px" height="358px" viewBox="0 0 233 358" version="1.1" xmlns="http://www.w3.org/2000/svg" xmlns:xlink="http://www.w3.org/1999/xlink" style="background: #FFFFFF;">
    <!-- Generator: Sketch 3.8.3 (29802) - http://www.bohemiancoding.com/sketch -->
    <title>beach_sandcastle_mask</title>
    <desc>Created with Sketch.</desc>
    <defs></defs>
    <g id="Masks" stroke="none" stroke-width="1" fill="none" fill-rule="evenodd">
        <g id="beach_sandcastle_mask" fill="#000000">
            <path d="M4.07515215,73.3616657 C4.05007942,73.403297 4.02502863,73.4448513 4,73.4863281 L4,339.491779 C4,346.405156 9.59562152,352 16.4981705,352 L216.50183,352 C223.410136,352 229,346.399873 229,339.491767 L229,14.5082332 C229,7.60382598 223.401145,2 216.494608,2 L41.9985998,2 C41.9985998,2 41.9921822,2.00962812 41.9796651,2.0284071 C39.8098288,2.17478903 37.6956802,2.9217743 35.8863348,4.23198996 C32.84289,6.4156645 31.0250015,9.9714277 31.0250015,13.75 L31.0250015,18.275875 C31.0250015,18.275875 31.0250009,17.8627308 31.0250008,18.0000002 C31.0250007,18.0621917 31.0250007,18.3271047 31.0250007,18.5766538 C31.0429492,18.5428369 31.0622508,18.5071989 31.0829824,18.4696546 C29.8181985,18.0041593 28.4512638,17.75 27.0250015,17.75 L18.0250015,17.75 C11.7768626,17.75 6.62053769,22.6406989 6.2909229,28.8798359 L4.04081209,71.6319374 C4.00906705,72.2117047 4.02106545,72.7897816 4.07515215,73.3616657 L4.07515215,73.3616657 Z" id="Card"></path>
        </g>
    </g>
</svg>