<?xml version="1.0" encoding="UTF-8" standalone="no"?>
<svg width="233px" height="358px" viewBox="0 0 233 358" version="1.1" xmlns="http://www.w3.org/2000/svg" xmlns:xlink="http://www.w3.org/1999/xlink">
    <!-- Generator: Sketch 3.8.3 (29802) - http://www.bohemiancoding.com/sketch -->
    <title>beach_seashell_mask</title>
    <desc>Created with Sketch.</desc>
    <defs></defs>
    <g id="Masks" stroke="none" stroke-width="1" fill="none" fill-rule="evenodd">
        <g id="beach_seashell_mask" fill="#000000">
            <path d="M4.01275665,40.9990661 L4,41.0002258 L4,339.495889 C4,346.403466 9.59562152,352 16.4981705,352 L216.50183,352 C223.410136,352 229,346.399873 229,339.491767 L229,14.5082332 C229,7.60382598 223.40674,2 216.507105,2 L42.9985998,2 C42.9993584,2.00530849 43.0001153,2.01061718 43.0008705,2.01592607 C42.9244941,2.01433739 42.8469834,2.01354698 42.7682288,2.01354698 C41.6909997,2.01354698 40.6900323,2.22028265 39.7028824,2.583416 C39.1016996,2.80456732 38.70296,2.99273108 37.9250879,3.3883987 C37.5931552,3.55739799 37.4709424,3.61702196 37.389395,3.65134584 C37.4636268,3.62010115 37.6097856,3.57572429 37.8726196,3.54145852 C38.0267627,3.52145435 38.1276535,3.51650153 38.2697503,3.51326394 C38.1638955,3.496059 38.0390404,3.47109488 37.6066311,3.37973539 C36.4804388,3.14452944 35.8362346,3.04591062 34.9103652,3.04591062 C34.1638627,3.04591062 33.4407335,3.1348082 32.7268708,3.32731048 C31.6930237,3.60500515 30.7816924,4.0634466 29.9244857,4.66910129 C29.4027762,5.03771222 29.0687131,5.32114772 28.4209006,5.90455341 C28.1485597,6.14978726 28.0423026,6.24213198 27.9707319,6.29766098 C28.031122,6.25080664 28.157366,6.17224835 28.398131,6.07259521 C28.6207203,5.98007129 28.7628275,5.9463578 28.8375887,5.93663178 C28.7521828,5.94774261 28.6125725,5.95788557 28.2263859,5.97868651 C27.9043355,5.99603414 27.7547371,6.00488028 27.5487978,6.02033484 C25.9800396,6.13806112 24.7097332,6.43152197 23.3720705,7.20944427 C21.8791748,8.07008128 21.0541861,9.02840199 19.8974504,10.7999078 C19.7870686,10.9702558 19.7471245,11.0315461 19.6993805,11.1034244 C19.6160213,11.2289214 19.5679355,11.2960798 19.5538161,11.3133927 C19.6218569,11.2299627 19.7316912,11.1189921 19.9081803,10.983428 C20.1032895,10.8340929 20.2332591,10.7626423 20.3127495,10.7288135 C20.2537149,10.7539369 20.129454,10.7983411 19.7290982,10.9297125 C18.9240217,11.1905082 18.4998478,11.3423158 17.920574,11.609462 C16.9706107,12.0475606 16.1208183,12.6051958 15.3629227,13.3621956 C14.6015467,14.1253668 14.0451335,14.9736196 13.6076088,15.921927 C13.3408224,16.5001696 13.1891242,16.9234709 12.8730458,17.8948488 C12.792782,18.137442 12.7489022,18.2596866 12.7240608,18.3179349 C12.7575648,18.2393745 12.8281389,18.1109292 12.9701565,17.9246985 C13.1229328,17.7266352 13.2310589,17.6200876 13.3105641,17.5554017 C13.2889907,17.5729539 13.2172145,17.6243469 13.0856264,17.7119475 C13.0152134,17.7588227 12.9542737,17.7986888 12.6246418,18.0132415 C11.0239535,19.0586994 10.0717613,19.8764465 9.20014702,21.3832806 C8.66316594,22.3115293 8.34380323,23.2770751 8.16609515,24.3090448 C8.05825298,24.9352958 8.02200442,25.3742432 7.97649367,26.2367091 C7.9575081,26.6041268 7.94742022,26.7477187 7.93589394,26.8381315 C7.94499926,26.7667089 7.97794456,26.6263903 8.07422718,26.394453 C8.16541578,26.1735652 8.24680802,26.0392824 8.30389415,25.9636059 C8.25815546,26.0242396 8.16934957,26.1269681 7.90033677,26.4262332 C7.32657485,27.0616877 7.03657464,27.4030662 6.66643067,27.9267179 C6.05825411,28.7871201 5.5986165,29.7019121 5.32109368,30.7448608 C5.04590955,31.7745418 4.98925387,32.788673 5.08673726,33.8297776 C5.14595237,34.4621839 5.22636176,34.8997134 5.40688677,35.7391918 C5.48425107,36.1068989 5.50910036,36.2349735 5.52185363,36.3279528 C5.51234639,36.2586391 5.5076799,36.1153671 5.54077815,35.8651727 C5.57126009,35.6242916 5.61713866,35.4722136 5.65083601,35.3921824 C5.61805131,35.4700461 5.55714168,35.5943319 5.3944902,35.9113363 C4.9984812,36.6868947 4.80314109,37.1004035 4.5810486,37.7039097 C4.21785374,38.6908425 4.01086516,39.6915226 4.01086516,40.7678197 C4.01086516,40.8450242 4.01149586,40.9221098 4.01275665,40.9990661 L4.01275665,40.9990661 Z" id="Card"></path>
        </g>
    </g>
</svg>
