<?xml version="1.0" encoding="UTF-8" standalone="no"?>
<svg width="233px" height="358px" viewBox="0 0 233 358" version="1.1" xmlns="http://www.w3.org/2000/svg" xmlns:xlink="http://www.w3.org/1999/xlink">
    <!-- Generator: Sketch 3.8.3 (29802) - http://www.bohemiancoding.com/sketch -->
    <title>beach_starfish_mask</title>
    <desc>Created with Sketch.</desc>
    <defs></defs>
    <g id="Masks" stroke="none" stroke-width="1" fill="none" fill-rule="evenodd">
        <g id="beach_starfish_mask" fill="#000000">
            <path d="M29.3427137,28.2097459 C30.1430752,15.1324325 35.9156956,6.28733158 43.8747381,2.97117416 L45.720892,2.20196898 L47.720892,2.20196898 C46.6616492,2.20196898 45.912204,2.33648031 45.1541998,2.54320184 C44.7348799,2.66667409 44.7348799,2.66667409 44.7009192,2.67954388 C44.8149264,2.63999281 44.8149264,2.63999281 45.3098458,2.49428616 C46.121659,2.27288992 46.913224,2.13081889 48.0055018,2.13081889 L44.8432241,2.64396884 C46.3413262,2.1446181 47.8509712,1.9478368 49.3191871,2.01164085 L216.498021,2.01164085 C223.402673,2.01164085 229,7.61528045 229,14.5194581 L229,339.492183 C229,346.400059 223.410136,352 216.50183,352 L16.4981705,352 C9.59562152,352 4,346.400102 4,339.497485 L4,38.0106693 L4.0128421,38.0060918 C4.40811932,28.6056659 13.7010438,22.8818158 22.5526462,27.500084 C23.6903161,28.0851519 25.28693,28.2843747 29.3239888,28.2121157 L29.3427137,28.2097459 L29.3427137,28.2097459 Z" id="Card"></path>
        </g>
    </g>
</svg>
