<?xml version="1.0" encoding="UTF-8" standalone="no"?>
<svg width="233px" height="358px" viewBox="0 0 233 358" version="1.1" xmlns="http://www.w3.org/2000/svg" xmlns:xlink="http://www.w3.org/1999/xlink">
    <!-- Generator: Sketch 3.8.3 (29802) - http://www.bohemiancoding.com/sketch -->
    <title>bubble_mask</title>
    <desc>Created with Sketch.</desc>
    <defs></defs>
    <g id="Masks" stroke="none" stroke-width="1" fill="none" fill-rule="evenodd">
        <g id="bubble_mask" fill="#000000">
            <path d="M192.717767,2.12885619 C191.955504,2.04412205 191.212092,2 190.495579,2 L43.5123063,2 C43.5085015,2.00000002 43.5062223,2 43.5039428,2 C21.6886951,2 4.00394277,19.6847524 4.00394277,41.5 C4.00394277,43.7756584 3.99507154,45.462289 4.00394277,46.6580177 L4.00394277,339.500697 C4.00394277,346.411087 9.59956429,352 16.5021132,352 L216.505772,352 C223.414079,352 229.003943,346.403871 229.003943,339.500697 L229.003943,42.4993035 C229.003943,42.4450272 229.003708,42.3905796 229.00324,42.3359641 C229.003724,42.0696044 229.003943,41.7910434 229.003943,41.5 C229.003943,20.7667404 213.029936,3.76441001 192.717771,2.1288566 L192.717767,2.12885619 Z" id="Card"></path>
        </g>
    </g>
</svg>
