<?xml version="1.0" encoding="UTF-8" standalone="no"?>
<svg width="233px" height="358px" viewBox="0 0 233 358" version="1.1" xmlns="http://www.w3.org/2000/svg" xmlns:xlink="http://www.w3.org/1999/xlink" xmlns:sketch="http://www.bohemiancoding.com/sketch/ns">
    <!-- Generator: Sketch 3.5.2 (25235) - http://www.bohemiancoding.com/sketch -->
    <title>crystal_mask</title>
    <desc>Created with Sketch.</desc>
    <defs></defs>
    <g id="Page-1" stroke="none" stroke-width="1" fill="none" fill-rule="evenodd" sketch:type="MSPage">
        <g id="crystal_mask" sketch:type="MSArtboardGroup" fill="#000000">
            <path d="M116.5,2 L16.4981705,2 C9.58986356,2 4,7.60012677 4,14.5082332 L4,339.491767 C4,346.396174 9.59562152,352 16.4981705,352 L216.50183,352 C223.410136,352 229,346.399873 229,339.491767 L229,114.502886 C229,94.8905863 223.981942,76.4506659 215.159783,60.3969608 C216.655725,59.3917294 218.286322,58.244797 219.81831,57.0877829 C222.324232,55.1952169 224.404436,53.3979443 225.864094,51.8009804 C226.839683,50.7336199 227.57994,49.7209495 228.078832,48.6508262 C229.040781,46.587445 229.136952,44.2778069 227.570506,42.2224039 C225.145779,39.0397805 220.90723,37.3000234 214.950079,36.0696549 C211.314266,35.3187271 206.986942,34.8596084 206.986942,34.8596084 C207.156878,34.7638008 205.579673,32.2022989 203.440111,30.1156213 L201.690173,28.365134 C200.309145,26.9480341 198.690681,25.7680144 196.866995,24.808385 C196.866995,24.808385 195.782043,18.8752505 195.209911,16.6561306 C193.696678,10.7867732 191.802329,6.6091868 188.701397,4.24675837 C186.633812,2.67047516 184.280532,2.77390874 182.225171,3.78171217 C181.160533,4.30373519 180.176117,5.06753964 179.14938,6.0698649 C177.639682,7.54366877 175.963419,9.63095667 174.19346,12.1602014 C173.249464,13.5091572 172.303543,14.951032 171.448464,16.3091643 C155.198673,7.19605555 136.456142,2 116.5,2 Z" id="Card" sketch:type="MSShapeGroup"></path>
        </g>
    </g>
</svg>