<?xml version="1.0" encoding="UTF-8" standalone="no"?>
<svg width="233px" height="358px" viewBox="0 0 233 358" version="1.1" xmlns="http://www.w3.org/2000/svg" xmlns:xlink="http://www.w3.org/1999/xlink" xmlns:sketch="http://www.bohemiancoding.com/sketch/ns">
    <!-- Generator: Sketch 3.5.2 (25235) - http://www.bohemiancoding.com/sketch -->
    <title>halloween_mask</title>
    <desc>Created with Sketch.</desc>
    <defs></defs>
    <g id="Page-1" stroke="none" stroke-width="1" fill="none" fill-rule="evenodd" sketch:type="MSPage">
        <g id="halloween_mask" sketch:type="MSArtboardGroup" fill="#000000">
            <path d="M16.4981705,32 C9.58986356,32 4,37.5943047 4,44.4952293 L4,339.504771 C4,346.411992 9.59562152,352 16.4981705,352 L216.50183,352 C223.410136,352 229,346.405695 229,339.504771 L229,44.4952293 C229,37.5880076 223.404378,32 216.50183,32 L208.5489,32 C207.282333,27.8784065 203.491994,24.7618159 199.012993,24.5681294 L165.924091,23.137258 C153.169011,10.0451801 135.857478,2 116.790514,2 C97.7245853,2 80.4138968,10.0443063 67.6590196,23.1351241 L34.9881456,24.5633598 C30.511162,24.7590749 26.7185803,27.8773263 25.4512878,32 L16.4981705,32 Z" id="Card" sketch:type="MSShapeGroup"></path>
        </g>
    </g>
</svg>