<?xml version="1.0" encoding="UTF-8" standalone="no"?>
<svg width="233px" height="358px" viewBox="0 0 233 358" version="1.1" xmlns="http://www.w3.org/2000/svg" xmlns:xlink="http://www.w3.org/1999/xlink" style="background: #FFFFFF;">
    <!-- Generator: Sketch 39.1 (31720) - http://www.bohemiancoding.com/sketch -->
    <title>hiking_cairn_mask </title>
    <desc>Created with Sketch.</desc>
    <defs></defs>
    <g id="Masks" stroke="none" stroke-width="1" fill="none" fill-rule="evenodd">
        <g id="hiking_cairn_mask-" fill="#000000">
            <path d="M4.0263771,72.8646498 L4.0040624,72.8939045 L4.0040624,73.5930919 C3.99866273,73.9040949 3.99862903,74.2138493 4.0040624,74.5222219 L4.0040624,339.503426 C4.0040624,346.413184 9.59968392,352.004256 16.5022329,352.004256 L216.505892,352.004256 C223.414199,352.004256 229.004062,346.404129 229.004062,339.496023 L229.004062,14.5124892 C229.004062,7.608082 223.408517,2.00425602 216.506062,2.00425602 L44.0855515,2.00425602 C41.8944056,1.94500965 39.6404163,2.50226712 37.4492726,3.80491252 C32.3862567,6.81489974 30.3054407,12.5662695 30.9978887,18.2755878 L31.0079662,18.2639297 C28.1132104,19.4603345 25.6177657,21.4071428 23.6427952,23.8991749 C21.1054541,27.1008102 19.4956885,31.2076666 19.3465999,34.6410891 C19.3190292,35.2650422 19.3152231,35.7844341 19.3609754,36.4513594 C19.4324578,37.4933497 19.6195329,38.5390909 19.9622687,39.6046018 C20.7696667,42.114674 22.3141602,44.2996609 24.4611829,46.0241048 C24.6251173,46.1557735 24.7923367,46.284711 24.9629274,46.4109829 C24.399108,47.1348716 23.8874046,47.8619708 23.4293871,48.5918199 C23.3207949,48.690038 23.2107264,48.7849246 23.0991699,48.8763649 C16.3356814,49.5305206 11.3559697,53.1361199 8.21051697,58.492551 C6.1698779,61.9656689 4.59626639,66.692017 4.1426529,71.248685 C4.08874117,71.7902427 4.04981355,72.3291216 4.0263771,72.8646498 L4.0263771,72.8646498 Z" id="Card"></path>
        </g>
    </g>
</svg>