<?xml version="1.0" encoding="UTF-8" standalone="no"?>
<svg width="233px" height="358px" viewBox="0 0 233 358" version="1.1" xmlns="http://www.w3.org/2000/svg" xmlns:xlink="http://www.w3.org/1999/xlink">
    <!-- Generator: Sketch 39.1 (31720) - http://www.bohemiancoding.com/sketch -->
    <title>hiking_canteen_mask</title>
    <desc>Created with Sketch.</desc>
    <defs></defs>
    <g id="Masks" stroke="none" stroke-width="1" fill="none" fill-rule="evenodd">
        <g id="hiking_canteen_mask" fill="#000000">
            <path d="M4.13551817,46.8722239 C4.08927628,47.0208667 4.04409926,47.1692567 4,47.3173828 L4,50.1502145 L4,50.1502263 L4,339.50001 C4,346.402153 9.59562152,352 16.4981705,352 L216.50183,352 C223.410136,352 229,346.399873 229,339.491767 L229,14.5082332 C229,7.60382598 223.404999,2 216.503216,2 L44.0166016,2 C44.0115096,2.00221143 44.0064168,2.00442489 44.0013231,2.00664037 C41.0053011,2.06365507 38.0920697,2.48905268 35.5424644,3.33046995 C30.8202382,4.8888926 27.0587629,7.7948622 25.762995,12.9790922 L26.3867692,11.2094252 C25.8523488,12.3660193 25.5185417,13.6032821 25.3983441,14.8685773 C13.3631385,21.2472087 5.26424724,33.2619372 4.13551817,46.8722239 L4.13551817,46.8722239 Z" id="Card"></path>
        </g>
    </g>
</svg>
