<?xml version="1.0" encoding="UTF-8" standalone="no"?>
<svg width="233px" height="358px" viewBox="0 0 233 358" version="1.1" xmlns="http://www.w3.org/2000/svg" xmlns:xlink="http://www.w3.org/1999/xlink">
    <!-- Generator: Sketch 39.1 (31720) - http://www.bohemiancoding.com/sketch -->
    <title>hiking_sign_mask</title>
    <desc>Created with Sketch.</desc>
    <defs></defs>
    <g id="Masks" stroke="none" stroke-width="1" fill="none" fill-rule="evenodd">
        <g id="hiking_sign_mask" fill="#000000">
            <path d="M4.04314146,56.0484943 C4.01483777,56.0805878 4,56.0976562 4,56.0976562 L4,339.497981 C4,346.402043 9.59562152,352 16.4981705,352 L216.50183,352 C223.410136,352 229,346.399873 229,339.491767 L229,14.5082332 C229,7.60382598 223.404398,2 216.501873,2 L49.9985998,2 C49.9985998,2 49.8375135,2.05230622 49.5858633,2.16581444 C49.5022532,2.05691835 49.4104885,2 49.3100014,2 C46.9946757,2 44.6832916,2.65175536 42.7023392,3.97239028 C41.3134301,4.89832968 40.1222968,6.12434685 39.2631571,7.58844297 C39.2311288,7.59232925 24.4100014,7.6 24.4100014,7.6 L14.4100014,7.6 L14.4100014,17.6 L14.4100014,35 C14.3882667,35.1546099 14.3891611,35.2600189 14.4100014,35.3483066 L14.4100014,39.9113986 C14.4165968,39.7812505 14.4230872,39.6516667 14.4294547,39.5228865 L7.60310453,48.0508111 L4,52.5520458 L4,56.0479542 C4,56.0479542 4.01462278,56.0481648 4.04314146,56.0484943 L4.04314146,56.0484943 Z" id="Card"></path>
        </g>
    </g>
</svg>
