<?xml version="1.0" encoding="UTF-8" standalone="no"?><svg width="233" height="358" viewBox="0 0 233 358" xmlns="http://www.w3.org/2000/svg"><title>mad_cat_scratch</title><path d="M4 58.04v281.452C4 346.396 9.596 352 16.498 352h200.004c6.908 0 12.498-5.6 12.498-12.508V14.508C229 7.604 223.404 2 216.502 2H62.218C54.884 8.44 43.34 18.189 29.89 28.158 20.887 34.83 11.759 40.502 4 44.928v8.992c6.908-5.771 17.167-13.847 30.245-22.752C53.906 17.782 76.839 4.885 76.839 4.885s-15.12 14.672-38.34 31.883C25.32 46.535 12.499 53.712 4 58.04zM57.907 2H37.082c-4.722 3.918-10.93 8.899-18.628 14.723A325.203 325.203 0 0 1 4 27.043V38.32A424.579 424.579 0 0 1 25.635 22.56C36.382 15.242 48.829 7.509 57.907 2zM31.021 2H16.498C9.59 2 4 7.6 4 14.508v6.114c3.363-2.607 7.142-5.4 11.36-8.338A335.358 335.358 0 0 1 31.02 2zm45.952 19.163S66.75 31.387 47.646 45.646C24.63 62.828 9.037 68.381 9.037 68.381S20.07 57.351 44.2 41.123c19.436-13.07 32.773-19.96 32.773-19.96z" fill="#000" fill-rule="evenodd"/></svg>
