<?xml version="1.0" encoding="UTF-8" standalone="no"?>
<svg width="233px" height="358px" viewBox="0 0 233 358" version="1.1" xmlns="http://www.w3.org/2000/svg" xmlns:xlink="http://www.w3.org/1999/xlink">
    <!-- Generator: Sketch 40.1 (33804) - http://www.bohemiancoding.com/sketch -->
    <title>slobber_chicken mask</title>
    <desc>Created with Sketch.</desc>
    <defs></defs>
    <g id="Masks" stroke="none" stroke-width="1" fill="none" fill-rule="evenodd">
        <g id="slobber_chicken-mask" fill="#000000">
            <path d="M20.4160546,44.0326574 C20.5132498,43.9223506 20.6102246,43.8123464 20.7069529,43.7026744 C21.3085272,42.2387107 22.1998344,40.8836605 23.3571353,39.7278744 C25.9254899,37.1591509 26.4534062,35.9478693 27.4315892,31.2848131 C29.2926868,22.4171485 31.5939931,17.1380852 38.154355,10.5785089 C43.5498434,5.18196236 50.7335464,2.13597049 58.3465653,2.00444519 L58.3505859,2 L216.50361,2 C223.405176,2 229,7.60382598 229,14.5082332 L229,339.491767 C229,346.399873 223.410136,352 216.50183,352 L16.4981705,352 C9.59562152,352 4,346.408189 4,339.496542 L4,63.1679687 L4.20340858,62.9268636 C4.06994124,62.7491347 4.00007057,62.5536048 4,62.3390027 C3.99999946,57.508028 5.90388014,52.9212152 9.32122061,49.5102208 C12.2913885,46.5508354 16.2631392,44.6388432 20.4160546,44.0326574 L20.4160546,44.0326574 Z" id="Card"></path>
        </g>
    </g>
</svg>
