<?xml version="1.0" encoding="UTF-8" standalone="no"?>
<svg width="233px" height="358px" viewBox="0 0 233 358" version="1.1" xmlns="http://www.w3.org/2000/svg" xmlns:xlink="http://www.w3.org/1999/xlink">
    <!-- Generator: Sketch 40.1 (33804) - http://www.bohemiancoding.com/sketch -->
    <title>slobber_steak mask</title>
    <desc>Created with Sketch.</desc>
    <defs></defs>
    <g id="Masks" stroke="none" stroke-width="1" fill="none" fill-rule="evenodd">
        <g id="slobber_steak-mask" fill="#000000">
            <path d="M31.1654954,13.5645897 C31.2376602,13.5153628 31.3101254,13.4657029 31.3828741,13.4156271 C31.603905,13.0730873 31.8714659,12.6364035 32.1847942,12.0994195 C32.2799962,11.9358523 32.2799962,11.9358523 32.4728297,11.6042468 C32.6375355,11.3211188 32.7012805,11.2116423 32.7496786,11.1289012 C35.718553,6.05333609 38.0263281,3.71927958 42.1847824,2.51073877 C43.682668,2.07504845 44.700839,1.98948437 45.4578025,2.1961356 C45.6038706,2.06852783 45.6816406,2 45.6816406,2 L216.507944,2 C223.407116,2 229,7.60382598 229,14.5082332 L229,339.491767 C229,346.399873 223.410136,352 216.50183,352 L16.4981705,352 C9.59562152,352 4,346.403325 4,339.499612 L4,44.6679688 L4.02412027,44.6679688 C4.02729895,44.5817597 4.03152385,44.4944568 4.03680364,44.4060446 C4.25988293,40.6709251 5.35853367,36.8973892 7.2159603,33.089644 C7.84840442,31.7931265 8.54478611,30.5463733 9.28552114,29.3716118 C9.6900523,28.7300495 10.0698217,28.1683184 10.3772685,27.7520647 L9.97449264,28.3477206 C15.8436789,18.8381565 22.6562625,13.7289909 31.1654954,13.5645897 L31.1654954,13.5645897 Z" id="Card"></path>
        </g>
    </g>
</svg>
