<?xml version="1.0" encoding="UTF-8" standalone="no"?>
<svg width="233px" height="358px" viewBox="0 0 233 358" version="1.1" xmlns="http://www.w3.org/2000/svg" xmlns:xlink="http://www.w3.org/1999/xlink" style="background: #FFFFFF;">
    <!-- Generator: Sketch 41.2 (35397) - http://www.bohemiancoding.com/sketch -->
    <title>stuffed_animal_mask </title>
    <desc>Created with Sketch.</desc>
    <defs></defs>
    <g id="Masks" stroke="none" stroke-width="1" fill="none" fill-rule="evenodd">
        <g id="stuffed_animal_mask-" fill="#000000">
            <path d="M33.0039453,4.40725297 C33.0680142,4.40647798 33.13417,4.40567887 33.2022311,4.40485807 C35.2871456,4.15547786 37.3970268,4.13287564 39.4874459,4.33753729 C39.5066538,4.3374883 39.5241861,4.33746338 39.539978,4.33746338 C39.5595476,4.33746338 39.5827542,4.33639111 39.6094331,4.33429251 C42.2076968,2.82320512 45.1802017,2.01559287 48.2464989,2.01559287 C48.5480733,2.01559287 48.8487389,2.02340507 49.1482271,2.03892922 C49.2441735,2.01367361 49.2958984,2 49.2958984,2 L216.506231,2 C223.406349,2 229,7.60382598 229,14.5082332 L229,339.491767 C229,346.399873 223.410136,352 216.50183,352 L16.4981705,352 C9.59562152,352 4,346.402343 4,339.499661 L4,56.9707031 L4.06381488,56.7779621 C4.06280974,56.6831894 4.06230662,56.5883852 4.06230662,56.4935534 C4.06230662,49.8045487 6.5602025,43.4976872 10.8290506,38.6504933 C9.7945893,35.9118166 9.24703739,32.9966504 9.24703739,30.0180271 C9.24703739,29.0258548 9.30692649,28.0395535 9.42589307,27.0623613 C7.99726302,24.5723159 7.22657585,21.7380709 7.22657585,18.802106 C7.22657585,14.2660251 9.06520931,9.97193105 12.3319109,6.81362133 C17.971522,1.36289918 26.511162,0.560544287 33.0039453,4.40725297 L33.0039453,4.40725297 Z" id="Card"></path>
        </g>
    </g>
</svg>