<?xml version="1.0" encoding="utf-8"?>
<!-- Generator: Adobe Illustrator 18.1.1, SVG Export Plug-In . SVG Version: 6.00 Build 0)  -->
<!DOCTYPE svg PUBLIC "-//W3C//DTD SVG 1.0//EN" "http://www.w3.org/TR/2001/REC-SVG-20010904/DTD/svg10.dtd">
<svg version="1.0" id="Layer_1" xmlns="http://www.w3.org/2000/svg" xmlns:xlink="http://www.w3.org/1999/xlink" x="0px" y="0px"
	 viewBox="-25 301 383.9 192" enable-background="new -25 301 383.9 192" xml:space="preserve">
<path fill="#3DB4E7" d="M336.9,395c12.2,0,22.1,9.9,22.1,22c0,12.2-9.9,22-22.1,22c-12.2,0-22.1-9.9-22.1-22
	C314.7,404.8,324.6,395,336.9,395z"/>
<path fill="#82BC23" d="M158.9,473.2l-40.1,0l0-99.6l40,0.1L158.9,473.2z"/>
<path fill="#82BC23" d="M138.9,452.8c10.9,0,19.8,9,19.8,20.1c0,11.1-8.9,20.1-19.8,20.1s-19.8-9-19.8-20.1
	C119.1,461.8,128,452.8,138.9,452.8z"/>
<path fill="#82BC23" d="M138.9,353c10.9,0,19.8,9,19.8,20.1s-8.9,20.1-19.8,20.1s-19.8-9-19.8-20.1C119.1,362,128,353,138.9,353z"/>
<path fill="#82BC23" d="M-5,453.3c10.8,0,19.6,8.9,19.6,19.8c0,11-8.8,19.8-19.6,19.8c-10.8,0-19.6-8.9-19.6-19.8
	C-24.5,462.2-15.8,453.3-5,453.3z"/>
<path fill="#82BC23" d="M-4.9,301c10.8,0,19.6,9,19.6,20.1c0,11.1-8.8,20.1-19.6,20.1c-10.8,0-19.6-9-19.6-20.1
	C-24.5,310-15.7,301-4.9,301z"/>
<path fill="#82BC23" d="M-25,321.8l39.9,0.4l0.2,73.5l37-36.1l29.5,27.5l-26,25.6l36.3,49l-32.4,23.5l-34.6-46.3l-10.1,9.4l0,26
	l-39.8-1.6L-25,321.8z"/>
<path fill="#82BC23" d="M67,353c11,0,20,9,20,20c0,11.1-8.9,20-20,20c-11,0-20-9-20-20C47,362,55.9,353,67,353z"/>
<path fill="#82BC23" d="M75,452.7c11,0,19.9,9,19.9,20.1C94.9,484,86,493,75,493c-11,0-19.9-9-19.9-20.1
	C55.2,461.7,64.1,452.7,75,452.7z"/>
<path fill="#82BC23" d="M206.9,453.3c10.8,0,19.6,8.9,19.6,19.8c0,11-8.8,19.8-19.6,19.8c-10.8,0-19.6-8.9-19.6-19.8
	C187.3,462.2,196.1,453.3,206.9,453.3z"/>
<path fill="#82BC23" d="M207,301c10.8,0,19.6,9,19.6,20.1c0,11.1-8.8,20.1-19.6,20.1c-10.8,0-19.6-9-19.6-20.1
	C187.3,310,196.1,301,207,301z"/>
<path fill="#82BC23" d="M186.9,321.8l39.9,0.4l0.2,73.5l37-36.1l29.5,27.5l-26,25.6l36.3,49l-32.4,23.5l-34.6-46.3l-10.1,9.4l0,26
	l-39.8-1.6L186.9,321.8z"/>
<path fill="#82BC23" d="M278.8,353c11,0,20,9,20,20c0,11.1-8.9,20-20,20c-11,0-20-9-20-20C258.8,362,267.8,353,278.8,353z"/>
<path fill="#82BC23" d="M286.9,452.7c11,0,19.9,9,19.9,20.1c0,11.1-8.9,20.1-19.9,20.1c-11,0-19.9-9-19.9-20.1
	C267,461.7,275.9,452.7,286.9,452.7z"/>
</svg>
