<svg width="38" height="18" viewBox="0 0 38 18" xmlns="http://www.w3.org/2000/svg"><title>lb_t1</title><path d="M0 1.995C0 .893.902 0 2.003 0h33.994C37.103 0 38 .893 38 1.995v14.01C38 17.107 37.098 18 35.997 18H2.003C.897 18 0 17.107 0 16.005V1.995zm7.48 5.72c.806-.103 1.354-1.017 1.22-2.04C8.57 4.65 7.81 3.905 7 4.01c-.807.103-1.353 1.016-1.22 2.04.13 1.025.89 1.77 1.7 1.666zm-1.803 2.69c.703-.15 1.11-1.016.914-1.934-.195-.914-.924-1.536-1.626-1.384-.703.15-1.11 1.015-.915 1.932.195.918.926 1.537 1.627 1.387zm4.914-2.69c.808.105 1.568-.64 1.7-1.665.132-1.024-.415-1.937-1.222-2.04-.81-.105-1.57.64-1.7 1.665-.134 1.023.415 1.937 1.223 2.04zm2.446-.63c-.703-.15-1.432.47-1.63 1.386-.196.92.214 1.784.917 1.935.702.15 1.43-.47 1.63-1.387.193-.917-.216-1.783-.917-1.933zm-.98 3.762c-.386-.34-.804-.582-1.037-1.058-.212-.43-.254-.928-.552-1.315-.344-.443-.888-.708-1.45-.708h-.04c-.56 0-1.102.265-1.445.708-.3.387-.342.885-.552 1.314-.23.475-.65.717-1.038 1.057-.395.344-.626.857-.626 1.382 0 1.01.82 1.83 1.832 1.83.34 0 .675-.094.963-.274.293-.18.52-.156.89-.167.37.01.597-.015.888.166.29.18.623.275.964.275 1.01 0 1.83-.82 1.83-1.83 0-.526-.23-1.04-.626-1.383z" fill="#000" fill-rule="evenodd"/></svg>