<svg width="96" height="96" viewBox="0 0 96 96" xmlns="http://www.w3.org/2000/svg"><title>loading_spinner</title><g fill="#CC2C23" fill-rule="evenodd"><path d="M48 2C37.006 2 26.913 5.857 19 12.29c-.56.375-.93 1-.93 1.71 0 1.105.895 2 2 2 .336 0 .652-.083.93-.23.104-.03.348-.232.366-.246C28.614 9.572 37.89 6 48 6s19.386 3.572 26.634 9.524c.018.014.262.216.366.246.278.147.594.23.93.23 1.105 0 2-.895 2-2 0-.71-.37-1.335-.93-1.69C69.087 5.857 58.994 2 48 2zM48.14 94c10.994 0 21.087-3.857 29-10.29.56-.375.93-1 .93-1.71 0-1.105-.895-2-2-2-.336 0-.652.083-.93.23-.104.03-.348.232-.366.246C67.526 86.428 58.25 90 48.14 90s-19.386-3.572-26.634-9.524c-.018-.014-.262-.216-.366-.246-.278-.147-.594-.23-.93-.23-1.105 0-2 .895-2 2 0 .71.37 1.335.93 1.69C27.053 90.143 37.146 94 48.14 94z"/></g></svg>