<svg width="296" height="199" viewBox="0 0 296 199" xmlns="http://www.w3.org/2000/svg"><title>on_collect</title><g fill="#B71C1C" fill-rule="evenodd"><path d="M84 7.578L4.644 28.84c-3.328.894-5.304 4.323-4.41 7.66L42.29 193.453c.893 3.334 4.317 5.318 7.647 4.425L105.464 183H98.24C90.374 183 84 176.613 84 168.746V7.578zm128 0l79.356 21.263c3.33.895 5.304 4.324 4.41 7.66L253.71 193.452c-.893 3.336-4.32 5.317-7.647 4.425L190.536 183h7.223c7.865 0 14.24-6.386 14.24-14.254V7.578z"/><path d="M92 6.254C92 2.8 94.796 0 98.24 0h99.52c3.446 0 6.24 2.802 6.24 6.254v162.492c0 3.454-2.796 6.254-6.24 6.254H98.24c-3.446 0-6.24-2.802-6.24-6.254V6.254zM148 120c17.673 0 32-14.327 32-32 0-17.673-14.327-32-32-32-17.673 0-32 14.327-32 32 0 17.673 14.327 32 32 32zm13.523-39.745c.31 1.013.477 2.087.477 3.2v8.18c0 3.183-7.857 14.384-10 15.456-1.818.91-2.424.91-3.636.91-1.212 0-1.82 0-3.637-.91-1.818-.908-10-12.272-10-15.454v-.91c-2.045-1.135-2.727-6.362-2.727-10 0-3.635 2.727-5.908 2.727-5.908 0-3.765 6.105-6.818 13.637-6.818 5.454 0 9.318 2.955 11.363 5.91 3.182 4.772 7.273 4.317 7.273 5 0 .29-2.346.825-5.477 1.345z"/></g></svg>