<svg width="176" height="176" viewBox="0 0 176 176" xmlns="http://www.w3.org/2000/svg"><title>on_welcome</title><path d="M88 176c48.6 0 88-39.4 88-88S136.6 0 88 0 0 39.4 0 88s39.4 88 88 88zm35.664-109.685c.87 2.834 1.336 5.844 1.336 8.963v22.904c0 8.91-22 40.272-28 43.273C91.91 144 90.212 144 86.818 144s-5.09 0-10.182-2.545c-5.09-2.546-28-34.364-28-43.273v-2.546C42.91 92.456 41 77.818 41 67.636c0-10.18 7.636-16.545 7.636-16.545C48.636 40.548 65.73 32 86.818 32c15.273 0 26.09 8.273 31.818 16.545 8.91 13.364 20.364 12.09 20.364 14 0 .812-6.568 2.312-15.336 3.77z" fill="#006064" fill-rule="evenodd"/></svg>