<?xml version="1.0" encoding="utf-8"?>
<!DOCTYPE svg PUBLIC "-//W3C//DTD SVG 1.0//EN" "http://www.w3.org/TR/2001/REC-SVG-20010904/DTD/svg10.dtd">
<svg xmlns="http://www.w3.org/2000/svg" width="135" height="40" viewBox="0 0 135 40"><defs><linearGradient id="a" x1="91.488%" x2="-38.352%" y1="4.948%" y2="71.907%"><stop stop-color="#00A0FF" offset="0%"/><stop stop-color="#00A1FF" offset="1%"/><stop stop-color="#00BEFF" offset="26%"/><stop stop-color="#00D2FF" offset="51%"/><stop stop-color="#00DFFF" offset="76%"/><stop stop-color="#00E3FF" offset="100%"/></linearGradient><linearGradient id="b" x1="107.685%" x2="-130.64%" y1="50%" y2="50%"><stop stop-color="#FFE000" offset="0%"/><stop stop-color="#FFBD00" offset="41%"/><stop stop-color="#FFA500" offset="78%"/><stop stop-color="#FF9C00" offset="100%"/></linearGradient><linearGradient id="c" x1="86.219%" x2="-50.15%" y1="17.877%" y2="194.703%"><stop stop-color="#FF3A44" offset="0%"/><stop stop-color="#C31162" offset="100%"/></linearGradient><linearGradient id="d" x1="-18.754%" x2="42.121%" y1="-54.052%" y2="24.917%"><stop stop-color="#32A071" offset="0%"/><stop stop-color="#2DA771" offset="7%"/><stop stop-color="#15CF74" offset="48%"/><stop stop-color="#06E775" offset="80%"/><stop stop-color="#00F076" offset="100%"/></linearGradient></defs><g fill="none"><rect width="135" height="40" fill="#000" rx="5"/><path fill="#A6A6A6" d="M130 .8a4.2 4.2 0 0 1 4.2 4.2v30a4.2 4.2 0 0 1-4.2 4.2H5A4.2 4.2 0 0 1 .8 35V5A4.2 4.2 0 0 1 5 .8h125zm0-.8H5a5 5 0 0 0-5 5v30a5 5 0 0 0 5 5h125a5 5 0 0 0 5-5V5a5 5 0 0 0-5-5z"/><path fill="#FFF" stroke="#FFF" stroke-width=".2" d="M47.42 10.24a2.71 2.71 0 0 1-.75 2 2.91 2.91 0 0 1-2.2.89 3.15 3.15 0 0 1-2.21-5.37 3 3 0 0 1 2.21-.9 3.1 3.1 0 0 1 1.23.25c.362.146.684.376.94.67l-.53.53a2 2 0 0 0-1.64-.71 2.32 2.32 0 0 0-2.33 2.4 2.36 2.36 0 0 0 4 1.73 1.89 1.89 0 0 0 .5-1.22h-2.17v-.72h2.91c.027.149.04.3.04.45zM52 7.74h-2.7v1.9h2.46v.72H49.3v1.9H52V13h-3.5V7H52zM55.28 13h-.77V7.74h-1.68V7H57v.74h-1.72zM59.94 13V7h.77v6zM64.13 13h-.77V7.74h-1.68V7h4.12v.74h-1.67zM73.61 12.22a3.12 3.12 0 0 1-4.4 0 3.24 3.24 0 0 1 0-4.45 3.1 3.1 0 0 1 4.4 0 3.23 3.23 0 0 1 0 4.45zm-3.83-.5a2.31 2.31 0 0 0 3.26 0 2.56 2.56 0 0 0 0-3.44 2.31 2.31 0 0 0-3.26 0 2.56 2.56 0 0 0 0 3.44zM75.58 13V7h.94l2.92 4.67V7h.77v6h-.8l-3.05-4.89V13z"/><path fill="#FFF" d="M68.14 21.75A4.25 4.25 0 1 0 72.41 26a4.19 4.19 0 0 0-4.27-4.25zm0 6.83a2.58 2.58 0 1 1 2.4-2.58 2.46 2.46 0 0 1-2.4 2.58zm-9.31-6.83A4.25 4.25 0 1 0 63.09 26a4.19 4.19 0 0 0-4.27-4.25h.01zm0 6.83A2.58 2.58 0 1 1 61.22 26a2.46 2.46 0 0 1-2.4 2.58h.01zm-11.09-5.52v1.8h4.32a3.77 3.77 0 0 1-1 2.27 4.42 4.42 0 0 1-3.33 1.32 4.8 4.8 0 1 1 0-9.6A4.6 4.6 0 0 1 51 20.14l1.27-1.27A6.29 6.29 0 0 0 47.74 17a6.61 6.61 0 1 0 0 13.21 6 6 0 0 0 4.61-1.85 6 6 0 0 0 1.56-4.22 5.87 5.87 0 0 0-.1-1.13l-6.07.05zm45.31 1.4a4 4 0 0 0-3.64-2.71 4 4 0 0 0-4 4.25 4.16 4.16 0 0 0 4.22 4.25 4.23 4.23 0 0 0 3.54-1.88l-1.45-1a2.43 2.43 0 0 1-2.09 1.18 2.16 2.16 0 0 1-2.06-1.29l5.69-2.35-.21-.45zm-5.8 1.42a2.33 2.33 0 0 1 2.22-2.48 1.65 1.65 0 0 1 1.58.9l-3.8 1.58zM82.63 30h1.87V17.5h-1.87V30zm-3.06-7.3h-.07a3 3 0 0 0-2.24-1 4.26 4.26 0 0 0 0 8.51 2.9 2.9 0 0 0 2.24-1h.06v.61c0 1.63-.87 2.5-2.27 2.5a2.35 2.35 0 0 1-2.14-1.51l-1.63.68A4.05 4.05 0 0 0 77.29 34c2.19 0 4-1.29 4-4.43V22h-1.72v.7zm-2.14 5.88a2.59 2.59 0 0 1 0-5.16A2.4 2.4 0 0 1 79.7 26a2.38 2.38 0 0 1-2.28 2.58h.01zm24.38-11.08h-4.47V30h1.87v-4.74h2.61a3.89 3.89 0 1 0 0-7.76h-.01zm0 6H99.2v-4.26h2.65a2.145 2.145 0 1 1 0 4.29l-.04-.03zm11.53-1.8a3.5 3.5 0 0 0-3.33 1.91l1.66.69a1.77 1.77 0 0 1 1.7-.92 1.8 1.8 0 0 1 2 1.61v.13a4.13 4.13 0 0 0-1.95-.48c-1.79 0-3.6 1-3.6 2.81a2.89 2.89 0 0 0 3.1 2.75 2.63 2.63 0 0 0 2.4-1.2h.06v1h1.8v-4.81c0-2.19-1.66-3.46-3.79-3.46l-.05-.03zm-.23 6.85c-.61 0-1.46-.31-1.46-1.06 0-1 1.06-1.33 2-1.33a3.32 3.32 0 0 1 1.7.42 2.26 2.26 0 0 1-2.19 2l-.05-.03zM123.74 22l-2.14 5.42h-.06L119.32 22h-2l3.33 7.58-1.9 4.21h1.95L125.82 22h-2.08zm-16.81 8h1.87V17.5h-1.87V30z"/><path fill="url(#a)" d="M10.44 7.54a2 2 0 0 0-.46 1.4v22.12a2 2 0 0 0 .46 1.4l.07.07L22.9 20.15v-.29L10.51 7.47l-.07.07z"/><path fill="url(#b)" d="M27 24.28l-4.1-4.13v-.29l4.1-4.14.09.05L32 18.56c1.4.79 1.4 2.09 0 2.89l-4.89 2.78-.11.05z"/><path fill="url(#c)" d="M27.12 24.22L22.9 20 10.44 32.46a1.63 1.63 0 0 0 2.08.06l14.61-8.3"/><path fill="url(#d)" d="M27.12 15.78l-14.61-8.3a1.63 1.63 0 0 0-2.08.06L22.9 20l4.22-4.22z"/></g></svg>
