<?xml version="1.0" encoding="UTF-8" standalone="no"?>
<svg width="50px" height="50px" viewBox="0 0 50 50" version="1.1" xmlns="http://www.w3.org/2000/svg" xmlns:xlink="http://www.w3.org/1999/xlink">
    <!-- Generator: Sketch 39.1 (31720) - http://www.bohemiancoding.com/sketch -->
    <title>1003</title>
    <desc>Created with Sketch.</desc>
    <defs></defs>
    <g id="Clay-accessories" stroke="none" stroke-width="1" fill="none" fill-rule="evenodd">
        <g id="1003">
            <g id="Sun-Glasses" transform="translate(3.000000, 17.000000)">
                <g id="Group" transform="translate(1.000000, 1.000000)" fill="#5C6BC0">
                    <path d="M17,8 C15.147,11.705 11.642,15 7.5,15 C3.358,15 0,11.643 0,7.5 C0,3.357 0,0 7.5,0 C18,0 19,4 17,8 L17,8 Z" id="Shape"></path>
                    <path d="M25,8 C26.853,11.705 30.357,15 34.5,15 C38.643,15 42,11.643 42,7.5 C42,3.357 42,0 34.5,0 C24,0 23,4 25,8 L25,8 Z" id="Shape"></path>
                </g>
                <g id="Group">
                    <path d="M8.5,17 C3.813,17 0,13.187 0,8.5 C0,4.321 0,0 8.5,0 C14.227,0 17.712,1.135 19.155,3.47 C19.843,4.583 20.357,6.524 18.895,9.448 C17.069,13.099 13.379,17 8.5,17 L8.5,17 Z M8.5,2 C2,2 2,4.309 2,8.5 C2,12.084 4.916,15 8.5,15 C12.473,15 15.619,11.527 17.105,8.553 C17.948,6.867 18.065,5.511 17.453,4.521 C16.743,3.371 14.613,2 8.5,2 L8.5,2 Z" id="Shape" fill="#FFCA28"></path>
                    <path d="M35.5,17 C30.62,17 26.932,13.099 25.105,9.447 C23.643,6.523 24.157,4.583 24.844,3.469 C26.288,1.135 29.773,0 35.5,0 C44,0 44,4.321 44,8.5 C44,13.187 40.187,17 35.5,17 L35.5,17 Z M35.5,2 C29.388,2 27.257,3.371 26.546,4.521 C25.935,5.511 26.052,6.868 26.895,8.553 C28.382,11.527 31.527,15 35.5,15 C39.084,15 42,12.084 42,8.5 C42,4.309 42,2 35.5,2 L35.5,2 Z" id="Shape" fill="#FFCA28"></path>
                    <path d="M10,1 L34,1" id="Shape" stroke="#FFCA28" stroke-width="2" fill="#F1F8E9"></path>
                    <path d="M19,6 L25,6" id="Shape" stroke="#FFCA28" stroke-width="2" fill="#F1F8E9"></path>
                </g>
            </g>
        </g>
    </g>
</svg>