<?xml version="1.0" encoding="UTF-8" standalone="no"?>
<svg width="50px" height="50px" viewBox="0 0 50 50" version="1.1" xmlns="http://www.w3.org/2000/svg" xmlns:xlink="http://www.w3.org/1999/xlink">
    <!-- Generator: Sketch 39.1 (31720) - http://www.bohemiancoding.com/sketch -->
    <title>102</title>
    <desc>Created with Sketch.</desc>
    <defs></defs>
    <g id="Clay-accessories" stroke="none" stroke-width="1" fill="none" fill-rule="evenodd">
        <g id="102">
            <g id="Bow-Tie" transform="translate(2.000000, 11.000000)">
                <path d="M18,8 L18,20 C13.1,26 2,28 2,28 C2,28 0,25.5 0,14 C0,2.5 2,0 2,0 C2,0 10.9,1.1 18,8 L18,8 Z M28,8 L28,20 C32.9,26 44,28 44,28 C44,28 46,25.5 46,14 C46,2.5 44,0 44,0 C44,0 35.1,1.1 28,8 L28,8 Z" id="Shape" fill="#AB47BC"></path>
                <path d="M17,12 L9.4,12 C8.3,11.7 7.7,10.5 8.1,9.4 C8.4,8.3 9.5,7.7 10.6,8.1 C11.7,8.5 17,12 17,12 L17,12 Z M9.3,16 C8.3,16.4 7.7,17.6 8.1,18.7 C8.5,19.8 9.6,20.3 10.6,19.9 C11.6,19.5 16.9,16 16.9,16 L9.3,16 L9.3,16 Z M29,12 L36.6,12 C37.7,11.7 38.3,10.5 37.9,9.4 C37.6,8.3 36.5,7.7 35.4,8.1 C34.3,8.5 29,12 29,12 L29,12 Z M29,16 C29,16 34.3,19.5 35.3,19.9 C36.3,20.3 37.5,19.7 37.8,18.7 C38.2,17.7 37.6,16.4 36.6,16 L29,16 L29,16 Z" id="Shape" fill="#6A1B9A"></path>
                <path d="M18,20 L28,20 C28,20 29.1,18.4 29.1,14 C29.1,9.6 28,8 28,8 L18,8 C18,8 17,9.7 17,14 C17,18.3 18,20 18,20 L18,20 Z" id="Shape" fill="#CE93D8"></path>
            </g>
        </g>
    </g>
</svg>