<?xml version="1.0" encoding="UTF-8" standalone="no"?>
<svg width="50px" height="50px" viewBox="0 0 50 50" version="1.1" xmlns="http://www.w3.org/2000/svg" xmlns:xlink="http://www.w3.org/1999/xlink">
    <!-- Generator: Sketch 39.1 (31720) - http://www.bohemiancoding.com/sketch -->
    <title>1100</title>
    <desc>Created with Sketch.</desc>
    <defs></defs>
    <g id="Tic-tac-toe" stroke="none" stroke-width="1" fill="none" fill-rule="evenodd">
        <g id="1100">
            <g id="Roulette" transform="translate(5.000000, 5.000000)">
                <circle id="Oval" fill="#FF3D00" cx="20" cy="20" r="20"></circle>
                <path d="M20,20 L37.627,10.551 C38.447,12.08 39.023,13.671 39.415,15.282 L20,20 L20,20 Z M39.341,25.014 C39.756,23.409 40,21.735 40,20 L20,20 L39.341,25.014 L39.341,25.014 Z M34.242,34.013 C35.404,32.831 36.453,31.503 37.32,30 L20,20 L34.242,34.013 L34.242,34.013 Z M24.816,39.391 C26.425,38.99 28.013,38.407 29.538,37.579 L20,20 L24.816,39.391 L24.816,39.391 Z M14.986,39.341 C16.591,39.756 18.265,40 20,40 L20,20 L14.986,39.341 L14.986,39.341 Z M5.987,34.242 C7.17,35.404 8.497,36.453 10,37.32 L20,20 L5.987,34.242 L5.987,34.242 Z M0.632,24.908 C1.04,26.515 1.632,28.1 2.466,29.621 L20,20 L0.632,24.908 L0.632,24.908 Z M0.659,14.986 C0.244,16.591 0,18.265 0,20 L20,20 L0.659,14.986 L0.659,14.986 Z M5.575,6.175 C4.428,7.373 3.398,8.714 2.55,10.228 L20,20 L5.575,6.175 L5.575,6.175 Z M25.014,0.659 C23.409,0.244 21.735,0 20,0 L20,20 L25.014,0.659 L25.014,0.659 Z M14.638,0.753 C13.041,1.199 11.47,1.827 9.969,2.697 L20,20 L14.638,0.753 L14.638,0.753 Z M34.077,5.821 C32.9,4.654 31.577,3.599 30.078,2.725 L20,20 L34.077,5.821 L34.077,5.821 Z" id="Shape" fill="#37474F"></path>
                <circle id="Oval" fill="#388E3C" cx="20" cy="20" r="14"></circle>
                <path d="M33.758,22.541 L23.968,19.998 L33.756,17.443 C33.633,16.78 33.463,16.135 33.25,15.508 L23.312,18.103 L30.573,10.842 C30.136,10.338 29.663,9.865 29.159,9.428 L21.893,16.694 L24.477,6.745 C23.85,6.533 23.205,6.364 22.541,6.242 L19.998,16.032 L17.442,6.244 C16.779,6.367 16.134,6.537 15.507,6.75 L18.102,16.688 L10.842,9.428 C10.337,9.865 9.865,10.338 9.428,10.842 L16.695,18.109 L6.744,15.524 C6.532,16.151 6.363,16.796 6.242,17.46 L16.032,20.003 L6.244,22.558 C6.367,23.221 6.537,23.866 6.75,24.493 L16.686,21.899 L9.427,29.158 C9.864,29.662 10.337,30.135 10.841,30.572 L18.109,23.304 L15.524,33.255 C16.151,33.467 16.796,33.636 17.459,33.757 L20.002,23.967 L22.557,33.755 C23.22,33.632 23.865,33.462 24.492,33.249 L21.898,23.312 L29.158,30.572 C29.663,30.135 30.135,29.662 30.572,29.158 L23.305,21.891 L33.255,24.475 C33.468,23.849 33.637,23.204 33.758,22.541 L33.758,22.541 Z" id="Shape" fill="#66BB6A"></path>
                <circle id="Oval" fill="#5D4037" cx="20" cy="20" r="10"></circle>
                <path d="M15,15 L25,25 M15,25 L25,15" id="Shape" stroke="#DD9F05" stroke-width="2"></path>
                <path d="M20,4 C11.163,4 4,11.163 4,20 C4,28.837 11.163,36 20,36 C28.837,36 36,28.837 36,20 C36,11.163 28.837,4 20,4 L20,4 Z M20,34 C12.268,34 6,27.732 6,20 C6,12.268 12.268,6 20,6 C27.732,6 34,12.268 34,20 C34,27.732 27.732,34 20,34 L20,34 Z M18,20 C18,18.895 18.895,18 20,18 C21.105,18 22,18.895 22,20 C22,21.105 21.105,22 20,22 C18.895,22 18,21.105 18,20 L18,20 Z M14,15.5 C14,14.672 14.672,14 15.5,14 C16.328,14 17,14.672 17,15.5 C17,16.328 16.328,17 15.5,17 C14.672,17 14,16.328 14,15.5 L14,15.5 Z M23,15.5 C23,14.672 23.672,14 24.5,14 C25.328,14 26,14.672 26,15.5 C26,16.328 25.328,17 24.5,17 C23.672,17 23,16.328 23,15.5 L23,15.5 Z M14,24.5 C14,23.672 14.672,23 15.5,23 C16.328,23 17,23.672 17,24.5 C17,25.328 16.328,26 15.5,26 C14.672,26 14,25.328 14,24.5 L14,24.5 Z M23,24.5 C23,23.672 23.672,23 24.5,23 C25.328,23 26,23.672 26,24.5 C26,25.328 25.328,26 24.5,26 C23.672,26 23,25.328 23,24.5 L23,24.5 Z" id="Shape" fill="#FFC107"></path>
            </g>
        </g>
    </g>
</svg>