<?xml version="1.0" encoding="UTF-8" standalone="no"?>
<svg width="50px" height="50px" viewBox="0 0 50 50" version="1.1" xmlns="http://www.w3.org/2000/svg" xmlns:xlink="http://www.w3.org/1999/xlink">
    <!-- Generator: Sketch 39.1 (31720) - http://www.bohemiancoding.com/sketch -->
    <title>1400</title>
    <desc>Created with Sketch.</desc>
    <defs></defs>
    <g id="Tic-tac-toe" stroke="none" stroke-width="1" fill="none" fill-rule="evenodd">
        <g id="1400">
            <g id="Fire-Element" transform="translate(10.000000, 6.000000)">
                <path d="M30,23 C30,31.395 23.394,38 14.999,38 C6.604,38 0,31.395 0,23 C0,14.605 13.479,7.6 11.959,0 C15,0 30,10.841 30,23 L30,23 Z" id="Shape" fill="#DD2C00"></path>
                <path d="M24,27 C24,19.401 15,12 15,12 C15,18.08 6,20.921 6,27 C6,32.036 9.963,36 15,36 C20.037,36 24,32.036 24,27 L24,27 Z" id="Shape" fill="#FF5722"></path>
                <path d="M9.999,30.406 C10,27 15,25.051 15,22 C15,22 19.999,25.832 19.999,30.406 C19.999,32.931 17.762,34.98 14.999,34.98 C12.236,34.98 9.998,32.932 9.999,30.406 L9.999,30.406 Z" id="Shape" fill="#FFC107"></path>
            </g>
        </g>
    </g>
</svg>