<?xml version="1.0" encoding="UTF-8" standalone="no"?>
<svg width="50px" height="50px" viewBox="0 0 50 50" version="1.1" xmlns="http://www.w3.org/2000/svg" xmlns:xlink="http://www.w3.org/1999/xlink">
    <!-- Generator: Sketch 39.1 (31720) - http://www.bohemiancoding.com/sketch -->
    <title>1500</title>
    <desc>Created with Sketch.</desc>
    <defs></defs>
    <g id="Tic-tac-toe" stroke="none" stroke-width="1" fill="none" fill-rule="evenodd">
        <g id="1500">
            <g id="Full-Moon" transform="translate(5.000000, 5.000000)">
                <circle id="Oval" fill="#FFE082" cx="20" cy="20" r="20"></circle>
                <path d="M20,0 C13.457,0 7.665,3.157 4.016,8.016 C7.358,5.506 11.498,4 16,4 C27.045,4 36,12.955 36,24 C36,28.502 34.494,32.642 31.984,35.984 C36.843,32.335 40,26.543 40,20 C40,8.955 31.045,0 20,0 L20,0 Z" id="Shape" fill="#FFD54F"></path>
                <g id="Group" transform="translate(7.000000, 7.000000)" fill="#FFCA28">
                    <circle id="Oval" cx="2.5" cy="15.5" r="2.5"></circle>
                    <circle id="Oval" cx="25.5" cy="20.5" r="2.5"></circle>
                    <circle id="Oval" cx="10" cy="4" r="4"></circle>
                    <circle id="Oval" cx="11.5" cy="21.5" r="3.5"></circle>
                </g>
                <g id="Group" transform="translate(7.000000, 7.000000)" fill="#E5B223">
                    <path d="M11.5,7.5 C9.567,7.5 8,5.933 8,4 C8,2.067 9.567,0.5 11.5,0.5 C11.668,0.5 11.828,0.526 11.99,0.549 C11.401,0.209 10.729,0 10,0 C7.791,0 6,1.791 6,4 C6,6.209 7.791,8 10,8 C10.729,8 11.401,7.791 11.99,7.451 C11.828,7.474 11.668,7.5 11.5,7.5 L11.5,7.5 Z" id="Shape"></path>
                    <path d="M25,20.5 C25,19.476 25.618,18.597 26.5,18.211 C26.193,18.077 25.856,18 25.5,18 C24.119,18 23,19.119 23,20.5 C23,21.881 24.119,23 25.5,23 C25.856,23 26.193,22.923 26.5,22.789 C25.618,22.402 25,21.524 25,20.5 L25,20.5 Z" id="Shape"></path>
                    <path d="M2,15.5 C2,14.476 2.618,13.597 3.5,13.211 C3.193,13.077 2.856,13 2.5,13 C1.119,13 0,14.119 0,15.5 C0,16.881 1.119,18 2.5,18 C2.856,18 3.193,17.923 3.5,17.789 C2.618,17.402 2,16.524 2,15.5 L2,15.5 Z" id="Shape"></path>
                    <path d="M10,21.5 C10,19.917 11.058,18.596 12.5,18.162 C12.182,18.066 11.85,18 11.5,18 C9.567,18 8,19.567 8,21.5 C8,23.433 9.567,25 11.5,25 C11.85,25 12.182,24.934 12.5,24.838 C11.058,24.404 10,23.083 10,21.5 L10,21.5 Z" id="Shape"></path>
                </g>
            </g>
        </g>
    </g>
</svg>