<?xml version="1.0" encoding="UTF-8" standalone="no"?>
<svg width="50px" height="50px" viewBox="0 0 50 50" version="1.1" xmlns="http://www.w3.org/2000/svg" xmlns:xlink="http://www.w3.org/1999/xlink">
    <!-- Generator: Sketch 39.1 (31720) - http://www.bohemiancoding.com/sketch -->
    <title>1600</title>
    <desc>Created with Sketch.</desc>
    <defs></defs>
    <g id="Tic-tac-toe" stroke="none" stroke-width="1" fill="none" fill-rule="evenodd">
        <g id="1600">
            <g id="Spring" transform="translate(6.000000, 5.000000)">
                <g id="Group" transform="translate(0.000000, 1.000000)" fill="#D81B60">
                    <path d="M17.334,2.793 C17.815,4.379 19.095,18.986 19.095,18.986 C19.095,18.986 12.034,6.114 11.552,4.527 C11.071,2.94 11.974,1.265 13.571,0.787 C15.167,0.308 16.853,1.206 17.334,2.793 L17.334,2.793 Z" id="Shape"></path>
                    <path d="M8.77,6.308 C10.045,7.376 19.092,18.976 19.092,18.976 C19.092,18.976 6.15,11.965 4.875,10.897 C3.602,9.829 3.439,7.934 4.515,6.667 C5.591,5.4 7.495,5.24 8.77,6.308 L8.77,6.308 Z" id="Shape"></path>
                    <path d="M3.501,13.919 C5.154,14.127 19.092,18.976 19.092,18.976 C19.092,18.976 4.396,20.082 2.741,19.875 C1.088,19.666 -0.084,18.164 0.126,16.519 C0.335,14.874 1.848,13.711 3.501,13.919 L3.501,13.919 Z" id="Shape"></path>
                    <path d="M3.178,22.916 C4.692,22.219 19.092,18.976 19.092,18.976 C19.092,18.976 7.228,27.668 5.715,28.365 C4.202,29.062 2.407,28.405 1.705,26.901 C1.005,25.396 1.665,23.611 3.178,22.916 L3.178,22.916 Z" id="Shape"></path>
                    <path d="M7.917,30.908 C8.802,29.505 19.092,18.976 19.092,18.976 C19.092,18.976 13.917,32.695 13.032,34.098 C12.146,35.502 10.283,35.926 8.87,35.045 C7.456,34.166 7.032,32.312 7.917,30.908 L7.917,30.908 Z" id="Shape"></path>
                    <path d="M26.321,4.344 C25.883,5.943 19.092,18.976 19.092,18.976 C19.092,18.976 20.058,4.356 20.497,2.757 C20.937,1.16 22.6,0.218 24.207,0.656 C25.816,1.094 26.763,2.745 26.321,4.344 L26.321,4.344 Z" id="Shape"></path>
                    <path d="M33.168,10.609 C31.924,11.712 19.092,18.975 19.092,18.975 C19.092,18.975 27.905,7.232 29.148,6.127 C30.392,5.024 32.301,5.134 33.412,6.371 C34.522,7.608 34.411,9.507 33.168,10.609 L33.168,10.609 Z" id="Shape"></path>
                    <path d="M35.485,19.433 C33.84,19.7 19.092,18.976 19.092,18.976 C19.092,18.976 32.87,13.776 34.516,13.508 C36.162,13.242 37.713,14.354 37.982,15.99 C38.25,17.626 37.131,19.167 35.485,19.433 L35.485,19.433 Z" id="Shape"></path>
                    <path d="M32.528,28.325 C31.006,27.647 19.091,18.975 19.091,18.975 C19.091,18.975 33.476,22.169 34.996,22.845 C36.517,23.523 37.199,25.3 36.517,26.814 C35.835,28.327 34.049,29.002 32.528,28.325 L32.528,28.325 Z" id="Shape"></path>
                    <path d="M25.466,33.996 C24.541,32.619 19.092,18.975 19.092,18.975 C19.092,18.975 29.563,29.287 30.489,30.663 C31.414,32.041 31.041,33.906 29.653,34.827 C28.267,35.748 26.392,35.374 25.466,33.996 L25.466,33.996 Z" id="Shape"></path>
                    <path d="M16.191,35.022 C16.171,33.365 19.091,18.976 19.091,18.976 C19.091,18.976 22.209,33.296 22.23,34.953 C22.249,36.61 20.914,37.971 19.245,37.99 C17.577,38.008 16.211,36.68 16.191,35.022 L16.191,35.022 Z" id="Shape"></path>
                </g>
                <g id="Group" fill="#FF80AB">
                    <path d="M22.02,3.991 C22.02,5.648 19,20 19,20 C19,20 15.98,5.648 15.98,3.991 C15.98,2.334 17.332,0.99 19,0.99 C20.668,0.99 22.02,2.334 22.02,3.991 L22.02,3.991 Z" id="Shape"></path>
                    <path d="M12.799,4.897 C13.709,6.285 19,19.989 19,19.989 C19,19.989 8.647,9.561 7.737,8.172 C6.828,6.784 7.223,4.924 8.621,4.019 C10.019,3.114 11.89,3.509 12.799,4.897 L12.799,4.897 Z" id="Shape"></path>
                    <path d="M5.544,10.671 C7.066,11.344 19,19.989 19,19.989 C19,19.989 4.608,16.827 3.085,16.154 C1.563,15.48 0.878,13.705 1.556,12.19 C2.235,10.676 4.021,9.996 5.544,10.671 L5.544,10.671 Z" id="Shape"></path>
                    <path d="M2.619,19.191 C4.271,18.959 19,19.989 19,19.989 C19,19.989 5.115,24.903 3.465,25.135 C1.815,25.366 0.286,24.224 0.052,22.581 C-0.182,20.941 0.969,19.423 2.619,19.191 L2.619,19.191 Z" id="Shape"></path>
                    <path d="M4.834,28.203 C6.089,27.114 19,19.99 19,19.99 C19,19.99 10.06,31.636 8.804,32.727 C7.548,33.817 5.64,33.687 4.543,32.438 C3.446,31.189 3.578,29.293 4.834,28.203 L4.834,28.203 Z" id="Shape"></path>
                    <path d="M30.174,8.057 C29.289,9.461 19,19.989 19,19.989 C19,19.989 24.173,6.269 25.059,4.866 C25.945,3.463 27.809,3.038 29.222,3.919 C30.635,4.801 31.061,6.653 30.174,8.057 L30.174,8.057 Z" id="Shape"></path>
                    <path d="M34.906,16.021 C33.395,16.72 19,19.989 19,19.989 C19,19.989 30.849,11.276 32.36,10.577 C33.871,9.879 35.668,10.531 36.372,12.035 C37.076,13.537 36.418,15.322 34.906,16.021 L34.906,16.021 Z" id="Shape"></path>
                    <path d="M34.562,25.135 C32.91,24.918 19.001,19.989 19.001,19.989 C19.001,19.989 33.702,18.967 35.355,19.184 C37.007,19.402 38.17,20.91 37.952,22.554 C37.733,24.198 36.214,25.353 34.562,25.135 L34.562,25.135 Z" id="Shape"></path>
                    <path d="M29.146,32.798 C27.887,31.713 19,19.989 19,19.989 C19,19.989 31.843,27.177 33.102,28.261 C34.363,29.347 34.499,31.244 33.406,32.497 C32.312,33.75 30.404,33.884 29.146,32.798 L29.146,32.798 Z" id="Shape"></path>
                    <path d="M20.736,36.2 C20.251,34.615 19,19.989 19,19.989 C19,19.989 26.027,32.867 26.515,34.452 C27,36.037 26.1,37.716 24.504,38.198 C22.909,38.681 21.223,37.785 20.736,36.2 L20.736,36.2 Z" id="Shape"></path>
                    <path d="M11.561,34.519 C12.022,32.927 19,19.99 19,19.99 C19,19.99 17.823,34.594 17.361,36.186 C16.898,37.778 15.223,38.696 13.621,38.236 C12.02,37.775 11.097,36.11 11.561,34.519 L11.561,34.519 Z" id="Shape"></path>
                </g>
                <path d="M19,15.986 C21.207,15.986 23,17.779 23,19.986 C23,22.194 21.207,23.986 19,23.986 C16.793,23.986 15,22.194 15,19.986 C15,17.779 16.793,15.986 19,15.986" id="Shape" fill="#FFC107"></path>
                <g id="Group" transform="translate(13.000000, 14.000000)" fill="#FFF59D">
                    <path d="M6,3.49 C5.61,3.49 5.22,3.33 4.94,3.05 C4.66,2.77 4.5,2.38 4.5,1.99 C4.5,1.59 4.66,1.2 4.94,0.92 C5.5,0.37 6.5,0.37 7.06,0.92 C7.34,1.2 7.5,1.59 7.5,1.99 C7.5,2.38 7.34,2.77 7.06,3.05 C6.78,3.33 6.4,3.49 6,3.49 L6,3.49 Z" id="Shape"></path>
                    <path d="M4.52,9.99 C4.52,9.16 5.18,8.49 6.01,8.479 L6.01,8.479 C6.84,8.479 7.51,9.149 7.52,9.979 L7.52,9.979 C7.52,10.809 6.85,11.479 6.03,11.479 L6.03,11.479 L6.03,11.479 L6.03,11.479 L6.02,11.479 L6.02,11.479 C5.19,11.479 4.52,10.819 4.52,9.99 L4.52,9.99 Z M2.14,9.899 L2.14,9.899 L2.14,9.899 C1.55,9.319 1.54,8.37 2.12,7.78 L2.12,7.78 C2.71,7.189 3.65,7.179 4.24,7.759 L4.24,7.759 C4.83,8.349 4.84,9.299 4.26,9.879 L4.26,9.879 C3.96,10.179 3.58,10.329 3.19,10.329 L3.19,10.329 C2.81,10.33 2.43,10.189 2.14,9.899 L2.14,9.899 Z M7.78,9.87 C7.189,9.28 7.189,8.33 7.769,7.75 L7.769,7.75 C8.359,7.16 9.309,7.149 9.889,7.74 L9.889,7.74 C10.479,8.319 10.479,9.269 9.899,9.859 L9.899,9.859 C9.609,10.16 9.219,10.299 8.839,10.299 L8.839,10.299 C8.45,10.3 8.069,10.16 7.78,9.87 L7.78,9.87 Z M0.5,6.03 C0.49,5.2 1.16,4.52 1.99,4.52 L1.99,4.52 C2.82,4.51 3.49,5.18 3.5,6 L3.5,6 C3.51,6.83 2.84,7.51 2.01,7.52 L2.01,7.52 L2,7.52 L2,7.52 C1.18,7.52 0.51,6.85 0.5,6.03 L0.5,6.03 Z M8.5,5.98 C8.5,5.15 9.17,4.48 9.99,4.48 L9.99,4.48 C10.819,4.48 11.5,5.15 11.5,5.98 L11.5,5.98 C11.5,6.8 10.83,7.48 10,7.48 L10,7.48 C9.17,7.479 8.5,6.81 8.5,5.98 L8.5,5.98 Z M2.09,4.25 C1.5,3.67 1.49,2.72 2.08,2.13 L2.08,2.13 C2.66,1.54 3.61,1.53 4.2,2.11 L4.2,2.11 C4.79,2.69 4.8,3.64 4.21,4.23 L4.21,4.23 C3.92,4.53 3.53,4.68 3.15,4.68 L3.15,4.68 C2.77,4.68 2.39,4.54 2.09,4.25 L2.09,4.25 Z M7.77,4.22 C7.18,3.63 7.18,2.68 7.77,2.1 L7.77,2.1 C8.35,1.51 9.3,1.51 9.89,2.09 L9.89,2.09 L9.89,2.09 L9.89,2.09 C10.47,2.68 10.47,3.63 9.89,4.22 L9.89,4.22 C9.59,4.51 9.21,4.66 8.83,4.66 L8.83,4.66 C8.439,4.66 8.06,4.51 7.77,4.22 L7.77,4.22 Z" id="Shape"></path>
                    <path d="M6,3.49 C5.61,3.49 5.22,3.33 4.94,3.05 C4.66,2.77 4.5,2.38 4.5,1.99 C4.5,1.59 4.66,1.2 4.94,0.92 C5.5,0.37 6.5,0.37 7.06,0.92 C7.34,1.2 7.5,1.59 7.5,1.99 C7.5,2.38 7.34,2.77 7.06,3.05 C6.78,3.33 6.4,3.49 6,3.49 L6,3.49 Z" id="Shape"></path>
                </g>
            </g>
        </g>
    </g>
</svg>