<?xml version="1.0" encoding="UTF-8" standalone="no"?>
<svg width="50px" height="50px" viewBox="0 0 50 50" version="1.1" xmlns="http://www.w3.org/2000/svg" xmlns:xlink="http://www.w3.org/1999/xlink">
    <!-- Generator: Sketch 39.1 (31720) - http://www.bohemiancoding.com/sketch -->
    <title>1700</title>
    <desc>Created with Sketch.</desc>
    <defs></defs>
    <g id="Tic-tac-toe" stroke="none" stroke-width="1" fill="none" fill-rule="evenodd">
        <g id="1700">
            <g id="Winter" transform="translate(8.000000, 6.000000)">
                <g id="Group" transform="translate(5.000000, 7.000000)" stroke="#536DFE" stroke-width="2">
                    <path d="M12,23.083 L12,0.918" id="Shape"></path>
                    <path d="M21.917,17.543 L2.083,6.458" id="Shape"></path>
                    <path d="M2.083,17.543 L21.917,6.458" id="Shape"></path>
                    <path d="M6.5,2.5 L18.5,22.5" id="Shape"></path>
                    <path d="M17.5,2.5 L5.5,22.5" id="Shape"></path>
                    <path d="M0,12 L24,12" id="Shape"></path>
                </g>
                <g id="Group" transform="translate(3.000000, 8.000000)" fill="#448AFF">
                    <circle id="Oval" cx="8.5" cy="1.5" r="1.5"></circle>
                    <circle id="Oval" cx="26.5" cy="11" r="1.5"></circle>
                    <circle id="Oval" cx="1.5" cy="11" r="1.5"></circle>
                    <circle id="Oval" cx="20.5" cy="21.5" r="1.5"></circle>
                    <circle id="Oval" cx="19.5" cy="1.5" r="1.5"></circle>
                    <circle id="Oval" cx="7.5" cy="21.5" r="1.5"></circle>
                </g>
                <g id="Group" stroke="#8C9EFF" stroke-width="2" stroke-linecap="round">
                    <path d="M-8.8817842e-16,28.5 C2.091,27.324 4.181,26.148 6.272,24.972" id="Shape"></path>
                    <path d="M28.194,12.766 C30.13,11.678 32.064,10.589 34,9.5" id="Shape"></path>
                    <polyline id="Shape" points="28.713 6.971 26.917 13.458 33.62 15.196"></polyline>
                    <polyline id="Shape" points="5.286 31.029 7.083 24.543 0.379 22.804"></polyline>
                    <path d="M17,7 L17,0" id="Shape"></path>
                    <polyline id="Shape" points="21.907 3.168 17 7.918 12.093 3.168"></polyline>
                    <path d="M17,38 L17,31" id="Shape"></path>
                    <polyline id="Shape" points="12.093 34.833 17 30.083 21.907 34.833"></polyline>
                    <path d="M34,28.5 C31.827,27.278 29.655,26.056 27.482,24.834" id="Shape"></path>
                    <polyline id="Shape" points="28.713 31.029 26.917 24.543 33.62 22.804"></polyline>
                    <path d="M6.346,13.046 C4.231,11.864 2.115,10.682 0,9.5" id="Shape" stroke-linejoin="round"></path>
                    <polyline id="Shape" points="5.286 6.971 7.083 13.458 0.379 15.196"></polyline>
                </g>
            </g>
        </g>
    </g>
</svg>