<?xml version="1.0" encoding="UTF-8" standalone="no"?>
<svg width="50px" height="50px" viewBox="0 0 50 50" version="1.1" xmlns="http://www.w3.org/2000/svg" xmlns:xlink="http://www.w3.org/1999/xlink">
    <!-- Generator: Sketch 39.1 (31720) - http://www.bohemiancoding.com/sketch -->
    <title>1800</title>
    <desc>Created with Sketch.</desc>
    <defs></defs>
    <g id="Tic-tac-toe" stroke="none" stroke-width="1" fill="none" fill-rule="evenodd">
        <g id="1800">
            <g id="Galaxy" transform="translate(5.000000, 6.000000)">
                <g id="Group" fill="#4527A0">
                    <ellipse id="Oval" transform="translate(19.645773, 19.353200) rotate(45.000000) translate(-19.645773, -19.353200) " cx="19.6457732" cy="19.3532" rx="10.9998945" ry="15.4998514"></ellipse>
                    <path d="M0.201,27.485 C-0.4,23.933 0.465,20.198 1.938,16.869 C2.667,15.184 3.579,13.587 4.596,12.057 C5.106,11.292 5.643,10.545 6.217,9.815 C6.51,9.448 6.787,9.096 7.14,8.716 C7.435,8.389 7.741,8.058 8.075,7.714 C10.661,5.08 13.712,2.702 17.468,1.334 C21.185,-0.084 25.739,0.048 29.489,1.975 C30.446,2.469 31.288,2.973 32.229,3.793 C33.075,4.588 33.75,5.382 34.367,6.364 C35.611,8.284 36.131,10.801 35.876,13.057 C35.636,15.331 34.81,17.339 33.819,19.106 C32.818,20.878 31.627,22.442 30.36,23.889 C30.043,24.25 29.719,24.604 29.392,24.952 L28.856,25.503 C28.674,25.684 28.492,25.852 28.308,26.019 C27.574,26.682 26.814,27.307 25.989,27.903 C25.161,28.496 24.28,29.061 23.234,29.55 C22.181,30.011 20.968,30.511 19.205,30.407 C18.338,30.347 17.323,30.03 16.514,29.45 C16.312,29.308 16.12,29.154 15.949,28.993 L15.819,28.871 C15.707,28.761 15.65,28.693 15.602,28.64 C15.506,28.528 15.431,28.431 15.36,28.335 C15.083,27.959 14.881,27.599 14.709,27.222 C14.021,25.718 14.001,24.067 14.32,22.728 C14.996,20.034 16.533,18.292 17.899,16.862 C18.973,15.806 19.754,14.634 19.905,13.871 C19.986,13.502 19.936,13.296 19.888,13.187 C19.881,13.166 19.857,13.136 19.896,13.186 C19.921,13.212 19.894,13.196 20.076,13.374 L19.971,13.276 C20.001,13.308 20.035,13.337 20.072,13.361 C20.082,13.371 20.093,13.379 20.105,13.384 C20.206,13.451 20.336,13.469 20.303,13.457 C20.246,13.426 19.699,13.52 19.137,13.79 C18.561,14.051 17.926,14.434 17.303,14.871 C16.679,15.309 16.055,15.807 15.464,16.326 C14.898,16.825 14.333,17.392 13.763,17.99 C11.541,20.329 9.66,23.064 9.316,25.624 C9.141,26.893 9.367,28.044 9.976,29.175 C10.127,29.458 10.307,29.737 10.51,30.01 C10.612,30.147 10.717,30.282 10.831,30.416 L11.121,30.75 C11.543,31.166 12.17,31.624 12.785,31.98 C14.045,32.709 15.465,33.175 16.937,33.33 C18.412,33.481 19.943,33.33 21.462,32.932 C24.515,32.126 27.416,30.287 30.029,28.096 C32.628,25.968 34.899,23.232 36.775,20.346 C37.705,18.886 38.497,17.334 39.053,15.69 C39.629,14.051 39.918,12.297 39.799,10.513 C40.26,12.244 40.229,14.112 39.916,15.91 C39.587,17.712 38.972,19.455 38.213,21.123 C37.459,22.797 36.519,24.376 35.489,25.893 C34.972,26.651 34.43,27.391 33.857,28.116 C33.565,28.482 33.285,28.831 32.947,29.206 C32.637,29.546 32.328,29.888 32.006,30.219 C29.433,32.854 26.39,35.244 22.647,36.637 C18.941,38.075 14.385,37.988 10.617,36.089 C9.664,35.61 8.792,35.087 7.884,34.321 L7.671,34.126 L7.527,33.986 L7.243,33.701 C7.055,33.508 6.872,33.305 6.693,33.097 C6.337,32.68 5.999,32.233 5.694,31.752 C4.435,29.848 3.873,27.338 4.106,25.071 C4.32,22.787 5.134,20.764 6.117,18.989 C7.11,17.208 8.297,15.637 9.56,14.185 C10.192,13.472 10.844,12.739 11.604,12.051 C12.334,11.381 13.088,10.751 13.908,10.151 C14.729,9.552 15.603,8.981 16.637,8.481 C17.675,8.006 18.865,7.501 20.598,7.543 C21.452,7.57 22.468,7.836 23.317,8.39 L23.625,8.602 C23.748,8.697 23.868,8.795 23.985,8.897 L24.125,9.025 C24.39,9.278 24.432,9.348 24.527,9.461 C24.843,9.858 25.052,10.211 25.239,10.59 C25.976,12.089 26.037,13.755 25.739,15.116 C25.441,16.493 24.861,17.61 24.233,18.569 C23.603,19.523 22.881,20.354 22.176,21.063 C21.595,21.634 21.159,22.135 20.785,22.67 C20.421,23.191 20.181,23.699 20.088,24.078 C19.992,24.463 20.034,24.684 20.082,24.81 C20.093,24.838 20.11,24.867 20.097,24.849 L20.061,24.806 L19.95,24.688 L19.901,24.652 C19.816,24.589 19.676,24.562 19.693,24.572 C19.718,24.602 20.256,24.523 20.811,24.259 C21.382,24.003 22.016,23.623 22.637,23.188 C23.26,22.751 23.884,22.255 24.475,21.734 L24.908,21.346 L25.319,20.956 L26.183,20.081 C28.413,17.745 30.31,15.015 30.687,12.446 C30.877,11.171 30.661,10.016 30.074,8.88 C29.791,8.327 29.34,7.726 28.923,7.271 C28.553,6.889 27.902,6.4 27.297,6.048 C26.043,5.308 24.624,4.828 23.152,4.665 C21.678,4.501 20.147,4.641 18.626,5.026 C15.569,5.81 12.659,7.648 10.045,9.823 C7.432,11.932 5.215,14.698 3.383,17.616 C1.59,20.564 0.264,23.898 0.201,27.485 L0.201,27.485 Z" id="Shape"></path>
                </g>
                <g id="Group" transform="translate(5.000000, 4.000000)" fill="#9575CD">
                    <path d="M14.892,17.26 C16.711,15.901 18.566,14.202 19.989,12.441 C21.424,10.698 22.453,8.619 22.146,7.249 C22.08,6.901 21.944,6.571 21.719,6.238 C21.611,6.073 21.47,5.906 21.323,5.748 C21.067,5.483 20.978,5.405 20.763,5.211 C20.006,4.561 19.183,4.135 18.275,3.982 C16.457,3.642 14.248,4.483 12.265,5.75 C10.267,7.005 8.374,8.71 6.59,10.381 C4.867,12.013 3.41,14.018 2.463,16.24 C1.513,18.457 1.118,20.943 1.575,23.373 C2.014,25.806 3.297,28.093 5,30 C3.086,28.312 1.472,26.151 0.681,23.595 C-0.128,21.049 -0.038,18.22 0.725,15.628 C1.485,13.022 2.819,10.61 4.57,8.492 C6.354,6.506 8.213,4.685 10.448,3.057 C11.567,2.259 12.782,1.527 14.165,0.992 C15.538,0.463 17.122,0.136 18.762,0.32 C20.402,0.486 21.974,1.201 23.206,2.151 C23.486,2.363 23.882,2.703 24.079,2.889 C24.389,3.178 24.681,3.486 24.95,3.837 C25.491,4.526 25.928,5.37 26.161,6.266 C26.642,8.087 26.303,9.871 25.765,11.313 C25.215,12.778 24.457,14.032 23.636,15.187 C21.957,17.498 20.11,19.391 17.937,21.224 C16.881,22.116 15.302,21.982 14.412,20.925 C13.52,19.869 13.655,18.29 14.711,17.4 C14.747,17.37 14.783,17.34 14.82,17.312 L14.892,17.26 L14.892,17.26 Z" id="Shape"></path>
                    <path d="M15.108,12.74 C13.289,14.099 11.434,15.798 10.011,17.559 C8.576,19.302 7.547,21.381 7.854,22.751 C7.92,23.1 8.056,23.43 8.282,23.762 C8.39,23.927 8.53,24.095 8.678,24.252 C8.935,24.518 9.023,24.595 9.239,24.789 C9.995,25.439 10.819,25.865 11.726,26.019 C13.544,26.358 15.753,25.517 17.736,24.25 C19.735,22.995 21.627,21.289 23.411,19.619 C25.134,17.987 26.591,15.981 27.538,13.76 C28.488,11.543 28.883,9.057 28.426,6.627 C27.986,4.194 26.703,1.907 25,0 C26.914,1.688 28.528,3.849 29.319,6.405 C30.128,8.951 30.038,11.779 29.275,14.372 C28.515,16.978 27.181,19.39 25.43,21.508 C23.646,23.494 21.787,25.315 19.552,26.943 C18.433,27.741 17.218,28.473 15.835,29.008 C14.462,29.537 12.878,29.864 11.238,29.68 C9.599,29.514 8.027,28.799 6.794,27.849 C6.515,27.637 6.118,27.297 5.921,27.112 C5.611,26.823 5.319,26.514 5.051,26.163 C4.509,25.474 4.073,24.63 3.839,23.734 C3.359,21.913 3.697,20.13 4.235,18.687 C4.784,17.222 5.543,15.968 6.363,14.814 C8.042,12.503 9.889,10.609 12.062,8.776 C13.118,7.884 14.697,8.018 15.587,9.075 C16.479,10.131 16.344,11.71 15.288,12.6 C15.252,12.63 15.216,12.66 15.179,12.688 L15.108,12.74 L15.108,12.74 Z" id="Shape"></path>
                </g>
                <g id="Group" transform="translate(11.000000, 7.000000)" fill="#EDE7F6">
                    <circle id="Oval" cx="8" cy="5" r="1"></circle>
                    <circle id="Oval" cx="8.549" cy="10.451" r="1.5"></circle>
                    <circle id="Oval" cx="4.049" cy="14.951" r="1"></circle>
                    <circle id="Oval" cx="0.5" cy="6.5" r="0.5"></circle>
                    <circle id="Oval" cx="15.549" cy="2.451" r="1.5"></circle>
                    <circle id="Oval" cx="2.549" cy="20.451" r="0.5"></circle>
                    <circle id="Oval" cx="11.549" cy="17.451" r="1.5"></circle>
                </g>
            </g>
        </g>
    </g>
</svg>