<?xml version="1.0" encoding="UTF-8" standalone="no"?>
<svg width="50px" height="50px" viewBox="0 0 50 50" version="1.1" xmlns="http://www.w3.org/2000/svg" xmlns:xlink="http://www.w3.org/1999/xlink">
    <!-- Generator: Sketch 39.1 (31720) - http://www.bohemiancoding.com/sketch -->
    <title>1900</title>
    <desc>Created with Sketch.</desc>
    <defs></defs>
    <g id="Tic-tac-toe" stroke="none" stroke-width="1" fill="none" fill-rule="evenodd">
        <g id="1900">
            <g id="Paper-Windmill" transform="translate(7.000000, 7.000000)">
                <polygon id="Shape" fill="#AB47BC" points="36 0 17 0 9 9 0 0 0 19 9 27 0 36 19 36 27 27 36 36 36 17 27 9"></polygon>
                <path d="M16.604,19.396 L18,18 C24.042,26.25 19,36 19,36 C21.208,26.042 16.604,19.396 16.604,19.396 L16.604,19.396 Z M0,19 C0,19 9.75,24.042 18,18 L16.604,16.604 C16.604,16.604 9.958,21.208 0,19 L0,19 Z M17,0 C17,0 11.958,9.75 18,18 L19.396,16.604 C19.396,16.604 14.792,9.958 17,0 L17,0 Z M36,17 C36,17 26.25,11.958 18,18 L19.396,19.396 C19.396,19.396 26.042,14.792 36,17 L36,17 Z" id="Shape" fill="#7B1FA2"></path>
                <path d="M19,36 C19,36 24.042,26.167 18,18 L27,27 L19,36 L19,36 Z M9,27 L18,18 C9.833,24.042 0,19 0,19 L9,27 L9,27 Z M9,9 L18,18 C11.958,9.833 17,0 17,0 L9,9 L9,9 Z M27,9 L18,18 C26.167,11.958 36,17 36,17 L27,9 L27,9 Z" id="Shape" fill="#EA80FC"></path>
                <circle id="Oval" fill="#FFFFFF" cx="18" cy="18" r="2"></circle>
            </g>
        </g>
    </g>
</svg>