<?xml version="1.0" encoding="UTF-8" standalone="no"?>
<svg width="50px" height="50px" viewBox="0 0 50 50" version="1.1" xmlns="http://www.w3.org/2000/svg" xmlns:xlink="http://www.w3.org/1999/xlink">
    <!-- Generator: Sketch 39.1 (31720) - http://www.bohemiancoding.com/sketch -->
    <title>2000</title>
    <desc>Created with Sketch.</desc>
    <defs></defs>
    <g id="Tic-tac-toe" stroke="none" stroke-width="1" fill="none" fill-rule="evenodd">
        <g id="2000">
            <g id="Teddy-Bear" transform="translate(8.000000, 6.000000)">
                <g id="Group" transform="translate(5.000000, 0.000000)" fill="#795548">
                    <path d="M9.657,4 C11.219,5.563 11.219,8.095 9.657,9.656 L9.657,9.656 C8.094,11.219 5.562,11.219 4,9.656 L1.172,6.828 C-0.391,5.265 -0.391,2.733 1.172,1.172 L1.172,1.172 C2.734,-0.391 5.267,-0.391 6.828,1.172 L9.657,4 L9.657,4 Z" id="Shape"></path>
                    <path d="M22.83,6.828 C24.391,5.265 24.391,2.733 22.83,1.172 L22.83,1.172 C21.267,-0.391 18.734,-0.391 17.172,1.172 L14.344,4 C12.782,5.563 12.782,8.095 14.344,9.656 L14.344,9.656 C15.907,11.219 18.44,11.219 20,9.656 L22.83,6.828 L22.83,6.828 Z" id="Shape"></path>
                </g>
                <path d="M27,28.684 C27,32.172 22.555,35 17,35 C11.445,35 7,32.172 7,28.684 L7,25.527 C7,19.211 9.986,15 13.667,15 L20.334,15 C24.016,15 27,19.211 27,25.526 L27,28.684 L27,28.684 Z" id="Shape" fill="#5D4037"></path>
                <g id="Group" transform="translate(0.000000, 2.000000)" fill="#8D6E63">
                    <path d="M7,23.526 C7,20.086 7.89,17.278 9.292,15.427 C4.396,16.788 1.566,18.962 1.063,21.729 C0.71,23.662 1.852,25.542 3.613,25.928 C3.828,25.976 4.043,25.999 4.253,25.999 C5.379,25.999 6.415,25.351 7.001,24.324 L7.001,23.526 L7,23.526 Z" id="Shape"></path>
                    <path d="M32.938,21.729 C32.434,18.961 29.605,16.789 24.709,15.427 C26.11,17.278 27,20.086 27,23.526 L27,24.326 C27.586,25.352 28.621,26 29.748,26 C29.957,26 30.172,25.977 30.387,25.929 C32.148,25.543 33.289,23.662 32.938,21.729 L32.938,21.729 Z" id="Shape"></path>
                    <path d="M8.542,24 C8.176,24 7.81,24.049 7.445,24.15 C4.821,24.884 3.391,28.099 4.249,31.329 C4.99,34.111 7.187,36 9.459,36 C9.825,36 10.192,35.951 10.556,35.85 C13.181,35.117 14.611,31.901 13.751,28.671 C13.013,25.889 10.816,24 8.542,24 L8.542,24 L8.542,24 Z" id="Shape"></path>
                    <path d="M25.459,24 C23.186,24 20.988,25.889 20.25,28.671 C19.391,31.9 20.82,35.116 23.445,35.85 C23.808,35.952 24.175,36 24.541,36 C26.814,36 29.012,34.111 29.752,31.329 C30.609,28.1 29.18,24.885 26.555,24.15 C26.191,24.049 25.824,24 25.459,24 L25.459,24 L25.459,24 Z" id="Shape"></path>
                    <path d="M7,10.125 C7,3.376 12.556,0 17,0 C21.445,0 27,3.376 27,10.125 C27,15.718 22.523,18 17,18 C11.477,18 7,15.718 7,10.125 L7,10.125 Z" id="Shape"></path>
                </g>
                <g id="Group" transform="translate(2.000000, 24.000000)" fill="#6D4C41">
                    <path d="M5,1.526 C5,1.07 5.02,0.629 5.05,0.195 C5.003,0.207 4.955,0.211 4.908,0.223 C3.129,0.721 1.732,1.995 0.891,3.661 C1.119,3.776 1.357,3.872 1.613,3.928 C1.828,3.976 2.043,3.999 2.253,3.999 C2.535,3.999 2.808,3.946 3.072,3.87 C3.569,3.169 4.222,2.625 5,2.307 L5,1.526 L5,1.526 Z" id="Shape"></path>
                    <path d="M25.092,0.224 C25.045,0.211 24.997,0.207 24.95,0.196 C24.98,0.629 25,1.07 25,1.526 L25,2.308 C25.778,2.625 26.432,3.169 26.928,3.871 C27.193,3.947 27.465,4 27.748,4 C27.957,4 28.172,3.977 28.387,3.929 C28.643,3.873 28.881,3.778 29.11,3.662 C28.268,1.996 26.871,0.722 25.092,0.224 L25.092,0.224 Z" id="Shape"></path>
                </g>
                <g id="Group" transform="translate(6.000000, 2.000000)" fill="#BCAAA4">
                    <path d="M2.641,4.469 C3.412,3.311 4.401,2.379 5.5,1.672 L4.414,0.586 C3.633,-0.195 2.367,-0.195 1.586,0.586 C0.805,1.367 0.805,2.633 1.586,3.414 L2.641,4.469 L2.641,4.469 Z" id="Shape"></path>
                    <path d="M19.359,4.469 L20.414,3.414 C21.195,2.633 21.195,1.367 20.414,0.586 C19.635,-0.195 18.367,-0.195 17.586,0.586 L16.501,1.671 C17.6,2.379 18.588,3.311 19.359,4.469 L19.359,4.469 Z" id="Shape"></path>
                    <path d="M2.542,26 C2.354,26 2.166,26.025 1.984,26.076 C0.44,26.509 -0.385,28.68 0.181,30.816 C0.673,32.66 2.051,34 3.459,34 C3.647,34 3.835,33.975 4.017,33.924 C5.563,33.492 6.387,31.322 5.819,29.186 C5.329,27.339 3.951,26 2.542,26 L2.542,26 Z" id="Shape"></path>
                    <path d="M20.016,26.076 C19.834,26.025 19.646,26 19.459,26 C18.051,26 16.672,27.34 16.182,29.184 C15.614,31.323 16.438,33.493 17.983,33.924 C18.166,33.975 18.354,34 18.541,34 C19.949,34 21.328,32.66 21.818,30.814 C22.385,28.68 21.561,26.509 20.016,26.076 L20.016,26.076 Z" id="Shape"></path>
                    <path d="M17,14.624 C17,17.11 14.314,18 11,18 C7.686,18 5,17.11 5,14.624 C5,12.14 7.686,9 11,9 C14.314,9 17,12.14 17,14.624 L17,14.624 Z" id="Shape"></path>
                </g>
                <g id="Group" transform="translate(12.000000, 9.000000)" fill="#000000">
                    <ellipse id="Oval" cx="9" cy="1.5" rx="1" ry="1.5"></ellipse>
                    <ellipse id="Oval" cx="1" cy="1.5" rx="1" ry="1.5"></ellipse>
                </g>
                <rect id="Rectangle-path" fill="#A1887F" x="16" y="15" width="2" height="5"></rect>
                <path d="M19,14 C19,14.553 18.105,16 17,16 C15.896,16 15,14.553 15,14 C15,13.447 15.896,13 17,13 C18.105,13 19,13.447 19,14 L19,14 Z" id="Shape" fill="#3E2723"></path>
            </g>
        </g>
    </g>
</svg>