<?xml version="1.0" encoding="UTF-8" standalone="no"?>
<svg width="50px" height="50px" viewBox="0 0 50 50" version="1.1" xmlns="http://www.w3.org/2000/svg" xmlns:xlink="http://www.w3.org/1999/xlink">
    <!-- Generator: Sketch 39.1 (31720) - http://www.bohemiancoding.com/sketch -->
    <title>2100</title>
    <desc>Created with Sketch.</desc>
    <defs></defs>
    <g id="Tic-tac-toe" stroke="none" stroke-width="1" fill="none" fill-rule="evenodd">
        <g id="2100">
            <g id="Goal" transform="translate(6.000000, 6.000000)">
                <path d="M19,0 C8.5,0 0,8.5 0,19 C0,29.5 8.5,38 19,38 C29.5,38 38,29.5 38,19 C38,8.5 29.5,0 19,0 L19,0 L19,0 Z" id="Shape" fill="#FF3D00"></path>
                <path d="M19,4 C10.7,4 4,10.7 4,19 C4,27.3 10.7,34 19,34 C27.3,34 34,27.3 34,19 C34,10.7 27.3,4 19,4 L19,4 Z M19,30 C12.9,30 8,25.1 8,19 C8,12.9 12.9,8 19,8 C25.1,8 30,12.9 30,19 C30,25.1 25.1,30 19,30 L19,30 Z M19,12 C15.1,12 12,15.1 12,19 C12,22.9 15.1,26 19,26 C22.9,26 26,22.9 26,19 C26,15.1 22.9,12 19,12 L19,12 Z M19,22 C17.3,22 16,20.7 16,19 C16,17.3 17.3,16 19,16 C20.7,16 22,17.3 22,19 C22,20.7 20.7,22 19,22 L19,22 Z" id="Shape" fill="#FFFFFF"></path>
                <path d="M38,4 C38,4 37.4,6.3 35.8,7.8 C34.2,9.4 27.8,10.2 27.8,10.2 C27.8,10.2 28.6,3.7 30.2,2.2 C31.7,0.6 34,8.8817842e-16 34,8.8817842e-16 L34,4 L38,4 L38,4 Z" id="Shape" fill="#1976D2"></path>
                <path d="M37.7,0.3 C37.3,-0.1 36.7,-0.1 36.3,0.3 L18.3,18.3 C17.9,18.7 17.9,19.3 18.3,19.7 C18.5,19.9 18.8,20 19,20 C19.2,20 19.5,19.9 19.7,19.7 L37.7,1.7 C38.1,1.3 38.1,0.7 37.7,0.3 L37.7,0.3 Z" id="Shape" fill="#37474F"></path>
                <rect id="Rectangle-path" fill="#42A5F5" transform="translate(31.750395, 6.369365) rotate(45.000000) translate(-31.750395, -6.369365) " x="30.7504046" y="2.2194048" width="1.99998082" height="8.2999204"></rect>
            </g>
        </g>
    </g>
</svg>