<?xml version="1.0" encoding="UTF-8" standalone="no"?>
<svg width="50px" height="50px" viewBox="0 0 50 50" version="1.1" xmlns="http://www.w3.org/2000/svg" xmlns:xlink="http://www.w3.org/1999/xlink">
    <!-- Generator: Sketch 39.1 (31720) - http://www.bohemiancoding.com/sketch -->
    <title>2200</title>
    <desc>Created with Sketch.</desc>
    <defs></defs>
    <g id="Tic-tac-toe" stroke="none" stroke-width="1" fill="none" fill-rule="evenodd">
        <g id="2200">
            <g id="Confectionery" transform="translate(7.000000, 5.000000)">
                <path d="M28.3,39 L7.7,39 C6.7,39 5.9,38.3 5.7,37.4 L2,18 L34,18 L30.3,37.4 C30.1,38.3 29.3,39 28.3,39 L28.3,39 Z" id="Shape" fill="#FF8A65"></path>
                <g id="Group" transform="translate(2.000000, 16.000000)" fill="#F0744D">
                    <g transform="translate(1.000000, 0.000000)">
                        <rect id="Rectangle-path" x="14" y="0" width="2" height="21"></rect>
                        <polygon id="Shape" points="29.1 0 28.1 0 24.1 21 25.1 21"></polygon>
                        <polygon id="Shape" points="22.9 0 21.4 0 19.4 21 20.9 21"></polygon>
                        <polygon id="Shape" points="0.9 0 1.9 0 5.9 21 4.9 21"></polygon>
                        <polygon id="Shape" points="7.1 0 8.6 0 10.6 21 9.1 21"></polygon>
                    </g>
                    <path d="M0.4,4 L2.1,12.9 C3.2,14.1 5.9,16.5 10.9,16.5 C22.6,16.5 24.5,8.4 28.2,8.4 C29.1,8.4 30,9.4 30.3,10.6 L31.6,4 L0.4,4 L0.4,4 Z" id="Shape"></path>
                </g>
                <path d="M6.5,13.9 C4.3,13.1 0,16.2 0,20.6 C0,26 4.6,30 13.2,30 C22,30 24.4,25.8 27,24.6 C28.6,23.8 32.6,23.6 32.5,25.9 C34,25.3 36,23.6 36,19.5 C36,15.8 32.1,11.5 26.7,10.2 C25.7,4.8 21.2,1.7 18,0.9 C18,4.4 13,3.5 13,7.1 C6,7.2 6.5,13.9 6.5,13.9 L6.5,13.9 Z" id="Shape" fill="#F8BBD0"></path>
                <g id="Group" transform="translate(4.000000, 7.000000)" fill="#F48FB1">
                    <path d="M0,7.2 C4,14.9 15.9,13.2 15.9,13.2 C15.9,13.2 4.8,13.4 2.5,6.8 L2.5,6.8 L2.5,6.8 C1.8,6.6 0.9,6.8 0,7.2 L0,7.2 Z" id="Shape"></path>
                    <path d="M24.5,3.9 C23.9,3.7 23.3,3.5 22.7,3.3 C22.7,3.3 22.7,3.3 22.7,3.2 C20.3,6.9 17.3,7.4 17.3,7.4 C17.3,7.4 22.1,7.7 24.5,3.9 L24.5,3.9 Z" id="Shape"></path>
                    <path d="M9,0.2 C8.1,0.2 7.3,0.3 6.6,0.5 C8.6,4.6 14.1,3.4 14.1,3.4 C14.1,3.4 9.8,3.7 9,0.2 L9,0.2 Z" id="Shape"></path>
                </g>
            </g>
        </g>
    </g>
</svg>