<?xml version="1.0" encoding="UTF-8" standalone="no"?>
<svg width="50px" height="50px" viewBox="0 0 50 50" version="1.1" xmlns="http://www.w3.org/2000/svg" xmlns:xlink="http://www.w3.org/1999/xlink">
    <!-- Generator: Sketch 39.1 (31720) - http://www.bohemiancoding.com/sketch -->
    <title>2300</title>
    <desc>Created with Sketch.</desc>
    <defs></defs>
    <g id="Tic-tac-toe" stroke="none" stroke-width="1" fill="none" fill-rule="evenodd">
        <g id="2300">
            <g id="Planet" transform="translate(1.000000, 8.000000)">
                <circle id="Oval" fill="#FFAB91" cx="24" cy="17" r="16"></circle>
                <g id="Group" transform="translate(8.000000, 1.000000)" fill="#FF8A65">
                    <path d="M0.1,17.7 C0.2,20.2 4.2,24.2 9.9,27.4 C15.6,30.5 21.2,31.7 23.4,30.4 L23.4,30.4 C21.3,31.5 19.1,32.1 16.7,32.2 C14.4,31.7 11.7,30.6 9,29.1 C6.3,27.6 3.9,25.9 2.2,24.3 C1,22.3 0.3,20 0.1,17.7 L0.1,17.7 L0.1,17.7 Z" id="Shape"></path>
                    <path d="M14.9,18.2 C7.8,14.3 2.9,9.3 3.4,6.4 C3.7,6 4.1,5.5 4.5,5.1 C4.9,8.1 9.5,12.6 16,16.2 C22.5,19.8 28.9,21.1 31.6,19.8 C31.5,20.3 31.3,20.9 31.1,21.4 C28.9,23.3 22,22 14.9,18.2 L14.9,18.2 Z" id="Shape"></path>
                    <path d="M31.6,12.6 C30.2,14.4 24.8,13.5 19.2,10.4 C13.6,7.3 9.8,3.3 10.6,1.2 C10.9,1.1 11.1,1 11.4,0.9 C12,3.1 15.4,6.4 20,8.9 C24.7,11.4 29.2,12.5 31.4,11.8 C31.4,12 31.5,12.3 31.6,12.6 L31.6,12.6 Z" id="Shape"></path>
                </g>
                <path d="M17.7,27 C30.1,33.8 42.8,34.8 46.1,29.1 C48.6,25.2 45.7,19.1 39.5,13.5 C39.7,14.6 39.9,15.8 39.9,16.9 L39.9,17.3 C41,19.4 41.1,21.4 40.3,22.8 C38.2,26.7 29.6,26 21.3,21.4 C13,16.7 8.1,9.9 10.4,6.2 C11.3,5 12.9,4.1 15,3.9 C16.1,3.2 17.1,2.7 18.4,2.1 C10.6,-1.55431223e-15 4.2,0.9 1.8,4.6 C-1.5,10.3 5.6,20.4 17.7,27 L17.7,27 Z" id="Shape" fill="#FF5722"></path>
            </g>
        </g>
    </g>
</svg>