<?xml version="1.0" encoding="UTF-8" standalone="no"?>
<svg width="50px" height="50px" viewBox="0 0 50 50" version="1.1" xmlns="http://www.w3.org/2000/svg" xmlns:xlink="http://www.w3.org/1999/xlink">
    <!-- Generator: Sketch 39.1 (31720) - http://www.bohemiancoding.com/sketch -->
    <title>2400</title>
    <desc>Created with Sketch.</desc>
    <defs></defs>
    <g id="Tic-tac-toe" stroke="none" stroke-width="1" fill="none" fill-rule="evenodd">
        <g id="2400">
            <g id="Sheriff" transform="translate(8.000000, 6.000000)">
                <polygon id="Shape" fill="#FFB300" points="32.1 10.2 22.1 10.1 17.2 1 12.2 9.9 2.2 9.8 7.1 18.9 2.1 27.8 12.1 27.9 17 37 22 28.1 32 28.2 27 19.1"></polygon>
                <path d="M17,27 C12.5,27 9,23.5 9,19 C9,14.5 12.5,11 17,11 C21.5,11 25,14.5 25,19 C25,23.5 21.5,27 17,27 L17,27 Z" id="Shape" fill="#E09E00"></path>
                <g id="Group" fill="#FFC107">
                    <circle id="Oval" cx="17" cy="2" r="2"></circle>
                    <circle id="Oval" cx="32" cy="10" r="2"></circle>
                    <circle id="Oval" cx="32" cy="28" r="2"></circle>
                    <circle id="Oval" cx="17" cy="36" r="2"></circle>
                    <circle id="Oval" cx="2" cy="10" r="2"></circle>
                    <circle id="Oval" cx="2" cy="28" r="2"></circle>
                    <path d="M17,24 C14.2,24 12,21.8 12,19 C12,16.2 14.2,14 17,14 C19.8,14 22,16.2 22,19 C22,21.8 19.8,24 17,24 L17,24 Z" id="Shape"></path>
                </g>
            </g>
        </g>
    </g>
</svg>