<?xml version="1.0" encoding="UTF-8" standalone="no"?>
<svg width="50px" height="50px" viewBox="0 0 50 50" version="1.1" xmlns="http://www.w3.org/2000/svg" xmlns:xlink="http://www.w3.org/1999/xlink">
    <!-- Generator: Sketch 39.1 (31720) - http://www.bohemiancoding.com/sketch -->
    <title>2500</title>
    <desc>Created with Sketch.</desc>
    <defs></defs>
    <g id="Tic-tac-toe" stroke="none" stroke-width="1" fill="none" fill-rule="evenodd">
        <g id="2500">
            <g id="Knitting-Ball" transform="translate(6.000000, 6.000000)">
                <circle id="Oval" fill="#FF3D00" cx="19" cy="19" r="17"></circle>
                <g id="Group" transform="translate(11.000000, 5.000000)" fill="#DD2C00">
                    <path d="M24.924,15.502 C24.227,7.564 18.056,1.19 10.218,0.162 C9.049,0.652 7.965,1.297 6.968,2.053 C7.311,2.029 7.652,2 8,2 C16.271,2 23,8.729 23,17 C23,20.471 21.805,23.66 19.818,26.205 C22.672,23.441 24.557,19.692 24.924,15.502 L24.924,15.502 Z" id="Shape"></path>
                    <path d="M6,27 C6,27 17.563,19.937 14,8 C10,5 2,6 2,6 C2,6 0,9 0,15 C0,15 0,22 6,27 L6,27 Z" id="Shape"></path>
                    <path d="M23.826,20.173 C22.683,11.622 15.358,5 6.5,5 C5.608,5 4.734,5.071 3.878,5.201 C3.346,5.931 2.881,6.712 2.486,7.534 C3.767,7.189 5.111,7 6.5,7 C15.047,7 22,13.953 22,22.5 C22,22.91 21.97,23.313 21.938,23.717 C22.702,22.623 23.334,21.434 23.826,20.173 L23.826,20.173 Z" id="Shape"></path>
                    <path d="M18.441,12.629 C18.446,12.813 18.453,12.996 18.453,13.18 C18.453,15.631 17.865,18.066 16.751,20.221 C15.111,23.397 12.401,25.91 9.12,27.314 C9.897,27.717 10.709,28.064 11.558,28.328 C14.518,26.67 16.959,24.177 18.528,21.14 C19.438,19.377 20.033,17.449 20.297,15.47 C19.777,14.456 19.161,13.5 18.441,12.629 L18.441,12.629 Z" id="Shape"></path>
                </g>
                <g id="Group" transform="translate(5.000000, 2.000000)" fill="#FF6E40">
                    <path d="M18,33 C9.178,33 2,25.822 2,17 C2,8.178 9.178,1 18,1 C18.726,1 19.435,1.065 20.135,1.16 C18.23,0.421 16.166,0 14,0 C13.196,0 12.412,0.075 11.638,0.184 C4.848,2.762 0,9.317 0,17 C0,24.683 4.848,31.238 11.638,33.816 C12.412,33.925 13.196,34 14,34 C16.166,34 18.229,33.579 20.135,32.841 C19.435,32.935 18.726,33 18,33 L18,33 Z" id="Shape"></path>
                    <path d="M21.996,32 C13.727,31.998 7,25.27 7,17 C7,8.73 13.727,2.002 21.996,2 C20.751,1.335 19.409,0.834 18.004,0.494 C10.555,2.299 5,9.004 5,17 C5,24.996 10.555,31.701 18.004,33.506 C19.409,33.166 20.751,32.665 21.996,32 L21.996,32 Z" id="Shape"></path>
                </g>
                <path d="M24.618,25.319 C25.897,22.844 26.546,20.167 26.546,17.361 C26.546,16.5 26.481,15.643 26.355,14.796 C25.626,14.286 24.849,13.845 24.036,13.464 C24.369,14.735 24.547,16.042 24.547,17.36 C24.547,19.842 23.974,22.212 22.843,24.4 C21.567,26.871 19.648,28.933 17.287,30.407 C17.83,30.87 18.409,31.29 19.015,31.673 C21.375,30.048 23.299,27.875 24.618,25.319 L24.618,25.319 Z" id="Shape" fill="#C12202"></path>
                <g id="Group" transform="translate(12.000000, 10.000000)" fill="#AA1400">
                    <path d="M3.5,18.613 C4,19.21 4.552,19.759 5.137,20.273 C6.074,16.196 8.632,12.682 12.199,10.544 C12.366,9.749 12.464,8.938 12.503,8.113 C8.163,10.226 4.907,14.043 3.5,18.613 L3.5,18.613 Z" id="Shape"></path>
                    <path d="M0.045,9.883 C1.995,6.282 5.275,3.618 9.193,2.463 C8.008,2.172 6.775,2 5.5,2 C5.375,2 5.252,2.01 5.128,2.013 C3.298,3.028 1.669,4.367 0.311,5.96 C0.108,6.942 0,7.958 0,9 C0,9.298 0.027,9.589 0.045,9.883 L0.045,9.883 Z" id="Shape"></path>
                    <path d="" id="Shape"></path>
                    <path d="M12.448,5.722 C12.375,5.061 12.26,4.407 12.103,3.761 C7,5.201 2.824,8.94 0.795,13.783 C1.109,14.713 1.511,15.6 1.992,16.439 C3.378,11.313 7.38,7.225 12.448,5.722 L12.448,5.722 Z" id="Shape"></path>
                </g>
                <g id="Group" transform="translate(1.000000, 3.000000)">
                    <path d="M5.299,4.728 C5.746,4.225 6.222,3.749 6.726,3.301 L4.045,0.619 L2.617,2.047 L5.299,4.728 L5.299,4.728 Z" id="Shape" fill="#C5CAE9"></path>
                    <path d="M5.306,27.279 L3.537,29.049 C2.337,30.678 1.131,32.302 -8.8817842e-16,34 C1.698,32.869 3.321,31.662 4.951,30.463 L6.72,28.694 C6.221,28.25 5.75,27.778 5.306,27.279 L5.306,27.279 Z" id="Shape" fill="#C5CAE9"></path>
                    <path d="M32.463,29.049 L27.811,24.386 C27.448,24.966 27.047,25.519 26.62,26.048 L31.05,30.463 C32.679,31.663 34.303,32.869 36.001,34 C34.869,32.302 33.662,30.679 32.463,29.049 L32.463,29.049 Z" id="Shape" fill="#C5CAE9"></path>
                    <path d="M29.185,6.229 L33.215,2.198 L31.801,0.784 L27.584,5.001 C28.14,5.383 28.68,5.786 29.185,6.229 L29.185,6.229 Z" id="Shape" fill="#9FA8DA"></path>
                </g>
                <g id="Group" fill="#5C6BC0">
                    <circle id="Oval" cx="3" cy="3" r="3"></circle>
                    <circle id="Oval" cx="35" cy="3" r="3"></circle>
                </g>
            </g>
        </g>
    </g>
</svg>