<?xml version="1.0" encoding="UTF-8" standalone="no"?>
<svg width="50px" height="50px" viewBox="0 0 50 50" version="1.1" xmlns="http://www.w3.org/2000/svg" xmlns:xlink="http://www.w3.org/1999/xlink">
    <!-- Generator: Sketch 39.1 (31720) - http://www.bohemiancoding.com/sketch -->
    <title>2600</title>
    <desc>Created with Sketch.</desc>
    <defs></defs>
    <g id="Tic-tac-toe" stroke="none" stroke-width="1" fill="none" fill-rule="evenodd">
        <g id="2600">
            <g id="Processor" transform="translate(5.000000, 4.000000)">
                <polygon id="XMLID_771_" fill="#FF9800" points="40 14.1 40 10.1 30 10.1 30 0.1 26 0.1 26 10.1 22 10.1 22 0.1 18 0.1 18 10.1 14 10.1 14 0.1 10 0.1 10 10.1 0 10.1 0 14.1 10 14.1 10 18.1 0 18.1 0 22.1 10 22.1 10 26.1 0 26.1 0 30.1 10 30.1 10 40.1 14 40.1 14 30.1 18 30.1 18 40.1 22 40.1 22 30.1 26 30.1 26 40.1 30 40.1 30 30.1 40 30.1 40 26.1 30 26.1 30 22.1 40 22.1 40 18.1 30 18.1 30 14.1"></polygon>
                <path d="M4,8.1 L4,32.1 C4,34.3 5.8,36.1 8,36.1 L32,36.1 C34.2,36.1 36,34.3 36,32.1 L36,8.1 C36,5.9 34.2,4.1 32,4.1 L8,4.1 C5.8,4.1 4,5.9 4,8.1 L4,8.1 Z" id="XMLID_331_" fill="#607D8B"></path>
                <g id="XMLID_328_" transform="translate(9.000000, 9.000000)" fill="#455A64">
                    <circle id="XMLID_330_" cx="2" cy="2.1" r="2"></circle>
                    <circle id="XMLID_329_" cx="20" cy="20.1" r="2"></circle>
                </g>
            </g>
        </g>
    </g>
</svg>