<?xml version="1.0" encoding="UTF-8" standalone="no"?>
<svg width="50px" height="50px" viewBox="0 0 50 50" version="1.1" xmlns="http://www.w3.org/2000/svg" xmlns:xlink="http://www.w3.org/1999/xlink">
    <!-- Generator: Sketch 39.1 (31720) - http://www.bohemiancoding.com/sketch -->
    <title>2700</title>
    <desc>Created with Sketch.</desc>
    <defs></defs>
    <g id="Tic-tac-toe" stroke="none" stroke-width="1" fill="none" fill-rule="evenodd">
        <g id="2700">
            <g id="Pretzel" transform="translate(7.000000, 10.000000)">
                <g id="Group" fill="#FF9800">
                    <path d="M3.711,30 C2.514,30 1.42,29.188 1.101,27.966 C0.723,26.51 1.583,25.02 3.024,24.636 C3.08,24.619 4.254,24.284 5.926,23.629 C1.494,20.203 0.028,15.123 0,11.844 C0.107,3.14 7.124,0 11.812,0 C13.713,0 15.989,0.518 18.026,1.701 C19.693,0.657 21.799,0 24.412,0 C27.814,0 30.581,1.065 32.637,3.168 C35.967,6.574 36.006,11.323 36,11.854 C36.002,12.042 36.002,17.91 31.607,22.389 C31.134,22.868 30.631,23.317 30.1,23.726 C31.046,24.045 32.066,24.349 33.165,24.627 C34.612,24.992 35.492,26.472 35.13,27.934 C34.769,29.395 33.3,30.288 31.857,29.916 C28.441,29.054 25.634,27.969 23.326,26.757 C21.72,27.098 19.98,27.27 18.113,27.27 C15.999,27.27 14.114,27.05 12.437,26.652 C8.406,28.817 4.739,29.82 4.4,29.909 C4.17,29.968 3.938,30 3.711,30 L3.711,30 Z M21.467,18.836 C22.17,19.521 23.02,20.207 24.047,20.877 C30.34,18.55 30.595,12.641 30.6,11.822 C30.598,10.743 30.293,5.457 24.412,5.457 C23.511,5.457 22.738,5.578 22.075,5.791 C22.967,7.404 23.512,9.396 23.512,11.82 C23.512,14.485 22.723,16.816 21.467,18.836 L21.467,18.836 Z M11.794,5.457 C10.769,5.47 5.474,5.851 5.399,11.854 C5.418,12.599 5.765,18.299 11.761,20.729 C12.736,20.109 13.685,19.42 14.54,18.654 C12.696,15.306 12.681,12.459 12.712,11.746 C12.723,9.944 13.18,7.824 14.207,5.885 C13.147,5.516 12.184,5.463 11.794,5.457 L11.794,5.457 Z" id="Shape"></path>
                    <path d="M32.514,30 C32.297,30 32.076,29.971 31.858,29.916 C12.795,25.103 12.647,13.306 12.713,11.747 C12.744,6.995 15.872,0 24.412,0 C25.902,0 27.112,1.223 27.112,2.73 C27.112,4.234 25.902,5.457 24.412,5.457 C18.289,5.457 18.113,11.168 18.113,11.82 C18.113,11.893 18.11,11.967 18.103,12.044 C18.089,12.355 17.857,20.761 33.166,24.627 C34.613,24.992 35.493,26.472 35.131,27.934 C34.824,29.172 33.724,30 32.514,30 L32.514,30 Z" id="Shape"></path>
                </g>
                <g id="Group" transform="translate(4.000000, 0.000000)" fill="#D66100">
                    <path d="M20.053,20.873 C21.619,21.899 23.602,22.875 26.104,23.722 C26.635,23.314 27.137,22.867 27.608,22.389 C27.631,22.365 27.649,22.342 27.669,22.321 C25.345,21.611 23.476,20.798 21.978,19.943 C21.406,20.289 20.773,20.608 20.053,20.873 L20.053,20.873 Z" id="Shape"></path>
                    <path d="M10.208,5.885 C10.201,5.895 10.195,5.908 10.19,5.922 C11.178,4.034 12.709,2.318 14.887,1.226 C14.589,1.375 14.3,1.53 14.026,1.702 C13.412,1.346 12.773,1.055 12.129,0.816 C10.459,2.102 9.239,3.747 8.401,5.494 C8.875,5.537 9.52,5.645 10.208,5.885 L10.208,5.885 Z" id="Shape"></path>
                    <path d="M1.925,23.629 C3.584,22.977 5.729,22.01 7.758,20.729 C7.052,20.442 6.432,20.106 5.873,19.743 C3.866,20.889 1.81,21.737 0.386,22.262 C0.855,22.737 1.367,23.196 1.925,23.629 L1.925,23.629 Z" id="Shape"></path>
                    <path d="M15.253,24.119 C16.606,22.916 17.842,21.553 18.84,20.016 C18.332,19.624 17.872,19.229 17.467,18.835 C17.543,18.712 17.613,18.583 17.686,18.458 C15.387,22.404 11.3,25.208 7.669,27.051 C7.924,26.921 8.18,26.788 8.438,26.651 C9.302,26.855 10.226,27.012 11.203,27.118 C13.096,27.252 14.001,27.406 16.45,27.168 C17.451,27.086 18.413,26.95 19.328,26.757 C19.619,26.909 19.92,27.059 20.228,27.209 C18.246,26.254 16.611,25.205 15.253,24.119 L15.253,24.119 Z" id="Shape"></path>
                    <path d="M18.828,7.555 C18.615,6.929 18.373,6.33 18.075,5.791 C18.124,5.775 18.183,5.77 18.234,5.755 L18.181,5.641 C18.019,5.715 14.192,7.509 13.285,11.977 C12.726,14.727 10.409,16.468 9.734,16.924 C9.957,17.482 10.211,18.056 10.541,18.654 C10.528,18.666 10.514,18.675 10.501,18.686 L10.552,18.774 C10.709,18.682 14.409,16.479 15.244,12.375 C15.853,9.383 18.149,7.926 18.828,7.555 L18.828,7.555 Z" id="Shape"></path>
                </g>
                <g id="Group" transform="translate(2.000000, 1.000000)" fill="#FFF9C4">
                    <path d="M2.053,13.002 C2.605,13.033 3.027,13.504 2.996,14.056 C2.965,14.608 2.494,15.029 1.941,15 C1.39,14.969 -8.8817842e-16,13.89 -8.8817842e-16,13.89 C-8.8817842e-16,13.89 1.5,12.971 2.053,13.002 L2.053,13.002 Z" id="Shape"></path>
                    <path d="M32,10 C32,10.553 31.553,11 31,11 C30.447,11 30,10.553 30,10 C30,9.447 31,8 31,8 C31,8 32,9.447 32,10 L32,10 Z" id="Shape"></path>
                    <path d="M4.888,3.236 C4.634,3.726 4.03,3.918 3.54,3.664 C3.05,3.41 2.858,2.807 3.113,2.316 C3.367,1.825 4.921,1 4.921,1 C4.921,1 5.143,2.746 4.888,3.236 L4.888,3.236 Z" id="Shape"></path>
                    <path d="M23.398,2.545 C23.023,2.951 22.391,2.979 21.985,2.605 C21.578,2.231 21.55,1.599 21.925,1.192 C22.298,0.786 24.015,0.396 24.015,0.396 C24.015,0.396 23.771,2.138 23.398,2.545 L23.398,2.545 Z" id="Shape"></path>
                    <path d="M29.469,3.484 C30.022,3.466 30.483,3.9 30.499,4.453 C30.517,5.005 30.084,5.467 29.531,5.484 C28.978,5.501 27.5,4.547 27.5,4.547 C27.5,4.547 28.916,3.502 29.469,3.484 L29.469,3.484 Z" id="Shape"></path>
                    <path d="M13.968,7 C14.521,6.982 14.982,7.416 14.999,7.969 C15.017,8.521 14.583,8.983 14.031,9 C13.478,9.017 12,8.063 12,8.063 C12,8.063 13.416,7.018 13.968,7 L13.968,7 Z" id="Shape"></path>
                    <path d="M12.002,10.918 C12.052,10.367 12.538,9.962 13.088,10.012 C13.638,10.062 14.044,10.547 13.994,11.098 C13.944,11.648 12.818,13 12.818,13 C12.818,13 11.952,11.468 12.002,10.918 L12.002,10.918 Z" id="Shape"></path>
                    <path d="M7.969,1 C8.522,0.982 8.983,1.416 9,1.969 C9.018,2.521 8.584,2.983 8.032,3 C7.48,3.017 6.002,2.062 6.002,2.062 C6.002,2.062 7.417,1.018 7.969,1 L7.969,1 Z" id="Shape"></path>
                    <path d="M30.258,16.977 C29.719,17.094 29.186,16.753 29.069,16.213 C28.952,15.674 29.294,15.141 29.833,15.024 C30.373,14.906 32,15.574 32,15.574 C32,15.574 30.799,16.859 30.258,16.977 L30.258,16.977 Z" id="Shape"></path>
                    <path d="M17.213,4.977 C16.673,5.094 16.141,4.753 16.024,4.213 C15.906,3.674 16.248,3.141 16.788,3.024 C17.328,2.907 18.956,3.575 18.956,3.575 C18.956,3.575 17.754,4.859 17.213,4.977 L17.213,4.977 Z" id="Shape"></path>
                    <path d="M1.258,7.967 C0.718,8.084 0.186,7.743 0.069,7.203 C-0.049,6.664 0.293,6.131 0.833,6.014 C1.373,5.897 3,6.564 3,6.564 C3,6.564 1.799,7.85 1.258,7.967 L1.258,7.967 Z" id="Shape"></path>
                    <path d="M25.999,1.959 C26.021,2.509 25.594,2.976 25.042,3 C24.49,3.021 24.023,2.595 24,2.043 C23.978,1.489 24.916,0.002 24.916,0.002 C24.916,0.002 25.976,1.405 25.999,1.959 L25.999,1.959 Z" id="Shape"></path>
                </g>
            </g>
        </g>
    </g>
</svg>