<?xml version="1.0" encoding="UTF-8" standalone="no"?>
<svg width="50px" height="50px" viewBox="0 0 50 50" version="1.1" xmlns="http://www.w3.org/2000/svg" xmlns:xlink="http://www.w3.org/1999/xlink">
    <!-- Generator: Sketch 39.1 (31720) - http://www.bohemiancoding.com/sketch -->
    <title>2800</title>
    <desc>Created with Sketch.</desc>
    <defs></defs>
    <g id="Tic-tac-toe" stroke="none" stroke-width="1" fill="none" fill-rule="evenodd">
        <g id="2800">
            <g id="Yin-Yang" transform="translate(5.000000, 5.000000)">
                <circle id="Oval" fill="#455A64" cx="20" cy="20" r="20"></circle>
                <g id="Group" transform="translate(2.000000, 2.000000)" fill="#FFFFFF">
                    <path d="M9,27 C9,22.029 13.029,18 18,18 C22.971,18 27,13.971 27,9 C27,4.34 23.459,0.508 18.92,0.046 C18.614,0.031 18.311,0 18,0 C8.06,0 0,8.06 0,18 C0,27.63 7.57,35.471 17.08,35.953 C12.541,35.492 9,31.66 9,27 L9,27 Z M18,6 C19.656,6 21,7.344 21,9 C21,10.656 19.656,12 18,12 C16.343,12 15,10.656 15,9 C15,7.344 16.343,6 18,6 L18,6 Z" id="Shape"></path>
                    <circle id="Oval" cx="18" cy="27" r="3"></circle>
                </g>
            </g>
        </g>
    </g>
</svg>