<?xml version="1.0" encoding="UTF-8" standalone="no"?>
<svg width="50px" height="50px" viewBox="0 0 50 50" version="1.1" xmlns="http://www.w3.org/2000/svg" xmlns:xlink="http://www.w3.org/1999/xlink">
    <!-- Generator: Sketch 39.1 (31720) - http://www.bohemiancoding.com/sketch -->
    <title>2900</title>
    <desc>Created with Sketch.</desc>
    <defs></defs>
    <g id="Tic-tac-toe" stroke="none" stroke-width="1" fill="none" fill-rule="evenodd">
        <g id="2900">
            <g id="Button" transform="translate(6.000000, 6.000000)">
                <path d="M19,38 C8.522,38 0,29.478 0,19 C0,8.522 8.522,0 19,0 C29.478,0 38,8.522 38,19 C38,29.478 29.478,38 19,38 L19,38 Z" id="Shape" fill="#3F51B5"></path>
                <g id="Group" transform="translate(10.000000, 10.000000)" fill="#1A237E">
                    <circle id="Oval" cx="3" cy="3" r="3"></circle>
                    <circle id="Oval" cx="15" cy="3" r="3"></circle>
                    <circle id="Oval" cx="3" cy="15" r="3"></circle>
                    <circle id="Oval" cx="15" cy="15" r="3"></circle>
                </g>
                <g id="Group" transform="translate(13.000000, 13.000000)" fill="#FFFFFF">
                    <path d="M1,12.017 C0.744,12.017 0.488,11.919 0.293,11.725 C-0.098,11.334 -0.098,10.702 0.292,10.31 L10.292,0.293 C10.683,-0.098 11.316,-0.097 11.707,0.292 C12.098,0.683 12.098,1.315 11.708,1.707 L1.708,11.724 C1.513,11.919 1.256,12.017 1,12.017 L1,12.017 Z" id="Shape"></path>
                    <path d="M11,12.017 C11.256,12.017 11.512,11.919 11.707,11.725 C12.098,11.334 12.098,10.702 11.708,10.31 L1.708,0.293 C1.317,-0.098 0.684,-0.097 0.293,0.292 C-0.098,0.683 -0.098,1.315 0.292,1.707 L10.292,11.724 C10.487,11.919 10.744,12.017 11,12.017 L11,12.017 Z" id="Shape"></path>
                </g>
            </g>
        </g>
    </g>
</svg>