<?xml version="1.0" encoding="UTF-8" standalone="no"?>
<svg width="50px" height="50px" viewBox="0 0 50 50" version="1.1" xmlns="http://www.w3.org/2000/svg" xmlns:xlink="http://www.w3.org/1999/xlink">
    <!-- Generator: Sketch 39.1 (31720) - http://www.bohemiancoding.com/sketch -->
    <title>3000</title>
    <desc>Created with Sketch.</desc>
    <defs></defs>
    <g id="Tic-tac-toe" stroke="none" stroke-width="1" fill="none" fill-rule="evenodd">
        <g id="3000">
            <g id="Diamond" transform="translate(6.000000, 6.000000)">
                <polygon id="Shape" fill="#0D47A1" points="28 12 38 12 19 37"></polygon>
                <polygon id="Shape" fill="#84FFFF" points="0 12 10 0 10 12"></polygon>
                <polygon id="Shape" fill="#1976D2" points="28 0 28 12 38 12"></polygon>
                <g id="Group" transform="translate(10.000000, 0.000000)" fill="#0091EA">
                    <polygon id="Shape" points="0 12 8.996 37.149 18 12"></polygon>
                    <polygon id="Shape" points="0 0 9 0 0 12"></polygon>
                    <polygon id="Shape" points="9 0 18 12 18 0"></polygon>
                </g>
                <g id="Group" transform="translate(10.000000, 0.000000)" fill="#00B0FF">
                    <polygon id="Shape" points="18 12 0 12 9 0"></polygon>
                    <polygon id="Shape" points="18 12 23 10 28 12 23 14"></polygon>
                </g>
                <g id="Group" transform="translate(0.000000, 10.000000)" fill="#00E5FF">
                    <polygon id="Shape" points="10 2 0 2 18.996 27.149"></polygon>
                    <polygon id="Shape" points="10 2 19 0 28 2 19 4"></polygon>
                </g>
                <polygon id="Shape" fill="#E0F7FA" points="0 12 5 10 10 12 5 14"></polygon>
            </g>
        </g>
    </g>
</svg>