<?xml version="1.0" encoding="UTF-8" standalone="no"?>
<svg width="50px" height="50px" viewBox="0 0 50 50" version="1.1" xmlns="http://www.w3.org/2000/svg" xmlns:xlink="http://www.w3.org/1999/xlink">
    <!-- Generator: Sketch 39.1 (31720) - http://www.bohemiancoding.com/sketch -->
    <title>3100</title>
    <desc>Created with Sketch.</desc>
    <defs></defs>
    <g id="Tic-tac-toe" stroke="none" stroke-width="1" fill="none" fill-rule="evenodd">
        <g id="3100">
            <g id="Plush" transform="translate(3.000000, 5.000000)">
                <path d="M32.7,1.4 C32.4,0.9 31.7,0.8 31.3,1.3 C29.6,3.2 25.4,6.5 22.1,6.5 C18.7,6.5 13.9,3.1 11.9,1.2 C11.5,0.8 10.7,0.9 10.5,1.4 C8.9,4.4 5,13.1 5,27.8 L5,31 C5,35.4 8.5,39 12.9,39 L31.1,39 C35.5,39 39,35.4 39,31 L39,27.9 C39,12.8 34.5,4.2 32.7,1.4 L32.7,1.4 Z" id="Shape" fill="#F8BBD0"></path>
                <ellipse id="Oval" fill="#F9E3EA" cx="22" cy="21" rx="7" ry="6"></ellipse>
                <g id="Group" transform="translate(11.000000, 10.000000)" fill="#37474F">
                    <circle id="Oval" cx="19" cy="3" r="3"></circle>
                    <circle id="Oval" cx="3" cy="3" r="3"></circle>
                </g>
                <polygon id="Shape" fill="#9E3157" points="22 20 19 17 25 17"></polygon>
                <g id="Group" transform="translate(0.000000, 4.000000)" fill="#F48FB1">
                    <g transform="translate(0.000000, 13.000000)" id="Shape">
                        <path d="M5.8,0 C3.7,0.7 2.4,1.3 2.3,1.4 C0.4,2.3 -0.5,4.7 0.4,6.7 C1.2,8.5 3.2,9.4 5.1,8.8 C5.1,5.5 5.4,2.6 5.8,0 L5.8,0 Z"></path>
                        <path d="M41.7,1.4 C41.6,1.3 40.2,0.7 38.1,0 C38.5,2.6 38.8,5.6 38.9,8.9 C39.3,9 39.7,9.1 40.1,9.1 C41.6,9.1 43,8.2 43.6,6.8 C44.5,4.7 43.7,2.3 41.7,1.4 L41.7,1.4 Z"></path>
                    </g>
                    <ellipse id="Oval" transform="translate(33.309280, 28.974610) rotate(35.357187) translate(-33.309280, -28.974610) " cx="33.30928" cy="28.97461" rx="5.30025718" ry="6.3003057"></ellipse>
                    <ellipse id="Oval" transform="translate(10.611180, 29.026690) rotate(144.642813) translate(-10.611180, -29.026690) " cx="10.61118" cy="29.02669" rx="5.30025718" ry="6.3003057"></ellipse>
                    <path d="M28.2,2.9 C28.2,2.9 29.9,2.2 31.6,0.4 C31.8,0.2 32.2,0.3 32.3,0.6 C33.1,2.1 33.8,4 33.8,4 C31.6,2.8 28.2,2.9 28.2,2.9 L28.2,2.9 Z" id="Shape"></path>
                    <path d="M15.8,2.9 C15.8,2.9 14.1,2.2 12.4,0.4 C12.2,0.2 11.8,0.3 11.7,0.6 C10.9,2.1 10.2,4 10.2,4 C12.4,2.8 15.8,2.9 15.8,2.9 L15.8,2.9 Z" id="Shape"></path>
                </g>
            </g>
        </g>
    </g>
</svg>