<?xml version="1.0" encoding="UTF-8" standalone="no"?>
<svg width="50px" height="50px" viewBox="0 0 50 50" version="1.1" xmlns="http://www.w3.org/2000/svg" xmlns:xlink="http://www.w3.org/1999/xlink">
    <!-- Generator: Sketch 39.1 (31720) - http://www.bohemiancoding.com/sketch -->
    <title>3200</title>
    <desc>Created with Sketch.</desc>
    <defs></defs>
    <g id="Tic-tac-toe" stroke="none" stroke-width="1" fill="none" fill-rule="evenodd">
        <g id="3200">
            <g id="Hamburger" transform="translate(7.000000, 7.000000)">
                <g id="Group" transform="translate(1.000000, 10.000000)" fill="#68362B">
                    <path d="M34,15.5 C34,16.881 32.881,18 31.5,18 L2.5,18 C1.119,18 0,16.881 0,15.5 L0,15.5 C0,14.119 1.119,13 2.5,13 L31.5,13 C32.881,13 34,14.119 34,15.5 L34,15.5 L34,15.5 Z" id="Shape"></path>
                    <path d="M31.5,2 C31.5,2 31.248,1.7 29.5,1 C27,0 6,0 4.5,1 C3.456,1.696 2.5,2 2.5,2 C1.119,2 0,3.119 0,4.5 C0,5.881 1.119,7 2.5,7 L31.5,7 C32.881,7 34,5.881 34,4.5 C34,3.119 32.881,2 31.5,2 L31.5,2 Z" id="Shape"></path>
                </g>
                <g id="Group" transform="translate(2.000000, 0.000000)" fill="#FFC107">
                    <path d="M0,29 L0,33.75 C0,34.993 1.007,36 2.25,36 L29.75,36 C30.993,36 32,34.993 32,33.75 L32,29 L0,29 L0,29 Z" id="Shape"></path>
                    <path d="M16,0 C7.164,0 0,4.478 0,10 L32,10 C32,4.478 24.837,0 16,0 L16,0 Z" id="Shape"></path>
                </g>
                <rect id="Rectangle-path" fill="#FF3D00" x="1" y="18" width="34" height="4"></rect>
                <g id="Group" transform="translate(9.000000, 3.000000)" fill="#CE8106">
                    <circle id="Oval" cx="1" cy="4" r="1"></circle>
                    <circle id="Oval" cx="3" cy="1" r="1"></circle>
                    <circle id="Oval" cx="5" cy="4" r="1"></circle>
                </g>
                <g id="Group" transform="translate(0.000000, 9.000000)" fill="#8BC34A">
                    <path d="M35.911,20.403 C35.626,19.548 34.955,18.894 34.106,18.4 C33.671,18.77 33.115,19 32.5,19 L3.5,19 C2.854,19 2.271,18.748 1.827,18.346 C1.25,18.922 0.8,19.57 0.625,20.155 C0.216,21.516 -0.01,23.703 1.879,23.572 C2.767,23.51 3.603,23.176 4.305,22.666 C5.399,21.872 5.853,21.645 6.671,22.658 C7.466,23.642 8.099,24.492 9.109,23.305 C10.157,22.072 10.291,21.392 12.083,21.757 C13.959,22.14 15.533,23.44 17.447,23.743 C18.379,23.889 18.784,23.871 19.337,23.071 C19.788,22.419 20.199,21.011 21.071,20.878 C22.493,20.661 21.42,22.249 21.379,22.968 C21.273,24.788 23.272,23.233 23.805,22.611 C24.138,22.222 24.63,21.418 25.236,21.572 C25.896,21.742 25.558,22.092 25.702,22.635 C25.836,23.141 26.288,24.007 26.899,23.999 C27.648,23.989 28,22.667 28.378,22.131 C28.685,21.699 29.257,20.948 29.857,20.985 C30.522,21.027 30.704,21.858 31.038,22.403 C31.724,23.522 33.624,24.555 34.849,23.661 C35.633,23.088 36.232,21.365 35.911,20.403 L35.911,20.403 Z" id="Shape"></path>
                    <path d="M34.105,0.735 L2.069,0.735 C1.111,1.141 0.382,1.652 0.207,2.235 C-0.205,3.596 -0.149,4.702 1.755,4.571 C2.649,4.509 3.491,4.175 4.199,3.665 C5.302,2.871 5.759,2.644 6.584,3.657 C7.385,4.641 8.023,5.491 9.04,4.304 C10.096,3.071 10.231,2.391 12.036,2.756 C13.928,3.139 15.513,4.439 17.443,4.742 C18.381,4.888 18.792,4.87 19.346,4.07 C19.801,3.418 20.215,2.01 21.095,1.877 C22.528,1.66 21.447,3.248 21.405,3.967 C21.299,5.787 23.312,4.232 23.849,3.61 C24.185,3.221 24.681,2.417 25.291,2.571 C25.956,2.741 25.616,3.091 25.761,3.634 C25.896,4.14 26.352,5.006 26.967,4.998 C27.723,4.988 28.077,3.666 28.459,3.13 C28.767,2.698 29.344,1.947 29.948,1.984 C30.618,2.026 30.802,2.857 31.137,3.402 C31.828,4.521 33.744,5.554 34.978,4.66 C35.769,4.087 35.778,3.697 35.453,2.735 C35.21,2.007 34.722,1.334 34.105,0.735 L34.105,0.735 Z" id="Shape"></path>
                </g>
                <g id="Group" transform="translate(3.000000, 17.000000)" fill="#FFEB3B">
                    <path d="M30,6 C15,6 9,9 9,9 C9,9 5,6 0,6 L0,5 L30,5 L30,6 L30,6 Z" id="Shape"></path>
                    <path d="M0,1 C15,1 21,4 21,4 C21,4 25,1 30,1 L30,0 L0,0 L0,1 L0,1 Z" id="Shape"></path>
                </g>
            </g>
        </g>
    </g>
</svg>