<?xml version="1.0" encoding="UTF-8" standalone="no"?>
<svg width="50px" height="50px" viewBox="0 0 50 50" version="1.1" xmlns="http://www.w3.org/2000/svg" xmlns:xlink="http://www.w3.org/1999/xlink">
    <!-- Generator: Sketch 39.1 (31720) - http://www.bohemiancoding.com/sketch -->
    <title>3300</title>
    <desc>Created with Sketch.</desc>
    <defs></defs>
    <g id="Tic-tac-toe" stroke="none" stroke-width="1" fill="none" fill-rule="evenodd">
        <g id="3300">
            <g id="Doughnut" transform="translate(5.000000, 9.000000)">
                <path d="M20,1 C9.834,1 0,6.668 0,16 C0,25.333 9.834,31 20,31 C30.166,31 40,25.333 40,16 C40,6.668 30.166,1 20,1 L20,1 Z M20,19.5 C17.108,19.5 14.312,17.895 14.312,15.25 C14.312,12.605 17.108,11 20,11 C22.892,11 25.688,12.605 25.688,15.25 C25.688,17.895 22.892,19.5 20,19.5 L20,19.5 Z" id="Shape" fill="#FFB300"></path>
                <path d="M0.017,15.496 C0.102,16.414 0.398,17.241 1.159,17.594 C1.817,17.901 2.446,17.561 3.041,17.415 C3.769,17.236 4.474,17.669 4.97,18.158 C5.705,18.884 5.801,19.798 6.198,20.706 C6.594,21.61 7.046,22.309 7.794,22.96 C9.111,24.107 11.09,24.695 12.463,23.425 C13.075,22.858 14.003,22.787 14.824,22.833 C16.167,22.908 17.059,23.87 18.066,24.626 C19.379,25.611 20.392,26.549 22.118,26.585 C24.207,26.629 25.908,25.214 26.983,23.551 C27.538,22.693 28.113,20.707 29.209,20.461 C30.141,20.252 31.033,21.392 31.168,22.205 C31.344,23.269 31.323,24.77 32.667,25.003 C33.543,25.155 34.078,24.232 34.365,23.545 C34.784,22.544 35.203,21.661 35.252,20.57 C35.289,19.728 35.417,18.755 35.91,18.042 C36.093,17.777 36.435,17.454 36.795,17.5 C37.12,17.542 37.282,17.894 37.618,17.959 C38.423,18.115 40.672,16.122 39.347,10.994 C36.989,4.072 28.615,0 20,0 C9.834,0 0,5.668 0,15 C0,15.168 0.01,15.331 0.017,15.496 L0.017,15.496 Z M20,5 C23.559,5 27,6.855 27,9.5 C27,12.145 23.559,14 20,14 C16.441,14 13,12.145 13,9.5 C13,6.855 16.441,5 20,5 L20,5 Z" id="Shape" fill="#4C2114"></path>
                <g id="Group" transform="translate(3.000000, 9.000000)" stroke="#8BC34A" stroke-width="2">
                    <path d="M0.917,1.583 L4.167,0.999" id="Shape"></path>
                    <path d="M31.166,0.249 L32.916,2.666" id="Shape"></path>
                </g>
                <g id="Group" transform="translate(11.000000, 4.000000)" stroke-width="2">
                    <path d="M16.417,12.333 L14.583,14.75" id="Shape" stroke="#4DD0E1"></path>
                    <path d="M0.25,3.083 L0.083,0.5" id="Shape" stroke="#80DEEA"></path>
                </g>
                <g id="Group" transform="translate(5.000000, 1.000000)" stroke="#FFEB3B" stroke-width="2">
                    <path d="M14.479,2.374 L16.813,0.624" id="Shape"></path>
                    <path d="M2.5,12.167 L0.833,15" id="Shape"></path>
                    <path d="M15.917,18.25 L14.333,20.833" id="Shape"></path>
                </g>
                <g id="Group" transform="translate(11.000000, 4.000000)" stroke="#FF4081" stroke-width="2">
                    <path d="M0.5,13 L2.583,15.333" id="Shape"></path>
                    <path d="M17.917,3.417 L18.833,0.833" id="Shape"></path>
                </g>
                <path d="M32.25,15.75 L32.083,19.167" id="Shape" stroke="#FFFFFF" stroke-width="2"></path>
            </g>
        </g>
    </g>
</svg>