<?xml version="1.0" encoding="UTF-8" standalone="no"?>
<svg width="50px" height="50px" viewBox="0 0 50 50" version="1.1" xmlns="http://www.w3.org/2000/svg" xmlns:xlink="http://www.w3.org/1999/xlink">
    <!-- Generator: Sketch 39.1 (31720) - http://www.bohemiancoding.com/sketch -->
    <title>3500</title>
    <desc>Created with Sketch.</desc>
    <defs></defs>
    <g id="Tic-tac-toe" stroke="none" stroke-width="1" fill="none" fill-rule="evenodd">
        <g id="3500">
            <g id="Shellfish" transform="translate(7.000000, 7.000000)">
                <path d="M5.836,25 C5.893,25.361 5.952,25.722 6.016,26.079 C6.649,29.647 7.57,32.82 9,33.031 L16,34 C16.46,34.186 17.474,34.479 18,34.479 C18.527,34.479 19.54,34.185 20,34 L27,33.031 C28.431,32.82 29.352,29.647 29.984,26.079 C30.047,25.722 30.107,25.361 30.164,25 L5.836,25 L5.836,25 Z" id="Shape" fill="#4E342E"></path>
                <path d="M18,1 C8.059,1 1,9.059 1,19 C1,25 15.643,34.227 15.643,34.227 L15.655,34.227 C16.314,34.707 17.121,35 18,35 C18.883,35 19.692,34.705 20.354,34.22 L20.399,34.22 C20.398,34.22 35,25 35,19 C35,9.059 27.941,1 18,1 L18,1 Z" id="Shape" fill="#795548"></path>
                <g id="Group" fill="#BCAAA4">
                    <path d="M9.087,2.334 L18,35 L12.774,0.76 C11.459,1.15 10.223,1.674 9.087,2.334 L9.087,2.334 Z" id="Shape"></path>
                    <path d="M0.536,14.373 L18,35 L2.048,10.022 C1.38,11.393 0.88,12.855 0.536,14.373 L0.536,14.373 Z" id="Shape"></path>
                    <path d="M0,19 C0,20.006 0.563,21.467 1.18,22.233 C1.797,22.999 18,35 18,35 L0.134,16.754 C0.054,17.496 0,18.244 0,19 L0,19 Z" id="Shape"></path>
                    <path d="M3.617,7.373 L17.726,34.333 L6.454,4.232 C5.387,5.164 4.436,6.216 3.617,7.373 L3.617,7.373 Z" id="Shape"></path>
                    <path d="M29.594,4.271 L18,35 L32.419,7.427 C31.604,6.266 30.658,5.207 29.594,4.271 L29.594,4.271 Z" id="Shape"></path>
                    <path d="M33.952,10.022 L18,35 L35.464,14.373 C35.12,12.855 34.62,11.393 33.952,10.022 L33.952,10.022 Z" id="Shape"></path>
                    <path d="M36,19 C36,18.244 35.946,17.496 35.866,16.754 L18,35 C18,35 34.293,22.834 34.826,22.229 C35.359,21.624 36,20.006 36,19 L36,19 Z" id="Shape"></path>
                    <path d="M22.981,0.693 L18,35 L26.665,2.203 C25.526,1.568 24.294,1.063 22.981,0.693 L22.981,0.693 Z" id="Shape"></path>
                    <path d="M18,0 C17.338,0 16.693,0.037 16.061,0.101 L18,35 L19.939,0.101 C19.307,0.037 18.662,0 18,0 L18,0 Z" id="Shape"></path>
                </g>
            </g>
        </g>
    </g>
</svg>