<?xml version="1.0" encoding="UTF-8" standalone="no"?>
<svg width="50px" height="50px" viewBox="0 0 50 50" version="1.1" xmlns="http://www.w3.org/2000/svg" xmlns:xlink="http://www.w3.org/1999/xlink">
    <!-- Generator: Sketch 39.1 (31720) - http://www.bohemiancoding.com/sketch -->
    <title>3600</title>
    <desc>Created with Sketch.</desc>
    <defs></defs>
    <g id="Tic-tac-toe" stroke="none" stroke-width="1" fill="none" fill-rule="evenodd">
        <g id="3600">
            <g id="Brain" transform="translate(6.000000, 5.000000)">
                <g id="Group" fill="#F8BBD0">
                    <path d="M0,26 C0,40 15,40 15,40 C16.657,40 18,38.656 18,37 L18,3 C18,1.344 17,0 15,0 C11,0 0,8 0,26 L0,26 Z" id="Shape"></path>
                    <path d="M38,26 C38,40 23,40 23,40 C21.344,40 20,38.656 20,37 L20,3 C20,1.344 21,0 23,0 C27,0 38,8 38,26 L38,26 Z" id="Shape"></path>
                </g>
                <g id="Group" transform="translate(2.000000, 3.000000)" stroke="#FF80AB" stroke-width="2">
                    <path d="M12.188,0.25 C11.534,0.268 10.971,0.293 10.643,1.011 C10.141,2.11 11.156,2.418 11.903,2.932 C12.541,3.369 13.674,4.146 13.754,4.983 C13.835,5.842 12.976,6.087 12.254,6.063 C10.146,5.993 9.239,2.994 7.122,3.624 C5.489,4.11 4.133,6.005 4.03,7.642 C3.975,8.509 4.309,9.831 4.768,10.552 C5.645,11.928 6.713,10.555 7.517,9.852 C8.704,8.814 10.625,8.593 12.066,9.105 C12.757,9.351 13.45,9.786 13.715,10.505 C14.15,11.686 13.673,12.822 12.292,12.614 C11.568,12.505 9.479,11.493 9.436,13.056 C9.387,14.823 11.91,14.438 12.601,15.62 C13.813,17.695 11.178,18.617 9.639,18.752 C8.879,18.818 8.234,18.592 7.685,18.064 C6.4,16.826 6.055,14.07 4.039,13.735 C1.917,13.382 0.764,15.039 0.751,17.018 C0.742,18.662 0.778,20.103 2.203,21.206 C3.574,22.268 5.372,21.559 7.001,21.562 C8.408,21.565 9.854,21.349 11.248,21.695 C13.439,22.238 14.039,25.668 13.376,27.187 C12.848,28.398 10.726,28.488 9.805,27.765 C8.722,26.914 8.545,25.286 7.549,24.391 C7.028,23.923 6.267,24.013 5.882,24.583 C5.396,25.304 6.732,26.733 6.501,27.499 C6.148,28.669 5.138,28.654 4.312,27.94 C3.711,27.42 2.03,24.98 1.189,26.374 C0.028,28.298 3.851,31.213 4.939,31.999 C6.752,33.31 8.081,33.88 10.5,33.812 C11.443,33.785 12.594,33.124 12.456,32.052 C12.28,30.684 10.191,30.565 9.126,30.749" id="Shape"></path>
                    <path d="M21.432,0.25 C22.086,0.268 22.649,0.293 22.977,1.011 C23.479,2.11 22.464,2.418 21.717,2.932 C21.078,3.369 19.946,4.146 19.865,4.983 C19.785,5.842 20.643,6.087 21.365,6.063 C23.474,5.993 24.381,2.994 26.498,3.624 C28.131,4.11 29.486,6.005 29.59,7.642 C29.645,8.509 29.311,9.831 28.852,10.552 C27.975,11.928 26.908,10.555 26.104,9.852 C24.917,8.814 22.996,8.593 21.555,9.105 C20.864,9.351 20.17,9.786 19.906,10.505 C19.471,11.686 19.948,12.822 21.329,12.614 C22.054,12.505 24.142,11.493 24.185,13.056 C24.234,14.823 21.711,14.438 21.02,15.62 C19.808,17.695 22.443,18.617 23.983,18.752 C24.743,18.818 25.387,18.592 25.936,18.064 C27.221,16.826 27.567,14.07 29.582,13.735 C31.703,13.382 32.857,15.039 32.869,17.018 C32.879,18.662 32.842,20.103 31.418,21.206 C30.047,22.268 28.248,21.559 26.619,21.562 C25.212,21.565 23.765,21.349 22.372,21.695 C20.182,22.238 19.582,25.668 20.244,27.187 C20.772,28.398 22.894,28.488 23.814,27.765 C24.898,26.914 25.074,25.286 26.071,24.391 C26.592,23.923 27.353,24.013 27.738,24.583 C28.223,25.304 26.887,26.733 27.119,27.499 C27.472,28.669 28.482,28.654 29.308,27.94 C29.91,27.42 31.59,24.98 32.431,26.374 C33.591,28.298 29.769,31.213 28.681,31.999 C26.868,33.31 25.539,33.88 23.12,33.812 C22.177,33.785 21.026,33.124 21.163,32.052 C21.34,30.684 23.429,30.565 24.493,30.749" id="Shape"></path>
                </g>
            </g>
        </g>
    </g>
</svg>