<?xml version="1.0" encoding="UTF-8" standalone="no"?>
<svg width="50px" height="50px" viewBox="0 0 50 50" version="1.1" xmlns="http://www.w3.org/2000/svg" xmlns:xlink="http://www.w3.org/1999/xlink">
    <!-- Generator: Sketch 39.1 (31720) - http://www.bohemiancoding.com/sketch -->
    <title>3700</title>
    <desc>Created with Sketch.</desc>
    <defs></defs>
    <g id="Tic-tac-toe" stroke="none" stroke-width="1" fill="none" fill-rule="evenodd">
        <g id="3700">
            <g id="Virus" transform="translate(7.000000, 6.000000)">
                <path d="M32.114,13.154 C31.218,13.154 30.471,13.592 30.173,14.322 C29.277,15.638 27.335,15.93 26.14,15.346 C25.919,14.841 13.294,11.4 13.294,11.545 C11.651,12.422 10.157,9.646 10.307,8.329 L10.307,8.183 C10.456,7.891 10.456,7.598 10.456,7.306 C10.456,5.699 9.111,4.383 7.469,4.383 C5.825,4.383 4.481,5.698 4.481,7.306 C4.481,8.621 5.377,9.645 6.423,10.084 C8.087,10.762 10.389,12.824 10.235,14.168 C10.899,15.359 9.296,21.617 9.411,22.067 C8.515,22.944 6.722,22.797 5.975,22.505 C5.677,22.067 5.079,21.92 4.481,21.92 C2.838,21.92 1.494,23.235 1.494,24.844 C1.494,26.451 2.838,27.767 4.481,27.767 C5.527,27.767 6.273,27.328 6.871,26.597 C7.767,25.283 9.262,24.113 10.606,24.113 C10.8,24.397 26.889,18.121 26.889,17.975 C27.037,17.39 29.428,16.805 31.519,17.244 L32.116,17.244 C33.311,17.244 34.358,16.221 34.358,15.052 C34.358,13.883 33.31,13.154 32.114,13.154 L32.114,13.154 Z" id="Shape" fill="#4CAF50"></path>
                <path d="M25.543,27.915 C24.349,27.915 24.946,25.139 24.946,24.7 C25.093,24.482 24.05,12.569 24.05,12.569 C24.199,12.13 24.349,11.692 25.095,11.692 L25.244,11.692 L25.394,11.692 C27.037,11.692 28.38,10.377 28.38,8.769 C28.38,7.161 27.036,5.846 25.394,5.846 C23.75,5.846 22.406,7.16 22.406,8.769 C22.406,9.061 22.406,9.353 22.554,9.646 C22.554,9.646 23.153,11.107 21.808,10.96 C21.808,10.96 10.511,14.882 9.962,14.981 C8.584,17.505 4.919,16.213 3.884,15.346 C3.585,14.907 2.988,14.615 2.24,14.615 C1.045,14.615 0,15.639 0,16.808 C0,17.978 1.045,19 2.241,19 C2.69,19 3.137,18.854 3.436,18.708 C5.228,17.83 8.515,18.415 8.963,20.022 L8.963,20.169 C9.03,20.498 11.371,25.019 11.651,25.43 C13.145,28.207 9.411,29.376 9.411,29.376 C8.365,29.376 7.469,30.253 7.469,31.422 C7.469,32.592 8.514,33.614 9.709,33.614 C10.904,33.614 11.95,32.592 11.95,31.422 C12.249,29.085 13.444,27.622 15.684,27.477 C16.03,27.589 21.36,27.184 21.808,27.039 C23.452,27.33 22.554,28.646 22.554,30.839 C22.554,32.446 23.9,33.762 25.542,33.762 C27.186,33.762 28.53,32.447 28.53,30.839 C28.531,29.23 27.187,27.915 25.543,27.915 L25.543,27.915 Z" id="Shape" fill="#2E7D32"></path>
                <circle id="Oval" fill="#4CAF50" cx="18" cy="19" r="9"></circle>
                <g id="Group" transform="translate(14.000000, 0.000000)" fill="#8BC34A">
                    <path d="M6.315,27.478 C6.646,26.833 5.515,26.641 4.625,26.672 C3.735,26.703 2.875,27.219 3.038,27.785 C5.412,31.424 3.624,31.862 2.58,32.593 C1.684,33.031 1.086,34.054 1.086,35.077 C1.086,36.684 2.431,38 4.074,38 C5.717,38 7.062,36.685 7.062,35.077 C7.063,32.3 5.27,28.354 6.315,27.478 L6.315,27.478 Z" id="Shape"></path>
                    <path d="M18.862,21.923 C18.264,21.923 17.668,22.069 17.219,22.361 C15.437,23.088 13.804,21.793 12.611,20.916 C12.015,20.547 11.338,21.483 11.14,21.859 C10.942,22.235 10.64,23.562 11.841,23.53 C13.874,22.875 16.321,26.307 16.321,26.307 C16.77,27.329 17.816,27.914 19.01,27.914 C20.655,27.914 21.998,26.599 21.998,24.991 C21.85,23.238 20.506,21.923 18.862,21.923 L18.862,21.923 Z" id="Shape"></path>
                    <path d="M1.386,4.53 C3.327,8.477 3.178,9.938 2.133,10.377 C1.203,11.047 2.703,11.953 3.812,11.813 C4.921,11.673 5.921,11.125 5.232,10.159 C3.517,7.131 5.717,5.116 5.717,5.116 C6.464,4.678 6.911,3.801 6.911,2.924 C6.912,1.315 5.568,0 3.925,0 C2.282,0 0.938,1.315 0.938,2.923 C0.938,3.361 1.087,3.8 1.237,4.238 C1.237,4.385 1.237,4.385 1.386,4.53 L1.386,4.53 Z" id="Shape"></path>
                </g>
                <path d="M16.432,19 C14.788,19 13.445,17.685 13.445,16.077 C13.445,14.469 14.789,13.154 16.432,13.154 C18.075,13.154 19.419,14.469 19.419,16.077 C19.419,17.685 18.075,19 16.432,19 L16.432,19 Z" id="Shape" fill="#C5E1A5"></path>
                <path d="M14.938,23.385 C14.042,23.385 13.444,22.8 13.444,21.923 C13.444,21.046 14.041,20.461 14.938,20.461 C15.834,20.461 16.432,21.046 16.432,21.923 C16.432,22.8 15.834,23.385 14.938,23.385 L14.938,23.385 Z" id="Shape" fill="#F1F8E9"></path>
                <path d="M20.166,24.992 C18.971,24.992 17.925,23.97 17.925,22.8 C17.925,21.63 18.97,20.608 20.166,20.608 C21.36,20.608 22.406,21.63 22.406,22.8 C22.406,23.97 21.36,24.992 20.166,24.992 L20.166,24.992 Z" id="Shape" fill="#DCEDC8"></path>
            </g>
        </g>
    </g>
</svg>