<?xml version="1.0" encoding="UTF-8" standalone="no"?>
<svg width="50px" height="50px" viewBox="0 0 50 50" version="1.1" xmlns="http://www.w3.org/2000/svg" xmlns:xlink="http://www.w3.org/1999/xlink">
    <!-- Generator: Sketch 39.1 (31720) - http://www.bohemiancoding.com/sketch -->
    <title>3900</title>
    <desc>Created with Sketch.</desc>
    <defs></defs>
    <g id="Tic-tac-toe" stroke="none" stroke-width="1" fill="none" fill-rule="evenodd">
        <g id="3900">
            <g id="Globe" transform="translate(4.000000, 4.000000)">
                <path d="M42,21 C42,32.691 32.475,42 21,42 C9.526,42 0,32.691 0,21 C0,9.309 9.309,0 21,0 C32.691,0 42,9.309 42,21" id="Shape" fill="#2196F3"></path>
                <g id="Group" transform="translate(2.000000, 2.000000)" fill="#CDDC39">
                    <path d="M18.79,28.66 C18.79,28.24 18.58,28.03 18.16,27.82 C16.9,27.4 15.64,27.4 14.59,26.349 C14.38,25.929 14.38,25.509 14.17,25.089 C13.75,24.669 12.7,24.459 12.07,24.249 L9.34,24.249 L7.87,24.249 C7.24,24.039 6.82,23.199 6.4,22.569 C6.4,22.359 6.4,21.938 5.98,21.938 C5.56,21.729 5.14,22.149 4.72,21.938 C4.51,21.729 4.51,21.518 4.51,21.309 C4.51,20.678 4.93,20.048 5.35,19.628 C5.98,19.208 6.61,19.838 7.24,19.838 C7.45,19.838 7.45,19.838 7.66,20.048 C8.29,20.258 8.5,21.098 8.5,21.729 L8.5,22.149 C8.5,22.359 8.71,22.359 8.92,22.359 C9.13,21.309 9.13,20.258 9.34,19.209 C9.34,17.949 10.6,16.688 11.65,16.269 C12.07,16.06 12.28,16.48 12.7,16.269 C13.96,15.849 17.11,14.589 16.48,12.91 C16.06,11.439 14.8,9.971 13.12,10.18 C12.7,10.391 12.49,10.6 12.07,10.811 C11.44,11.231 10.18,12.491 9.55,12.491 C8.5,12.281 8.5,10.811 8.71,10.18 C8.92,9.34 10.81,6.611 12.07,7.031 C12.28,7.241 12.7,7.661 12.91,7.871 C13.33,8.081 13.96,8.081 14.59,8.081 C14.8,8.081 15.01,8.081 15.22,7.871 C15.43,7.661 15.43,7.661 15.43,7.451 C15.43,6.821 14.8,6.19 14.38,5.77 C13.96,5.35 13.33,4.93 12.7,4.721 C10.6,4.09 7.24,4.93 5.56,6.401 C3.88,7.871 2.62,10.391 1.78,12.491 C1.36,13.751 0.94,15.43 0.73,16.901 C0.52,17.951 0.31,18.791 0.94,19.84 C1.57,21.1 2.83,22.361 4.09,23.2 C4.93,23.83 6.61,23.83 7.45,24.88 C8.08,25.721 7.87,26.77 7.87,27.82 C7.87,29.08 8.71,30.13 9.13,31.179 C9.34,31.81 9.55,32.65 9.76,33.28 C9.76,33.49 9.97,34.75 9.97,34.96 C11.23,35.59 12.28,36.221 13.75,36.641 C13.96,36.641 14.8,35.38 14.8,35.17 C15.43,34.54 15.85,33.7 16.48,33.28 C16.9,33.07 17.32,32.86 17.74,32.439 C18.16,32.019 18.37,31.179 18.58,30.549 C18.79,30.13 19,29.29 18.79,28.66" id="Shape"></path>
                    <path d="M19.21,9.34 C19.42,9.34 19.63,9.13 20.05,8.92 C20.68,8.5 21.311,7.87 21.94,7.45 C22.571,7.03 23.201,6.4 23.621,5.98 C24.251,5.56 24.671,4.72 24.881,4.089 C25.091,3.669 25.722,2.829 25.511,2.199 C25.301,1.779 24.251,1.569 23.831,1.359 C22.15,0.939 20.68,0.73 19,0.73 C18.37,0.73 17.53,0.939 17.32,1.57 C17.11,2.62 17.95,2.41 18.79,2.62 C18.79,2.62 19,4.3 19,4.51 C19.21,5.561 18.58,6.19 18.58,7.24 C18.58,7.87 18.58,8.92 19,9.34 L19.21,9.34 L19.21,9.34 Z" id="Shape"></path>
                    <path d="M36.85,24.04 C37.061,23.62 37.061,22.99 37.27,22.57 C37.481,21.519 37.481,20.47 37.481,19.42 C37.481,17.32 37.27,15.221 36.641,13.33 C36.221,12.7 36.01,12.07 35.8,11.439 C35.38,10.39 34.75,9.339 33.91,8.5 C33.07,7.45 32.019,4.51 30.13,5.35 C29.5,5.561 29.08,6.401 28.66,6.821 C28.24,7.451 27.82,8.081 27.4,8.711 C27.189,8.921 26.98,9.341 27.189,9.551 C27.189,9.761 27.4,9.761 27.609,9.761 C28.029,9.972 28.24,9.972 28.66,10.181 C28.87,10.181 29.08,10.392 28.87,10.601 C28.87,10.601 28.87,10.812 28.66,10.812 C27.609,11.862 26.56,12.702 25.51,13.751 C25.3,13.961 25.09,14.381 25.09,14.591 C25.09,14.801 25.3,14.801 25.3,15.011 C25.3,15.222 25.09,15.222 24.88,15.431 C24.46,15.642 24.04,15.851 23.83,16.062 C23.62,16.482 23.83,17.112 23.62,17.532 C23.41,18.582 22.779,19.422 22.359,20.472 C21.939,21.101 21.73,21.732 21.31,22.362 C21.31,23.202 21.099,23.832 21.519,24.462 C22.57,25.932 24.459,25.092 25.929,25.723 C26.349,25.932 26.769,25.932 26.98,26.352 C27.609,26.983 27.609,28.033 27.82,28.663 C28.029,29.503 28.24,30.343 28.66,31.183 C28.87,32.234 29.29,33.284 29.5,34.123 C31.391,32.653 33.07,30.974 34.33,28.873 C35.59,27.4 36.221,25.721 36.85,24.04" id="Shape"></path>
                </g>
            </g>
        </g>
    </g>
</svg>