<?xml version="1.0" encoding="UTF-8" standalone="no"?>
<svg width="50px" height="50px" viewBox="0 0 50 50" version="1.1" xmlns="http://www.w3.org/2000/svg" xmlns:xlink="http://www.w3.org/1999/xlink">
    <!-- Generator: Sketch 39.1 (31720) - http://www.bohemiancoding.com/sketch -->
    <title>400</title>
    <desc>Created with Sketch.</desc>
    <defs></defs>
    <g id="Tic-tac-toe" stroke="none" stroke-width="1" fill="none" fill-rule="evenodd">
        <g id="400">
            <g id="Cat" transform="translate(6.000000, 7.000000)">
                <g id="Group" transform="translate(23.000000, 2.000000)" fill="#37474F">
                    <path d="M0.28,0 L4.28,3 L1.28,8 C1.28,8 -0.72,3 0.28,0 L0.28,0 Z" id="Shape"></path>
                    <path d="M13,0 L9,3 L12,8 C12,8 14,3 13,0 L13,0 Z" id="Shape"></path>
                </g>
                <g id="Group" fill="#455A64">
                    <path d="M22,24 L27,34.004 C27,34.004 27,36 29,36 L33,36 C33,36 33,34 31,34 L28,27 L30,19 L22,24 L22,24 Z" id="Shape"></path>
                    <path d="M5,27.002 L7,34.004 C7,34.004 7.25,36 9,36 L13,36 C13,36 13,34 11,34 L9,28.001 L5,27.002 L5,27.002 Z" id="Shape"></path>
                    <path d="M14,25.002 C12,28.002 9,30.002 9,30.002 L5,27.002 C5,27.002 6,23.002 6,18.002 L14,25.002 L14,25.002 Z" id="Shape"></path>
                    <path d="M22,25 C17.797,23.472 14,25.002 14,25.002 L6,25 L6,13 C13,1 31,15 31,15 C31,15 31.035,15.383 31.026,15.999 C30.99,18.686 30.135,25.813 22,25 L22,25 Z" id="Shape"></path>
                    <path d="M7.1,15.6 L5.7,15.6 C2.504,15.6 -1.77635684e-15,13.096 -1.77635684e-15,9.9 C-1.77635684e-15,6.704 2.504,4.2 5.7,4.2 L7.1,4.2 C8.639,4.2 9.8,3.039 9.8,1.5 C9.8,0.672 10.472,0 11.3,0 C12.128,0 12.8,0.672 12.8,1.5 C12.8,4.696 10.296,7.2 7.1,7.2 L5.7,7.2 C4.161,7.2 3,8.36 3,9.899 C3,11.438 4.161,12.599 5.7,12.599 L7.1,12.599 C7.928,12.599 8.6,13.271 8.6,14.099 C8.6,14.927 7.928,15.6 7.1,15.6 L7.1,15.6 Z" id="Shape"></path>
                    <circle id="Oval" cx="29.5" cy="10.5" r="6.5"></circle>
                </g>
                <g id="Group" transform="translate(4.000000, 9.000000)" fill="#263238">
                    <path d="M3,25.004 L1.628,20.201 L0,24 C0,24 0,27 2,27 L5,27 C3.25,27 3,25.004 3,25.004 L3,25.004 Z" id="Shape"></path>
                    <path d="M23.023,25.254 C22.757,25.108 22.433,25.002 22,25.002 L22,23.003 L18.511,16.023 C18.338,16.012 18.18,16.018 18,16 L18,25.006 C18,25.006 18,27.002 20,27.002 L24,27.002 C24,27.002 23.996,26.897 23.976,26.748 C23.279,26.363 23.076,25.638 23.023,25.254 L23.023,25.254 Z" id="Shape"></path>
                    <path d="M10,16.002 C8.633,18.053 6.818,19.617 5.795,20.413 C5.795,20.413 5.735,20.455 5.684,20.501 C5.673,20.51 5.658,20.521 5.647,20.529 L5.648,20.531 C5.594,20.574 5.543,20.609 5.537,20.614 L5.8,21.4 L6,21 C6,21 10,19.002 12,16.002 L12.483,15.422 C10.976,15.61 10,16.002 10,16.002 L10,16.002 Z" id="Shape"></path>
                    <path d="M25.5,8 C21.91,8 19,5.09 19,1.5 C19,1.424 19.009,1.351 19.012,1.275 C18.381,0.993 17.731,0.724 17.068,0.48 C17.027,0.814 17,1.154 17,1.5 C17,6.188 20.813,10 25.5,10 C25.902,10 26.296,9.962 26.684,9.908 C26.856,9.149 26.947,8.434 26.989,7.822 C26.51,7.935 26.014,8 25.5,8 L25.5,8 Z" id="Shape"></path>
                    <path d="M26,4 C26,4 25.458,4.75 25,4 L24,3.001 L24,2.001 L27.001,2 L27.001,3 L26,4 L26,4 Z" id="Shape"></path>
                </g>
                <g id="Group" transform="translate(24.000000, 8.000000)" fill="#FFEB3B">
                    <path d="M10,0 C10,0 10.292,2.999 8.5,2.999 C7.673,2.999 7.001,3 7.001,3 C7.001,3 6.667,0 8.5,0 L10,0 L10,0 Z" id="Shape"></path>
                    <path d="M1,0.001 C1,0.001 0.626,3 2.5,3 C3.328,3 4,3.001 4,3.001 C4,3.001 4.376,0 2.5,0 C1.672,0 1,0.001 1,0.001 L1,0.001 Z" id="Shape"></path>
                </g>
            </g>
        </g>
    </g>
</svg>