<?xml version="1.0" encoding="UTF-8" standalone="no"?>
<svg width="50px" height="50px" viewBox="0 0 50 50" version="1.1" xmlns="http://www.w3.org/2000/svg" xmlns:xlink="http://www.w3.org/1999/xlink">
    <!-- Generator: Sketch 39.1 (31720) - http://www.bohemiancoding.com/sketch -->
    <title>4100</title>
    <desc>Created with Sketch.</desc>
    <defs></defs>
    <g id="Tic-tac-toe" stroke="none" stroke-width="1" fill="none" fill-rule="evenodd">
        <g id="4100">
            <g id="Music-Record" transform="translate(6.000000, 6.000000)">
                <path d="M32.435,5.564 C25.016,-1.855 12.985,-1.855 5.565,5.564 C-1.854,12.984 -1.854,25.015 5.565,32.434 C12.985,39.854 25.016,39.854 32.435,32.434 C39.854,25.016 39.854,12.984 32.435,5.564 L32.435,5.564 Z" id="Shape" fill="#455A64"></path>
                <g id="Group" transform="translate(2.000000, 2.000000)" fill="#90A4AE">
                    <path d="M3.564,30.435 C4.689,31.56 5.929,32.493 7.233,33.277 L15.973,18.711 C15.835,18.629 15.703,18.534 15.585,18.415 C15.466,18.296 15.371,18.164 15.289,18.027 L0.724,26.766 C1.506,28.07 2.44,29.311 3.564,30.435 L3.564,30.435 Z" id="Shape"></path>
                    <path d="M30.435,3.564 C29.311,2.44 28.071,1.507 26.767,0.723 L18.027,15.289 C18.165,15.371 18.296,15.466 18.415,15.585 C18.534,15.703 18.629,15.835 18.711,15.973 L33.277,7.233 C32.492,5.93 31.56,4.689 30.435,3.564 L30.435,3.564 Z" id="Shape"></path>
                </g>
                <path d="M25.363,12.637 C21.855,9.127 16.144,9.127 12.636,12.637 C9.126,16.145 9.126,21.856 12.636,25.364 C16.144,28.874 21.855,28.874 25.363,25.364 C28.873,21.855 28.873,16.145 25.363,12.637 L25.363,12.637 Z" id="Shape" fill="#263238"></path>
                <path d="M23.949,14.05 C21.216,11.317 16.784,11.317 14.05,14.05 C11.317,16.784 11.317,21.216 14.05,23.949 C16.784,26.683 21.216,26.683 23.949,23.949 C26.684,21.216 26.684,16.784 23.949,14.05 L23.949,14.05 Z M17.586,20.414 C16.805,19.633 16.805,18.367 17.586,17.586 C18.367,16.805 19.633,16.805 20.414,17.586 C21.195,18.367 21.195,19.633 20.414,20.414 C19.633,21.195 18.367,21.195 17.586,20.414 L17.586,20.414 Z" id="Shape" fill="#FFC107"></path>
            </g>
        </g>
    </g>
</svg>