<?xml version="1.0" encoding="UTF-8" standalone="no"?>
<svg width="50px" height="50px" viewBox="0 0 50 50" version="1.1" xmlns="http://www.w3.org/2000/svg" xmlns:xlink="http://www.w3.org/1999/xlink">
    <!-- Generator: Sketch 39.1 (31720) - http://www.bohemiancoding.com/sketch -->
    <title>4300</title>
    <desc>Created with Sketch.</desc>
    <defs></defs>
    <g id="Tic-tac-toe" stroke="none" stroke-width="1" fill="none" fill-rule="evenodd">
        <g id="4300">
            <g id="Engineering" transform="translate(4.000000, 4.000000)">
                <polygon id="XMLID_421_" fill="#EF6C00" points="34.4 21.6 22.8 19.4 18.9 8.2 15.1 9.5 19 20.6 11.2 29.6 14.2 32.2 22 23.2 33.6 25.4"></polygon>
                <g id="XMLID_400_" fill="#FF9800">
                    <path d="M21,16 C18.2,16 16,18.2 16,21 C16,23.8 18.2,26 21,26 C23.8,26 26,23.8 26,21 C26,18.2 23.8,16 21,16 L21,16 Z M21,23 C19.9,23 19,22.1 19,21 C19,19.9 19.9,19 21,19 C22.1,19 23,19.9 23,21 C23,22.1 22.1,23 21,23 L21,23 Z" id="XMLID_404_"></path>
                    <path d="M37.7,24 C37.9,23 38,22 38,21 C38,20 37.9,19 37.7,18 L41,15.6 C41.4,15.3 41.6,14.7 41.3,14.2 L37,6.8 C36.7,6.3 36.2,6.1 35.7,6.4 L32,8 C30.5,6.7 28.7,5.7 26.8,5 L26.4,0.9 C26.3,0.4 25.9,0 25.4,0 L16.8,0 C16.3,0 15.8,0.4 15.8,0.9 L15.2,5 C13.3,5.7 11.5,6.7 10,8 L6.3,6.3 C5.8,6.1 5.2,6.3 5,6.8 L0.7,14.2 C0.4,14.7 0.6,15.3 1,15.6 L4.3,18 C4.1,19 4,20 4,21 C4,22 4.1,23 4.3,24 L1,26.4 C0.6,26.7 0.4,27.3 0.7,27.8 L5,35.2 C5.3,35.7 5.8,35.9 6.3,35.6 L10,34 C11.5,35.3 13.3,36.3 15.2,37 L15.6,41.1 C15.7,41.6 16.1,42 16.6,42 L25.2,42 C25.7,42 26.2,41.6 26.2,41.1 L26.6,37 C28.5,36.3 30.3,35.3 31.8,34 L35.5,35.7 C36,35.9 36.6,35.7 36.8,35.3 L41.1,27.9 C41.4,27.4 41.2,26.8 40.8,26.5 L37.7,24 L37.7,24 Z M21,32 C14.9,32 10,27.1 10,21 C10,14.9 14.9,10 21,10 C27.1,10 32,14.9 32,21 C32,27.1 27.1,32 21,32 L21,32 Z" id="XMLID_401_"></path>
                </g>
            </g>
        </g>
    </g>
</svg>