<?xml version="1.0" encoding="UTF-8" standalone="no"?>
<svg width="50px" height="50px" viewBox="0 0 50 50" version="1.1" xmlns="http://www.w3.org/2000/svg" xmlns:xlink="http://www.w3.org/1999/xlink">
    <!-- Generator: Sketch 39.1 (31720) - http://www.bohemiancoding.com/sketch -->
    <title>4400</title>
    <desc>Created with Sketch.</desc>
    <defs></defs>
    <g id="Tic-tac-toe-Copy" stroke="none" stroke-width="1" fill="none" fill-rule="evenodd">
        <g id="4400">
            <g id="Group-2" transform="translate(5.000000, 4.000000)">
                <path d="M33.2675644,42 L30.7324356,42 C30.3866262,41.4021986 29.7402824,41 29,41 C28.2597176,41 27.6133738,41.4021986 27.2675644,42 L24.7324356,42 C24.3866262,41.4021986 23.7402824,41 23,41 C22.2597176,41 21.6133738,41.4021986 21.2675644,42 L18.7324356,42 C18.3866262,41.4021986 17.7402824,41 17,41 C16.2597176,41 15.6133738,41.4021986 15.2675644,42 L12.7324356,42 C12.3866262,41.4021986 11.7402824,41 11,41 C10.2597176,41 9.61337381,41.4021986 9.26756439,42 L6.73243561,42 C6.38662619,41.4021986 5.74028236,41 5,41 C4.25971764,41 3.61337381,41.4021986 3.26756439,42 L0,42 L0,38 L40,38 L40,42 L36.7324356,42 C36.3866262,41.4021986 35.7402824,41 35,41 C34.2597176,41 33.6133738,41.4021986 33.2675644,42 L33.2675644,42 Z" id="Combined-Shape" fill="#78909C"></path>
                <path d="M33.2675644,4 L30.7324356,4 C30.3866262,3.40219863 29.7402824,3 29,3 C28.2597176,3 27.6133738,3.40219863 27.2675644,4 L24.7324356,4 C24.3866262,3.40219863 23.7402824,3 23,3 C22.2597176,3 21.6133738,3.40219863 21.2675644,4 L18.7324356,4 C18.3866262,3.40219863 17.7402824,3 17,3 C16.2597176,3 15.6133738,3.40219863 15.2675644,4 L12.7324356,4 C12.3866262,3.40219863 11.7402824,3 11,3 C10.2597176,3 9.61337381,3.40219863 9.26756439,4 L6.73243561,4 C6.38662619,3.40219863 5.74028236,3 5,3 C4.25971764,3 3.61337381,3.40219863 3.26756439,4 L0,4 L0,0 L40,0 L40,4 L36.7324356,4 C36.3866262,3.40219863 35.7402824,3 35,3 C34.2597176,3 33.6133738,3.40219863 33.2675644,4 L33.2675644,4 Z" id="Combined-Shape-Copy" fill="#78909C" transform="translate(20.000000, 2.000000) scale(1, -1) translate(-20.000000, -2.000000) "></path>
                <polygon id="Rectangle-21" fill="#CFD8DC" points="1.13466182 33.9601453 1 8 0 4 40 4 39 8 39 34 40 38 0 38"></polygon>
            </g>
            <g id="Elephant" transform="translate(13.000000, 14.000000)">
                <path d="M24,6.24324324 C24,2.79518919 21.1794,0 17.7,0 C16.1412,0 14.7174,0.563675676 13.6176,1.49302703 C12.5544,1.14102703 10.4754,0.594594595 7.8,0.594594595 C7.8,0.594594595 0,0.409081081 0,8.32432432 C0,11.8449189 0.9354,13.9420541 1.2,15.4594595 C1.506,17.2141081 1.7544,21.4547568 1.7544,21.4547568 C1.7802,21.7627568 2.04,22 2.352,22 L6.6,22 L6.6,16.0540541 C6.6,16.0540541 7.428,16.6486486 8.4,16.6486486 C9.372,16.6486486 10.2,16.0540541 10.2,16.0540541 L10.2,21.4054054 C10.2,21.7336216 10.4688,22 10.8,22 L15,22 C15,22 15.3072,16.3882162 15.6,14.8648649 C15.8928,13.3415135 16.8,11.2972973 16.8,11.2972973 C21.6378,11.2972973 21.6,14.8648649 21.6,14.8648649 L21.6,15.4594595 C21.6,16.1152973 21.0618,16.6486486 20.4,16.6486486 C19.7382,16.6486486 19.2,16.1152973 19.2,15.4594595 L16.8,15.4594595 C16.8,17.426973 18.4146,19.027027 20.4,19.027027 C22.3854,19.027027 24,17.426973 24,15.4594595 L24,14.8648649 L24,7.13513514 L24,6.54054054 L23.982,6.54054054 C23.9898,6.44243243 24,6.34551351 24,6.24324324 L24,6.24324324 Z" id="Shape" fill="#78909C"></path>
                <ellipse id="Oval" fill="#37474F" cx="20.4" cy="6.54054054" rx="0.6" ry="0.594594595"></ellipse>
                <path d="M9,5.35135135 C9,8.52054054 10.6134,11.66 13.8,13.0810811 C13.8,13.0810811 15.0894,6.70405405 15.6,4.75675676 C15.6,4.75675676 16.2,4.26383784 16.2,3.27027027 C16.2,1.46389189 14.7228,0 12.9,0 C11.0772,0 9,1.83075676 9,5.35135135 L9,5.35135135 Z" id="Shape" fill="#B0BEC5"></path>
                <path d="M23.7624,12.4496216 C23.6118,12.4282162 23.3982,12.3972973 23.1492,12.3259459 C23.0244,12.2956216 22.89,12.2623243 22.7526,12.2082162 C22.6152,12.1558919 22.4676,12.1166486 22.3254,12.0447027 C22.0356,11.9180541 21.738,11.7640541 21.4626,11.5785405 C20.9052,11.2176216 20.433,10.7591892 20.1294,10.386973 C19.9746,10.2032432 19.8618,10.0409189 19.788,9.92913514 C19.7124,9.81437838 19.6938,9.77037838 19.6854,9.75967568 L19.677,9.76562162 C19.5684,9.61697297 19.3998,9.51351351 19.2,9.51351351 C18.8688,9.51351351 18.6,9.77989189 18.6,10.1081081 C18.6,10.2383243 18.651,10.3524865 18.7224,10.4505946 L18.714,10.4565405 C18.7098,10.4511892 18.7296,10.4737838 18.765,10.5124324 C18.7722,10.5201622 18.7788,10.5284865 18.7866,10.5356216 C18.819,10.5701081 18.8586,10.6117297 18.9066,10.6581081 C19.029,10.7764324 19.2036,10.936973 19.4268,11.1088108 C19.8666,11.4578378 20.5038,11.8496757 21.1896,12.1077297 C21.5292,12.2421081 21.8814,12.3372432 22.2126,12.4038378 C22.3758,12.4454595 22.5408,12.454973 22.692,12.4775676 C22.8432,12.5019459 22.9884,12.5061081 23.1216,12.5096757 C23.3868,12.5275135 23.607,12.5114595 23.76,12.5007568 C23.913,12.4918378 24,12.4864865 24,12.4864865 C24,12.4864865 23.9136,12.4728108 23.7624,12.4496216 L23.7624,12.4496216 Z" id="Shape" fill="#EFEBE9"></path>
                <path d="M15,22 L10.8,22 C10.5042,22 10.2696,21.7835676 10.2204,21.5047027 C10.3224,20.4510811 11.2104,19.6216216 12.3,19.6216216 C12.6234,19.6216216 12.9264,19.7007027 13.2,19.8303243 C13.4736,19.7007027 13.7766,19.6216216 14.1,19.6216216 C14.4756,19.6216216 14.8236,19.7280541 15.129,19.8998919 C15.0504,21.0855135 15,22 15,22 L15,22 Z M3,21.7027027 C3,21.2103784 3.4032,20.8108108 3.9,20.8108108 C4.3968,20.8108108 4.8,21.2103784 4.8,21.7027027 C4.8,21.2103784 5.2032,20.8108108 5.7,20.8108108 C6.1968,20.8108108 6.6,21.2103784 6.6,21.7027027 L6.6,19.8303243 C6.3264,19.7007027 6.0234,19.6216216 5.7,19.6216216 C5.3784,19.6216216 5.073,19.6935676 4.8,19.8225946 C4.527,19.6935676 4.2216,19.6216216 3.9,19.6216216 C2.7636,19.6216216 1.8402,20.5224324 1.8066,21.6402703 C1.899,21.8519459 2.1072,22 2.352,22 L3,22 L3,21.7027027 L3,21.7027027 Z M13.3824,12.8747568 C10.4748,11.3728108 9,8.37783784 9,5.35135135 C9,3.2007027 9.777,1.68389189 10.7958,0.826486486 C10.3296,0.754540541 9.8292,0.693297297 9.2928,0.65227027 C8.4006,1.75227027 7.8,3.32675676 7.8,5.35135135 C7.8,9.10918919 10.1922,11.3698378 13.3812,12.8854595 L13.3824,12.8747568 L13.3824,12.8747568 Z M6.6,15.4594595 L6.6,16.0540541 C6.6,16.0540541 7.428,16.6486486 8.4,16.6486486 C9.372,16.6486486 10.2,16.0540541 10.2,16.0540541 L10.2,13.6756757 C10.2,13.6756757 9.8016,15.4594595 6.6,15.4594595 L6.6,15.4594595 Z M15,4.16216216 C14.6688,4.16216216 14.4,4.42854054 14.4,4.75675676 C14.4,5.08497297 15,7.13513514 15,7.13513514 C15,7.13513514 15.6,5.08497297 15.6,4.75675676 C15.6,4.42854054 15.3312,4.16216216 15,4.16216216 L15,4.16216216 Z M15.8328,1.77545946 C15.8418,1.7932973 15.8502,1.81172973 15.8592,1.82956757 C15.9018,1.91518919 15.9408,2.00259459 15.9762,2.09237838 C15.9888,2.12389189 16.0002,2.15540541 16.0116,2.18751351 C16.0398,2.26659459 16.0644,2.34745946 16.0866,2.42951351 C16.0968,2.46697297 16.107,2.50443243 16.116,2.54248649 C16.1352,2.62513514 16.1496,2.70956757 16.1622,2.79459459 C16.1676,2.83086486 16.1748,2.86594595 16.179,2.90281081 C16.1916,3.02291892 16.2,3.14540541 16.2,3.27027027 C16.2,3.34875676 16.1904,3.41832432 16.1838,3.49027027 C16.5108,2.57935135 16.7766,1.31345946 16.3566,0.148648649 C15.84,0.261027027 15.3468,0.433459459 14.886,0.662972973 L14.8866,0.662972973 C15.2802,0.958486486 15.6048,1.33724324 15.8328,1.77545946 L15.8328,1.77545946 Z" id="Shape" fill="#546E7A"></path>
                <path d="M3,21.7027027 C3,21.2103784 3.4032,20.8108108 3.9,20.8108108 C4.3968,20.8108108 4.8,21.2103784 4.8,21.7027027 L4.8,22 L3,22 L3,21.7027027 L3,21.7027027 Z M4.8,22 L6.6,22 L6.6,21.7027027 C6.6,21.2103784 6.1968,20.8108108 5.7,20.8108108 C5.2032,20.8108108 4.8,21.2103784 4.8,21.7027027 L4.8,22 L4.8,22 Z M11.4,22 L13.2,22 L13.2,21.7027027 C13.2,21.2103784 12.7968,20.8108108 12.3,20.8108108 C11.8032,20.8108108 11.4,21.2103784 11.4,21.7027027 L11.4,22 L11.4,22 Z M13.2,22 L15,22 L15,21.7027027 C15,21.2103784 14.5968,20.8108108 14.1,20.8108108 C13.6032,20.8108108 13.2,21.2103784 13.2,21.7027027 L13.2,22 L13.2,22 Z" id="Shape" fill="#ECEFF1"></path>
            </g>
        </g>
    </g>
</svg>