<?xml version="1.0" encoding="UTF-8" standalone="no"?>
<svg width="50px" height="50px" viewBox="0 0 50 50" version="1.1" xmlns="http://www.w3.org/2000/svg" xmlns:xlink="http://www.w3.org/1999/xlink">
    <!-- Generator: Sketch 39.1 (31720) - http://www.bohemiancoding.com/sketch -->
    <title>4500</title>
    <desc>Created with Sketch.</desc>
    <defs></defs>
    <g id="Tic-tac-toe-Copy" stroke="none" stroke-width="1" fill="none" fill-rule="evenodd">
        <g id="4500">
            <g id="Group-2" transform="translate(5.000000, 4.000000)">
                <path d="M33.2675644,42 L30.7324356,42 C30.3866262,41.4021986 29.7402824,41 29,41 C28.2597176,41 27.6133738,41.4021986 27.2675644,42 L24.7324356,42 C24.3866262,41.4021986 23.7402824,41 23,41 C22.2597176,41 21.6133738,41.4021986 21.2675644,42 L18.7324356,42 C18.3866262,41.4021986 17.7402824,41 17,41 C16.2597176,41 15.6133738,41.4021986 15.2675644,42 L12.7324356,42 C12.3866262,41.4021986 11.7402824,41 11,41 C10.2597176,41 9.61337381,41.4021986 9.26756439,42 L6.73243561,42 C6.38662619,41.4021986 5.74028236,41 5,41 C4.25971764,41 3.61337381,41.4021986 3.26756439,42 L0,42 L0,38 L40,38 L40,42 L36.7324356,42 C36.3866262,41.4021986 35.7402824,41 35,41 C34.2597176,41 33.6133738,41.4021986 33.2675644,42 L33.2675644,42 Z" id="Combined-Shape" fill="#FFD54F"></path>
                <path d="M33.2675644,4 L30.7324356,4 C30.3866262,3.40219863 29.7402824,3 29,3 C28.2597176,3 27.6133738,3.40219863 27.2675644,4 L24.7324356,4 C24.3866262,3.40219863 23.7402824,3 23,3 C22.2597176,3 21.6133738,3.40219863 21.2675644,4 L18.7324356,4 C18.3866262,3.40219863 17.7402824,3 17,3 C16.2597176,3 15.6133738,3.40219863 15.2675644,4 L12.7324356,4 C12.3866262,3.40219863 11.7402824,3 11,3 C10.2597176,3 9.61337381,3.40219863 9.26756439,4 L6.73243561,4 C6.38662619,3.40219863 5.74028236,3 5,3 C4.25971764,3 3.61337381,3.40219863 3.26756439,4 L0,4 L0,0 L40,0 L40,4 L36.7324356,4 C36.3866262,3.40219863 35.7402824,3 35,3 C34.2597176,3 33.6133738,3.40219863 33.2675644,4 L33.2675644,4 Z" id="Combined-Shape-Copy" fill="#FFD54F" transform="translate(20.000000, 2.000000) scale(1, -1) translate(-20.000000, -2.000000) "></path>
                <polygon id="Rectangle-21" fill="#FFECB3" points="1.13466182 33.9601453 1 8 0 4 40 4 39 8 39 34 40 38 0 38"></polygon>
            </g>
            <g id="Question" transform="translate(12.000000, 14.000000)">
                <ellipse id="Oval" fill="#FFCA28" cx="13.4146341" cy="11.5" rx="11.5853659" ry="11.5"></ellipse>
                <g id="Group" transform="translate(8.536585, 4.236842)" fill="#E5A80E">
                    <ellipse id="Oval" cx="2.43902439" cy="2.42105263" rx="2.43902439" ry="2.42105263"></ellipse>
                    <ellipse id="Oval" cx="10.9756098" cy="2.42105263" rx="2.43902439" ry="2.42105263"></ellipse>
                </g>
                <g id="Group" transform="translate(8.536585, 5.447368)" fill="#FFFFFF">
                    <ellipse id="Oval" cx="2.43902439" cy="2.42105263" rx="2.43902439" ry="2.42105263"></ellipse>
                    <ellipse id="Oval" cx="10.9756098" cy="2.42105263" rx="2.43902439" ry="2.42105263"></ellipse>
                </g>
                <g id="Group" transform="translate(10.365854, 6.052632)" fill="#1976D2">
                    <ellipse id="Oval" cx="1.2195122" cy="1.21052632" rx="1.2195122" ry="1.21052632"></ellipse>
                    <ellipse id="Oval" cx="9.75609756" cy="1.21052632" rx="1.2195122" ry="1.21052632"></ellipse>
                </g>
                <path d="M6.70731707,17.4636579 C6.70731707,17.4636579 16.4634146,12.7105263 20.1219512,17.4636579" id="Shape" stroke="#B76C09" stroke-width="1.2"></path>
                <path d="M4.1054878,8.97 C3.925,8.30965789 3.86280488,7.76128947 3.91829268,7.32671053 C3.97439024,6.89152632 4.16707317,6.42547368 4.49695122,5.92855263 C4.82682927,5.43344737 5.0304878,5.04607895 5.1097561,4.76886842 C5.18780488,4.49165789 5.19146341,4.22171053 5.11890244,3.95660526 C4.90121951,3.15947368 4.41829268,2.86107895 3.67073171,3.06263158 C3.31646341,3.15765789 3.06158537,3.34165789 2.90792683,3.61342105 C2.75365854,3.88578947 2.72256098,4.21202632 2.81646341,4.59213158 L0.732926829,5.15321053 C0.496341463,4.25076316 0.599390244,3.46634211 1.04146341,2.79934211 C1.4847561,2.13415789 2.20853659,1.66568421 3.21463415,1.39452632 C4.2304878,1.12094737 5.08414634,1.15060526 5.77682927,1.4835 C6.4695122,1.81578947 6.93597561,2.42165789 7.17682927,3.30352632 C7.28658537,3.70481579 7.29939024,4.10731579 7.21463415,4.51223684 C7.12987805,4.91776316 6.9195122,5.39834211 6.58292683,5.95518421 L6.15,6.65607895 C5.87987805,7.09852632 5.78170732,7.55731579 5.8554878,8.03426316 L5.94512195,8.47368421 L4.1054878,8.97 L4.1054878,8.97 Z M4.48902439,11.1913158 C4.40304878,10.8765789 4.44146341,10.5884737 4.60304878,10.3245789 C4.76585366,10.0618947 5.01646341,9.88394737 5.35609756,9.79255263 C5.69573171,9.70115789 6.00304878,9.729 6.27682927,9.87365789 C6.55121951,10.0201316 6.73109756,10.2501316 6.81707317,10.5642632 C6.90182927,10.8741579 6.8652439,11.1592368 6.70670732,11.4176842 C6.54939024,11.6773421 6.29512195,11.8546842 5.94573171,11.9485 C5.59573171,12.0423158 5.28658537,12.0168947 5.01829268,11.8728421 C4.75060976,11.7287895 4.57378049,11.5012105 4.48902439,11.1913158 L4.48902439,11.1913158 Z" id="Shape" fill="#F44336"></path>
            </g>
        </g>
    </g>
</svg>