<?xml version="1.0" encoding="UTF-8" standalone="no"?>
<svg width="50px" height="50px" viewBox="0 0 50 50" version="1.1" xmlns="http://www.w3.org/2000/svg" xmlns:xlink="http://www.w3.org/1999/xlink">
    <!-- Generator: Sketch 39.1 (31720) - http://www.bohemiancoding.com/sketch -->
    <title>4600</title>
    <desc>Created with Sketch.</desc>
    <defs></defs>
    <g id="Tic-tac-toe-Copy" stroke="none" stroke-width="1" fill="none" fill-rule="evenodd">
        <g id="4600">
            <g id="Group-2" transform="translate(5.000000, 4.000000)">
                <path d="M33.2675644,42 L30.7324356,42 C30.3866262,41.4021986 29.7402824,41 29,41 C28.2597176,41 27.6133738,41.4021986 27.2675644,42 L24.7324356,42 C24.3866262,41.4021986 23.7402824,41 23,41 C22.2597176,41 21.6133738,41.4021986 21.2675644,42 L18.7324356,42 C18.3866262,41.4021986 17.7402824,41 17,41 C16.2597176,41 15.6133738,41.4021986 15.2675644,42 L12.7324356,42 C12.3866262,41.4021986 11.7402824,41 11,41 C10.2597176,41 9.61337381,41.4021986 9.26756439,42 L6.73243561,42 C6.38662619,41.4021986 5.74028236,41 5,41 C4.25971764,41 3.61337381,41.4021986 3.26756439,42 L0,42 L0,38 L40,38 L40,42 L36.7324356,42 C36.3866262,41.4021986 35.7402824,41 35,41 C34.2597176,41 33.6133738,41.4021986 33.2675644,42 L33.2675644,42 Z" id="Combined-Shape" fill="#E57373"></path>
                <path d="M33.2675644,4 L30.7324356,4 C30.3866262,3.40219863 29.7402824,3 29,3 C28.2597176,3 27.6133738,3.40219863 27.2675644,4 L24.7324356,4 C24.3866262,3.40219863 23.7402824,3 23,3 C22.2597176,3 21.6133738,3.40219863 21.2675644,4 L18.7324356,4 C18.3866262,3.40219863 17.7402824,3 17,3 C16.2597176,3 15.6133738,3.40219863 15.2675644,4 L12.7324356,4 C12.3866262,3.40219863 11.7402824,3 11,3 C10.2597176,3 9.61337381,3.40219863 9.26756439,4 L6.73243561,4 C6.38662619,3.40219863 5.74028236,3 5,3 C4.25971764,3 3.61337381,3.40219863 3.26756439,4 L0,4 L0,0 L40,0 L40,4 L36.7324356,4 C36.3866262,3.40219863 35.7402824,3 35,3 C34.2597176,3 33.6133738,3.40219863 33.2675644,4 L33.2675644,4 Z" id="Combined-Shape-Copy" fill="#E57373" transform="translate(20.000000, 2.000000) scale(1, -1) translate(-20.000000, -2.000000) "></path>
                <polygon id="Rectangle-21" fill="#FFCDD2" points="1.13466182 33.9601453 1 8 0 4 40 4 39 8 39 34 40 38 0 38"></polygon>
            </g>
            <g id="Hollywood-Stars" transform="translate(14.000000, 14.000000)">
                <path d="M2.54210526,0 C1.15,0 0,1.15 0,2.54210526 L0,20.4578947 C0,21.85 1.15,23 2.54210526,23 L20.4578947,23 C21.85,23 23,21.85 23,20.4578947 L23,2.54210526 C23,1.15 21.85,0 20.4578947,0 L2.54210526,0 L2.54210526,0 Z" id="Shape" fill="#455A64"></path>
                <polygon id="Shape" fill="#FF8A80" points="13.6789474 9.68421053 19.9736842 9.68421053 15.0105263 13.4368421 16.9473684 19.3684211 11.5 15.7368421 6.05263158 19.3684211 8.17105263 13.5578947 3.02631579 9.68421053 9.2 9.68421053 11.5 3.63157895"></polygon>
                <path d="M4.84210526,20.8815789 L7.38421053,13.7394737 L1.21052632,9.07894737 L8.77631579,9.07894737 L11.5,1.87631579 L14.1026316,9.07894737 L21.7894737,9.07894737 L15.6763158,13.6789474 L18.0368421,20.8815789 L11.5,16.4631579 L4.84210526,20.8815789 L4.84210526,20.8815789 Z M11.5,15.0105263 L15.7973684,17.9157895 L14.2236842,13.2552632 L18.1578947,10.2894737 L13.2552632,10.2894737 L11.5,5.38684211 L9.62368421,10.2894737 L4.84210526,10.2894737 L8.89736842,13.3157895 L7.26315789,17.8552632 L11.5,15.0105263 L11.5,15.0105263 Z" id="Shape" fill="#FFECB3"></path>
                <path d="M3.63157895,1.81578947 C3.63157895,2.17894737 3.38947368,2.42105263 3.02631579,2.42105263 C2.66315789,2.42105263 2.42105263,2.17894737 2.42105263,1.81578947 C2.42105263,1.45263158 2.66315789,1.21052632 3.02631579,1.21052632 C3.38947368,1.21052632 3.63157895,1.45263158 3.63157895,1.81578947 L3.63157895,1.81578947 Z M1.81578947,3.63157895 C1.45263158,3.63157895 1.21052632,3.87368421 1.21052632,4.23684211 C1.21052632,4.6 1.45263158,4.84210526 1.81578947,4.84210526 C2.17894737,4.84210526 2.42105263,4.6 2.42105263,4.23684211 C2.42105263,3.87368421 2.17894737,3.63157895 1.81578947,3.63157895 L1.81578947,3.63157895 Z M6.05263158,4.23684211 C5.68947368,4.23684211 5.44736842,4.47894737 5.44736842,4.84210526 C5.44736842,5.20526316 5.68947368,5.44736842 6.05263158,5.44736842 C6.41578947,5.44736842 6.65789474,5.20526316 6.65789474,4.84210526 C6.65789474,4.47894737 6.41578947,4.23684211 6.05263158,4.23684211 L6.05263158,4.23684211 Z M4.23684211,5.44736842 C3.87368421,5.44736842 3.63157895,5.68947368 3.63157895,6.05263158 C3.63157895,6.41578947 3.87368421,6.65789474 4.23684211,6.65789474 C4.6,6.65789474 4.84210526,6.41578947 4.84210526,6.05263158 C4.84210526,5.68947368 4.6,5.44736842 4.23684211,5.44736842 L4.23684211,5.44736842 Z M6.05263158,1.81578947 C5.68947368,1.81578947 5.44736842,2.05789474 5.44736842,2.42105263 C5.44736842,2.78421053 5.68947368,3.02631579 6.05263158,3.02631579 C6.41578947,3.02631579 6.65789474,2.78421053 6.65789474,2.42105263 C6.65789474,2.05789474 6.41578947,1.81578947 6.05263158,1.81578947 L6.05263158,1.81578947 Z M8.47368421,6.05263158 C8.11052632,6.05263158 7.86842105,6.29473684 7.86842105,6.65789474 C7.86842105,7.02105263 8.11052632,7.26315789 8.47368421,7.26315789 C8.83684211,7.26315789 9.07894737,7.02105263 9.07894737,6.65789474 C9.07894737,6.29473684 8.83684211,6.05263158 8.47368421,6.05263158 L8.47368421,6.05263158 Z M1.21052632,6.65789474 C0.847368421,6.65789474 0.605263158,6.9 0.605263158,7.26315789 C0.605263158,7.62631579 0.847368421,7.86842105 1.21052632,7.86842105 C1.57368421,7.86842105 1.81578947,7.62631579 1.81578947,7.26315789 C1.81578947,6.9 1.57368421,6.65789474 1.21052632,6.65789474 L1.21052632,6.65789474 Z M6.05263158,7.26315789 C5.68947368,7.26315789 5.44736842,7.50526316 5.44736842,7.86842105 C5.44736842,8.23157895 5.68947368,8.47368421 6.05263158,8.47368421 C6.41578947,8.47368421 6.65789474,8.23157895 6.65789474,7.86842105 C6.65789474,7.50526316 6.41578947,7.26315789 6.05263158,7.26315789 L6.05263158,7.26315789 Z M9.07894737,3.02631579 C8.71578947,3.02631579 8.47368421,3.26842105 8.47368421,3.63157895 C8.47368421,3.99473684 8.71578947,4.23684211 9.07894737,4.23684211 C9.44210526,4.23684211 9.68421053,3.99473684 9.68421053,3.63157895 C9.68421053,3.26842105 9.44210526,3.02631579 9.07894737,3.02631579 L9.07894737,3.02631579 Z M13.3157895,0.605263158 C12.9526316,0.605263158 12.7105263,0.847368421 12.7105263,1.21052632 C12.7105263,1.57368421 12.9526316,1.81578947 13.3157895,1.81578947 C13.6789474,1.81578947 13.9210526,1.57368421 13.9210526,1.21052632 C13.9210526,0.847368421 13.6789474,0.605263158 13.3157895,0.605263158 L13.3157895,0.605263158 Z M9.07894737,0.605263158 C8.71578947,0.605263158 8.47368421,0.847368421 8.47368421,1.21052632 C8.47368421,1.57368421 8.71578947,1.81578947 9.07894737,1.81578947 C9.44210526,1.81578947 9.68421053,1.57368421 9.68421053,1.21052632 C9.68421053,0.847368421 9.44210526,0.605263158 9.07894737,0.605263158 L9.07894737,0.605263158 Z M1.21052632,11.5 C0.847368421,11.5 0.605263158,11.7421053 0.605263158,12.1052632 C0.605263158,12.4684211 0.847368421,12.7105263 1.21052632,12.7105263 C1.57368421,12.7105263 1.81578947,12.4684211 1.81578947,12.1052632 C1.81578947,11.7421053 1.57368421,11.5 1.21052632,11.5 L1.21052632,11.5 Z M3.63157895,12.1052632 C3.26842105,12.1052632 3.02631579,12.3473684 3.02631579,12.7105263 C3.02631579,13.0736842 3.26842105,13.3157895 3.63157895,13.3157895 C3.99473684,13.3157895 4.23684211,13.0736842 4.23684211,12.7105263 C4.23684211,12.3473684 3.99473684,12.1052632 3.63157895,12.1052632 L3.63157895,12.1052632 Z M4.23684211,15.1315789 C3.87368421,15.1315789 3.63157895,15.3736842 3.63157895,15.7368421 C3.63157895,16.1 3.87368421,16.3421053 4.23684211,16.3421053 C4.6,16.3421053 4.84210526,16.1 4.84210526,15.7368421 C4.84210526,15.3736842 4.6,15.1315789 4.23684211,15.1315789 L4.23684211,15.1315789 Z M1.21052632,15.1315789 C0.847368421,15.1315789 0.605263158,15.3736842 0.605263158,15.7368421 C0.605263158,16.1 0.847368421,16.3421053 1.21052632,16.3421053 C1.57368421,16.3421053 1.81578947,16.1 1.81578947,15.7368421 C1.81578947,15.3736842 1.57368421,15.1315789 1.21052632,15.1315789 L1.21052632,15.1315789 Z M3.02631579,17.5526316 C2.66315789,17.5526316 2.42105263,17.7947368 2.42105263,18.1578947 C2.42105263,18.5210526 2.66315789,18.7631579 3.02631579,18.7631579 C3.38947368,18.7631579 3.63157895,18.5210526 3.63157895,18.1578947 C3.63157895,17.7947368 3.38947368,17.5526316 3.02631579,17.5526316 L3.02631579,17.5526316 Z M2.42105263,20.5789474 C2.05789474,20.5789474 1.81578947,20.8210526 1.81578947,21.1842105 C1.81578947,21.5473684 2.05789474,21.7894737 2.42105263,21.7894737 C2.78421053,21.7894737 3.02631579,21.5473684 3.02631579,21.1842105 C3.02631579,20.8210526 2.78421053,20.5789474 2.42105263,20.5789474 L2.42105263,20.5789474 Z M7.86842105,20.5789474 C7.50526316,20.5789474 7.26315789,20.8210526 7.26315789,21.1842105 C7.26315789,21.5473684 7.50526316,21.7894737 7.86842105,21.7894737 C8.23157895,21.7894737 8.47368421,21.5473684 8.47368421,21.1842105 C8.47368421,20.8210526 8.23157895,20.5789474 7.86842105,20.5789474 L7.86842105,20.5789474 Z M10.2894737,18.7631579 C9.92631579,18.7631579 9.68421053,19.0052632 9.68421053,19.3684211 C9.68421053,19.7315789 9.92631579,19.9736842 10.2894737,19.9736842 C10.6526316,19.9736842 10.8947368,19.7315789 10.8947368,19.3684211 C10.8947368,19.0052632 10.6526316,18.7631579 10.2894737,18.7631579 L10.2894737,18.7631579 Z M15.1315789,6.05263158 C14.7684211,6.05263158 14.5263158,6.29473684 14.5263158,6.65789474 C14.5263158,7.02105263 14.7684211,7.26315789 15.1315789,7.26315789 C15.4947368,7.26315789 15.7368421,7.02105263 15.7368421,6.65789474 C15.7368421,6.29473684 15.4947368,6.05263158 15.1315789,6.05263158 L15.1315789,6.05263158 Z M12.7105263,20.5789474 C12.3473684,20.5789474 12.1052632,20.8210526 12.1052632,21.1842105 C12.1052632,21.5473684 12.3473684,21.7894737 12.7105263,21.7894737 C13.0736842,21.7894737 13.3157895,21.5473684 13.3157895,21.1842105 C13.3157895,20.8210526 13.0736842,20.5789474 12.7105263,20.5789474 L12.7105263,20.5789474 Z M15.7368421,20.5789474 C15.3736842,20.5789474 15.1315789,20.8210526 15.1315789,21.1842105 C15.1315789,21.5473684 15.3736842,21.7894737 15.7368421,21.7894737 C16.1,21.7894737 16.3421053,21.5473684 16.3421053,21.1842105 C16.3421053,20.8210526 16.1,20.5789474 15.7368421,20.5789474 L15.7368421,20.5789474 Z M17.5526316,13.9210526 C17.1894737,13.9210526 16.9473684,14.1631579 16.9473684,14.5263158 C16.9473684,14.8894737 17.1894737,15.1315789 17.5526316,15.1315789 C17.9157895,15.1315789 18.1578947,14.8894737 18.1578947,14.5263158 C18.1578947,14.1631579 17.9157895,13.9210526 17.5526316,13.9210526 L17.5526316,13.9210526 Z M18.7631579,16.9473684 C18.4,16.9473684 18.1578947,17.1894737 18.1578947,17.5526316 C18.1578947,17.9157895 18.4,18.1578947 18.7631579,18.1578947 C19.1263158,18.1578947 19.3684211,17.9157895 19.3684211,17.5526316 C19.3684211,17.1894737 19.1263158,16.9473684 18.7631579,16.9473684 L18.7631579,16.9473684 Z M19.9736842,20.5789474 C19.6105263,20.5789474 19.3684211,20.8210526 19.3684211,21.1842105 C19.3684211,21.5473684 19.6105263,21.7894737 19.9736842,21.7894737 C20.3368421,21.7894737 20.5789474,21.5473684 20.5789474,21.1842105 C20.5789474,20.8210526 20.3368421,20.5789474 19.9736842,20.5789474 L19.9736842,20.5789474 Z M21.1842105,18.1578947 C20.8210526,18.1578947 20.5789474,18.4 20.5789474,18.7631579 C20.5789474,19.1263158 20.8210526,19.3684211 21.1842105,19.3684211 C21.5473684,19.3684211 21.7894737,19.1263158 21.7894737,18.7631579 C21.7894737,18.4 21.5473684,18.1578947 21.1842105,18.1578947 L21.1842105,18.1578947 Z M20.5789474,14.5263158 C20.2157895,14.5263158 19.9736842,14.7684211 19.9736842,15.1315789 C19.9736842,15.4947368 20.2157895,15.7368421 20.5789474,15.7368421 C20.9421053,15.7368421 21.1842105,15.4947368 21.1842105,15.1315789 C21.1842105,14.7684211 20.9421053,14.5263158 20.5789474,14.5263158 L20.5789474,14.5263158 Z M20.5789474,11.5 C20.2157895,11.5 19.9736842,11.7421053 19.9736842,12.1052632 C19.9736842,12.4684211 20.2157895,12.7105263 20.5789474,12.7105263 C20.9421053,12.7105263 21.1842105,12.4684211 21.1842105,12.1052632 C21.1842105,11.7421053 20.9421053,11.5 20.5789474,11.5 L20.5789474,11.5 Z M18.7631579,6.65789474 C18.4,6.65789474 18.1578947,6.9 18.1578947,7.26315789 C18.1578947,7.62631579 18.4,7.86842105 18.7631579,7.86842105 C19.1263158,7.86842105 19.3684211,7.62631579 19.3684211,7.26315789 C19.3684211,6.9 19.1263158,6.65789474 18.7631579,6.65789474 L18.7631579,6.65789474 Z M15.7368421,3.02631579 C15.3736842,3.02631579 15.1315789,3.26842105 15.1315789,3.63157895 C15.1315789,3.99473684 15.3736842,4.23684211 15.7368421,4.23684211 C16.1,4.23684211 16.3421053,3.99473684 16.3421053,3.63157895 C16.3421053,3.26842105 16.1,3.02631579 15.7368421,3.02631579 L15.7368421,3.02631579 Z M18.7631579,1.21052632 C18.4,1.21052632 18.1578947,1.45263158 18.1578947,1.81578947 C18.1578947,2.17894737 18.4,2.42105263 18.7631579,2.42105263 C19.1263158,2.42105263 19.3684211,2.17894737 19.3684211,1.81578947 C19.3684211,1.45263158 19.1263158,1.21052632 18.7631579,1.21052632 L18.7631579,1.21052632 Z M18.7631579,4.23684211 C18.4,4.23684211 18.1578947,4.47894737 18.1578947,4.84210526 C18.1578947,5.20526316 18.4,5.44736842 18.7631579,5.44736842 C19.1263158,5.44736842 19.3684211,5.20526316 19.3684211,4.84210526 C19.3684211,4.47894737 19.1263158,4.23684211 18.7631579,4.23684211 L18.7631579,4.23684211 Z M21.1842105,2.42105263 C20.8210526,2.42105263 20.5789474,2.66315789 20.5789474,3.02631579 C20.5789474,3.38947368 20.8210526,3.63157895 21.1842105,3.63157895 C21.5473684,3.63157895 21.7894737,3.38947368 21.7894737,3.02631579 C21.7894737,2.66315789 21.5473684,2.42105263 21.1842105,2.42105263 L21.1842105,2.42105263 Z M21.7894737,5.44736842 C21.4263158,5.44736842 21.1842105,5.68947368 21.1842105,6.05263158 C21.1842105,6.41578947 21.4263158,6.65789474 21.7894737,6.65789474 C22.1526316,6.65789474 22.3947368,6.41578947 22.3947368,6.05263158 C22.3947368,5.68947368 22.1526316,5.44736842 21.7894737,5.44736842 L21.7894737,5.44736842 Z" id="Shape" fill="#607D8B"></path>
            </g>
        </g>
    </g>
</svg>