<?xml version="1.0" encoding="UTF-8" standalone="no"?>
<svg width="50px" height="50px" viewBox="0 0 50 50" version="1.1" xmlns="http://www.w3.org/2000/svg" xmlns:xlink="http://www.w3.org/1999/xlink">
    <!-- Generator: Sketch 39.1 (31720) - http://www.bohemiancoding.com/sketch -->
    <title>4700</title>
    <desc>Created with Sketch.</desc>
    <defs></defs>
    <g id="Tic-tac-toe-Copy" stroke="none" stroke-width="1" fill="none" fill-rule="evenodd">
        <g id="4700">
            <g id="Group-2" transform="translate(5.000000, 4.000000)">
                <path d="M33.2675644,42 L30.7324356,42 C30.3866262,41.4021986 29.7402824,41 29,41 C28.2597176,41 27.6133738,41.4021986 27.2675644,42 L24.7324356,42 C24.3866262,41.4021986 23.7402824,41 23,41 C22.2597176,41 21.6133738,41.4021986 21.2675644,42 L18.7324356,42 C18.3866262,41.4021986 17.7402824,41 17,41 C16.2597176,41 15.6133738,41.4021986 15.2675644,42 L12.7324356,42 C12.3866262,41.4021986 11.7402824,41 11,41 C10.2597176,41 9.61337381,41.4021986 9.26756439,42 L6.73243561,42 C6.38662619,41.4021986 5.74028236,41 5,41 C4.25971764,41 3.61337381,41.4021986 3.26756439,42 L0,42 L0,38 L40,38 L40,42 L36.7324356,42 C36.3866262,41.4021986 35.7402824,41 35,41 C34.2597176,41 33.6133738,41.4021986 33.2675644,42 L33.2675644,42 Z" id="Combined-Shape" fill="#FFD54F"></path>
                <path d="M33.2675644,4 L30.7324356,4 C30.3866262,3.40219863 29.7402824,3 29,3 C28.2597176,3 27.6133738,3.40219863 27.2675644,4 L24.7324356,4 C24.3866262,3.40219863 23.7402824,3 23,3 C22.2597176,3 21.6133738,3.40219863 21.2675644,4 L18.7324356,4 C18.3866262,3.40219863 17.7402824,3 17,3 C16.2597176,3 15.6133738,3.40219863 15.2675644,4 L12.7324356,4 C12.3866262,3.40219863 11.7402824,3 11,3 C10.2597176,3 9.61337381,3.40219863 9.26756439,4 L6.73243561,4 C6.38662619,3.40219863 5.74028236,3 5,3 C4.25971764,3 3.61337381,3.40219863 3.26756439,4 L0,4 L0,0 L40,0 L40,4 L36.7324356,4 C36.3866262,3.40219863 35.7402824,3 35,3 C34.2597176,3 33.6133738,3.40219863 33.2675644,4 L33.2675644,4 Z" id="Combined-Shape-Copy" fill="#FFD54F" transform="translate(20.000000, 2.000000) scale(1, -1) translate(-20.000000, -2.000000) "></path>
                <polygon id="Rectangle-21" fill="#FFECB3" points="1.13466182 33.9601453 1 8 0 4 40 4 39 8 39 34 40 38 0 38"></polygon>
            </g>
            <g id="Theatre-Mask" transform="translate(13.000000, 13.000000)">
                <path d="M14.22,7.43243243 C15,9.63243243 12.6,14.627027 10.44,15.4 L5.4,1.48648649 C9.78,-0.0594594595 11.88,0.832432432 11.88,0.832432432 L14.22,7.43243243 L14.22,7.43243243 Z" id="Shape" fill="#FF8F00"></path>
                <path d="M2.4,11.7135135 C3.18,13.9135135 8.28,16.2324324 10.44,15.4594595 L5.4,1.48648649 C1.02,3.03243243 0,5.05405405 0,5.05405405 L2.4,11.7135135 L2.4,11.7135135 Z" id="Shape" fill="#FFA000"></path>
                <g id="Group" transform="translate(3.600000, 4.162162)" fill="#693D14">
                    <path d="M7.74,2.25945946 C7.74,2.25945946 6.42,1.30810811 4.62,1.72432432 C4.62,1.72432432 4.8,0.475675676 5.82,0.475675676 C7.26,0.416216216 7.74,2.25945946 7.74,2.25945946 L7.74,2.25945946 Z" id="Shape"></path>
                    <path d="M5.1,6.36216216 C7.14,5.64864865 8.46,6.36216216 8.46,6.36216216 C8.46,6.36216216 6.78,4.22162162 4.62,4.99459459 C2.46,5.76756757 2.52,8.44324324 2.52,8.44324324 C2.52,8.44324324 3.06,7.07567568 5.1,6.36216216 L5.1,6.36216216 Z" id="Shape"></path>
                    <path d="M0.36,4.87567568 C0.36,4.87567568 0.72,3.27027027 2.4,2.4972973 C2.4,2.4972973 1.44,1.66486486 0.66,2.31891892 C-0.42,3.15135135 0.36,4.87567568 0.36,4.87567568 L0.36,4.87567568 Z" id="Shape"></path>
                </g>
                <path d="M21.84,17.1837838 C21.12,19.6810811 15.72,22.5945946 13.26,21.8810811 L17.82,6.18378378 C22.74,7.61081081 24,9.75135135 24,9.75135135 L21.84,17.1837838 L21.84,17.1837838 Z" id="Shape" fill="#FFB300"></path>
                <path d="M8.52,13.3783784 C7.8,15.8756757 10.8,21.227027 13.26,21.8810811 L17.82,6.18378378 C12.9,4.81621622 10.68,5.94594595 10.68,5.94594595 L8.52,13.3783784 L8.52,13.3783784 Z" id="Shape" fill="#FFC107"></path>
                <g id="Group" transform="translate(11.400000, 9.513514)" fill="#694A14">
                    <path d="M9.18,4.22162162 C9.18,4.22162162 8.28,2.97297297 6,2.67567568 C6,2.67567568 6.9,1.78378378 7.98,2.08108108 C9.24,2.43783784 9.18,4.22162162 9.18,4.22162162 L9.18,4.22162162 Z" id="Shape"></path>
                    <path d="M0.06,1.60540541 C0.06,1.60540541 1.5,1.01081081 3.54,1.96216216 C3.54,1.96216216 3.24,0.713513514 2.16,0.416216216 C0.96,0.0594594595 0.06,1.60540541 0.06,1.60540541 L0.06,1.60540541 Z" id="Shape"></path>
                    <path d="M3.54,6.54054054 C0.96,5.82702703 0.18,4.1027027 0.18,4.1027027 C0.18,4.1027027 0.3,7.43243243 3.06,8.20540541 C5.82,8.97837838 7.68,6.24324324 7.68,6.24324324 C7.68,6.24324324 6.12,7.31351351 3.54,6.54054054 L3.54,6.54054054 Z" id="Shape"></path>
                </g>
            </g>
        </g>
    </g>
</svg>