<?xml version="1.0" encoding="UTF-8" standalone="no"?>
<svg width="50px" height="50px" viewBox="0 0 50 50" version="1.1" xmlns="http://www.w3.org/2000/svg" xmlns:xlink="http://www.w3.org/1999/xlink">
    <!-- Generator: Sketch 39.1 (31720) - http://www.bohemiancoding.com/sketch -->
    <title>4800</title>
    <desc>Created with Sketch.</desc>
    <defs></defs>
    <g id="Tic-tac-toe-Copy" stroke="none" stroke-width="1" fill="none" fill-rule="evenodd">
        <g id="4800">
            <g id="Group-2" transform="translate(5.000000, 4.000000)">
                <path d="M33.2675644,42 L30.7324356,42 C30.3866262,41.4021986 29.7402824,41 29,41 C28.2597176,41 27.6133738,41.4021986 27.2675644,42 L24.7324356,42 C24.3866262,41.4021986 23.7402824,41 23,41 C22.2597176,41 21.6133738,41.4021986 21.2675644,42 L18.7324356,42 C18.3866262,41.4021986 17.7402824,41 17,41 C16.2597176,41 15.6133738,41.4021986 15.2675644,42 L12.7324356,42 C12.3866262,41.4021986 11.7402824,41 11,41 C10.2597176,41 9.61337381,41.4021986 9.26756439,42 L6.73243561,42 C6.38662619,41.4021986 5.74028236,41 5,41 C4.25971764,41 3.61337381,41.4021986 3.26756439,42 L0,42 L0,38 L40,38 L40,42 L36.7324356,42 C36.3866262,41.4021986 35.7402824,41 35,41 C34.2597176,41 33.6133738,41.4021986 33.2675644,42 L33.2675644,42 Z" id="Combined-Shape" fill="#64B5F6"></path>
                <path d="M33.2675644,4 L30.7324356,4 C30.3866262,3.40219863 29.7402824,3 29,3 C28.2597176,3 27.6133738,3.40219863 27.2675644,4 L24.7324356,4 C24.3866262,3.40219863 23.7402824,3 23,3 C22.2597176,3 21.6133738,3.40219863 21.2675644,4 L18.7324356,4 C18.3866262,3.40219863 17.7402824,3 17,3 C16.2597176,3 15.6133738,3.40219863 15.2675644,4 L12.7324356,4 C12.3866262,3.40219863 11.7402824,3 11,3 C10.2597176,3 9.61337381,3.40219863 9.26756439,4 L6.73243561,4 C6.38662619,3.40219863 5.74028236,3 5,3 C4.25971764,3 3.61337381,3.40219863 3.26756439,4 L0,4 L0,0 L40,0 L40,4 L36.7324356,4 C36.3866262,3.40219863 35.7402824,3 35,3 C34.2597176,3 33.6133738,3.40219863 33.2675644,4 L33.2675644,4 Z" id="Combined-Shape-Copy" fill="#64B5F6" transform="translate(20.000000, 2.000000) scale(1, -1) translate(-20.000000, -2.000000) "></path>
                <polygon id="Rectangle-21" fill="#BBDEFB" points="1.13466182 33.9601453 1 8 0 4 40 4 39 8 39 34 40 38 0 38"></polygon>
            </g>
            <g id="ABC" transform="translate(11.000000, 16.000000)">
                <path d="M11.977,14.8968 L8.65710417,5.124 C8.3375,4.1346 7.75085417,3 6.03864583,3 C4.28716667,3 3.693875,4.215 3.4020625,5.1216 L0.122645833,14.892 C-0.097875,15.5256 -0.0169166667,16.1994 0.338333333,16.6956 C0.659145833,17.1432 1.17510417,17.4 1.7545,17.4 C2.67525,17.4 3.29995833,16.8792 3.61170833,15.846 L4.03522917,14.4 L8.0239375,14.4 L8.47283333,15.867 C8.81116667,16.8846 9.42741667,17.4 10.3034583,17.4 C10.8895,17.4 11.3921667,17.16 11.7190208,16.7238 C12.0809167,16.2408 12.1793958,15.5652 11.977,14.8968 L11.977,14.8968 Z M5.00975,11.4 L6.03925,8.1456 L7.08627083,11.4 L5.00975,11.4 L5.00975,11.4 Z" id="Shape" fill="#FF3D00"></path>
                <path d="M24.030125,18 C19.9085,18 16.9166667,14.9676 16.9166667,10.7904 C16.9166667,6.624 19.9085,3.6 24.030125,3.6 C25.5405417,3.6 26.8292292,3.9474 27.9203542,4.6938 C28.6471667,5.1924 29,5.76 29,6.429 C29,7.335 28.3215208,8.0172 27.4213125,8.0172 C26.8086875,8.0172 26.357375,7.743 25.994875,7.5222 C25.4396458,7.1712 24.8862292,6.9708 24.0687917,6.9708 C21.9584375,6.9708 20.5410625,8.5062 20.5410625,10.7904 C20.5410625,13.086 21.9590417,14.6286 24.0687917,14.6286 C24.9593333,14.6286 25.4317917,14.442 25.9924583,14.0982 C26.3434792,13.872 26.7941875,13.5822 27.4019792,13.5822 C28.2979583,13.5822 29,14.2884 29,15.1902 C29,15.867 28.6381042,16.4358 27.8931667,16.9296 C26.8878333,17.6274 25.5483958,18 24.030125,18 L24.030125,18 Z" id="Shape" fill="#689F38"></path>
                <path d="M14.10125,14.4 L10.8925208,14.4 C9.83220833,14.4 9.0625,13.6506 9.0625,12.618 L9.0625,1.7622 C9.0625,0.741 9.83220833,0 10.8925208,0 L13.7743958,0 C18.2265,0 19.1611458,2.3088 19.1611458,4.245 C19.1611458,5.244 18.7829375,6.1344 18.0784792,6.8298 C19.2711042,7.5522 19.9375,8.6598 19.9375,9.9744 C19.9375,12.9114 17.9739583,14.4 14.10125,14.4 L14.10125,14.4 Z M12.7231458,11.097 L14.2855208,11.097 C16.0865417,11.097 16.2357708,10.5282 16.2357708,9.894 C16.2357708,9.546 16.2357708,8.7312 14.2649792,8.7312 L12.7231458,8.7312 L12.7231458,11.097 L12.7231458,11.097 Z M12.6875,5.4 L13.9024792,5.4 C15.2932708,5.4 15.5204375,4.8246 15.5204375,4.2 C15.5204375,3.5874 15.34825,3 13.6982708,3 L12.6875,3 L12.6875,5.4 L12.6875,5.4 Z" id="Shape" fill="#FFC107"></path>
            </g>
        </g>
    </g>
</svg>