<?xml version="1.0" encoding="UTF-8" standalone="no"?>
<svg width="50px" height="50px" viewBox="0 0 50 50" version="1.1" xmlns="http://www.w3.org/2000/svg" xmlns:xlink="http://www.w3.org/1999/xlink">
    <!-- Generator: Sketch 39.1 (31720) - http://www.bohemiancoding.com/sketch -->
    <title>4900</title>
    <desc>Created with Sketch.</desc>
    <defs></defs>
    <g id="Tic-tac-toe-Copy" stroke="none" stroke-width="1" fill="none" fill-rule="evenodd">
        <g id="4900">
            <g id="Group-2" transform="translate(5.000000, 4.000000)">
                <path d="M33.2675644,42 L30.7324356,42 C30.3866262,41.4021986 29.7402824,41 29,41 C28.2597176,41 27.6133738,41.4021986 27.2675644,42 L24.7324356,42 C24.3866262,41.4021986 23.7402824,41 23,41 C22.2597176,41 21.6133738,41.4021986 21.2675644,42 L18.7324356,42 C18.3866262,41.4021986 17.7402824,41 17,41 C16.2597176,41 15.6133738,41.4021986 15.2675644,42 L12.7324356,42 C12.3866262,41.4021986 11.7402824,41 11,41 C10.2597176,41 9.61337381,41.4021986 9.26756439,42 L6.73243561,42 C6.38662619,41.4021986 5.74028236,41 5,41 C4.25971764,41 3.61337381,41.4021986 3.26756439,42 L0,42 L0,38 L40,38 L40,42 L36.7324356,42 C36.3866262,41.4021986 35.7402824,41 35,41 C34.2597176,41 33.6133738,41.4021986 33.2675644,42 L33.2675644,42 Z" id="Combined-Shape" fill="#81C784"></path>
                <path d="M33.2675644,4 L30.7324356,4 C30.3866262,3.40219863 29.7402824,3 29,3 C28.2597176,3 27.6133738,3.40219863 27.2675644,4 L24.7324356,4 C24.3866262,3.40219863 23.7402824,3 23,3 C22.2597176,3 21.6133738,3.40219863 21.2675644,4 L18.7324356,4 C18.3866262,3.40219863 17.7402824,3 17,3 C16.2597176,3 15.6133738,3.40219863 15.2675644,4 L12.7324356,4 C12.3866262,3.40219863 11.7402824,3 11,3 C10.2597176,3 9.61337381,3.40219863 9.26756439,4 L6.73243561,4 C6.38662619,3.40219863 5.74028236,3 5,3 C4.25971764,3 3.61337381,3.40219863 3.26756439,4 L0,4 L0,0 L40,0 L40,4 L36.7324356,4 C36.3866262,3.40219863 35.7402824,3 35,3 C34.2597176,3 33.6133738,3.40219863 33.2675644,4 L33.2675644,4 Z" id="Combined-Shape-Copy" fill="#81C784" transform="translate(20.000000, 2.000000) scale(1, -1) translate(-20.000000, -2.000000) "></path>
                <polygon id="Rectangle-21" fill="#C8E6C9" points="1.13466182 33.9601453 1 8 0 4 40 4 39 8 39 34 40 38 0 38"></polygon>
            </g>
            <g id="FAQ" transform="translate(13.000000, 12.000000)">
                <path d="M6.6,21.4285714 L20.4,21.4285714 L24,25 L24,12.5 C24,11.1904762 22.92,10.1190476 21.6,10.1190476 L6.6,10.1190476 C5.28,10.1190476 4.2,11.1904762 4.2,12.5 L4.2,19.047619 C4.2,20.3571429 5.28,21.4285714 6.6,21.4285714 L6.6,21.4285714 Z" id="Shape" fill="#558B2F"></path>
                <path d="M14.88,17.1428571 L12.72,17.1428571 L12.3,18.3928571 L10.98,18.3928571 L13.2,12.4404762 L14.34,12.4404762 L16.56,18.3928571 L15.24,18.3928571 L14.88,17.1428571 L14.88,17.1428571 Z M13.02,16.1904762 L14.52,16.1904762 L13.8,13.9285714 L13.02,16.1904762 L13.02,16.1904762 Z" id="Shape" fill="#1B5E20"></path>
                <path d="M17.4,12.5 L3.6,12.5 L0,16.0714286 L0,2.38095238 C0,1.07142857 1.08,0 2.4,0 L17.4,0 C18.72,0 19.8,1.07142857 19.8,2.38095238 L19.8,10.1190476 C19.8,11.4285714 18.72,12.5 17.4,12.5 L17.4,12.5 Z" id="Shape" fill="#8BC34A"></path>
                <path d="M12.84,6.07142857 C12.84,6.66666667 12.72,7.14285714 12.54,7.55952381 C12.36,7.97619048 12.12,8.33333333 11.76,8.57142857 L12.78,9.3452381 L12,10.0595238 L10.68,9.04761905 C10.56,9.04761905 10.38,9.10714286 10.2,9.10714286 C9.84,9.10714286 9.48,9.04761905 9.12,8.92857143 C8.82,8.80952381 8.52,8.57142857 8.28,8.33333333 C8.04,8.0952381 7.86,7.73809524 7.74,7.38095238 C7.62,7.02380952 7.56,6.60714286 7.56,6.13095238 L7.56,5.89285714 C7.56,5.41666667 7.62,5 7.74,4.64285714 C7.86,4.28571429 8.04,3.92857143 8.28,3.69047619 C8.52,3.45238095 8.76,3.21428571 9.12,3.0952381 C9.42,2.97619048 9.78,2.91666667 10.2,2.91666667 C10.56,2.91666667 10.92,2.97619048 11.28,3.0952381 C11.58,3.21428571 11.88,3.45238095 12.12,3.69047619 C12.36,3.92857143 12.54,4.28571429 12.66,4.64285714 C12.78,5 12.84,5.41666667 12.84,5.89285714 L12.84,6.07142857 L12.84,6.07142857 Z M11.52,5.77380952 C11.52,5.11904762 11.4,4.64285714 11.16,4.3452381 C10.92,3.98809524 10.62,3.86904762 10.2,3.86904762 C9.78,3.86904762 9.42,4.04761905 9.24,4.3452381 C9,4.70238095 8.88,5.17857143 8.88,5.77380952 L8.88,6.07142857 C8.88,6.36904762 8.94,6.66666667 9,6.9047619 C9.06,7.14285714 9.12,7.38095238 9.24,7.5 C9.36,7.67857143 9.48,7.79761905 9.66,7.85714286 C9.84,7.91666667 10.02,7.97619048 10.2,7.97619048 C10.62,7.97619048 10.98,7.79761905 11.16,7.5 C11.4,7.14285714 11.52,6.66666667 11.52,6.01190476 L11.52,5.77380952 L11.52,5.77380952 Z" id="Shape" fill="#FFFFFF"></path>
            </g>
        </g>
    </g>
</svg>