<?xml version="1.0" encoding="UTF-8" standalone="no"?>
<svg width="50px" height="50px" viewBox="0 0 50 50" version="1.1" xmlns="http://www.w3.org/2000/svg" xmlns:xlink="http://www.w3.org/1999/xlink">
    <!-- Generator: Sketch 39.1 (31720) - http://www.bohemiancoding.com/sketch -->
    <title>500</title>
    <desc>Created with Sketch.</desc>
    <defs></defs>
    <g id="Tic-tac-toe" stroke="none" stroke-width="1" fill="none" fill-rule="evenodd">
        <g id="500">
            <g id="Dog" transform="translate(6.000000, 6.000000)">
                <g id="Group" transform="translate(7.000000, 19.000000)" fill="#B0BEC5">
                    <path d="M0,9 L0,16.005 C0,16.005 0,18 2,18 L6,18 C6,18 6,16 4,16 L4,12 L0,9 L0,9 Z" id="Shape"></path>
                    <path d="M10,6 C8,9 4,12 4,12 L0,9 C0,9 3,5 3,0 L10,6 L10,6 Z" id="Shape"></path>
                    <path d="M17,6 L17,16.005 C17,16.005 17,18 19,18 L23,18 C23,18 23,16 21,16 L21,3 L17,6 L17,6 Z" id="Shape"></path>
                </g>
                <g id="Group" transform="translate(1.000000, 1.000000)" fill="#CFD8DC">
                    <path d="M20,24 L20,34.005 C20,34.005 20,36 22,36 L26,36 C26,36 26,34 24,34 L24,24 L20,24 L20,24 Z" id="Shape"></path>
                    <path d="M20,26 C17,26 14,24 14,24 C14,24 11,22 9,25 C7,28 4,30 4,30 L0,27 C0,27 3,23 3,18 C3,13 8,12 8,12 L16,12 L19,10 L22,2 C22,2 23,0.002 25,0.002 L27,0.002 C27,0.002 29.586,0.173 31,3.002 C32,5.002 36,6.002 36,6.002 C36,6.002 36,11 30,11 C28,11 28,12 28,13 L28,19 C28,22 25,24 24,25" id="Shape"></path>
                    <path d="M0,27 L0,34.005 C0,34.005 0,36 2,36 L6,36 C6,36 6,34 4,34 L4,30 L0,27 L0,27 Z" id="Shape"></path>
                </g>
                <path d="M29,20 L29,14 C29,13 29,12 31,12 C31,12 34,7 32,4.002 C30.586,1.173 28,1.002 28,1.002 C28,1.002 28,1.002 26,1.002 C24,1.002 23,3 23,3 L20,11 L17,13 L9,13 C9,13 4,14 4,19 C4,24 1,28 1,28 C1,28 8,29 10,26 C12,23 15,25 15,25 C15,25 17.761,27 21,27 C24.239,27 29,26.105 29,20 L29,20 Z" id="Shape" fill="#CC6C25"></path>
                <path d="M24,4 L23,10 C23,10 24,13 26,14 C28,15 30,14 30,11 L30,9 L27,3 L24,4 L24,4 Z" id="Shape" fill="#894415"></path>
                <path d="M31.707,5.293 C32.098,5.684 32.098,6.316 31.707,6.707 C31.316,7.098 30,7 30,7 C30,7 29.902,5.684 30.293,5.293 C30.684,4.902 31.316,4.902 31.707,5.293 L31.707,5.293 Z" id="Shape" fill="#3E2723"></path>
                <path d="M37,7.002 C37,7.002 36.341,6.834 35.494,6.506 L35.293,6.707 C34.902,7.098 34.902,7.73 35.293,8.121 L36.397,9.225 C36.992,8.074 37,7.002 37,7.002 L37,7.002 Z" id="Shape" fill="#5D4037"></path>
                <g id="Group" fill="#6D350F">
                    <path d="M22,5.666 L20,11 L17,13 L9,13 C9,13 6.834,13.294 5.354,15.168 C6.152,16.47 9.021,21.44 11.975,24.462 C13.538,24.03 15,25 15,25 C15,25 16.205,25.802 17.85,26.39 C20.294,25.298 22,22.851 22,20 L22,5.666 L22,5.666 Z" id="Shape"></path>
                    <path d="M6.999,16 C6.863,16 6.726,15.973 6.594,15.914 C6.424,15.838 2.406,14.012 1.245,10.009 C0.483,7.384 1.13,4.502 3.168,1.445 C3.475,0.985 4.095,0.86 4.555,1.168 C5.014,1.475 5.138,2.095 4.832,2.555 C3.14,5.092 2.578,7.409 3.161,9.438 C4.053,12.544 8.966,12.985 9,13 C9.502,13.227 8.137,14.904 7.912,15.408 C7.745,15.779 7.381,16 6.999,16 L6.999,16 Z" id="Shape"></path>
                </g>
            </g>
        </g>
    </g>
</svg>