<?xml version="1.0" encoding="UTF-8" standalone="no"?>
<svg width="50px" height="50px" viewBox="0 0 50 50" version="1.1" xmlns="http://www.w3.org/2000/svg" xmlns:xlink="http://www.w3.org/1999/xlink">
    <!-- Generator: Sketch 39.1 (31720) - http://www.bohemiancoding.com/sketch -->
    <title>5000</title>
    <desc>Created with Sketch.</desc>
    <defs></defs>
    <g id="Tic-tac-toe-Copy" stroke="none" stroke-width="1" fill="none" fill-rule="evenodd">
        <g id="5000">
            <g id="Group-2" transform="translate(5.000000, 4.000000)">
                <path d="M33.2675644,42 L30.7324356,42 C30.3866262,41.4021986 29.7402824,41 29,41 C28.2597176,41 27.6133738,41.4021986 27.2675644,42 L24.7324356,42 C24.3866262,41.4021986 23.7402824,41 23,41 C22.2597176,41 21.6133738,41.4021986 21.2675644,42 L18.7324356,42 C18.3866262,41.4021986 17.7402824,41 17,41 C16.2597176,41 15.6133738,41.4021986 15.2675644,42 L12.7324356,42 C12.3866262,41.4021986 11.7402824,41 11,41 C10.2597176,41 9.61337381,41.4021986 9.26756439,42 L6.73243561,42 C6.38662619,41.4021986 5.74028236,41 5,41 C4.25971764,41 3.61337381,41.4021986 3.26756439,42 L0,42 L0,38 L40,38 L40,42 L36.7324356,42 C36.3866262,41.4021986 35.7402824,41 35,41 C34.2597176,41 33.6133738,41.4021986 33.2675644,42 L33.2675644,42 Z" id="Combined-Shape" fill="#A1887F"></path>
                <path d="M33.2675644,4 L30.7324356,4 C30.3866262,3.40219863 29.7402824,3 29,3 C28.2597176,3 27.6133738,3.40219863 27.2675644,4 L24.7324356,4 C24.3866262,3.40219863 23.7402824,3 23,3 C22.2597176,3 21.6133738,3.40219863 21.2675644,4 L18.7324356,4 C18.3866262,3.40219863 17.7402824,3 17,3 C16.2597176,3 15.6133738,3.40219863 15.2675644,4 L12.7324356,4 C12.3866262,3.40219863 11.7402824,3 11,3 C10.2597176,3 9.61337381,3.40219863 9.26756439,4 L6.73243561,4 C6.38662619,3.40219863 5.74028236,3 5,3 C4.25971764,3 3.61337381,3.40219863 3.26756439,4 L0,4 L0,0 L40,0 L40,4 L36.7324356,4 C36.3866262,3.40219863 35.7402824,3 35,3 C34.2597176,3 33.6133738,3.40219863 33.2675644,4 L33.2675644,4 Z" id="Combined-Shape-Copy" fill="#A1887F" transform="translate(20.000000, 2.000000) scale(1, -1) translate(-20.000000, -2.000000) "></path>
                <polygon id="Rectangle-21" fill="#D7CCC8" points="1.13466182 33.9601453 1 8 0 4 40 4 39 8 39 34 40 38 0 38"></polygon>
            </g>
            <g id="World-Map" transform="translate(14.000000, 14.000000)">
                <polygon id="Shape" fill="#FFECB3" points="14.6666667 2.44444444 7.33333333 0 0 2.44444444 0 22 7.33333333 19.5555556 14.6666667 22 22 19.5555556 22 0"></polygon>
                <polygon id="Shape" fill="#FFE082" points="7.33333333 0 7.33333333 19.5555556 14.6666667 22 14.6666667 2.44444444"></polygon>
                <path d="M6.99294444,4.97811111 C7.0785,5.02822222 7.13105556,5.13088889 7.13288889,5.30627778 C7.14083333,5.90577778 6.99661111,6.4845 6.96666667,7.07483333 C6.95383333,7.32722222 7.06016667,7.50994444 7.16588889,7.73788889 C7.32538889,8.0795 7.11577778,8.30255556 7.15183333,8.64477778 C7.16161111,8.73094444 7.23738889,8.76516667 7.23861111,8.85805556 C7.249,9.36711111 6.512,10.4628333 5.852,10.3271667 C5.45722222,10.2458889 5.83305556,9.59016667 5.64055556,9.306 C5.56722222,9.20088889 5.04961111,9.04077778 4.89316667,9.04444444 C4.37433333,9.05911111 4.71533333,9.62316667 4.81677778,9.83827778 C5.02272222,10.274 5.09605556,10.7372222 5.3845,11.165 C5.22988889,11.0281111 5.05022222,10.9150556 4.83511111,10.8276667 C4.54177778,10.7072778 4.2845,10.8343889 4.03027778,10.7182778 C3.65383333,10.5483889 3.62511111,10.1365 3.42955556,9.83827778 C3.24377778,9.55533333 2.72922222,9.54738889 2.48538889,9.23205556 C2.24644444,8.92283333 2.30511111,8.54088889 2.41755556,8.20294444 C2.55077778,7.80327778 2.73166667,7.51483333 3.01277778,7.16894444 C3.20894444,6.92938889 3.48455556,6.57494444 3.12766667,6.35188889 C2.79644444,6.14288889 2.45116667,6.25166667 2.15477778,6.413 C1.84066667,6.5835 1.68911111,6.59083333 1.6005,6.21866667 C1.51127778,5.84894444 2.01116667,5.58616667 2.26294444,5.36311111 C3.18022222,4.55522222 4.54666667,4.95366667 5.313,5.71327778 C5.35822222,5.75788889 6.57433333,4.73305556 6.99294444,4.97811111 L6.99294444,4.97811111 Z M3.80722222,13.4004444 C3.88177778,13.8208889 4.36761111,13.5636111 4.49961111,13.8881111 C4.60411111,14.146 4.31322222,14.4925 4.30161111,14.7351111 C4.9995,14.8927778 5.39794444,15.4641667 5.39488889,16.1663333 C5.38938889,17.1752778 5.72672222,18.2202778 6.52483333,18.8075556 C6.578,18.6040556 6.63911111,18.3889444 6.666,18.1695556 C6.76927778,17.3127778 6.59755556,16.5580556 7.25205556,15.8571111 C7.53438889,15.5552222 7.47816667,15.4360556 7.45616667,15.0559444 C7.44455556,14.8628333 7.48366667,14.4014444 7.64072222,14.2969444 C7.8375,14.3904444 8.23533333,14.4423889 8.41072222,14.2883889 C8.52622222,14.1845 8.66066667,13.5996667 8.6845,13.442 C8.7615,12.9482222 8.58672222,12.5540556 8.29888889,12.1782222 C8.06238889,11.869 7.69511111,11.6062222 7.31255556,11.528 C6.93488889,11.4497778 6.52605556,11.5011111 6.17038889,11.3293889 C6.00355556,11.2475 5.86116667,11.1356667 5.68944444,11.0586667 C5.48472222,10.9676111 5.082,10.8991667 4.928,10.7384444 C5.15472222,10.9749444 5.31788889,11.3232778 5.31116667,11.6551111 C5.30444444,12.001 5.10033333,12.0456111 4.83633333,12.2075556 C4.46416667,12.4348889 3.7125,12.8632778 3.80722222,13.4004444 L3.80722222,13.4004444 Z M8.96133333,3.92822222 C8.02877778,3.69966667 7.35227778,4.47577778 7.62972222,5.37777778 C8.08438889,6.85727778 9.02977778,4.53138889 8.96133333,3.92822222 L8.96133333,3.92822222 Z M8.60138889,7.86072222 C8.62216667,8.25488889 8.74683333,8.63744444 9.12083333,8.72361111 C9.36283333,8.77861111 9.636,8.67472222 9.78327778,8.415 C9.99105556,8.04772222 9.4215,7.073 10.0631667,7.12005556 C10.5239444,7.15427778 10.5428889,7.86744444 10.6858889,8.17605556 C10.7243889,8.195 10.7635,8.195 10.8026111,8.17605556 C10.9083333,7.87661111 10.8490556,7.53255556 10.8765556,7.22761111 C11.4186111,7.08033333 11.7162222,7.88088889 11.8415,8.27811111 C11.9453889,8.60872222 12.1574444,8.71933333 11.6117222,8.84766667 C11.3177778,8.91733333 11.1045,8.85072222 10.9065,8.61361111 C10.5771111,8.83666667 10.3992778,9.08355556 10.0405556,9.26811111 C9.03161111,9.78877778 8.76333333,11.3159444 9.29805556,12.3517778 C9.66472222,13.0625 10.5123333,12.4153333 10.9529444,12.199 C10.9333889,12.5980556 11.2866111,12.9983333 11.4094444,13.3717222 C11.7651111,14.4497222 11.5090556,15.4776111 11.5017222,16.5843333 C11.5005,16.8073889 11.5555,17.6568333 11.8396667,17.7081667 C12.166,17.7668333 12.4483333,16.7615556 12.5198333,16.5275 C12.8168333,15.5613333 12.8211111,14.564 13.3576667,13.6687222 C13.5648333,13.3216111 13.9406667,13.0313333 13.7683333,12.5931667 C13.5947778,12.1531667 12.7178333,12.0676111 12.8131667,11.495 C12.7868889,11.6575556 13.6852222,12.4880556 13.8881111,12.5094444 C14.8359444,12.6090556 13.9418889,11.3471111 14.2266667,11.0281111 C14.6856111,10.5172222 15.0211111,11.7822222 15.0461667,12.0223889 C15.1182778,12.6762778 14.9813889,13.3265 14.971,13.9797778 C14.9673333,14.2529444 14.8921667,15.3786111 15.4048889,15.2166667 C15.8039444,15.0901667 15.6083889,14.2181111 15.6621667,13.9125556 C15.7116667,13.6296111 16.0105,12.5552778 16.2537222,12.4263333 C16.786,12.1458333 17.072,13.3454444 17.7258889,13.3203889 C17.8817222,12.7655 17.7423889,12.4990556 18.1677222,12.0957222 C18.4806111,11.7987222 18.9591111,11.6068333 19.1442778,11.1625556 C19.2885,10.8197222 19.3361667,10.1224444 19.2359444,9.76616667 C19.0465,9.08844444 18.4017778,9.35977778 17.798,9.20333333 C17.7711111,8.85561111 18.1328889,8.68816667 18.1469444,8.32638889 C18.1548889,8.14611111 17.8688889,8.14488889 17.8988333,7.91694444 C17.9177778,7.77455556 18.1310556,7.546 18.2227222,7.42744444 C18.5417222,7.007 18.9927222,6.74972222 19.4565556,7.20255556 C19.5188889,6.90005556 19.4528889,6.54683333 19.096,6.54988889 C19.0709444,6.17588889 18.821,5.302 18.4225556,5.10644444 C18.0491667,4.92005556 18.0320556,5.18588889 17.7283333,5.47861111 C17.3934444,5.80311111 16.9766667,6.01272222 16.6937222,6.32866667 C16.4315556,6.622 15.8937778,7.3315 15.5265,7.051 C15.3297222,6.89944444 15.3743333,6.35983333 15.2276667,6.138 C15.0327222,5.84161111 14.9068333,5.78844444 14.5438333,5.73405556 C14.5829444,5.66805556 14.5915,5.50366667 14.6391667,5.42788889 C14.5279444,5.46638889 14.3311667,5.42911111 14.2205556,5.467 C14.2034444,5.005 14.9105,4.98727778 15.0724444,4.67072222 C14.7638333,4.64566667 14.4784444,4.63588889 14.2095556,4.81127778 C13.9926111,4.95305556 13.9418889,5.28183333 13.7377778,5.37961111 C13.2189444,5.63383333 11.9759444,4.77338889 11.4057778,4.64872222 C10.5813889,4.46783333 10.1426111,4.81494444 9.81444444,5.57577778 C9.5975,5.53422222 9.339,5.46272222 9.1685,5.63811111 C9.29744444,5.80861111 9.48994444,5.88988889 9.70688889,5.91983333 C9.724,5.99805556 9.72583333,6.09155556 9.70688889,6.17038889 C9.526,6.2095 9.06522222,6.50772222 8.954,6.61222222 C8.71444444,6.83772222 8.679,6.92755556 8.63133333,7.26366667 C8.6075,7.43722222 8.58977778,7.64988889 8.60138889,7.86072222 L8.60138889,7.86072222 Z M17.0273889,15.4947222 C16.8110556,15.9243333 16.3631111,17.5511111 16.9186111,17.6611111 C17.5908333,17.7925 17.8676667,16.6998333 18.5331667,16.8599444 C18.5924444,17.1783333 18.8356667,17.2608333 19.0196111,16.9998889 C19.1345,16.8379444 19.0061667,16.3215556 18.9792778,16.1461667 C18.8845556,15.5075556 18.7598889,15.1207222 18.9120556,14.4717222 C18.7849444,14.5811111 18.4396667,15.1225556 18.3156111,15.1592222 C17.7949444,15.3144444 18.0888889,14.6898889 18.2251667,14.4863889 C17.2944444,14.806 16.5751667,15.9646667 16.6497222,16.9577222 L17.0273889,15.4947222 Z" id="Shape" fill="#BC7937"></path>
            </g>
        </g>
    </g>
</svg>