<?xml version="1.0" encoding="UTF-8" standalone="no"?>
<svg width="50px" height="50px" viewBox="0 0 50 50" version="1.1" xmlns="http://www.w3.org/2000/svg" xmlns:xlink="http://www.w3.org/1999/xlink">
    <!-- Generator: Sketch 39.1 (31720) - http://www.bohemiancoding.com/sketch -->
    <title>5100</title>
    <desc>Created with Sketch.</desc>
    <defs></defs>
    <g id="Tic-tac-toe-Copy" stroke="none" stroke-width="1" fill="none" fill-rule="evenodd">
        <g id="5100">
            <g id="Group-2" transform="translate(5.000000, 4.000000)">
                <path d="M33.2675644,42 L30.7324356,42 C30.3866262,41.4021986 29.7402824,41 29,41 C28.2597176,41 27.6133738,41.4021986 27.2675644,42 L24.7324356,42 C24.3866262,41.4021986 23.7402824,41 23,41 C22.2597176,41 21.6133738,41.4021986 21.2675644,42 L18.7324356,42 C18.3866262,41.4021986 17.7402824,41 17,41 C16.2597176,41 15.6133738,41.4021986 15.2675644,42 L12.7324356,42 C12.3866262,41.4021986 11.7402824,41 11,41 C10.2597176,41 9.61337381,41.4021986 9.26756439,42 L6.73243561,42 C6.38662619,41.4021986 5.74028236,41 5,41 C4.25971764,41 3.61337381,41.4021986 3.26756439,42 L0,42 L0,38 L40,38 L40,42 L36.7324356,42 C36.3866262,41.4021986 35.7402824,41 35,41 C34.2597176,41 33.6133738,41.4021986 33.2675644,42 L33.2675644,42 Z" id="Combined-Shape" fill="#90A4AE"></path>
                <path d="M33.2675644,4 L30.7324356,4 C30.3866262,3.40219863 29.7402824,3 29,3 C28.2597176,3 27.6133738,3.40219863 27.2675644,4 L24.7324356,4 C24.3866262,3.40219863 23.7402824,3 23,3 C22.2597176,3 21.6133738,3.40219863 21.2675644,4 L18.7324356,4 C18.3866262,3.40219863 17.7402824,3 17,3 C16.2597176,3 15.6133738,3.40219863 15.2675644,4 L12.7324356,4 C12.3866262,3.40219863 11.7402824,3 11,3 C10.2597176,3 9.61337381,3.40219863 9.26756439,4 L6.73243561,4 C6.38662619,3.40219863 5.74028236,3 5,3 C4.25971764,3 3.61337381,3.40219863 3.26756439,4 L0,4 L0,0 L40,0 L40,4 L36.7324356,4 C36.3866262,3.40219863 35.7402824,3 35,3 C34.2597176,3 33.6133738,3.40219863 33.2675644,4 L33.2675644,4 Z" id="Combined-Shape-Copy" fill="#90A4AE" transform="translate(20.000000, 2.000000) scale(1, -1) translate(-20.000000, -2.000000) "></path>
                <polygon id="Rectangle-21" fill="#CFD8DC" points="1.13466182 33.9601453 1 8 0 4 40 4 39 8 39 34 40 38 0 38"></polygon>
            </g>
            <g id="Anubis" transform="translate(14.000000, 13.000000)">
                <path d="M21.4017949,15.7390769 C21.1717949,15.2832051 19.504,9.65941026 14.9818462,7.77871795 C14.9842051,7.69792308 14.9859744,7.60828205 14.9859744,7.49976923 C14.9859744,5.17382051 13.5511282,0 13.5511282,0 L12.371641,7.07692308 L10.6024103,7.07692308 C10.6024103,7.07692308 8.76005128,7.17187179 8.24697436,7.25561538 C7.84476923,7.31930769 6.06020513,7.62597436 6.06020513,9.43589744 L0.576769231,9.43589744 C0.576769231,9.43589744 0.500692308,10.9645128 1.50266667,11.4156667 C2.4745641,11.8556154 6.22710256,12.5751026 7.48266667,13.0687179 C8.73705128,13.5641026 8.98297436,14.165641 9.06141026,14.7601026 C9.25425641,16.2226667 9.361,17.8244103 9.67474359,19.0752564 C9.87466667,19.8725897 10.1583333,20.5272051 10.6024103,20.9134872 C11.3319231,21.5474615 11.5106154,21.0461795 12.1139231,21.0461795 C12.6358462,21.0461795 19.7404872,17.7949231 21.5344872,16.6449231 C21.8146154,16.4662308 21.5427436,16.0162564 21.4017949,15.7390769 L21.4017949,15.7390769 Z" id="Shape" fill="#546E7A"></path>
                <path d="M8.51353846,9.706 C7.45730769,9.706 7.08812821,8.58784615 7.08812821,8.58784615 L10.5965128,7.86776923 C10.5965128,7.86835897 10.7681282,9.706 8.51353846,9.706 L8.51353846,9.706 Z" id="Shape" fill="#263238"></path>
                <path d="M8.4274359,9.71307692 C7.71679487,9.71307692 7.37179487,9.08205128 7.37179487,9.08205128 L9.79917949,8.57546154 C9.79858974,8.57487179 9.46951282,9.71307692 8.4274359,9.71307692 L8.4274359,9.71307692 Z" id="Shape" fill="#00E5FF"></path>
                <path d="M15.0254872,7.74038462 C15.0254872,7.74038462 13.8825641,9.28846154 12.9613846,10.6153846 C12.9613846,12.4217692 12.5927949,18.2083333 8.83317949,18.2820513 C8.83317949,18.2820513 8.88861538,22.4656923 8.83317949,22.4102564 C19.6697179,22.4102564 22.3972821,20.0512821 22.3972821,20.0512821 C22.3972821,20.0512821 23.0607436,10.1730769 15.0254872,7.74038462 L15.0254872,7.74038462 Z" id="Shape" fill="#263238"></path>
                <g id="Group" transform="translate(8.256410, 7.666667)">
                    <path d="M7.20430769,1.47553846 C12.5196667,3.61748718 12.972,9.76438462 12.9778974,11.7152564 C11.9535128,12.2377692 8.85676923,13.4302308 1.78515385,13.5534872 C1.78574359,13.064 1.77925641,12.4353333 1.76923077,11.6214872 C4.6784359,10.7752051 5.80897436,6.98492308 5.88092308,3.32497436 C6.34623077,2.66092308 6.84397436,1.97033333 7.20430769,1.47553846 L7.20430769,1.47553846 Z M6.76907692,0.0737179487 C6.76907692,0.0737179487 5.62615385,1.62179487 4.70497436,2.94871795 C4.70497436,4.75510256 4.33638462,10.5416667 0.576769231,10.6153846 C0.576769231,10.6153846 0.630435897,14.6893333 0.578538462,14.7435897 C11.4138974,14.743 14.1408718,12.3846154 14.1408718,12.3846154 C14.1408718,12.3846154 14.8043333,2.50641026 6.76907692,0.0737179487 L6.76907692,0.0737179487 L6.76907692,0.0737179487 Z M0.578538462,14.7435897 L0.576769231,14.7435897 C0.576769231,14.7441795 0.577358974,14.7441795 0.577948718,14.7441795 C0.577948718,14.7441795 0.577948718,14.7441795 0.578538462,14.7435897 L0.578538462,14.7435897 L0.578538462,14.7435897 Z" id="Shape" fill="#FFC107"></path>
                    <ellipse id="Oval" fill="#FFC107" cx="5.88446154" cy="1.76923077" rx="1.76923077" ry="1.76923077"></ellipse>
                    <path d="M1.20307692,11.2051282 C1.20307692,11.2051282 9.90179487,11.2788462 12.9979487,8.625" id="Shape" stroke="#FFC107" stroke-width="1.2"></path>
                    <path d="M4.18894872,8.25641026 C4.18894872,8.25641026 8.68574359,8.2935641 12.2242051,6.19230769" id="Shape" stroke="#FFC107" stroke-width="1.2"></path>
                    <path d="M5.29471795,5.27112821 C5.29471795,5.27112821 8.84615385,5.27112821 10.6153846,2.94871795" id="Shape" stroke="#FFC107" stroke-width="1.2"></path>
                </g>
                <g id="Group" transform="translate(0.000000, 0.589744)" fill="#37474F">
                    <polygon id="Shape" points="12.629359 5.04997436 12.5049231 4.7704359 10.6024103 0 10.6024103 6.48717949 12.371641 6.48717949"></polygon>
                    <path d="M1.75625641,8.84615385 L0.576769231,8.84615385 C0.576769231,8.84615385 0.500692308,10.3747692 1.50266667,10.8259231 C1.57225641,10.8577692 1.66012821,10.8902051 1.75625641,10.925 L1.75625641,8.84615385 L1.75625641,8.84615385 Z" id="Shape"></path>
                </g>
                <circle id="Oval" fill="#CE9005" cx="14.1408718" cy="9.43589744" r="0.58974359"></circle>
            </g>
        </g>
    </g>
</svg>