<?xml version="1.0" encoding="UTF-8" standalone="no"?>
<svg width="50px" height="50px" viewBox="0 0 50 50" version="1.1" xmlns="http://www.w3.org/2000/svg" xmlns:xlink="http://www.w3.org/1999/xlink">
    <!-- Generator: Sketch 39.1 (31720) - http://www.bohemiancoding.com/sketch -->
    <title>5200</title>
    <desc>Created with Sketch.</desc>
    <defs></defs>
    <g id="Tic-tac-toe-Copy" stroke="none" stroke-width="1" fill="none" fill-rule="evenodd">
        <g id="5200">
            <g id="Group-2" transform="translate(5.000000, 4.000000)">
                <path d="M33.2675644,42 L30.7324356,42 C30.3866262,41.4021986 29.7402824,41 29,41 C28.2597176,41 27.6133738,41.4021986 27.2675644,42 L24.7324356,42 C24.3866262,41.4021986 23.7402824,41 23,41 C22.2597176,41 21.6133738,41.4021986 21.2675644,42 L18.7324356,42 C18.3866262,41.4021986 17.7402824,41 17,41 C16.2597176,41 15.6133738,41.4021986 15.2675644,42 L12.7324356,42 C12.3866262,41.4021986 11.7402824,41 11,41 C10.2597176,41 9.61337381,41.4021986 9.26756439,42 L6.73243561,42 C6.38662619,41.4021986 5.74028236,41 5,41 C4.25971764,41 3.61337381,41.4021986 3.26756439,42 L0,42 L0,38 L40,38 L40,42 L36.7324356,42 C36.3866262,41.4021986 35.7402824,41 35,41 C34.2597176,41 33.6133738,41.4021986 33.2675644,42 L33.2675644,42 Z" id="Combined-Shape" fill="#4FC3F7"></path>
                <path d="M33.2675644,4 L30.7324356,4 C30.3866262,3.40219863 29.7402824,3 29,3 C28.2597176,3 27.6133738,3.40219863 27.2675644,4 L24.7324356,4 C24.3866262,3.40219863 23.7402824,3 23,3 C22.2597176,3 21.6133738,3.40219863 21.2675644,4 L18.7324356,4 C18.3866262,3.40219863 17.7402824,3 17,3 C16.2597176,3 15.6133738,3.40219863 15.2675644,4 L12.7324356,4 C12.3866262,3.40219863 11.7402824,3 11,3 C10.2597176,3 9.61337381,3.40219863 9.26756439,4 L6.73243561,4 C6.38662619,3.40219863 5.74028236,3 5,3 C4.25971764,3 3.61337381,3.40219863 3.26756439,4 L0,4 L0,0 L40,0 L40,4 L36.7324356,4 C36.3866262,3.40219863 35.7402824,3 35,3 C34.2597176,3 33.6133738,3.40219863 33.2675644,4 L33.2675644,4 Z" id="Combined-Shape-Copy" fill="#4FC3F7" transform="translate(20.000000, 2.000000) scale(1, -1) translate(-20.000000, -2.000000) "></path>
                <polygon id="Rectangle-21" fill="#B3E5FC" points="1.13466182 33.9601453 1 8 0 4 40 4 39 8 39 34 40 38 0 38"></polygon>
            </g>
            <g id="Paint-Palette" transform="translate(14.000000, 13.000000)">
                <path d="M11.3905,0 C6.13494444,0 0.127722222,2.9724 0.127722222,11.3682 C0.127722222,17.4648 4.79233333,24 11.9282778,24 L12.0352222,24 C14.7149444,23.9526 17.5993889,22.2492 17.5993889,18.6246 C17.5993889,17.9304 17.336,17.3292 17.105,16.7994 C17.0426667,16.6596 16.9833889,16.5222 16.929,16.383 C16.401,15.078 16.9833889,14.6004 18.3522778,13.644 C19.9026667,12.5604 22.0268889,11.0772 21.9993889,7.1526 C21.9993889,4.8192 19.4064444,0 11.3905,0 L11.3905,0 Z M11.7327222,21.12 C10.3632222,21.12 9.28766667,20.064 9.28766667,18.7206 C9.28766667,17.376 10.3632222,16.32 11.7327222,16.32 C13.1003889,16.32 14.1759444,17.376 14.1759444,18.7206 C14.1759444,20.064 13.101,21.12 11.7327222,21.12 L11.7327222,21.12 Z" id="Shape" fill="#FFC107"></path>
                <ellipse id="Oval" fill="#9C27B0" cx="17.4166667" cy="7.5" rx="2.13888889" ry="2.1"></ellipse>
                <ellipse id="Oval" fill="#2196F3" cx="11.9166667" cy="3.9" rx="2.13888889" ry="2.1"></ellipse>
                <ellipse id="Oval" fill="#4CAF50" cx="5.80555556" cy="6.9" rx="2.13888889" ry="2.1"></ellipse>
                <ellipse id="Oval" fill="#FF3D00" cx="5.19444444" cy="13.5" rx="2.13888889" ry="2.1"></ellipse>
            </g>
        </g>
    </g>
</svg>