<?xml version="1.0" encoding="UTF-8" standalone="no"?>
<svg width="50px" height="50px" viewBox="0 0 50 50" version="1.1" xmlns="http://www.w3.org/2000/svg" xmlns:xlink="http://www.w3.org/1999/xlink">
    <!-- Generator: Sketch 39.1 (31720) - http://www.bohemiancoding.com/sketch -->
    <title>5300</title>
    <desc>Created with Sketch.</desc>
    <defs></defs>
    <g id="Tic-tac-toe-Copy" stroke="none" stroke-width="1" fill="none" fill-rule="evenodd">
        <g id="5300">
            <g id="Group-2" transform="translate(5.000000, 4.000000)">
                <path d="M33.2675644,42 L30.7324356,42 C30.3866262,41.4021986 29.7402824,41 29,41 C28.2597176,41 27.6133738,41.4021986 27.2675644,42 L24.7324356,42 C24.3866262,41.4021986 23.7402824,41 23,41 C22.2597176,41 21.6133738,41.4021986 21.2675644,42 L18.7324356,42 C18.3866262,41.4021986 17.7402824,41 17,41 C16.2597176,41 15.6133738,41.4021986 15.2675644,42 L12.7324356,42 C12.3866262,41.4021986 11.7402824,41 11,41 C10.2597176,41 9.61337381,41.4021986 9.26756439,42 L6.73243561,42 C6.38662619,41.4021986 5.74028236,41 5,41 C4.25971764,41 3.61337381,41.4021986 3.26756439,42 L0,42 L0,38 L40,38 L40,42 L36.7324356,42 C36.3866262,41.4021986 35.7402824,41 35,41 C34.2597176,41 33.6133738,41.4021986 33.2675644,42 L33.2675644,42 Z" id="Combined-Shape" fill="#A1887F"></path>
                <path d="M33.2675644,4 L30.7324356,4 C30.3866262,3.40219863 29.7402824,3 29,3 C28.2597176,3 27.6133738,3.40219863 27.2675644,4 L24.7324356,4 C24.3866262,3.40219863 23.7402824,3 23,3 C22.2597176,3 21.6133738,3.40219863 21.2675644,4 L18.7324356,4 C18.3866262,3.40219863 17.7402824,3 17,3 C16.2597176,3 15.6133738,3.40219863 15.2675644,4 L12.7324356,4 C12.3866262,3.40219863 11.7402824,3 11,3 C10.2597176,3 9.61337381,3.40219863 9.26756439,4 L6.73243561,4 C6.38662619,3.40219863 5.74028236,3 5,3 C4.25971764,3 3.61337381,3.40219863 3.26756439,4 L0,4 L0,0 L40,0 L40,4 L36.7324356,4 C36.3866262,3.40219863 35.7402824,3 35,3 C34.2597176,3 33.6133738,3.40219863 33.2675644,4 L33.2675644,4 Z" id="Combined-Shape-Copy" fill="#A1887F" transform="translate(20.000000, 2.000000) scale(1, -1) translate(-20.000000, -2.000000) "></path>
                <polygon id="Rectangle-21" fill="#D7CCC8" points="1.13466182 33.9601453 1 8 0 4 40 4 39 8 39 34 40 38 0 38"></polygon>
            </g>
            <g id="Da-Vinci" transform="translate(12.000000, 12.000000)">
                <path d="M24.4047619,12.5 C24.4047619,10.1785714 23.75,8.0952381 22.6190476,6.25 L22.6190476,4.16666667 L21.0119048,4.16666667 C18.8095238,1.96428571 15.8333333,0.595238095 12.5,0.595238095 C9.16666667,0.595238095 6.19047619,1.96428571 3.98809524,4.16666667 L2.38095238,4.16666667 L2.38095238,6.25 C1.25,8.0952381 0.595238095,10.1785714 0.595238095,12.5 C0.595238095,14.8214286 1.25,16.9047619 2.38095238,18.75 L2.38095238,24.4047619 L22.6190476,24.4047619 L22.6190476,18.75 C23.75,16.9047619 24.4047619,14.8214286 24.4047619,12.5 L24.4047619,12.5 Z" id="Shape" fill="#EFEBE9"></path>
                <path d="M14.5238095,11.9047619 L10.4166667,11.9047619 L4.22619048,7.91666667 C3.80952381,7.61904762 3.69047619,7.08333333 3.98809524,6.66666667 C4.28571429,6.25 4.82142857,6.13095238 5.23809524,6.42857143 L10.952381,10.1785714 L13.9880952,10.1785714 L19.702381,6.42857143 C20.1190476,6.13095238 20.6547619,6.25 20.952381,6.66666667 C21.25,7.08333333 21.1309524,7.61904762 20.7142857,7.91666667 L14.5238095,11.9047619 L14.5238095,11.9047619 Z M14.8809524,22.6190476 L14.8809524,14.8809524 L10.1190476,14.8809524 L10.1190476,22.6190476 C10.1190476,23.2738095 10.6547619,23.8095238 11.3095238,23.8095238 C11.9642857,23.8095238 12.5,23.2738095 12.5,22.6190476 C12.5,23.2738095 13.0357143,23.8095238 13.6904762,23.8095238 C14.3452381,23.8095238 14.8809524,23.2738095 14.8809524,22.6190476 L14.8809524,22.6190476 Z" id="Shape" fill="#6D4C41"></path>
                <polygon id="Shape" fill="#4E342E" points="11.9047619 17.2619048 12.5 22.6190476 13.0952381 17.2619048"></polygon>
                <path d="M23.2142857,25 L1.78571429,25 L1.78571429,3.57142857 L23.2142857,3.57142857 L23.2142857,25 L23.2142857,25 Z M2.97619048,23.8095238 L22.0238095,23.8095238 L22.0238095,4.76190476 L2.97619048,4.76190476 L2.97619048,23.8095238 L2.97619048,23.8095238 Z M12.5,9.52380952 C13.8095238,9.52380952 14.8809524,8.45238095 14.8809524,7.14285714 C14.8809524,5.83333333 13.8095238,4.76190476 12.5,4.76190476 C11.1904762,4.76190476 10.1190476,5.83333333 10.1190476,7.14285714 C10.1190476,8.45238095 11.1904762,9.52380952 12.5,9.52380952 L12.5,9.52380952 Z M20.5357143,10.1190476 L4.46428571,10.1190476 C3.98809524,10.1190476 3.57142857,10.5357143 3.57142857,11.0119048 C3.57142857,11.4880952 3.98809524,11.9047619 4.46428571,11.9047619 L10.1190476,11.9047619 L10.1190476,15.7142857 L6.72619048,20.7738095 C6.36904762,21.3095238 6.48809524,22.0833333 7.08333333,22.4404762 C7.61904762,22.797619 8.39285714,22.6785714 8.75,22.0833333 L11.9642857,17.2619048 L13.0952381,17.2619048 L16.3095238,22.0833333 C16.547619,22.4404762 16.9047619,22.6190476 17.3214286,22.6190476 C17.5595238,22.6190476 17.797619,22.5595238 17.9761905,22.4404762 C18.5119048,22.0833333 18.6904762,21.3095238 18.3333333,20.7738095 L14.8809524,15.7142857 L14.8809524,11.9047619 L20.5357143,11.9047619 C21.0119048,11.9047619 21.4285714,11.4880952 21.4285714,11.0119048 C21.4285714,10.5357143 21.0119048,10.1190476 20.5357143,10.1190476 L20.5357143,10.1190476 Z" id="Shape" fill="#8D6E63"></path>
                <path d="M12.5,25 C5.5952381,25 0,19.4047619 0,12.5 C0,5.5952381 5.5952381,0 12.5,0 C19.4047619,0 25,5.5952381 25,12.5 C25,19.4047619 19.4047619,25 12.5,25 L12.5,25 Z M12.5,1.19047619 C6.25,1.19047619 1.19047619,6.25 1.19047619,12.5 C1.19047619,18.75 6.25,23.8095238 12.5,23.8095238 C18.75,23.8095238 23.8095238,18.75 23.8095238,12.5 C23.8095238,6.25 18.75,1.19047619 12.5,1.19047619 L12.5,1.19047619 Z" id="Shape" fill="#A1887F"></path>
            </g>
        </g>
    </g>
</svg>