<?xml version="1.0" encoding="UTF-8" standalone="no"?>
<svg width="50px" height="50px" viewBox="0 0 50 50" version="1.1" xmlns="http://www.w3.org/2000/svg" xmlns:xlink="http://www.w3.org/1999/xlink">
    <!-- Generator: Sketch 39.1 (31720) - http://www.bohemiancoding.com/sketch -->
    <title>5400</title>
    <desc>Created with Sketch.</desc>
    <defs></defs>
    <g id="Tic-tac-toe-Copy" stroke="none" stroke-width="1" fill="none" fill-rule="evenodd">
        <g id="5400">
            <g id="Group-2" transform="translate(5.000000, 4.000000)">
                <path d="M33.2675644,42 L30.7324356,42 C30.3866262,41.4021986 29.7402824,41 29,41 C28.2597176,41 27.6133738,41.4021986 27.2675644,42 L24.7324356,42 C24.3866262,41.4021986 23.7402824,41 23,41 C22.2597176,41 21.6133738,41.4021986 21.2675644,42 L18.7324356,42 C18.3866262,41.4021986 17.7402824,41 17,41 C16.2597176,41 15.6133738,41.4021986 15.2675644,42 L12.7324356,42 C12.3866262,41.4021986 11.7402824,41 11,41 C10.2597176,41 9.61337381,41.4021986 9.26756439,42 L6.73243561,42 C6.38662619,41.4021986 5.74028236,41 5,41 C4.25971764,41 3.61337381,41.4021986 3.26756439,42 L0,42 L0,38 L40,38 L40,42 L36.7324356,42 C36.3866262,41.4021986 35.7402824,41 35,41 C34.2597176,41 33.6133738,41.4021986 33.2675644,42 L33.2675644,42 Z" id="Combined-Shape" fill="#E57373"></path>
                <path d="M33.2675644,4 L30.7324356,4 C30.3866262,3.40219863 29.7402824,3 29,3 C28.2597176,3 27.6133738,3.40219863 27.2675644,4 L24.7324356,4 C24.3866262,3.40219863 23.7402824,3 23,3 C22.2597176,3 21.6133738,3.40219863 21.2675644,4 L18.7324356,4 C18.3866262,3.40219863 17.7402824,3 17,3 C16.2597176,3 15.6133738,3.40219863 15.2675644,4 L12.7324356,4 C12.3866262,3.40219863 11.7402824,3 11,3 C10.2597176,3 9.61337381,3.40219863 9.26756439,4 L6.73243561,4 C6.38662619,3.40219863 5.74028236,3 5,3 C4.25971764,3 3.61337381,3.40219863 3.26756439,4 L0,4 L0,0 L40,0 L40,4 L36.7324356,4 C36.3866262,3.40219863 35.7402824,3 35,3 C34.2597176,3 33.6133738,3.40219863 33.2675644,4 L33.2675644,4 Z" id="Combined-Shape-Copy" fill="#E57373" transform="translate(20.000000, 2.000000) scale(1, -1) translate(-20.000000, -2.000000) "></path>
                <polygon id="Rectangle-21" fill="#FFCDD2" points="1.13466182 33.9601453 1 8 0 4 40 4 39 8 39 34 40 38 0 38"></polygon>
            </g>
            <g id="Literature" transform="translate(12.000000, 15.000000)">
                <g id="Group" transform="translate(0.000000, 1.764706)" fill="#D32F2F">
                    <rect id="Rectangle-path" x="0" y="0" width="25" height="17.0588235"></rect>
                    <ellipse id="Oval" cx="12.5" cy="15.2941176" rx="2.97619048" ry="2.94117647"></ellipse>
                </g>
                <ellipse id="Oval" fill="#4C0808" cx="12.5" cy="17.0588235" rx="1.78571429" ry="1.76470588"></ellipse>
                <polygon id="Shape" fill="#D7CCC8" points="22.0238095 0 13.0952381 1.76470588 11.9047619 1.76470588 2.97619048 0 1.78571429 2.94117647 1.78571429 17.0588235 23.2142857 17.0588235 23.2142857 2.94117647"></polygon>
                <polygon id="Shape" fill="#BCAAA4" points="2.97619048 15.2947059 11.9047619 15.2947059 11.9047619 17.0588235 13.0952381 17.0588235 13.0952381 15.2947059 22.0238095 15.2941176 23.2142857 17.0588235 1.78571429 17.0588235"></polygon>
                <g id="Group" transform="translate(2.976190, 0.000000)" fill="#EFEBE9">
                    <path d="M19.047619,0 C19.047619,0 10.1190476,0 10.1190476,1.76470588 L10.1190476,17.0588235 C10.1190476,15.2941176 19.047619,15.2941176 19.047619,15.2941176 L19.047619,0 L19.047619,0 Z" id="Shape"></path>
                    <path d="M0,0 C0,0 8.92857143,0 8.92857143,1.76470588 L8.92857143,17.0588235 C8.92857143,15.2941176 0,15.2941176 0,15.2941176 L0,0 L0,0 Z" id="Shape"></path>
                </g>
                <g id="Group" transform="translate(4.166667, 1.764706)" fill="#BCAAA4">
                    <path d="M10.1190476,6.69705882 C11.2505952,6.28588235 13.814881,5.96058824 16.6666667,5.88764706 L16.6666667,4.70588235 C14.4809524,4.75 11.835119,4.93411765 10.1190476,5.49411765 L10.1190476,6.69705882 L10.1190476,6.69705882 Z" id="Shape"></path>
                    <path d="M10.1190476,9.05 C11.2505952,8.63882353 13.814881,8.31352941 16.6666667,8.24058824 L16.6666667,7.05882353 C14.4809524,7.10294118 11.835119,7.28705882 10.1190476,7.84705882 L10.1190476,9.05 L10.1190476,9.05 Z" id="Shape"></path>
                    <path d="M10.1190476,4.34411765 C11.2505952,3.93294118 13.814881,3.60764706 16.6666667,3.53470588 L16.6666667,2.35294118 C14.4809524,2.39705882 11.835119,2.58117647 10.1190476,3.14117647 L10.1190476,4.34411765 L10.1190476,4.34411765 Z" id="Shape"></path>
                    <path d="M10.1190476,0.788235294 L10.1190476,1.99117647 C11.2505952,1.58 13.814881,1.25470588 16.6666667,1.18176471 L16.6666667,0 C14.4809524,0.0441176471 11.835119,0.228235294 10.1190476,0.788235294 L10.1190476,0.788235294 Z" id="Shape"></path>
                    <path d="M13.0952381,9.62705882 C11.9916667,9.74882353 10.9464286,9.93 10.1190476,10.2 L10.1190476,11.4029412 C10.739881,11.1770588 11.8011905,10.9794118 13.0952381,10.8329412 L13.0952381,9.62705882 L13.0952381,9.62705882 Z" id="Shape"></path>
                    <path d="M6.54761905,6.69705882 C5.41607143,6.28588235 2.85178571,5.96058824 0,5.88764706 L0,4.70588235 C2.18571429,4.75 4.83154762,4.93411765 6.54761905,5.49411765 L6.54761905,6.69705882 L6.54761905,6.69705882 Z" id="Shape"></path>
                    <path d="M6.54761905,9.05 C5.41607143,8.63882353 2.85178571,8.31352941 0,8.24058824 L0,7.05882353 C2.18571429,7.10294118 4.83154762,7.28705882 6.54761905,7.84705882 L6.54761905,9.05 L6.54761905,9.05 Z" id="Shape"></path>
                    <path d="M6.54761905,11.4029412 C5.41607143,10.9917647 2.85178571,10.6664706 0,10.5935294 L0,9.41176471 C2.18571429,9.45588235 4.83154762,9.64 6.54761905,10.2 L6.54761905,11.4029412 L6.54761905,11.4029412 Z" id="Shape"></path>
                    <path d="M6.54761905,4.34411765 C5.41607143,3.93294118 2.85178571,3.60764706 0,3.53470588 L0,2.35294118 C2.18571429,2.39705882 4.83154762,2.58117647 6.54761905,3.14117647 L6.54761905,4.34411765 L6.54761905,4.34411765 Z" id="Shape"></path>
                    <path d="M6.54761905,0.788235294 L6.54761905,1.99117647 C5.41607143,1.58 2.85178571,1.25470588 0,1.18176471 L0,0 C2.18571429,0.0441176471 4.83154762,0.228235294 6.54761905,0.788235294 L6.54761905,0.788235294 Z" id="Shape"></path>
                    <rect id="Rectangle-path" x="7.73809524" y="0" width="1.19047619" height="15.2941176"></rect>
                </g>
            </g>
        </g>
    </g>
</svg>