<?xml version="1.0" encoding="UTF-8" standalone="no"?>
<svg width="50px" height="50px" viewBox="0 0 50 50" version="1.1" xmlns="http://www.w3.org/2000/svg" xmlns:xlink="http://www.w3.org/1999/xlink">
    <!-- Generator: Sketch 39.1 (31720) - http://www.bohemiancoding.com/sketch -->
    <title>5500</title>
    <desc>Created with Sketch.</desc>
    <defs></defs>
    <g id="Tic-tac-toe-Copy" stroke="none" stroke-width="1" fill="none" fill-rule="evenodd">
        <g id="5500">
            <g id="Group-2" transform="translate(5.000000, 4.000000)">
                <path d="M33.2675644,42 L30.7324356,42 C30.3866262,41.4021986 29.7402824,41 29,41 C28.2597176,41 27.6133738,41.4021986 27.2675644,42 L24.7324356,42 C24.3866262,41.4021986 23.7402824,41 23,41 C22.2597176,41 21.6133738,41.4021986 21.2675644,42 L18.7324356,42 C18.3866262,41.4021986 17.7402824,41 17,41 C16.2597176,41 15.6133738,41.4021986 15.2675644,42 L12.7324356,42 C12.3866262,41.4021986 11.7402824,41 11,41 C10.2597176,41 9.61337381,41.4021986 9.26756439,42 L6.73243561,42 C6.38662619,41.4021986 5.74028236,41 5,41 C4.25971764,41 3.61337381,41.4021986 3.26756439,42 L0,42 L0,38 L40,38 L40,42 L36.7324356,42 C36.3866262,41.4021986 35.7402824,41 35,41 C34.2597176,41 33.6133738,41.4021986 33.2675644,42 L33.2675644,42 Z" id="Combined-Shape" fill="#9FA8DA"></path>
                <path d="M33.2675644,4 L30.7324356,4 C30.3866262,3.40219863 29.7402824,3 29,3 C28.2597176,3 27.6133738,3.40219863 27.2675644,4 L24.7324356,4 C24.3866262,3.40219863 23.7402824,3 23,3 C22.2597176,3 21.6133738,3.40219863 21.2675644,4 L18.7324356,4 C18.3866262,3.40219863 17.7402824,3 17,3 C16.2597176,3 15.6133738,3.40219863 15.2675644,4 L12.7324356,4 C12.3866262,3.40219863 11.7402824,3 11,3 C10.2597176,3 9.61337381,3.40219863 9.26756439,4 L6.73243561,4 C6.38662619,3.40219863 5.74028236,3 5,3 C4.25971764,3 3.61337381,3.40219863 3.26756439,4 L0,4 L0,0 L40,0 L40,4 L36.7324356,4 C36.3866262,3.40219863 35.7402824,3 35,3 C34.2597176,3 33.6133738,3.40219863 33.2675644,4 L33.2675644,4 Z" id="Combined-Shape-Copy" fill="#9FA8DA" transform="translate(20.000000, 2.000000) scale(1, -1) translate(-20.000000, -2.000000) "></path>
                <polygon id="Rectangle-21" fill="#E8EAF6" points="1.13466182 33.9601453 1 8 0 4 40 4 39 8 39 34 40 38 0 38"></polygon>
            </g>
            <g id="Film-Reel" transform="translate(12.000000, 12.000000)">
                <path d="M22.9767442,20.5581395 L22.9767442,11.4883721 L20.5581395,11.4883721 L20.5581395,20.5581395 C20.5581395,23.5813953 22.9767442,26 26,26 L26,23.5813953 C24.3069767,23.5813953 22.9767442,22.2511628 22.9767442,20.5581395 L22.9767442,20.5581395 Z" id="Shape" fill="#3F51B5"></path>
                <circle id="Oval" fill="#90A4AE" cx="11.4883721" cy="11.4883721" r="11.4883721"></circle>
                <ellipse id="Oval" fill="#37474F" cx="11.4883721" cy="11.4883721" rx="1.20930233" ry="1.20930233"></ellipse>
                <g id="Group" transform="translate(2.418605, 2.418605)" fill="#253278">
                    <circle id="Oval" cx="9.06976744" cy="3.02325581" r="3.02325581"></circle>
                    <circle id="Oval" cx="9.06976744" cy="15.1162791" r="3.02325581"></circle>
                    <circle id="Oval" cx="15.1162791" cy="9.06976744" r="3.02325581"></circle>
                    <circle id="Oval" cx="3.02325581" cy="9.06976744" r="3.02325581"></circle>
                </g>
            </g>
        </g>
    </g>
</svg>