<?xml version="1.0" encoding="UTF-8" standalone="no"?>
<svg width="50px" height="50px" viewBox="0 0 50 50" version="1.1" xmlns="http://www.w3.org/2000/svg" xmlns:xlink="http://www.w3.org/1999/xlink">
    <!-- Generator: Sketch 39.1 (31720) - http://www.bohemiancoding.com/sketch -->
    <title>5700</title>
    <desc>Created with Sketch.</desc>
    <defs></defs>
    <g id="Tic-tac-toe-Copy" stroke="none" stroke-width="1" fill="none" fill-rule="evenodd">
        <g id="5700">
            <g id="Group-2" transform="translate(5.000000, 4.000000)">
                <path d="M33.2675644,42 L30.7324356,42 C30.3866262,41.4021986 29.7402824,41 29,41 C28.2597176,41 27.6133738,41.4021986 27.2675644,42 L24.7324356,42 C24.3866262,41.4021986 23.7402824,41 23,41 C22.2597176,41 21.6133738,41.4021986 21.2675644,42 L18.7324356,42 C18.3866262,41.4021986 17.7402824,41 17,41 C16.2597176,41 15.6133738,41.4021986 15.2675644,42 L12.7324356,42 C12.3866262,41.4021986 11.7402824,41 11,41 C10.2597176,41 9.61337381,41.4021986 9.26756439,42 L6.73243561,42 C6.38662619,41.4021986 5.74028236,41 5,41 C4.25971764,41 3.61337381,41.4021986 3.26756439,42 L0,42 L0,38 L40,38 L40,42 L36.7324356,42 C36.3866262,41.4021986 35.7402824,41 35,41 C34.2597176,41 33.6133738,41.4021986 33.2675644,42 L33.2675644,42 Z" id="Combined-Shape" fill="#BA68C8"></path>
                <path d="M33.2675644,4 L30.7324356,4 C30.3866262,3.40219863 29.7402824,3 29,3 C28.2597176,3 27.6133738,3.40219863 27.2675644,4 L24.7324356,4 C24.3866262,3.40219863 23.7402824,3 23,3 C22.2597176,3 21.6133738,3.40219863 21.2675644,4 L18.7324356,4 C18.3866262,3.40219863 17.7402824,3 17,3 C16.2597176,3 15.6133738,3.40219863 15.2675644,4 L12.7324356,4 C12.3866262,3.40219863 11.7402824,3 11,3 C10.2597176,3 9.61337381,3.40219863 9.26756439,4 L6.73243561,4 C6.38662619,3.40219863 5.74028236,3 5,3 C4.25971764,3 3.61337381,3.40219863 3.26756439,4 L0,4 L0,0 L40,0 L40,4 L36.7324356,4 C36.3866262,3.40219863 35.7402824,3 35,3 C34.2597176,3 33.6133738,3.40219863 33.2675644,4 L33.2675644,4 Z" id="Combined-Shape-Copy" fill="#BA68C8" transform="translate(20.000000, 2.000000) scale(1, -1) translate(-20.000000, -2.000000) "></path>
                <polygon id="Rectangle-21" fill="#E1BEE7" points="1.13466182 33.9601453 1 8 0 4 40 4 39 8 39 34 40 38 0 38"></polygon>
            </g>
            <g id="New" transform="translate(12.000000, 12.000000)">
                <polygon id="Shape" fill="#AA00FF" points="12.5 0 15.0595238 2.85714286 18.75 1.66666667 19.5833333 5.41666667 23.3333333 6.25 22.1428571 9.94047619 25 12.5 22.1428571 15.0595238 23.3333333 18.75 19.5833333 19.5833333 18.75 23.3333333 15.0595238 22.1428571 12.5 25 9.94047619 22.1428571 6.25 23.3333333 5.41666667 19.5833333 1.66666667 18.75 2.85714286 15.0595238 0 12.5 2.85714286 9.94047619 1.66666667 6.25 5.41666667 5.41666667 6.25 1.66666667 9.94047619 2.85714286"></polygon>
                <g id="Group" transform="translate(4.166667, 9.523810)" fill="#FFFFFF">
                    <polygon id="Shape" points="4.64285714 5.95238095 3.45238095 5.95238095 1.66666667 2.02380952 1.66666667 5.95238095 0.476190476 5.95238095 0.476190476 0 1.66666667 0 3.45238095 3.92857143 3.45238095 0 4.64285714 0"></polygon>
                    <polygon id="Shape" points="9.10714286 3.39285714 7.26190476 3.39285714 7.26190476 5 9.46428571 5 9.46428571 5.95238095 6.07142857 5.95238095 6.07142857 0 9.46428571 0 9.46428571 1.01190476 7.26190476 1.01190476 7.26190476 2.38095238 9.10714286 2.38095238"></polygon>
                    <polygon id="Shape" points="14.4047619 3.75 14.9404762 0 16.1309524 0 15.0595238 5.95238095 13.8690476 5.95238095 13.1547619 2.44047619 12.5595238 5.95238095 11.3690476 5.95238095 10.297619 0 11.4880952 0 12.0238095 3.75 12.7380952 0 13.75 0"></polygon>
                </g>
            </g>
        </g>
    </g>
</svg>