<?xml version="1.0" encoding="UTF-8" standalone="no"?>
<svg width="50px" height="50px" viewBox="0 0 50 50" version="1.1" xmlns="http://www.w3.org/2000/svg" xmlns:xlink="http://www.w3.org/1999/xlink">
    <!-- Generator: Sketch 39.1 (31720) - http://www.bohemiancoding.com/sketch -->
    <title>5800</title>
    <desc>Created with Sketch.</desc>
    <defs></defs>
    <g id="Tic-tac-toe-Copy" stroke="none" stroke-width="1" fill="none" fill-rule="evenodd">
        <g id="5800">
            <g id="Group-2" transform="translate(5.000000, 4.000000)">
                <path d="M33.2675644,42 L30.7324356,42 C30.3866262,41.4021986 29.7402824,41 29,41 C28.2597176,41 27.6133738,41.4021986 27.2675644,42 L24.7324356,42 C24.3866262,41.4021986 23.7402824,41 23,41 C22.2597176,41 21.6133738,41.4021986 21.2675644,42 L18.7324356,42 C18.3866262,41.4021986 17.7402824,41 17,41 C16.2597176,41 15.6133738,41.4021986 15.2675644,42 L12.7324356,42 C12.3866262,41.4021986 11.7402824,41 11,41 C10.2597176,41 9.61337381,41.4021986 9.26756439,42 L6.73243561,42 C6.38662619,41.4021986 5.74028236,41 5,41 C4.25971764,41 3.61337381,41.4021986 3.26756439,42 L0,42 L0,38 L40,38 L40,42 L36.7324356,42 C36.3866262,41.4021986 35.7402824,41 35,41 C34.2597176,41 33.6133738,41.4021986 33.2675644,42 L33.2675644,42 Z" id="Combined-Shape" fill="#FF8A65"></path>
                <path d="M33.2675644,4 L30.7324356,4 C30.3866262,3.40219863 29.7402824,3 29,3 C28.2597176,3 27.6133738,3.40219863 27.2675644,4 L24.7324356,4 C24.3866262,3.40219863 23.7402824,3 23,3 C22.2597176,3 21.6133738,3.40219863 21.2675644,4 L18.7324356,4 C18.3866262,3.40219863 17.7402824,3 17,3 C16.2597176,3 15.6133738,3.40219863 15.2675644,4 L12.7324356,4 C12.3866262,3.40219863 11.7402824,3 11,3 C10.2597176,3 9.61337381,3.40219863 9.26756439,4 L6.73243561,4 C6.38662619,3.40219863 5.74028236,3 5,3 C4.25971764,3 3.61337381,3.40219863 3.26756439,4 L0,4 L0,0 L40,0 L40,4 L36.7324356,4 C36.3866262,3.40219863 35.7402824,3 35,3 C34.2597176,3 33.6133738,3.40219863 33.2675644,4 L33.2675644,4 Z" id="Combined-Shape-Copy" fill="#FF8A65" transform="translate(20.000000, 2.000000) scale(1, -1) translate(-20.000000, -2.000000) "></path>
                <polygon id="Rectangle-21" fill="#FFCCBC" points="1.13466182 33.9601453 1 8 0 4 40 4 39 8 39 34 40 38 0 38"></polygon>
            </g>
            <g id="User-Group-Man-Woman" transform="translate(12.000000, 14.000000)">
                <rect id="Rectangle-path" fill="#3E2723" x="14.2857143" y="4.43055556" width="7.14285714" height="8.39116667"></rect>
                <path d="M20.0892857,12.2222222 L20.0892857,12.2222222 C20.0892857,12.2222222 18.7684524,12.0309444 17.8571429,12.0309444 C16.9458333,12.0309444 15.625,12.2222222 15.625,12.2222222 C15.625,12.2222222 10.7142857,13.1553889 10.7142857,18.3333333 L25,18.3333333 C25,13.1749444 20.0892857,12.2222222 20.0892857,12.2222222" id="Shape" fill="#FF7043"></path>
                <path d="M17.8571429,14.5138889 C17.0005952,14.5138889 15.7738095,12.2222222 15.7738095,12.2222222 L15.7738095,9.16666667 L19.9404762,9.16666667 L19.9404762,12.2222222 C19.9404762,12.2222222 18.7136905,14.5138889 17.8571429,14.5138889" id="Shape" fill="#EF8D3C"></path>
                <path d="M22.0238095,7.33333333 C22.0238095,9.61155556 20.0761905,11.6111111 17.8571429,11.6111111 C15.6375,11.6111111 13.6904762,9.61155556 13.6904762,7.33333333 L13.6904762,3.66666667 C13.6904762,1.38844444 22.0238095,0.167444444 22.0238095,3.66666667 L22.0238095,7.33333333 L22.0238095,7.33333333 Z M17.8571429,15.2777778 C19.5839286,15.2777778 19.9404762,12.2222222 19.9404762,12.2222222 C19.9404762,12.2222222 18.8309524,14.0555556 17.8571429,14.0555556 C16.8833333,14.0555556 15.7738095,12.2222222 15.7738095,12.2222222 C15.7738095,12.2222222 16.1303571,15.2777778 17.8571429,15.2777778 L17.8571429,15.2777778 Z" id="Shape" fill="#FFAA45"></path>
                <path d="M17.8571429,16.5 C19.9714286,16.5 20.872619,14.0971111 21.0970238,12.5479444 C20.5095238,12.3077778 20.0892857,12.2222222 20.0892857,12.2222222 C20.0892857,12.2222222 20.0279762,12.2136667 19.9404762,12.2020556 L19.9404762,12.2222222 C19.9404762,12.2222222 19.5839286,15.2777778 17.8571429,15.2777778 C16.1303571,15.2777778 15.7738095,12.2222222 15.7738095,12.2222222 L15.7738095,12.2020556 C15.6863095,12.2136667 15.625,12.2222222 15.625,12.2222222 C15.625,12.2222222 15.2047619,12.3059444 14.6166667,12.5448889 C14.8404762,14.0940556 15.7416667,16.5 17.8571429,16.5 L17.8571429,16.5 Z" id="Shape" fill="#D84315"></path>
                <path d="M19.047619,6.72222222 C19.047619,6.3855 19.3142857,6.11111111 19.6428571,6.11111111 C19.9714286,6.11111111 20.2380952,6.3855 20.2380952,6.72222222 C20.2380952,7.05894444 19.9714286,7.33333333 19.6428571,7.33333333 C19.3142857,7.33333333 19.047619,7.05894444 19.047619,6.72222222 M15.4761905,6.72222222 C15.4761905,7.05894444 15.7428571,7.33333333 16.0714286,7.33333333 C16.4,7.33333333 16.6666667,7.05894444 16.6666667,6.72222222 C16.6666667,6.3855 16.4,6.11111111 16.0714286,6.11111111 C15.7428571,6.11111111 15.4761905,6.3855 15.4761905,6.72222222" id="Shape" fill="#784719"></path>
                <path d="M17.8571429,0 C15.1452381,0 11.3095238,1.27661111 11.3095238,10.3888889 L14.2857143,12.8211111 L14.2857143,6.11111111 L19.6428571,3.05555556 L21.4285714,5.5 L21.4285714,12.8333333 L24.4047619,9.77777778 C24.4047619,7.93283333 24.2529762,0.916666667 19.6428571,0.916666667 L19.047619,0 L17.8571429,0 L17.8571429,0 Z" id="Shape" fill="#4E342E"></path>
                <path d="M11.9047619,10.6944444 C11.9047619,11.2004444 11.5047619,11.6111111 11.0119048,11.6111111 C10.5184524,11.6111111 10.1190476,11.2004444 10.1190476,10.6944444 C10.1190476,10.1884444 10.5184524,9.77777778 11.0119048,9.77777778 C11.5047619,9.77777778 11.9047619,10.1884444 11.9047619,10.6944444 M4.16666667,10.6944444 C4.16666667,10.1884444 3.76666667,9.77777778 3.27380952,9.77777778 C2.78095238,9.77777778 2.38095238,10.1884444 2.38095238,10.6944444 C2.38095238,11.2004444 2.78095238,11.6111111 3.27380952,11.6111111 C3.76666667,11.6111111 4.16666667,11.2004444 4.16666667,10.6944444" id="Shape" fill="#FFA726"></path>
                <path d="M9.52380952,15.8888889 C9.52380952,15.8888889 9.52380952,18.3333333 7.14285714,18.3333333 C4.76190476,18.3333333 4.76190476,15.8888889 4.76190476,15.8888889" id="Shape" fill="#FF9800"></path>
                <path d="M9.375,15.8888889 L9.375,15.8888889 L7.14285714,16.3594444 L4.91071429,15.8888889 C4.91071429,15.8888889 0,16.8220556 0,22 L14.2857143,22 C14.2857143,16.8416111 9.375,15.8888889 9.375,15.8888889" id="Shape" fill="#FF5722"></path>
                <path d="M7.14285714,18.3333333 C4.76190476,18.3333333 4.76190476,15.8888889 4.76190476,15.8888889 L4.76190476,13.4444444 L9.52380952,13.4444444 L9.52380952,15.8888889 C9.52380952,15.8888889 9.52380952,18.3333333 7.14285714,18.3333333 L7.14285714,18.3333333 Z" id="Shape" fill="#FF9800"></path>
                <path d="M11.3095238,8.36 C11.3095238,4.76727778 2.97619048,6.02066667 2.97619048,8.36 L2.97619048,11.0433889 C2.97619048,13.3802778 4.84107143,15.2777778 7.14285714,15.2777778 C9.44404762,15.2777778 11.3095238,13.3802778 11.3095238,11.0427778 L11.3095238,8.36 L11.3095238,8.36 Z" id="Shape" fill="#FFB74D"></path>
                <path d="M7.14285714,19.5555556 C8.96369048,19.5555556 10.4630952,18.1548889 10.6833333,16.3472222 C10.1571429,16.104 9.72916667,15.9762778 9.5202381,15.9237222 C9.50178571,17.2565556 8.44642857,18.3333333 7.14285714,18.3333333 C5.83928571,18.3333333 4.78333333,17.2565556 4.76547619,15.9225 C4.55535714,15.9750556 4.12797619,16.1015556 3.60178571,16.3429444 C3.81964286,18.1530556 5.32083333,19.5555556 7.14285714,19.5555556 L7.14285714,19.5555556 Z" id="Shape" fill="#D84315"></path>
                <path d="M7.14285714,3.66666667 C4.25,3.66666667 2.38095238,6.30238889 2.38095238,8.66066667 L2.38095238,9.77777778 L3.57142857,11 L3.57142857,8.55555556 L9.04761905,6.72222222 L10.7142857,8.55555556 L10.7142857,11 L11.9047619,9.77777778 L11.9047619,9.28338889 C11.9047619,7.31683333 11.410119,5.126 9.04761905,4.64383333 L8.57083333,3.66666667 L7.14285714,3.66666667 L7.14285714,3.66666667 Z" id="Shape" fill="#795548"></path>
                <path d="M8.33333333,10.3888889 C8.33333333,10.0521667 8.6,9.77777778 8.92857143,9.77777778 C9.25714286,9.77777778 9.52380952,10.0521667 9.52380952,10.3888889 C9.52380952,10.7256111 9.25714286,11 8.92857143,11 C8.6,11 8.33333333,10.7256111 8.33333333,10.3888889 M4.76190476,10.3888889 C4.76190476,10.7256111 5.02857143,11 5.35714286,11 C5.68571429,11 5.95238095,10.7256111 5.95238095,10.3888889 C5.95238095,10.0521667 5.68571429,9.77777778 5.35714286,9.77777778 C5.02857143,9.77777778 4.76190476,10.0521667 4.76190476,10.3888889" id="Shape" fill="#784719"></path>
            </g>
        </g>
    </g>
</svg>