<?xml version="1.0" encoding="UTF-8" standalone="no"?>
<svg width="50px" height="50px" viewBox="0 0 50 50" version="1.1" xmlns="http://www.w3.org/2000/svg" xmlns:xlink="http://www.w3.org/1999/xlink">
    <!-- Generator: Sketch 39.1 (31720) - http://www.bohemiancoding.com/sketch -->
    <title>5900</title>
    <desc>Created with Sketch.</desc>
    <defs></defs>
    <g id="Tic-tac-toe-Copy" stroke="none" stroke-width="1" fill="none" fill-rule="evenodd">
        <g id="5900">
            <g id="Group-2" transform="translate(5.000000, 4.000000)">
                <path d="M33.2675644,42 L30.7324356,42 C30.3866262,41.4021986 29.7402824,41 29,41 C28.2597176,41 27.6133738,41.4021986 27.2675644,42 L24.7324356,42 C24.3866262,41.4021986 23.7402824,41 23,41 C22.2597176,41 21.6133738,41.4021986 21.2675644,42 L18.7324356,42 C18.3866262,41.4021986 17.7402824,41 17,41 C16.2597176,41 15.6133738,41.4021986 15.2675644,42 L12.7324356,42 C12.3866262,41.4021986 11.7402824,41 11,41 C10.2597176,41 9.61337381,41.4021986 9.26756439,42 L6.73243561,42 C6.38662619,41.4021986 5.74028236,41 5,41 C4.25971764,41 3.61337381,41.4021986 3.26756439,42 L0,42 L0,38 L40,38 L40,42 L36.7324356,42 C36.3866262,41.4021986 35.7402824,41 35,41 C34.2597176,41 33.6133738,41.4021986 33.2675644,42 L33.2675644,42 Z" id="Combined-Shape" fill="#4DB6AC"></path>
                <path d="M33.2675644,4 L30.7324356,4 C30.3866262,3.40219863 29.7402824,3 29,3 C28.2597176,3 27.6133738,3.40219863 27.2675644,4 L24.7324356,4 C24.3866262,3.40219863 23.7402824,3 23,3 C22.2597176,3 21.6133738,3.40219863 21.2675644,4 L18.7324356,4 C18.3866262,3.40219863 17.7402824,3 17,3 C16.2597176,3 15.6133738,3.40219863 15.2675644,4 L12.7324356,4 C12.3866262,3.40219863 11.7402824,3 11,3 C10.2597176,3 9.61337381,3.40219863 9.26756439,4 L6.73243561,4 C6.38662619,3.40219863 5.74028236,3 5,3 C4.25971764,3 3.61337381,3.40219863 3.26756439,4 L0,4 L0,0 L40,0 L40,4 L36.7324356,4 C36.3866262,3.40219863 35.7402824,3 35,3 C34.2597176,3 33.6133738,3.40219863 33.2675644,4 L33.2675644,4 Z" id="Combined-Shape-Copy" fill="#4DB6AC" transform="translate(20.000000, 2.000000) scale(1, -1) translate(-20.000000, -2.000000) "></path>
                <polygon id="Rectangle-21" fill="#B2DFDB" points="1.13466182 33.9601453 1 8 0 4 40 4 39 8 39 34 40 38 0 38"></polygon>
            </g>
            <g id="Basilica" transform="translate(14.000000, 13.000000)">
                <polygon id="Shape" fill="#E89419" points="17.1111111 10.1081081 17.1111111 12.4864865 15.8888889 12.4864865 15.8888889 7.13513514 6.11111111 7.13513514 6.11111111 12.4864865 4.88888889 12.4864865 4.88888889 10.1081081 0 10.1081081 0 22 22 22 22 10.1081081"></polygon>
                <g id="Group" transform="translate(0.611111, 8.324324)" fill="#805A26">
                    <path d="M19.5555556,4.16216216 L18.3333333,4.16216216 L18.3333333,2.97297297 C18.3333333,2.61621622 18.5777778,2.37837838 18.9444444,2.37837838 L18.9444444,2.37837838 C19.3111111,2.37837838 19.5555556,2.61621622 19.5555556,2.97297297 L19.5555556,4.16216216 L19.5555556,4.16216216 Z" id="Shape"></path>
                    <path d="M19.5555556,7.13513514 L18.3333333,7.13513514 L18.3333333,5.94594595 C18.3333333,5.58918919 18.5777778,5.35135135 18.9444444,5.35135135 L18.9444444,5.35135135 C19.3111111,5.35135135 19.5555556,5.58918919 19.5555556,5.94594595 L19.5555556,7.13513514 L19.5555556,7.13513514 Z" id="Shape"></path>
                    <path d="M2.44444444,7.13513514 L1.22222222,7.13513514 L1.22222222,5.94594595 C1.22222222,5.58918919 1.46666667,5.35135135 1.83333333,5.35135135 L1.83333333,5.35135135 C2.2,5.35135135 2.44444444,5.58918919 2.44444444,5.94594595 L2.44444444,7.13513514 L2.44444444,7.13513514 Z" id="Shape"></path>
                    <path d="M19.5555556,10.7027027 L18.3333333,10.7027027 L18.3333333,9.51351351 C18.3333333,9.15675676 18.5777778,8.91891892 18.9444444,8.91891892 L18.9444444,8.91891892 C19.3111111,8.91891892 19.5555556,9.15675676 19.5555556,9.51351351 L19.5555556,10.7027027 L19.5555556,10.7027027 Z" id="Shape"></path>
                    <path d="M2.44444444,10.7027027 L1.22222222,10.7027027 L1.22222222,9.51351351 C1.22222222,9.15675676 1.46666667,8.91891892 1.83333333,8.91891892 L1.83333333,8.91891892 C2.2,8.91891892 2.44444444,9.15675676 2.44444444,9.51351351 L2.44444444,10.7027027 L2.44444444,10.7027027 Z" id="Shape"></path>
                    <path d="M20.7777778,4.16216216 L20.1666667,4.16216216 L20.1666667,2.67567568 C20.1666667,2.4972973 20.2888889,2.37837838 20.4722222,2.37837838 L20.4722222,2.37837838 C20.6555556,2.37837838 20.7777778,2.4972973 20.7777778,2.67567568 L20.7777778,4.16216216 L20.7777778,4.16216216 Z" id="Shape"></path>
                    <path d="M17.7222222,4.16216216 L17.1111111,4.16216216 L17.1111111,2.67567568 C17.1111111,2.4972973 17.2333333,2.37837838 17.4166667,2.37837838 L17.4166667,2.37837838 C17.6,2.37837838 17.7222222,2.4972973 17.7222222,2.67567568 L17.7222222,4.16216216 L17.7222222,4.16216216 Z" id="Shape"></path>
                    <path d="M2.44444444,4.16216216 L1.22222222,4.16216216 L1.22222222,2.97297297 C1.22222222,2.61621622 1.46666667,2.37837838 1.83333333,2.37837838 L1.83333333,2.37837838 C2.2,2.37837838 2.44444444,2.61621622 2.44444444,2.97297297 L2.44444444,4.16216216 L2.44444444,4.16216216 Z" id="Shape"></path>
                    <path d="M3.66666667,4.16216216 L3.05555556,4.16216216 L3.05555556,2.67567568 C3.05555556,2.4972973 3.17777778,2.37837838 3.36111111,2.37837838 L3.36111111,2.37837838 C3.54444444,2.37837838 3.66666667,2.4972973 3.66666667,2.67567568 L3.66666667,4.16216216 L3.66666667,4.16216216 Z" id="Shape"></path>
                    <path d="M0.611111111,4.16216216 L0,4.16216216 L0,2.67567568 C0,2.4972973 0.122222222,2.37837838 0.305555556,2.37837838 L0.305555556,2.37837838 C0.488888889,2.37837838 0.611111111,2.4972973 0.611111111,2.67567568 L0.611111111,4.16216216 L0.611111111,4.16216216 Z" id="Shape"></path>
                    <path d="M11.6111111,4.16216216 L9.16666667,4.16216216 L9.16666667,1.18918919 C9.16666667,0.535135135 9.71666667,0 10.3888889,0 L10.3888889,0 C11.0611111,0 11.6111111,0.535135135 11.6111111,1.18918919 L11.6111111,4.16216216 L11.6111111,4.16216216 Z" id="Shape"></path>
                    <path d="M14.6666667,4.16216216 L12.8333333,4.16216216 L12.8333333,0.891891892 C12.8333333,0.416216216 13.2611111,0 13.75,0 L13.75,0 C14.2388889,0 14.6666667,0.416216216 14.6666667,0.891891892 L14.6666667,4.16216216 L14.6666667,4.16216216 Z" id="Shape"></path>
                    <path d="M7.94444444,4.16216216 L6.11111111,4.16216216 L6.11111111,0.891891892 C6.11111111,0.416216216 6.53888889,0 7.02777778,0 L7.02777778,0 C7.51666667,0 7.94444444,0.416216216 7.94444444,0.891891892 L7.94444444,4.16216216 L7.94444444,4.16216216 Z" id="Shape"></path>
                </g>
                <g id="Group" fill="#00796B">
                    <path d="M6.11111111,7.13513514 C6.11111111,2.97297297 11,0 11,0 C11,0 15.8888889,2.97297297 15.8888889,7.13513514 L6.11111111,7.13513514 L6.11111111,7.13513514 Z" id="Shape"></path>
                    <path d="M19.5555556,6.36216216 C19.5555556,6.36216216 17.1111111,8.32432432 17.1111111,10.1081081 L22,10.1081081 C22,8.32432432 19.5555556,6.36216216 19.5555556,6.36216216 L19.5555556,6.36216216 Z" id="Shape"></path>
                    <path d="M2.44444444,6.36216216 C2.44444444,6.36216216 0,8.32432432 0,10.1081081 L4.88888889,10.1081081 C4.88888889,8.32432432 2.44444444,6.36216216 2.44444444,6.36216216 L2.44444444,6.36216216 Z" id="Shape"></path>
                </g>
                <polygon id="Shape" fill="#FFB74D" points="17.1111111 22 4.88888889 22 4.88888889 12.4864865 11 10.7027027 17.1111111 12.4864865"></polygon>
                <polygon id="Shape" fill="#FFA726" points="6.72222222 13.0810811 11 11.8324324 15.2777778 13.0810811"></polygon>
                <path d="M14.6666667,22 L7.33333333,22 L7.33333333,17.8378378 C7.33333333,15.8756757 8.98333333,14.2702703 11,14.2702703 L11,14.2702703 C13.0166667,14.2702703 14.6666667,15.8756757 14.6666667,17.8378378 L14.6666667,22 L14.6666667,22 Z" id="Shape" fill="#805A26"></path>
                <g id="Group" transform="translate(1.222222, 0.000000)" fill="#00897B">
                    <path d="M11.6111111,7.13513514 C11.6111111,3.56756757 9.77777778,0 9.77777778,0 C9.77777778,0 7.94444444,3.56756757 7.94444444,7.13513514 L11.6111111,7.13513514 L11.6111111,7.13513514 Z" id="Shape"></path>
                    <path d="M18.3333333,6.36216216 C18.3333333,6.36216216 17.1111111,8.32432432 17.1111111,10.1081081 L19.5555556,10.1081081 C19.5555556,8.32432432 18.3333333,6.36216216 18.3333333,6.36216216 L18.3333333,6.36216216 Z" id="Shape"></path>
                    <path d="M1.22222222,6.36216216 C1.22222222,6.36216216 0,8.32432432 0,10.1081081 L2.44444444,10.1081081 C2.44444444,8.32432432 1.22222222,6.36216216 1.22222222,6.36216216 L1.22222222,6.36216216 Z" id="Shape"></path>
                </g>
            </g>
        </g>
    </g>
</svg>