<?xml version="1.0" encoding="UTF-8" standalone="no"?>
<svg width="50px" height="50px" viewBox="0 0 50 50" version="1.1" xmlns="http://www.w3.org/2000/svg" xmlns:xlink="http://www.w3.org/1999/xlink">
    <!-- Generator: Sketch 39.1 (31720) - http://www.bohemiancoding.com/sketch -->
    <title>600</title>
    <desc>Created with Sketch.</desc>
    <defs></defs>
    <g id="Tic-tac-toe" stroke="none" stroke-width="1" fill="none" fill-rule="evenodd">
        <g id="600">
            <g id="Fish" transform="translate(4.000000, 10.000000)">
                <g id="Group" transform="translate(0.000000, 8.000000)" fill="#5C6BC0">
                    <path d="M9.493,8.113 C9.532,7.076 9.038,6 8,6 C5,6 3,0 3,0 C3,0 1.744,1.682 0.857,3.951 C2.732,5.586 5.899,7.777 9.498,7.971 C9.499,8.019 9.495,8.066 9.493,8.113 L9.493,8.113 Z" id="Shape"></path>
                    <path d="M3,16 C3,16 5,10 8,10 C8.96,10 9.454,9.078 9.493,8.119 C6.319,8.877 2.879,10.778 0.849,12.028 C1.736,14.309 3,16 3,16 L3,16 Z" id="Shape"></path>
                </g>
                <path d="M9.498,15.971 C5.898,15.778 2.731,13.586 0.857,11.951 C0.857,11.953 0.856,11.955 0.855,11.959 C0.738,12.26 0.626,12.571 0.526,12.891 C0.524,12.899 0.521,12.906 0.519,12.913 C0.42,13.228 0.332,13.552 0.257,13.88 C0.249,13.916 0.243,13.951 0.236,13.986 C0.177,14.257 0.13,14.531 0.092,14.806 C0.081,14.886 0.07,14.966 0.061,15.046 C0.024,15.363 0,15.682 0,16 C0,16.316 0.024,16.633 0.059,16.947 C0.068,17.029 0.079,17.109 0.09,17.19 C0.127,17.46 0.173,17.728 0.23,17.992 C0.239,18.033 0.246,18.074 0.255,18.114 C0.329,18.439 0.416,18.761 0.514,19.075 C0.514,19.078 0.515,19.08 0.516,19.084 C0.617,19.404 0.728,19.719 0.847,20.023 C0.847,20.025 0.848,20.027 0.848,20.027 C2.878,18.778 6.318,16.877 9.492,16.119 L9.492,16.113 C9.495,16.066 9.499,16.019 9.498,15.971 L9.498,15.971 Z" id="Shape" fill="#1A237E"></path>
                <path d="M32.166,4.834 C32.166,4.834 25,0 16,0 C8,0 7.75,3.688 8,5 C8.187,5.982 11,12 8,14 L32.166,4.834 L32.166,4.834 Z" id="Shape" fill="#F9A825"></path>
                <g id="Group" transform="translate(7.000000, 3.000000)" fill="#FFC107">
                    <path d="M1,13 C4,15 1.135,21.009 1,22 C0.812,23.375 1,27 9,27 C18,27 25.166,22.168 25.166,22.168 L1,13 L1,13 Z" id="Shape"></path>
                    <g id="Shape">
                        <path d="M34.707,12.93 C34.707,12.93 30.847,11.278 28.978,7.106 C27.521,2.866 24.404,0 19,0 C9,0 4,9 1,11 C1,11 0,11.976 0,13 C0,13.771 1,15 1,15 C4,17 8,25 16,25 C28.084,25 34.707,14.344 34.707,14.344 C35.098,13.953 35.098,13.32 34.707,12.93 L34.707,12.93 Z"></path>
                        <path d="M34.707,12.93 C34.707,12.93 30.847,11.278 28.978,7.106 C27.521,2.866 24.404,0 19,0 C9,0 4,9 1,11 C1,11 0,11.976 0,13 C0,13.771 1,15 1,15 C4,17 8,25 16,25 C28.084,25 34.707,14.344 34.707,14.344 C35.098,13.953 35.098,13.32 34.707,12.93 L34.707,12.93 Z"></path>
                    </g>
                </g>
                <g id="Group" transform="translate(7.000000, 0.000000)" fill="#3F51B5">
                    <path d="M3.268,24.246 C3.304,23.466 3.517,21.914 3.328,20.233 C2.976,19.842 2.64,19.478 2.318,19.15 C2.277,21.563 1.026,24.348 1,25 C0.937,26.563 1,30 9,30 C9.147,30 9.289,29.988 9.435,29.986 C4.02,29.836 3.188,26 3.268,24.246 L3.268,24.246 Z" id="Shape"></path>
                    <path d="M1,14 C1.693,13.538 2.5,12.693 3.444,11.681 C4.463,9.697 3.92,7.404 3.625,6.437 C2.937,4.187 4.233,0.189 9.507,0.016 C9.337,0.014 9.171,0 9,0 C1,0 0.625,3.625 1,5 C1.263,5.965 4,12 1,14 L1,14 Z" id="Shape"></path>
                    <path d="M33.063,14.953 C32.204,14.406 29.547,11.03 27.208,11.03 C24,11.03 23,17 23,17 C23,17 25.813,21.828 26.547,25.047 C28.265,23.942 28.625,23.766 29.36,23.109 C29.602,22.021 29.828,17.188 33.063,14.953 L33.063,14.953 Z" id="Shape"></path>
                </g>
                <circle id="Oval" fill="#000000" cx="36" cy="15" r="1"></circle>
                <g id="Group" transform="translate(12.000000, 6.000000)" fill="#FF9100">
                    <path d="M1.866,17.967 L1,7 L0.261,16.366 C0.764,16.902 1.297,17.441 1.866,17.967 L1.866,17.967 Z" id="Shape"></path>
                    <path d="M5.219,20.445 L4,5 L2.905,18.865 C3.621,19.447 4.391,19.982 5.219,20.445 L5.219,20.445 Z" id="Shape"></path>
                    <path d="M7,3.668 L5.656,20.691 C6.512,21.129 7.435,21.47 8.424,21.697 L7,3.668 L7,3.668 Z" id="Shape"></path>
                    <path d="M11.501,21.986 C12.534,21.961 13.527,21.861 14.479,21.693 L13,1 L11.501,21.986 L11.501,21.986 Z" id="Shape"></path>
                    <path d="M10,2 L8.521,21.717 C9.305,21.89 10.125,22 11,22 C11.169,22 11.332,21.99 11.499,21.986 L10,2 L10,2 Z" id="Shape"></path>
                    <path d="M16,0 L14.5,21.668 L14.618,21.668 C15.607,21.486 16.553,21.237 17.449,20.934 L16,0 L16,0 Z" id="Shape"></path>
                </g>
            </g>
        </g>
    </g>
</svg>