<?xml version="1.0" encoding="UTF-8" standalone="no"?>
<svg width="50px" height="50px" viewBox="0 0 50 50" version="1.1" xmlns="http://www.w3.org/2000/svg" xmlns:xlink="http://www.w3.org/1999/xlink">
    <!-- Generator: Sketch 39.1 (31720) - http://www.bohemiancoding.com/sketch -->
    <title>6000</title>
    <desc>Created with Sketch.</desc>
    <defs></defs>
    <g id="Tic-tac-toe-Copy" stroke="none" stroke-width="1" fill="none" fill-rule="evenodd">
        <g id="6000">
            <g id="Group-2" transform="translate(5.000000, 4.000000)">
                <path d="M33.2675644,42 L30.7324356,42 C30.3866262,41.4021986 29.7402824,41 29,41 C28.2597176,41 27.6133738,41.4021986 27.2675644,42 L24.7324356,42 C24.3866262,41.4021986 23.7402824,41 23,41 C22.2597176,41 21.6133738,41.4021986 21.2675644,42 L18.7324356,42 C18.3866262,41.4021986 17.7402824,41 17,41 C16.2597176,41 15.6133738,41.4021986 15.2675644,42 L12.7324356,42 C12.3866262,41.4021986 11.7402824,41 11,41 C10.2597176,41 9.61337381,41.4021986 9.26756439,42 L6.73243561,42 C6.38662619,41.4021986 5.74028236,41 5,41 C4.25971764,41 3.61337381,41.4021986 3.26756439,42 L0,42 L0,38 L40,38 L40,42 L36.7324356,42 C36.3866262,41.4021986 35.7402824,41 35,41 C34.2597176,41 33.6133738,41.4021986 33.2675644,42 L33.2675644,42 Z" id="Combined-Shape" fill="#F06292"></path>
                <path d="M33.2675644,4 L30.7324356,4 C30.3866262,3.40219863 29.7402824,3 29,3 C28.2597176,3 27.6133738,3.40219863 27.2675644,4 L24.7324356,4 C24.3866262,3.40219863 23.7402824,3 23,3 C22.2597176,3 21.6133738,3.40219863 21.2675644,4 L18.7324356,4 C18.3866262,3.40219863 17.7402824,3 17,3 C16.2597176,3 15.6133738,3.40219863 15.2675644,4 L12.7324356,4 C12.3866262,3.40219863 11.7402824,3 11,3 C10.2597176,3 9.61337381,3.40219863 9.26756439,4 L6.73243561,4 C6.38662619,3.40219863 5.74028236,3 5,3 C4.25971764,3 3.61337381,3.40219863 3.26756439,4 L0,4 L0,0 L40,0 L40,4 L36.7324356,4 C36.3866262,3.40219863 35.7402824,3 35,3 C34.2597176,3 33.6133738,3.40219863 33.2675644,4 L33.2675644,4 Z" id="Combined-Shape-Copy" fill="#F06292" transform="translate(20.000000, 2.000000) scale(1, -1) translate(-20.000000, -2.000000) "></path>
                <polygon id="Rectangle-21" fill="#F8BBD0" points="1.13466182 33.9601453 1 8 0 4 40 4 39 8 39 34 40 38 0 38"></polygon>
            </g>
            <g id="Test-Tube" transform="translate(14.000000, 14.000000)">
                <g id="Group" fill="#E1F5FE">
                    <path d="M14.0555556,9.16666667 L7.94444444,9.16666667 L0.737,17.8096111 C0.707055556,17.8395556 0.681388889,17.8731667 0.652666667,17.9031111 L0.506,18.0675 L0.518222222,18.0675 C0.198,18.48 0,18.9921111 0,19.5555556 C0,20.9055 1.0945,22 2.44444444,22 L19.5555556,22 C20.9055,22 22,20.9055 22,19.5555556 C22,19.0110556 21.8160556,18.5136111 21.5153889,18.1078333 L21.5245556,18.1078333 L21.4139444,17.985 C21.3577222,17.919 21.3033333,17.8511667 21.241,17.7918889 L14.0555556,9.16666667 L14.0555556,9.16666667 L14.0555556,9.16666667 Z" id="Shape"></path>
                    <rect id="Rectangle-path" x="7.94444444" y="1.83333333" width="6.11111111" height="8.19927778"></rect>
                    <path d="M15.2777778,1.22222222 C15.2777778,1.89688889 14.7302222,2.44444444 14.0555556,2.44444444 L7.94444444,2.44444444 C7.26977778,2.44444444 6.72222222,1.89688889 6.72222222,1.22222222 L6.72222222,1.22222222 C6.72222222,0.547555556 7.26977778,0 7.94444444,0 L14.0555556,0 C14.7302222,0 15.2777778,0.547555556 15.2777778,1.22222222 L15.2777778,1.22222222 L15.2777778,1.22222222 Z" id="Shape"></path>
                </g>
                <path d="M20.5339444,18.8356667 L20.5253889,18.8240556 L20.5046111,18.8008333 L20.4923889,18.788 L20.4807778,18.7751667 L20.4514444,18.7397222 C20.4325,18.7171111 20.4141667,18.6938889 20.3933889,18.6731111 L20.3585556,18.6395 L20.3298333,18.6071111 L16.2995556,13.75 L5.69738889,13.75 L1.64633333,18.6260556 L1.62433333,18.6505 L1.61638889,18.6584444 C1.59316667,18.6853333 1.57483333,18.7067222 1.55588889,18.7262778 L1.53144444,18.7537778 L1.48377778,18.8161111 C1.36461111,18.9701111 1.22222222,19.2237222 1.22222222,19.5555556 C1.22222222,20.2296111 1.77038889,20.7777778 2.44444444,20.7777778 L19.5555556,20.7777778 C20.2296111,20.7777778 20.7777778,20.2296111 20.7777778,19.5555556 C20.7777778,19.2328889 20.6445556,18.986 20.5339444,18.8356667 L20.5339444,18.8356667 Z" id="Shape" fill="#F50057"></path>
                <ellipse id="Oval" fill="#F48FB1" cx="14.0555556" cy="17.7222222" rx="1.83333333" ry="1.83333333"></ellipse>
                <ellipse id="Oval" fill="#F8BBD0" cx="9.77777778" cy="15.8888889" rx="1.22222222" ry="1.22222222"></ellipse>
                <g id="Group" transform="translate(9.777778, 5.500000)" fill="#B3E5FC">
                    <ellipse id="Oval" cx="1.83333333" cy="4.88888889" rx="1.22222222" ry="1.22222222"></ellipse>
                    <circle id="Oval" cx="0.916666667" cy="0.916666667" r="0.916666667"></circle>
                </g>
            </g>
        </g>
    </g>
</svg>