<?xml version="1.0" encoding="UTF-8" standalone="no"?>
<svg width="50px" height="50px" viewBox="0 0 50 50" version="1.1" xmlns="http://www.w3.org/2000/svg" xmlns:xlink="http://www.w3.org/1999/xlink">
    <!-- Generator: Sketch 39.1 (31720) - http://www.bohemiancoding.com/sketch -->
    <title>6100</title>
    <desc>Created with Sketch.</desc>
    <defs></defs>
    <g id="Tic-tac-toe-Copy" stroke="none" stroke-width="1" fill="none" fill-rule="evenodd">
        <g id="6100">
            <g id="Group-2" transform="translate(5.000000, 4.000000)">
                <path d="M33.2675644,42 L30.7324356,42 C30.3866262,41.4021986 29.7402824,41 29,41 C28.2597176,41 27.6133738,41.4021986 27.2675644,42 L24.7324356,42 C24.3866262,41.4021986 23.7402824,41 23,41 C22.2597176,41 21.6133738,41.4021986 21.2675644,42 L18.7324356,42 C18.3866262,41.4021986 17.7402824,41 17,41 C16.2597176,41 15.6133738,41.4021986 15.2675644,42 L12.7324356,42 C12.3866262,41.4021986 11.7402824,41 11,41 C10.2597176,41 9.61337381,41.4021986 9.26756439,42 L6.73243561,42 C6.38662619,41.4021986 5.74028236,41 5,41 C4.25971764,41 3.61337381,41.4021986 3.26756439,42 L0,42 L0,38 L40,38 L40,42 L36.7324356,42 C36.3866262,41.4021986 35.7402824,41 35,41 C34.2597176,41 33.6133738,41.4021986 33.2675644,42 L33.2675644,42 Z" id="Combined-Shape" fill="#FFB74D"></path>
                <path d="M33.2675644,4 L30.7324356,4 C30.3866262,3.40219863 29.7402824,3 29,3 C28.2597176,3 27.6133738,3.40219863 27.2675644,4 L24.7324356,4 C24.3866262,3.40219863 23.7402824,3 23,3 C22.2597176,3 21.6133738,3.40219863 21.2675644,4 L18.7324356,4 C18.3866262,3.40219863 17.7402824,3 17,3 C16.2597176,3 15.6133738,3.40219863 15.2675644,4 L12.7324356,4 C12.3866262,3.40219863 11.7402824,3 11,3 C10.2597176,3 9.61337381,3.40219863 9.26756439,4 L6.73243561,4 C6.38662619,3.40219863 5.74028236,3 5,3 C4.25971764,3 3.61337381,3.40219863 3.26756439,4 L0,4 L0,0 L40,0 L40,4 L36.7324356,4 C36.3866262,3.40219863 35.7402824,3 35,3 C34.2597176,3 33.6133738,3.40219863 33.2675644,4 L33.2675644,4 Z" id="Combined-Shape-Copy" fill="#FFB74D" transform="translate(20.000000, 2.000000) scale(1, -1) translate(-20.000000, -2.000000) "></path>
                <polygon id="Rectangle-21" fill="#FFE0B2" points="1.13466182 33.9601453 1 8 0 4 40 4 39 8 39 34 40 38 0 38"></polygon>
            </g>
            <g id="Sport" transform="translate(13.000000, 13.000000)">
                <path d="M18,18 C12.48,23.52 4.74,24.72 1.98,22.02 C-0.78,19.32 0.48,11.52 6,6 C11.52,0.48 19.32,-0.72 22.02,1.98 C24.72,4.68 23.52,12.48 18,18 L18,18 Z" id="Shape" fill="#D84315"></path>
                <path d="M18,18 C12.48,23.52 4.74,24.72 1.98,22.02 C6.18,22.02 11.7,16.14 13.92,13.92 C16.14,11.7 22.02,5.82 22.02,1.98 C24.72,4.68 23.52,12.48 18,18 L18,18 Z" id="Shape" fill="#BF360C"></path>
                <path d="M8.1,15.9 L15.9,8.1" id="Shape" stroke="#FF8A65" stroke-width="1.8"></path>
                <g id="Group" transform="translate(9.000000, 9.000000)" fill="#872F14">
                    <circle id="Oval" cx="4.8" cy="4.8" r="1.2"></circle>
                    <circle id="Oval" cx="1.2" cy="1.2" r="1.2"></circle>
                </g>
                <path d="M10.2,10.2 L13.8,13.8" id="Shape" stroke="#FFAB91" stroke-width="1.2"></path>
                <g id="Group" transform="translate(11.400000, 6.600000)" fill="#872F14">
                    <circle id="Oval" cx="4.8" cy="4.8" r="1.2"></circle>
                    <circle id="Oval" cx="1.2" cy="1.2" r="1.2"></circle>
                </g>
                <path d="M12.6,7.8 L16.2,11.4" id="Shape" stroke="#FFAB91" stroke-width="1.2"></path>
                <g id="Group" transform="translate(6.600000, 11.400000)" fill="#872F14">
                    <circle id="Oval" cx="4.8" cy="4.8" r="1.2"></circle>
                    <circle id="Oval" cx="1.2" cy="1.2" r="1.2"></circle>
                </g>
                <path d="M7.8,12.6 L11.4,16.2" id="Shape" stroke="#FFAB91" stroke-width="1.2"></path>
            </g>
        </g>
    </g>
</svg>