<?xml version="1.0" encoding="UTF-8" standalone="no"?>
<svg width="50px" height="50px" viewBox="0 0 50 50" version="1.1" xmlns="http://www.w3.org/2000/svg" xmlns:xlink="http://www.w3.org/1999/xlink">
    <!-- Generator: Sketch 39.1 (31720) - http://www.bohemiancoding.com/sketch -->
    <title>6200</title>
    <desc>Created with Sketch.</desc>
    <defs></defs>
    <g id="Tic-tac-toe-Copy" stroke="none" stroke-width="1" fill="none" fill-rule="evenodd">
        <g id="6200">
            <g id="Group-2" transform="translate(5.000000, 4.000000)">
                <path d="M33.2675644,42 L30.7324356,42 C30.3866262,41.4021986 29.7402824,41 29,41 C28.2597176,41 27.6133738,41.4021986 27.2675644,42 L24.7324356,42 C24.3866262,41.4021986 23.7402824,41 23,41 C22.2597176,41 21.6133738,41.4021986 21.2675644,42 L18.7324356,42 C18.3866262,41.4021986 17.7402824,41 17,41 C16.2597176,41 15.6133738,41.4021986 15.2675644,42 L12.7324356,42 C12.3866262,41.4021986 11.7402824,41 11,41 C10.2597176,41 9.61337381,41.4021986 9.26756439,42 L6.73243561,42 C6.38662619,41.4021986 5.74028236,41 5,41 C4.25971764,41 3.61337381,41.4021986 3.26756439,42 L0,42 L0,38 L40,38 L40,42 L36.7324356,42 C36.3866262,41.4021986 35.7402824,41 35,41 C34.2597176,41 33.6133738,41.4021986 33.2675644,42 L33.2675644,42 Z" id="Combined-Shape" fill="#90A4AE"></path>
                <path d="M33.2675644,4 L30.7324356,4 C30.3866262,3.40219863 29.7402824,3 29,3 C28.2597176,3 27.6133738,3.40219863 27.2675644,4 L24.7324356,4 C24.3866262,3.40219863 23.7402824,3 23,3 C22.2597176,3 21.6133738,3.40219863 21.2675644,4 L18.7324356,4 C18.3866262,3.40219863 17.7402824,3 17,3 C16.2597176,3 15.6133738,3.40219863 15.2675644,4 L12.7324356,4 C12.3866262,3.40219863 11.7402824,3 11,3 C10.2597176,3 9.61337381,3.40219863 9.26756439,4 L6.73243561,4 C6.38662619,3.40219863 5.74028236,3 5,3 C4.25971764,3 3.61337381,3.40219863 3.26756439,4 L0,4 L0,0 L40,0 L40,4 L36.7324356,4 C36.3866262,3.40219863 35.7402824,3 35,3 C34.2597176,3 33.6133738,3.40219863 33.2675644,4 L33.2675644,4 Z" id="Combined-Shape-Copy" fill="#90A4AE" transform="translate(20.000000, 2.000000) scale(1, -1) translate(-20.000000, -2.000000) "></path>
                <polygon id="Rectangle-21" fill="#CFD8DC" points="1.13466182 33.9601453 1 8 0 4 40 4 39 8 39 34 40 38 0 38"></polygon>
            </g>
            <g id="Retro-TV" transform="translate(14.000000, 14.000000)">
                <g id="Group" transform="translate(4.842105, 0.000000)" fill="#546E7A">
                    <rect id="Rectangle-path" transform="translate(2.421053, 3.666789) rotate(59.036243) translate(-2.421053, -3.666789) " x="-1.10826596" y="3.05567274" width="7.05863718" height="1.22223231"></rect>
                    <rect id="Rectangle-path" transform="translate(6.355417, 4.582934) rotate(45.000000) translate(-6.355417, -4.582934) " x="5.75015927" y="1.5582685" width="1.21051471" height="6.04933087"></rect>
                </g>
                <rect id="Rectangle-path" fill="#78909C" x="0" y="6.11111111" width="23" height="15.8888889"></rect>
                <path d="M16.3421053,18.3333333 C16.1786842,18.9401667 15.7283684,19.3575556 15.1315789,19.5555556 C15.1315789,19.5555556 12.4078947,20.1666667 9.38157895,20.1666667 C6.35526316,20.1666667 3.63157895,19.5555556 3.63157895,19.5555556 C3.06928947,19.3856667 2.60807895,18.9835556 2.42105263,18.3333333 C2.42105263,18.3333333 1.81578947,16.5 1.81578947,14.0555556 C1.81578947,11.6111111 2.42105263,9.77777778 2.42105263,9.77777778 C2.60021053,9.14161111 2.98273684,8.79083333 3.63157895,8.55555556 C3.63157895,8.55555556 6.35526316,7.94444444 9.38157895,7.94444444 C12.4078947,7.94444444 15.1315789,8.55555556 15.1315789,8.55555556 C15.7888947,8.75233333 16.2289211,9.12877778 16.3421053,9.77777778 C16.3421053,9.77777778 16.9473684,11.6111111 16.9473684,14.0555556 C16.9473684,16.5 16.3421053,18.3333333 16.3421053,18.3333333 L16.3421053,18.3333333 Z" id="Shape" fill="#263238"></path>
                <ellipse id="Oval" fill="#FF1744" cx="19.9736842" cy="9.77777778" rx="1.21052632" ry="1.22222222"></ellipse>
                <g id="Group" transform="translate(18.157895, 13.444444)" fill="#CFD8DC">
                    <rect id="Rectangle-path" x="0.0508421053" y="2.44444444" width="3.58073684" height="1.22222222"></rect>
                    <rect id="Rectangle-path" x="0.0508421053" y="0" width="3.58073684" height="1.22222222"></rect>
                    <rect id="Rectangle-path" x="0.0508421053" y="4.88888889" width="3.58073684" height="1.22222222"></rect>
                </g>
            </g>
        </g>
    </g>
</svg>