<?xml version="1.0" encoding="UTF-8" standalone="no"?>
<svg width="50px" height="50px" viewBox="0 0 50 50" version="1.1" xmlns="http://www.w3.org/2000/svg" xmlns:xlink="http://www.w3.org/1999/xlink">
    <!-- Generator: Sketch 39.1 (31720) - http://www.bohemiancoding.com/sketch -->
    <title>6300</title>
    <desc>Created with Sketch.</desc>
    <defs></defs>
    <g id="Tic-tac-toe-Copy" stroke="none" stroke-width="1" fill="none" fill-rule="evenodd">
        <g id="6300">
            <g id="Group-2" transform="translate(5.000000, 4.000000)">
                <path d="M33.2675644,42 L30.7324356,42 C30.3866262,41.4021986 29.7402824,41 29,41 C28.2597176,41 27.6133738,41.4021986 27.2675644,42 L24.7324356,42 C24.3866262,41.4021986 23.7402824,41 23,41 C22.2597176,41 21.6133738,41.4021986 21.2675644,42 L18.7324356,42 C18.3866262,41.4021986 17.7402824,41 17,41 C16.2597176,41 15.6133738,41.4021986 15.2675644,42 L12.7324356,42 C12.3866262,41.4021986 11.7402824,41 11,41 C10.2597176,41 9.61337381,41.4021986 9.26756439,42 L6.73243561,42 C6.38662619,41.4021986 5.74028236,41 5,41 C4.25971764,41 3.61337381,41.4021986 3.26756439,42 L0,42 L0,38 L40,38 L40,42 L36.7324356,42 C36.3866262,41.4021986 35.7402824,41 35,41 C34.2597176,41 33.6133738,41.4021986 33.2675644,42 L33.2675644,42 Z" id="Combined-Shape" fill="#90A4AE"></path>
                <path d="M33.2675644,4 L30.7324356,4 C30.3866262,3.40219863 29.7402824,3 29,3 C28.2597176,3 27.6133738,3.40219863 27.2675644,4 L24.7324356,4 C24.3866262,3.40219863 23.7402824,3 23,3 C22.2597176,3 21.6133738,3.40219863 21.2675644,4 L18.7324356,4 C18.3866262,3.40219863 17.7402824,3 17,3 C16.2597176,3 15.6133738,3.40219863 15.2675644,4 L12.7324356,4 C12.3866262,3.40219863 11.7402824,3 11,3 C10.2597176,3 9.61337381,3.40219863 9.26756439,4 L6.73243561,4 C6.38662619,3.40219863 5.74028236,3 5,3 C4.25971764,3 3.61337381,3.40219863 3.26756439,4 L0,4 L0,0 L40,0 L40,4 L36.7324356,4 C36.3866262,3.40219863 35.7402824,3 35,3 C34.2597176,3 33.6133738,3.40219863 33.2675644,4 L33.2675644,4 Z" id="Combined-Shape-Copy" fill="#90A4AE" transform="translate(20.000000, 2.000000) scale(1, -1) translate(-20.000000, -2.000000) "></path>
                <polygon id="Rectangle-21" fill="#CFD8DC" points="1.13466182 33.9601453 1 8 0 4 40 4 39 8 39 34 40 38 0 38"></polygon>
            </g>
            <g id="Controller" transform="translate(12.000000, 14.000000)">
                <path d="M12.5,6.65789474 C12.3583333,1.11671053 20.2380952,6.05263158 20.2380952,0" id="Shape" stroke="#546E7A" stroke-width="1.2"></path>
                <path d="M25,19.9736842 C25,21.9789211 23.8095238,23 22.0238095,23 C20.2380952,23 18.452381,18.1578947 16.0714286,18.1578947 L9.52380952,18.1578947 C7.14285714,18.1578947 4.76190476,23 2.97619048,23 C1.19047619,23 0,21.9789211 0,19.9736842 C0,19.9736842 0,5.44736842 5.35714286,5.44736842 C7.73809524,5.44736842 8.40238095,6.65789474 9.52380952,6.65789474 L14.8809524,6.65789474 C16.0029762,6.65789474 17.2619048,5.44736842 19.6428571,5.44736842 C25,5.44736842 25,19.9736842 25,19.9736842 L25,19.9736842 Z" id="Shape" fill="#263238"></path>
                <path d="M22.6613095,11.2494211 C23.1255952,11.7221316 23.1255952,12.4883947 22.6613095,12.9611053 L19.2940476,16.3850789 C18.8291667,16.8571842 18.0755952,16.8571842 17.6107143,16.3850789 L14.2434524,12.9611053 C13.7791667,12.4883947 13.7791667,11.7221316 14.2434524,11.2494211 L17.6107143,7.82544737 C18.0755952,7.35334211 18.8291667,7.35334211 19.2940476,7.82544737 L22.6613095,11.2494211 L22.6613095,11.2494211 Z" id="Shape" fill="#546E7A"></path>
                <ellipse id="Oval" fill="#FFC107" cx="18.452381" cy="9.68421053" rx="1.19047619" ry="1.21052632"></ellipse>
                <ellipse id="Oval" fill="#8BC34A" cx="18.452381" cy="14.5257105" rx="1.19047619" ry="1.21052632"></ellipse>
                <path d="M19.6428571,12.1052632 C19.6428571,11.4382632 20.1755952,10.8947368 20.8333333,10.8947368 C21.4904762,10.8947368 22.0238095,11.4382632 22.0238095,12.1052632 C22.0238095,12.7722632 21.4904762,13.3157895 20.8333333,13.3157895 C20.1761905,13.3157895 19.6428571,12.7722632 19.6428571,12.1052632 L19.6428571,12.1052632 Z" id="Shape" fill="#F44336"></path>
                <ellipse id="Oval" fill="#2196F3" cx="16.0714286" cy="12.1052632" rx="1.19047619" ry="1.21052632"></ellipse>
                <g id="Group" transform="translate(2.976190, 9.078947)" fill="#546E7A">
                    <rect id="Rectangle-path" x="2.38095238" y="0" width="2.38095238" height="2.42105263"></rect>
                    <rect id="Rectangle-path" x="4.76190476" y="2.42105263" width="2.38095238" height="2.42105263"></rect>
                    <rect id="Rectangle-path" x="0" y="2.42105263" width="2.38095238" height="2.42105263"></rect>
                    <rect id="Rectangle-path" x="2.38095238" y="4.84210526" width="2.38095238" height="2.42105263"></rect>
                </g>
            </g>
        </g>
    </g>
</svg>