<?xml version="1.0" encoding="UTF-8" standalone="no"?>
<svg width="50px" height="50px" viewBox="0 0 50 50" version="1.1" xmlns="http://www.w3.org/2000/svg" xmlns:xlink="http://www.w3.org/1999/xlink">
    <!-- Generator: Sketch 39.1 (31720) - http://www.bohemiancoding.com/sketch -->
    <title>6400</title>
    <desc>Created with Sketch.</desc>
    <defs></defs>
    <g id="Tic-tac-toe-Copy" stroke="none" stroke-width="1" fill="none" fill-rule="evenodd">
        <g id="6400">
            <g id="Group-2" transform="translate(5.000000, 4.000000)">
                <path d="M33.2675644,42 L30.7324356,42 C30.3866262,41.4021986 29.7402824,41 29,41 C28.2597176,41 27.6133738,41.4021986 27.2675644,42 L24.7324356,42 C24.3866262,41.4021986 23.7402824,41 23,41 C22.2597176,41 21.6133738,41.4021986 21.2675644,42 L18.7324356,42 C18.3866262,41.4021986 17.7402824,41 17,41 C16.2597176,41 15.6133738,41.4021986 15.2675644,42 L12.7324356,42 C12.3866262,41.4021986 11.7402824,41 11,41 C10.2597176,41 9.61337381,41.4021986 9.26756439,42 L6.73243561,42 C6.38662619,41.4021986 5.74028236,41 5,41 C4.25971764,41 3.61337381,41.4021986 3.26756439,42 L0,42 L0,38 L40,38 L40,42 L36.7324356,42 C36.3866262,41.4021986 35.7402824,41 35,41 C34.2597176,41 33.6133738,41.4021986 33.2675644,42 L33.2675644,42 Z" id="Combined-Shape" fill="#A1887F"></path>
                <path d="M33.2675644,4 L30.7324356,4 C30.3866262,3.40219863 29.7402824,3 29,3 C28.2597176,3 27.6133738,3.40219863 27.2675644,4 L24.7324356,4 C24.3866262,3.40219863 23.7402824,3 23,3 C22.2597176,3 21.6133738,3.40219863 21.2675644,4 L18.7324356,4 C18.3866262,3.40219863 17.7402824,3 17,3 C16.2597176,3 15.6133738,3.40219863 15.2675644,4 L12.7324356,4 C12.3866262,3.40219863 11.7402824,3 11,3 C10.2597176,3 9.61337381,3.40219863 9.26756439,4 L6.73243561,4 C6.38662619,3.40219863 5.74028236,3 5,3 C4.25971764,3 3.61337381,3.40219863 3.26756439,4 L0,4 L0,0 L40,0 L40,4 L36.7324356,4 C36.3866262,3.40219863 35.7402824,3 35,3 C34.2597176,3 33.6133738,3.40219863 33.2675644,4 L33.2675644,4 Z" id="Combined-Shape-Copy" fill="#A1887F" transform="translate(20.000000, 2.000000) scale(1, -1) translate(-20.000000, -2.000000) "></path>
                <polygon id="Rectangle-21" fill="#D7CCC8" points="1.13466182 33.9601453 1 8 0 4 40 4 39 8 39 34 40 38 0 38"></polygon>
            </g>
            <g id="Globe-Earth" transform="translate(16.000000, 14.000000)">
                <path d="M10.4193548,17.2493947 L9.19354839,17.2493947 C9.19354839,20.8809737 5.51612903,21.4862368 5.51612903,21.4862368 L5.51612903,22.6967632 L14.0967742,22.6967632 L14.0967742,21.4862368 C14.0967742,21.4862368 10.4193548,20.8809737 10.4193548,17.2493947 L10.4193548,17.2493947 Z" id="Shape" fill="#5D4037"></path>
                <ellipse id="Oval" fill="#90CAF9" cx="9.52145161" cy="7.84602632" rx="6.74193548" ry="6.65789474"></ellipse>
                <path d="M1.5763871,0 L18.5807742,16.7930263" id="Shape" stroke="#8D6E63" stroke-width="1.2"></path>
                <g id="Group" transform="translate(1.838710, 0.605263)" stroke="#1E88E5">
                    <ellipse id="Oval" stroke-width="1.2" cx="7.68274194" cy="7.24076316" rx="6.74193548" ry="6.65789474"></ellipse>
                    <ellipse id="Oval" stroke-width="1.19998849" transform="translate(7.682153, 7.241649) rotate(225.000000) translate(-7.682153, -7.241649) " cx="7.68215281" cy="7.24164938" rx="6.74187083" ry="3.32831019"></ellipse>
                    <path d="M9.2726129,0.964789474 L1.32693548,8.81081579" id="Shape" stroke-width="1.2"></path>
                    <path d="M14.0391613,5.67192105 L6.09409677,13.5191579" id="Shape" stroke-width="1.2"></path>
                    <path d="M2.91558065,11.9491053 L12.4499032,2.53302632" id="Shape" stroke-width="1.2"></path>
                    <path d="M2.91558065,2.53302632 L12.4499032,11.9491053" id="Shape" stroke-width="1.2"></path>
                </g>
                <g id="Group">
                    <path d="M4.63722581,0.153131579 C4.06293548,0.509026316 3.52051613,0.933315789 3.021,1.42660526 C-0.569387097,4.97344737 -0.569387097,10.7210263 3.021,14.2666579 C6.61077419,17.8116842 12.4315161,17.8122895 16.0219032,14.2666579 L16.4619677,13.8544737" id="Shape" stroke="#795548" stroke-width="1.8"></path>
                    <rect id="Rectangle-path" fill="#795548" x="5.51612903" y="21.4862368" width="8.58064516" height="1.21052632"></rect>
                </g>
            </g>
        </g>
    </g>
</svg>