<?xml version="1.0" encoding="UTF-8" standalone="no"?>
<svg width="50px" height="50px" viewBox="0 0 50 50" version="1.1" xmlns="http://www.w3.org/2000/svg" xmlns:xlink="http://www.w3.org/1999/xlink">
    <!-- Generator: Sketch 39.1 (31720) - http://www.bohemiancoding.com/sketch -->
    <title>6600</title>
    <desc>Created with Sketch.</desc>
    <defs></defs>
    <g id="Tic-tac-toe" stroke="none" stroke-width="1" fill="none" fill-rule="evenodd">
        <g id="6600" fill="#2196F3">
            <path d="M43.8284271,38.1715729 C45.3905243,39.73367 45.3905243,42.26633 43.8284271,43.8284271 C42.26633,45.3905243 39.73367,45.3905243 38.1715729,43.8284271 L25,30.6568542 L11.8284271,43.8284271 C10.26633,45.3905243 7.73367004,45.3905243 6.17157288,43.8284271 C4.60947571,42.26633 4.60947571,39.73367 6.17157288,38.1715729 L19.3431458,25 L6.17157288,11.8284271 C4.60947571,10.26633 4.60947571,7.73367004 6.17157288,6.17157288 C7.73367004,4.60947571 10.26633,4.60947571 11.8284271,6.17157288 L25,19.3431458 L38.1715729,6.17157288 C39.73367,4.60947571 42.26633,4.60947571 43.8284271,6.17157288 C45.3905243,7.73367004 45.3905243,10.26633 43.8284271,11.8284271 L30.6568542,25 L43.8284271,38.1715729 Z" id="Combined-Shape"></path>
        </g>
    </g>
</svg>