<?xml version="1.0" encoding="UTF-8" standalone="no"?>
<svg width="50px" height="50px" viewBox="0 0 50 50" version="1.1" xmlns="http://www.w3.org/2000/svg" xmlns:xlink="http://www.w3.org/1999/xlink">
    <!-- Generator: Sketch 39.1 (31720) - http://www.bohemiancoding.com/sketch -->
    <title>702</title>
    <desc>Created with Sketch.</desc>
    <defs></defs>
    <g id="Clay-accessories" stroke="none" stroke-width="1" fill="none" fill-rule="evenodd">
        <g id="702">
            <g id="Scarf" transform="translate(8.000000, 6.000000)">
                <path d="M34,10.001 L31,3 C31,3 28.048,7.429 21.453,11.454 C19.228,12.811 15.772,13.797 13.006,15.002 L13,15.001 C13,15.001 2,19.001 0,27.001 L6,32.001 C6,32.001 7.792,25.751 13.156,21.305 C10.952,24.843 8.523,29.78 8,35.001 L18,38.001 C18,38.001 18,27.673 24.389,19.792 C26.688,17.328 31.985,13.313 32.641,12.406 L32.632,12.408 C33.813,11.105 34,10.001 34,10.001 L34,10.001 Z" id="Shape" fill="#7B1FA2"></path>
                <g id="Group" transform="translate(7.000000, 0.000000)" fill="#4A148C">
                    <path d="M10.093,18.78 C7.053,18.109 4.775,17.246 3.068,16.339 C2.445,16.664 1.76,17.049 1.045,17.492 C2.657,18.484 4.794,19.434 7.601,20.215 C8.37,19.689 9.197,19.205 10.093,18.78 L10.093,18.78 Z" id="Shape"></path>
                    <path d="M17.07,9.697 C16.283,10.269 15.431,10.843 14.502,11.414 C18.354,11.935 22.025,12.029 24.145,12.029 C25.04,12.029 25.653,12.012 25.889,12.005 C25.889,12.005 19.938,10.5 17.07,9.697 L17.07,9.697 Z" id="Shape"></path>
                    <path d="M20.188,7.173 C22.781,4.815 24,3 24,3 C24,3 23,0.001 13,0.001 C3,0.001 0,3.001 0,3.001 C0.201,5.015 1.386,6.576 3.134,7.796 C5.902,6.774 9.449,6.001 13,6.001 C15.504,6.001 18.003,6.516 20.188,7.173 L20.188,7.173 Z" id="Shape"></path>
                </g>
                <path d="M17.093,18.78 C16.197,19.206 15.369,19.69 14.601,20.215 C14.083,20.569 13.604,20.944 13.141,21.328 C11.764,23.541 10.308,26.293 9.277,29.328 C10.639,26.695 13.146,23.074 17.366,20.876 C19.034,21.217 20.918,21.492 22.994,21.702 C23.415,21.064 23.871,20.439 24.367,19.826 C24.363,19.826 24.359,19.825 24.355,19.825 C21.553,19.594 19.145,19.233 17.093,18.78 L17.093,18.78 Z" id="Shape" fill="#4A148C"></path>
                <path d="M7,3.001 L5,11.001 C5,11.001 6,19.001 27,20.001 L33,12.001 C33,12.001 8,13.001 7,3.001 L7,3.001 Z" id="Shape" fill="#9C27B0"></path>
            </g>
        </g>
    </g>
</svg>