<?xml version="1.0" encoding="UTF-8" standalone="no"?>
<svg width="76px" height="76px" viewBox="0 0 76 76" version="1.1" xmlns="http://www.w3.org/2000/svg" xmlns:xlink="http://www.w3.org/1999/xlink" xmlns:sketch="http://www.bohemiancoding.com/sketch/ns">
    <!-- Generator: Sketch 3.3.3 (12081) - http://www.bohemiancoding.com/sketch -->
    <title>cat_peeking</title>
    <desc>Created with Sketch.</desc>
    <defs>
        <filter x="-50%" y="-50%" width="200%" height="200%" filterUnits="objectBoundingBox" id="filter-1">
            <feOffset dx="0" dy="2" in="SourceAlpha" result="shadowOffsetOuter1"></feOffset>
            <feGaussianBlur stdDeviation="2" in="shadowOffsetOuter1" result="shadowBlurOuter1"></feGaussianBlur>
            <feColorMatrix values="0 0 0 0 0   0 0 0 0 0   0 0 0 0 0  0 0 0 0.182 0" in="shadowBlurOuter1" type="matrix" result="shadowMatrixOuter1"></feColorMatrix>
            <feMerge>
                <feMergeNode in="shadowMatrixOuter1"></feMergeNode>
                <feMergeNode in="SourceGraphic"></feMergeNode>
            </feMerge>
        </filter>
    </defs>
    <g id="Assets" stroke="none" stroke-width="1" fill="none" fill-rule="evenodd" sketch:type="MSPage">
        <g id="cat_peeking" sketch:type="MSArtboardGroup" fill="#FFFFFF">
            <path d="M70.3454945,6.69238447 C70.725238,7.72835796 70.9121028,8.92263706 70.9757881,10.3307379 C71.074378,12.5105905 70.8684393,15.3137563 70.4207892,18.5021538 C69.6054086,24.3097203 68.0998611,30.4425913 66.851541,33.2567887 L67.6823467,31.1087249 C67.6823467,31.1087249 74.5002651,43.3375279 62.5562221,56.6049083 C60.4048995,58.9945862 57.6050189,60.8724502 54.6307611,62.6401613 C51.3110023,64.6132165 47.7834508,66.1976783 44.2583682,67.4398752 C42.1332075,68.1887565 40.4566211,68.663666 39.4427616,68.8982869 L39.0032324,69 L38.5523113,69 L37.7086458,69 L37.257685,69 L36.818119,68.8982692 C35.804191,68.6636113 34.1274947,68.1886252 32.0021967,67.4396207 C28.4768911,66.197221 24.9491176,64.6124948 21.6291543,62.6391063 C18.6556756,60.8716685 15.9067136,58.947904 13.7059652,56.6055506 C6.87052176,49.3302874 4.19334497,37.6407021 9.71331531,29.2053333 L8.56613771,31.1466089 C8.56613771,31.1466089 6.27533053,23.2859126 5.50935397,18.97825 C4.95558718,15.8640027 4.8500052,8.441815 5.20904894,7.39905838 C5.85940302,5.51026058 7.22144005,4.03307905 9.3790197,3.74414684 C12.4241106,3.33532277 15.8842987,4.38203257 19.9689308,6.47579406 C21.5215485,7.27165792 23.1354446,8.21063259 24.8079909,9.27322389 C26.4133669,10.293141 27.9681456,11.3577544 29.6055112,12.5340496 C30.133924,12.9136652 31.8339829,14.1561318 31.9350174,14.2223929 L30.3645758,13.041597 C30.3645758,13.041597 34.6523995,11.9474932 36.7973938,11.9748994 L39.4162531,11.9752042 C42.3567391,11.9386591 45.2510961,12.6223448 48.1292988,13.9249235 L45.8618023,12.9851707 C45.8618023,12.9851707 49.5708324,10.0959552 51.0554035,9.04675134 C52.7536996,7.84649977 54.3858528,6.79702716 55.9590144,5.91736879 C59.8115081,3.76318554 63.1399565,2.67733779 66.171648,3.08432427 C68.3165014,3.37191973 69.6599756,4.82222865 70.3454945,6.69238447 Z" id="Shape-Copy" filter="url(#filter-1)" sketch:type="MSShapeGroup"></path>
            <rect id="Shape-Copy-2" sketch:type="MSShapeGroup" x="3" y="47.0057624" width="70" height="25" rx="2"></rect>
        </g>
    </g>
</svg>