<?xml version="1.0" encoding="UTF-8" standalone="no"?>
<svg width="24px" height="24px" viewBox="0 0 24 24" version="1.1" xmlns="http://www.w3.org/2000/svg" xmlns:xlink="http://www.w3.org/1999/xlink" xmlns:sketch="http://www.bohemiancoding.com/sketch/ns">
    <!-- Generator: Sketch 3.3.3 (12081) - http://www.bohemiancoding.com/sketch -->
    <title>ic_gold</title>
    <desc>Created with Sketch.</desc>
    <defs></defs>
    <g id="Assets" stroke="none" stroke-width="1" fill="none" fill-rule="evenodd" sketch:type="MSPage">
        <g id="ic_gold" sketch:type="MSArtboardGroup" fill="#000000">
            <path d="M19.9028051,15.3997849 C21.2053007,13.9767372 22,12.0811746 22,10 C22,5.581722 18.418278,2 14,2 C11.9188254,2 10.0232628,2.79469931 8.60021507,4.09719494 C9.05761705,4.03312628 9.52493999,4 10,4 C15.5228475,4 20,8.4771525 20,14 C20,14.47506 19.9668737,14.942383 19.9028051,15.3997849 L19.9028051,15.3997849 Z M10,22 C14.418278,22 18,18.418278 18,14 C18,9.581722 14.418278,6 10,6 C5.581722,6 2,9.581722 2,14 C2,18.418278 5.581722,22 10,22 Z M9,19 L11,19 L11,18 L12,18 C12.55,18 13,17.55 13,17 L13,14 C13,13.45 12.55,13 12,13 L9,13 L9,12 L13,12 L13,10 L11,10 L11,9 L9,9 L9,10 L8,10 C7.45,10 7,10.45 7,11 L7,14 C7,14.55 7.45,15 8,15 L11,15 L11,16 L7,16 L7,18 L9,18 L9,19 Z" id="Oval-1-Copy" sketch:type="MSShapeGroup"></path>
        </g>
    </g>
</svg>