<?xml version="1.0" encoding="UTF-8" standalone="no"?>
<svg width="24px" height="24px" viewBox="0 0 24 24" version="1.1" xmlns="http://www.w3.org/2000/svg" xmlns:xlink="http://www.w3.org/1999/xlink" xmlns:sketch="http://www.bohemiancoding.com/sketch/ns">
    <!-- Generator: Sketch 3.3.3 (12081) - http://www.bohemiancoding.com/sketch -->
    <title>ic_gold</title>
    <desc>Created with Sketch.</desc>
    <defs></defs>
    <g id="Assets" stroke="none" stroke-width="1" fill="none" fill-rule="evenodd" sketch:type="MSPage">
        <g id="ic_gold" sketch:type="MSArtboardGroup" fill="#000000">
            <path d="M12,22 C17.5228475,22 22,17.5228475 22,12 C22,6.4771525 17.5228475,2 12,2 C6.4771525,2 2,6.4771525 2,12 C2,17.5228475 6.4771525,22 12,22 Z M14.4,7 L9.6,7 C8.64,7 8,7.83333333 8,8.66666667 L8,15.3333333 C8,16.1666667 8.64,17 9.6,17 L14.4,17 C15.36,17 16,16.1666667 16,15.3333333 L16,12 L13.6,12 L13.6,14.5 L10.4,14.5 L10.4,9.5 L16,9.5 L16,8.66666667 C16,7.83333333 15.36,7 14.4,7 Z" id="Oval-30" sketch:type="MSShapeGroup"></path>
        </g>
    </g>
</svg>