<?xml version="1.0" encoding="UTF-8" standalone="no"?>
<svg width="24px" height="24px" viewBox="0 0 24 24" version="1.1" xmlns="http://www.w3.org/2000/svg" xmlns:xlink="http://www.w3.org/1999/xlink" xmlns:sketch="http://www.bohemiancoding.com/sketch/ns">
    <!-- Generator: Sketch 3.3.3 (12081) - http://www.bohemiancoding.com/sketch -->
    <title>ic_reward</title>
    <desc>Created with Sketch.</desc>
    <defs></defs>
    <g id="Assets" stroke="none" stroke-width="1" fill="none" fill-rule="evenodd" sketch:type="MSPage">
        <g id="ic_reward" sketch:type="MSArtboardGroup" fill="#ffffff">
            <path d="M20,7 L17.82,7 C17.93,6.69 18,6.35 18,6 C18,4.34 16.66,3 15,3 C13.95,3 13.04,3.54 12.5,4.35 L12,5.02 L11.5,4.34 C10.96,3.54 10.05,3 9,3 C7.34,3 6,4.34 6,6 C6,6.35 6.07,6.69 6.18,7 L4,7 C2.89,7 2.01,7.89 2.01,9 L2,20 C2,21.11 2.89,22 4,22 L20,22 C21.11,22 22,21.11 22,20 L22,9 C22,7.89 21.11,7 20,7 L20,7 Z M15,5 C15.55,5 16,5.45 16,6 C16,6.55 15.55,7 15,7 C14.45,7 14,6.55 14,6 C14,5.45 14.45,5 15,5 L15,5 Z M9,5 C9.55,5 10,5.45 10,6 C10,6.55 9.55,7 9,7 C8.45,7 8,6.55 8,6 C8,5.45 8.45,5 9,5 L9,5 Z M4,20 L4,9 L9.08,9 L7,11.83 L8.62,13 L11,9.76 L12,8.4 L13,9.76 L15.38,13 L17,11.83 L14.92,9 L20,9 L20,20 L4,20 Z" id="Shape" sketch:type="MSShapeGroup"></path>
        </g>
    </g>
</svg>
