<svg xmlns='http://www.w3.org/2000/svg'>
  <defs>
    <style type='text/css'>
    .icon {display: none;}
    .icon:target {display: block;}
    </style>
  </defs>

      <svg class="icon" id="ic_add" viewBox="0 0 24 24">
        <path d="M19 13h-6v6h-2v-6H5v-2h6V5h2v6h6v2z"/>
      </svg>

      <svg class="icon" id="ic_add_circle" viewBox="0 0 24 24">
        <path d="M12 2C6.48 2 2 6.48 2 12s4.48 10 10 10 10-4.48 10-10S17.52 2 12 2zm5 11h-4v4h-2v-4H7v-2h4V7h2v4h4v2z"/>
      </svg>

      <svg class="icon" id="ic_add_friend" viewBox="0 0 24 24">
        <path d="M15 12c2.21 0 4-1.79 4-4s-1.79-4-4-4-4 1.79-4 4 1.79 4 4 4zm-9-2V7H4v3H1v2h3v3h2v-3h3v-2H6zm9 4c-2.67 0-8 1.34-8 4v2h16v-2c0-2.66-5.33-4-8-4z"/>
      </svg>

      <svg class="icon" id="ic_award" viewBox="0 0 24 24">
        <path d="M15.2,10.7L16.6,16L12,12.2L7.4,16L8.8,10.8L4.6,7.3L10,7L12,2L14,7L19.4,7.3L15.2,10.7M14,19.1H13V16L12,15L11,16V19.1H10A2,2 0 0,0 8,21.1V22.1H16V21.1A2,2 0 0,0 14,19.1Z"/>
      </svg>

      <svg class="icon" id="ic_back" viewBox="0 0 24 24">
        <path d="M20 11H7.83l5.59-5.59L12 4l-8 8 8 8 1.41-1.41L7.83 13H20v-2z"/>
      </svg>

      <svg class="icon" id="ic_block" viewBox="0 0 24 24">
        <path d="M12 2C6.48 2 2 6.48 2 12s4.48 10 10 10 10-4.48 10-10S17.52 2 12 2zM4 12c0-4.42 3.58-8 8-8 1.85 0 3.55.63 4.9 1.69L5.69 16.9C4.63 15.55 4 13.85 4 12zm8 8c-1.85 0-3.55-.63-4.9-1.69L18.31 7.1C19.37 8.45 20 10.15 20 12c0 4.42-3.58 8-8 8z"/>
      </svg>

      <svg class="icon" id="ic_cat" viewBox="0 0 24 24">
        <path d="M21.79 3.31c.124.34.183.718.203 1.16.03.66-.032 1.5-.164 2.45-.243 1.73-.693 3.632-.77 3.62 1.122 1.988.848 5.268-1.613 7.725-1.217 1.215-2.76 2.157-4.475 2.877-.59.25-1.163.453-1.696.617-.327.1-1.07.24-1.07.24h-.244s-.742-.14-1.07-.24c-.532-.165-1.104-.37-1.695-.618-1.715-.72-3.26-1.662-4.475-2.877-2.46-2.458-2.643-5.882-1.62-7.71-.065.007-.568-1.85-.856-3.484-.164-.93-.253-1.743-.246-2.388.006-.44.053-.817.17-1.16.227-.662.714-1.194 1.502-1.3 1.18-.16 2.495.334 4.09 1.276.605.356 2.122 1.405 2.122 1.405.602-.187 1.208-.282 1.813-.274h.757c.914-.012 1.81.2 1.793.258 0 0 1.035-.836 1.983-1.46 1.555-1.023 2.848-1.563 4.06-1.4.783.107 1.262.627 1.5 1.28z"/>
      </svg>

      <svg class="icon" id="ic_chevron_left" viewBox="0 0 24 24">
        <path d="M15.41 7.41L14 6l-6 6 6 6 1.41-1.41L10.83 12z"/>
      </svg>

      <svg class="icon" id="ic_chevron_right" viewBox="0 0 24 24">
        <path d="M10 6L8.59 7.41 13.17 12l-4.58 4.59L10 18l6-6z"/>
      </svg>

      <svg class="icon" id="ic_chat" viewBox="0 0 24 24">
        <path d="M21 6h-2v9H6v2c0 .55.45 1 1 1h11l4 4V7c0-.55-.45-1-1-1zm-4 6V3c0-.55-.45-1-1-1H3c-.55 0-1 .45-1 1v14l4-4h10c.55 0 1-.45 1-1z"/>
      </svg>

      <svg class="icon" id="ic_chat_bubble" viewBox="0 0 24 24">
        <path d="M20 2H4c-1.1 0-1.99.9-1.99 2L2 22l4-4h14c1.1 0 2-.9 2-2V4c0-1.1-.9-2-2-2zM6 9h12v2H6V9zm8 5H6v-2h8v2zm4-6H6V6h12v2z"/>
      </svg>

      <svg class="icon" id="ic_check" viewBox="0 0 24 24">
        <path d="M9 16.2L4.8 12l-1.4 1.4L9 19 21 7l-1.4-1.4L9 16.2z"/>
      </svg>

      <svg class="icon" id="ic_clear" viewBox="0 0 24 24">
        <path d="M12 2C6.47 2 2 6.47 2 12s4.47 10 10 10 10-4.47 10-10S17.53 2 12 2zm5 13.59L15.59 17 12 13.41 8.41 17 7 15.59 10.59 12 7 8.41 8.41 7 12 10.59 15.59 7 17 8.41 13.41 12 17 15.59z"/>
      </svg>

      <svg class="icon" id="ic_close" viewBox="0 0 24 24">
        <path d="M19 6.41L17.59 5 12 10.59 6.41 5 5 6.41 10.59 12 5 17.59 6.41 19 12 13.41 17.59 19 19 17.59 13.41 12z"/>
      </svg>

      <svg class="icon" id="ic_collection" viewBox="0 0 24 24">
        <path d="M21.65 4.1l-1.34-.56v9.03l2.43-5.86c.41-1.02-.08-2.19-1.09-2.61zM2.15 7.8l4.96 11.97c.31.75 1.04 1.21 1.81 1.23.26 0 .53-.04.79-.15l7.37-3.05c.75-.31 1.21-1.03 1.23-1.8.01-.27-.04-.54-.15-.8L13.2 3.23c-.31-.76-1.05-1.22-1.83-1.23-.26 0-.52.05-.77.15L3.24 5.2c-1.02.42-1.51 1.59-1.09 2.6zM18.3 4c0-1.1-.9-2-2-2h-1.45l3.45 8.34V4z"/>
      </svg>

      <svg class="icon" id="ic_comment" viewBox="0 0 24 24">
        <path d="M21.99 4c0-1.1-.89-2-1.99-2H4c-1.1 0-2 .9-2 2v12c0 1.1.9 2 2 2h14l4 4-.01-18zM18 14H6v-2h12v2zm0-3H6V9h12v2zm0-3H6V6h12v2z"/>
      </svg>

      <svg class="icon" id="ic_cp" viewBox="0 0 24 24">
        <path d="M19,4 L5,4 C3.89,4 3,4.9 3,6 L3,18 C3,19.1 3.89,20 5,20 L19,20 C20.1,20 21,19.1 21,18 L21,6 C21,4.9 20.1,4 19,4 L19,4 Z M11,11 L9.5,11 L9.5,10.5 L7.5,10.5 L7.5,13.5 L9.5,13.5 L9.5,13 L11,13 L11,14 C11,14.55 10.55,15 10,15 L7,15 C6.45,15 6,14.55 6,14 L6,10 C6,9.45 6.45,9 7,9 L10,9 C10.55,9 11,9.45 11,10 L11,11 Z M18,11.5 C18,12.35 17.35,13 16.5,13 L14.5,13 L14.5,15 L13,15 L13,9 L16.5,9 C17.35,9 18,9.65 18,10.5 L18,11.5 Z M14.5,10.5 L16.5,10.5 L16.5,11.5 L14.5,11.5 L14.5,10.5 Z"/>
      </svg>

      <svg class="icon" id="ic_delete" viewBox="0 0 24 24">
        <path d="M6 19c0 1.1.9 2 2 2h8c1.1 0 2-.9 2-2V7H6v12zM19 4h-3.5l-1-1h-5l-1 1H5v2h14V4z"/>
      </svg>

      <svg class="icon" id="ic_dog" viewBox="0 0 24 24">
        <path d="M4.5 11C5.88 11 7 9.88 7 8.5S5.88 6 4.5 6 2 7.12 2 8.5 3.12 11 4.5 11zM9 7c1.38 0 2.5-1.12 2.5-2.5S10.38 2 9 2 6.5 3.12 6.5 4.5 7.62 7 9 7zm6 0c1.38 0 2.5-1.12 2.5-2.5S16.38 2 15 2s-2.5 1.12-2.5 2.5S13.62 7 15 7zm4.5 4c1.38 0 2.5-1.12 2.5-2.5S20.88 6 19.5 6 17 7.12 17 8.5s1.12 2.5 2.5 2.5zm-2.16 2.86c-.87-1.02-1.6-1.89-2.48-2.91-.46-.54-1.05-1.08-1.75-1.32-.11-.04-.22-.07-.33-.09-.25-.04-.52-.04-.78-.04s-.53 0-.79.05c-.11.02-.22.05-.33.09-.7.24-1.28.78-1.75 1.32-.87 1.02-1.6 1.89-2.48 2.91-1.31 1.31-2.92 2.76-2.62 4.79.29 1.02 1.02 2.03 2.33 2.32.73.15 3.06-.44 5.54-.44h.18c2.48 0 4.81.58 5.54.44 1.31-.29 2.04-1.31 2.33-2.32.31-2.04-1.3-3.49-2.61-4.8z"/>
      </svg>

      <svg class="icon" id="ic_edit" viewBox="0 0 24 24">
        <path d="M3 17.25V21h3.75L17.81 9.94l-3.75-3.75L3 17.25zM20.71 7.04c.39-.39.39-1.02 0-1.41l-2.34-2.34c-.39-.39-1.02-.39-1.41 0l-1.83 1.83 3.75 3.75 1.83-1.83z"/>
      </svg>

      <svg class="icon" id="ic_email" viewBox="0 0 24 24">
        <path d="M20 4H4c-1.1 0-1.99.9-1.99 2L2 18c0 1.1.9 2 2 2h16c1.1 0 2-.9 2-2V6c0-1.1-.9-2-2-2zm0 4l-8 5-8-5V6l8 5 8-5v2z"/>
      </svg>

      <svg class="icon" id="ic_expand_less" viewBox="0 0 24 24">
        <path d="M12 8l-6 6 1.41 1.41L12 10.83l4.59 4.58L18 14z"/>
      </svg>

      <svg class="icon" id="ic_expand_more" viewBox="0 0 24 24">
        <path d="M16.59 8.59L12 13.17 7.41 8.59 6 10l6 6 6-6z"/>
      </svg>

      <svg class="icon" id="ic_facebook" viewBox="0 0 24 24">
        <path d="M20.897 2H3.104C2.494 2 2 2.494 2 3.104v17.792C2 21.506 2.494 22 3.104 22h9.58v-7.745h-2.607v-3.02h2.606V9.012c0-2.582 1.577-3.99 3.883-3.99.777-.002 1.555.038 2.33.12v2.697h-1.6c-1.253 0-1.5.596-1.5 1.47v1.927h2.99l-.388 3.02H15.8V22h5.096c.61 0 1.104-.494 1.104-1.104V3.104C22 2.494 21.506 2 20.897 2z"/>
      </svg>

      <svg class="icon" id="ic_feedback" viewBox="0 0 24 24">
        <path d="M20 2H4c-1.1 0-1.99.9-1.99 2L2 22l4-4h14c1.1 0 2-.9 2-2V4c0-1.1-.9-2-2-2zm-7 12h-2v-2h2v2zm0-4h-2V6h2v4z"/>
      </svg>

      <svg class="icon" id="ic_filter" viewBox="0 0 24 24">
        <path d="M10 18h4v-2h-4v2zM3 6v2h18V6H3zm3 7h12v-2H6v2z"/>
      </svg>

      <svg class="icon" id="ic_forward" viewBox="0 0 24 24">
        <path d="M12 4l-1.41 1.41L16.17 11H4v2h12.17l-5.58 5.59L12 20l8-8z"/>
      </svg>

      <svg class="icon" id="ic_friends" viewBox="0 0 24 24">
        <path d="M16 11c1.66 0 2.99-1.34 2.99-3S17.66 5 16 5c-1.66 0-3 1.34-3 3s1.34 3 3 3zm-8 0c1.66 0 2.99-1.34 2.99-3S9.66 5 8 5C6.34 5 5 6.34 5 8s1.34 3 3 3zm0 2c-2.33 0-7 1.17-7 3.5V19h14v-2.5c0-2.33-4.67-3.5-7-3.5zm8 0c-.29 0-.62.02-.97.05 1.16.84 1.97 1.97 1.97 3.45V19h6v-2.5c0-2.33-4.67-3.5-7-3.5z"/>
      </svg>

      <svg class="icon" id="ic_global" viewBox="0 0 24 24">
        <path d="M12 2C6.48 2 2 6.48 2 12s4.48 10 10 10 10-4.48 10-10S17.52 2 12 2zm-1 17.93c-3.95-.49-7-3.85-7-7.93 0-.62.08-1.21.21-1.79L9 15v1c0 1.1.9 2 2 2v1.93zm6.9-2.54c-.26-.81-1-1.39-1.9-1.39h-1v-3c0-.55-.45-1-1-1H8v-2h2c.55 0 1-.45 1-1V7h2c1.1 0 2-.9 2-2v-.41c2.93 1.19 5 4.06 5 7.41 0 2.08-.8 3.97-2.1 5.39z"/>
      </svg>

      <svg class="icon" id="ic_gold" viewBox="0 0 24 24">
        <path d="M12 22c5.523 0 10-4.477 10-10S17.523 2 12 2 2 6.477 2 12s4.477 10 10 10zm2.4-15H9.6C8.64 7 8 7.833 8 8.667v6.666C8 16.167 8.64 17 9.6 17h4.8c.96 0 1.6-.833 1.6-1.667V12h-2.4v2.5h-3.2v-5H16v-.833C16 7.833 15.36 7 14.4 7z" fill-rule="evenodd"/>
      </svg>

      <svg class="icon" id="ic_home" viewBox="0 0 24 24">
        <path d="M10 20v-6h4v6h5v-8h3L12 3 2 12h3v8z"/>
      </svg>

      <svg class="icon" id="ic_image" viewBox="0 0 24 24">
        <path d="M21 19V5c0-1.1-.9-2-2-2H5c-1.1 0-2 .9-2 2v14c0 1.1.9 2 2 2h14c1.1 0 2-.9 2-2zM8.5 13.5l2.5 3.01L14.5 12l4.5 6H5l3.5-4.5z"/>
      </svg>

      <svg class="icon" id="ic_install" viewBox="0 0 24 24">
        <path d="M19 9h-4V3H9v6H5l7 7 7-7zM5 18v2h14v-2H5z"/>
      </svg>

      <svg class="icon" id="ic_leave" viewBox="0 0 24 24">
        <path d="M10.09 15.59L11.5 17l5-5-5-5-1.41 1.41L12.67 11H3v2h9.67l-2.58 2.59zM19 3H5c-1.11 0-2 .9-2 2v4h2V5h14v14H5v-4H3v4c0 1.1.89 2 2 2h14c1.1 0 2-.9 2-2V5c0-1.1-.9-2-2-2z"/>
      </svg>

      <svg class="icon" id="ic_link" viewBox="0 0 24 24">
        <path d="M3.9 12c0-1.71 1.39-3.1 3.1-3.1h4V7H7c-2.76 0-5 2.24-5 5s2.24 5 5 5h4v-1.9H7c-1.71 0-3.1-1.39-3.1-3.1zM8 13h8v-2H8v2zm9-6h-4v1.9h4c1.71 0 3.1 1.39 3.1 3.1s-1.39 3.1-3.1 3.1h-4V17h4c2.76 0 5-2.24 5-5s-2.24-5-5-5z"/>
      </svg>

      <svg class="icon" id="ic_lock" viewBox="0 0 24 24">
        <path d="M12 22c5.523 0 10-4.477 10-10S17.523 2 12 2 2 6.477 2 12s4.477 10 10 10zm3.75-12.667h-.625V8.095C15.125 6.387 13.725 5 12 5S8.875 6.387 8.875 8.095v1.238H8.25C7.562 9.333 7 9.89 7 10.57v6.192C7 17.442 7.563 18 8.25 18h7.5c.688 0 1.25-.557 1.25-1.238v-6.19c0-.682-.563-1.24-1.25-1.24zM12 14.905c-.688 0-1.25-.557-1.25-1.238 0-.68.563-1.238 1.25-1.238.688 0 1.25.556 1.25 1.237 0 .68-.563 1.238-1.25 1.238zm1.938-5.572h-3.876V8.095c0-1.058.87-1.92 1.938-1.92 1.07 0 1.938.862 1.938 1.92v1.238z" fill-rule="evenodd"/>
      </svg>

      <svg class="icon" id="ic_menu" viewBox="0 0 24 24">
        <path d="M3 18h18v-2H3v2zm0-5h18v-2H3v2zm0-7v2h18V6H3z"/>
      </svg>

      <svg class="icon" id="ic_new" viewBox="0 0 24 24">
        <path d="M23 12l-2.44-2.78.34-3.68-3.61-.82-1.89-3.18L12 3 8.6 1.54 6.71 4.72l-3.61.81.34 3.68L1 12l2.44 2.78-.34 3.69 3.61.82 1.89 3.18L12 21l3.4 1.46 1.89-3.18 3.61-.82-.34-3.68L23 12zm-10 5h-2v-2h2v2zm0-4h-2V7h2v6z"/>
      </svg>

      <!-- View box of 48 x 48 -->
      <svg class="icon" id="ic_new_trade" viewBox="0 0 48 48">
        <path d="M14 24c0 5.52 4.48 10 10 10s10-4.48 10-10-4.48-10-10-10-10 4.48-10 10zm7 5.5L17.5 26l3.5-3.5V25h4v2h-4v2.5zm6-11l3.5 3.5-3.5 3.5V23h-4v-2h4v-2.5zM9 23v-3H7v3H4v2h3v3h2v-3h3v-2H9z"/>
      </svg>

      <svg class="icon" id="ic_off_topic" viewBox="0 0 24 24">
        <path d="M6 10c-1.1 0-2 .9-2 2s.9 2 2 2 2-.9 2-2-.9-2-2-2zm12 0c-1.1 0-2 .9-2 2s.9 2 2 2 2-.9 2-2-.9-2-2-2zm-6 0c-1.1 0-2 .9-2 2s.9 2 2 2 2-.9 2-2-.9-2-2-2z"/>
      </svg>

      <svg class="icon" id="ic_palette" viewBox="0 0 24 24">
        <path d="M12 3c-4.97 0-9 4.03-9 9s4.03 9 9 9c.83 0 1.5-.67 1.5-1.5 0-.39-.15-.74-.39-1.01-.23-.26-.38-.61-.38-.99 0-.83.67-1.5 1.5-1.5H16c2.76 0 5-2.24 5-5 0-4.42-4.03-8-9-8zm-5.5 9c-.83 0-1.5-.67-1.5-1.5S5.67 9 6.5 9 8 9.67 8 10.5 7.33 12 6.5 12zm3-4C8.67 8 8 7.33 8 6.5S8.67 5 9.5 5s1.5.67 1.5 1.5S10.33 8 9.5 8zm5 0c-.83 0-1.5-.67-1.5-1.5S13.67 5 14.5 5s1.5.67 1.5 1.5S15.33 8 14.5 8zm3 4c-.83 0-1.5-.67-1.5-1.5S16.67 9 17.5 9s1.5.67 1.5 1.5-.67 1.5-1.5 1.5z"/>
      </svg>

      <svg class="icon" id="ic_pending" viewBox="0 0 24 24">
        <path d="M11.99 2C6.47 2 2 6.48 2 12s4.47 10 9.99 10C17.52 22 22 17.52 22 12S17.52 2 11.99 2zM12 20c-4.42 0-8-3.58-8-8s3.58-8 8-8 8 3.58 8 8-3.58 8-8 8zM12.5 7H11v6l5.25 3.15.75-1.23-4.5-2.67z"/>
      </svg>

      <svg class="icon" id="ic_poll" viewBox="0 0 24 24">
        <path d="M19 3H5c-1.1 0-2 .9-2 2v14c0 1.1.9 2 2 2h14c1.1 0 2-.9 2-2V5c0-1.1-.9-2-2-2zM9 17H7v-7h2v7zm4 0h-2V7h2v10zm4 0h-2v-4h2v4z"/>
      </svg>

      <svg class="icon" id="ic_profile" viewBox="0 0 24 24">
        <path d="M12 12c2.21 0 4-1.79 4-4s-1.79-4-4-4-4 1.79-4 4 1.79 4 4 4zm0 2c-2.67 0-8 1.34-8 4v2h16v-2c0-2.66-5.33-4-8-4z"/>
      </svg>

      <svg class="icon" id="ic_quest" viewBox="0 0 24 24">
        <path d="M12 10.9c-.61 0-1.1.49-1.1 1.1s.49 1.1 1.1 1.1c.61 0 1.1-.49 1.1-1.1s-.49-1.1-1.1-1.1zM12 2C6.48 2 2 6.48 2 12s4.48 10 10 10 10-4.48 10-10S17.52 2 12 2zm2.19 12.19L6 18l3.81-8.19L18 6l-3.81 8.19z"/>
      </svg>

      <svg class="icon" id="ic_rank_up" viewBox="0 0 24 24">
        <path d="M9 16h6v-6h4l-7-7-7 7h4zm-4 2h14v2H5z"/>
      </svg>

      <svg class="icon" id="ic_refresh" viewBox="0 0 24 24">
        <path d="M17.65 6.35C16.2 4.9 14.21 4 12 4c-4.42 0-7.99 3.58-7.99 8s3.57 8 7.99 8c3.73 0 6.84-2.55 7.73-6h-2.08c-.82 2.33-3.04 4-5.65 4-3.31 0-6-2.69-6-6s2.69-6 6-6c1.66 0 3.14.69 4.22 1.78L13 11h7V4l-2.35 2.35z"/>
      </svg>

      <svg class="icon" id="ic_remove_friend" viewBox="0 0 24 24">
        <path d="M15 12c2.21 0 4-1.79 4-4s-1.79-4-4-4-4 1.79-4 4 1.79 4 4 4zM1 10v2h8v-2H1zm14 4c-2.67 0-8 1.34-8 4v2h16v-2c0-2.66-5.33-4-8-4z"/>
      </svg>

      <svg class="icon" id="ic_reset" viewBox="0 0 24 24">
        <path d="M14 12c0-1.1-.9-2-2-2s-2 .9-2 2 .9 2 2 2 2-.9 2-2zm-2-9c-4.97 0-9 4.03-9 9H0l4 4 4-4H5c0-3.87 3.13-7 7-7s7 3.13 7 7-3.13 7-7 7c-1.51 0-2.91-.49-4.06-1.3l-1.42 1.44C8.04 20.3 9.94 21 12 21c4.97 0 9-4.03 9-9s-4.03-9-9-9zs"/>
      </svg>

      <svg class="icon" id="ic_reward" viewBox="0 0 24 24">
        <path d="M20 7h-2.18c.11-.31.18-.65.18-1 0-1.66-1.34-3-3-3-1.05 0-1.96.54-2.5 1.35l-.5.67-.5-.68C10.96 3.54 10.05 3 9 3 7.34 3 6 4.34 6 6c0 .35.07.69.18 1H4c-1.11 0-1.99.89-1.99 2L2 20c0 1.11.89 2 2 2h16c1.11 0 2-.89 2-2V9c0-1.11-.89-2-2-2zm-5-2c.55 0 1 .45 1 1s-.45 1-1 1-1-.45-1-1 .45-1 1-1zM9 5c.55 0 1 .45 1 1s-.45 1-1 1-1-.45-1-1 .45-1 1-1zM4 20V9h5.08L7 11.83 8.62 13 11 9.76l1-1.36 1 1.36L15.38 13 17 11.83 14.92 9H20v11H4z"/>
      </svg>

      <svg class="icon" id="ic_score" viewBox="0 0 24 24">
        <path d="M12 2C6.48 2 2 6.48 2 12s4.48 10 10 10 10-4.48 10-10S17.52 2 12 2zm1.88 11.88L12 18l-1.88-4.12L6 12l4.12-1.88L12 6l1.88 4.12L18 12l-4.12 1.88z"/>
      </svg>

      <svg class="icon" id="ic_search" viewBox="0 0 24 24">
        <path d="M15.5 14h-.79l-.28-.27C15.41 12.59 16 11.11 16 9.5 16 5.91 13.09 3 9.5 3S3 5.91 3 9.5 5.91 16 9.5 16c1.61 0 3.09-.59 4.23-1.57l.27.28v.79l5 4.99L20.49 19l-4.99-5zm-6 0C7.01 14 5 11.99 5 9.5S7.01 5 9.5 5 14 7.01 14 9.5 11.99 14 9.5 14z"/>
      </svg>

      <svg class="icon" id="ic_send" viewBox="0 0 24 24">
        <path d="M2.01 21L23 12 2.01 3 2 10l15 2-15 2z"/>
      </svg>

      <svg class="icon" id="ic_settings" viewBox="0 0 24 24">
        <path d="M19.43 12.98c.04-.32.07-.64.07-.98s-.03-.66-.07-.98l2.11-1.65c.19-.15.24-.42.12-.64l-2-3.46c-.12-.22-.39-.3-.61-.22l-2.49 1c-.52-.4-1.08-.73-1.69-.98l-.38-2.65C14.46 2.18 14.25 2 14 2h-4c-.25 0-.46.18-.49.42l-.38 2.65c-.61.25-1.17.59-1.69.98l-2.49-1c-.23-.09-.49 0-.61.22l-2 3.46c-.13.22-.07.49.12.64l2.11 1.65c-.04.32-.07.65-.07.98s.03.66.07.98l-2.11 1.65c-.19.15-.24.42-.12.64l2 3.46c.12.22.39.3.61.22l2.49-1c.52.4 1.08.73 1.69.98l.38 2.65c.03.24.24.42.49.42h4c.25 0 .46-.18.49-.42l.38-2.65c.61-.25 1.17-.59 1.69-.98l2.49 1c.23.09.49 0 .61-.22l2-3.46c.12-.22.07-.49-.12-.64l-2.11-1.65zM12 15.5c-1.93 0-3.5-1.57-3.5-3.5s1.57-3.5 3.5-3.5 3.5 1.57 3.5 3.5-1.57 3.5-3.5 3.5z"/>
      </svg>

      <svg class="icon" id="ic_share" viewBox="0 0 24 24">
        <path d="M11.698 20.054l-3.06-4.124-.938.877v2.44h-.025C7.622 20.223 6.83 21 5.86 21c-1.006 0-1.82-.833-1.82-1.86v-.037L4 19.1V4.946h.042V4.88C4.04 3.842 4.858 3 5.866 3c1.01 0 1.827.842 1.827 1.88 0 .035 0 .07-.003.105h.023l.02 6.896 3.436-3.388c.34-.38.83-.618 1.378-.618 1.026 0 1.857.84 1.857 1.88 0 .503-.195.96-.514 1.297l.02.02-2.418 2.4 3.38 4.594-.025.02c.188.295.298.648.298 1.028 0 1.043-.827 1.888-1.847 1.888-.684 0-1.28-.38-1.6-.946zm6.246-8.244c1.136 0 2.056.924 2.056 2.063 0 1.14-.92 2.064-2.056 2.064-1.135 0-2.055-.924-2.055-2.064 0-1.14.92-2.063 2.054-2.063z"/>
      </svg>

      <svg class="icon" id="ic_shop" viewBox="0 0 24 24">
        <path d="M20 4H4v2h16V4zm1 10v-2l-1-5H4l-1 5v2h1v6h10v-6h4v6h2v-6h1zm-9 4H6v-4h6v4z"/>
      </svg>

      <svg class="icon" id="ic_star" viewBox="0 0 24 24">
        <path d="M11.99 2C6.47 2 2 6.48 2 12s4.47 10 9.99 10C17.52 22 22 17.52 22 12S17.52 2 11.99 2zm4.24 16L12 15.45 7.77 18l1.12-4.81-3.73-3.23 4.92-.42L12 5l1.92 4.53 4.92.42-3.73 3.23L16.23 18z"/>
      </svg>

      <svg class="icon" id="ic_subtract_circle" viewBox="0 0 24 24">
        <path d="M12 2C6.48 2 2 6.48 2 12s4.48 10 10 10 10-4.48 10-10S17.52 2 12 2zm5 11H7v-2h10v2z"/>
      </svg>

      <svg class="icon" id="ic_suggestions" viewBox="0 0 24 24">
        <path d="M12 6c0-.55-.45-1-1-1H5.82l.66-3.18.02-.23c0-.31-.13-.59-.33-.8L5.38 0 .44 4.94C.17 5.21 0 5.59 0 6v6.5c0 .83.67 1.5 1.5 1.5h6.75c.62 0 1.15-.38 1.38-.91l2.26-5.29c.07-.17.11-.36.11-.55V6zm10.5 4h-6.75c-.62 0-1.15.38-1.38.91l-2.26 5.29c-.07.17-.11.36-.11.55V18c0 .55.45 1 1 1h5.18l-.66 3.18-.02.24c0 .31.13.59.33.8l.79.78 4.94-4.94c.27-.27.44-.65.44-1.06v-6.5c0-.83-.67-1.5-1.5-1.5z"/>
      </svg>

      <svg class="icon" id="ic_trade" viewBox="0 0 24 24">
        <path d="M6.99 11L3 15l3.99 4v-3H14v-2H6.99v-3zM21 9l-3.99-4v3H10v2h7.01v3L21 9z"/>
      </svg>

      <svg class="icon" id="ic_trade_circle" viewBox="0 0 24 24">
        <path d="M2 12c0 5.52 4.48 10 10 10s10-4.48 10-10S17.52 2 12 2 2 6.48 2 12zm7 5.5L5.5 14 9 10.5V13h4v2H9v2.5zm6-11l3.5 3.5-3.5 3.5V11h-4V9h4V6.5z"/>
      </svg>

      <svg class="icon" id="ic_twitter" viewBox="0 0 24 24">
        <path d="M22 5.892c-.75.325-1.543.54-2.356.633.856-.504 1.497-1.297 1.804-2.232-.806.47-1.687.802-2.606.98-1.272-1.33-3.293-1.657-4.93-.795-1.637.863-2.483 2.698-2.063 4.478-3.3-.163-6.375-1.696-8.46-4.22-1.087 1.846-.53 4.206 1.27 5.392-.65-.02-1.288-.193-1.857-.504v.05c0 1.924 1.377 3.58 3.292 3.96-.604.163-1.238.188-1.853.073.536 1.646 2.077 2.774 3.833 2.807-1.454 1.123-3.25 1.73-5.096 1.728-.328 0-.655-.02-.98-.056C3.877 19.373 6.06 20.002 8.292 20c7.547 0 11.674-6.153 11.674-11.49 0-.174-.004-.348-.012-.522.804-.573 1.496-1.283 2.046-2.096z"/>
      </svg>

      <svg class="icon" id="ic_unlock" viewBox="0 0 24 24">
        <path d="M12 17c1.1 0 2-.9 2-2s-.9-2-2-2-2 .9-2 2 .9 2 2 2zm6-9h-1V6c0-2.76-2.24-5-5-5S7 3.24 7 6h1.9c0-1.71 1.39-3.1 3.1-3.1 1.71 0 3.1 1.39 3.1 3.1v2H6c-1.1 0-2 .9-2 2v10c0 1.1.9 2 2 2h12c1.1 0 2-.9 2-2V10c0-1.1-.9-2-2-2zm0 12H6V10h12v10z"/>
      </svg>

      <svg class="icon" id="ic_upload" viewBox="0 0 24 24">
        <path d="M19.35 10.04C18.67 6.59 15.64 4 12 4 9.11 4 6.6 5.64 5.35 8.04 2.34 8.36 0 10.91 0 14c0 3.31 2.69 6 6 6h13c2.76 0 5-2.24 5-5 0-2.64-2.05-4.78-4.65-4.96zM14 13v4h-4v-4H7l5-5 5 5h-3z"/>
      </svg>

      <svg class="icon" id="ic_vote" viewBox="0 0 24 24">
        <path d="M20 12c0-1.1.9-2 2-2V6c0-1.1-.9-2-2-2H4c-1.1 0-1.99.9-1.99 2v4c1.1 0 1.99.9 1.99 2s-.89 2-2 2v4c0 1.1.9 2 2 2h16c1.1 0 2-.9 2-2v-4c-1.1 0-2-.9-2-2zm-4.42 4.8L12 14.5l-3.58 2.3 1.08-4.12-3.29-2.69 4.24-.25L12 5.8l1.54 3.95 4.24.25-3.29 2.69 1.09 4.11z"/>
      </svg>

      <svg class="icon" id="ic_wishlist" viewBox="0 0 24 24">
        <path d="M21.41 11.58l-9-9C12.05 2.22 11.55 2 11 2H4c-1.1 0-2 .9-2 2v7c0 .55.22 1.05.59 1.42l9 9c.36.36.86.58 1.41.58.55 0 1.05-.22 1.41-.59l7-7c.37-.36.59-.86.59-1.41 0-.55-.23-1.06-.59-1.42zM5.5 7C4.67 7 4 6.33 4 5.5S4.67 4 5.5 4 7 4.67 7 5.5 6.33 7 5.5 7zm11.77 8.27L13 19.54l-4.27-4.27C8.28 14.81 8 14.19 8 13.5c0-1.38 1.12-2.5 2.5-2.5.69 0 1.32.28 1.77.74l.73.72.73-.73c.45-.45 1.08-.73 1.77-.73 1.38 0 2.5 1.12 2.5 2.5 0 .69-.28 1.32-.73 1.77z"/>
      </svg>

      <svg class="icon" id="ic_wrench" viewBox="0 0 24 24">
        <path d="M19.7380793,16.3470584 L11.4777113,8.03661632 C12.2946708,5.93617491 11.8408044,3.47043934 10.1161122,1.73529209 C8.30064672,-0.0911787015 5.57744848,-0.45647286 3.39888989,0.548086075 L7.3021407,4.47499828 L4.57894246,7.21470446 L0.584918381,3.28779226 C-0.504360915,5.47955721 -0.0504945418,8.2192634 1.76497095,10.0457342 C3.48966317,11.7808814 5.94054158,12.2374991 8.0283269,11.4155873 L16.2886949,19.7260294 C16.651788,20.0913235 17.1964276,20.0913235 17.5595207,19.7260294 L19.6473061,17.625588 C20.1011724,17.2602938 20.1011724,16.621029 19.7380793,16.3470584 L19.7380793,16.3470584 Z"/>
      </svg>

</svg>
