<svg xmlns='http://www.w3.org/2000/svg'>
  <defs>
    <style type='text/css'>
    .icon {display: none;}
    .icon:target {display: block;}
    </style>
  </defs>

      <svg class="icon" id="ic_1" viewBox="0 0 24 24">
        <path d="M12 22c5.523 0 10-4.477 10-10S17.523 2 12 2 2 6.477 2 12s4.477 10 10 10zm1.668-4H11.41V9.297l-2.695.836V8.297l4.71-1.688h.243V18z"/>
      </svg>

      <svg class="icon" id="ic_2" viewBox="0 0 24 24">
        <path d="M12 22c5.523 0 10-4.477 10-10S17.523 2 12 2 2 6.477 2 12s4.477 10 10 10zm3.98-4H8.184v-1.547l3.68-3.922c.504-.55.878-1.033 1.12-1.444.243-.412.364-.802.364-1.172 0-.505-.128-.902-.383-1.19-.255-.29-.62-.435-1.094-.435-.51 0-.912.175-1.206.526-.294.352-.44.814-.44 1.387H7.956c0-.693.165-1.325.496-1.898.33-.573.798-1.022 1.402-1.348.605-.325 1.29-.488 2.055-.488 1.172 0 2.082.28 2.73.843.65.562.973 1.356.973 2.382 0 .563-.146 1.136-.437 1.72-.292.582-.792 1.262-1.5 2.038L11.09 16.18h4.89V18z"/>
      </svg>

      <svg class="icon" id="ic_3" viewBox="0 0 24 24">
        <path d="M12 22c5.523 0 10-4.477 10-10S17.523 2 12 2 2 6.477 2 12s4.477 10 10 10zm-1.52-10.688h1.204c.573 0 .997-.143 1.273-.43.276-.286.414-.666.414-1.14 0-.458-.136-.815-.41-1.07-.273-.255-.65-.383-1.128-.383-.432 0-.794.118-1.086.355-.292.237-.437.545-.437.925H8.05c0-.593.16-1.126.48-1.597.322-.472.77-.84 1.345-1.106.576-.265 1.21-.398 1.902-.398 1.203 0 2.146.287 2.828.862.683.576 1.024 1.37 1.024 2.38 0 .52-.16 1-.478 1.436-.317.438-.734.774-1.25 1.008.64.23 1.12.573 1.434 1.03.315.46.473 1 .473 1.627 0 1.01-.37 1.82-1.107 2.43-.737.61-1.712.913-2.926.913-1.135 0-2.063-.3-2.785-.898-.72-.6-1.082-1.39-1.082-2.375h2.258c0 .427.16.776.48 1.047.32.27.715.406 1.184.406.536 0 .957-.142 1.262-.426.304-.284.457-.66.457-1.13 0-1.134-.624-1.702-1.874-1.702H10.48v-1.765z"/>
      </svg>

      <svg class="icon" id="ic_4" viewBox="0 0 24 24">
        <path d="M12 22c5.523 0 10-4.477 10-10S17.523 2 12 2 2 6.477 2 12s4.477 10 10 10zm2.863-8.28h1.29v1.82h-1.29V18h-2.258v-2.46H7.94l-.1-1.423 4.742-7.492h2.28v7.094zm-4.773 0h2.515V9.702l-.148.258-2.367 3.76z"/>
      </svg>

      <svg class="icon" id="ic_5" viewBox="0 0 24 24">
        <path d="M12 22c5.523 0 10-4.477 10-10S17.523 2 12 2 2 6.477 2 12s4.477 10 10 10zm-3.48-9.594l.656-5.78h6.375v1.882h-4.523l-.28 2.445c.536-.286 1.106-.43 1.71-.43 1.083 0 1.932.336 2.547 1.008.614.673.922 1.613.922 2.822 0 .734-.155 1.39-.465 1.972-.31.58-.753 1.03-1.33 1.352-.58.32-1.262.48-2.048.48-.687 0-1.325-.14-1.914-.418-.59-.278-1.053-.67-1.395-1.175-.34-.506-.522-1.08-.543-1.727h2.235c.047.474.212.842.496 1.105.285.264.656.396 1.114.396.51 0 .904-.184 1.18-.55.276-.368.414-.888.414-1.56 0-.645-.16-1.14-.477-1.484-.316-.344-.767-.515-1.35-.515-.537 0-.972.14-1.305.42l-.22.205-1.795-.446z"/>
      </svg>

      <svg class="icon" id="ic_6" viewBox="0 0 24 24">
        <path d="M12 22c5.523 0 10-4.477 10-10S17.523 2 12 2 2 6.477 2 12s4.477 10 10 10zm2.31-15.492v1.86h-.22c-1.02.015-1.843.28-2.465.796-.622.516-.996 1.232-1.12 2.15.603-.616 1.366-.923 2.288-.923.99 0 1.776.355 2.36 1.063.583.708.874 1.64.874 2.797 0 .74-.16 1.41-.48 2.008-.32.6-.774 1.065-1.36 1.398-.585.334-1.248.5-1.988.5-1.2 0-2.166-.416-2.903-1.25-.737-.833-1.106-1.945-1.106-3.336v-.812c0-1.235.234-2.324.7-3.27.467-.945 1.136-1.677 2.008-2.195.873-.518 1.885-.78 3.036-.785h.375zm-2.205 5.695c-.364 0-.695.095-.992.285-.297.19-.515.442-.656.754v.688c0 .755.148 1.345.445 1.77.297.424.714.636 1.25.636.485 0 .877-.19 1.176-.574.3-.383.45-.88.45-1.49 0-.618-.152-1.118-.454-1.5-.302-.38-.708-.57-1.22-.57z"/>
      </svg>

      <svg class="icon" id="ic_7" viewBox="0 0 24 24">
        <path d="M12 22c5.523 0 10-4.477 10-10S17.523 2 12 2 2 6.477 2 12s4.477 10 10 10zm3.918-14.11L11.52 18H9.137l4.406-9.547H7.887V6.625h8.03V7.89z"/>
      </svg>

      <svg class="icon" id="ic_8" viewBox="0 0 24 24">
        <path d="M12 22c5.523 0 10-4.477 10-10S17.523 2 12 2 2 6.477 2 12s4.477 10 10 10zm3.598-12.352c0 .553-.138 1.042-.414 1.47-.276.426-.657.767-1.14 1.023.55.266.99.632 1.31 1.098.324.466.486 1.015.486 1.645 0 1.01-.344 1.808-1.03 2.394-.69.586-1.624.88-2.806.88s-2.12-.295-2.813-.884c-.69-.588-1.038-1.385-1.038-2.39 0-.63.162-1.18.485-1.65.323-.467.758-.832 1.304-1.092-.483-.255-.862-.596-1.135-1.023-.274-.427-.41-.916-.41-1.47 0-.967.322-1.74.968-2.315.646-.575 1.524-.863 2.633-.863 1.104 0 1.98.284 2.63.854.647.57.972 1.345.972 2.324zm-2.024 5.07c0-.494-.143-.89-.43-1.187-.286-.296-.67-.444-1.156-.444-.48 0-.862.147-1.148.44-.287.296-.43.693-.43 1.193 0 .483.14.874.422 1.17.28.298.672.446 1.172.446.49 0 .874-.143 1.152-.43.28-.286.418-.682.418-1.187zm-.234-4.96c0-.443-.117-.798-.352-1.067-.234-.267-.565-.4-.992-.4-.422 0-.75.13-.984.39-.235.26-.352.62-.352 1.078 0 .453.117.818.352 1.094.234.276.565.414.992.414.427 0 .756-.138.988-.414.232-.276.348-.64.348-1.094z"/>
      </svg>

      <svg class="icon" id="ic_9" viewBox="0 0 24 24">
        <path d="M12 22c5.523 0 10-4.477 10-10S17.523 2 12 2 2 6.477 2 12s4.477 10 10 10zm1.465-8.547c-.59.578-1.276.867-2.063.867-1.005 0-1.81-.345-2.414-1.035-.604-.69-.906-1.62-.906-2.793 0-.745.163-1.428.488-2.05.326-.623.78-1.107 1.364-1.454.583-.346 1.24-.52 1.968-.52.75 0 1.417.188 2 .563.584.376 1.037.915 1.36 1.618.323.704.487 1.508.492 2.415v.835c0 1.896-.47 3.386-1.414 4.47-.943 1.083-2.28 1.66-4.008 1.734l-.555.007v-1.883l.5-.008c1.964-.09 3.026-1.012 3.188-2.767zm-1.508-.86c.365 0 .678-.093.94-.28.264-.188.464-.415.6-.68v-.93c0-.766-.147-1.36-.438-1.78-.293-.423-.684-.634-1.173-.634-.453 0-.826.206-1.117.62-.292.414-.438.934-.438 1.56 0 .62.142 1.128.426 1.526.284.4.683.598 1.2.598z"/>
      </svg>

      <svg class="icon" id="ic_9_plus" viewBox="0 0 24 24">
        <path d="M12 22c5.523 0 10-4.477 10-10S17.523 2 12 2 2 6.477 2 12s4.477 10 10 10zm-2.04-8.98c-.515.507-1.116.76-1.804.76-.88 0-1.584-.302-2.113-.905-.528-.604-.793-1.42-.793-2.444 0-.65.143-1.25.428-1.794.285-.544.682-.968 1.193-1.27.51-.304 1.085-.456 1.723-.456.657 0 1.24.164 1.75.492.51.328.907.8 1.19 1.415.282.616.426 1.32.43 2.113v.73c0 1.66-.412 2.963-1.237 3.91-.825.95-1.994 1.455-3.507 1.52l-.486.006v-1.648l.437-.007c1.72-.076 2.65-.883 2.79-2.42zm-1.32-.75c.32 0 .595-.082.825-.247.23-.164.404-.362.523-.594v-.815c0-.67-.128-1.19-.383-1.558-.255-.37-.597-.554-1.025-.554-.397 0-.723.18-.978.543-.255.363-.383.817-.383 1.364 0 .542.123.988.372 1.337.248.348.598.523 1.05.523zm8.8-.84h2.467v1.783H17.44v2.79h-1.88v-2.79h-2.476V11.43h2.475V8.755h1.88v2.673z"/>
      </svg>

      <svg class="icon" id="ic_add" viewBox="0 0 24 24">
        <path d="M19 13h-6v6h-2v-6H5v-2h6V5h2v6h6v2z"/>
      </svg>

      <svg class="icon" id="ic_add_circle" viewBox="0 0 24 24">
        <path d="M12 2C6.48 2 2 6.48 2 12s4.48 10 10 10 10-4.48 10-10S17.52 2 12 2zm5 11h-4v4h-2v-4H7v-2h4V7h2v4h4v2z"/>
      </svg>

      <svg class="icon" id="ic_add_friend" viewBox="0 0 24 24">
        <path d="M15 12c2.21 0 4-1.79 4-4s-1.79-4-4-4-4 1.79-4 4 1.79 4 4 4zm-9-2V7H4v3H1v2h3v3h2v-3h3v-2H6zm9 4c-2.67 0-8 1.34-8 4v2h16v-2c0-2.66-5.33-4-8-4z"/>
      </svg>

      <svg class="icon" id="ic_award" viewBox="0 0 24 24">
        <path d="M15.2,10.7L16.6,16L12,12.2L7.4,16L8.8,10.8L4.6,7.3L10,7L12,2L14,7L19.4,7.3L15.2,10.7M14,19.1H13V16L12,15L11,16V19.1H10A2,2 0 0,0 8,21.1V22.1H16V21.1A2,2 0 0,0 14,19.1Z"/>
      </svg>

      <svg class="icon" id="ic_back" viewBox="0 0 24 24">
        <path d="M20 11H7.83l5.59-5.59L12 4l-8 8 8 8 1.41-1.41L7.83 13H20v-2z"/>
      </svg>

      <svg class="icon" id="ic_chevron_left" viewBox="0 0 24 24">
        <path d="M15.41 7.41L14 6l-6 6 6 6 1.41-1.41L10.83 12z"/>
      </svg>

      <svg class="icon" id="ic_chevron_right" viewBox="0 0 24 24">
        <path d="M10 6L8.59 7.41 13.17 12l-4.58 4.59L10 18l6-6z"/>
      </svg>

      <svg class="icon" id="ic_chat" viewBox="0 0 24 24">
        <path d="M21 6h-2v9H6v2c0 .55.45 1 1 1h11l4 4V7c0-.55-.45-1-1-1zm-4 6V3c0-.55-.45-1-1-1H3c-.55 0-1 .45-1 1v14l4-4h10c.55 0 1-.45 1-1z"/>
      </svg>

      <svg class="icon" id="ic_check" viewBox="0 0 24 24">
        <path d="M9 16.2L4.8 12l-1.4 1.4L9 19 21 7l-1.4-1.4L9 16.2z"/>
      </svg>

      <svg class="icon" id="ic_clear" viewBox="0 0 24 24">
        <path d="M12 2C6.47 2 2 6.47 2 12s4.47 10 10 10 10-4.47 10-10S17.53 2 12 2zm5 13.59L15.59 17 12 13.41 8.41 17 7 15.59 10.59 12 7 8.41 8.41 7 12 10.59 15.59 7 17 8.41 13.41 12 17 15.59z"/>
      </svg>

      <svg class="icon" id="ic_close" viewBox="0 0 24 24">
        <path d="M19 6.41L17.59 5 12 10.59 6.41 5 5 6.41 10.59 12 5 17.59 6.41 19 12 13.41 17.59 19 19 17.59 13.41 12z"/>
      </svg>

      <svg class="icon" id="ic_collection" viewBox="0 0 24 24">
        <path d="M21.65 4.1l-1.34-.56v9.03l2.43-5.86c.41-1.02-.08-2.19-1.09-2.61zM2.15 7.8l4.96 11.97c.31.75 1.04 1.21 1.81 1.23.26 0 .53-.04.79-.15l7.37-3.05c.75-.31 1.21-1.03 1.23-1.8.01-.27-.04-.54-.15-.8L13.2 3.23c-.31-.76-1.05-1.22-1.83-1.23-.26 0-.52.05-.77.15L3.24 5.2c-1.02.42-1.51 1.59-1.09 2.6zM18.3 4c0-1.1-.9-2-2-2h-1.45l3.45 8.34V4z"/>
      </svg>

      <svg class="icon" id="ic_comment" viewBox="0 0 24 24">
        <path d="M21.99 4c0-1.1-.89-2-1.99-2H4c-1.1 0-2 .9-2 2v12c0 1.1.9 2 2 2h14l4 4-.01-18zM18 14H6v-2h12v2zm0-3H6V9h12v2zm0-3H6V6h12v2z"/>
      </svg>

      <svg class="icon" id="ic_expand_less" viewBox="0 0 24 24">
        <path d="M12 8l-6 6 1.41 1.41L12 10.83l4.59 4.58L18 14z"/>
      </svg>

      <svg class="icon" id="ic_expand_more" viewBox="0 0 24 24">
        <path d="M16.59 8.59L12 13.17 7.41 8.59 6 10l6 6 6-6z"/>
      </svg>

      <svg class="icon" id="ic_feedback" viewBox="0 0 24 24">
        <path d="M20 2H4c-1.1 0-1.99.9-1.99 2L2 22l4-4h14c1.1 0 2-.9 2-2V4c0-1.1-.9-2-2-2zm-7 12h-2v-2h2v2zm0-4h-2V6h2v4z"/>
      </svg>

      <svg class="icon" id="ic_friends" viewBox="0 0 24 24">
        <path d="M16 11c1.66 0 2.99-1.34 2.99-3S17.66 5 16 5c-1.66 0-3 1.34-3 3s1.34 3 3 3zm-8 0c1.66 0 2.99-1.34 2.99-3S9.66 5 8 5C6.34 5 5 6.34 5 8s1.34 3 3 3zm0 2c-2.33 0-7 1.17-7 3.5V19h14v-2.5c0-2.33-4.67-3.5-7-3.5zm8 0c-.29 0-.62.02-.97.05 1.16.84 1.97 1.97 1.97 3.45V19h6v-2.5c0-2.33-4.67-3.5-7-3.5z"/>
      </svg>

      <svg class="icon" id="ic_global" viewBox="0 0 24 24">
        <path d="M12 2C6.48 2 2 6.48 2 12s4.48 10 10 10 10-4.48 10-10S17.52 2 12 2zm-1 17.93c-3.95-.49-7-3.85-7-7.93 0-.62.08-1.21.21-1.79L9 15v1c0 1.1.9 2 2 2v1.93zm6.9-2.54c-.26-.81-1-1.39-1.9-1.39h-1v-3c0-.55-.45-1-1-1H8v-2h2c.55 0 1-.45 1-1V7h2c1.1 0 2-.9 2-2v-.41c2.93 1.19 5 4.06 5 7.41 0 2.08-.8 3.97-2.1 5.39z"/>
      </svg>

      <svg class="icon" id="ic_gold" viewBox="0 0 24 24">
        <path d="M12 22c5.523 0 10-4.477 10-10S17.523 2 12 2 2 6.477 2 12s4.477 10 10 10zm2.4-15H9.6C8.64 7 8 7.833 8 8.667v6.666C8 16.167 8.64 17 9.6 17h4.8c.96 0 1.6-.833 1.6-1.667V12h-2.4v2.5h-3.2v-5H16v-.833C16 7.833 15.36 7 14.4 7z" fill-rule="evenodd"/>
      </svg>

      <svg class="icon" id="ic_home" viewBox="0 0 24 24">
        <path d="M10 20v-6h4v6h5v-8h3L12 3 2 12h3v8z"/>
      </svg>

      <svg class="icon" id="ic_install" viewBox="0 0 24 24">
        <path d="M19 9h-4V3H9v6H5l7 7 7-7zM5 18v2h14v-2H5z"/>
      </svg>

      <svg class="icon" id="ic_leave" viewBox="0 0 24 24">
        <path d="M10.09 15.59L11.5 17l5-5-5-5-1.41 1.41L12.67 11H3v2h9.67l-2.58 2.59zM19 3H5c-1.11 0-2 .9-2 2v4h2V5h14v14H5v-4H3v4c0 1.1.89 2 2 2h14c1.1 0 2-.9 2-2V5c0-1.1-.9-2-2-2z"/>
      </svg>

      <svg class="icon" id="ic_link" viewBox="0 0 24 24">
        <path d="M3.9 12c0-1.71 1.39-3.1 3.1-3.1h4V7H7c-2.76 0-5 2.24-5 5s2.24 5 5 5h4v-1.9H7c-1.71 0-3.1-1.39-3.1-3.1zM8 13h8v-2H8v2zm9-6h-4v1.9h4c1.71 0 3.1 1.39 3.1 3.1s-1.39 3.1-3.1 3.1h-4V17h4c2.76 0 5-2.24 5-5s-2.24-5-5-5z"/>
      </svg>

      <svg class="icon" id="ic_lock" viewBox="0 0 24 24">
        <path d="M12 22c5.523 0 10-4.477 10-10S17.523 2 12 2 2 6.477 2 12s4.477 10 10 10zm3.75-12.667h-.625V8.095C15.125 6.387 13.725 5 12 5S8.875 6.387 8.875 8.095v1.238H8.25C7.562 9.333 7 9.89 7 10.57v6.192C7 17.442 7.563 18 8.25 18h7.5c.688 0 1.25-.557 1.25-1.238v-6.19c0-.682-.563-1.24-1.25-1.24zM12 14.905c-.688 0-1.25-.557-1.25-1.238 0-.68.563-1.238 1.25-1.238.688 0 1.25.556 1.25 1.237 0 .68-.563 1.238-1.25 1.238zm1.938-5.572h-3.876V8.095c0-1.058.87-1.92 1.938-1.92 1.07 0 1.938.862 1.938 1.92v1.238z" fill-rule="evenodd"/>
      </svg>

      <svg class="icon" id="ic_menu" viewBox="0 0 24 24">
        <path d="M3 18h18v-2H3v2zm0-5h18v-2H3v2zm0-7v2h18V6H3z"/>
      </svg>

      <svg class="icon" id="ic_new" viewBox="0 0 24 24">
        <path d="M23 12l-2.44-2.78.34-3.68-3.61-.82-1.89-3.18L12 3 8.6 1.54 6.71 4.72l-3.61.81.34 3.68L1 12l2.44 2.78-.34 3.69 3.61.82 1.89 3.18L12 21l3.4 1.46 1.89-3.18 3.61-.82-.34-3.68L23 12zm-10 5h-2v-2h2v2zm0-4h-2V7h2v6z"/>
      </svg>

      <!-- View box of 48 x 48 -->
      <svg class="icon" id="ic_new_trade" viewBox="0 0 48 48">
        <path d="M14 24c0 5.52 4.48 10 10 10s10-4.48 10-10-4.48-10-10-10-10 4.48-10 10zm7 5.5L17.5 26l3.5-3.5V25h4v2h-4v2.5zm6-11l3.5 3.5-3.5 3.5V23h-4v-2h4v-2.5zM9 23v-3H7v3H4v2h3v3h2v-3h3v-2H9z"/>
      </svg>

      <svg class="icon" id="ic_palette" viewBox="0 0 24 24">
        <path d="M12 3c-4.97 0-9 4.03-9 9s4.03 9 9 9c.83 0 1.5-.67 1.5-1.5 0-.39-.15-.74-.39-1.01-.23-.26-.38-.61-.38-.99 0-.83.67-1.5 1.5-1.5H16c2.76 0 5-2.24 5-5 0-4.42-4.03-8-9-8zm-5.5 9c-.83 0-1.5-.67-1.5-1.5S5.67 9 6.5 9 8 9.67 8 10.5 7.33 12 6.5 12zm3-4C8.67 8 8 7.33 8 6.5S8.67 5 9.5 5s1.5.67 1.5 1.5S10.33 8 9.5 8zm5 0c-.83 0-1.5-.67-1.5-1.5S13.67 5 14.5 5s1.5.67 1.5 1.5S15.33 8 14.5 8zm3 4c-.83 0-1.5-.67-1.5-1.5S16.67 9 17.5 9s1.5.67 1.5 1.5-.67 1.5-1.5 1.5z"/>
      </svg>

      <svg class="icon" id="ic_pending" viewBox="0 0 24 24">
        <path d="M11.99 2C6.47 2 2 6.48 2 12s4.47 10 9.99 10C17.52 22 22 17.52 22 12S17.52 2 11.99 2zM12 20c-4.42 0-8-3.58-8-8s3.58-8 8-8 8 3.58 8 8-3.58 8-8 8zM12.5 7H11v6l5.25 3.15.75-1.23-4.5-2.67z"/>
      </svg>

      <svg class="icon" id="ic_quest" viewBox="0 0 24 24">
        <path d="M12 10.9c-.61 0-1.1.49-1.1 1.1s.49 1.1 1.1 1.1c.61 0 1.1-.49 1.1-1.1s-.49-1.1-1.1-1.1zM12 2C6.48 2 2 6.48 2 12s4.48 10 10 10 10-4.48 10-10S17.52 2 12 2zm2.19 12.19L6 18l3.81-8.19L18 6l-3.81 8.19z"/>
      </svg>

      <svg class="icon" id="ic_remove_friend" viewBox="0 0 24 24">
        <path d="M15 12c2.21 0 4-1.79 4-4s-1.79-4-4-4-4 1.79-4 4 1.79 4 4 4zM1 10v2h8v-2H1zm14 4c-2.67 0-8 1.34-8 4v2h16v-2c0-2.66-5.33-4-8-4z"/>
      </svg>

      <svg class="icon" id="ic_reward" viewBox="0 0 24 24">
        <path d="M20 7h-2.18c.11-.31.18-.65.18-1 0-1.66-1.34-3-3-3-1.05 0-1.96.54-2.5 1.35l-.5.67-.5-.68C10.96 3.54 10.05 3 9 3 7.34 3 6 4.34 6 6c0 .35.07.69.18 1H4c-1.11 0-1.99.89-1.99 2L2 20c0 1.11.89 2 2 2h16c1.11 0 2-.89 2-2V9c0-1.11-.89-2-2-2zm-5-2c.55 0 1 .45 1 1s-.45 1-1 1-1-.45-1-1 .45-1 1-1zM9 5c.55 0 1 .45 1 1s-.45 1-1 1-1-.45-1-1 .45-1 1-1zM4 20V9h5.08L7 11.83 8.62 13 11 9.76l1-1.36 1 1.36L15.38 13 17 11.83 14.92 9H20v11H4z"/>
      </svg>

      <svg class="icon" id="ic_score" viewBox="0 0 24 24">
        <path d="M12 2C6.48 2 2 6.48 2 12s4.48 10 10 10 10-4.48 10-10S17.52 2 12 2zm1.88 11.88L12 18l-1.88-4.12L6 12l4.12-1.88L12 6l1.88 4.12L18 12l-4.12 1.88z"/>
      </svg>

      <svg class="icon" id="ic_search" viewBox="0 0 24 24">
        <path d="M15.5 14h-.79l-.28-.27C15.41 12.59 16 11.11 16 9.5 16 5.91 13.09 3 9.5 3S3 5.91 3 9.5 5.91 16 9.5 16c1.61 0 3.09-.59 4.23-1.57l.27.28v.79l5 4.99L20.49 19l-4.99-5zm-6 0C7.01 14 5 11.99 5 9.5S7.01 5 9.5 5 14 7.01 14 9.5 11.99 14 9.5 14z"/>
      </svg>

      <svg class="icon" id="ic_send" viewBox="0 0 24 24">
        <path d="M2.01 21L23 12 2.01 3 2 10l15 2-15 2z"/>
      </svg>

      <svg class="icon" id="ic_share" viewBox="0 0 24 24">
        <path d="M11.698 20.054l-3.06-4.124-.938.877v2.44h-.025C7.622 20.223 6.83 21 5.86 21c-1.006 0-1.82-.833-1.82-1.86v-.037L4 19.1V4.946h.042V4.88C4.04 3.842 4.858 3 5.866 3c1.01 0 1.827.842 1.827 1.88 0 .035 0 .07-.003.105h.023l.02 6.896 3.436-3.388c.34-.38.83-.618 1.378-.618 1.026 0 1.857.84 1.857 1.88 0 .503-.195.96-.514 1.297l.02.02-2.418 2.4 3.38 4.594-.025.02c.188.295.298.648.298 1.028 0 1.043-.827 1.888-1.847 1.888-.684 0-1.28-.38-1.6-.946zm6.246-8.244c1.136 0 2.056.924 2.056 2.063 0 1.14-.92 2.064-2.056 2.064-1.135 0-2.055-.924-2.055-2.064 0-1.14.92-2.063 2.054-2.063z"/>
      </svg>

      <svg class="icon" id="ic_shop" viewBox="0 0 24 24">
        <path d="M20 4H4v2h16V4zm1 10v-2l-1-5H4l-1 5v2h1v6h10v-6h4v6h2v-6h1zm-9 4H6v-4h6v4z"/>
      </svg>

      <svg class="icon" id="ic_star" viewBox="0 0 24 24">
        <path d="M11.99 2C6.47 2 2 6.48 2 12s4.47 10 9.99 10C17.52 22 22 17.52 22 12S17.52 2 11.99 2zm4.24 16L12 15.45 7.77 18l1.12-4.81-3.73-3.23 4.92-.42L12 5l1.92 4.53 4.92.42-3.73 3.23L16.23 18z"/>
      </svg>

      <svg class="icon" id="ic_subtract_circle" viewBox="0 0 24 24">
        <path d="M12 2C6.48 2 2 6.48 2 12s4.48 10 10 10 10-4.48 10-10S17.52 2 12 2zm5 11H7v-2h10v2z"/>
      </svg>

      <svg class="icon" id="ic_trade" viewBox="0 0 24 24">
        <path d="M6.99 11L3 15l3.99 4v-3H14v-2H6.99v-3zM21 9l-3.99-4v3H10v2h7.01v3L21 9z"/>
      </svg>

      <svg class="icon" id="ic_trade_circle" viewBox="0 0 24 24">
        <path d="M2 12c0 5.52 4.48 10 10 10s10-4.48 10-10S17.52 2 12 2 2 6.48 2 12zm7 5.5L5.5 14 9 10.5V13h4v2H9v2.5zm6-11l3.5 3.5-3.5 3.5V11h-4V9h4V6.5z"/>
      </svg>

      <svg class="icon" id="ic_unlock" viewBox="0 0 24 24">
        <path d="M12 17c1.1 0 2-.9 2-2s-.9-2-2-2-2 .9-2 2 .9 2 2 2zm6-9h-1V6c0-2.76-2.24-5-5-5S7 3.24 7 6h1.9c0-1.71 1.39-3.1 3.1-3.1 1.71 0 3.1 1.39 3.1 3.1v2H6c-1.1 0-2 .9-2 2v10c0 1.1.9 2 2 2h12c1.1 0 2-.9 2-2V10c0-1.1-.9-2-2-2zm0 12H6V10h12v10z"/>
      </svg>

      <svg class="icon" id="ic_vote" viewBox="0 0 24 24">
        <path d="M20 12c0-1.1.9-2 2-2V6c0-1.1-.9-2-2-2H4c-1.1 0-1.99.9-1.99 2v4c1.1 0 1.99.9 1.99 2s-.89 2-2 2v4c0 1.1.9 2 2 2h16c1.1 0 2-.9 2-2v-4c-1.1 0-2-.9-2-2zm-4.42 4.8L12 14.5l-3.58 2.3 1.08-4.12-3.29-2.69 4.24-.25L12 5.8l1.54 3.95 4.24.25-3.29 2.69 1.09 4.11z"/>
      </svg>

      <svg class="icon" id="ic_wishlist" viewBox="0 0 24 24">
        <path d="M21.41 11.58l-9-9C12.05 2.22 11.55 2 11 2H4c-1.1 0-2 .9-2 2v7c0 .55.22 1.05.59 1.42l9 9c.36.36.86.58 1.41.58.55 0 1.05-.22 1.41-.59l7-7c.37-.36.59-.86.59-1.41 0-.55-.23-1.06-.59-1.42zM5.5 7C4.67 7 4 6.33 4 5.5S4.67 4 5.5 4 7 4.67 7 5.5 6.33 7 5.5 7zm11.77 8.27L13 19.54l-4.27-4.27C8.28 14.81 8 14.19 8 13.5c0-1.38 1.12-2.5 2.5-2.5.69 0 1.32.28 1.77.74l.73.72.73-.73c.45-.45 1.08-.73 1.77-.73 1.38 0 2.5 1.12 2.5 2.5 0 .69-.28 1.32-.73 1.77z"/>
      </svg>

</svg>
