<?xml version='1.0'?><!DOCTYPE svg PUBLIC '-//W3C//DTD SVG 1.1//EN' 'http://www.w3.org/Graphics/SVG/1.1/DTD/svg11.dtd'>
<svg version='1.1' xmlns='http://www.w3.org/2000/svg' xmlns:xlink='http://www.w3.org/1999/xlink'>
  <defs>
    <style type='text/css'>
    .icon {display: none;}
    .icon:target {display: block;}
    </style>
  </defs>

      <svg class="icon" id="ic_1" viewBox="0 0 24 24">
        <path d="M12,22 C17.5228475,22 22,17.5228475 22,12 C22,6.4771525 17.5228475,2 12,2 C6.4771525,2 2,6.4771525 2,12 C2,17.5228475 6.4771525,22 12,22 Z M13.6679688,18 L11.4101562,18 L11.4101562,9.296875 L8.71484375,10.1328125 L8.71484375,8.296875 L13.4257812,6.609375 L13.6679688,6.609375 L13.6679688,18 Z" />
      </svg>

      <svg class="icon" id="ic_2" viewBox="0 0 24 24">
        <path d="M12,22 C17.5228475,22 22,17.5228475 22,12 C22,6.4771525 17.5228475,2 12,2 C6.4771525,2 2,6.4771525 2,12 C2,17.5228475 6.4771525,22 12,22 Z M15.9804688,18 L8.18359375,18 L8.18359375,16.453125 L11.8632812,12.53125 C12.3684921,11.9791639 12.7421863,11.4973979 12.984375,11.0859375 C13.2265637,10.6744771 13.3476562,10.283856 13.3476562,9.9140625 C13.3476562,9.40885164 13.2200534,9.0117202 12.9648438,8.72265625 C12.7096341,8.4335923 12.3450545,8.2890625 11.8710938,8.2890625 C11.3606745,8.2890625 10.9583348,8.46484199 10.6640625,8.81640625 C10.3697902,9.16797051 10.2226562,9.63020547 10.2226562,10.203125 L7.95703125,10.203125 C7.95703125,9.5104132 8.12239418,8.87760703 8.453125,8.3046875 C8.78385582,7.73176797 9.25129906,7.28255371 9.85546875,6.95703125 C10.4596384,6.63150879 11.1445274,6.46875 11.9101562,6.46875 C13.0820371,6.46875 13.9921843,6.74999719 14.640625,7.3125 C15.2890657,7.87500281 15.6132812,8.6692657 15.6132812,9.6953125 C15.6132812,10.2578153 15.4674494,10.8307263 15.1757812,11.4140625 C14.8841131,11.9973988 14.3841181,12.6770795 13.6757812,13.453125 L11.0898438,16.1796875 L15.9804688,16.1796875 L15.9804688,18 Z" />
      </svg>

      <svg class="icon" id="ic_3" viewBox="0 0 24 24">
        <path d="M12,22 C17.5228475,22 22,17.5228475 22,12 C22,6.4771525 17.5228475,2 12,2 C6.4771525,2 2,6.4771525 2,12 C2,17.5228475 6.4771525,22 12,22 Z M10.4804688,11.3125 L11.6835938,11.3125 C12.2565133,11.3125 12.6809882,11.1692723 12.9570312,10.8828125 C13.2330743,10.5963527 13.3710938,10.2161482 13.3710938,9.7421875 C13.3710938,9.28385187 13.2343764,8.92708461 12.9609375,8.671875 C12.6874986,8.41666539 12.3112003,8.2890625 11.8320312,8.2890625 C11.3997374,8.2890625 11.0377619,8.4075509 10.7460938,8.64453125 C10.4544256,8.8815116 10.3085938,9.19010227 10.3085938,9.5703125 L8.05078125,9.5703125 C8.05078125,8.97655953 8.2109359,8.44401277 8.53125,7.97265625 C8.8515641,7.50129973 9.29947629,7.13281383 9.875,6.8671875 C10.4505237,6.60156117 11.084632,6.46875 11.7773438,6.46875 C12.9804748,6.46875 13.9231737,6.75650754 14.6054688,7.33203125 C15.2877638,7.90755496 15.6289062,8.70051578 15.6289062,9.7109375 C15.6289062,10.2317734 15.4700537,10.7109353 15.1523438,11.1484375 C14.8346338,11.5859397 14.4179713,11.9218738 13.9023438,12.15625 C14.542972,12.3854178 15.0208318,12.7291644 15.3359375,13.1875 C15.6510432,13.6458356 15.8085938,14.1874969 15.8085938,14.8125 C15.8085938,15.8229217 15.4401079,16.6328095 14.703125,17.2421875 C13.9661421,17.8515655 12.9908915,18.15625 11.7773438,18.15625 C10.6419214,18.15625 9.71354527,17.8567738 8.9921875,17.2578125 C8.27082973,16.6588512 7.91015625,15.8671924 7.91015625,14.8828125 L10.1679688,14.8828125 C10.1679688,15.309898 10.3281234,15.6588528 10.6484375,15.9296875 C10.9687516,16.2005222 11.3632789,16.3359375 11.8320312,16.3359375 C12.3684923,16.3359375 12.789061,16.1940118 13.09375,15.9101562 C13.398439,15.6263007 13.5507812,15.2500023 13.5507812,14.78125 C13.5507812,13.6458277 12.9257875,13.078125 11.6757812,13.078125 L10.4804688,13.078125 L10.4804688,11.3125 Z" />
      </svg>

      <svg class="icon" id="ic_4" viewBox="0 0 24 24">
        <path d="M12,22 C17.5228475,22 22,17.5228475 22,12 C22,6.4771525 17.5228475,2 12,2 C6.4771525,2 2,6.4771525 2,12 C2,17.5228475 6.4771525,22 12,22 Z M14.8632812,13.71875 L16.1523438,13.71875 L16.1523438,15.5390625 L14.8632812,15.5390625 L14.8632812,18 L12.6054688,18 L12.6054688,15.5390625 L7.94140625,15.5390625 L7.83984375,14.1171875 L12.5820312,6.625 L14.8632812,6.625 L14.8632812,13.71875 Z M10.0898438,13.71875 L12.6054688,13.71875 L12.6054688,9.703125 L12.4570312,9.9609375 L10.0898438,13.71875 Z" />
      </svg>

      <svg class="icon" id="ic_5" viewBox="0 0 24 24">
        <path d="M12,22 C17.5228475,22 22,17.5228475 22,12 C22,6.4771525 17.5228475,2 12,2 C6.4771525,2 2,6.4771525 2,12 C2,17.5228475 6.4771525,22 12,22 Z M8.51953125,12.40625 L9.17578125,6.625 L15.5507812,6.625 L15.5507812,8.5078125 L11.0273438,8.5078125 L10.7460938,10.953125 C11.2825548,10.6666652 11.8528616,10.5234375 12.4570312,10.5234375 C13.54037,10.5234375 14.3893198,10.8593716 15.0039062,11.53125 C15.6184927,12.2031284 15.9257812,13.1432231 15.9257812,14.3515625 C15.9257812,15.0859412 15.7708349,15.7434867 15.4609375,16.3242188 C15.1510401,16.9049508 14.7070341,17.3554671 14.1289062,17.6757812 C13.5507784,17.9960954 12.8684935,18.15625 12.0820312,18.15625 C11.3945278,18.15625 10.7565134,18.0169285 10.1679688,17.7382812 C9.57942414,17.459634 9.11458504,17.0677109 8.7734375,16.5625 C8.43228996,16.0572891 8.25130219,15.4817741 8.23046875,14.8359375 L10.4648438,14.8359375 C10.511719,15.3098982 10.6770819,15.6783841 10.9609375,15.9414062 C11.2447931,16.2044284 11.6158831,16.3359375 12.0742188,16.3359375 C12.584638,16.3359375 12.9778632,16.1523456 13.2539062,15.7851562 C13.5299493,15.4179669 13.6679688,14.8984409 13.6679688,14.2265625 C13.6679688,13.5807259 13.5091162,13.0859392 13.1914062,12.7421875 C12.8736963,12.3984358 12.42318,12.2265625 11.8398438,12.2265625 C11.3033827,12.2265625 10.8684912,12.3671861 10.5351562,12.6484375 L10.3164062,12.8515625 L8.51953125,12.40625 Z" />
      </svg>

      <svg class="icon" id="ic_6" viewBox="0 0 24 24">
        <path d="M12,22 C17.5228475,22 22,17.5228475 22,12 C22,6.4771525 17.5228475,2 12,2 C6.4771525,2 2,6.4771525 2,12 C2,17.5228475 6.4771525,22 12,22 Z M14.3085938,6.5078125 L14.3085938,8.3671875 L14.0898438,8.3671875 C13.0690053,8.38281258 12.2473989,8.64843492 11.625,9.1640625 C11.0026011,9.67969008 10.6289069,10.3958287 10.5039062,11.3125 C11.1080759,10.6979136 11.8710891,10.390625 12.7929688,10.390625 C13.782557,10.390625 14.5690075,10.7447881 15.1523438,11.453125 C15.73568,12.1614619 16.0273438,13.0937442 16.0273438,14.25 C16.0273438,14.989587 15.8671891,15.6588512 15.546875,16.2578125 C15.2265609,16.8567738 14.7734404,17.322915 14.1875,17.65625 C13.6015596,17.989585 12.9388058,18.15625 12.1992188,18.15625 C11.0012961,18.15625 10.0338579,17.7395875 9.296875,16.90625 C8.55989215,16.0729125 8.19140625,14.9609445 8.19140625,13.5703125 L8.19140625,12.7578125 C8.19140625,11.5234313 8.42447684,10.4335985 8.890625,9.48828125 C9.35677316,8.54296402 10.0260373,7.81120051 10.8984375,7.29296875 C11.7708377,6.77473699 12.7825463,6.51302086 13.9335938,6.5078125 L14.3085938,6.5078125 Z M12.1054688,12.203125 C11.7408836,12.203125 11.4101577,12.2981761 11.1132812,12.4882812 C10.8164048,12.6783864 10.597657,12.9296859 10.4570312,13.2421875 L10.4570312,13.9296875 C10.4570312,14.6848996 10.6054673,15.2747375 10.9023438,15.6992188 C11.1992202,16.1237 11.6158827,16.3359375 12.1523438,16.3359375 C12.6367212,16.3359375 13.0286443,16.1445332 13.328125,15.7617188 C13.6276057,15.3789043 13.7773438,14.8828155 13.7773438,14.2734375 C13.7773438,13.6536427 13.6263036,13.1536477 13.3242188,12.7734375 C13.0221339,12.3932273 12.615888,12.203125 12.1054688,12.203125 L12.1054688,12.203125 Z" />
      </svg>

      <svg class="icon" id="ic_6" viewBox="0 0 24 24">
        <path d="M12,22 C17.5228475,22 22,17.5228475 22,12 C22,6.4771525 17.5228475,2 12,2 C6.4771525,2 2,6.4771525 2,12 C2,17.5228475 6.4771525,22 12,22 Z M14.3085938,6.5078125 L14.3085938,8.3671875 L14.0898438,8.3671875 C13.0690053,8.38281258 12.2473989,8.64843492 11.625,9.1640625 C11.0026011,9.67969008 10.6289069,10.3958287 10.5039062,11.3125 C11.1080759,10.6979136 11.8710891,10.390625 12.7929688,10.390625 C13.782557,10.390625 14.5690075,10.7447881 15.1523438,11.453125 C15.73568,12.1614619 16.0273438,13.0937442 16.0273438,14.25 C16.0273438,14.989587 15.8671891,15.6588512 15.546875,16.2578125 C15.2265609,16.8567738 14.7734404,17.322915 14.1875,17.65625 C13.6015596,17.989585 12.9388058,18.15625 12.1992188,18.15625 C11.0012961,18.15625 10.0338579,17.7395875 9.296875,16.90625 C8.55989215,16.0729125 8.19140625,14.9609445 8.19140625,13.5703125 L8.19140625,12.7578125 C8.19140625,11.5234313 8.42447684,10.4335985 8.890625,9.48828125 C9.35677316,8.54296402 10.0260373,7.81120051 10.8984375,7.29296875 C11.7708377,6.77473699 12.7825463,6.51302086 13.9335938,6.5078125 L14.3085938,6.5078125 Z M12.1054688,12.203125 C11.7408836,12.203125 11.4101577,12.2981761 11.1132812,12.4882812 C10.8164048,12.6783864 10.597657,12.9296859 10.4570312,13.2421875 L10.4570312,13.9296875 C10.4570312,14.6848996 10.6054673,15.2747375 10.9023438,15.6992188 C11.1992202,16.1237 11.6158827,16.3359375 12.1523438,16.3359375 C12.6367212,16.3359375 13.0286443,16.1445332 13.328125,15.7617188 C13.6276057,15.3789043 13.7773438,14.8828155 13.7773438,14.2734375 C13.7773438,13.6536427 13.6263036,13.1536477 13.3242188,12.7734375 C13.0221339,12.3932273 12.615888,12.203125 12.1054688,12.203125 L12.1054688,12.203125 Z" />
      </svg>

      <svg class="icon" id="ic_7" viewBox="0 0 24 24">
        <path d="M12,22 C17.5228475,22 22,17.5228475 22,12 C22,6.4771525 17.5228475,2 12,2 C6.4771525,2 2,6.4771525 2,12 C2,17.5228475 6.4771525,22 12,22 Z M15.9179688,7.890625 L11.5195312,18 L9.13671875,18 L13.5429688,8.453125 L7.88671875,8.453125 L7.88671875,6.625 L15.9179688,6.625 L15.9179688,7.890625 Z" />
      </svg>

      <svg class="icon" id="ic_8" viewBox="0 0 24 24">
        <path d="M12,22 C17.5228475,22 22,17.5228475 22,12 C22,6.4771525 17.5228475,2 12,2 C6.4771525,2 2,6.4771525 2,12 C2,17.5228475 6.4771525,22 12,22 Z M15.5976562,9.6484375 C15.5976562,10.2005236 15.4596368,10.690102 15.1835938,11.1171875 C14.9075507,11.544273 14.5273462,11.8854154 14.0429688,12.140625 C14.5950548,12.4062513 15.0325505,12.7721331 15.3554688,13.2382812 C15.678387,13.7044294 15.8398438,14.252601 15.8398438,14.8828125 C15.8398438,15.8932342 15.4960972,16.6914033 14.8085938,17.2773438 C14.1210903,17.8632842 13.1862038,18.15625 12.0039062,18.15625 C10.8216087,18.15625 9.88411805,17.8619821 9.19140625,17.2734375 C8.49869445,16.6848929 8.15234375,15.8880259 8.15234375,14.8828125 C8.15234375,14.252601 8.31380047,13.7031273 8.63671875,13.234375 C8.95963703,12.7656227 9.39452852,12.401043 9.94140625,12.140625 C9.45702883,11.8854154 9.07812637,11.544273 8.8046875,11.1171875 C8.53124863,10.690102 8.39453125,10.2005236 8.39453125,9.6484375 C8.39453125,8.67968266 8.71744469,7.90755496 9.36328125,7.33203125 C10.0091178,6.75650754 10.8867132,6.46875 11.9960938,6.46875 C13.1002659,6.46875 13.9765593,6.7539034 14.625,7.32421875 C15.2734407,7.8945341 15.5976562,8.66926594 15.5976562,9.6484375 Z M13.5742188,14.71875 C13.5742188,14.2239559 13.430991,13.8281265 13.1445312,13.53125 C12.8580715,13.2343735 12.4726587,13.0859375 11.9882812,13.0859375 C11.5091122,13.0859375 11.1263035,13.2330714 10.8398438,13.5273438 C10.553384,13.8216161 10.4101562,14.2187475 10.4101562,14.71875 C10.4101562,15.2031274 10.5507798,15.5937485 10.8320312,15.890625 C11.1132827,16.1875015 11.5039037,16.3359375 12.0039062,16.3359375 C12.493492,16.3359375 12.8776028,16.1927098 13.15625,15.90625 C13.4348972,15.6197902 13.5742188,15.2239609 13.5742188,14.71875 L13.5742188,14.71875 Z M13.3398438,9.7578125 C13.3398438,9.31510195 13.2226574,8.95963676 12.9882812,8.69140625 C12.7539051,8.42317574 12.4231792,8.2890625 11.9960938,8.2890625 C11.5742166,8.2890625 11.2460949,8.41926953 11.0117188,8.6796875 C10.7773426,8.94010547 10.6601562,9.29947687 10.6601562,9.7578125 C10.6601562,10.2109398 10.7773426,10.5755195 11.0117188,10.8515625 C11.2460949,11.1276055 11.5768208,11.265625 12.0039062,11.265625 C12.4309917,11.265625 12.7604155,11.1276055 12.9921875,10.8515625 C13.2239595,10.5755195 13.3398438,10.2109398 13.3398438,9.7578125 L13.3398438,9.7578125 Z" />
      </svg>

      <svg class="icon" id="ic_9" viewBox="0 0 24 24">
        <path d="M12,22 C17.5228475,22 22,17.5228475 22,12 C22,6.4771525 17.5228475,2 12,2 C6.4771525,2 2,6.4771525 2,12 C2,17.5228475 6.4771525,22 12,22 Z M13.4648438,13.453125 C12.8762991,14.0312529 12.188806,14.3203125 11.4023438,14.3203125 C10.3971304,14.3203125 9.59245094,13.9752639 8.98828125,13.2851562 C8.38411156,12.5950486 8.08203125,11.6640684 8.08203125,10.4921875 C8.08203125,9.74739211 8.24479004,9.0638052 8.5703125,8.44140625 C8.89583496,7.8190073 9.3502575,7.33463715 9.93359375,6.98828125 C10.51693,6.64192535 11.1731734,6.46875 11.9023438,6.46875 C12.6523475,6.46875 13.3190075,6.65624812 13.9023438,7.03125 C14.48568,7.40625188 14.9388005,7.94530898 15.2617188,8.6484375 C15.584637,9.35156602 15.7486979,10.1562455 15.7539062,11.0625 L15.7539062,11.8984375 C15.7539062,13.7942803 15.2825568,15.2838488 14.3398438,16.3671875 C13.3971307,17.4505262 12.0612066,18.0286455 10.3320312,18.1015625 L9.77734375,18.109375 L9.77734375,16.2265625 L10.2773438,16.21875 C12.2408952,16.1302079 13.3033846,15.2083421 13.4648438,13.453125 Z M11.9570312,12.59375 C12.3216164,12.59375 12.6354154,12.5000009 12.8984375,12.3125 C13.1614596,12.1249991 13.3606764,11.8984388 13.4960938,11.6328125 L13.4960938,10.703125 C13.4960938,9.93749617 13.3502619,9.34375211 13.0585938,8.921875 C12.7669256,8.49999789 12.3763045,8.2890625 11.8867188,8.2890625 C11.4335915,8.2890625 11.0611994,8.49609168 10.7695312,8.91015625 C10.4778631,9.32422082 10.3320312,9.84374688 10.3320312,10.46875 C10.3320312,11.0885448 10.4739569,11.5976543 10.7578125,11.9960938 C11.0416681,12.3945332 11.4414037,12.59375 11.9570312,12.59375 L11.9570312,12.59375 Z" />
      </svg>

      <svg class="icon" id="ic_9_plus" viewBox="0 0 24 24">
        <path d="M12,22 C17.5228475,22 22,17.5228475 22,12 C22,6.4771525 17.5228475,2 12,2 C6.4771525,2 2,6.4771525 2,12 C2,17.5228475 6.4771525,22 12,22 Z M9.96044922,13.0214844 C9.44547269,13.5273463 8.8439162,13.7802734 8.15576172,13.7802734 C7.27620003,13.7802734 6.57210551,13.4783559 6.04345703,12.8745117 C5.51480855,12.2706676 5.25048828,11.4560598 5.25048828,10.4306641 C5.25048828,9.7789681 5.39290222,9.18082955 5.67773438,8.63623047 C5.96256653,8.09163139 6.36018625,7.6678075 6.87060547,7.36474609 C7.38102469,7.06168468 7.9552377,6.91015625 8.59326172,6.91015625 C9.249515,6.91015625 9.8328425,7.07421711 10.3432617,7.40234375 C10.8536809,7.73047039 11.2501613,8.20214536 11.5327148,8.81738281 C11.8152683,9.43262026 11.9588216,10.1367148 11.9633789,10.9296875 L11.9633789,11.6611328 C11.9633789,13.3199953 11.5509481,14.6233677 10.7260742,15.5712891 C9.9012003,16.5192105 8.73226668,17.0250648 7.21923828,17.0888672 L6.73388672,17.0957031 L6.73388672,15.4482422 L7.17138672,15.4414062 C8.88949427,15.3639319 9.81917247,14.5572993 9.96044922,13.0214844 Z M8.64111328,12.2695312 C8.96012529,12.2695312 9.23469937,12.1875008 9.46484375,12.0234375 C9.69498813,11.8593742 9.86930279,11.661134 9.98779297,11.4287109 L9.98779297,10.6152344 C9.98779297,9.94530915 9.86019008,9.4257831 9.60498047,9.05664062 C9.34977086,8.68749815 9.0079774,8.50292969 8.57958984,8.50292969 C8.18310349,8.50292969 7.85726039,8.68408022 7.60205078,9.04638672 C7.34684117,9.40869322 7.21923828,9.86327852 7.21923828,10.4101562 C7.21923828,10.9524767 7.34342324,11.3979475 7.59179688,11.746582 C7.84017051,12.0952166 8.18993915,12.2695312 8.64111328,12.2695312 L8.64111328,12.2695312 Z M17.4389648,11.4287109 L19.9067383,11.4287109 L19.9067383,13.2128906 L17.4389648,13.2128906 L17.4389648,16.0019531 L15.559082,16.0019531 L15.559082,13.2128906 L13.0844727,13.2128906 L13.0844727,11.4287109 L15.559082,11.4287109 L15.559082,8.75585938 L17.4389648,8.75585938 L17.4389648,11.4287109 Z" />
      </svg>

      <svg class="icon" id="ic_add" viewBox="0 0 24 24">
        <path d="M19,13 L13,13 L13,19 L11,19 L11,13 L5,13 L5,11 L11,11 L11,5 L13,5 L13,11 L19,11 L19,13 L19,13 Z" />
      </svg>

      <svg class="icon" id="ic_add_square" viewBox="0 0 24 24">
        <path d="M19,3 L5,3 C3.89,3 3,3.9 3,5 L3,19 C3,20.1 3.89,21 5,21 L19,21 C20.1,21 21,20.1 21,19 L21,5 C21,3.9 20.1,3 19,3 L19,3 Z M17,13 L13,13 L13,17 L11,17 L11,13 L7,13 L7,11 L11,11 L11,7 L13,7 L13,11 L17,11 L17,13 L17,13 Z" />
      </svg>

      <svg class="icon" id="ic_back" viewBox="0 0 24 24">
        <path d="M20,11 L7.83,11 L13.42,5.41 L12,4 L4,12 L12,20 L13.41,18.59 L7.83,13 L20,13 L20,11 L20,11 Z" />
      </svg>

      <svg class="icon" id="ic_caret_right" viewBox="0 0 24 24">
        <path d="M9.41,6 L8,7.41 L12.58,12 L8,16.59 L9.41,18 L15.41,12 L9.41,6 Z" />
      </svg>

      <svg class="icon" id="ic_caret_left" viewBox="0 0 24 24">
        <path d="M9.41,6 L8,7.41 L12.58,12 L8,16.59 L9.41,18 L15.41,12 L9.41,6 Z" transform="translate(11.705000, 12.000000) scale(-1, 1) translate(-11.705000, -12.000000) " />
      </svg>

      <svg class="icon" id="ic_check" viewBox="0 0 24 24">
        <path d="M8.6,15.6 L4.4,11.4 L3,12.8 L8.6,18.4 L20.6,6.4 L19.2,5 L8.6,15.6 L8.6,15.6 Z" />
      </svg>

      <svg class="icon" id="ic_close" viewBox="0 0 24 24">
        <path d="M19,6.41 L17.59,5 L12,10.59 L6.41,5 L5,6.41 L10.59,12 L5,17.59 L6.41,19 L12,13.41 L17.59,19 L19,17.59 L13.41,12 L19,6.41 Z" />
      </svg>

      <svg class="icon" id="ic_collection" viewBox="0 0 24 24">
        <path d="M21.6504288,4.1 L20.3104288,3.54 L20.3104288,12.57 L22.7404288,6.71 C23.1504288,5.69 22.6604288,4.52 21.6504288,4.1 L21.6504288,4.1 L21.6504288,4.1 Z M2.15042884,7.8 L7.11042884,19.77 C7.42042884,20.52 8.15042884,20.98 8.92042884,21 C9.18042884,21 9.45042884,20.96 9.71042884,20.85 L17.0804288,17.8 C17.8304288,17.49 18.2904288,16.77 18.3104288,16 C18.3204288,15.73 18.2704288,15.46 18.1604288,15.2 L13.2004288,3.23 C12.8904288,2.47 12.1504288,2.01 11.3704288,2 C11.1104288,2 10.8504288,2.05 10.6004288,2.15 L3.24042884,5.2 C2.22042884,5.62 1.73042884,6.79 2.15042884,7.8 L2.15042884,7.8 L2.15042884,7.8 Z M18.3004288,4 C18.3004288,2.9 17.4004288,2 16.3004288,2 L14.8504288,2 L18.3004288,10.34 L18.3004288,4 L18.3004288,4 Z" />
      </svg>

      <svg class="icon" id="ic_expand_less" viewBox="0 0 24 24">
        <path d="M12,8 L6,14 L7.41,15.41 L12,10.83 L16.59,15.41 L18,14 L12,8 Z" />
      </svg>

      <svg class="icon" id="ic_expand_more" viewBox="0 0 24 24">
        <path d="M12,15.41 L6,9.41 L7.41,8 L12,12.58 L16.59,8 L18,9.41 L12,15.41 L12,15.41 Z" />
      </svg>

      <svg class="icon" id="ic_friend" viewBox="0 0 24 24">
        <path d="M16,11 C17.66,11 18.99,9.66 18.99,8 C18.99,6.34 17.66,5 16,5 C14.34,5 13,6.34 13,8 C13,9.66 14.34,11 16,11 L16,11 Z M8,11 C9.66,11 10.99,9.66 10.99,8 C10.99,6.34 9.66,5 8,5 C6.34,5 5,6.34 5,8 C5,9.66 6.34,11 8,11 L8,11 Z M8,13 C5.67,13 1,14.17 1,16.5 L1,19 L15,19 L15,16.5 C15,14.17 10.33,13 8,13 L8,13 Z M16,13 C15.71,13 15.38,13.02 15.03,13.05 C16.19,13.89 17,15.02 17,16.5 L17,19 L23,19 L23,16.5 C23,14.17 18.33,13 16,13 L16,13 Z" />
      </svg>

      <svg class="icon" id="ic_gold" viewBox="0 0 24 24">
        <path d="M12,22 C17.5228475,22 22,17.5228475 22,12 C22,6.4771525 17.5228475,2 12,2 C6.4771525,2 2,6.4771525 2,12 C2,17.5228475 6.4771525,22 12,22 L12,22 Z M14.4,7 L9.6,7 C8.64,7 8,7.83333333 8,8.66666667 L8,15.3333333 C8,16.1666667 8.64,17 9.6,17 L14.4,17 C15.36,17 16,16.1666667 16,15.3333333 L16,12 L13.6,12 L13.6,14.5 L10.4,14.5 L10.4,9.5 L16,9.5 L16,8.66666667 C16,7.83333333 15.36,7 14.4,7 L14.4,7 Z" />
      </svg>

      <svg class="icon" id="ic_home" viewBox="0 0 24 24">
        <path d="M10,20 L10,14 L14,14 L14,20 L19,20 L19,12 L22,12 L12,3 L2,12 L5,12 L5,20 L10,20 Z" />
      </svg>

      <svg class="icon" id="ic_install" viewBox="0 0 24 24">
        <path d="M19,9 L15,9 L15,3 L9,3 L9,9 L5,9 L12,16 L19,9 L19,9 Z M5,18 L5,20 L19,20 L19,18 L5,18 L5,18 Z" />
      </svg>

      <svg class="icon" id="ic_leave" viewBox="0 0 24 24">
        <path d="M10.5144444,14.7922222 L11.6111111,15.8888889 L15.5,12 L11.6111111,8.11111111 L10.5144444,9.20777778 L12.5211111,11.2222222 L5,11.2222222 L5,12.7777778 L12.5211111,12.7777778 L10.5144444,14.7922222 L10.5144444,14.7922222 Z M17.4444444,5 L6.55555556,5 C5.69222222,5 5,5.7 5,6.55555556 L5,9.66666667 L6.55555556,9.66666667 L6.55555556,6.55555556 L17.4444444,6.55555556 L17.4444444,17.4444444 L6.55555556,17.4444444 L6.55555556,14.3333333 L5,14.3333333 L5,17.4444444 C5,18.3 5.69222222,19 6.55555556,19 L17.4444444,19 C18.3,19 19,18.3 19,17.4444444 L19,6.55555556 C19,5.7 18.3,5 17.4444444,5 L17.4444444,5 Z" />
      </svg>

      <svg class="icon" id="ic_lock" viewBox="0 0 24 24">
        <path d="M12,22 C17.5228475,22 22,17.5228475 22,12 C22,6.4771525 17.5228475,2 12,2 C6.4771525,2 2,6.4771525 2,12 C2,17.5228475 6.4771525,22 12,22 Z M15.75,9.33333333 L15.125,9.33333333 L15.125,8.0952381 C15.125,6.38666667 13.725,5 12,5 C10.275,5 8.875,6.38666667 8.875,8.0952381 L8.875,9.33333333 L8.25,9.33333333 C7.5625,9.33333333 7,9.89047619 7,10.5714286 L7,16.7619048 C7,17.4428571 7.5625,18 8.25,18 L15.75,18 C16.4375,18 17,17.4428571 17,16.7619048 L17,10.5714286 C17,9.89047619 16.4375,9.33333333 15.75,9.33333333 Z M12,14.9047619 C11.3125,14.9047619 10.75,14.347619 10.75,13.6666667 C10.75,12.9857143 11.3125,12.4285714 12,12.4285714 C12.6875,12.4285714 13.25,12.9857143 13.25,13.6666667 C13.25,14.347619 12.6875,14.9047619 12,14.9047619 Z M13.9375,9.33333333 L10.0625,9.33333333 L10.0625,8.0952381 C10.0625,7.03666667 10.93125,6.17619048 12,6.17619048 C13.06875,6.17619048 13.9375,7.03666667 13.9375,8.0952381 L13.9375,9.33333333 Z" />
      </svg>

      <svg class="icon" id="ic_menu" viewBox="0 0 24 24">
        <path d="M3,18 L21,18 L21,16 L3,16 L3,18 L3,18 Z M3,13 L21,13 L21,11 L3,11 L3,13 L3,13 Z M3,6 L3,8 L21,8 L21,6 L3,6 L3,6 Z" />
      </svg>

      <svg class="icon" id="ic_pending" viewBox="0 0 24 24">
        <path d="M11.99,2 C6.47,2 2,6.48 2,12 C2,17.52 6.47,22 11.99,22 C17.52,22 22,17.52 22,12 C22,6.48 17.52,2 11.99,2 L11.99,2 Z M12,20 C7.58,20 4,16.42 4,12 C4,7.58 7.58,4 12,4 C16.42,4 20,7.58 20,12 C20,16.42 16.42,20 12,20 L12,20 Z M12.5,7 L11,7 L11,13 L16.25,16.15 L17,14.92 L12.5,12.25 L12.5,7 Z" />
      </svg>

      <svg class="icon" id="ic_rewarding" viewBox="0 0 24 24">
        <path d="M20,6 L17.82,6 C17.93,5.69 18,5.35 18,5 C18,3.34 16.66,2 15,2 C13.95,2 13.04,2.54 12.5,3.35 L12,4.02 L11.5,3.34 C10.96,2.54 10.05,2 9,2 C7.34,2 6,3.34 6,5 C6,5.35 6.07,5.69 6.18,6 L4,6 C2.89,6 2.01,6.89 2.01,8 L2,19 C2,20.11 2.89,21 4,21 L20,21 C21.11,21 22,20.11 22,19 L22,8 C22,6.89 21.11,6 20,6 L20,6 Z M15,4 C15.55,4 16,4.45 16,5 C16,5.55 15.55,6 15,6 C14.45,6 14,5.55 14,5 C14,4.45 14.45,4 15,4 L15,4 Z M9,4 C9.55,4 10,4.45 10,5 C10,5.55 9.55,6 9,6 C8.45,6 8,5.55 8,5 C8,4.45 8.45,4 9,4 L9,4 Z M4,19 L4,8 L9.08,8 L7,10.83 L8.62,12 L11,8.76 L12,7.4 L13,8.76 L15.38,12 L17,10.83 L14.92,8 L20,8 L20,19 L4,19 Z" />
      </svg>

      <svg class="icon" id="ic_share" viewBox="0 0 24 24">
        <path d="M21,12 L14,5 L14,9 C7,10 4,15 3,20 C5.5,16.5 9,14.9 14,14.9 L14,19 L21,12 L21,12 Z" />
      </svg>

      <svg class="icon" id="ic_share_kik" viewBox="0 0 24 24">
        <path d="M11.6976557,20.054353 L8.63743047,15.9295709 L7.69964021,16.8065699 L7.69954722,19.2468458 L7.67545255,19.2458986 L7.67545255,19.2458986 C7.62184382,20.2238119 6.82942335,20.9999062 5.85930589,20.9999062 C4.85437119,20.9999062 4.04026807,20.1672588 4.04026807,19.1401394 C4.04026807,19.1277344 4.04038683,19.1153578 4.04062325,19.1030107 L4,19.1014138 L4.000186,4.94518821 L4.04199778,4.9456359 C4.04128057,4.92398001 4.04091905,4.90223121 4.04091905,4.88039549 C4.04091905,3.84174281 4.85883509,3 5.8673967,3 C6.87605131,3 7.69378135,3.84174281 7.69378135,4.88039549 C7.69378135,4.91539742 7.69285264,4.95017602 7.69101919,4.98470657 L7.7133109,4.98494525 L7.73153847,11.8808226 L11.1689248,8.49153496 L11.1699409,8.49249031 L11.1699409,8.49249031 C11.5099162,8.11250712 12.0012773,7.87380057 12.5476178,7.87380057 C13.573663,7.87380057 14.4052497,8.71526208 14.4052497,9.75335216 C14.4052497,10.2566302 14.2097917,10.7137584 13.8914772,11.0511931 L13.9104082,11.0689914 L11.4919993,13.4702604 L14.8720989,18.0644489 L14.8467448,18.0829998 C15.0351881,18.3790061 15.1446756,18.7323946 15.1446756,19.1119157 C15.1446756,20.1545065 14.3181107,21 13.2982964,21 C12.6141204,21 12.0167815,20.6195687 11.6976557,20.054353 Z M17.9444687,11.8102164 C19.0798793,11.8102164 20,12.7339112 20,13.8734568 C20,15.0130023 19.0798793,15.9366971 17.9444687,15.9366971 C16.809151,15.9366971 15.8891233,15.0130023 15.8891233,13.8734568 C15.8891233,12.734005 16.809151,11.8102164 17.9444687,11.8102164 Z" />
      </svg>

      <svg class="icon" id="ic_subtract_square" viewBox="0 0 24 24">
        <path d="M19,3 L5,3 C3.89,3 3,3.9 3,5 L3,19 C3,20.1 3.89,21 5,21 L19,21 C20.1,21 21,20.1 21,19 L21,5 C21,3.9 20.1,3 19,3 Z M17,13 L7,13 L7,11 L17,11 L17,13 Z" />
      </svg>

      <svg class="icon" id="ic_trade" viewBox="0 0 24 24">
        <path d="M6.99,11 L3,15 L6.99,19 L6.99,16 L14,16 L14,14 L6.99,14 L6.99,11 L6.99,11 Z M21,9 L17.01,5 L17.01,8 L10,8 L10,10 L17.01,10 L17.01,13 L21,9 L21,9 Z" />
      </svg>

      <svg class="icon" id="ic_trade_circle" viewBox="0 0 24 24">
        <path d="M2,12 C2,17.52 6.48,22 12,22 C17.52,22 22,17.52 22,12 C22,6.48 17.52,2 12,2 C6.48,2 2,6.48 2,12 L2,12 L2,12 Z M9,17.5 L5.5,14 L9,10.5 L9,13 L13,13 L13,15 L9,15 L9,17.5 L9,17.5 Z M15,6.5 L18.5,10 L15,13.5 L15,11 L11,11 L11,9 L15,9 L15,6.5 L15,6.5 Z" />
      </svg>

      <svg class="icon" id="ic_wishlist" viewBox="0 0 24 24">
        <path d="M21.41,11.58 L12.41,2.58 C12.05,2.22 11.55,2 11,2 L4,2 C2.9,2 2,2.9 2,4 L2,11 C2,11.55 2.22,12.05 2.59,12.42 L11.59,21.42 C11.95,21.78 12.45,22 13,22 C13.55,22 14.05,21.78 14.41,21.41 L21.41,14.41 C21.78,14.05 22,13.55 22,13 C22,12.45 21.77,11.94 21.41,11.58 L21.41,11.58 Z M5.5,7 C4.67,7 4,6.33 4,5.5 C4,4.67 4.67,4 5.5,4 C6.33,4 7,4.67 7,5.5 C7,6.33 6.33,7 5.5,7 L5.5,7 Z M17.27,15.27 L13,19.54 L8.73,15.27 C8.28,14.81 8,14.19 8,13.5 C8,12.12 9.12,11 10.5,11 C11.19,11 11.82,11.28 12.27,11.74 L13,12.46 L13.73,11.73 C14.18,11.28 14.81,11 15.5,11 C16.88,11 18,12.12 18,13.5 C18,14.19 17.72,14.82 17.27,15.27 L17.27,15.27 Z" />
      </svg>

      <svg class="icon" id="ic_shop" viewBox="0 0 24 24">
        <path d="M20 4H4v2h16V4zm1 10v-2l-1-5H4l-1 5v2h1v6h10v-6h4v6h2v-6h1zm-9 4H6v-4h6v4z" />
      </svg>

      <!-- This icon is in a 48px bounding box -->
      <svg class="icon" id="ic_new_trade" viewBox="0 0 48 48">
        <path d="M14,24 C14,29.52 18.48,34 24,34 C29.52,34 34,29.52 34,24 C34,18.48 29.52,14 24,14 C18.48,14 14,18.48 14,24 L14,24 L14,24 Z M21,29.5 L17.5,26 L21,22.5 L21,25 L25,25 L25,27 L21,27 L21,29.5 L21,29.5 Z M27,18.5 L30.5,22 L27,25.5 L27,23 L23,23 L23,21 L27,21 L27,18.5 Z M9,23 L9,20 L7,20 L7,23 L4,23 L4,25 L7,25 L7,28 L9,28 L9,25 L12,25 L12,23 L9,23 Z" />
      </svg>

</svg>
