<?xml version="1.0" encoding="UTF-8" standalone="no"?>
<svg width="72px" height="72px" viewBox="0 0 72 72" version="1.1" xmlns="http://www.w3.org/2000/svg" xmlns:xlink="http://www.w3.org/1999/xlink" xmlns:sketch="http://www.bohemiancoding.com/sketch/ns">
    <!-- Generator: Sketch 3.3.3 (12081) - http://www.bohemiancoding.com/sketch -->
    <title>Bounds</title>
    <desc>Created with Sketch.</desc>
    <defs></defs>
    <g id="Graphics" stroke="none" stroke-width="1" fill="none" fill-rule="evenodd" sketch:type="MSPage">
        <g id="loading_cat_head" sketch:type="MSArtboardGroup" fill="#FFFFFF">
            <g id="Cat-icon" sketch:type="MSLayerGroup">
                <path d="M0,0 L72,0 L72,72 L0,72 L0,0 Z M60.6707144,17.9666092 C60.9902138,18.844186 61.1425793,19.8246279 61.1939085,20.9672844 C61.2707063,22.6769047 61.1124577,24.8456434 60.769397,27.3057927 C60.1450917,31.7827974 58.9821079,36.6985501 58.7799988,36.6699982 C61.6848145,41.8098145 60.9762586,50.2913613 54.6094207,56.6473869 C51.4636469,59.7899972 47.4716866,62.2252607 43.0360228,64.0886877 C41.506596,64.7312015 40.0283949,65.2595089 38.6504475,65.6831973 C37.8044397,65.9433261 37.1624522,66.1146029 36.7743471,66.2050293 L36.3355787,66.3072599 L35.8850562,66.3072599 L35.250427,66.3072599 L34.7998647,66.3072599 L34.3610598,66.2050115 C33.9729602,66.1145783 33.3309837,65.9432894 32.4849888,65.6831429 C31.1070669,65.259427 29.6288852,64.7310852 28.099468,64.0885297 C23.6641856,62.2251304 19.6724331,59.7899356 16.527132,56.6480174 C10.1606051,50.2907887 9.68994141,41.4348145 12.3400002,36.7099991 C12.1675893,36.7251784 10.8683504,31.9223987 10.1218853,27.6957865 C9.69720404,25.2911688 9.46731042,23.1861513 9.48738675,21.5174279 C9.50104054,20.3825391 9.62443234,19.4047297 9.92792618,18.5172832 C10.5138431,16.8040031 11.7722202,15.4299218 13.8102976,15.1551282 C16.866048,14.7420705 20.2621844,16.0191239 24.3913928,18.4555781 C25.9525873,19.3767664 29.877922,22.0884374 29.877922,22.0884374 C31.4346777,21.6051557 32.9999169,21.3599266 34.5649573,21.3801023 L36.522805,21.3804091 C38.886612,21.3508304 41.2014615,21.901364 41.1599998,22.0499992 C41.1599998,22.0499992 43.8371386,19.8864463 46.2907174,18.2728809 C50.3108189,15.6291113 53.6545869,14.2314947 56.7908735,14.6553987 C58.8166347,14.928881 60.0546647,16.2744906 60.6707144,17.9666092 Z" id="Bounds" sketch:type="MSShapeGroup"></path>
            </g>
        </g>
    </g>
</svg>