<?xml version="1.0" encoding="UTF-8" standalone="no"?>
<svg width="38px" height="18px" viewBox="0 0 38 18" version="1.1" xmlns="http://www.w3.org/2000/svg" xmlns:xlink="http://www.w3.org/1999/xlink" xmlns:sketch="http://www.bohemiancoding.com/sketch/ns">
    <!-- Generator: Sketch 3.4.4 (17249) - http://www.bohemiancoding.com/sketch -->
    <title>lb_t1</title>
    <desc>Created with Sketch.</desc>
    <defs></defs>
    <g id="Page-1" stroke="none" stroke-width="1" fill="none" fill-rule="evenodd" sketch:type="MSPage">
        <g id="D---tier-1" sketch:type="MSArtboardGroup" transform="translate(-2.000000, -3.000000)" fill="#000000">
            <path d="M2,4.99508929 C2,3.8932319 2.90185079,3 4.00285922,3 L37.9971408,3 C39.1032894,3 40,3.8926228 40,4.99508929 L40,19.0049107 C40,20.1067681 39.0981492,21 37.9971408,21 L4.00285922,21 C2.89671062,21 2,20.1073772 2,19.0049107 L2,4.99508929 Z M9.47854392,10.7160456 C10.2862044,10.6117323 10.8342882,9.697731 10.7009167,8.67477145 C10.5707302,7.6507502 9.80898667,6.90542835 9.00039723,7.00974156 C8.19313486,7.11286034 7.64664358,8.02619812 7.7790861,9.0504848 C7.90980342,10.0751696 8.67128155,10.8198279 9.47854392,10.7160456 Z M7.67743182,13.4048313 C8.37958951,13.25367 8.7875337,12.3887729 8.59112596,11.4709228 C8.39485092,10.5555943 7.66601894,9.93449278 6.96372855,10.0855213 C6.26143816,10.23509 5.85349397,11.1009162 6.04884005,12.0179699 C6.24498237,12.9355546 6.97580497,13.555329 7.67743182,13.4048313 Z M12.590545,10.7160456 C13.3975419,10.8198279 14.1582238,10.0751696 14.2888084,9.0504848 C14.4216491,8.02619812 13.8747597,7.11286034 13.0681608,7.00974156 C12.2594387,6.90542835 11.4994203,7.6507502 11.3669778,8.67477145 C11.2336064,9.697731 11.7826191,10.6117323 12.590545,10.7160456 Z M15.0364849,10.0853886 C14.3330002,9.93436007 13.6041682,10.5554616 13.4073623,11.4707901 C13.210291,12.3886401 13.6202259,13.25367 14.322649,13.4046986 C15.0250721,13.5551962 15.7536386,12.9354218 15.9515061,12.0177045 C16.1461887,11.1007834 15.7373155,10.23509 15.0364849,10.0853886 Z M14.055906,13.8465035 C13.6699913,13.5071538 13.2515632,13.2646853 13.0191916,12.7887729 C12.8075225,12.3602393 12.7662503,11.8617655 12.4681883,11.4750369 C12.1236785,11.0316395 11.5798414,10.7666096 11.0184868,10.7666096 C11.0126476,10.7666096 11.0057468,10.7676713 10.9985806,10.7676713 C10.9940685,10.7676713 10.9866369,10.7666096 10.9792052,10.7666096 C10.4183815,10.7666096 9.87587147,11.0316395 9.533485,11.4750369 C9.23210528,11.8617655 9.19109853,12.3603721 8.98141999,12.7887729 C8.74878298,13.2646853 8.33008945,13.5071538 7.94244957,13.8465035 C7.54724534,14.1912945 7.31593541,14.7039687 7.31593541,15.2293834 C7.31593541,16.240266 8.13567232,17.0613675 9.14796845,17.0613675 C9.48716993,17.0613675 9.8227883,16.966477 10.1112953,16.785986 C10.4029874,16.6049641 10.6297853,16.6301797 10.9985806,16.6191644 C11.3710918,16.6301797 11.5974915,16.6049641 11.8879892,16.785986 C12.1771598,16.966477 12.5113184,17.0613675 12.8523777,17.0613675 C13.8629487,17.0613675 14.6833491,16.240266 14.6833491,15.2293834 C14.6833491,14.7039687 14.4532336,14.1912945 14.055906,13.8465035 Z" id="lb_t1" sketch:type="MSShapeGroup"></path>
        </g>
    </g>
</svg>