<?xml version="1.0" encoding="UTF-8" standalone="no"?>
<svg width="38px" height="18px" viewBox="0 0 38 18" version="1.1" xmlns="http://www.w3.org/2000/svg" xmlns:xlink="http://www.w3.org/1999/xlink" xmlns:sketch="http://www.bohemiancoding.com/sketch/ns">
    <!-- Generator: Sketch 3.4.4 (17249) - http://www.bohemiancoding.com/sketch -->
    <title>lb_t2</title>
    <desc>Created with Sketch.</desc>
    <defs></defs>
    <g id="Page-1" stroke="none" stroke-width="1" fill="none" fill-rule="evenodd" sketch:type="MSPage">
        <g id="D---tier-2" sketch:type="MSArtboardGroup" transform="translate(-2.000000, -3.000000)" fill="#000000">
            <path d="M2,4.99508929 C2,3.8932319 2.90185079,3 4.00285922,3 L37.9971408,3 C39.1032894,3 40,3.8926228 40,4.99508929 L40,19.0049107 C40,20.1067681 39.0981492,21 37.9971408,21 L4.00285922,21 C2.89671062,21 2,20.1073772 2,19.0049107 L2,4.99508929 Z M12.4785439,10.7160456 C13.2862044,10.6117323 13.8342882,9.697731 13.7009167,8.67477145 C13.5707302,7.6507502 12.8089867,6.90542835 12.0003972,7.00974156 C11.1931349,7.11286034 10.6466436,8.02619812 10.7790861,9.0504848 C10.9098034,10.0751696 11.6712815,10.8198279 12.4785439,10.7160456 Z M10.6774318,13.4048313 C11.3795895,13.25367 11.7875337,12.3887729 11.591126,11.4709228 C11.3948509,10.5555943 10.6660189,9.93449278 9.96372855,10.0855213 C9.26143816,10.23509 8.85349397,11.1009162 9.04884005,12.0179699 C9.24498237,12.9355546 9.97580497,13.555329 10.6774318,13.4048313 Z M15.590545,10.7160456 C16.3975419,10.8198279 17.1582238,10.0751696 17.2888084,9.0504848 C17.4216491,8.02619812 16.8747597,7.11286034 16.0681608,7.00974156 C15.2594387,6.90542835 14.4994203,7.6507502 14.3669778,8.67477145 C14.2336064,9.697731 14.7826191,10.6117323 15.590545,10.7160456 Z M18.0364849,10.0853886 C17.3330002,9.93436007 16.6041682,10.5554616 16.4073623,11.4707901 C16.210291,12.3886401 16.6202259,13.25367 17.322649,13.4046986 C18.0250721,13.5551962 18.7536386,12.9354218 18.9515061,12.0177045 C19.1461887,11.1007834 18.7373155,10.23509 18.0364849,10.0853886 Z M17.055906,13.8465035 C16.6699913,13.5071538 16.2515632,13.2646853 16.0191916,12.7887729 C15.8075225,12.3602393 15.7662503,11.8617655 15.4681883,11.4750369 C15.1236785,11.0316395 14.5798414,10.7666096 14.0184868,10.7666096 C14.0126476,10.7666096 14.0057468,10.7676713 13.9985806,10.7676713 C13.9940685,10.7676713 13.9866369,10.7666096 13.9792052,10.7666096 C13.4183815,10.7666096 12.8758715,11.0316395 12.533485,11.4750369 C12.2321053,11.8617655 12.1910985,12.3603721 11.98142,12.7887729 C11.748783,13.2646853 11.3300894,13.5071538 10.9424496,13.8465035 C10.5472453,14.1912945 10.3159354,14.7039687 10.3159354,15.2293834 C10.3159354,16.240266 11.1356723,17.0613675 12.1479685,17.0613675 C12.4871699,17.0613675 12.8227883,16.966477 13.1112953,16.785986 C13.4029874,16.6049641 13.6297853,16.6301797 13.9985806,16.6191644 C14.3710918,16.6301797 14.5974915,16.6049641 14.8879892,16.785986 C15.1771598,16.966477 15.5113184,17.0613675 15.8523777,17.0613675 C16.8629487,17.0613675 17.6833491,16.240266 17.6833491,15.2293834 C17.6833491,14.7039687 17.4532336,14.1912945 17.055906,13.8465035 Z M26.4785439,10.7160456 C27.2862044,10.6117323 27.8342882,9.697731 27.7009167,8.67477145 C27.5707302,7.6507502 26.8089867,6.90542835 26.0003972,7.00974156 C25.1931349,7.11286034 24.6466436,8.02619812 24.7790861,9.0504848 C24.9098034,10.0751696 25.6712815,10.8198279 26.4785439,10.7160456 Z M24.6774318,13.4048313 C25.3795895,13.25367 25.7875337,12.3887729 25.591126,11.4709228 C25.3948509,10.5555943 24.6660189,9.93449278 23.9637285,10.0855213 C23.2614382,10.23509 22.853494,11.1009162 23.04884,12.0179699 C23.2449824,12.9355546 23.975805,13.555329 24.6774318,13.4048313 Z M29.590545,10.7160456 C30.3975419,10.8198279 31.1582238,10.0751696 31.2888084,9.0504848 C31.4216491,8.02619812 30.8747597,7.11286034 30.0681608,7.00974156 C29.2594387,6.90542835 28.4994203,7.6507502 28.3669778,8.67477145 C28.2336064,9.697731 28.7826191,10.6117323 29.590545,10.7160456 Z M32.0364849,10.0853886 C31.3330002,9.93436007 30.6041682,10.5554616 30.4073623,11.4707901 C30.210291,12.3886401 30.6202259,13.25367 31.322649,13.4046986 C32.0250721,13.5551962 32.7536386,12.9354218 32.9515061,12.0177045 C33.1461887,11.1007834 32.7373155,10.23509 32.0364849,10.0853886 Z M31.055906,13.8465035 C30.6699913,13.5071538 30.2515632,13.2646853 30.0191916,12.7887729 C29.8075225,12.3602393 29.7662503,11.8617655 29.4681883,11.4750369 C29.1236785,11.0316395 28.5798414,10.7666096 28.0184868,10.7666096 C28.0126476,10.7666096 28.0057468,10.7676713 27.9985806,10.7676713 C27.9940685,10.7676713 27.9866369,10.7666096 27.9792052,10.7666096 C27.4183815,10.7666096 26.8758715,11.0316395 26.533485,11.4750369 C26.2321053,11.8617655 26.1910985,12.3603721 25.98142,12.7887729 C25.748783,13.2646853 25.3300894,13.5071538 24.9424496,13.8465035 C24.5472453,14.1912945 24.3159354,14.7039687 24.3159354,15.2293834 C24.3159354,16.240266 25.1356723,17.0613675 26.1479685,17.0613675 C26.4871699,17.0613675 26.8227883,16.966477 27.1112953,16.785986 C27.4029874,16.6049641 27.6297853,16.6301797 27.9985806,16.6191644 C28.3710918,16.6301797 28.5974915,16.6049641 28.8879892,16.785986 C29.1771598,16.966477 29.5113184,17.0613675 29.8523777,17.0613675 C30.8629487,17.0613675 31.6833491,16.240266 31.6833491,15.2293834 C31.6833491,14.7039687 31.4532336,14.1912945 31.055906,13.8465035 Z" id="lb_t2" sketch:type="MSShapeGroup"></path>
        </g>
    </g>
</svg>