<?xml version="1.0" encoding="UTF-8" standalone="no"?>
<svg width="38px" height="18px" viewBox="0 0 38 18" version="1.1" xmlns="http://www.w3.org/2000/svg" xmlns:xlink="http://www.w3.org/1999/xlink" xmlns:sketch="http://www.bohemiancoding.com/sketch/ns">
    <!-- Generator: Sketch 3.4.4 (17249) - http://www.bohemiancoding.com/sketch -->
    <title>lb_t4</title>
    <desc>Created with Sketch.</desc>
    <defs></defs>
    <g id="Page-1" stroke="none" stroke-width="1" fill="none" fill-rule="evenodd" sketch:type="MSPage">
        <g id="D---tier-4" sketch:type="MSArtboardGroup" transform="translate(-2.000000, -3.000000)" fill="#000000">
            <path d="M2,4.99508929 C2,3.8932319 2.90185079,3 4.00285922,3 L37.9971408,3 C39.1032894,3 40,3.8926228 40,4.99508929 L40,19.0049107 C40,20.1067681 39.0981492,21 37.9971408,21 L4.00285922,21 C2.89671062,21 2,20.1073772 2,19.0049107 L2,4.99508929 Z M8.45732716,10.6933802 C9.26006147,10.5897032 9.8048023,9.68127667 9.6722443,8.66455649 C9.54285187,7.64678107 8.78575444,6.90600518 7.98209684,7.00968214 C7.17975823,7.11217197 6.63660018,8.01993901 6.76823488,9.03797823 C6.89815491,10.0564132 7.65498854,10.7965295 8.45732716,10.6933802 Z M6.66720063,13.3657661 C7.36507563,13.2155269 7.77053164,12.355905 7.57532185,11.4436532 C7.38024396,10.5339076 6.65585736,9.91659437 5.95785046,10.0667017 C5.25984356,10.2153581 4.85438755,11.0759034 5.04854216,11.9873637 C5.24348815,12.8993517 5.96985322,13.5153459 6.66720063,13.3657661 Z M11.5503471,10.6933802 C12.352422,10.7965295 13.1084642,10.0564132 13.2382523,9.03797823 C13.3702827,8.01993901 12.826729,7.11217197 12.0250499,7.00968214 C11.2212604,6.90600518 10.4658776,7.64678107 10.3342429,8.66455649 C10.2016849,9.68127667 10.747349,10.5897032 11.5503471,10.6933802 Z M13.9813685,10.0665698 C13.2821745,9.91646246 12.5577879,10.5337757 12.3621824,11.4435213 C12.1663132,12.3557731 12.5737477,13.2155269 13.2718864,13.3656342 C13.9700252,13.515214 14.694148,12.8992198 14.8908087,11.9870999 C15.0843038,11.0757715 14.6779245,10.2153581 13.9813685,10.0665698 Z M13.0067705,13.8047445 C12.6232096,13.4674645 12.2073336,13.226475 11.9763793,12.7534653 C11.7660012,12.3275455 11.7249808,11.8321121 11.4287367,11.4477423 C11.0863282,11.0070492 10.5458081,10.7436358 9.98787743,10.7436358 C9.9820739,10.7436358 9.97521517,10.7446911 9.96809265,10.7446911 C9.96360811,10.7446911 9.95622179,10.7436358 9.94883547,10.7436358 C9.39143238,10.7436358 8.85223129,11.0070492 8.51193314,11.4477423 C8.21239163,11.8321121 8.171635,12.3276774 7.96323535,12.7534653 C7.73201727,13.226475 7.31587748,13.4674645 6.93060195,13.8047445 C6.53780819,14.1474324 6.3079091,14.6569797 6.3079091,15.1791897 C6.3079091,16.1839066 7.12264617,17 8.12876798,17 C8.46590056,17 8.79947189,16.9056883 9.08621924,16.7262981 C9.37613216,16.5463803 9.60154671,16.5714422 9.96809265,16.5604941 C10.3383318,16.5714422 10.5633506,16.5463803 10.8520764,16.7262981 C11.1394833,16.9056883 11.4716037,17 11.8105829,17 C12.81499,17 13.6303866,16.1839066 13.6303866,15.1791897 C13.6303866,14.6569797 13.4016746,14.1474324 13.0067705,13.8047445 Z M20.3829309,8.47735208 C20.7040246,8.43588129 20.9219209,8.07251067 20.8688977,7.66582259 C20.8171407,7.25871243 20.5143018,6.96240207 20.1928387,7.00387286 C19.8719033,7.04486879 19.6546401,7.4079756 19.707294,7.81519129 C19.759262,8.22256527 20.0619954,8.51861182 20.3829309,8.47735208 Z M19.6668803,9.54630646 C19.9460303,9.48621075 20.1082127,9.142362 20.0301287,8.77746128 C19.9520976,8.41356304 19.6623429,8.16663775 19.3831402,8.22668069 C19.1039374,8.28614326 18.941755,8.63036134 19.0194169,8.99494549 C19.0973953,9.35974068 19.3879413,9.60613836 19.6668803,9.54630646 Z M21.6201389,8.47735208 C21.9409688,8.51861182 22.2433857,8.22256527 22.2953009,7.81519129 C22.3481131,7.4079756 22.1306916,7.04486879 21.8100199,7.00387286 C21.4885041,6.96240207 21.186351,7.25871243 21.1336972,7.66582259 C21.080674,8.07251067 21.2989396,8.43588129 21.6201389,8.47735208 Z M22.5925474,8.22662793 C22.3128698,8.16658499 22.0231152,8.41351028 21.944873,8.77740852 C21.8665253,9.14230924 22.0294991,9.48621075 22.3087546,9.5462537 C22.5880101,9.6060856 22.8776592,9.35968792 22.9563235,8.99483996 C23.0337215,8.63030858 22.8711698,8.28614326 22.5925474,8.22662793 Z M22.2027082,9.72189778 C22.0492838,9.58698582 21.8829334,9.49058998 21.7905517,9.30138611 C21.7064005,9.13101821 21.6899923,8.93284483 21.5714947,8.7790969 C21.4345313,8.60281968 21.2183232,8.49745433 20.995151,8.49745433 C20.9928296,8.49745433 20.9900861,8.49787642 20.9872371,8.49787642 C20.9854432,8.49787642 20.9824887,8.49745433 20.9795342,8.49745433 C20.756573,8.49745433 20.5408925,8.60281968 20.4047733,8.7790969 C20.2849567,8.93284483 20.268654,9.13107097 20.1852941,9.30138611 C20.0928069,9.49058998 19.926351,9.58698582 19.7722408,9.72189778 C19.6151233,9.85897298 19.5231636,10.0627919 19.5231636,10.2716759 C19.5231636,10.6735626 19.8490585,11 20.2515072,11 C20.3863602,11 20.5197888,10.9622753 20.6344877,10.8905192 C20.7504529,10.8185521 20.8406187,10.8285769 20.9872371,10.8241976 C21.1353327,10.8285769 21.2253402,10.8185521 21.3408306,10.8905192 C21.4557933,10.9622753 21.5886415,11 21.7242332,11 C22.125996,11 22.4521546,10.6735626 22.4521546,10.2716759 C22.4521546,10.0627919 22.3606698,9.85897298 22.2027082,9.72189778 Z M20.3829309,14.4773521 C20.7040246,14.4358813 20.9219209,14.0725107 20.8688977,13.6658226 C20.8171407,13.2587124 20.5143018,12.9624021 20.1928387,13.0038729 C19.8719033,13.0448688 19.6546401,13.4079756 19.707294,13.8151913 C19.759262,14.2225653 20.0619954,14.5186118 20.3829309,14.4773521 Z M19.6668803,15.5463065 C19.9460303,15.4862108 20.1082127,15.142362 20.0301287,14.7774613 C19.9520976,14.413563 19.6623429,14.1666377 19.3831402,14.2266807 C19.1039374,14.2861433 18.941755,14.6303613 19.0194169,14.9949455 C19.0973953,15.3597407 19.3879413,15.6061384 19.6668803,15.5463065 Z M21.6201389,14.4773521 C21.9409688,14.5186118 22.2433857,14.2225653 22.2953009,13.8151913 C22.3481131,13.4079756 22.1306916,13.0448688 21.8100199,13.0038729 C21.4885041,12.9624021 21.186351,13.2587124 21.1336972,13.6658226 C21.080674,14.0725107 21.2989396,14.4358813 21.6201389,14.4773521 Z M22.5925474,14.2266279 C22.3128698,14.166585 22.0231152,14.4135103 21.944873,14.7774085 C21.8665253,15.1423092 22.0294991,15.4862108 22.3087546,15.5462537 C22.5880101,15.6060856 22.8776592,15.3596879 22.9563235,14.99484 C23.0337215,14.6303086 22.8711698,14.2861433 22.5925474,14.2266279 Z M22.2027082,15.7218978 C22.0492838,15.5869858 21.8829334,15.49059 21.7905517,15.3013861 C21.7064005,15.1310182 21.6899923,14.9328448 21.5714947,14.7790969 C21.4345313,14.6028197 21.2183232,14.4974543 20.995151,14.4974543 C20.9928296,14.4974543 20.9900861,14.4978764 20.9872371,14.4978764 C20.9854432,14.4978764 20.9824887,14.4974543 20.9795342,14.4974543 C20.756573,14.4974543 20.5408925,14.6028197 20.4047733,14.7790969 C20.2849567,14.9328448 20.268654,15.131071 20.1852941,15.3013861 C20.0928069,15.49059 19.926351,15.5869858 19.7722408,15.7218978 C19.6151233,15.858973 19.5231636,16.0627919 19.5231636,16.2716759 C19.5231636,16.6735626 19.8490585,17 20.2515072,17 C20.3863602,17 20.5197888,16.9622753 20.6344877,16.8905192 C20.7504529,16.8185521 20.8406187,16.8285769 20.9872371,16.8241976 C21.1353327,16.8285769 21.2253402,16.8185521 21.3408306,16.8905192 C21.4557933,16.9622753 21.5886415,17 21.7242332,17 C22.125996,17 22.4521546,16.6735626 22.4521546,16.2716759 C22.4521546,16.0627919 22.3606698,15.858973 22.2027082,15.7218978 Z M30.5183204,10.6933802 C31.3210547,10.5897032 31.8657955,9.68127667 31.7332375,8.66455649 C31.6038451,7.64678107 30.8467477,6.90600518 30.0430901,7.00968214 C29.2407514,7.11217197 28.6975934,8.01993901 28.8292281,9.03797823 C28.9591481,10.0564132 29.7159818,10.7965295 30.5183204,10.6933802 Z M28.7281938,13.3657661 C29.4260688,13.2155269 29.8315248,12.355905 29.6363151,11.4436532 C29.4412372,10.5339076 28.7168506,9.91659437 28.0188437,10.0667017 C27.3208368,10.2153581 26.9153808,11.0759034 27.1095354,11.9873637 C27.3044814,12.8993517 28.0308464,13.5153459 28.7281938,13.3657661 Z M33.6113404,10.6933802 C34.4134152,10.7965295 35.1694574,10.0564132 35.2992455,9.03797823 C35.4312759,8.01993901 34.8877222,7.11217197 34.0860431,7.00968214 C33.2822536,6.90600518 32.5268708,7.64678107 32.3952361,8.66455649 C32.2626781,9.68127667 32.8083422,10.5897032 33.6113404,10.6933802 Z M36.0423617,10.0665698 C35.3431677,9.91646246 34.6187811,10.5337757 34.4231757,11.4435213 C34.2273064,12.3557731 34.6347409,13.2155269 35.3328797,13.3656342 C36.0310185,13.515214 36.7551413,12.8992198 36.9518019,11.9870999 C37.145297,11.0757715 36.7389177,10.2153581 36.0423617,10.0665698 Z M35.0677637,13.8047445 C34.6842028,13.4674645 34.2683268,13.226475 34.0373725,12.7534653 C33.8269944,12.3275455 33.785974,11.8321121 33.4897299,11.4477423 C33.1473214,11.0070492 32.6068013,10.7436358 32.0488706,10.7436358 C32.0430671,10.7436358 32.0362084,10.7446911 32.0290859,10.7446911 C32.0246013,10.7446911 32.017215,10.7436358 32.0098287,10.7436358 C31.4524256,10.7436358 30.9132245,11.0070492 30.5729264,11.4477423 C30.2733848,11.8321121 30.2326282,12.3276774 30.0242286,12.7534653 C29.7930105,13.226475 29.3768707,13.4674645 28.9915952,13.8047445 C28.5988014,14.1474324 28.3689023,14.6569797 28.3689023,15.1791897 C28.3689023,16.1839066 29.1836394,17 30.1897612,17 C30.5268938,17 30.8604651,16.9056883 31.1472124,16.7262981 C31.4371254,16.5463803 31.6625399,16.5714422 32.0290859,16.5604941 C32.399325,16.5714422 32.6243438,16.5463803 32.9130697,16.7262981 C33.2004765,16.9056883 33.5325969,17 33.8715761,17 C34.8759832,17 35.6913798,16.1839066 35.6913798,15.1791897 C35.6913798,14.6569797 35.4626678,14.1474324 35.0677637,13.8047445 Z" id="lb_t4" sketch:type="MSShapeGroup"></path>
        </g>
    </g>
</svg>