<svg width="38" height="18" viewBox="0 0 38 18" xmlns="http://www.w3.org/2000/svg"><title>lb_t5</title><path d="M0 1.995C0 .893.902 0 2.003 0h33.994C37.103 0 38 .893 38 1.995v14.01C38 17.107 37.098 18 35.997 18H2.003C.897 18 0 17.107 0 16.005V1.995zm7.383 3.482c.32-.04.54-.404.486-.81-.053-.408-.356-.705-.677-.663-.32.04-.538.404-.486.81.052.41.355.705.676.663zm-.716 1.07c.28-.06.44-.405.363-.77-.078-.363-.368-.61-.647-.55-.28.06-.44.403-.364.768.077.365.368.61.647.55zm1.953-1.07c.32.042.623-.254.675-.662.053-.407-.164-.77-.485-.81-.32-.043-.624.254-.676.66-.053.408.165.77.486.812zm.973-.25c-.28-.06-.57.187-.648.55-.078.365.084.71.364.77.278.06.568-.187.646-.552.078-.365-.085-.71-.363-.768zm-.39 1.495c-.154-.135-.32-.23-.412-.42-.084-.17-.1-.37-.22-.523-.135-.177-.352-.283-.575-.283H7.98c-.223 0-.44.106-.575.282-.12.153-.136.35-.22.52-.092.19-.26.287-.413.422-.157.137-.25.34-.25.55 0 .402.327.728.73.728.134 0 .268-.038.382-.11.116-.07.207-.06.353-.066.148.005.238-.005.354.067.116.072.25.11.384.11.402 0 .728-.326.728-.728 0-.21-.09-.413-.25-.55zM7.39 11.486c.324-.04.544-.407.49-.816-.052-.41-.356-.708-.68-.666-.323.04-.54.406-.488.816.052.41.357.708.68.666zm-.72 1.076c.282-.06.445-.406.366-.774-.078-.366-.37-.614-.65-.554-.28.06-.445.406-.366.773.078.367.37.615.65.555zm1.966-1.076c.323.042.627-.256.68-.666.053-.41-.166-.775-.49-.816-.322-.042-.626.256-.68.666-.053.41.167.775.49.816zm.98-.252c-.283-.06-.574.188-.653.554-.08.367.085.713.366.774.28.06.57-.188.65-.555.078-.367-.085-.713-.365-.773zM9.22 12.74c-.154-.137-.32-.234-.414-.424-.085-.172-.1-.37-.22-.526-.14-.177-.356-.283-.58-.283h-.01-.006c-.225 0-.442.106-.58.283-.12.155-.136.354-.22.526-.092.19-.26.287-.415.423-.158.137-.25.342-.25.552 0 .404.327.733.732.733.135 0 .27-.038.385-.11.116-.073.207-.063.354-.067.148.004.24-.006.355.066.116.073.25.11.386.11.405 0 .733-.328.733-.732 0-.21-.092-.415-.25-.553zm8.223-5.047c.803-.103 1.348-1.012 1.215-2.028-.13-1.018-.886-1.76-1.69-1.655-.802.102-1.346 1.01-1.214 2.028.13 1.018.887 1.76 1.69 1.655zm-1.79 2.673c.698-.15 1.103-1.01.908-1.922-.195-.91-.92-1.527-1.617-1.377-.698.148-1.104 1.01-.91 1.92.195.912.922 1.528 1.62 1.38zm4.883-2.673c.802.104 1.558-.637 1.688-1.655.132-1.018-.41-1.926-1.213-2.028-.804-.104-1.56.637-1.69 1.655-.134 1.016.412 1.925 1.215 2.028zm2.43-.626c-.698-.15-1.422.467-1.618 1.377-.196.912.212 1.772.91 1.922.698.15 1.422-.467 1.62-1.38.192-.91-.214-1.77-.91-1.92zm-.973 3.738c-.384-.338-.8-.58-1.03-1.052-.21-.425-.252-.92-.548-1.305-.343-.44-.883-.704-1.44-.704h-.04c-.558 0-1.097.263-1.437.704-.3.384-.34.88-.55 1.305-.23.473-.646.714-1.032 1.052-.392.342-.622.852-.622 1.374 0 1.004.814 1.82 1.82 1.82.338 0 .67-.094.958-.274.29-.18.515-.155.882-.166.37.01.595-.014.884.166.287.18.62.274.958.274 1.005 0 1.82-.816 1.82-1.82 0-.523-.23-1.033-.623-1.375zm7.412-5.328c.32-.04.54-.404.486-.81-.05-.408-.354-.705-.676-.663-.32.04-.538.404-.485.81.052.41.354.705.675.663zm-.716 1.07c.28-.06.443-.405.365-.77-.08-.363-.368-.61-.647-.55-.28.06-.442.403-.364.768.078.365.368.61.647.55zm1.955-1.07c.32.042.623-.254.675-.662.053-.407-.165-.77-.486-.81-.32-.043-.623.254-.676.66-.053.408.165.77.487.812zm.972-.25c-.28-.06-.57.187-.648.55-.08.365.084.71.363.77.28.06.57-.187.648-.552.078-.365-.084-.71-.363-.768zm-.39 1.495c-.153-.135-.32-.23-.412-.42-.084-.17-.1-.37-.22-.523-.136-.177-.352-.283-.575-.283h-.016c-.223 0-.44.106-.575.282-.12.153-.137.35-.22.52-.093.19-.26.287-.413.422-.157.137-.25.34-.25.55 0 .402.326.728.73.728.134 0 .267-.038.382-.11.115-.07.205-.06.352-.066.148.005.238-.005.353.067.115.072.248.11.384.11.4 0 .727-.326.727-.728 0-.21-.092-.413-.25-.55zm-1.844 4.755c.32-.04.54-.404.486-.81-.053-.408-.356-.705-.677-.663-.32.04-.538.404-.486.81.052.41.355.705.676.663zm-.716 1.07c.28-.06.44-.405.363-.77-.078-.363-.368-.61-.647-.55-.28.06-.44.403-.364.768.077.365.368.61.647.55zm1.953-1.07c.32.042.623-.254.675-.662.053-.407-.164-.77-.485-.81-.32-.043-.624.254-.676.66-.053.408.165.77.486.812zm.973-.25c-.28-.06-.57.187-.648.55-.078.365.084.71.364.77.278.06.568-.187.646-.552.078-.365-.085-.71-.363-.768zm-.39 1.495c-.154-.135-.32-.23-.412-.42-.084-.17-.1-.37-.22-.523-.135-.177-.352-.283-.575-.283h-.015c-.223 0-.44.106-.575.282-.12.153-.136.35-.22.52-.092.19-.26.287-.413.422-.157.137-.25.34-.25.55 0 .402.327.728.73.728.134 0 .268-.038.382-.11.116-.07.207-.06.353-.066.148.005.238-.005.354.067.116.072.25.11.384.11.402 0 .728-.326.728-.728 0-.21-.09-.413-.25-.55z" fill="#000" fill-rule="evenodd"/></svg>