<svg width="38" height="18" viewBox="0 0 38 18" xmlns="http://www.w3.org/2000/svg"><title>lb_t4</title><path d="M0 1.995C0 .893.902 0 2.003 0h33.994C37.103 0 38 .893 38 1.995v14.01C38 17.107 37.098 18 35.997 18H2.003C.897 18 0 17.107 0 16.005V1.995zm6.457 5.698C7.26 7.59 7.805 6.68 7.672 5.665c-.13-1.018-.886-1.76-1.69-1.655-.802.102-1.345 1.01-1.214 2.028.13 1.018.887 1.76 1.69 1.655zm-1.79 2.673c.698-.15 1.104-1.01.908-1.922-.195-.91-.92-1.527-1.617-1.377-.698.148-1.104 1.01-.91 1.92.195.912.922 1.528 1.62 1.38zM9.55 7.693c.802.104 1.558-.637 1.688-1.655.132-1.018-.41-1.926-1.213-2.028-.804-.104-1.56.637-1.69 1.655C8.2 6.68 8.746 7.59 9.55 7.693zm2.43-.626c-.698-.15-1.422.467-1.618 1.377-.196.912.212 1.772.91 1.922.698.15 1.422-.467 1.62-1.38.192-.91-.214-1.77-.91-1.92zm-.973 3.738c-.384-.338-.8-.58-1.03-1.052-.21-.425-.252-.92-.548-1.305-.344-.44-.884-.704-1.442-.704h-.04c-.557 0-1.096.263-1.436.704-.3.384-.34.88-.55 1.305-.23.473-.646.714-1.03 1.052-.394.342-.624.852-.624 1.374 0 1.004.815 1.82 1.82 1.82.338 0 .67-.094.958-.274.29-.18.516-.155.882-.166.37.01.595-.014.884.166.287.18.62.274.96.274 1.003 0 1.818-.816 1.818-1.82 0-.523-.228-1.033-.623-1.375zm7.376-5.328c.32-.04.54-.404.486-.81-.053-.408-.356-.705-.677-.663-.32.04-.538.404-.486.81.052.41.355.705.676.663zm-.716 1.07c.28-.06.44-.405.363-.77-.078-.363-.368-.61-.647-.55-.28.06-.44.403-.364.768.077.365.368.61.647.55zm1.953-1.07c.32.042.623-.254.675-.662.053-.407-.164-.77-.485-.81-.32-.043-.624.254-.676.66-.053.408.165.77.486.812zm.973-.25c-.28-.06-.57.187-.648.55-.078.365.084.71.364.77.278.06.568-.187.646-.552.078-.365-.085-.71-.363-.768zm-.39 1.495c-.154-.135-.32-.23-.412-.42-.084-.17-.1-.37-.22-.523-.135-.177-.352-.283-.575-.283h-.015c-.223 0-.44.106-.575.282-.12.153-.136.35-.22.52-.092.19-.26.287-.413.422-.157.137-.25.34-.25.55 0 .402.327.728.73.728.134 0 .268-.038.382-.11.116-.07.207-.06.353-.066.148.005.238-.005.354.067.116.072.25.11.384.11.402 0 .728-.326.728-.728 0-.21-.09-.413-.25-.55zm-1.82 4.755c.32-.04.54-.404.486-.81-.053-.408-.356-.705-.677-.663-.32.04-.538.404-.486.81.052.41.355.705.676.663zm-.716 1.07c.28-.06.44-.405.363-.77-.078-.363-.368-.61-.647-.55-.28.06-.44.403-.364.768.077.365.368.61.647.55zm1.953-1.07c.32.042.623-.254.675-.662.053-.407-.164-.77-.485-.81-.32-.043-.624.254-.676.66-.053.408.165.77.486.812zm.973-.25c-.28-.06-.57.187-.648.55-.078.365.084.71.364.77.278.06.568-.187.646-.552.078-.365-.085-.71-.363-.768zm-.39 1.495c-.154-.135-.32-.23-.412-.42-.084-.17-.1-.37-.22-.523-.135-.177-.352-.283-.575-.283h-.015c-.223 0-.44.106-.575.282-.12.153-.136.35-.22.52-.092.19-.26.287-.413.422-.157.137-.25.34-.25.55 0 .402.327.728.73.728.134 0 .268-.038.382-.11.116-.07.207-.06.353-.066.148.005.238-.005.354.067.116.072.25.11.384.11.402 0 .728-.326.728-.728 0-.21-.09-.413-.25-.55zm8.315-5.03c.803-.102 1.348-1.01 1.215-2.027-.13-1.018-.886-1.76-1.69-1.655-.802.102-1.345 1.01-1.214 2.028.13 1.018.886 1.76 1.688 1.655zm-1.79 2.674c.698-.15 1.104-1.01.908-1.922-.195-.91-.92-1.527-1.617-1.377-.7.148-1.105 1.01-.91 1.92.194.912.92 1.528 1.618 1.38zm4.883-2.673c.803.104 1.56-.637 1.69-1.655.13-1.018-.412-1.926-1.214-2.028-.804-.104-1.56.637-1.69 1.655-.133 1.016.412 1.925 1.215 2.028zm2.432-.626c-.7-.15-1.423.467-1.62 1.377-.195.912.213 1.772.91 1.922.7.15 1.423-.467 1.62-1.38.193-.91-.213-1.77-.91-1.92zm-.974 3.738c-.384-.338-.8-.58-1.03-1.052-.21-.425-.252-.92-.548-1.305-.343-.44-.883-.704-1.44-.704h-.04c-.558 0-1.097.263-1.437.704-.3.384-.34.88-.55 1.305-.23.473-.646.714-1.03 1.052-.394.342-.624.852-.624 1.374 0 1.004.814 1.82 1.82 1.82.337 0 .67-.094.957-.274.29-.18.516-.155.882-.166.37.01.594-.014.883.166.287.18.62.274.96.274 1.003 0 1.818-.816 1.818-1.82 0-.523-.227-1.033-.622-1.375z" fill="#000" fill-rule="evenodd"/></svg>