<?xml version="1.0" encoding="UTF-8" standalone="no"?>
<svg width="38px" height="18px" viewBox="0 0 38 18" version="1.1" xmlns="http://www.w3.org/2000/svg" xmlns:xlink="http://www.w3.org/1999/xlink" xmlns:sketch="http://www.bohemiancoding.com/sketch/ns">
    <!-- Generator: Sketch 3.4.4 (17249) - http://www.bohemiancoding.com/sketch -->
    <title>lb_t3</title>
    <desc>Created with Sketch.</desc>
    <defs></defs>
    <g id="Page-1" stroke="none" stroke-width="1" fill="none" fill-rule="evenodd" sketch:type="MSPage">
        <g id="D---tier-3" sketch:type="MSArtboardGroup" transform="translate(-2.000000, -3.000000)" fill="#000000">
            <path d="M2,4.99508929 C2,3.8932319 2.90185079,3 4.00285922,3 L37.9971408,3 C39.1032894,3 40,3.8926228 40,4.99508929 L40,19.0049107 C40,20.1067681 39.0981492,21 37.9971408,21 L4.00285922,21 C2.89671062,21 2,20.1073772 2,19.0049107 L2,4.99508929 Z M7.47854392,10.7160456 C8.28620441,10.6117323 8.83428818,9.697731 8.7009167,8.67477145 C8.57073022,7.6507502 7.80898667,6.90542835 7.00039723,7.00974156 C6.19313486,7.11286034 5.64664358,8.02619812 5.7790861,9.0504848 C5.90980342,10.0751696 6.67128155,10.8198279 7.47854392,10.7160456 Z M5.67743182,13.4048313 C6.37958951,13.25367 6.7875337,12.3887729 6.59112596,11.4709228 C6.39485092,10.5555943 5.66601894,9.93449278 4.96372855,10.0855213 C4.26143816,10.23509 3.85349397,11.1009162 4.04884005,12.0179699 C4.24498237,12.9355546 4.97580497,13.555329 5.67743182,13.4048313 Z M10.590545,10.7160456 C11.3975419,10.8198279 12.1582238,10.0751696 12.2888084,9.0504848 C12.4216491,8.02619812 11.8747597,7.11286034 11.0681608,7.00974156 C10.2594387,6.90542835 9.49942035,7.6507502 9.36697783,8.67477145 C9.23360636,9.697731 9.78261908,10.6117323 10.590545,10.7160456 Z M13.0364849,10.0853886 C12.3330002,9.93436007 11.6041682,10.5554616 11.4073623,11.4707901 C11.210291,12.3886401 11.6202259,13.25367 12.322649,13.4046986 C13.0250721,13.5551962 13.7536386,12.9354218 13.9515061,12.0177045 C14.1461887,11.1007834 13.7373155,10.23509 13.0364849,10.0853886 Z M12.055906,13.8465035 C11.6699913,13.5071538 11.2515632,13.2646853 11.0191916,12.7887729 C10.8075225,12.3602393 10.7662503,11.8617655 10.4681883,11.4750369 C10.1236785,11.0316395 9.57984136,10.7666096 9.01848679,10.7666096 C9.01264764,10.7666096 9.00574683,10.7676713 8.9985806,10.7676713 C8.99406853,10.7676713 8.98663689,10.7666096 8.97920524,10.7666096 C8.41838151,10.7666096 7.87587147,11.0316395 7.533485,11.4750369 C7.23210528,11.8617655 7.19109853,12.3603721 6.98141999,12.7887729 C6.74878298,13.2646853 6.33008945,13.5071538 5.94244957,13.8465035 C5.54724534,14.1912945 5.31593541,14.7039687 5.31593541,15.2293834 C5.31593541,16.240266 6.13567232,17.0613675 7.14796845,17.0613675 C7.48716993,17.0613675 7.8227883,16.966477 8.11129535,16.785986 C8.40298739,16.6049641 8.62978525,16.6301797 8.9985806,16.6191644 C9.37109178,16.6301797 9.59749151,16.6049641 9.88798918,16.785986 C10.1771598,16.966477 10.5113184,17.0613675 10.8523777,17.0613675 C11.8629487,17.0613675 12.6833491,16.240266 12.6833491,15.2293834 C12.6833491,14.7039687 12.4532336,14.1912945 12.055906,13.8465035 Z M19.4785439,10.7160456 C20.2862044,10.6117323 20.8342882,9.697731 20.7009167,8.67477145 C20.5707302,7.6507502 19.8089867,6.90542835 19.0003972,7.00974156 C18.1931349,7.11286034 17.6466436,8.02619812 17.7790861,9.0504848 C17.9098034,10.0751696 18.6712815,10.8198279 19.4785439,10.7160456 Z M17.6774318,13.4048313 C18.3795895,13.25367 18.7875337,12.3887729 18.591126,11.4709228 C18.3948509,10.5555943 17.6660189,9.93449278 16.9637285,10.0855213 C16.2614382,10.23509 15.853494,11.1009162 16.04884,12.0179699 C16.2449824,12.9355546 16.975805,13.555329 17.6774318,13.4048313 Z M22.590545,10.7160456 C23.3975419,10.8198279 24.1582238,10.0751696 24.2888084,9.0504848 C24.4216491,8.02619812 23.8747597,7.11286034 23.0681608,7.00974156 C22.2594387,6.90542835 21.4994203,7.6507502 21.3669778,8.67477145 C21.2336064,9.697731 21.7826191,10.6117323 22.590545,10.7160456 Z M25.0364849,10.0853886 C24.3330002,9.93436007 23.6041682,10.5554616 23.4073623,11.4707901 C23.210291,12.3886401 23.6202259,13.25367 24.322649,13.4046986 C25.0250721,13.5551962 25.7536386,12.9354218 25.9515061,12.0177045 C26.1461887,11.1007834 25.7373155,10.23509 25.0364849,10.0853886 Z M24.055906,13.8465035 C23.6699913,13.5071538 23.2515632,13.2646853 23.0191916,12.7887729 C22.8075225,12.3602393 22.7662503,11.8617655 22.4681883,11.4750369 C22.1236785,11.0316395 21.5798414,10.7666096 21.0184868,10.7666096 C21.0126476,10.7666096 21.0057468,10.7676713 20.9985806,10.7676713 C20.9940685,10.7676713 20.9866369,10.7666096 20.9792052,10.7666096 C20.4183815,10.7666096 19.8758715,11.0316395 19.533485,11.4750369 C19.2321053,11.8617655 19.1910985,12.3603721 18.98142,12.7887729 C18.748783,13.2646853 18.3300894,13.5071538 17.9424496,13.8465035 C17.5472453,14.1912945 17.3159354,14.7039687 17.3159354,15.2293834 C17.3159354,16.240266 18.1356723,17.0613675 19.1479685,17.0613675 C19.4871699,17.0613675 19.8227883,16.966477 20.1112953,16.785986 C20.4029874,16.6049641 20.6297853,16.6301797 20.9985806,16.6191644 C21.3710918,16.6301797 21.5974915,16.6049641 21.8879892,16.785986 C22.1771598,16.966477 22.5113184,17.0613675 22.8523777,17.0613675 C23.8629487,17.0613675 24.6833491,16.240266 24.6833491,15.2293834 C24.6833491,14.7039687 24.4532336,14.1912945 24.055906,13.8465035 Z M31.4785439,10.7160456 C32.2862044,10.6117323 32.8342882,9.697731 32.7009167,8.67477145 C32.5707302,7.6507502 31.8089867,6.90542835 31.0003972,7.00974156 C30.1931349,7.11286034 29.6466436,8.02619812 29.7790861,9.0504848 C29.9098034,10.0751696 30.6712815,10.8198279 31.4785439,10.7160456 Z M29.6774318,13.4048313 C30.3795895,13.25367 30.7875337,12.3887729 30.591126,11.4709228 C30.3948509,10.5555943 29.6660189,9.93449278 28.9637285,10.0855213 C28.2614382,10.23509 27.853494,11.1009162 28.04884,12.0179699 C28.2449824,12.9355546 28.975805,13.555329 29.6774318,13.4048313 Z M34.590545,10.7160456 C35.3975419,10.8198279 36.1582238,10.0751696 36.2888084,9.0504848 C36.4216491,8.02619812 35.8747597,7.11286034 35.0681608,7.00974156 C34.2594387,6.90542835 33.4994203,7.6507502 33.3669778,8.67477145 C33.2336064,9.697731 33.7826191,10.6117323 34.590545,10.7160456 Z M37.0364849,10.0853886 C36.3330002,9.93436007 35.6041682,10.5554616 35.4073623,11.4707901 C35.210291,12.3886401 35.6202259,13.25367 36.322649,13.4046986 C37.0250721,13.5551962 37.7536386,12.9354218 37.9515061,12.0177045 C38.1461887,11.1007834 37.7373155,10.23509 37.0364849,10.0853886 Z M36.055906,13.8465035 C35.6699913,13.5071538 35.2515632,13.2646853 35.0191916,12.7887729 C34.8075225,12.3602393 34.7662503,11.8617655 34.4681883,11.4750369 C34.1236785,11.0316395 33.5798414,10.7666096 33.0184868,10.7666096 C33.0126476,10.7666096 33.0057468,10.7676713 32.9985806,10.7676713 C32.9940685,10.7676713 32.9866369,10.7666096 32.9792052,10.7666096 C32.4183815,10.7666096 31.8758715,11.0316395 31.533485,11.4750369 C31.2321053,11.8617655 31.1910985,12.3603721 30.98142,12.7887729 C30.748783,13.2646853 30.3300894,13.5071538 29.9424496,13.8465035 C29.5472453,14.1912945 29.3159354,14.7039687 29.3159354,15.2293834 C29.3159354,16.240266 30.1356723,17.0613675 31.1479685,17.0613675 C31.4871699,17.0613675 31.8227883,16.966477 32.1112953,16.785986 C32.4029874,16.6049641 32.6297853,16.6301797 32.9985806,16.6191644 C33.3710918,16.6301797 33.5974915,16.6049641 33.8879892,16.785986 C34.1771598,16.966477 34.5113184,17.0613675 34.8523777,17.0613675 C35.8629487,17.0613675 36.6833491,16.240266 36.6833491,15.2293834 C36.6833491,14.7039687 36.4532336,14.1912945 36.055906,13.8465035 Z" id="lb_t3" sketch:type="MSShapeGroup"></path>
        </g>
    </g>
</svg>