<?xml version="1.0" encoding="UTF-8" standalone="no"?>
<svg width="38px" height="18px" viewBox="0 0 38 18" version="1.1" xmlns="http://www.w3.org/2000/svg" xmlns:xlink="http://www.w3.org/1999/xlink" xmlns:sketch="http://www.bohemiancoding.com/sketch/ns">
    <!-- Generator: Sketch 3.4.4 (17249) - http://www.bohemiancoding.com/sketch -->
    <title>lb_t5</title>
    <desc>Created with Sketch.</desc>
    <defs></defs>
    <g id="Page-1" stroke="none" stroke-width="1" fill="none" fill-rule="evenodd" sketch:type="MSPage">
        <g id="D---tier-5" sketch:type="MSArtboardGroup" transform="translate(-2.000000, -3.000000)" fill="#000000">
            <path d="M2,4.99508929 C2,3.8932319 2.90185079,3 4.00285922,3 L37.9971408,3 C39.1032894,3 40,3.8926228 40,4.99508929 L40,19.0049107 C40,20.1067681 39.0981492,21 37.9971408,21 L4.00285922,21 C2.89671062,21 2,20.1073772 2,19.0049107 L2,4.99508929 Z M9.38293086,8.47735208 C9.70402459,8.43588129 9.92192092,8.07251067 9.86889772,7.66582259 C9.81714075,7.25871243 9.51430178,6.96240207 9.19283874,7.00387286 C8.87190329,7.04486879 8.65464007,7.4079756 8.70729395,7.81519129 C8.75926197,8.22256527 9.06199542,8.51861182 9.38293086,8.47735208 Z M8.66688025,9.54630646 C8.94603025,9.48621075 9.10821265,9.142362 9.03012874,8.77746128 C8.95209758,8.41356304 8.66234294,8.16663775 8.38314018,8.22668069 C8.10393743,8.28614326 7.94175502,8.63036134 8.01941686,8.99494549 C8.09739526,9.35974068 8.38794129,9.60613836 8.66688025,9.54630646 Z M10.6201389,8.47735208 C10.9409688,8.51861182 11.2433857,8.22256527 11.2953009,7.81519129 C11.3481131,7.4079756 11.1306916,7.04486879 10.8100199,7.00387286 C10.4885041,6.96240207 10.186351,7.25871243 10.1336972,7.66582259 C10.080674,8.07251067 10.2989396,8.43588129 10.6201389,8.47735208 Z M11.5925474,8.22662793 C11.3128698,8.16658499 11.0231152,8.41351028 10.944873,8.77740852 C10.8665253,9.14230924 11.0294991,9.48621075 11.3087546,9.5462537 C11.5880101,9.6060856 11.8776592,9.35968792 11.9563235,8.99483996 C12.0337215,8.63030858 11.8711698,8.28614326 11.5925474,8.22662793 Z M11.2027082,9.72189778 C11.0492838,9.58698582 10.8829334,9.49058998 10.7905517,9.30138611 C10.7064005,9.13101821 10.6899923,8.93284483 10.5714947,8.7790969 C10.4345313,8.60281968 10.2183232,8.49745433 9.99515097,8.49745433 C9.99282956,8.49745433 9.99008607,8.49787642 9.98723706,8.49787642 C9.98544324,8.49787642 9.98248872,8.49745433 9.97953419,8.49745433 C9.75657295,8.49745433 9.54089252,8.60281968 9.40477326,8.7790969 C9.28495665,8.93284483 9.268654,9.13107097 9.18529414,9.30138611 C9.09280691,9.49058998 8.92635099,9.58698582 8.77224078,9.72189778 C8.61512328,9.85897298 8.52316364,10.0627919 8.52316364,10.2716759 C8.52316364,10.6735626 8.84905847,11 9.25150719,11 C9.38636023,11 9.51978875,10.9622753 9.6344877,10.8905192 C9.75045286,10.8185521 9.84061868,10.8285769 9.98723706,10.8241976 C10.1353327,10.8285769 10.2253402,10.8185521 10.3408306,10.8905192 C10.4557933,10.9622753 10.5886415,11 10.7242332,11 C11.125996,11 11.4521546,10.6735626 11.4521546,10.2716759 C11.4521546,10.0627919 11.3606698,9.85897298 11.2027082,9.72189778 Z M9.39141757,14.4864182 C9.71448176,14.4446929 9.93371527,14.0790924 9.88036668,13.6699086 C9.82829209,13.2603001 9.52359467,12.9621713 9.20015889,13.0038966 C8.87725394,13.0451441 8.65865743,13.4104792 8.71163444,13.8201939 C8.76392137,14.2300678 9.06851262,14.5279312 9.39141757,14.4864182 Z M8.67097273,15.5619325 C8.9518358,15.501468 9.11501348,15.1555091 9.03645038,14.7883691 C8.95794037,14.4222377 8.66640758,14.1737971 8.38549142,14.2342085 C8.10457526,14.294036 7.94139759,14.6403665 8.01953602,15.007188 C8.09799295,15.3742218 8.39032199,15.6221316 8.67097273,15.5619325 Z M10.636218,14.4864182 C10.9590168,14.5279312 11.2632895,14.2300678 11.3155234,13.8201939 C11.3686596,13.4104792 11.1499039,13.0451441 10.8272643,13.0038966 C10.5037755,12.9621713 10.1997681,13.2603001 10.1467911,13.6699086 C10.0934425,14.0790924 10.3130476,14.4446929 10.636218,14.4864182 Z M11.614594,14.2341554 C11.3332001,14.173744 11.0416673,14.4221846 10.9629449,14.788316 C10.8841164,15.1554561 11.0480903,15.501468 11.3290596,15.5618794 C11.6100288,15.6220785 11.9014554,15.3741687 11.9806025,15.0070818 C12.0584755,14.6403134 11.8949262,14.294036 11.614594,14.2341554 Z M11.2223624,15.7386014 C11.0679965,15.6028615 10.9006253,15.5058741 10.8076766,15.3155091 C10.723009,15.1440957 10.7065001,14.9447062 10.5872753,14.7900148 C10.4494714,14.6126558 10.2319365,14.5066438 10.0073947,14.5066438 C10.0050591,14.5066438 10.0022987,14.5070685 9.99943224,14.5070685 C9.99762741,14.5070685 9.99465476,14.5066438 9.9916821,14.5066438 C9.7673526,14.5066438 9.55034859,14.6126558 9.413394,14.7900148 C9.29284211,14.9447062 9.27643941,15.1441488 9.192568,15.3155091 C9.09951319,15.5058741 8.93203578,15.6028615 8.77697983,15.7386014 C8.61889814,15.8765178 8.52637416,16.0815875 8.52637416,16.2917534 C8.52637416,16.6961064 8.85426893,17.024547 9.25918738,17.024547 C9.39486797,17.024547 9.52911532,16.9865908 9.64451814,16.9143944 C9.76119496,16.8419856 9.8519141,16.8520719 9.99943224,16.8476658 C10.1484367,16.8520719 10.2389966,16.8419856 10.3551957,16.9143944 C10.4708639,16.9865908 10.6045273,17.024547 10.7409511,17.024547 C11.1451795,17.024547 11.4733396,16.6961064 11.4733396,16.2917534 C11.4733396,16.0815875 11.3812934,15.8765178 11.2223624,15.7386014 Z M19.4451285,10.6933802 C20.2478628,10.5897032 20.7926037,9.68127667 20.6600457,8.66455649 C20.5306532,7.64678107 19.7735558,6.90600518 18.9698982,7.00968214 C18.1675596,7.11217197 17.6244015,8.01993901 17.7560362,9.03797823 C17.8859563,10.0564132 18.6427899,10.7965295 19.4451285,10.6933802 Z M17.655002,13.3657661 C18.352877,13.2155269 18.758333,12.355905 18.5631232,11.4436532 C18.3680453,10.5339076 17.6436587,9.91659437 16.9456518,10.0667017 C16.2476449,10.2153581 15.8421889,11.0759034 16.0363435,11.9873637 C16.2312895,12.8993517 16.9576546,13.5153459 17.655002,13.3657661 Z M22.5381485,10.6933802 C23.3402233,10.7965295 24.0962656,10.0564132 24.2260537,9.03797823 C24.3580841,8.01993901 23.8145303,7.11217197 23.0128512,7.00968214 C22.2090617,6.90600518 21.453679,7.64678107 21.3220443,8.66455649 C21.1894863,9.68127667 21.7351504,10.5897032 22.5381485,10.6933802 Z M24.9691699,10.0665698 C24.2699759,9.91646246 23.5455893,10.5337757 23.3499838,11.4435213 C23.1541145,12.3557731 23.561549,13.2155269 24.2596878,13.3656342 C24.9578266,13.515214 25.6819494,12.8992198 25.8786101,11.9870999 C26.0721052,11.0757715 25.6657259,10.2153581 24.9691699,10.0665698 Z M23.9945718,13.8047445 C23.611011,13.4674645 23.195135,13.226475 22.9641807,12.7534653 C22.7538026,12.3275455 22.7127821,11.8321121 22.4165381,11.4477423 C22.0741296,11.0070492 21.5336095,10.7436358 20.9756788,10.7436358 C20.9698753,10.7436358 20.9630165,10.7446911 20.955894,10.7446911 C20.9514095,10.7446911 20.9440231,10.7436358 20.9366368,10.7436358 C20.3792337,10.7436358 19.8400326,11.0070492 19.4997345,11.4477423 C19.200193,11.8321121 19.1594364,12.3276774 18.9510367,12.7534653 C18.7198186,13.226475 18.3036788,13.4674645 17.9184033,13.8047445 C17.5256096,14.1474324 17.2957105,14.6569797 17.2957105,15.1791897 C17.2957105,16.1839066 18.1104475,17 19.1165693,17 C19.4537019,17 19.7872732,16.9056883 20.0740206,16.7262981 C20.3639335,16.5463803 20.5893481,16.5714422 20.955894,16.5604941 C21.3261331,16.5714422 21.551152,16.5463803 21.8398778,16.7262981 C22.1272847,16.9056883 22.4594051,17 22.7983843,17 C23.8027914,17 24.6181879,16.1839066 24.6181879,15.1791897 C24.6181879,14.6569797 24.3894759,14.1474324 23.9945718,13.8047445 Z M31.4073281,8.47735208 C31.7284219,8.43588129 31.9463182,8.07251067 31.893295,7.66582259 C31.841538,7.25871243 31.5386991,6.96240207 31.217236,7.00387286 C30.8963006,7.04486879 30.6790374,7.4079756 30.7316912,7.81519129 C30.7836592,8.22256527 31.0863927,8.51861182 31.4073281,8.47735208 Z M30.6912775,9.54630646 C30.9704275,9.48621075 31.1326099,9.142362 31.054526,8.77746128 C30.9764949,8.41356304 30.6867402,8.16663775 30.4075375,8.22668069 C30.1283347,8.28614326 29.9661523,8.63036134 30.0438141,8.99494549 C30.1217925,9.35974068 30.4123386,9.60613836 30.6912775,9.54630646 Z M32.6445361,8.47735208 C32.9653661,8.51861182 33.267783,8.22256527 33.3196982,7.81519129 C33.3725104,7.4079756 33.1550889,7.04486879 32.8344172,7.00387286 C32.5129014,6.96240207 32.2107483,7.25871243 32.1580944,7.66582259 C32.1050712,8.07251067 32.3233369,8.43588129 32.6445361,8.47735208 Z M33.6169447,8.22662793 C33.3372671,8.16658499 33.0475125,8.41351028 32.9692703,8.77740852 C32.8909226,9.14230924 33.0538963,9.48621075 33.3331519,9.5462537 C33.6124074,9.6060856 33.9020565,9.35968792 33.9807208,8.99483996 C34.0581188,8.63030858 33.8955671,8.28614326 33.6169447,8.22662793 Z M33.2271055,9.72189778 C33.0736811,9.58698582 32.9073307,9.49058998 32.814949,9.30138611 C32.7307978,9.13101821 32.7143896,8.93284483 32.595892,8.7790969 C32.4589286,8.60281968 32.2427205,8.49745433 32.0195483,8.49745433 C32.0172268,8.49745433 32.0144834,8.49787642 32.0116343,8.49787642 C32.0098405,8.49787642 32.006886,8.49745433 32.0039315,8.49745433 C31.7809702,8.49745433 31.5652898,8.60281968 31.4291705,8.7790969 C31.3093539,8.93284483 31.2930513,9.13107097 31.2096914,9.30138611 C31.1172042,9.49058998 30.9507483,9.58698582 30.7966381,9.72189778 C30.6395206,9.85897298 30.5475609,10.0627919 30.5475609,10.2716759 C30.5475609,10.6735626 30.8734558,11 31.2759045,11 C31.4107575,11 31.544186,10.9622753 31.658885,10.8905192 C31.7748501,10.8185521 31.865016,10.8285769 32.0116343,10.8241976 C32.15973,10.8285769 32.2497375,10.8185521 32.3652279,10.8905192 C32.4801906,10.9622753 32.6130388,11 32.7486304,11 C33.1503933,11 33.4765519,10.6735626 33.4765519,10.2716759 C33.4765519,10.0627919 33.3850671,9.85897298 33.2271055,9.72189778 Z M31.3829309,14.4773521 C31.7040246,14.4358813 31.9219209,14.0725107 31.8688977,13.6658226 C31.8171407,13.2587124 31.5143018,12.9624021 31.1928387,13.0038729 C30.8719033,13.0448688 30.6546401,13.4079756 30.707294,13.8151913 C30.759262,14.2225653 31.0619954,14.5186118 31.3829309,14.4773521 Z M30.6668803,15.5463065 C30.9460303,15.4862108 31.1082127,15.142362 31.0301287,14.7774613 C30.9520976,14.413563 30.6623429,14.1666377 30.3831402,14.2266807 C30.1039374,14.2861433 29.941755,14.6303613 30.0194169,14.9949455 C30.0973953,15.3597407 30.3879413,15.6061384 30.6668803,15.5463065 Z M32.6201389,14.4773521 C32.9409688,14.5186118 33.2433857,14.2225653 33.2953009,13.8151913 C33.3481131,13.4079756 33.1306916,13.0448688 32.8100199,13.0038729 C32.4885041,12.9624021 32.186351,13.2587124 32.1336972,13.6658226 C32.080674,14.0725107 32.2989396,14.4358813 32.6201389,14.4773521 Z M33.5925474,14.2266279 C33.3128698,14.166585 33.0231152,14.4135103 32.944873,14.7774085 C32.8665253,15.1423092 33.0294991,15.4862108 33.3087546,15.5462537 C33.5880101,15.6060856 33.8776592,15.3596879 33.9563235,14.99484 C34.0337215,14.6303086 33.8711698,14.2861433 33.5925474,14.2266279 Z M33.2027082,15.7218978 C33.0492838,15.5869858 32.8829334,15.49059 32.7905517,15.3013861 C32.7064005,15.1310182 32.6899923,14.9328448 32.5714947,14.7790969 C32.4345313,14.6028197 32.2183232,14.4974543 31.995151,14.4974543 C31.9928296,14.4974543 31.9900861,14.4978764 31.9872371,14.4978764 C31.9854432,14.4978764 31.9824887,14.4974543 31.9795342,14.4974543 C31.756573,14.4974543 31.5408925,14.6028197 31.4047733,14.7790969 C31.2849567,14.9328448 31.268654,15.131071 31.1852941,15.3013861 C31.0928069,15.49059 30.926351,15.5869858 30.7722408,15.7218978 C30.6151233,15.858973 30.5231636,16.0627919 30.5231636,16.2716759 C30.5231636,16.6735626 30.8490585,17 31.2515072,17 C31.3863602,17 31.5197888,16.9622753 31.6344877,16.8905192 C31.7504529,16.8185521 31.8406187,16.8285769 31.9872371,16.8241976 C32.1353327,16.8285769 32.2253402,16.8185521 32.3408306,16.8905192 C32.4557933,16.9622753 32.5886415,17 32.7242332,17 C33.125996,17 33.4521546,16.6735626 33.4521546,16.2716759 C33.4521546,16.0627919 33.3606698,15.858973 33.2027082,15.7218978 Z" id="lb_t5" sketch:type="MSShapeGroup"></path>
        </g>
    </g>
</svg>