<?xml version="1.0" encoding="UTF-8" standalone="no"?><svg width="296" height="200" viewBox="0 0 296 200" xmlns="http://www.w3.org/2000/svg"><title>on_collect</title><g fill="#B71C1C" fill-rule="evenodd"><path d="M84 7.578L4.644 28.84C1.316 29.734-.66 33.163.234 36.5L42.29 193.453c.893 3.334 4.317 5.318 7.647 4.425L105.464 183H98.24C90.374 183 84 176.613 84 168.746V7.578zM212 7.578l79.356 21.263c3.33.894 5.304 4.323 4.41 7.658L253.71 193.453c-.893 3.336-4.32 5.317-7.647 4.425L190.536 183h7.223c7.866 0 14.24-6.386 14.24-14.254V7.578z"/><path d="M92 6.254C92 2.8 94.796 0 98.24 0h99.52c3.446 0 6.24 2.802 6.24 6.254v162.492c0 3.454-2.796 6.254-6.24 6.254H98.24c-3.446 0-6.24-2.802-6.24-6.254V6.254zM148 120c17.673 0 32-14.327 32-32 0-17.673-14.327-32-32-32-17.673 0-32 14.327-32 32 0 17.673 14.327 32 32 32zm19.188-46.026c.25.683.367 1.445.407 2.334.06 1.33-.063 3.016-.33 4.93-.485 3.482-1.39 7.305-1.547 7.283 2.26 4 1.708 10.596-3.244 15.54-2.447 2.443-5.552 4.337-9.002 5.787-1.19.5-2.34.91-3.41 1.24-.66.202-2.15.485-2.15.485h-.495s-1.493-.283-2.15-.485c-1.073-.33-2.222-.74-3.412-1.24-3.45-1.45-6.554-3.344-9-5.787-4.952-4.945-5.318-11.833-3.257-15.508-.134.012-1.145-3.723-1.725-7.01-.33-1.87-.51-3.508-.494-4.806.01-.883.106-1.643.342-2.334.455-1.332 1.434-2.4 3.02-2.615 2.376-.32 5.017.672 8.23 2.567 1.213.717 4.266 2.826 4.266 2.826 1.21-.376 2.43-.567 3.646-.55h1.523c1.838-.024 3.64.404 3.606.52 0 0 2.083-1.683 3.99-2.938 3.128-2.056 5.728-3.143 8.168-2.813 1.576.21 2.54 1.258 3.018 2.574z"/></g></svg>
