<?xml version="1.0" encoding="UTF-8" standalone="no"?><svg width="296" height="200" viewBox="0 0 296 200" xmlns="http://www.w3.org/2000/svg"><title>on_profile</title><g fill="none" fill-rule="evenodd"><path d="M148 188c48.6 0 88-39.4 88-88s-39.4-88-88-88-88 39.4-88 88 39.4 88 88 88zm0-60c16.575 0 30-13.425 30-30s-13.425-30-30-30-30 13.425-30 30 13.425 30 30 30zm-58.238 37.973C97.696 150.69 130.482 143 148 143s50.304 7.69 58.238 22.973C190.722 179.68 170.332 188 148 188s-42.722-8.32-58.238-22.027z" fill="#E65100"/><path d="M148 188c48.6 0 88-39.4 88-88s-39.4-88-88-88-88 39.4-88 88 39.4 88 88 88z" stroke="#E65100" stroke-width="8"/></g></svg>
