<?xml version="1.0" encoding="UTF-8" standalone="no"?>
<svg width="296px" height="200px" viewBox="0 0 296 200" version="1.1" xmlns="http://www.w3.org/2000/svg" xmlns:xlink="http://www.w3.org/1999/xlink" xmlns:sketch="http://www.bohemiancoding.com/sketch/ns">
    <!-- Generator: Sketch 3.3.3 (12081) - http://www.bohemiancoding.com/sketch -->
    <title>on_starter</title>
    <desc>Created with Sketch.</desc>
    <defs></defs>
    <g id="Assets" stroke="none" stroke-width="1" fill="none" fill-rule="evenodd" sketch:type="MSPage">
        <g id="on_starter" sketch:type="MSArtboardGroup" fill="#0D47A1">
            <path d="M12,6.25411662 C12,2.80006339 14.7964976,0 18.2414396,0 L117.75856,0 C121.205612,0 124,2.80191299 124,6.25411662 L124,168.745883 C124,172.199937 121.203502,175 117.75856,175 L18.2414396,175 C14.7943877,175 12,172.198087 12,168.745883 L12,6.25411662 Z M68,120 C85.673112,120 100,105.673112 100,88 C100,70.326888 85.673112,56 68,56 C50.326888,56 36,70.326888 36,88 C36,105.673112 50.326888,120 68,120 Z" id="Card" sketch:type="MSShapeGroup"></path>
            <path d="M85.6529138,75.9580827 C85.8542929,76.5074626 85.9533878,77.1407924 85.9871603,77.8875125 C86.0394429,79.043495 85.930233,80.5300223 85.6928428,82.2208392 C85.2604439,85.3006092 84.4620475,88.5528893 83.8000596,90.0452667 L84.2406384,88.906142 C84.2406384,88.906142 87.8562012,95.3911133 81.522239,102.426845 C80.3813861,103.694099 78.8966009,104.689936 77.319343,105.627358 C75.5588648,106.673675 73.6881936,107.51392 71.8188316,108.172661 C70.6918525,108.569795 69.8027536,108.821641 69.2651009,108.946061 L69.0320172,109 L68.7928924,109 L68.345494,109 L68.1063481,109 L67.8732449,108.946052 C67.3355559,108.821612 66.4463987,108.569725 65.3193467,108.172526 C63.4498665,107.513678 61.5790775,106.673293 59.8184909,105.626799 C58.2416462,104.689521 56.7838633,103.669343 55.6167997,102.427186 C51.9919434,98.5690918 50.5722284,92.3700693 53.4994854,87.8967676 L52.8911336,88.926232 C52.8911336,88.926232 51.6763116,84.7576809 51.270112,82.4733144 C50.9764477,80.8218196 50.9204573,76.885811 51.1108593,76.332834 C51.455744,75.3311988 52.1780364,74.5478449 53.3222074,74.3946233 C54.9370283,74.1778227 56.7719766,74.7328961 58.9380694,75.8432241 C59.7614272,76.2652731 60.6172812,76.7632143 61.5042376,77.3267096 C62.3555734,77.8675748 63.1800772,78.4321425 64.0483771,79.0559354 C64.3285961,79.2572467 65.2301425,79.9161305 65.2837213,79.951269 L64.4509114,79.3250893 C64.4509114,79.3250893 66.7247573,78.7448828 67.8622543,78.7594163 L69.2510433,78.759578 C70.8103919,78.740198 72.3452782,79.1027586 73.8715978,79.7935201 L72.6691376,79.2951663 C72.6691376,79.2951663 74.6360475,77.7630065 75.42332,77.2066106 C76.3239316,76.5701135 77.1894674,76.013575 78.0237198,75.5470895 C80.0667088,74.4047196 81.8317951,73.8288913 83.4395103,74.0447174 C84.5769326,74.1972302 85.289381,74.9663334 85.6529138,75.9580827 Z" id="Shape" sketch:type="MSShapeGroup"></path>
            <path d="M130.559045,-7.99360578e-15 L137.75856,-7.99360578e-15 C141.205612,-7.99360578e-15 144,2.80191299 144,6.25411662 L144,168.745883 C144,172.199937 141.203502,175 137.75856,175 L130.559053,175 C131.481988,173.111511 132,170.988942 132,168.745883 L132,6.25411662 C132,4.01119984 131.482011,1.88859134 130.559045,-1.42108547e-14 L130.559045,-7.99360578e-15 Z" id="Card-Copy" sketch:type="MSShapeGroup"></path>
            <path d="M150.559045,-7.99360578e-15 L157.75856,-7.99360578e-15 C161.205612,-7.99360578e-15 164,2.80191299 164,6.25411662 L164,168.745883 C164,172.199937 161.203502,175 157.75856,175 L150.559053,175 C151.481988,173.111511 152,170.988942 152,168.745883 L152,6.25411662 C152,4.01119984 151.482011,1.88859134 150.559045,-1.42108547e-14 L150.559045,-7.99360578e-15 Z" id="Card-Copy-2" sketch:type="MSShapeGroup"></path>
            <path d="M170.559045,-7.99360578e-15 L177.75856,-7.99360578e-15 C181.205612,-7.99360578e-15 184,2.80191299 184,6.25411662 L184,168.745883 C184,172.199937 181.203502,175 177.75856,175 L170.559053,175 C171.481988,173.111511 172,170.988942 172,168.745883 L172,6.25411662 C172,4.01119984 171.482011,1.88859134 170.559045,-1.42108547e-14 L170.559045,-7.99360578e-15 Z" id="Card-Copy-3" sketch:type="MSShapeGroup"></path>
            <path d="M190.559045,-7.99360578e-15 L197.75856,-7.99360578e-15 C201.205612,-7.99360578e-15 204,2.80191299 204,6.25411662 L204,168.745883 C204,172.199937 201.203502,175 197.75856,175 L190.559053,175 C191.481988,173.111511 192,170.988942 192,168.745883 L192,6.25411662 C192,4.01119984 191.482011,1.88859134 190.559045,-1.42108547e-14 L190.559045,-7.99360578e-15 Z" id="Card-Copy-4" sketch:type="MSShapeGroup"></path>
            <path d="M210.559045,-7.99360578e-15 L217.75856,-7.99360578e-15 C221.205612,-7.99360578e-15 224,2.80191299 224,6.25411662 L224,168.745883 C224,172.199937 221.203502,175 217.75856,175 L210.559053,175 C211.481988,173.111511 212,170.988942 212,168.745883 L212,6.25411662 C212,4.01119984 211.482011,1.88859134 210.559045,-1.42108547e-14 L210.559045,-7.99360578e-15 Z" id="Card-Copy-5" sketch:type="MSShapeGroup"></path>
            <path d="M230.559045,-7.99360578e-15 L237.75856,-7.99360578e-15 C241.205612,-7.99360578e-15 244,2.80191299 244,6.25411662 L244,168.745883 C244,172.199937 241.203502,175 237.75856,175 L230.559053,175 C231.481988,173.111511 232,170.988942 232,168.745883 L232,6.25411662 C232,4.01119984 231.482011,1.88859134 230.559045,-1.42108547e-14 L230.559045,-7.99360578e-15 Z" id="Card-Copy-6" sketch:type="MSShapeGroup"></path>
            <path d="M250.559045,-7.99360578e-15 L257.75856,-7.99360578e-15 C261.205612,-7.99360578e-15 264,2.80191299 264,6.25411662 L264,168.745883 C264,172.199937 261.203502,175 257.75856,175 L250.559053,175 C251.481988,173.111511 252,170.988942 252,168.745883 L252,6.25411662 C252,4.01119984 251.482011,1.88859134 250.559045,-1.42108547e-14 L250.559045,-7.99360578e-15 Z" id="Card-Copy-7" sketch:type="MSShapeGroup"></path>
            <path d="M270.559045,-7.99360578e-15 L277.75856,-7.99360578e-15 C281.205612,-7.99360578e-15 284,2.80191299 284,6.25411662 L284,168.745883 C284,172.199937 281.203502,175 277.75856,175 L270.559053,175 C271.481988,173.111511 272,170.988942 272,168.745883 L272,6.25411662 C272,4.01119984 271.482011,1.88859134 270.559045,-1.42108547e-14 L270.559045,-7.99360578e-15 Z" id="Card-Copy-8" sketch:type="MSShapeGroup"></path>
        </g>
    </g>
</svg>