<?xml version="1.0" encoding="UTF-8" standalone="no"?>
<svg width="296px" height="200px" viewBox="0 0 296 200" version="1.1" xmlns="http://www.w3.org/2000/svg" xmlns:xlink="http://www.w3.org/1999/xlink" xmlns:sketch="http://www.bohemiancoding.com/sketch/ns">
    <!-- Generator: Sketch 3.3.3 (12081) - http://www.bohemiancoding.com/sketch -->
    <title>on_trade</title>
    <desc>Created with Sketch.</desc>
    <defs></defs>
    <g id="Assets" stroke="none" stroke-width="1" fill="none" fill-rule="evenodd" sketch:type="MSPage">
        <g id="on_trade" sketch:type="MSArtboardGroup" fill="#1B5E20">
            <path d="M144,56.247575 L144,6.25411662 C144,2.80191299 141.205612,0 137.75856,0 L38.2414396,0 C34.7964976,0 32,2.80006339 32,6.25411662 L32,168.745883 C32,172.198087 34.7943877,175 38.2414396,175 L137.75856,175 C141.203502,175 144,172.199937 144,168.745883 L144,119.752425 C128.214754,117.784033 116,104.318471 116,88 C116,71.6815294 128.214754,58.2159674 144,56.247575 L144,56.247575 Z" id="Card" sketch:type="MSShapeGroup"></path>
            <path d="M152,119.752425 L152,168.745883 C152,172.198087 154.794388,175 158.24144,175 L257.75856,175 C261.203502,175 264,172.199937 264,168.745883 L264,6.25411662 C264,2.80191299 261.205612,0 257.75856,0 L158.24144,0 C154.796498,0 152,2.80006339 152,6.25411662 L152,56.247575 C167.785246,58.2159674 180,71.6815294 180,88 C180,104.318471 167.785246,117.784033 152,119.752425 L152,119.752425 Z" id="Card-Copy" sketch:type="MSShapeGroup"></path>
            <path d="M137.98,86 L130,94 L137.98,102 L137.98,96 L152,96 L152,92 L137.98,92 L137.98,86 L137.98,86 Z M166,82 L158.02,74 L158.02,80 L144,80 L144,84 L158.02,84 L158.02,90 L166,82 L166,82 Z" id="Shape-Copy" sketch:type="MSShapeGroup"></path>
        </g>
    </g>
</svg>