<?xml version="1.0" encoding="UTF-8" standalone="no"?><svg width="296" height="200" viewBox="0 0 296 200" xmlns="http://www.w3.org/2000/svg"><title>on_welcome</title><path d="M148 188c48.6 0 88-39.4 88-88s-39.4-88-88-88-88 39.4-88 88 39.4 88 88 88zm46.6-122.063c.604 1.658.892 3.51.988 5.668.146 3.23-.153 7.326-.8 11.973-1.18 8.456-3.377 17.74-3.76 17.688 5.488 9.708 4.15 25.73-7.877 37.735-5.94 5.937-13.48 10.537-21.86 14.056-2.89 1.214-5.68 2.212-8.284 3.012-1.598.492-5.223 1.18-5.223 1.18h-1.2s-3.624-.688-5.222-1.18c-2.602-.8-5.394-1.798-8.283-3.012-8.378-3.52-15.918-8.12-21.86-14.054-12.025-12.008-12.914-28.736-7.908-37.66-.327.028-2.78-9.044-4.19-17.028-.803-4.542-1.237-8.518-1.2-11.67.026-2.144.26-3.99.833-5.667 1.106-3.236 3.483-5.832 7.333-6.35 5.772-.78 12.187 1.63 19.987 6.234 2.95 1.74 10.363 6.863 10.363 6.863 2.94-.913 5.897-1.376 8.853-1.338h3.698c4.464-.056 8.837.984 8.76 1.265 0 0 5.055-4.087 9.69-7.135 7.594-4.993 13.91-7.633 19.834-6.833 3.826.517 6.165 3.06 7.328 6.255z" fill="#006064" fill-rule="evenodd"/></svg>
