<?xml version="1.0" encoding="UTF-8" standalone="no"?>
<svg width="296px" height="200px" viewBox="0 0 296 200" version="1.1" xmlns="http://www.w3.org/2000/svg" xmlns:xlink="http://www.w3.org/1999/xlink" xmlns:sketch="http://www.bohemiancoding.com/sketch/ns">
    <!-- Generator: Sketch 3.3.3 (12081) - http://www.bohemiancoding.com/sketch -->
    <title>on_welcome</title>
    <desc>Created with Sketch.</desc>
    <defs></defs>
    <g id="Assets" stroke="none" stroke-width="1" fill="none" fill-rule="evenodd" sketch:type="MSPage">
        <g id="on_welcome" sketch:type="MSArtboardGroup">
            <circle id="Oval-39" fill="#006064" sketch:type="MSShapeGroup" cx="148" cy="88" r="88"></circle>
            <path d="M187.20666,59.4756175 C187.666955,60.731343 187.893458,62.178954 187.970652,63.8857429 C188.090155,66.5279885 187.840532,69.9257652 187.297926,73.7904895 C186.309586,80.829964 184.48468,88.2637471 182.971565,91.6748954 L183.978602,89.0711817 C183.978602,89.0711817 192.242746,103.893973 177.765118,119.975646 C175.157454,122.872226 171.763659,125.148424 168.158498,127.291105 C164.134548,129.682687 159.858728,131.603246 155.585901,133.10894 C153.009949,134.016675 150.977723,134.592322 149.748802,134.876711 L149.216039,135 L148.669468,135 L147.646843,135 L147.100224,135 L146.567417,134.87669 C145.338413,134.592256 143.306054,134.016515 140.729935,133.108631 C136.456838,131.602692 132.180749,129.681812 128.156551,127.289826 C124.552334,125.147477 121.220259,122.815641 118.552685,119.976425 C110.267299,111.157924 107.022236,96.9887298 113.713109,86.7640403 L112.322591,89.1171017 C112.322591,89.1171017 109.545855,79.5889849 108.617399,74.3675758 C107.946166,70.5927305 107.818188,61.5961394 108.253393,60.332192 C109.041701,58.0427401 110.692655,56.252217 113.307903,55.9019962 C116.998922,55.4064518 121.193089,56.675191 126.144159,59.2130837 C128.026119,60.1777672 129.982357,61.3159183 132.009686,62.6039077 C133.955596,63.840171 135.840177,65.1306114 137.824862,66.5564237 C138.465362,67.0165638 140.52604,68.522584 140.648506,68.6029005 L138.74494,67.1716328 C138.74494,67.1716328 143.942302,65.8454463 146.542296,65.8786659 L149.71667,65.8790354 C153.280896,65.8347383 156.789207,66.6634482 160.277938,68.2423316 L157.529457,67.1032372 C157.529457,67.1032372 162.025251,63.6011578 163.824732,62.3293956 C165.883272,60.8745452 167.86164,59.6024572 169.768502,58.5362046 C174.438192,55.9250734 178.472675,54.6088943 182.147452,55.1022112 C184.747274,55.4508118 186.375728,57.208762 187.20666,59.4756175 Z" id="Shape" fill="#00BCD4" sketch:type="MSShapeGroup"></path>
        </g>
    </g>
</svg>