<?xml version="1.0" encoding="UTF-8" standalone="no"?>
<svg width="79px" height="79px" viewBox="0 0 79 79" version="1.1" xmlns="http://www.w3.org/2000/svg" xmlns:xlink="http://www.w3.org/1999/xlink" xmlns:sketch="http://www.bohemiancoding.com/sketch/ns">
    <!-- Generator: Sketch 3.3.3 (12081) - http://www.bohemiancoding.com/sketch -->
    <title>sold_out_2</title>
    <desc>Created with Sketch.</desc>
    <defs>
        <filter x="-50%" y="-50%" width="200%" height="200%" filterUnits="objectBoundingBox" id="filter-1">
            <feOffset dx="-1" dy="1" in="SourceAlpha" result="shadowOffsetOuter1"></feOffset>
            <feGaussianBlur stdDeviation="1" in="shadowOffsetOuter1" result="shadowBlurOuter1"></feGaussianBlur>
            <feColorMatrix values="0 0 0 0 0   0 0 0 0 0   0 0 0 0 0  0 0 0 0.105 0" in="shadowBlurOuter1" type="matrix" result="shadowMatrixOuter1"></feColorMatrix>
            <feMerge>
                <feMergeNode in="shadowMatrixOuter1"></feMergeNode>
                <feMergeNode in="SourceGraphic"></feMergeNode>
            </feMerge>
        </filter>
    </defs>
    <g id="Card-frames" stroke="none" stroke-width="1" fill="none" fill-rule="evenodd" sketch:type="MSPage">
        <g id="Crystal" sketch:type="MSArtboardGroup" transform="translate(-50.000000, -49.000000)">
            <g id="sold_out_2" sketch:type="MSLayerGroup" transform="translate(50.000000, 50.000000)">
                <path d="M1,0 L34.9411255,0 L76.9705627,42.0294373 L76.9705627,75.9705627 L1,-2.99760217e-15 Z" id="Card-Copy" fill="#FFFFFF" filter="url(#filter-1)" sketch:type="MSShapeGroup" transform="translate(38.985281, 37.985281) rotate(-90.000000) translate(-38.985281, -37.985281) "></path>
                <path d="M10.984375,31.3417969 C10.984375,31.2180983 10.9664715,31.1066086 10.9306641,31.0073242 C10.8948566,30.9080399 10.8256841,30.8160812 10.7231445,30.7314453 C10.620605,30.6468095 10.4790048,30.5638025 10.2983398,30.4824219 C10.1176749,30.4010413 9.88411602,30.3147791 9.59765625,30.2236328 C9.27213379,30.1194656 8.96533347,30.0022793 8.67724609,29.8720703 C8.38915872,29.7418613 8.13688259,29.5880543 7.92041016,29.4106445 C7.70393772,29.2332348 7.53304099,29.0289725 7.40771484,28.7978516 C7.2823887,28.5667306 7.21972656,28.296551 7.21972656,27.9873047 C7.21972656,27.6910792 7.28401628,27.4200859 7.41259766,27.1743164 C7.54117903,26.9285469 7.72184128,26.7194019 7.95458984,26.546875 C8.1873384,26.3743481 8.46402834,26.2400721 8.78466797,26.144043 C9.10530759,26.0480138 9.45768037,26 9.84179688,26 C10.2356791,26 10.5937484,26.0545242 10.9160156,26.1635742 C11.2382829,26.2726242 11.5133452,26.4248037 11.7412109,26.6201172 C11.9690767,26.8154307 12.1448562,27.0473619 12.2685547,27.315918 C12.3922532,27.584474 12.4541016,27.8782536 12.4541016,28.1972656 L10.9892578,28.1972656 C10.9892578,28.0475253 10.9656578,27.9091803 10.918457,27.7822266 C10.8712563,27.6552728 10.7988286,27.5462244 10.7011719,27.4550781 C10.6035151,27.3639318 10.481446,27.2931318 10.3349609,27.2426758 C10.1884758,27.1922198 10.0159515,27.1669922 9.81738281,27.1669922 C9.62532456,27.1669922 9.4584968,27.1881508 9.31689453,27.2304688 C9.17529226,27.2727867 9.05810593,27.3313798 8.96533203,27.40625 C8.87255813,27.4811202 8.80257185,27.5690099 8.75537109,27.6699219 C8.70817034,27.7708338 8.68457031,27.8782546 8.68457031,27.9921875 C8.68457031,28.2265637 8.80419802,28.422688 9.04345703,28.5805664 C9.28271604,28.7384448 9.63346123,28.8857415 10.0957031,29.0224609 C10.4830749,29.1429042 10.8240545,29.2763665 11.1186523,29.4228516 C11.4132502,29.5693367 11.6590159,29.7353506 11.855957,29.9208984 C12.0528981,30.1064462 12.2018224,30.3147775 12.3027344,30.5458984 C12.4036463,30.7770194 12.4541016,31.039061 12.4541016,31.3320312 C12.4541016,31.6445328 12.393067,31.9228503 12.2709961,32.1669922 C12.1489252,32.411134 11.9755871,32.6170239 11.7509766,32.784668 C11.5263661,32.952312 11.2553727,33.0808915 10.9379883,33.1704102 C10.6206039,33.2599288 10.2666035,33.3046875 9.87597656,33.3046875 C9.64160039,33.3046875 9.40722773,33.2843427 9.17285156,33.2436523 C8.93847539,33.202962 8.71468206,33.1402999 8.50146484,33.0556641 C8.28824763,32.9710282 8.0904957,32.865235 7.90820312,32.7382812 C7.72591055,32.6113275 7.56722073,32.4615894 7.43212891,32.2890625 C7.29703708,32.1165356 7.19124387,31.9204113 7.11474609,31.7006836 C7.03824832,31.4809559 7,31.2376315 7,30.9707031 L8.46972656,30.9707031 C8.46972656,31.1855479 8.50390591,31.3678378 8.57226562,31.5175781 C8.64062534,31.6673185 8.73583923,31.7885738 8.85791016,31.8813477 C8.97998108,31.9741216 9.12727778,32.0416665 9.29980469,32.0839844 C9.47233159,32.1263023 9.66438696,32.1474609 9.87597656,32.1474609 C10.0647796,32.1474609 10.229166,32.1271161 10.3691406,32.0864258 C10.5091153,32.0457355 10.624674,31.9895837 10.7158203,31.9179688 C10.8069666,31.8463538 10.8745115,31.7609054 10.918457,31.6616211 C10.9624026,31.5623367 10.984375,31.4557297 10.984375,31.3417969 L10.984375,31.3417969 Z M19.4851563,29.8134766 C19.4851563,30.3570991 19.4119148,30.8445616 19.2654297,31.2758789 C19.1189446,31.7071962 18.9130547,32.0725896 18.6477539,32.3720703 C18.3824531,32.671551 18.0642597,32.9018547 17.6931641,33.0629883 C17.3220685,33.2241219 16.9135439,33.3046875 16.4675781,33.3046875 C16.0216124,33.3046875 15.6130878,33.2241219 15.2419922,33.0629883 C14.8708966,32.9018547 14.5510756,32.671551 14.2825195,32.3720703 C14.0139635,32.0725896 13.8048185,31.7071962 13.6550781,31.2758789 C13.5053378,30.8445616 13.4304688,30.3570991 13.4304688,29.8134766 L13.4304688,29.5009766 C13.4304688,28.9606093 13.504524,28.4739605 13.6526367,28.0410156 C13.8007494,27.6080708 14.0082669,27.2402359 14.2751953,26.9375 C14.5421237,26.6347641 14.861131,26.4028328 15.2322266,26.2416992 C15.6033222,26.0805656 16.0118467,26 16.4578125,26 C16.9037783,26 17.3123028,26.0805656 17.6833984,26.2416992 C18.054494,26.4028328 18.3735013,26.6347641 18.6404297,26.9375 C18.9073581,27.2402359 19.1148756,27.6080708 19.2629883,28.0410156 C19.411101,28.4739605 19.4851563,28.9606093 19.4851563,29.5009766 L19.4851563,29.8134766 Z M18.0007813,29.4912109 C18.0007813,28.7457645 17.867319,28.1793639 17.6003906,27.7919922 C17.3334622,27.4046205 16.9526066,27.2109375 16.4578125,27.2109375 C15.9630184,27.2109375 15.5821628,27.4046205 15.3152344,27.7919922 C15.048306,28.1793639 14.9148438,28.7457645 14.9148438,29.4912109 L14.9148438,29.8134766 C14.9148438,30.1845722 14.9498369,30.5125311 15.0198242,30.7973633 C15.0898116,31.0821954 15.190722,31.3214509 15.3225586,31.5151367 C15.4543952,31.7088226 15.6163402,31.8553055 15.8083984,31.9545898 C16.0004567,32.0538742 16.2201811,32.1035156 16.4675781,32.1035156 C16.9623723,32.1035156 17.3416002,31.9082051 17.6052734,31.5175781 C17.8689466,31.1269512 18.0007813,30.558923 18.0007813,29.8134766 L18.0007813,29.4912109 Z M22.2144531,32.0302734 L25.3248047,32.0302734 L25.3248047,33.2070312 L20.7496094,33.2070312 L20.7496094,26.0976562 L22.2144531,26.0976562 L22.2144531,32.0302734 Z M26.3646484,33.2070312 L26.3646484,26.0976562 L28.5521484,26.0976562 C29.0306665,26.0976562 29.4693014,26.1798494 29.8680664,26.3442383 C30.2668314,26.5086271 30.6086249,26.7397446 30.893457,27.0375977 C31.1782892,27.3354507 31.4004549,27.6927063 31.5599609,28.109375 C31.719467,28.5260437 31.7992188,28.9882787 31.7992188,29.4960938 L31.7992188,29.8183594 C31.7992188,30.3261744 31.7202807,30.7875956 31.5624024,31.2026367 C31.404524,31.6176779 31.1815444,31.9741196 30.893457,32.2719727 C30.6053697,32.5698257 30.2611348,32.8001294 29.8607422,32.9628906 C29.4603496,33.1256519 29.0192733,33.2070312 28.5375,33.2070312 L26.3646484,33.2070312 Z M27.8294922,27.2841797 L27.8294922,32.0302734 L28.5375,32.0302734 C29.11693,32.0302734 29.5580063,31.8390319 29.8607422,31.456543 C30.1634781,31.0740541 30.3148438,30.5279983 30.3148438,29.8183594 L30.3148438,29.4863281 C30.3148438,28.7636683 30.1651057,28.2159849 29.865625,27.8432617 C29.5661443,27.4705385 29.1283232,27.2841797 28.5521484,27.2841797 L27.8294922,27.2841797 Z M41.59375,29.8134766 C41.59375,30.3570991 41.5205086,30.8445616 41.3740235,31.2758789 C41.2275383,31.7071962 41.0216485,32.0725896 40.7563477,32.3720703 C40.4910469,32.671551 40.1728534,32.9018547 39.8017578,33.0629883 C39.4306622,33.2241219 39.0221377,33.3046875 38.5761719,33.3046875 C38.1302061,33.3046875 37.7216816,33.2241219 37.350586,33.0629883 C36.9794903,32.9018547 36.6596693,32.671551 36.3911133,32.3720703 C36.1225573,32.0725896 35.9134122,31.7071962 35.7636719,31.2758789 C35.6139316,30.8445616 35.5390625,30.3570991 35.5390625,29.8134766 L35.5390625,29.5009766 C35.5390625,28.9606093 35.6131178,28.4739605 35.7612305,28.0410156 C35.9093432,27.6080708 36.1168607,27.2402359 36.3837891,26.9375 C36.6507175,26.6347641 36.9697247,26.4028328 37.3408203,26.2416992 C37.7119159,26.0805656 38.1204405,26 38.5664063,26 C39.012372,26 39.4208966,26.0805656 39.7919922,26.2416992 C40.1630878,26.4028328 40.482095,26.6347641 40.7490235,26.9375 C41.0159519,27.2402359 41.2234693,27.6080708 41.371582,28.0410156 C41.5196948,28.4739605 41.59375,28.9606093 41.59375,29.5009766 L41.59375,29.8134766 Z M40.109375,29.4912109 C40.109375,28.7457645 39.9759128,28.1793639 39.7089844,27.7919922 C39.442056,27.4046205 39.0612004,27.2109375 38.5664063,27.2109375 C38.0716121,27.2109375 37.6907566,27.4046205 37.4238281,27.7919922 C37.1568997,28.1793639 37.0234375,28.7457645 37.0234375,29.4912109 L37.0234375,29.8134766 C37.0234375,30.1845722 37.0584307,30.5125311 37.128418,30.7973633 C37.1984053,31.0821954 37.2993158,31.3214509 37.4311524,31.5151367 C37.562989,31.7088226 37.724934,31.8553055 37.9169922,31.9545898 C38.1090505,32.0538742 38.3287748,32.1035156 38.5761719,32.1035156 C39.070966,32.1035156 39.450194,31.9082051 39.7138672,31.5175781 C39.9775404,31.1269512 40.109375,30.558923 40.109375,29.8134766 L40.109375,29.4912109 Z M48.2390625,26.0976562 L48.2390625,30.7900391 C48.2390625,31.2001974 48.1707038,31.5623357 48.0339844,31.8764648 C47.897265,32.190594 47.7084648,32.4534495 47.4675781,32.6650391 C47.2266915,32.8766287 46.9394223,33.0361323 46.6057617,33.1435547 C46.2721012,33.2509771 45.9083353,33.3046875 45.5144531,33.3046875 C45.1173157,33.3046875 44.7519223,33.2509771 44.4182617,33.1435547 C44.0846012,33.0361323 43.797332,32.8766287 43.5564453,32.6650391 C43.3155587,32.4534495 43.1275723,32.190594 42.9924805,31.8764648 C42.8573887,31.5623357 42.7898438,31.2001974 42.7898438,30.7900391 L42.7898438,26.0976562 L44.2546875,26.0976562 L44.2546875,30.7900391 C44.2546875,31.2555362 44.3661773,31.5948883 44.5891602,31.8081055 C44.8121431,32.0213227 45.120571,32.1279297 45.5144531,32.1279297 C45.9115905,32.1279297 46.2200185,32.0213227 46.4397461,31.8081055 C46.6594738,31.5948883 46.769336,31.2555362 46.769336,30.7900391 L46.769336,26.0976562 L48.2390625,26.0976562 Z M54.9917969,27.2841797 L52.8140625,27.2841797 L52.8140625,33.2070312 L51.3492188,33.2070312 L51.3492188,27.2841797 L49.2007813,27.2841797 L49.2007813,26.0976562 L54.9917969,26.0976562 L54.9917969,27.2841797 Z" id="SOLD-OUT" fill="#FF5722" sketch:type="MSShapeGroup" transform="translate(31.095996, 29.652344) rotate(-45.000000) translate(-31.095996, -29.652344) "></path>
            </g>
        </g>
    </g>
</svg>