<svg width="56" height="56" viewBox="0 0 56 56" xmlns="http://www.w3.org/2000/svg"><title>sold_out_bottom</title><defs><filter x="-50%" y="-50%" width="200%" height="200%" filterUnits="objectBoundingBox" id="a"><feOffset dx="-1" dy="1" in="SourceAlpha" result="shadowOffsetOuter1"/><feGaussianBlur stdDeviation="1" in="shadowOffsetOuter1" result="shadowBlurOuter1"/><feColorMatrix values="0 0 0 0 0 0 0 0 0 0 0 0 0 0 0 0 0 0 0.105 0" in="shadowBlurOuter1" result="shadowMatrixOuter1"/><feMerge><feMergeNode in="shadowMatrixOuter1"/><feMergeNode in="SourceGraphic"/></feMerge></filter></defs><g fill="none" fill-rule="evenodd"><path d="M56 56H22.04L0 33.96V0l56 56z" fill="#FFF" filter="url(#a)"/><path d="M6.51 25.973c.072-.072.127-.147.164-.225.037-.078.05-.17.04-.28-.008-.107-.04-.236-.097-.387-.056-.15-.14-.333-.25-.55-.127-.247-.234-.49-.323-.73-.09-.242-.145-.475-.166-.702-.02-.227 0-.444.063-.65.064-.206.185-.398.364-.578.172-.172.366-.293.583-.362.216-.07.44-.087.674-.054.235.033.47.113.71.24.24.13.47.302.69.522.224.226.398.462.52.71.12.248.19.494.206.737.017.244-.018.48-.103.706-.085.226-.22.432-.405.617l-.84-.838c.088-.088.155-.182.202-.282.047-.1.068-.206.066-.315-.003-.11-.032-.22-.087-.333-.055-.113-.14-.226-.253-.34-.11-.11-.218-.193-.323-.25-.106-.056-.207-.09-.303-.1-.096-.008-.187.003-.273.034-.085.032-.16.08-.227.147-.137.137-.182.32-.137.548.045.23.16.515.346.86.15.29.268.563.352.817.083.254.127.49.132.71.005.222-.03.428-.107.62s-.2.373-.37.543c-.182.182-.378.308-.59.38-.212.072-.43.093-.656.06-.225-.03-.455-.11-.688-.24-.234-.13-.463-.306-.686-.53-.134-.134-.257-.28-.367-.437-.112-.157-.203-.322-.276-.493-.073-.17-.125-.345-.155-.524-.032-.178-.036-.355-.013-.533.023-.177.077-.352.16-.523.084-.172.204-.335.36-.49l.84.84c-.125.126-.21.25-.26.377-.047.127-.063.25-.047.375.016.123.06.246.135.37.074.123.172.245.293.366.108.108.214.19.318.247.103.057.202.09.296.1.094.01.182 0 .265-.032.083-.032.157-.08.223-.147zm5.752 3.976c-.315.315-.64.556-.975.723-.334.167-.664.26-.99.283-.326.022-.642-.026-.948-.145-.306-.117-.587-.304-.842-.56-.255-.255-.442-.535-.56-.84-.12-.307-.17-.624-.15-.952.02-.327.114-.66.28-.995.164-.337.404-.663.72-.978l.18-.182c.315-.314.64-.554.976-.72.336-.167.67-.262.997-.285.33-.023.647.024.953.143.306.12.587.307.842.562.255.255.442.536.56.842.12.306.167.623.144.952-.024.328-.12.66-.285.997-.167.336-.407.66-.72.975l-.183.18zm-.662-1.037c.433-.433.686-.838.758-1.216.072-.378-.033-.708-.316-.99-.284-.285-.614-.39-.992-.318-.378.07-.783.324-1.216.757l-.187.187c-.216.216-.386.426-.51.632-.127.205-.208.402-.245.59-.037.188-.03.365.023.533.052.167.15.32.29.463.284.283.614.386.992.31.378-.076.783-.33 1.216-.763l.187-.187zm.937 3.886l1.78 1.78-.684.682-2.618-2.618 4.13-4.13.837.84-3.445 3.445zm1.69 3.057l4.13-4.13 1.252 1.253c.273.274.476.572.61.896.13.324.193.653.183.99-.01.335-.09.67-.24 1.003-.152.333-.375.647-.67.942l-.187.187c-.295.294-.608.517-.94.667-.33.15-.666.23-1.003.24-.338.007-.67-.056-.993-.19-.323-.136-.623-.34-.9-.616l-1.242-1.243zm4.28-2.602l-2.757 2.757.405.405c.33.332.695.473 1.09.424.396-.048.8-.278 1.212-.69l.192-.193c.42-.42.652-.824.697-1.212.045-.388-.098-.746-.427-1.076l-.414-.415zm6.407 9.346c-.316.317-.64.558-.976.724-.334.167-.664.262-.99.284-.325.022-.64-.027-.947-.145-.305-.12-.586-.306-.84-.56-.256-.256-.443-.537-.562-.843-.12-.306-.168-.623-.148-.95.02-.328.113-.66.278-.996.165-.336.405-.662.72-.978l.182-.18c.314-.315.64-.556.975-.722.337-.167.67-.262.998-.285.328-.024.646.024.95.143.307.118.588.305.843.56.255.256.442.536.56.842.12.306.168.623.145.952-.022.33-.117.66-.284.997-.167.336-.407.66-.72.975l-.182.18zm-.663-1.036c.434-.433.687-.838.76-1.216.07-.378-.034-.708-.317-.99-.283-.284-.614-.39-.99-.318-.38.073-.785.325-1.218.758l-.187.187c-.215.216-.386.427-.51.632-.126.205-.208.402-.245.59-.037.188-.03.366.023.533.052.168.15.323.29.464.284.283.614.387.992.31.378-.075.783-.33 1.216-.763l.187-.186zm6.624 2.68l-2.725 2.727c-.24.24-.49.41-.75.514-.26.105-.52.15-.78.134-.262-.015-.52-.086-.772-.215-.254-.13-.493-.306-.72-.53-.226-.228-.404-.468-.532-.722-.13-.252-.2-.51-.215-.77-.014-.26.03-.52.136-.78.105-.26.277-.51.515-.748l2.726-2.725.838.838-2.725 2.726c-.27.27-.405.532-.4.783.003.252.118.49.343.716.227.226.466.34.715.342.25.002.51-.132.78-.402l2.725-2.726.84.84zM34.05 48.8l-1.247-1.248-3.44 3.44-.838-.838 3.44-3.44-1.23-1.23.69-.688 3.314 3.313-.69.69z" fill="#FF5722"/></g></svg>