<?xml version="1.0" encoding="UTF-8" standalone="no"?>
<svg width="79px" height="79px" viewBox="0 0 79 79" version="1.1" xmlns="http://www.w3.org/2000/svg" xmlns:xlink="http://www.w3.org/1999/xlink" xmlns:sketch="http://www.bohemiancoding.com/sketch/ns">
    <!-- Generator: Sketch 3.3.3 (12081) - http://www.bohemiancoding.com/sketch -->
    <title>sold_out</title>
    <desc>Created with Sketch.</desc>
    <defs>
        <filter x="-50%" y="-50%" width="200%" height="200%" filterUnits="objectBoundingBox" id="filter-1">
            <feOffset dx="-1" dy="1" in="SourceAlpha" result="shadowOffsetOuter1"></feOffset>
            <feGaussianBlur stdDeviation="1" in="shadowOffsetOuter1" result="shadowBlurOuter1"></feGaussianBlur>
            <feColorMatrix values="0 0 0 0 0   0 0 0 0 0   0 0 0 0 0  0 0 0 0.105 0" in="shadowBlurOuter1" type="matrix" result="shadowMatrixOuter1"></feColorMatrix>
            <feMerge>
                <feMergeNode in="shadowMatrixOuter1"></feMergeNode>
                <feMergeNode in="SourceGraphic"></feMergeNode>
            </feMerge>
        </filter>
    </defs>
    <g id="Card-frames" stroke="none" stroke-width="1" fill="none" fill-rule="evenodd" sketch:type="MSPage">
        <g id="Blue" sketch:type="MSArtboardGroup" transform="translate(-197.000000, -49.000000)">
            <g id="sold_out" sketch:type="MSLayerGroup" transform="translate(199.000000, 50.000000)">
                <path d="M-2.30926389e-14,0 L33.9411255,0 L75.9705627,42.0294373 L75.9705627,75.9705627 L-2.43138842e-14,-2.99760217e-15 Z" id="Card-Copy" fill="#FFFFFF" filter="url(#filter-1)" sketch:type="MSShapeGroup"></path>
                <path d="M27.3212891,31.1347656 C27.3212891,31.0110671 27.3033856,30.8995773 27.2675781,30.800293 C27.2317707,30.7010086 27.1625982,30.6090499 27.0600586,30.5244141 C26.957519,30.4397782 26.8159189,30.3567712 26.6352539,30.2753906 C26.4545889,30.19401 26.2210301,30.1077479 25.9345703,30.0166016 C25.6090479,29.9124344 25.3022475,29.795248 25.0141602,29.6650391 C24.7260728,29.5348301 24.4737967,29.381023 24.2573242,29.2036133 C24.0408518,29.0262035 23.8699551,28.8219413 23.7446289,28.5908203 C23.6193028,28.3596994 23.5566406,28.0895198 23.5566406,27.7802734 C23.5566406,27.484048 23.6209303,27.2130546 23.7495117,26.9672852 C23.8780931,26.7215157 24.0587553,26.5123707 24.2915039,26.3398438 C24.5242525,26.1673168 24.8009424,26.0330408 25.121582,25.9370117 C25.4422217,25.8409826 25.7945944,25.7929688 26.1787109,25.7929688 C26.5725931,25.7929688 26.9306625,25.8474929 27.2529297,25.956543 C27.5751969,26.065593 27.8502593,26.2177725 28.078125,26.4130859 C28.3059907,26.6083994 28.4817702,26.8403307 28.6054688,27.1088867 C28.7291673,27.3774427 28.7910156,27.6712224 28.7910156,27.9902344 L27.3261719,27.9902344 C27.3261719,27.840494 27.3025719,27.7021491 27.2553711,27.5751953 C27.2081703,27.4482416 27.1357427,27.3391932 27.0380859,27.2480469 C26.9404292,27.1569006 26.8183601,27.0861005 26.671875,27.0356445 C26.5253899,26.9851885 26.3528656,26.9599609 26.1542969,26.9599609 C25.9622386,26.9599609 25.7954109,26.9811196 25.6538086,27.0234375 C25.5122063,27.0657554 25.39502,27.1243486 25.3022461,27.1992188 C25.2094722,27.2740889 25.1394859,27.3619787 25.0922852,27.4628906 C25.0450844,27.5638026 25.0214844,27.6712234 25.0214844,27.7851562 C25.0214844,28.0195324 25.1411121,28.2156568 25.3803711,28.3735352 C25.6196301,28.5314135 25.9703753,28.6787103 26.4326172,28.8154297 C26.8199889,28.935873 27.1609686,29.0693352 27.4555664,29.2158203 C27.7501642,29.3623054 27.99593,29.5283194 28.1928711,29.7138672 C28.3898122,29.899415 28.5387365,30.1077462 28.6396484,30.3388672 C28.7405604,30.5699881 28.7910156,30.8320298 28.7910156,31.125 C28.7910156,31.4375016 28.7299811,31.7158191 28.6079102,31.9599609 C28.4858392,32.2041028 28.3125011,32.4099927 28.0878906,32.5776367 C27.8632801,32.7452808 27.5922867,32.8738602 27.2749023,32.9633789 C26.9575179,33.0528976 26.6035176,33.0976562 26.2128906,33.0976562 C25.9785145,33.0976562 25.7441418,33.0773114 25.5097656,33.0366211 C25.2753895,32.9959308 25.0515961,32.9332687 24.8383789,32.8486328 C24.6251617,32.763997 24.4274098,32.6582038 24.2451172,32.53125 C24.0628246,32.4042962 23.9041348,32.2545582 23.769043,32.0820312 C23.6339511,31.9095043 23.5281579,31.71338 23.4516602,31.4936523 C23.3751624,31.2739247 23.3369141,31.0306003 23.3369141,30.7636719 L24.8066406,30.7636719 C24.8066406,30.9785167 24.84082,31.1608065 24.9091797,31.3105469 C24.9775394,31.4602872 25.0727533,31.5815425 25.1948242,31.6743164 C25.3168951,31.7670903 25.4641918,31.8346352 25.6367188,31.8769531 C25.8092457,31.919271 26.001301,31.9404297 26.2128906,31.9404297 C26.4016937,31.9404297 26.56608,31.9200848 26.7060547,31.8793945 C26.8460293,31.8387042 26.9615881,31.7825524 27.0527344,31.7109375 C27.1438807,31.6393226 27.2114256,31.5538742 27.2553711,31.4545898 C27.2993166,31.3553055 27.3212891,31.2486985 27.3212891,31.1347656 L27.3212891,31.1347656 Z M35.8220703,29.6064453 C35.8220703,30.1500678 35.7488289,30.6375304 35.6023438,31.0688477 C35.4558586,31.5001649 35.2499688,31.8655584 34.984668,32.1650391 C34.7193672,32.4645197 34.4011737,32.6948234 34.0300781,32.855957 C33.6589825,33.0170906 33.250458,33.0976562 32.8044922,33.0976562 C32.3585264,33.0976562 31.9500019,33.0170906 31.5789063,32.855957 C31.2078106,32.6948234 30.8879896,32.4645197 30.6194336,32.1650391 C30.3508776,31.8655584 30.1417325,31.5001649 29.9919922,31.0688477 C29.8422519,30.6375304 29.7673828,30.1500678 29.7673828,29.6064453 L29.7673828,29.2939453 C29.7673828,28.753578 29.8414381,28.2669292 29.9895508,27.8339844 C30.1376635,27.4010395 30.345181,27.0332046 30.6121094,26.7304688 C30.8790378,26.4277329 31.198045,26.1958016 31.5691406,26.034668 C31.9402362,25.8735344 32.3487608,25.7929688 32.7947266,25.7929688 C33.2406923,25.7929688 33.6492169,25.8735344 34.0203125,26.034668 C34.3914081,26.1958016 34.7104153,26.4277329 34.9773438,26.7304688 C35.2442722,27.0332046 35.4517896,27.4010395 35.5999023,27.8339844 C35.7480151,28.2669292 35.8220703,28.753578 35.8220703,29.2939453 L35.8220703,29.6064453 Z M34.3376953,29.2841797 C34.3376953,28.5387333 34.2042331,27.9723327 33.9373047,27.5849609 C33.6703763,27.1975892 33.2895207,27.0039062 32.7947266,27.0039062 C32.2999324,27.0039062 31.9190769,27.1975892 31.6521484,27.5849609 C31.38522,27.9723327 31.2517578,28.5387333 31.2517578,29.2841797 L31.2517578,29.6064453 C31.2517578,29.9775409 31.286751,30.3054999 31.3567383,30.590332 C31.4267256,30.8751642 31.5276361,31.1144196 31.6594727,31.3081055 C31.7913093,31.5017913 31.9532543,31.6482742 32.1453125,31.7475586 C32.3373708,31.8468429 32.5570951,31.8964844 32.8044922,31.8964844 C33.2992863,31.8964844 33.6785143,31.7011738 33.9421875,31.3105469 C34.2058607,30.9199199 34.3376953,30.3518917 34.3376953,29.6064453 L34.3376953,29.2841797 Z M38.5513672,31.8232422 L41.6617188,31.8232422 L41.6617188,33 L37.0865234,33 L37.0865234,25.890625 L38.5513672,25.890625 L38.5513672,31.8232422 Z M42.7015625,33 L42.7015625,25.890625 L44.8890625,25.890625 C45.3675805,25.890625 45.8062155,25.9728182 46.2049805,26.137207 C46.6037455,26.3015959 46.9455389,26.5327134 47.2303711,26.8305664 C47.5152033,27.1284195 47.737369,27.485675 47.896875,27.9023438 C48.056381,28.3190125 48.1361328,28.7812475 48.1361328,29.2890625 L48.1361328,29.6113281 C48.1361328,30.1191432 48.0571948,30.5805643 47.8993164,30.9956055 C47.741438,31.4106466 47.5184585,31.7670884 47.2303711,32.0649414 C46.9422837,32.3627945 46.5980489,32.5930981 46.1976563,32.7558594 C45.7972636,32.9186206 45.3561873,33 44.8744141,33 L42.7015625,33 Z M44.1664063,27.0771484 L44.1664063,31.8232422 L44.8744141,31.8232422 C45.4538441,31.8232422 45.8949204,31.6320006 46.1976563,31.2495117 C46.5003921,30.8670228 46.6517578,30.3209671 46.6517578,29.6113281 L46.6517578,29.2792969 C46.6517578,28.556637 46.5020197,28.0089537 46.2025391,27.6362305 C45.9030584,27.2635073 45.4652373,27.0771484 44.8890625,27.0771484 L44.1664063,27.0771484 Z M57.9306641,29.6064453 C57.9306641,30.1500678 57.8574226,30.6375304 57.7109375,31.0688477 C57.5644524,31.5001649 57.3585625,31.8655584 57.0932617,32.1650391 C56.8279609,32.4645197 56.5097675,32.6948234 56.1386719,32.855957 C55.7675763,33.0170906 55.3590517,33.0976562 54.913086,33.0976562 C54.4671202,33.0976562 54.0585956,33.0170906 53.6875,32.855957 C53.3164044,32.6948234 52.9965834,32.4645197 52.7280274,32.1650391 C52.4594713,31.8655584 52.2503263,31.5001649 52.100586,31.0688477 C51.9508456,30.6375304 51.8759766,30.1500678 51.8759766,29.6064453 L51.8759766,29.2939453 C51.8759766,28.753578 51.9500318,28.2669292 52.0981445,27.8339844 C52.2462573,27.4010395 52.4537747,27.0332046 52.7207031,26.7304688 C52.9876316,26.4277329 53.3066388,26.1958016 53.6777344,26.034668 C54.04883,25.8735344 54.4573546,25.7929688 54.9033203,25.7929688 C55.3492861,25.7929688 55.7578107,25.8735344 56.1289063,26.034668 C56.5000019,26.1958016 56.8190091,26.4277329 57.0859375,26.7304688 C57.3528659,27.0332046 57.5603834,27.4010395 57.7084961,27.8339844 C57.8566088,28.2669292 57.9306641,28.753578 57.9306641,29.2939453 L57.9306641,29.6064453 Z M56.4462891,29.2841797 C56.4462891,28.5387333 56.3128269,27.9723327 56.0458985,27.5849609 C55.77897,27.1975892 55.3981145,27.0039062 54.9033203,27.0039062 C54.4085262,27.0039062 54.0276706,27.1975892 53.7607422,27.5849609 C53.4938138,27.9723327 53.3603516,28.5387333 53.3603516,29.2841797 L53.3603516,29.6064453 C53.3603516,29.9775409 53.3953447,30.3054999 53.465332,30.590332 C53.5353194,30.8751642 53.6362298,31.1144196 53.7680664,31.3081055 C53.899903,31.5017913 54.061848,31.6482742 54.2539063,31.7475586 C54.4459645,31.8468429 54.6656889,31.8964844 54.913086,31.8964844 C55.4078801,31.8964844 55.7871081,31.7011738 56.0507813,31.3105469 C56.3144545,30.9199199 56.4462891,30.3518917 56.4462891,29.6064453 L56.4462891,29.2841797 Z M64.5759766,25.890625 L64.5759766,30.5830078 C64.5759766,30.9931661 64.5076179,31.3553044 64.3708985,31.6694336 C64.234179,31.9835628 64.0453788,32.2464182 63.8044922,32.4580078 C63.5636056,32.6695974 63.2763363,32.829101 62.9426758,32.9365234 C62.6090153,33.0439458 62.2452494,33.0976562 61.8513672,33.0976562 C61.4542298,33.0976562 61.0888363,33.0439458 60.7551758,32.9365234 C60.4215153,32.829101 60.134246,32.6695974 59.8933594,32.4580078 C59.6524728,32.2464182 59.4644864,31.9835628 59.3293945,31.6694336 C59.1943027,31.3553044 59.1267578,30.9931661 59.1267578,30.5830078 L59.1267578,25.890625 L60.5916016,25.890625 L60.5916016,30.5830078 C60.5916016,31.0485049 60.7030914,31.387857 60.9260742,31.6010742 C61.1490571,31.8142914 61.457485,31.9208984 61.8513672,31.9208984 C62.2485046,31.9208984 62.5569325,31.8142914 62.7766602,31.6010742 C62.9963878,31.387857 63.10625,31.0485049 63.10625,30.5830078 L63.10625,25.890625 L64.5759766,25.890625 Z M71.328711,27.0771484 L69.1509766,27.0771484 L69.1509766,33 L67.6861328,33 L67.6861328,27.0771484 L65.5376953,27.0771484 L65.5376953,25.890625 L71.328711,25.890625 L71.328711,27.0771484 Z" id="SOLD-OUT" fill="#FF5722" sketch:type="MSShapeGroup" transform="translate(47.432910, 29.445312) rotate(-315.000000) translate(-47.432910, -29.445312) "></path>
            </g>
        </g>
    </g>
</svg>