<?xml version="1.0" encoding="UTF-8" standalone="no"?>
<svg width="96px" height="96px" viewBox="0 0 96 96" version="1.1" xmlns="http://www.w3.org/2000/svg" xmlns:xlink="http://www.w3.org/1999/xlink" xmlns:sketch="http://www.bohemiancoding.com/sketch/ns">
    <!-- Generator: Sketch 3.3.3 (12081) - http://www.bohemiancoding.com/sketch -->
    <title>spinner</title>
    <desc>Created with Sketch.</desc>
    <defs></defs>
    <g id="Assets" stroke="none" stroke-width="1" fill="none" fill-rule="evenodd" sketch:type="MSPage">
        <g id="spinner" sketch:type="MSArtboardGroup" fill="#00BCD4">
            <path d="M48,2 C37.0061697,2 26.9131203,5.85670136 19,12.2909558 C18.441013,12.6646475 18.0699997,13.2889963 18.0699997,14 C18.0699997,15.1045695 18.9654302,16 20.0699997,16 C20.4057474,16 20.7221722,15.9172683 21,15.7710787 C21.1039154,15.7400174 21.3484042,15.5383111 21.3657137,15.523576 C28.6138685,9.57231613 37.8897547,6 48,6 C58.1102453,6 67.3861315,9.57231613 74.6342863,15.523576 C74.6515958,15.5383111 74.8960846,15.7400174 75,15.7700005 C75.2778278,15.9172683 75.5942526,16 75.9300003,16 C77.0345698,16 77.9300003,15.1045695 77.9300003,14 C77.9300003,13.2889963 77.558987,12.6646475 77,12.309993 C69.0868797,5.85670136 58.9938303,2 48,2 Z" id="top" sketch:type="MSShapeGroup"></path>
            <path d="M48.1399994,80 C37.1461691,80 27.0531197,83.8567014 19.1399994,90.2909558 C18.5810124,90.6646475 18.2099991,91.2889963 18.2099991,92 C18.2099991,93.1045695 19.1054296,94 20.2099991,94 C20.5457468,94 20.8621716,93.9172683 21.1399994,93.7710787 C21.2439148,93.7400174 21.4884036,93.5383111 21.5057131,93.523576 C28.7538678,87.5723161 38.029754,84 48.1399994,84 C58.2502447,84 67.5261309,87.5723161 74.7742856,93.523576 C74.7915952,93.5383111 75.0360839,93.7400174 75.1399994,93.7700005 C75.4178272,93.9172683 75.7342519,94 76.0699997,94 C77.1745692,94 78.0699997,93.1045695 78.0699997,92 C78.0699997,91.2889963 77.6989864,90.6646475 77.1399994,90.309993 C69.2268791,83.8567014 59.1338297,80 48.1399994,80 Z" id="bottom" sketch:type="MSShapeGroup" transform="translate(48.139999, 87.000000) rotate(-180.000000) translate(-48.139999, -87.000000) "></path>
        </g>
    </g>
</svg>