<?xml version="1.0" standalone="no"?>
<!DOCTYPE svg PUBLIC "-//W3C//DTD SVG 1.1//EN" "http://www.w3.org/Graphics/SVG/1.1/DTD/svg11.dtd">
<svg xmlns="http://www.w3.org/2000/svg">
<metadata>Copyright (C) 2015 by original authors @ fontello.com</metadata>
<defs>
<font id="icons" horiz-adv-x="1000" >
<font-face font-family="icons" font-weight="400" font-stretch="normal" units-per-em="1000" ascent="850" descent="-150" />
<missing-glyph horiz-adv-x="1000" />
<glyph glyph-name="star" unicode="&#xe800;" d="m623 541c9-27 34-45 63-45l256 0c45 0 64-57 27-84l-207-151c-23-17-33-46-24-73l79-245c14-42-35-78-71-52l-207 152c-23 16-55 16-78 0l-207-152c-36-26-85 10-71 52l79 245c9 27-1 56-24 73l-207 151c-37 27-18 84 27 84l256 0c29 0 54 18 63 45l79 245c14 42 74 42 88 0l79-245 0 0z" horiz-adv-x="1000" />
<glyph glyph-name="star-half-fill" unicode="&#xe801;" d="m499 55c-13 0-26-4-38-12l-207-151c-36-27-85 9-71 51l79 245c9 27-1 56-24 73l-207 151c-37 27-18 84 27 84l256 0c29 0 54 18 63 45l79 245c7 21 25 31 43 32l0-763 0 0z m490 394l0 2c0-1 0-2 0-2l0 0z" horiz-adv-x="1000" />
<glyph glyph-name="stats" unicode="&#xe802;" d="m502 736l50 0c17 0 27 14 27 26 0 12-5 25-23 29-18 5-24 8-24 23 0 15-15 25-30 25-14 0-29-10-29-25 0-15-6-18-24-23-18-4-23-17-23-29 0-12 10-26 27-26l49 0 0 0z m360-94c-1 27-23 48-49 48l-625 0c-26 0-48-21-49-48l-8-508c-1-28 21-50 49-50l642 0c28 0 50 23 49 50l-9 508 0 0z m-125-254c0-14-17-21-28-11l-29 29c-7 7-17 7-23 0l-123-122c-8-8-22-8-31 0l-85 86c-6 6-16 6-23 0l-84-84c-11-11-29-11-40 0-11 11-11 29 0 41l119 119c9 9 24 9 33 0l84-84c7-7 17-7 23 0l86 85c6 7 6 17 0 23l-30 30c-10 10-3 28 11 28l115 0c14 0 25-11 25-25l0-115 0 0z m-579-346c-16 0-28-13-28-29 0-15 12-28 28-28l36 0c15 0 26-14 22-28l-15-61c-4-15 5-30 20-34 3-1 5-1 7-1 13 0 25 9 28 21l19 75c4 16 19 28 36 28l378 0c17 0 32-11 37-28l20-74c3-13 14-22 27-22 2 0 5 1 7 2 15 3 24 19 20 34l-16 59c-3 15 7 29 22 29l38 0c16 0 28 13 28 28 0 16-12 29-28 29l-686 0 0 0z" horiz-adv-x="1000" />
<glyph glyph-name="ticket" unicode="&#xe803;" d="m235 270l185-185 339 339-185 185-339-339 0 0z m738 253l-78 79c-15-8-32-13-51-13-58 0-105 47-105 105 0 19 5 36 13 51l-79 78c-20 21-54 21-74 0l-572-572c-21-20-21-54 0-74l78-79c15 8 32 13 51 13 58 0 105-47 105-105 0-19-5-36-13-51l79-78c20-21 54-21 74 0l572 572c21 20 21 54 0 74l0 0z m-553-522l-269 269 423 423 269-269-423-423 0 0z" horiz-adv-x="1000" />
<glyph glyph-name="time" unicode="&#xe804;" d="m500 839c270 0 489-219 489-489 0-270-219-489-489-489-270 0-488 219-488 489 0 270 218 489 488 489l0 0z m362-489c0 200-162 362-362 362-200 0-362-162-362-362 0-200 162-362 362-362 200 0 362 162 362 362l0 0z m-403 197c0 22 19 40 41 40 23 0 41-19 41-42l0-132c1-12 10-20 21-21l192-1c22-1 39-19 39-41 0-21-16-38-37-40l-276 0c-12 1-21 10-21 21l0 216 0 0z" horiz-adv-x="1000" />
<glyph glyph-name="zipped" unicode="&#xe805;" d="m573 822c-11 10-26 17-41 17l-346 0c-34 0-62-28-62-62l0-853c0-35 28-63 62-63l630 0c34 0 62 28 62 63l0 572c0 13-5 26-15 36l-290 290 0 0z m221-857c0-11-9-19-20-19l-547 0c-11 0-20 8-20 19l0 771c0 11 9 20 20 20l54 0c11 0 20-9 20-20l0-41c0-11 9-19 19-19l41 0c11 0 20-9 20-20l0-40c0-11-9-19-20-20l-41 0c-10 0-19-8-19-19l0-41c0-10 9-19 19-19l41 0c11 0 20-9 20-20l0-39c0-11-9-20-20-20l-39 0c-11 0-19-9-19-19l0-285c0-28 22-50 50-50l59 0c27 0 49 22 49 50l0 203c0 13-10 23-22 23l-33 0c-14 0-25 11-25 25l0 33c0 11 9 20 19 20l41 0c11 0 19 8 19 19l0 41c0 11-8 19-19 19l-41 0c-10 0-19 9-19 20l0 40c0 11 9 19 19 19l41 0c11 0 19 9 19 20l0 41c0 10-8 19-19 19l-41 0c-11 0-19 8-19 19l0 41c0 11 9 20 20 20l107 0c27 0 50-23 50-50l-1-165c0-14 12-25 25-25l172 1c22 0 40-18 40-40l0-512 0 0z m-394 257c14 0 25-11 25-24l0-31c0-14-11-25-25-25l-37 0c-14 0-25 11-25 25l0 31c0 13 11 24 25 24l37 0 0 0z" horiz-adv-x="1000" />
<glyph glyph-name="achievement" unicode="&#xe806;" d="m634 230c305 204 341 383 354 526 4 38-29 69-67 65-96-11-265-26-421-26-156 0-325 15-421 26-38 4-71-27-67-65 13-143 49-322 354-526 47-31 75-85 75-141 0-27-18-49-43-56-50-13-126-41-127-85 0-34 75-68 229-68 154 0 229 34 229 68-1 44-77 72-127 85-25 7-43 31-43 57 0 57 28 109 75 140l0 0 0 0z m-407 200c-74 73-131 187-136 293-1 15 12 26 27 24l72-10c24-4 43-24 44-49 2-54 9-141 32-235 6-23-22-40-39-23l0 0 0 0z m508 23c23 94 30 181 32 235 1 25 20 45 44 49l72 10c15 2 28-9 27-24-5-106-62-220-136-293-17-17-45 0-39 23l0 0z" horiz-adv-x="1000" />
<glyph glyph-name="ads" unicode="&#xe807;" d="m912 753c-67 71-120 60-201 17-81-42-238-86-374-86l-151 0c-99 0-174-87-174-179 0-86 68-169 158-178 51-5 87-51 77-101-24-113-54-258-56-271-4-25 23-61 62-61 34-1 77 1 111 1 41-9 90 43 63 89-26 43-39 102-31 143 3 18 13 66 23 116 9 44 52 72 96 62 78-16 150-41 196-65 81-43 134-53 201 17 68 71 77 206 77 248 0 42-9 177-77 248l0 0 0 0z m-104-487c-67 0-121 107-121 240 0 133 54 241 121 241 66 0 120-108 120-241 0-133-54-240-120-240l0 0z m-20 347c29 0 53-48 53-107 0-58-24-106-53-106-30 0-54 48-54 106 0 59 24 107 54 107l0 0z" horiz-adv-x="1000" />
<glyph glyph-name="arrow-down" unicode="&#xe808;" d="m736 384c-34 0-61 27-61 61l0 329c0 36-29 65-64 65l-216 0c-36 0-65-29-65-65l0-329c0-34-27-61-60-61l-138 0c-37 0-58-44-34-73l358-428c24-29 68-29 92 0l358 428c24 29 3 73-35 73l-135 0 0 0z" horiz-adv-x="1000" />
<glyph glyph-name="arrow-left" unicode="&#xe809;" d="m534 116c0 34 27 61 61 61l329 0c36 0 65 29 65 64l0 216c0 36-29 65-65 65l-329 0c-34 0-61 27-61 60l0 138c0 37-44 58-73 34l-428-358c-29-24-29-68 0-92l428-358c29-24 73-3 73 34l0 136 0 0z" horiz-adv-x="1000" />
<glyph glyph-name="arrow-right" unicode="&#xe80a;" d="m466 584c0-34-27-61-61-61l-329 0c-36 0-64-29-64-64l0-216c0-35 28-64 64-64l329 0c34 0 61-27 61-61l0-138c0-37 44-58 73-34l428 358c29 24 29 68 0 92l-428 358c-29 24-73 3-73-34l0-136 0 0z" horiz-adv-x="1000" />
<glyph glyph-name="arrow-up" unicode="&#xe80b;" d="m266 316c34 0 61-27 61-61l0-329c0-36 29-65 64-65l216 0c36 0 65 29 65 65l0 329c0 34 27 61 60 61l138 0c37 0 58 44 34 73l-358 428c-24 29-68 29-92 0l-358-428c-24-29-3-73 35-73l135 0 0 0z" horiz-adv-x="1000" />
<glyph glyph-name="back-arrow" unicode="&#xe80c;" d="m378-59c42-43 115-13 115 47l0 175c0 38 30 68 68 68l309 0c66 0 119 53 119 118l0 3c0 65-53 118-119 118l-309 0c-38 0-68 30-68 68l0 174c0 60-73 90-115 47l-336-335c-41-41-41-107 0-147l336-336 0 0z" horiz-adv-x="1000" />
<glyph glyph-name="badge" unicode="&#xe80d;" d="m621 185c-17 6-32 17-43 31l-39 52c-8 11-12 23-12 36l0 21c0 16 13 30 30 30l74 0c37 0 67 30 67 67l0 350c0 37-30 67-67 67l-264 0c-37 0-67-30-67-67l0-350c0-37 30-67 67-67l75 0c17 0 30-14 30-30l0-23c0-13-4-26-12-36l-38-50c-10-14-25-24-42-31l-85-31c-21-7-29-32-16-50l50-69c11-15 17-34 17-53l1-88c1-23 22-38 43-31l82 26c18 6 38 6 57 0l81-26c21-7 43 9 43 31l1 88c0 19 6 38 18 53l49 69c13 18 5 43-16 50l-84 31 0 0z" horiz-adv-x="1000" />
<glyph glyph-name="calendar" unicode="&#xe80e;" d="m252 604c-28 0-51 23-51 52l0 123c0 29 23 52 51 52 29 0 52-23 52-52l0-123c0-29-23-52-52-52l0 0z m501 0c-29 0-52 23-52 52l0 123c0 29 23 52 52 52 28 0 51-23 51-52l0-123c0-29-23-52-51-52l0 0z m96 58c0-48-33-92-80-100-60-10-112 37-112 95l0 72c0 15-13 28-28 28l-253 0c-15 0-28-13-28-28l0-67c0-48-33-92-80-100-60-10-112 37-112 95l0 72c0 15-12 28-28 28l-48 0c-38 0-68-31-68-68l0-752c0-37 30-68 68-68l840 0c38 0 69 31 69 68l0 752c0 37-31 68-69 68l-43 0c-16 0-28-13-28-28l0-67 0 0z m-719-703c-16 0-29 13-29 29l0 500c0 15 13 28 29 28l739 0c16 0 28-13 28-28l0-500c0-16-12-29-28-29l-739 0 0 0z m252 300c-23 0-41 18-41 40l0 61c0 22 18 40 41 40l60 0c22 0 40-18 40-40l0-61c0-22-18-40-40-40l-60 0 0 0z m175 0c-22 0-40 18-40 40l0 61c0 22 18 40 40 40l60 0c22 0 40-18 40-40l0-61c0-22-18-40-40-40l-60 0 0 0z m175 0c-22 0-40 18-40 40l0 61c0 22 18 40 40 40l60 0c22 0 40-18 40-40l0-61c0-22-18-40-40-40l-60 0 0 0z m-526-175c-22 0-40 18-40 40l0 60c0 22 18 40 40 40l61 0c22 0 40-18 40-40l0-60c0-22-18-40-40-40l-61 0 0 0z m176 0c-23 0-41 18-41 40l0 60c0 22 18 40 41 40l60 0c22 0 40-18 40-40l0-60c0-22-18-40-40-40l-60 0 0 0z m175 0c-22 0-40 18-40 40l0 60c0 22 18 40 40 40l60 0c22 0 40-18 40-40l0-60c0-22-18-40-40-40l-60 0 0 0z m175 0c-22 0-40 18-40 40l0 60c0 22 18 40 40 40l60 0c22 0 40-18 40-40l0-60c0-22-18-40-40-40l-60 0 0 0z" horiz-adv-x="1000" />
<glyph glyph-name="challenge" unicode="&#xe80f;" d="m532-129c-19-13-45-13-64 0-405 275-415 655-412 812 0 23 12 45 33 56 94 51 252 100 411 100 159 0 316-49 411-100 21-11 33-33 33-56l0 0c3-157-7-537-412-812l0 0z m308 815c-77 41-208 71-340 71-132 0-263-30-340-71-14-7-23-22-23-38 0-126 23-448 343-688 12-8 28-9 40 0l0 0c320 238 343 562 343 688 0 16-9 31-23 38l0 0z m-341-365c-15 0-27-14-25-29l25-206c1-9-11-13-16-5l-151 302c-13 27 6 59 36 59l136 0c15 0 27 13 25 28l-25 206c-1 9 12 13 16 5l151-301c14-27-6-59-36-59l-136 0 0 0z" horiz-adv-x="1000" />
<glyph glyph-name="chart" unicode="&#xe810;" d="m900 431c-19 232-217 414-456 407-232-6-426-200-432-432-7-238 173-435 404-455 22-2 40 14 40 35l0 341c0 37 30 67 67 67l341 0c20 0 37 17 36 37l0 0 0 0z m-309-127c-25 0-45-20-45-45l0-357c0-24 21-43 45-41 210 22 376 189 397 398 3 24-16 45-40 45l-357 0 0 0z" horiz-adv-x="1000" />
<glyph glyph-name="chat" unicode="&#xe811;" d="m421 832c-195-31-352-188-385-383-21-123 6-239 66-332 12-19 17-42 11-64l-39-159c-5-22 16-40 36-30l141 68c21 11 46 10 68 1 81-34 173-46 269-28 193 35 347 193 377 387 50 320-223 592-544 540l0 0 0 0z m-94-433c-27 0-48 21-48 48 0 26 21 48 48 48l371 0c26 0 48-22 48-48 0-27-22-48-48-48l-371 0 0 0z m0-194c-27 0-48 22-48 48 0 27 21 49 48 49l265 0c27 0 49-22 49-49 0-26-22-48-49-48l-265 0 0 0z" horiz-adv-x="1000" />
<glyph glyph-name="check" unicode="&#xe812;" d="m966 580c33 33 30 90-10 119-32 23-76 16-104-12l-467-467c-17-17-45-17-62 0l-175 175c-28 27-72 34-104 11-40-29-43-85-10-119l289-288c17-18 45-18 62 0l581 581 0 0z" horiz-adv-x="1000" />
<glyph glyph-name="chevron-left" unicode="&#xe813;" d="m778-106c43 43 45 115 1 159l-254 254c-24 24-24 62 0 86l254 254c44 43 42 115-1 159-44 43-114 43-158 0l-413-413c-24-24-24-62 0-86l413-413c44-43 114-43 158 0l0 0 0 0z" horiz-adv-x="1000" />
<glyph glyph-name="chevron-right" unicode="&#xe814;" d="m222-106c-43 43-45 115-1 159l254 254c24 24 24 62 0 86l-254 254c-44 43-42 115 1 159 44 43 115 43 158 0l413-413c24-24 24-62 0-86l-413-413c-43-43-114-43-158 0l0 0 0 0z" horiz-adv-x="1000" />
<glyph glyph-name="close" unicode="&#xe815;" d="m500 839c-270 0-488-219-488-489 0-270 218-489 488-489 270 0 489 219 489 489 0 270-219 489-489 489l0 0z m163-588c17-17 17-46 0-63l-1-1c-17-17-46-17-63 0l-95 95c-2 2-6 2-8 0l-95-95c-17-17-46-17-63 0l-1 1c-17 17-17 46 0 63l95 95c2 2 2 6 0 8l-95 95c-17 17-17 46 0 63l1 1c17 17 46 17 63 0l95-95c2-2 6-2 8 0l95 95c17 17 46 17 63 0l1-1c17-17 17-46 0-63l-95-95c-2-2-2-6 0-8l95-95 0 0z" horiz-adv-x="1000" />
<glyph glyph-name="cloud" unicode="&#xe816;" d="m859 422c6 40 1 83-20 129-34 70-100 121-177 131-93 12-177-32-223-102-12-18-37-21-54-9-26 18-57 29-91 29-41 0-84-17-113-46-49-51-53-97-48-135 2-16-8-33-23-41-62-34-103-102-98-179 6-103 98-181 201-181l576 0c96 0 182 66 197 161 14 89-33 169-106 204-15 7-23 23-21 39l0 0 0 0z" horiz-adv-x="1000" />
<glyph glyph-name="cloud-upload" unicode="&#xe817;" d="m880 382c-15 7-23 23-20 39 5 40 1 83-21 128-34 70-100 121-177 131-93 12-177-31-223-102-12-17-36-21-54-9-38 27-88 37-141 21-28-8-53-25-72-48-40-46-44-88-40-123 3-17-7-34-23-43-61-34-102-101-97-178 6-103 98-180 201-180l167 0c32 0 58 26 58 58l0 62c0 15-11 26-25 26l-59 0c-16 0-25 19-14 32l153 183c10 13 29 13 40 0l153-183c11-13 2-32-14-32l-59 0c-15 0-26-11-26-26l0-62c0-32 26-58 58-58l144 0c96 0 182 66 197 160 14 90-33 169-106 204l0 0 0 0z" horiz-adv-x="1000" />
<glyph glyph-name="controller" unicode="&#xe818;" d="m728 667c-55 0-138-48-228-48-90 0-173 48-227 48-175 0-253-310-261-505 0-143 90-163 153-87 138 165 172 171 335 171 163 0 198-6 335-171 63-76 154-56 154 87-9 195-87 505-261 505l0 0z m-377-280c-5 0-9-4-9-8l0-26c0-14-12-25-26-24-12 2-21 13-21 25l0 25c0 4-4 8-8 8l-26 0c-14 0-25 12-24 26 2 12 13 21 25 21l25 0c4 0 8 4 8 9l0 26c0 14 12 25 26 23 12-1 21-12 21-25l0-24c0-5 4-9 9-9l24 0c13 0 23-8 25-20 1-14-10-27-23-27l-26 0 0 0z m326-43c-37 0-67 30-67 67 0 37 30 66 67 66 36 0 66-29 66-66 0-37-30-67-66-67l0 0z" horiz-adv-x="1000" />
<glyph glyph-name="credit-card" unicode="&#xe819;" d="m457 818c-28 27-72 27-100 0l-216-216 611-611 216 216c27 28 27 72 0 100l-511 511 0 0z m-37-278c-18-19-47-19-66 0l-44 44c-18 18-18 47 0 66l44 44c19 18 48 18 66 0l44-44c19-19 19-48 0-66l-44-44 0 0z m254-627l-611 611-31-31c-27-28-27-73 0-100l511-511c27-28 72-28 100 0l31 31 0 0z" horiz-adv-x="1000" />
<glyph glyph-name="crown" unicode="&#xe81a;" d="m780 415c-17-21-50-21-68-1l-182 209c-16 18-44 18-59 0l-181-208c-18-20-51-20-69 1l-154 185c-19 23-55 10-55-19l0-448c0-38 30-68 68-68l840 0c38 0 69 30 69 68l0 447c0 29-37 42-56 20l-153-186 0 0z" horiz-adv-x="1000" />
<glyph glyph-name="delete" unicode="&#xe81b;" d="m821 586c28 0 48 26 40 53l-20 75c-4 15-16 25-32 28-16 3-137 14-167 15-13 1-21 12-24 19-2 6-16 37-24 48-4 5-22 15-94 15-72 0-90-10-94-15-8-11-22-42-24-48-2-7-11-18-24-19-30-1-151-12-167-15-16-3-28-13-32-28l-20-75c-8-27 12-53 40-53l642 0 0 0z m-598-77c-25 0-46-22-44-47l47-562c2-22 20-39 42-39l464 0c22 0 39 17 41 39l47 562c2 25-18 47-44 47l-553 0 0 0z" horiz-adv-x="1000" />
<glyph glyph-name="dev-console" unicode="&#xe81c;" d="m12-80c0-32 26-59 59-59l859 0c32 0 59 27 59 59l0 859c0 33-27 60-59 60l-859 0c-33 0-59-27-59-60l0-859 0 0z m105 28c-12 0-22 10-22 22l0 622c0 12 10 21 22 21l765 0c12 0 21-9 21-21l0-622c0-12-9-22-21-22l-765 0 0 0z m140 325c-11-11-30-11-41 0-12 12-12 30 0 42l66 66c6 6 6 16 0 22l-66 66c-12 12-12 30 0 42 11 11 30 11 41 0l108-108c6-6 6-16 0-22l-108-108 0 0z m379 27c0-16-13-29-29-29l-162 0c-16 0-29 13-29 29 0 16 13 30 29 30l162 0c16 0 29-14 29-30l0 0z" horiz-adv-x="1000" />
<glyph glyph-name="dice" unicode="&#xe81d;" d="m888 617c12 4 14 19 3 25-20 12-48 28-74 44-89 53-238 141-250 147-11 6-33 7-45 4-12-3-263-72-409-111-10-3-14-16-6-24l244-242c18-15 30-21 68-8 32 13 148 54 298 107 61 22 131 44 171 58l0 0z m-410 85c32 3 60-10 62-29 2-19-22-38-55-41-32-3-60 10-62 29-2 19 23 38 55 41l0 0 0 0z m-142-794c9-11 26-4 26 9-6 110-18 378-18 429 0 48-8 64-24 80l-231 229c-9 9-25 3-24-10 1-39 4-102 6-158l9-180c1-49 8-74 24-95 108-142 190-250 232-304l0 0 0 0z m586 234c4 100 14 356 15 423-2 18-4 23-32 12-16-6-89-32-173-61-118-42-279-99-297-107-31-14-45-20-45-63 0-61 15-415 17-451 2-34 16-39 39-28 48 21 225 108 333 162l108 53c24 12 34 29 35 60l0 0 0 0z m-768 256c-15-4-32 19-39 51-8 31-2 60 12 63 14 3 32-20 39-51 7-32 2-60-12-63l0 0 0 0z m615 26c22 24 54 31 72 14 18-16 14-48-7-72-22-24-54-31-72-14-18 16-15 48 7 72l0 0 0 0z m-548-189c-14-3-32 20-39 51-7 32-2 60 12 64 15 3 32-20 40-52 7-31 1-59-13-63l0 0 0 0z m295 91c23 23 55 28 72 12 17-17 13-50-10-73-22-23-54-28-72-12-17 17-13 50 10 73l0 0 0 0z m196-132c-22-23-55-29-72-12-17 17-13 49 10 73 22 23 55 28 72 11 17-17 13-49-10-72l0 0 0 0z m130-63c-23-23-55-29-72-12-18 17-13 49 9 73 23 23 55 28 72 11 18-16 13-49-9-72l0 0z m-553-61c-15-3-32 20-39 51-8 32-2 60 12 63 14 4 32-19 39-51 7-31 2-60-12-63l0 0 0 0z m303-58c-23-24-55-29-73-12-17 17-12 49 10 72 23 24 55 29 72 12 18-17 13-49-9-72l0 0 0 0z" horiz-adv-x="1000" />
<glyph glyph-name="doc" unicode="&#xe81e;" d="m107-80c0-32 26-59 59-59l669 0c32 0 59 27 59 59l0 860c0 32-27 59-59 59l-669 0c-33 0-59-27-59-59l0-860 0 0z m119 26c-15 0-28 13-28 29l0 750c0 16 13 29 28 29l558 0c16 0 28-13 28-29l0-750c0-16-12-29-28-29l-558 0 0 0z m471 586c0-21-17-39-39-39l-304 0c-22 0-39 17-39 38 0 22 17 40 39 40l304 0c22 0 39-17 39-39l0 0 0 0z m0-200c0-21-17-40-39-40l-304 0c-22 0-39 18-39 39 0 22 17 40 39 40l304 0c22 0 39-18 39-39l0 0z m-94-197c0-21-18-40-39-40l-210 0c-22 0-39 18-39 39 0 22 17 40 39 40l210 0c21 0 39-17 39-39l0 0 0 0z" horiz-adv-x="1000" />
<glyph glyph-name="edit" unicode="&#xe81f;" d="m870 821c-23 23-61 23-84 0l-87-87c-10-10-10-27 0-37l148-148c10-10 27-10 37 0l87 87c23 23 23 61 0 84l-101 101 0 0z m-203-156c-10 10-27 10-37 0l-484-484c-10-10-10-26 0-37l148-148c11-10 27-10 37 0l484 484c10 10 10 27 0 37l-148 148 0 0z m-549-556c-7 8-20 8-28 0-5-6-75-216-78-224-3-14 9-26 24-23 7 2 217 73 223 78 8 8 8 20 0 28l-141 141 0 0z" horiz-adv-x="1000" />
<glyph glyph-name="female" unicode="&#xe820;" d="m555 222c0 21 13 38 32 44 62 19 119 59 159 120 65 97 64 227-2 323-118 173-368 173-486-1-66-95-66-225-2-322 40-61 97-101 159-120 20-6 32-24 32-44l0-63c0-15-13-28-28-28l-104 0c-16 0-30-13-30-30l0-48c0-16 14-30 30-30l104 0c15 0 28-12 28-28l0-103c0-17 13-31 30-31l48 0c16 0 30 14 30 31l0 103c0 16 12 28 28 28l103 0c17 0 31 14 31 30l0 48c0 17-14 30-31 30l-103 0c-16 0-28 13-28 28l0 63 0 0z m-184 193c-72 72-72 189 0 261 72 72 189 72 261 0 72-72 72-189 0-261-72-72-189-72-261 0l0 0z" horiz-adv-x="1000" />
<glyph glyph-name="folder" unicode="&#xe821;" d="m492 711c-12 23-35 38-61 38l-357 0c-35 0-62-28-62-62l0-673c0-35 27-63 62-63l852 0c35 0 63 28 63 63l0 523c0 35-28 63-63 63l-337 0c-26 0-49 14-61 37l-36 74 0 0z" horiz-adv-x="1000" />
<glyph glyph-name="globe" unicode="&#xe822;" d="m500 839c-270 0-488-219-488-489 0-270 218-489 488-489 270 0 489 219 489 489 0 270-219 489-489 489l0 0z m37-840c-3 34 23 102 74 156 92 95 22 144-67 156-90 12-152-23-173 36-22 60 17 85 30 89 14 5 39 19 80-31 18-17 41-20 41 2-1 21-28 65 1 99 30 35 96 52 93 103-3 51-46 72-97 59-52-13-80-23-94 21-4 9-6 19-9 28-2 12 5 24 17 26 22 4 44 6 67 6 162 0 302-97 364-236 21-47-6-102-56-113l-1-1c-61-13-90-38-21-97 17-11 35-21 51-34 28-21 37-59 22-90-52-108-151-189-270-216-25-6-50 12-52 37l0 0 0 0z m-192 718c7 3 15 0 18-7 6-15-7-32-59-73-66-51-78-95-65-180 13-85 63-87 95-152 31-64 2-119 51-230 21-44 48-71 59-94 6-11-4-25-17-22-185 34-326 196-326 391 0 165 101 306 244 367l0 0z" horiz-adv-x="1000" />
<glyph glyph-name="group" unicode="&#xe823;" d="m632 707c0-72-59-131-132-131-72 0-131 59-131 131 0 73 59 132 131 132 73 0 132-59 132-132l0 0z m-322 94c14-2 23-17 18-30-21-55-14-113 16-160 8-12 2-28-12-33-79-28-161 35-153 120 6 64 65 112 131 103l0 0z m380 0c-14-2-23-17-17-30 21-55 13-113-17-160-8-12-2-28 12-33 79-28 161 35 153 120-6 64-65 112-131 103l0 0z m-429-589c3-37 29-68 64-78 8-2 16-11 16-20l13-139c1-17-12-31-28-31l-77 0c-18 0-32 14-33 31l-18 229c-1 12-10 21-22 21l-14 1c-17 1-30 14-32 30l-19 219c0 29 23 53 53 53l61 0c14 0 23-14 19-27-4-11-6-23-6-35l23-254 0 0z m478 0c-3-37-29-68-64-78-8-2-16-11-16-20l-13-139c-1-17 12-31 28-31l77 0c18 0 32 14 33 31l18 229c1 12 10 21 22 21l14 1c17 1 30 14 32 30l19 219c0 29-23 53-52 53l-62 0c-14 0-23-14-19-27 4-11 6-23 6-35l-23-254 0 0z m-426 5c2-19 18-34 37-35l17 0c13-1 24-11 24-24l20-262c2-20 18-35 38-35l103 0c20 0 36 15 38 35l20 262c1 13 11 23 25 24l16 0c19 1 35 16 36 35l23 249c0 33-27 60-61 60l-298 0c-33 0-60-27-60-60l22-249 0 0z" horiz-adv-x="1000" />
<glyph glyph-name="happy" unicode="&#xe824;" d="m500 839c-269 0-488-220-488-489 0-269 219-489 488-489 269 0 489 220 489 489 0 269-220 489-489 489l0 0z m171-294c39 0 73-34 73-73 0-39-34-73-73-73-39 0-73 34-73 73 0 39 34 73 73 73l0 0z m-342 0c39 0 73-34 73-73 0-39-34-73-73-73-39 0-73 34-73 73 0 39 34 73 73 73l0 0z m171-488c-127 0-234 83-274 195l548 0c-39-112-147-195-274-195l0 0z" horiz-adv-x="1000" />
<glyph glyph-name="heart" unicode="&#xe825;" d="m913 326c116 116 100 325-60 407-67 35-148 36-217 5-53-23-89-59-113-101-10-17-34-17-44 0-22 39-55 73-103 96-82 41-183 36-258-18-130-93-141-275-33-383 105-123 217-237 362-369 31-28 77-29 108-1 115 105 237 225 358 364l0 0 0 0z" horiz-adv-x="1000" />
<glyph glyph-name="help" unicode="&#xe826;" d="m500 839c-269 0-488-220-488-489 0-269 219-489 488-489 269 0 489 220 489 489 0 269-220 489-489 489l0 0z m49-831l-98 0 0 98 98 0 0-98 0 0z m103 376l-44-44c-40-34-59-63-59-137l-98 0 0 25c0 54 20 103 59 137l58 63c20 15 30 39 30 69 0 53-44 97-98 97-54 0-98-44-98-97l-97 0c0 107 88 195 195 195 108 0 195-88 195-195 0-44-19-83-43-113l0 0z" horiz-adv-x="1000" />
<glyph glyph-name="help-alt" unicode="&#xe827;" d="m500 839c-270 0-488-219-488-489 0-270 218-489 488-489 270 0 489 219 489 489 0 270-219 489-489 489l0 0z m-383-308c42 89 114 160 202 202 27 13 60-3 67-32l7-31c5-20-4-42-23-51-61-30-110-79-139-139-10-20-32-30-53-24l-30 8c-29 8-44 40-31 67l0 0 0 0z m498 171c7 28 39 43 66 31 89-42 160-114 202-203 13-27-3-59-32-66l-31-8c-20-5-42 5-51 24-30 60-79 109-139 139-20 9-29 32-24 53l9 30 0 0z m-348-353c0 129 105 234 234 234 129 0 234-105 234-234 0-129-105-234-234-234-129 0-234 105-234 234l0 0z m616-180c-42-89-114-161-202-203-28-13-60 3-67 33l-8 30c-4 21 5 42 24 52 60 29 110 78 139 139 9 20 32 29 53 23l30-8c28-8 44-40 31-66l0 0z m-498-171c-8-29-40-44-66-31-89 42-161 113-203 202-13 27 4 60 33 67l30 7c21 5 43-4 52-23 29-61 78-110 139-139 20-10 29-32 23-53l-8-30 0 0z" horiz-adv-x="1000" />
<glyph glyph-name="home" unicode="&#xe828;" d="m42 503c-17-13-27-34-27-55l0-516c0-39 32-71 71-71l194 0c38 0 70 32 70 71l0 238c0 39 31 70 70 70l161 0c38 0 70-31 70-70l0-238c0-39 31-71 70-71l195 0c39 0 71 32 71 71l0 516c0 21-10 42-27 55l-408 318c-30 23-72 23-102 0l-408-318 0 0z" horiz-adv-x="1000" />
<glyph glyph-name="link" unicode="&#xe829;" d="m936 523c70 69 70 182 0 251l-12 13c-69 69-182 69-251 0l-155-156c-51-50-63-125-37-187 6-16 2-33-10-45l-20-20c-12-12-29-16-45-10-62 26-137 14-187-37l-155-155c-70-69-70-182 0-252l12-12c69-69 182-69 251 0l155 156c51 50 63 125 37 187-6 16-2 34 10 45l20 20c11 12 29 16 45 10 62-26 136-14 187 37l155 155 0 0z m-258-87c-5 4-6 11-4 17 10 20 7 44-10 61-17 17-41 20-61 10-6-2-13-1-17 4-6 6-6 15 0 21l159 160c29 29 76 29 105 0l9-9c29-29 29-76 0-105l-160-159c-6-6-15-6-21 0l0 0z m-356-172c5-4 6-11 3-17-10-20-7-45 10-62 17-17 42-20 62-10 6 3 13 2 17-3 6-5 6-15 1-21l-160-160c-29-29-76-29-105 0l-9 9c-29 29-29 76 0 105l160 159c6 6 15 6 21 0l0 0z" horiz-adv-x="1000" />
<glyph glyph-name="locked" unicode="&#xe82a;" d="m828 429c-31 0-41 16-41 34l0 61c0 174-129 315-288 315-158 0-287-141-287-315l0-61c0-18-7-34-40-34-26 0-46-20-46-45l0-477c0-25 20-46 46-46l656 0c26 0 46 21 46 46l0 477c0 25-20 45-46 45l0 0 0 0z m-144 34c0-18-15-34-34-34l-302 0c-19 0-34 16-34 34l0 74c0 109 83 198 185 198 103 0 185-89 185-198l0-74 0 0z m-147-315c-7-5-11-13-11-22l0-69c0-15-13-27-28-25-14 1-23 13-23 26l0 68c0 9-5 17-12 22-17 12-29 32-29 55 1 35 29 64 63 65 38 2 69-28 69-65 0-23-12-43-29-55l0 0z" horiz-adv-x="1000" />
<glyph glyph-name="logout" unicode="&#xe82b;" d="m164 796c0-23 19-41 42-41l521 0c16 0 29-13 29-29l0-751c0-16-13-29-29-29l-521 0c-23 0-42-19-42-42l0-1c0-23 19-42 42-42l570 0c34 0 62 28 62 62l0 854c0 34-28 62-62 62l-570 0c-23 0-42-19-42-42l0-1 0 0z m282-549c0 16 13 28 28 28l151 0c17 0 30 13 30 30l0 99c0 16-13 29-30 29l-151 0c-15 0-28 13-28 28l0 63c0 17-20 27-33 16l-197-164c-13-11-13-32 0-43l197-164c13-11 33-1 33 16l0 62 0 0z" horiz-adv-x="1000" />
<glyph glyph-name="mail" unicode="&#xe82c;" d="m907 667c26 0 38-34 17-50l-397-303c-16-13-39-13-55 0l-396 303c-21 16-9 50 17 50l814 0 0 0z m36-107c18 15 46 1 46-22l0-447c0-32-26-58-58-58l-862 0c-32 0-57 26-57 58l0 447c0 23 27 37 45 22l402-318c24-19 57-19 81 0l403 318 0 0z" horiz-adv-x="1000" />
<glyph glyph-name="male" unicode="&#xe82d;" d="m654 839c-34 0-51-42-27-66l75-75c13-13 13-35 0-49l-72-71c-18-18-46-23-68-11-74 39-161 54-253 36-146-29-263-148-291-294-50-263 178-491 442-441 145 28 264 145 293 291 18 92 3 179-36 253-12 22-7 50 11 68l71 72c14 13 36 13 49 0l75-75c24-24 66-7 66 27l0 278c0 31-26 57-57 57l-278 0 0 0z m-268-838c-130 0-236 106-236 236 0 130 106 236 236 236 130 0 236-106 236-236 0-130-106-236-236-236l0 0z" horiz-adv-x="1000" />
<glyph glyph-name="market" unicode="&#xe82e;" d="m83 399c-40 0-71 32-71 71l0 297c0 40 31 72 71 72l297 0c39 0 71-32 71-72l0-297c0-39-32-71-71-71l-297 0 0 0z m536 0c-40 0-72 32-72 71l0 297c0 40 32 72 72 72l296 0c40 0 72-32 72-72l0-297c0-39-32-71-72-71l-296 0 0 0z m-536-538c-40 0-71 32-71 72l0 297c0 39 31 71 71 71l297 0c39 0 71-32 71-71l0-297c0-40-32-72-71-72l-297 0 0 0z m536 0c-40 0-72 32-72 72l0 297c0 39 32 71 72 71l296 0c40 0 72-32 72-71l0-297c0-40-32-72-72-72l-296 0 0 0z" horiz-adv-x="1000" />
<glyph glyph-name="menu" unicode="&#xe82f;" d="m75 594c-35 0-63 28-63 64l0 88c0 35 28 64 63 64l850 0c35 0 64-29 64-64l0-88c0-36-29-64-64-64l-850 0 0 0z m0-352c-35 0-63 29-63 64l0 88c0 36 28 64 63 64l850 0c35 0 64-28 64-64l0-88c0-35-29-64-64-64l-850 0 0 0z m0-352c-35 0-63 29-63 64l0 88c0 36 28 64 63 64l850 0c35 0 64-28 64-64l0-88c0-35-29-64-64-64l-850 0 0 0z" horiz-adv-x="1000" />
<glyph glyph-name="music" unicode="&#xe830;" d="m703-31c-51-8-96 32-96 82l0 44c0 58 43 108 101 117l105 15c12 2 22 13 22 26l0 262c0 31-28 55-59 50l-322-53c-35-6-61-36-61-71l0-447c0-57-42-106-98-115l-113-17c-51-7-96 32-96 83l0 43c0 59 43 108 101 117l105 16c12 2 22 13 22 26l0 541c0 35 25 65 60 71l482 79c30 5 58-19 58-50l0-687c0-58-42-106-98-115l-113-17 0 0z" horiz-adv-x="1000" />
<glyph glyph-name="notification" unicode="&#xe831;" d="m500-2c149 0 290 19 356 31 63 11 85 46 85 72 0 38-15 53-39 76-23 23-59 27-65 181-19 367-191 392-230 409-40 16-52 30-59 41-7 11-12 31-48 31-36 0-41-20-48-31-7-11-19-25-59-41-39-17-211-42-230-409-6-154-42-158-65-181-23-23-39-38-39-76 0-26 22-61 85-72 66-12 208-31 356-31l0 0 0 0z m0-137c73 0 113 55 121 66 8 12 4 28-13 28-17 0-62-3-108-3-46 0-91 3-108 3-17 0-21-16-13-28 9-11 48-66 121-66l0 0z" horiz-adv-x="1000" />
<glyph glyph-name="package" unicode="&#xe832;" d="m149 499c-17 10-25 32-17 50l0 1c8 18 28 28 47 23l300-78c18-5 38-2 55 7l350 199c17 10 14 36-5 41l-361 94c-18 5-38 2-55-7l-342-198c-43-24-69-70-69-120l0-394c0-21 11-42 30-53l346-199c16-10 36 2 36 20l0 405c0 18-10 35-25 44l-290 165 0 0z m679 125l-68-40 90-50c14-8 14-28 0-36l-286-163c-16-10-26-27-26-45l0-404c0-18 20-29 36-20l345 199c18 11 30 30 30 51l0 406c0 23-13 44-33 55l-88 47 0 0z" horiz-adv-x="1000" />
<glyph glyph-name="photos" unicode="&#xe833;" d="m837 775c-7 28-34 46-62 39l-723-158c-28-6-45-34-39-62l87-399-20-162c-3-28 17-54 45-58l735-90c28-4 54 16 57 44l71 573c4 28-16 54-45 58l-38 5c-14 1-25 11-28 24l-40 186 0 0z m-445-147c-12 2-13 19-1 22l353 79c14 4 29-6 32-20l25-113c2-9-5-18-15-17l-394 49 0 0z m-299-69c-3 13 5 25 17 28l21 4c9 2 18-5 16-15l-11-91c-2-15-23-16-26-1l-17 75 0 0z m89-520c-14 2-25 15-23 30l56 473c2 15 15 26 30 24l640-76c15-2 26-15 24-30l-56-473c-2-15-15-26-30-24l-641 76 0 0z m640 331c0-30-24-54-54-54-31 0-55 24-55 54 0 30 24 55 55 55 30 0 54-25 54-55l0 0z m-166-102c-8 12-25 14-35 4l-22-21c-12-11-32-9-41 5l-59 90c-10 17-34 20-48 6l-205-196c-13-13-6-35 12-37l499-60c15-2 25 14 17 26l-118 183 0 0z" horiz-adv-x="1000" />
<glyph glyph-name="play" unicode="&#xe834;" d="m876 414c48-29 48-99 0-127l-715-419c-31-18-71 4-71 41l0 882c0 37 40 60 71 41l715-418 0 0z" horiz-adv-x="1000" />
<glyph glyph-name="play-circle" unicode="&#xe835;" d="m500-139c-270 0-488 219-488 489 0 270 218 489 488 489 270 0 489-219 489-489 0-270-219-489-489-489l0 0z m156 510l-298 174c-13 8-29-2-29-17l0-366c0-16 16-25 29-17l298 174c20 11 20 41 0 52l0 0z" horiz-adv-x="1000" />
<glyph glyph-name="refresh" unicode="&#xe836;" d="m909 771c13 13 35 5 38-13l41-297c4-27-19-50-46-46l-298 41c-18 2-25 24-12 37l51 51c18 18 15 48-6 63-142 105-352 76-458-86-67-103-67-240 0-343 115-177 355-195 496-54 46 46 75 103 86 162 9 42 49 69 90 62l2-1c42-7 72-47 64-90-23-119-92-231-207-308-158-105-369-104-525 2-257 175-282 528-74 736 177 177 459 186 646 27 17-14 41-14 57 2l55 55 0 0z" horiz-adv-x="1000" />
<glyph glyph-name="save" unicode="&#xe837;" d="m799 478c0-24-19-42-42-42l-435 0c-23 0-42 18-42 42l0 319c0 23-18 42-42 42l-23 0c-13 0-26-6-35-15l-149-148c-11-12-18-28-18-44l0-708c0-35 28-63 63-63l850 0c35 0 63 28 63 63l0 852c0 35-28 63-63 63l-85 0c-23 0-42-19-42-42l0-319 0 0z m-390 56c-23 0-42 19-42 42l0 221c0 23 19 42 42 42l83 0c23 0 42-19 42-42l0-221c0-23-19-42-42-42l-83 0 0 0z" horiz-adv-x="1000" />
<glyph glyph-name="search" unicode="&#xe838;" d="m739 216c-19 17-23 44-12 66 35 66 51 144 41 227-21 163-150 298-313 324-259 43-481-178-438-438 26-163 160-292 323-313 82-11 160 5 227 40 21 11 48 7 65-11l205-222c36-39 100-36 134 6 29 37 21 91-14 123l-218 198 0 0z m-630 243c0 156 126 282 282 282 156 0 282-126 282-282 0-156-126-282-282-282-156 0-282 126-282 282l0 0z" horiz-adv-x="1000" />
<glyph glyph-name="settings" unicode="&#xe839;" d="m989 387c0 25-20 44-44 44l-12 0c-29 0-53 18-62 45-6 16-12 32-20 47-12 25-8 55 12 75l9 9c17 17 17 45 0 62l-53 53c-17 17-45 17-62 0l-9-9c-20-20-50-25-76-12-15 7-30 13-46 19-27 9-45 33-45 62l0 13c0 24-19 44-44 44l-74 0c-25 0-44-20-44-44l0-15c0-28-18-52-45-61-15-6-30-12-45-19-25-13-56-9-76 11l-10 11c-17 17-45 17-62 0l-53-53c-17-17-17-45 0-62l11-11c20-20 25-50 12-75-7-15-13-30-18-45-9-27-34-45-62-45l-16 0c-24 0-43-19-43-44l0-74c0-24 19-44 43-44l16 0c28 0 53-18 62-45 5-15 11-30 18-44 13-26 8-56-12-76l-11-11c-17-17-17-45 0-62l53-53c17-17 45-17 62 0l10 11c20 20 51 24 76 12 15-8 30-14 45-19 27-10 45-34 45-62l0-15c0-24 19-44 44-44l74 0c25 0 44 20 44 44l0 13c0 29 18 54 45 63 16 5 31 11 46 18 26 13 56 8 76-12l9-9c17-17 45-17 62 0l53 53c17 17 17 45 0 62l-9 9c-20 20-24 50-12 75 8 16 14 31 20 47 9 27 33 45 62 45l12 0c24 0 44 20 44 44l0 74 0 0z m-429-283c-185-41-345 120-304 304 20 93 95 167 188 188 184 41 345-120 304-304-21-92-96-167-188-188l0 0 0 0z" horiz-adv-x="1000" />
<glyph glyph-name="share" unicode="&#xe83a;" d="m393 350c0 18 8 34 23 43l218 130c22 14 49 13 73 3 96-42 206 20 224 121 17 103-61 192-161 192-85 0-156-66-162-151-2-26-14-50-37-64l-204-122c-23-13-50-13-74-2-96 41-206-20-224-121-22-131 108-229 224-179 24 10 50 11 72-2l206-121c22-13 35-38 37-65 6-84 76-151 162-151 100 0 178 90 161 192-18 100-127 163-224 121-23-10-50-10-72 3l-219 129c-15 9-23 27-23 44l0 0 0 0z" horiz-adv-x="1000" />
<glyph glyph-name="smartphone" unicode="&#xe83b;" d="m293 839c-38 0-70-32-70-70l0-838c0-38 32-70 70-70l414 0c39 0 70 32 70 70l0 838c0 38-31 70-70 70l-414 0 0 0z m261-56c12 0 22-10 22-23 0-12-10-22-22-22l-108 0c-12 0-22 10-22 22 0 13 10 23 22 23l108 0 0 0z m146-724c0-23-18-41-40-41l-321 0c-22 0-40 18-40 41l0 583c0 22 18 40 40 40l321 0c22 0 40-18 40-40l0-583 0 0z m-200-161c-25 0-45 21-45 45 0 25 20 45 45 45 25 0 45-20 45-45 0-24-20-45-45-45l0 0z" horiz-adv-x="1000" />
</font>
</defs>
</svg>
