<?xml version="1.0" encoding="UTF-8" standalone="no"?>
<svg width="2023px" height="567px" viewBox="0 0 2023 567" version="1.1" xmlns="http://www.w3.org/2000/svg" xmlns:xlink="http://www.w3.org/1999/xlink" xmlns:sketch="http://www.bohemiancoding.com/sketch/ns">
    <!-- Generator: Sketch 3.3.3 (12081) - http://www.bohemiancoding.com/sketch -->
    <title>combo_games_orange_vector</title>
    <desc>Created with Sketch.</desc>
    <defs></defs>
    <g id="Combined" stroke="none" stroke-width="1" fill="none" fill-rule="evenodd" sketch:type="MSPage">
        <g id="combo_games_orange" sketch:type="MSArtboardGroup">
            <g id="clay-+-io-+-Logo" sketch:type="MSLayerGroup" transform="translate(118.000000, 126.000000)">
                <path d="M560.833142,109.771001 C523.456847,109.771001 500,135.805524 500,168.79977 C500,201.794016 523.456847,227.828539 560.833142,227.828539 C579.134638,227.828539 593.054085,220.868815 600.529344,212.620253 C603.364787,209.527043 604.911392,206.433832 604.911392,202.051784 C604.911392,195.09206 600.013809,190.194476 592.796318,190.194476 C588.672037,190.194476 586.094361,191.225547 583.258918,193.287687 C579.134638,196.380898 572.174914,201.536249 561.090909,201.536249 C541.242808,201.536249 530.932106,186.070196 530.932106,168.79977 C530.932106,151.529344 541.242808,136.063291 561.090909,136.063291 C572.174914,136.063291 579.134638,141.218642 583.258918,144.311853 C586.094361,146.373993 588.672037,147.405063 592.796318,147.405063 C600.013809,147.405063 604.911392,142.50748 604.911392,135.547756 C604.911392,131.165708 603.364787,128.072497 600.529344,124.979287 C593.054085,116.730725 579.134638,109.771001 560.833142,109.771001 L560.833142,109.771001 Z M632.49252,211.331415 C632.49252,219.837745 639.452244,226.797468 647.958573,226.797468 C656.464902,226.797468 663.424626,219.837745 663.424626,211.331415 L663.424626,66.4660529 C663.424626,57.9597238 656.464902,51 647.958573,51 C639.452244,51 632.49252,57.9597238 632.49252,66.4660529 L632.49252,211.331415 Z M811.640967,168.79977 C811.640967,133.485616 788.441887,109.771001 752.096663,109.771001 C717.298044,109.771001 692.294591,133.485616 692.294591,168.79977 C692.294591,201.278481 713.173763,227.828539 748.23015,227.828539 C764.469505,227.828539 775.811277,220.611047 781.739931,210.558113 L781.739931,211.073648 C781.739931,219.322209 786.379747,226.797468 796.690449,226.797468 C806.743383,226.797468 811.640967,219.322209 811.640967,211.073648 L811.640967,168.79977 Z M781.224396,168.79977 C781.224396,186.070196 770.655926,201.020713 752.096663,201.020713 C732.764097,201.020713 722.711162,186.070196 722.711162,168.79977 C722.711162,150.756041 734.310702,136.578826 752.096663,136.578826 C770.398159,136.578826 781.224396,149.982739 781.224396,168.79977 L781.224396,168.79977 Z M911.397008,209.011507 C923.254315,179.626007 933.822785,150.240506 940.266974,130.650173 C940.782509,129.361335 941.298044,127.041427 941.298044,124.979287 C941.298044,117.24626 935.884925,110.802071 927.636364,110.802071 C920.161105,110.802071 916.294591,113.895282 914.747986,119.050633 L890.517837,193.287687 L861.647871,119.050633 C859.585731,113.895282 855.46145,110.802071 848.759494,110.802071 C840.510932,110.802071 834.840046,117.24626 834.840046,124.979287 C834.840046,127.041427 835.355581,128.8458 836.128884,130.650173 L872.989643,221.642117 C867.318757,234.530495 860.874568,240.974684 850.048331,249.481013 C845.150748,253.347526 842.573072,256.698504 842.573072,262.111623 C842.573072,269.071346 849.017261,275 856.49252,275 C859.070196,275 861.390104,274.484465 863.452244,273.195627 C884.589183,260.565017 899.281933,238.912543 911.397008,209.011507 L911.397008,209.011507 Z" id="clay" fill="#FF8A00" sketch:type="MSShapeGroup"></path>
                <path d="M1007.70196,167.482163 C1007.70196,136.807825 1031.1588,116.186421 1060.02877,116.186421 C1088.89873,116.186421 1112.35558,137.065593 1112.35558,167.482163 C1112.35558,197.898734 1088.89873,218.777906 1060.02877,218.777906 C1031.1588,218.777906 1007.70196,198.156502 1007.70196,167.482163 L1007.70196,167.482163 Z M1013.88838,264.918297 C1025.48792,271.104718 1040.43843,275.228999 1060.5443,275.228999 C1101.52934,275.228999 1119.05754,249.194476 1119.05754,215.426928 L1119.05754,114.382048 C1119.05754,112.577675 1117.51093,111.03107 1115.70656,111.03107 C1113.90219,111.03107 1112.35558,112.577675 1112.35558,114.382048 L1112.35558,141.447641 C1103.33372,122.63061 1083.48562,110 1060.02877,110 C1027.03452,110 1001,133.714614 1001,167.482163 C1001,201.249712 1027.03452,224.964327 1060.02877,224.964327 C1083.48562,224.964327 1102.81818,212.591484 1112.35558,193.516686 L1112.35558,216.20023 C1112.35558,245.585731 1097.9206,269.300345 1060.5443,269.300345 C1043.53165,269.300345 1030.12773,266.72267 1016.46605,260.020713 C1015.43498,259.505178 1014.40391,259.247411 1013.37284,259.247411 C1012.084,259.247411 1011.05293,260.278481 1011.05293,261.825086 C1011.05293,263.371692 1012.85731,264.402762 1013.88838,264.918297 L1013.88838,264.918297 Z M1157.20713,169.028769 C1157.20713,201.765247 1182.21059,228.057537 1216.2359,228.057537 C1239.69275,228.057537 1259.02532,215.426928 1268.56272,196.352129 L1268.56272,223.675489 C1268.56272,225.479862 1270.10932,227.026467 1271.91369,227.026467 C1273.71807,227.026467 1275.26467,225.479862 1275.26467,223.675489 L1275.26467,169.028769 C1275.26467,136.29229 1250.26122,110 1216.2359,110 C1182.21059,110 1157.20713,136.29229 1157.20713,169.028769 L1157.20713,169.028769 Z M1163.90909,169.028769 C1163.90909,139.127733 1186.33487,116.186421 1216.2359,116.186421 C1246.13694,116.186421 1268.56272,139.127733 1268.56272,169.028769 C1268.56272,198.929804 1246.13694,221.871116 1216.2359,221.871116 C1186.33487,221.871116 1163.90909,198.929804 1163.90909,169.028769 L1163.90909,169.028769 Z M1510.09091,160.006904 L1510.09091,223.675489 C1510.09091,225.479862 1511.63751,227.026467 1513.44189,227.026467 C1515.24626,227.026467 1516.79287,225.479862 1516.79287,223.675489 L1516.79287,160.264672 C1516.79287,131.652474 1500.55351,110 1469.36364,110 C1449.51554,110 1428.3786,121.857307 1419.35673,142.478711 C1413.68585,123.66168 1398.47756,110 1374.50518,110 C1355.43038,110 1335.32451,120.56847 1327.07595,138.869965 L1327.07595,114.382048 C1327.07595,112.577675 1325.52934,111.03107 1323.72497,111.03107 C1321.9206,111.03107 1320.37399,112.577675 1320.37399,114.382048 L1320.37399,223.675489 C1320.37399,225.479862 1321.9206,227.026467 1323.72497,227.026467 C1325.52934,227.026467 1327.07595,225.479862 1327.07595,223.675489 L1327.07595,160.780207 C1327.07595,135.003452 1349.24396,116.444189 1374.50518,116.444189 C1401.82854,116.444189 1415.23245,135.26122 1415.23245,160.006904 L1415.23245,223.675489 C1415.23245,225.479862 1416.77906,227.026467 1418.58343,227.026467 C1420.3878,227.026467 1421.93441,225.479862 1421.93441,223.675489 L1421.93441,160.780207 C1421.93441,135.776755 1445.13349,116.444189 1469.36364,116.444189 C1496.687,116.444189 1510.09091,135.26122 1510.09091,160.006904 L1510.09091,160.006904 Z M1667.07135,166.966628 C1667.07135,136.034522 1643.09896,110 1611.13579,110 C1578.39931,110 1554.16916,135.776755 1554.16916,169.028769 C1554.16916,201.249712 1578.39931,228.057537 1613.19793,228.057537 C1634.8504,228.057537 1652.3786,217.2313 1662.6893,201.249712 C1663.20483,200.47641 1663.4626,199.703107 1663.4626,198.929804 C1663.4626,197.125432 1661.916,195.836594 1660.11162,195.836594 C1659.08055,195.836594 1658.30725,196.094361 1657.53395,197.383199 C1647.48101,213.10702 1631.49942,222.128884 1613.19793,222.128884 C1583.55466,222.128884 1561.12888,198.672037 1561.12888,170.059839 L1663.72037,170.059839 C1665.78251,170.059839 1667.07135,169.028769 1667.07135,166.966628 L1667.07135,166.966628 Z M1660.62716,164.131185 L1561.38665,164.131185 C1562.93326,137.065593 1583.81243,115.670886 1611.13579,115.670886 C1638.45915,115.670886 1659.59609,138.35443 1660.62716,164.131185 L1660.62716,164.131185 Z M1786.15995,198.929804 C1786.15995,181.917146 1774.56041,173.926352 1743.37054,165.162255 C1719.65593,158.460299 1705.99425,152.789413 1705.99425,137.838895 C1705.99425,121.857307 1721.71807,115.670886 1742.59724,115.670886 C1753.93901,115.670886 1768.11623,119.795167 1776.88032,125.208285 C1777.65362,125.72382 1778.42693,125.981588 1778.94246,125.981588 C1781.0046,125.981588 1782.03567,124.434983 1782.03567,122.888377 C1782.03567,121.857307 1781.52014,121.084005 1780.2313,120.310702 C1768.37399,113.093211 1754.97008,110 1742.59724,110 C1717.33602,110 1699.29229,119.279632 1699.29229,138.096663 C1699.29229,155.109321 1714.75834,163.873418 1743.88608,171.348677 C1768.11623,177.535098 1779.458,184.752589 1779.458,199.187572 C1779.458,212.591484 1766.31185,222.386651 1743.37054,222.386651 C1730.73993,222.386651 1713.21174,216.715765 1702.12773,206.405063 C1701.6122,205.889528 1700.8389,205.373993 1699.80783,205.373993 C1698.00345,205.373993 1696.71461,206.662831 1696.71461,208.467204 C1696.71461,209.240506 1697.23015,210.013809 1697.74568,210.529344 C1709.08746,221.355581 1727.90449,228.057537 1743.37054,228.057537 C1770.43613,228.057537 1786.15995,215.942463 1786.15995,198.929804 L1786.15995,198.929804 Z" id="games" fill="#212121" sketch:type="MSShapeGroup"></path>
                <g id="Logo" sketch:type="MSShapeGroup">
                    <path d="M95.7016106,59.111804 C42.2191265,62.8562181 0,107.426003 0,161.857143 C0,218.738954 46.1154392,264.857143 103.001716,264.857143 L308.998284,264.857143 C365.887895,264.857143 412,218.742472 412,161.857143 C412,107.429515 369.778045,62.8567462 316.298422,59.1118527 C292.565183,23.4785474 252.024446,0 206,0 C159.975575,0 119.434854,23.478526 95.7016106,59.111804 Z" id="Cloud" fill="#FAFAFA"></path>
                    <path d="M96.7292712,73.7901594 L96.7292712,73.7901594 C50.6795968,77.0141878 14.7142857,115.429254 14.7142857,161.857143 C14.7142857,210.623853 54.2372635,250.142857 103.001716,250.142857 L308.998284,250.142857 C357.760249,250.142857 397.285714,210.617167 397.285714,161.857143 C397.285714,115.422628 361.322822,77.0138108 315.270862,73.7901296 C310.722769,73.4717587 306.579168,71.0630802 304.051807,67.2684839 C282.347543,34.6815581 245.880236,14.7142857 206,14.7142857 C166.119749,14.7142857 129.652429,34.6815738 107.948169,67.2685204 C105.420839,71.0630721 101.277307,73.4717425 96.7292712,73.7901594 L96.7292712,73.7901594 Z M95.7016106,59.111804 L95.7016106,59.111804 L95.7016106,59.111804 C119.434854,23.478526 159.975575,0 206,0 C252.024407,0 292.565115,23.4785079 316.298362,59.1117629 C369.778014,62.8553897 412,107.41416 412,161.857143 C412,218.742472 365.887895,264.857143 308.998284,264.857143 L103.001716,264.857143 C46.1154392,264.857143 0,218.75498 0,161.857143 C0,107.426003 42.2191265,62.8562181 95.7016106,59.111804 L95.7016106,59.111804 Z" id="Outline" fill="#212121"></path>
                    <path d="M69.8928571,136.107143 L55.1373625,136.107143 C49.0699828,136.107143 44.1428571,141.033525 44.1428571,147.110526 L44.1428571,147.175188 C44.1428571,153.252784 49.0652649,158.178571 55.1373625,158.178571 L69.8928571,158.178571 L69.8928571,172.934066 C69.8928571,179.001446 74.8192396,183.928571 80.8962403,183.928571 L80.9609026,183.928571 C87.0384979,183.928571 91.9642857,179.006164 91.9642857,172.934066 L91.9642857,158.178571 L106.71978,158.178571 C112.78716,158.178571 117.714286,153.252189 117.714286,147.175188 L117.714286,147.110526 C117.714286,141.032931 112.791878,136.107143 106.71978,136.107143 L91.9642857,136.107143 L91.9642857,121.351648 C91.9642857,115.284269 87.0379033,110.357143 80.9609026,110.357143 L80.8962403,110.357143 C74.818645,110.357143 69.8928571,115.279551 69.8928571,121.351648 L69.8928571,136.107143 Z" id="Dpad" fill="#212121"></path>
                    <path d="M161.857143,228.071429 C178.110094,228.071429 191.285714,214.895808 191.285714,198.642857 C191.285714,182.389906 178.110094,169.214286 161.857143,169.214286 C145.604192,169.214286 132.428571,182.389906 132.428571,198.642857 C132.428571,214.895808 145.604192,228.071429 161.857143,228.071429 Z M250.142857,228.071429 C266.395808,228.071429 279.571429,214.895808 279.571429,198.642857 C279.571429,182.389906 266.395808,169.214286 250.142857,169.214286 C233.889906,169.214286 220.714286,182.389906 220.714286,198.642857 C220.714286,214.895808 233.889906,228.071429 250.142857,228.071429 Z" id="Joysticks" fill="#212121"></path>
                    <path d="M305.321429,158.178571 C311.416285,158.178571 316.357143,153.237714 316.357143,147.142857 C316.357143,141.048 311.416285,136.107143 305.321429,136.107143 C299.226572,136.107143 294.285714,141.048 294.285714,147.142857 C294.285714,153.237714 299.226572,158.178571 305.321429,158.178571 Z M331.071429,132.428571 C337.166285,132.428571 342.107143,127.487714 342.107143,121.392857 C342.107143,115.298 337.166285,110.357143 331.071429,110.357143 C324.976572,110.357143 320.035714,115.298 320.035714,121.392857 C320.035714,127.487714 324.976572,132.428571 331.071429,132.428571 Z M356.821429,158.178571 C362.916285,158.178571 367.857143,153.237714 367.857143,147.142857 C367.857143,141.048 362.916285,136.107143 356.821429,136.107143 C350.726572,136.107143 345.785714,141.048 345.785714,147.142857 C345.785714,153.237714 350.726572,158.178571 356.821429,158.178571 Z M331.071429,183.928571 C337.166285,183.928571 342.107143,178.987714 342.107143,172.892857 C342.107143,166.798 337.166285,161.857143 331.071429,161.857143 C324.976572,161.857143 320.035714,166.798 320.035714,172.892857 C320.035714,178.987714 324.976572,183.928571 331.071429,183.928571 Z" id="Buttons" fill="#212121"></path>
                </g>
            </g>
        </g>
    </g>
</svg>