<?xml version="1.0" encoding="utf-8"?>
<!-- Generator: Adobe Illustrator 18.0.0, SVG Export Plug-In . SVG Version: 6.00 Build 0)  -->
<!DOCTYPE svg PUBLIC "-//W3C//DTD SVG 1.1//EN" "http://www.w3.org/Graphics/SVG/1.1/DTD/svg11.dtd">
<svg version="1.1" id="Layer_1" xmlns="http://www.w3.org/2000/svg" xmlns:xlink="http://www.w3.org/1999/xlink" x="0px" y="0px"
	 viewBox="9.7 325.1 591.2 141.8" enable-background="new 9.7 325.1 591.2 141.8" xml:space="preserve">
<g id="Rounded_Rectangle_1_3_" enable-background="new    ">
	<g id="Rounded_Rectangle_1">
		<g>
			<path fill="#404040" d="M173,358.6c-12.6-20.1-34.8-33.5-60.2-33.5s-47.7,13.4-60.2,33.5C28,364.1,9.7,386,9.7,412.1
				c0,30.3,24.5,54.8,54.8,54.8h96.6c30.3,0,54.8-24.5,54.8-54.8C215.8,386,197.5,364.1,173,358.6z"/>
		</g>
	</g>
</g>
<g id="Rounded_Rectangle_1_2_" enable-background="new    ">
	<g id="Rounded_Rectangle_1_1_">
		<g>
			<path fill="#FFFFFF" d="M168.9,364.4c-11.1-19.6-32-32.9-56.2-32.9s-45.1,13.2-56.2,32.9c-22.9,3.7-40.4,23.7-40.4,47.7
				c0,26.7,21.6,48.3,48.3,48.3H161c26.7,0,48.3-21.6,48.3-48.3C209.4,388.1,191.8,368.1,168.9,364.4z"/>
		</g>
	</g>
</g>
<g id="Buttons_1_" enable-background="new    ">
	<g id="Buttons">
		<g>
			<path fill="#404040" d="M177.2,383.1c-3.5,0-6.4,2.9-6.4,6.4s2.9,6.4,6.4,6.4s6.4-2.9,6.4-6.4C183.6,386,180.7,383.1,177.2,383.1
				z M164.3,396c-3.5,0-6.4,2.9-6.4,6.4s2.9,6.4,6.4,6.4s6.4-2.9,6.4-6.4C170.6,398.9,167.7,396,164.3,396z M190.2,396
				c-3.5,0-6.4,2.9-6.4,6.4s2.9,6.4,6.4,6.4s6.4-2.9,6.4-6.4C196.5,398.9,193.6,396,190.2,396z M177.2,409c-3.5,0-6.4,2.9-6.4,6.4
				s2.9,6.4,6.4,6.4s6.4-2.9,6.4-6.4S180.7,409,177.2,409z"/>
		</g>
	</g>
</g>
<g id="Left_1_" enable-background="new    ">
	<g id="Left">
		<g>
			<circle fill="#404040" cx="87" cy="431.4" r="16.1"/>
		</g>
	</g>
</g>
<g id="Right_1_" enable-background="new    ">
	<g id="Right">
		<g>
			<circle fill="#404040" cx="138.5" cy="431.4" r="16.1"/>
		</g>
	</g>
</g>
<g id="D-Pad_1_" enable-background="new    ">
	<g id="D-Pad">
		<g>
			<path fill="#404040" d="M61.2,396h-6.4v-6.4c0-3.5-2.9-6.4-6.4-6.4s-6.4,2.9-6.4,6.4v6.4h-6.4c-3.5,0-6.4,2.9-6.4,6.4
				s2.9,6.4,6.4,6.4H42v6.4c0,3.5,2.9,6.4,6.4,6.4s6.4-2.9,6.4-6.4v-6.4h6.4c3.5,0,6.4-2.9,6.4-6.4S64.7,396,61.2,396z"/>
		</g>
	</g>
</g>
<g id="clay_1_" enable-background="new    ">
	<g id="clay">
		<g>
			<path fill="#FFFFFF" d="M289.7,390c5,0,9.8,1,13.9,3.1l6.1-13.9c-5.8-3.5-12.6-4.7-20-4.7c-23,0-32.2,11.3-32.2,35.6
				s9.2,35.6,32.2,35.6c7.4,0,14.2-1.1,20-4.7l-6.1-13.9c-4.2,2.1-8.9,3.1-13.9,3.1c-11.3,0-13.2-7.4-13.2-20.3
				C276.5,397.1,278.3,390,289.7,390z M335.6,351.9l-18.8,2.3v67c0,8.7,0.3,17.1,2.9,23.4h17.7c-1.6-6.1-1.6-15.1-1.6-22.1V352
				L335.6,351.9L335.6,351.9z M405.9,401.5c0-16.3-10.8-26.7-28.7-26.7c-10.1,0-19.3,1.8-27.4,6.4l5.6,13.9c6-2.9,12.4-4.7,18.8-4.7
				c7.4,0,12.4,2.4,12.9,12.2c-32.9,1.9-40.9,9-40.9,22.2c0,12.7,6.8,20.9,23.8,20.9c10.1,0,15.9-3.9,19.6-10.1
				c0.8,3.4,1.9,6.8,3.2,10l14.7-3.5c-1.6-7.7-1.8-15.9-1.8-23.8v-16.8H405.9z M387,422.3c-2.6,5.5-5.8,9-12.2,9
				c-7.4,0-9.8-2.1-9.8-7.1c0-5.5,5.8-8.4,22.1-9.3L387,422.3L387,422.3z M455.9,375.2l-13.7,53.3l-13.4-53.3l-20.3,2.9l22.1,64.6
				c-2.6,5.5-7.4,9-14.3,11.6l7.6,12.2c18-5.5,26.7-17.7,31.4-31.7l19.2-57.7L455.9,375.2z"/>
		</g>
	</g>
</g>
<g id="_x2E_io_1_" enable-background="new    ">
	<g id="_x2E_io">
		<g>
			<path fill="#67AFE6" d="M483.3,422.7c-7.4,0-11.4,3.9-11.4,11.3s4,11.3,11.4,11.3s11.4-3.9,11.4-11.3S490.7,422.7,483.3,422.7z
				 M526,376.4l-18.8,2.3v42.5c0,8.7,0.3,17.1,2.9,23.4h17.7c-1.6-6.1-1.6-15.1-1.6-22.1v-46.1L526,376.4L526,376.4z M516.5,349.5
				c-6.9,0-11.1,2.9-11.1,9.5c0,6.8,4.2,9.5,11.1,9.5c6.9,0,11.1-2.7,11.1-9.5C527.6,352.4,523.6,349.5,516.5,349.5z M568.7,374.7
				c-23,0-32.2,11.3-32.2,35.6c0,24.3,9.2,35.6,32.2,35.6s32.2-11.3,32.2-35.6S591.9,374.7,568.7,374.7z M568.7,430.8
				c-11.3,0-13.2-7.7-13.2-20.5c0-12.7,1.9-20.5,13.2-20.5s13.2,7.7,13.2,20.5C581.9,423.1,580.1,430.8,568.7,430.8z"/>
		</g>
	</g>
</g>
</svg>
