<?xml version="1.0" encoding="utf-8"?>
<!-- Generator: Adobe Illustrator 18.1.1, SVG Export Plug-In . SVG Version: 6.00 Build 0)  -->
<!DOCTYPE svg PUBLIC "-//W3C//DTD SVG 1.0//EN" "http://www.w3.org/TR/2001/REC-SVG-20010904/DTD/svg10.dtd">
<svg version="1.0" id="Layer_1" xmlns="http://www.w3.org/2000/svg" xmlns:xlink="http://www.w3.org/1999/xlink" x="0px" y="0px"
	 viewBox="18.6 269.4 612.2 536.3" enable-background="new 18.6 269.4 612.2 536.3" xml:space="preserve">
<g id="Rounded_Rectangle_1_3_" enable-background="new    ">
	<g id="Rounded_Rectangle_1">
		<g>
			<path fill="#404040" d="M430.7,329.1c-22.4-35.8-62-59.7-107.4-59.7s-85,23.9-107.4,59.7c-43.7,9.8-76.3,48.8-76.3,95.3
				c0,54,43.7,97.6,97.6,97.6h172.3c54,0,97.6-43.7,97.6-97.6C507,377.8,474.2,338.8,430.7,329.1z"/>
		</g>
	</g>
</g>
<g id="Rounded_Rectangle_1_2_" enable-background="new    ">
	<g id="Rounded_Rectangle_1_1_">
		<g>
			<path fill="#FFFFFF" d="M423.4,339.4c-19.8-35-57.1-58.5-100.2-58.5s-80.4,23.5-100.2,58.5c-40.8,6.6-72.1,42.2-72.1,85
				c0,47.7,38.5,86.1,86.1,86.1h172.3c47.7,0,86.1-38.5,86.1-86.1C495.5,381.6,464.3,346,423.4,339.4z"/>
		</g>
	</g>
</g>
<g id="Buttons_1_" enable-background="new    ">
	<g id="Buttons">
		<g>
			<path fill="#404040" d="M438.1,372.7c-6.4,0-11.4,5.2-11.4,11.4c0,6.3,5.2,11.4,11.4,11.4c6.4,0,11.4-5.2,11.4-11.4
				C449.5,377.8,444.4,372.7,438.1,372.7z M415.2,395.7c-6.4,0-11.4,5.2-11.4,11.4c0,6.4,5.2,11.4,11.4,11.4s11.4-5.2,11.4-11.4
				C426.3,400.9,421.1,395.7,415.2,395.7z M461.4,395.7c-6.4,0-11.4,5.2-11.4,11.4c0,6.4,5.2,11.4,11.4,11.4
				c6.4,0,11.4-5.2,11.4-11.4C472.5,400.9,467.3,395.7,461.4,395.7z M438.1,418.9c-6.4,0-11.4,5.2-11.4,11.4
				c0,6.4,5.2,11.4,11.4,11.4c6.4,0,11.4-5.2,11.4-11.4C449.6,424.1,444.4,418.9,438.1,418.9z"/>
		</g>
	</g>
</g>
<g id="Left_1_" enable-background="new    ">
	<g id="Left">
		<g>
			<circle fill="#404040" cx="277.4" cy="458.8" r="28.7"/>
		</g>
	</g>
</g>
<g id="Right_1_" enable-background="new    ">
	<g id="Right">
		<g>
			<circle fill="#404040" cx="369.2" cy="458.8" r="28.7"/>
		</g>
	</g>
</g>
<g id="D-Pad_1_" enable-background="new    ">
	<g id="D-Pad">
		<g>
			<path fill="#404040" d="M231.4,395.7h-11.4v-11.4c0-6.4-5.2-11.4-11.4-11.4c-6.4,0-11.4,5.2-11.4,11.4v11.4h-11.6
				c-6.4,0-11.4,5.2-11.4,11.4c0,6.4,5.2,11.4,11.4,11.4h11.4V430c0,6.4,5.2,11.4,11.4,11.4c6.4,0,11.4-5.2,11.4-11.4v-11.4h11.4
				c6.4,0,11.4-5.2,11.4-11.4C242.9,400.9,237.7,395.7,231.4,395.7z"/>
		</g>
	</g>
</g>
<g id="clay_1_" enable-background="new    ">
	<g id="clay">
		<g>
			<path fill="#414141" d="M76.1,669.3c8.9,0,17.5,1.7,24.7,5.4l10.9-24.7c-10.3-6.4-22.4-8.4-35.6-8.4c-41,0-57.5,20.1-57.5,63.4
				c0,43.4,16.3,63.4,57.5,63.4c13.3,0,25.2-2,35.6-8.4l-10.9-24.7c-7.4,3.7-15.8,5.4-24.7,5.4c-20.1,0-23.5-13.3-23.5-36.1
				C52.5,681.9,55.7,669.3,76.1,669.3z M157.9,601.2l-33.6,4v119.5c0,15.5,0.5,30.4,5.2,41.7h31.6c-2.9-10.9-2.9-27-2.9-39.3V601.2
				H157.9z M283.1,689.6c0-29-19.2-47.7-51.1-47.7c-18.1,0-34.5,3.2-48.8,11.4l10.1,24.7c10.6-5.2,22.2-8.4,33.6-8.4
				c13.3,0,22.2,4.3,23,21.8c-58.5,3.4-72.9,16.1-72.9,39.6c0,22.7,12.1,37.3,42.5,37.3c18.1,0,28.4-6.9,35-18.1
				c1.5,6,3.4,12.1,5.7,17.8l26.1-6.4c-2.9-13.8-3.2-28.4-3.2-42.5V689.6L283.1,689.6z M249.5,726.6c-4.6,9.8-10.3,16.1-21.8,16.1
				c-13.3,0-17.5-3.7-17.5-12.6c0-9.8,10.3-14.9,39.3-16.6V726.6z M372.4,642.9l-24.4,95l-23.9-95l-36.1,5.2l39.3,115.1
				c-4.6,9.8-13.3,16.1-25.5,20.7l13.5,21.8c32.1-9.8,47.7-31.6,56-56.5l34.1-102.7L372.4,642.9z"/>
		</g>
	</g>
</g>
<g id="_x2E_io_1_" enable-background="new    ">
	<g id="_x2E_io">
		<g>
			<path fill="#008AFF" d="M421.1,727.5c-13.3,0-20.4,6.9-20.4,20.1s7.2,20.1,20.4,20.1c13.3,0,20.4-6.9,20.4-20.1
				C441.6,734.4,434.4,727.5,421.1,727.5z M497.2,644.9l-33.6,4v75.8c0,15.5,0.5,30.4,5.2,41.7h31.6c-2.9-10.9-2.9-27-2.9-39.3V645
				h-0.3V644.9z M480.3,596.9c-12.3,0-19.8,5.2-19.8,17c0,12.1,7.4,17,19.8,17c12.3,0,19.8-4.9,19.8-17
				C500.1,602.1,492.9,596.9,480.3,596.9z M573.3,641.9c-41,0-57.5,20.1-57.5,63.4c0,43.4,16.3,63.4,57.5,63.4
				c41,0,57.5-20.1,57.5-63.4C630.7,662.1,614.7,641.9,573.3,641.9z M573.3,741.9c-20.1,0-23.5-13.8-23.5-36.5s3.4-36.5,23.5-36.5
				s23.5,13.8,23.5,36.5C596.9,728.1,593.7,741.9,573.3,741.9z"/>
		</g>
	</g>
</g>
</svg>
