<?xml version="1.0" encoding="UTF-8" standalone="no"?>
<svg width="678px" height="733px" viewBox="0 0 678 733" version="1.1" xmlns="http://www.w3.org/2000/svg" xmlns:xlink="http://www.w3.org/1999/xlink" xmlns:sketch="http://www.bohemiancoding.com/sketch/ns">
    <!-- Generator: Sketch 3.3.3 (12081) - http://www.bohemiancoding.com/sketch -->
    <title>combo_vert_orange_vector</title>
    <desc>Created with Sketch.</desc>
    <defs></defs>
    <g id="Combined" stroke="none" stroke-width="1" fill="none" fill-rule="evenodd" sketch:type="MSPage">
        <g id="combo_vert_orange" sketch:type="MSArtboardGroup">
            <path d="M178.833142,449.771001 C141.456847,449.771001 118,475.805524 118,508.79977 C118,541.794016 141.456847,567.828539 178.833142,567.828539 C197.134638,567.828539 211.054085,560.868815 218.529344,552.620253 C221.364787,549.527043 222.911392,546.433832 222.911392,542.051784 C222.911392,535.09206 218.013809,530.194476 210.796318,530.194476 C206.672037,530.194476 204.094361,531.225547 201.258918,533.287687 C197.134638,536.380898 190.174914,541.536249 179.090909,541.536249 C159.242808,541.536249 148.932106,526.070196 148.932106,508.79977 C148.932106,491.529344 159.242808,476.063291 179.090909,476.063291 C190.174914,476.063291 197.134638,481.218642 201.258918,484.311853 C204.094361,486.373993 206.672037,487.405063 210.796318,487.405063 C218.013809,487.405063 222.911392,482.50748 222.911392,475.547756 C222.911392,471.165708 221.364787,468.072497 218.529344,464.979287 C211.054085,456.730725 197.134638,449.771001 178.833142,449.771001 L178.833142,449.771001 Z M250.49252,551.331415 C250.49252,559.837745 257.452244,566.797468 265.958573,566.797468 C274.464902,566.797468 281.424626,559.837745 281.424626,551.331415 L281.424626,406.466053 C281.424626,397.959724 274.464902,391 265.958573,391 C257.452244,391 250.49252,397.959724 250.49252,406.466053 L250.49252,551.331415 Z M429.640967,508.79977 C429.640967,473.485616 406.441887,449.771001 370.096663,449.771001 C335.298044,449.771001 310.294591,473.485616 310.294591,508.79977 C310.294591,541.278481 331.173763,567.828539 366.23015,567.828539 C382.469505,567.828539 393.811277,560.611047 399.739931,550.558113 L399.739931,551.073648 C399.739931,559.322209 404.379747,566.797468 414.690449,566.797468 C424.743383,566.797468 429.640967,559.322209 429.640967,551.073648 L429.640967,508.79977 Z M399.224396,508.79977 C399.224396,526.070196 388.655926,541.020713 370.096663,541.020713 C350.764097,541.020713 340.711162,526.070196 340.711162,508.79977 C340.711162,490.756041 352.310702,476.578826 370.096663,476.578826 C388.398159,476.578826 399.224396,489.982739 399.224396,508.79977 L399.224396,508.79977 Z M529.397008,549.011507 C541.254315,519.626007 551.822785,490.240506 558.266974,470.650173 C558.782509,469.361335 559.298044,467.041427 559.298044,464.979287 C559.298044,457.24626 553.884925,450.802071 545.636364,450.802071 C538.161105,450.802071 534.294591,453.895282 532.747986,459.050633 L508.517837,533.287687 L479.647871,459.050633 C477.585731,453.895282 473.46145,450.802071 466.759494,450.802071 C458.510932,450.802071 452.840046,457.24626 452.840046,464.979287 C452.840046,467.041427 453.355581,468.8458 454.128884,470.650173 L490.989643,561.642117 C485.318757,574.530495 478.874568,580.974684 468.048331,589.481013 C463.150748,593.347526 460.573072,596.698504 460.573072,602.111623 C460.573072,609.071346 467.017261,615 474.49252,615 C477.070196,615 479.390104,614.484465 481.452244,613.195627 C502.589183,600.565017 517.281933,578.912543 529.397008,549.011507 L529.397008,549.011507 Z" id="clay" fill="#FF8A00" sketch:type="MSShapeGroup"></path>
            <g id="Logo" sketch:type="MSLayerGroup" transform="translate(173.000000, 118.000000)">
                <path d="M77.1187736,47.6337838 C34.0212378,50.6511272 0,86.5665853 0,130.428571 C0,176.26537 37.160985,213.428571 83.0013831,213.428571 L248.998617,213.428571 C294.841702,213.428571 332,176.268206 332,130.428571 C332,86.5694151 297.976483,50.6515527 254.881253,47.6338231 C235.756409,18.9196061 203.08766,0 166,0 C128.912357,0 96.2436204,18.9195889 77.1187736,47.6337838 Z" id="Cloud" fill="#FAFAFA" sketch:type="MSShapeGroup"></path>
                <path d="M77.9468884,59.4619731 L77.9468884,59.4619731 C40.8388984,62.0599766 11.8571429,93.0158068 11.8571429,130.428571 C11.8571429,169.726018 43.705756,201.571429 83.0013831,201.571429 L248.998617,201.571429 C288.29224,201.571429 320.142857,169.72063 320.142857,130.428571 C320.142857,93.0104674 291.163051,62.0596728 254.053219,59.4619491 C250.388251,59.2053978 247.049232,57.2644239 245.012621,54.2066424 C227.522777,27.947275 198.136501,11.8571429 166,11.8571429 C133.863487,11.8571429 104.4772,27.9472876 86.9873591,54.2066718 C84.9507735,57.2644174 81.6118101,59.2053847 77.9468884,59.4619731 L77.9468884,59.4619731 Z M77.1187736,47.6337838 L77.1187736,47.6337838 L77.1187736,47.6337838 C96.2436204,18.9195889 128.912357,0 166,0 C203.087629,0 235.756354,18.9195743 254.881204,47.6337507 C297.976458,50.6504597 332,86.5570418 332,130.428571 C332,176.268206 294.841702,213.428571 248.998617,213.428571 L83.0013831,213.428571 C37.160985,213.428571 0,176.278285 0,130.428571 C0,86.5665853 34.0212378,50.6511272 77.1187736,47.6337838 L77.1187736,47.6337838 Z" id="Outline" fill="#212121" sketch:type="MSShapeGroup"></path>
                <path d="M56.3214286,109.678571 L44.4631303,109.678571 C39.553389,109.678571 35.5714286,113.660039 35.5714286,118.571429 C35.5714286,123.472824 39.5523791,127.464286 44.4631303,127.464286 L56.3214286,127.464286 L56.3214286,139.322584 C56.3214286,144.232325 60.3028963,148.214286 65.2142857,148.214286 C70.1156814,148.214286 74.1071429,144.233335 74.1071429,139.322584 L74.1071429,127.464286 L85.9654411,127.464286 C90.8751824,127.464286 94.8571429,123.482818 94.8571429,118.571429 C94.8571429,113.670033 90.8761924,109.678571 85.9654411,109.678571 L74.1071429,109.678571 L74.1071429,97.8202732 C74.1071429,92.9105319 70.1256751,88.9285714 65.2142857,88.9285714 C60.31289,88.9285714 56.3214286,92.9095219 56.3214286,97.8202732 L56.3214286,109.678571 Z" id="Dpad" fill="#212121" sketch:type="MSShapeGroup"></path>
                <path d="M130.428571,183.785714 C143.52561,183.785714 154.142857,173.168467 154.142857,160.071429 C154.142857,146.97439 143.52561,136.357143 130.428571,136.357143 C117.331533,136.357143 106.714286,146.97439 106.714286,160.071429 C106.714286,173.168467 117.331533,183.785714 130.428571,183.785714 Z M201.571429,183.785714 C214.668467,183.785714 225.285714,173.168467 225.285714,160.071429 C225.285714,146.97439 214.668467,136.357143 201.571429,136.357143 C188.47439,136.357143 177.857143,146.97439 177.857143,160.071429 C177.857143,173.168467 188.47439,183.785714 201.571429,183.785714 Z" id="Joysticks" fill="#212121" sketch:type="MSShapeGroup"></path>
                <path d="M246.035714,127.464286 C250.947104,127.464286 254.928571,123.482818 254.928571,118.571429 C254.928571,113.660039 250.947104,109.678571 246.035714,109.678571 C241.124325,109.678571 237.142857,113.660039 237.142857,118.571429 C237.142857,123.482818 241.124325,127.464286 246.035714,127.464286 Z M266.785714,106.714286 C271.697104,106.714286 275.678571,102.732818 275.678571,97.8214286 C275.678571,92.9100392 271.697104,88.9285714 266.785714,88.9285714 C261.874325,88.9285714 257.892857,92.9100392 257.892857,97.8214286 C257.892857,102.732818 261.874325,106.714286 266.785714,106.714286 Z M287.535714,127.464286 C292.447104,127.464286 296.428571,123.482818 296.428571,118.571429 C296.428571,113.660039 292.447104,109.678571 287.535714,109.678571 C282.624325,109.678571 278.642857,113.660039 278.642857,118.571429 C278.642857,123.482818 282.624325,127.464286 287.535714,127.464286 Z M266.785714,148.214286 C271.697104,148.214286 275.678571,144.232818 275.678571,139.321429 C275.678571,134.410039 271.697104,130.428571 266.785714,130.428571 C261.874325,130.428571 257.892857,134.410039 257.892857,139.321429 C257.892857,144.232818 261.874325,148.214286 266.785714,148.214286 Z" id="Buttons" fill="#212121" sketch:type="MSShapeGroup"></path>
            </g>
        </g>
    </g>
</svg>