<?xml version="1.0" encoding="utf-8"?>
<!-- Generator: Adobe Illustrator 18.1.1, SVG Export Plug-In . SVG Version: 6.00 Build 0)  -->
<!DOCTYPE svg PUBLIC "-//W3C//DTD SVG 1.0//EN" "http://www.w3.org/TR/2001/REC-SVG-20010904/DTD/svg10.dtd">
<svg version="1.0" id="Layer_1" xmlns="http://www.w3.org/2000/svg" xmlns:xlink="http://www.w3.org/1999/xlink" x="0px" y="0px"
	 viewBox="0 322.7 612 146.8" enable-background="new 0 322.7 612 146.8" xml:space="preserve">
<g id="Rounded_Rectangle_1_3_" enable-background="new    ">
	<g id="Rounded_Rectangle_1">
		<g>
			<path fill="#262626" d="M169,357.3c-13-20.8-36-34.7-62.3-34.7s-49.4,13.9-62.4,34.7C19,363,0,385.7,0,412.7
				c0,31.4,25.4,56.7,56.7,56.7h100c31.4,0,56.7-25.4,56.7-56.7C213.4,385.7,194.4,363,169,357.3z"/>
		</g>
	</g>
</g>
<g id="Rounded_Rectangle_1_2_" enable-background="new    ">
	<g id="Rounded_Rectangle_1_1_">
		<g>
			<path fill="#FFFFFF" d="M164.9,363.3c-11.5-20.3-33.1-34.1-58.2-34.1S60,342.9,48.6,363.3c-23.7,3.8-41.9,24.5-41.9,49.4
				c0,27.6,22.4,50,50,50h100c27.6,0,50-22.4,50-50C206.7,387.9,188.6,367.2,164.9,363.3z"/>
		</g>
	</g>
</g>
<g id="Buttons_1_" enable-background="new    ">
	<g id="Buttons">
		<g>
			<path fill="#262626" d="M173.4,382.7c-3.6,0-6.6,3-6.6,6.6s3,6.6,6.6,6.6c3.6,0,6.6-3,6.6-6.6S177,382.7,173.4,382.7z M160,396.1
				c-3.6,0-6.6,3-6.6,6.6s3,6.6,6.6,6.6c3.6,0,6.6-3,6.6-6.6C166.6,399.1,163.6,396.1,160,396.1z M186.9,396.1c-3.6,0-6.6,3-6.6,6.6
				s3,6.6,6.6,6.6s6.6-3,6.6-6.6C193.4,399.1,190.4,396.1,186.9,396.1z M173.4,409.5c-3.6,0-6.6,3-6.6,6.6s3,6.6,6.6,6.6
				c3.6,0,6.6-3,6.6-6.6S177,409.5,173.4,409.5z"/>
		</g>
	</g>
</g>
<g id="Left_1_" enable-background="new    ">
	<g id="Left">
		<g>
			<circle fill="#262626" cx="80" cy="432.7" r="16.7"/>
		</g>
	</g>
</g>
<g id="Right_1_" enable-background="new    ">
	<g id="Right">
		<g>
			<circle fill="#262626" cx="133.3" cy="432.7" r="16.7"/>
		</g>
	</g>
</g>
<g id="D-Pad_1_" enable-background="new    ">
	<g id="D-Pad">
		<g>
			<path fill="#262626" d="M53.3,396.1h-6.6v-6.6c0-3.6-3-6.6-6.6-6.6c-3.6,0-6.6,3-6.6,6.6v6.6h-6.6c-3.6,0-6.6,3-6.6,6.6
				s3,6.6,6.6,6.6h6.6v6.6c0,3.6,3,6.6,6.6,6.6c3.6,0,6.6-3,6.6-6.6v-6.6h6.6c3.6,0,6.6-3,6.6-6.6C60,399.1,57,396.1,53.3,396.1z"/>
		</g>
	</g>
</g>
<g id="clay_1_" enable-background="new    ">
	<g id="clay">
		<g>
			<path fill="#262626" d="M290,389.8c5.2,0,10.1,1,14.4,3.2l6.3-14.4c-6-3.6-13-4.9-20.7-4.9c-23.8,0-33.3,11.7-33.3,36.9
				s9.5,36.9,33.3,36.9c7.7,0,14.7-1.1,20.7-4.9l-6.3-14.4c-4.3,2.2-9.2,3.2-14.4,3.2c-11.7,0-13.7-7.7-13.7-21
				S278.1,389.8,290,389.8z M337.5,350.3l-19.6,2.4V422c0,9,0.3,17.7,3,24.2h18.3c-1.7-6.3-1.7-15.6-1.7-22.9v-73.1H337.5z
				 M410.1,401.6c0-16.9-11.2-27.6-29.7-27.6c-10.5,0-20,1.9-28.4,6.6l5.8,14.4c6.2-3,12.8-4.9,19.5-4.9c7.7,0,12.8,2.5,13.4,12.6
				c-34.1,2-42.3,9.3-42.3,23c0,13.1,7,21.6,24.6,21.6c10.5,0,16.5-4,20.3-10.5c0.8,3.5,2,7,3.3,10.4l15.2-3.6
				c-1.7-8-1.9-16.5-1.9-24.6v-17.4H410.1z M390.6,423.2c-2.7,5.7-6,9.3-12.6,9.3c-7.7,0-10.1-2.2-10.1-7.3c0-5.7,6-8.7,22.9-9.6
				L390.6,423.2L390.6,423.2z M462,374.5l-14.2,55.2l-13.9-55.2l-21,3l22.9,66.9c-2.7,5.7-7.7,9.3-14.8,12l7.9,12.6
				c18.6-5.7,27.6-18.3,32.5-32.8l19.8-59.7L462,374.5z"/>
		</g>
	</g>
</g>
<g id="_x2E_io_1_" enable-background="new    ">
	<g id="_x2E_io">
		<g>
			<path fill="#FFFFFF" d="M490.4,423.7c-7.7,0-11.8,4-11.8,11.7c0,7.7,4.1,11.7,11.8,11.7s11.8-4,11.8-11.7
				C502.2,427.7,498,423.7,490.4,423.7z M534.5,375.7L515,378v44c0,9,0.3,17.7,3,24.2h18.3c-1.7-6.3-1.7-15.6-1.7-22.9v-47.7H534.5z
				 M524.6,347.8c-7.1,0-11.5,3-11.5,9.8c0,7,4.3,9.8,11.5,9.8c7.1,0,11.5-2.8,11.5-9.8C536.1,350.8,532,347.8,524.6,347.8z
				 M578.7,374c-23.8,0-33.3,11.7-33.3,36.9s9.5,36.9,33.3,36.9S612,436,612,410.9S602.7,374,578.7,374z M578.7,432.1
				c-11.7,0-13.7-8-13.7-21.2s2-21.2,13.7-21.2s13.7,8,13.7,21.2S590.5,432.1,578.7,432.1z"/>
		</g>
	</g>
</g>
</svg>
