<?xml version="1.0" encoding="utf-8"?>
<!-- Generator: Adobe Illustrator 18.0.0, SVG Export Plug-In . SVG Version: 6.00 Build 0)  -->
<!DOCTYPE svg PUBLIC "-//W3C//DTD SVG 1.1//EN" "http://www.w3.org/Graphics/SVG/1.1/DTD/svg11.dtd">
<svg version="1.1" xmlns="http://www.w3.org/2000/svg" xmlns:xlink="http://www.w3.org/1999/xlink" x="0px" y="0px"
	 viewBox="0 0 380 100" enable-background="new 0 0 380 100" xml:space="preserve">
<g id="Rounded_Rectangle_1_3_" enable-background="new    ">
	<g id="Rounded_Rectangle_1">
		<g>
			<path fill="#404040" d="M107.4,26.8C99.6,14.3,85.8,6,70,6s-29.6,8.3-37.4,20.8C17.4,30.2,6,43.8,6,60c0,18.8,15.2,34,34,34h60
				c18.8,0,34-15.2,34-34C134,43.8,122.6,30.2,107.4,26.8z"/>
		</g>
	</g>
</g>
<g id="Rounded_Rectangle_1_2_" enable-background="new    ">
	<g id="Rounded_Rectangle_1_1_">
		<g>
			<path fill="#FFFFFF" d="M104.9,30.4C98,18.2,85,10,70,10s-28,8.2-34.9,20.4C20.9,32.7,10,45.1,10,60c0,16.6,13.4,30,30,30h60
				c16.6,0,30-13.4,30-30C130,45.1,119.1,32.7,104.9,30.4z"/>
		</g>
	</g>
</g>
<g id="Buttons_1_" enable-background="new    ">
	<g id="Buttons">
		<g>
			<path fill="#404040" d="M110,42c-2.2,0-4,1.8-4,4c0,2.2,1.8,4,4,4c2.2,0,4-1.8,4-4C114,43.8,112.2,42,110,42z M102,50
				c-2.2,0-4,1.8-4,4c0,2.2,1.8,4,4,4s4-1.8,4-4C105.9,51.8,104.1,50,102,50z M118.1,50c-2.2,0-4,1.8-4,4c0,2.2,1.8,4,4,4
				c2.2,0,4-1.8,4-4C122,51.8,120.2,50,118.1,50z M110,58.1c-2.2,0-4,1.8-4,4c0,2.2,1.8,4,4,4c2.2,0,4-1.8,4-4
				C114,59.9,112.2,58.1,110,58.1z"/>
		</g>
	</g>
</g>
<g id="Left_1_" enable-background="new    ">
	<g id="Left">
		<g>
			<circle fill-rule="evenodd" clip-rule="evenodd" fill="#404040" cx="54" cy="72" r="10"/>
		</g>
	</g>
</g>
<g id="Right_1_" enable-background="new    ">
	<g id="Right">
		<g>
			<circle fill-rule="evenodd" clip-rule="evenodd" fill="#404040" cx="86" cy="72" r="10"/>
		</g>
	</g>
</g>
<g id="D-Pad_1_" enable-background="new    ">
	<g id="D-Pad">
		<g>
			<path fill-rule="evenodd" clip-rule="evenodd" fill="#404040" d="M38,50h-4v-4c0-2.2-1.8-4-4-4s-4,1.8-4,4v4h-4c-2.2,0-4,1.8-4,4
				c0,2.2,1.8,4,4,4h4v4c0,2.2,1.8,4,4,4s4-1.8,4-4v-4h4c2.2,0,4-1.8,4-4C42,51.8,40.2,50,38,50z"/>
		</g>
	</g>
</g>
<g id="clay_1_" enable-background="new    ">
	<g id="clay">
		<g>
			<path fill="#414141" d="M179.9,46.3c3.1,0,6.1,0.6,8.6,1.9l3.8-8.6c-3.6-2.2-7.8-2.9-12.4-2.9c-14.3,0-20,7-20,22.1
				s5.7,22.1,20,22.1c4.6,0,8.8-0.7,12.4-2.9l-3.8-8.6c-2.6,1.3-5.5,1.9-8.6,1.9c-7,0-8.2-4.6-8.2-12.6S172.8,46.3,179.9,46.3z
				 M208.4,22.6l-11.7,1.4v41.6c0,5.4,0.2,10.6,1.8,14.5h11c-1-3.8-1-9.4-1-13.7V22.6z M252,53.4c0-10.1-6.7-16.6-17.8-16.6
				c-6.3,0-12,1.1-17,4l3.5,8.6c3.7-1.8,7.7-2.9,11.7-2.9c4.6,0,7.7,1.5,8,7.6c-20.4,1.2-25.4,5.6-25.4,13.8c0,7.9,4.2,13,14.8,13
				c6.3,0,9.9-2.4,12.2-6.3c0.5,2.1,1.2,4.2,2,6.2l9.1-2.2c-1-4.8-1.1-9.9-1.1-14.8V53.4z M240.3,66.3c-1.6,3.4-3.6,5.6-7.6,5.6
				c-4.6,0-6.1-1.3-6.1-4.4c0-3.4,3.6-5.2,13.7-5.8V66.3z M283.1,37.1l-8.5,33.1l-8.3-33.1l-12.6,1.8L267.4,79
				c-1.6,3.4-4.6,5.6-8.9,7.2l4.7,7.6c11.2-3.4,16.6-11,19.5-19.7l11.9-35.8L283.1,37.1z"/>
		</g>
	</g>
</g>
<g id="_x2E_io_1_" enable-background="new    ">
	<g id="_x2E_io">
		<g>
			<path fill="#67AFE6" d="M300.1,66.6c-4.6,0-7.1,2.4-7.1,7c0,4.6,2.5,7,7.1,7c4.6,0,7.1-2.4,7.1-7C307.2,69,304.7,66.6,300.1,66.6
				z M326.6,37.8l-11.7,1.4v26.4c0,5.4,0.2,10.6,1.8,14.5h11c-1-3.8-1-9.4-1-13.7V37.8z M320.7,21.1c-4.3,0-6.9,1.8-6.9,5.9
				c0,4.2,2.6,5.9,6.9,5.9c4.3,0,6.9-1.7,6.9-5.9C327.6,22.9,325.1,21.1,320.7,21.1z M353.1,36.8c-14.3,0-20,7-20,22.1
				s5.7,22.1,20,22.1s20-7,20-22.1S367.5,36.8,353.1,36.8z M353.1,71.6c-7,0-8.2-4.8-8.2-12.7s1.2-12.7,8.2-12.7s8.2,4.8,8.2,12.7
				S360.2,71.6,353.1,71.6z"/>
		</g>
	</g>
</g>
</svg>
