<?xml version="1.0" encoding="utf-8"?>
<!-- Generator: Adobe Illustrator 18.0.0, SVG Export Plug-In . SVG Version: 6.00 Build 0)  -->
<!DOCTYPE svg PUBLIC "-//W3C//DTD SVG 1.1//EN" "http://www.w3.org/Graphics/SVG/1.1/DTD/svg11.dtd">
<svg version="1.1" id="Layer_1" xmlns="http://www.w3.org/2000/svg" xmlns:xlink="http://www.w3.org/1999/xlink" x="0px" y="0px"
	 viewBox="26.2 203.7 559.5 384.7" enable-background="new 26.2 203.7 559.5 384.7" xml:space="preserve">
<g id="Rounded_Rectangle_1_3_" enable-background="new    ">
	<g id="Rounded_Rectangle_1">
		<g>
			<path fill="#404040" d="M469.5,294.6c-34.1-54.6-94.4-90.9-163.5-90.9s-129.4,36.3-163.5,90.9C76.1,309.4,26.2,368.9,26.2,439.7
				c0,82.2,66.4,148.6,148.6,148.6h262.3c82.2,0,148.6-66.4,148.6-148.6C585.8,368.9,535.9,309.4,469.5,294.6z"/>
		</g>
	</g>
</g>
<g id="Rounded_Rectangle_1_2_" enable-background="new    ">
	<g id="Rounded_Rectangle_1_1_">
		<g>
			<path fill="#FFFFFF" d="M458.6,310.3c-30.2-53.3-87-89.2-152.6-89.2S183.6,257,153.4,310.3C91.4,320.4,43.7,374.6,43.7,439.7
				c0,72.6,58.6,131.1,131.1,131.1h262.3c72.6,0,131.1-58.6,131.1-131.1C568.3,374.6,520.6,320.4,458.6,310.3z"/>
		</g>
	</g>
</g>
<g id="Buttons_1_" enable-background="new    ">
	<g id="Buttons">
		<g>
			<path fill="#404040" d="M480.9,361c-9.6,0-17.5,7.9-17.5,17.5c0,9.6,7.9,17.5,17.5,17.5c9.6,0,17.5-7.9,17.5-17.5
				C498.3,368.9,490.5,361,480.9,361z M445.9,396c-9.6,0-17.5,7.9-17.5,17.5s7.9,17.5,17.5,17.5s17.5-7.9,17.5-17.5
				C462.9,403.9,455.1,396,445.9,396z M516.3,396c-9.6,0-17.5,7.9-17.5,17.5s7.9,17.5,17.5,17.5s17.5-7.9,17.5-17.5
				C533.3,403.9,525.4,396,516.3,396z M480.9,431.4c-9.6,0-17.5,7.9-17.5,17.5c0,9.6,7.9,17.5,17.5,17.5c9.6,0,17.5-7.9,17.5-17.5
				S490.5,431.4,480.9,431.4z"/>
		</g>
	</g>
</g>
<g id="Left_1_" enable-background="new    ">
	<g id="Left">
		<g>
			<circle fill="#404040" cx="236.1" cy="492.2" r="43.7"/>
		</g>
	</g>
</g>
<g id="Right_1_" enable-background="new    ">
	<g id="Right">
		<g>
			<circle fill="#404040" cx="375.9" cy="492.2" r="43.7"/>
		</g>
	</g>
</g>
<g id="D-Pad_1_" enable-background="new    ">
	<g id="D-Pad">
		<g>
			<path fill="#404040" d="M166.1,396h-17.5v-17.5c0-9.6-7.9-17.5-17.5-17.5s-17.5,7.9-17.5,17.5V396H96.2
				c-9.6,0-17.5,7.9-17.5,17.5S86.6,431,96.2,431h17.5v17.5c0,9.6,7.9,17.5,17.5,17.5s17.5-7.9,17.5-17.5V431h17.5
				c9.6,0,17.5-7.9,17.5-17.5S175.7,396,166.1,396z"/>
		</g>
	</g>
</g>
</svg>
