<?xml version="1.0" encoding="utf-8"?>
<!-- Generator: Adobe Illustrator 18.1.0, SVG Export Plug-In . SVG Version: 6.00 Build 0)  -->
<!DOCTYPE svg PUBLIC "-//W3C//DTD SVG 1.0//EN" "http://www.w3.org/TR/2001/REC-SVG-20010904/DTD/svg10.dtd">
<svg version="1.0" id="Layer_1" xmlns="http://www.w3.org/2000/svg" xmlns:xlink="http://www.w3.org/1999/xlink" x="0px" y="0px"
	 viewBox="0 0 591.2 141.7" enable-background="new 0 0 591.2 141.7" xml:space="preserve">
<g id="Rounded_Rectangle_1_3_" enable-background="new    ">
	<g id="Rounded_Rectangle_1">
		<g>
			<path fill="#262626" d="M163.3,33.5C150.7,13.4,128.5,0,103.1,0S55.4,13.4,42.8,33.5C18.4,39,0,60.9,0,87
				c0,30.3,24.5,54.8,54.8,54.8h96.6c30.3,0,54.8-24.5,54.8-54.8C206.1,60.9,187.8,39,163.3,33.5z"/>
		</g>
	</g>
</g>
<g id="Rounded_Rectangle_1_2_" enable-background="new    ">
	<g id="Rounded_Rectangle_1_1_">
		<g>
			<path fill="#FFFFFF" d="M159.3,39.3c-11.1-19.6-32-32.9-56.2-32.9S58,19.6,46.9,39.3C24,43,6.4,63,6.4,87
				c0,26.7,21.6,48.3,48.3,48.3h96.6c26.7,0,48.3-21.6,48.3-48.3C199.7,63,182.2,43,159.3,39.3z"/>
		</g>
	</g>
</g>
<g id="Buttons_1_" enable-background="new    ">
	<g id="Buttons">
		<g>
			<path fill="#262626" d="M167.5,58c-3.5,0-6.4,2.9-6.4,6.4c0,3.5,2.9,6.4,6.4,6.4s6.4-2.9,6.4-6.4C173.9,60.9,171,58,167.5,58z
				 M154.6,70.9c-3.5,0-6.4,2.9-6.4,6.4c0,3.5,2.9,6.4,6.4,6.4c3.5,0,6.4-2.9,6.4-6.4C160.9,73.8,158,70.9,154.6,70.9z M180.5,70.9
				c-3.5,0-6.4,2.9-6.4,6.4c0,3.5,2.9,6.4,6.4,6.4s6.4-2.9,6.4-6.4C186.8,73.8,183.9,70.9,180.5,70.9z M167.5,83.9
				c-3.5,0-6.4,2.9-6.4,6.4c0,3.5,2.9,6.4,6.4,6.4s6.4-2.9,6.4-6.4S171,83.9,167.5,83.9z"/>
		</g>
	</g>
</g>
<g id="Left_1_" enable-background="new    ">
	<g id="Left">
		<g>
			<circle fill="#262626" cx="77.3" cy="106.3" r="16.1"/>
		</g>
	</g>
</g>
<g id="Right_1_" enable-background="new    ">
	<g id="Right">
		<g>
			<circle fill="#262626" cx="128.8" cy="106.3" r="16.1"/>
		</g>
	</g>
</g>
<g id="D-Pad_1_" enable-background="new    ">
	<g id="D-Pad">
		<g>
			<path fill="#262626" d="M51.5,70.9h-6.4v-6.4c0-3.5-2.9-6.4-6.4-6.4c-3.5,0-6.4,2.9-6.4,6.4v6.4h-6.4c-3.5,0-6.4,2.9-6.4,6.4
				c0,3.5,2.9,6.4,6.4,6.4h6.4v6.4c0,3.5,2.9,6.4,6.4,6.4c3.5,0,6.4-2.9,6.4-6.4v-6.4h6.4c3.5,0,6.4-2.9,6.4-6.4
				C58,73.8,55.1,70.9,51.5,70.9z"/>
		</g>
	</g>
</g>
<g id="clay_1_" enable-background="new    ">
	<g id="clay">
		<g>
			<path fill="#262626" d="M280.1,64.9c5,0,9.8,1,13.9,3.1l6.1-13.9c-5.8-3.5-12.6-4.7-20-4.7c-23,0-32.2,11.3-32.2,35.6
				s9.2,35.6,32.2,35.6c7.4,0,14.2-1.1,20-4.7l-6.1-13.9c-4.2,2.1-8.9,3.1-13.9,3.1c-11.3,0-13.2-7.4-13.2-20.3
				S268.6,64.9,280.1,64.9z M326,26.7L307.1,29v67c0,8.7,0.3,17.1,2.9,23.4h17.7c-1.6-6.1-1.6-15.1-1.6-22.1V26.7H326z M396.2,76.3
				c0-16.3-10.8-26.7-28.7-26.7c-10.1,0-19.3,1.8-27.4,6.4l5.6,13.9c6-2.9,12.4-4.7,18.8-4.7c7.4,0,12.4,2.4,12.9,12.2
				c-32.9,1.9-40.9,9-40.9,22.2c0,12.7,6.8,20.9,23.8,20.9c10.1,0,15.9-3.9,19.6-10.1c0.8,3.4,1.9,6.8,3.2,10l14.7-3.5
				c-1.6-7.7-1.8-15.9-1.8-23.8V76.3z M377.3,97.1c-2.6,5.5-5.8,9-12.2,9c-7.4,0-9.8-2.1-9.8-7.1c0-5.5,5.8-8.4,22.1-9.3L377.3,97.1
				L377.3,97.1z M446.3,50.1l-13.7,53.3l-13.4-53.3L398.9,53l22.1,64.6c-2.6,5.5-7.4,9-14.3,11.6l7.6,12.2
				c18-5.5,26.7-17.7,31.4-31.7L464.8,52L446.3,50.1z"/>
		</g>
	</g>
</g>
<g id="_x2E_io_1_" enable-background="new    ">
	<g id="_x2E_io">
		<g>
			<path fill="#FFFFFF" d="M473.7,97.6c-7.4,0-11.4,3.9-11.4,11.3c0,7.4,4,11.3,11.4,11.3c7.4,0,11.4-3.9,11.4-11.3
				C485.1,101.5,481.1,97.6,473.7,97.6z M516.3,51.2l-18.8,2.3V96c0,8.7,0.3,17.1,2.9,23.4h17.7c-1.6-6.1-1.6-15.1-1.6-22.1V51.2
				H516.3z M506.8,24.3c-6.9,0-11.1,2.9-11.1,9.5c0,6.8,4.2,9.5,11.1,9.5s11.1-2.7,11.1-9.5C517.9,27.2,513.9,24.3,506.8,24.3z
				 M559,49.6c-23,0-32.2,11.3-32.2,35.6s9.2,35.6,32.2,35.6c23,0,32.2-11.3,32.2-35.6S582.2,49.6,559,49.6z M559,105.7
				c-11.3,0-13.2-7.7-13.2-20.5s1.9-20.5,13.2-20.5s13.2,7.7,13.2,20.5S570.4,105.7,559,105.7z"/>
		</g>
	</g>
</g>
</svg>
