<?xml version="1.0" encoding="utf-8"?>
<!-- Generator: Adobe Illustrator 18.1.1, SVG Export Plug-In . SVG Version: 6.00 Build 0)  -->
<!DOCTYPE svg PUBLIC "-//W3C//DTD SVG 1.0//EN" "http://www.w3.org/TR/2001/REC-SVG-20010904/DTD/svg10.dtd">
<svg version="1.0" id="Layer_1" xmlns="http://www.w3.org/2000/svg" xmlns:xlink="http://www.w3.org/1999/xlink" x="0px" y="0px"
	 viewBox="9.7 647.7 612 146.8" enable-background="new 9.7 647.7 612 146.8" xml:space="preserve">
<g id="Rounded_Rectangle_1_3_" enable-background="new    ">
	<g id="Rounded_Rectangle_1">
		<g>
			<path fill="#404040" d="M178.7,682.4c-13-20.8-36-34.7-62.3-34.7S67,661.6,54.1,682.4c-25.5,5.7-44.4,28.4-44.4,55.4
				c0,31.4,25.4,56.7,56.7,56.7h100c31.4,0,56.7-25.4,56.7-56.7C223.1,710.7,204.1,688.1,178.7,682.4z"/>
		</g>
	</g>
</g>
<g id="Rounded_Rectangle_1_2_" enable-background="new    ">
	<g id="Rounded_Rectangle_1_1_">
		<g>
			<path fill="#FFFFFF" d="M174.5,688.4c-11.5-20.3-33.1-34.1-58.2-34.1S69.6,668,58.1,688.4c-23.7,3.8-41.8,24.5-41.8,49.4
				c0,27.6,22.4,50,50,50h100c27.6,0,50-22.4,50-50C216.4,712.9,198.2,692.2,174.5,688.4z"/>
		</g>
	</g>
</g>
<g id="Buttons_1_" enable-background="new    ">
	<g id="Buttons">
		<g>
			<path fill="#404040" d="M183.1,707.7c-3.6,0-6.6,3-6.6,6.6c0,3.6,3,6.6,6.6,6.6c3.6,0,6.6-3,6.6-6.6
				C189.7,710.7,186.7,707.7,183.1,707.7z M169.7,721.1c-3.6,0-6.6,3-6.6,6.6c0,3.6,3,6.6,6.6,6.6c3.6,0,6.6-3,6.6-6.6
				C176.3,724.1,173.3,721.1,169.7,721.1z M196.6,721.1c-3.6,0-6.6,3-6.6,6.6c0,3.6,3,6.6,6.6,6.6s6.6-3,6.6-6.6
				C203.1,724.1,200.1,721.1,196.6,721.1z M183.1,734.6c-3.6,0-6.6,3-6.6,6.6c0,3.6,3,6.6,6.6,6.6c3.6,0,6.6-3,6.6-6.6
				C189.7,737.6,186.7,734.6,183.1,734.6z"/>
		</g>
	</g>
</g>
<g id="Left_1_" enable-background="new    ">
	<g id="Left">
		<g>
			<circle fill="#404040" cx="89.7" cy="757.7" r="16.7"/>
		</g>
	</g>
</g>
<g id="Right_1_" enable-background="new    ">
	<g id="Right">
		<g>
			<circle fill="#404040" cx="143" cy="757.7" r="16.7"/>
		</g>
	</g>
</g>
<g id="D-Pad_1_" enable-background="new    ">
	<g id="D-Pad">
		<g>
			<path fill="#404040" d="M63,721.1h-6.6v-6.6c0-3.6-3-6.6-6.6-6.6c-3.6,0-6.6,3-6.6,6.6v6.6h-6.6c-3.6,0-6.6,3-6.6,6.6
				c0,3.6,3,6.6,6.6,6.6h6.6v6.6c0,3.6,3,6.6,6.6,6.6c3.6,0,6.6-3,6.6-6.6v-6.6H63c3.6,0,6.6-3,6.6-6.6
				C69.6,724.1,66.6,721.1,63,721.1z"/>
		</g>
	</g>
</g>
<g id="clay_1_" enable-background="new    ">
	<g id="clay">
		<g>
			<path fill="#FFFFFF" d="M299.6,714.9c5.2,0,10.1,1,14.4,3.2l6.3-14.4c-6-3.6-13-4.9-20.7-4.9c-23.8,0-33.3,11.7-33.3,36.9
				s9.5,36.9,33.3,36.9c7.7,0,14.7-1.1,20.7-4.9l-6.3-14.4c-4.3,2.2-9.2,3.2-14.4,3.2c-11.7,0-13.7-7.7-13.7-21
				C285.9,722.2,287.8,714.9,299.6,714.9z M347.1,675.4l-19.5,2.4v69.4c0,9,0.3,17.7,3,24.2h18.3c-1.7-6.3-1.7-15.6-1.7-22.9v-73
				L347.1,675.4L347.1,675.4z M419.8,726.8c0-16.9-11.2-27.6-29.7-27.6c-10.5,0-20,1.9-28.4,6.6l5.8,14.4c6.2-3,12.8-4.9,19.5-4.9
				c7.7,0,12.8,2.5,13.4,12.6c-34.1,2-42.3,9.3-42.3,23c0,13.1,7,21.6,24.6,21.6c10.5,0,16.5-4,20.3-10.5c0.8,3.5,2,7,3.3,10.4
				l15.2-3.6c-1.7-8-1.9-16.5-1.9-24.6v-17.4H419.8z M400.3,748.3c-2.7,5.7-6,9.3-12.6,9.3c-7.7,0-10.1-2.2-10.1-7.3
				c0-5.7,6-8.7,22.9-9.6L400.3,748.3L400.3,748.3z M471.6,699.6l-14.2,55.2l-13.9-55.2l-21,3l22.9,66.9c-2.7,5.7-7.7,9.3-14.8,12
				l7.9,12.6c18.6-5.7,27.6-18.3,32.5-32.8l19.9-59.7L471.6,699.6z"/>
		</g>
	</g>
</g>
<g id="_x2E_io_1_" enable-background="new    ">
	<g id="_x2E_io">
		<g>
			<path fill="#008AFF" d="M500,748.7c-7.7,0-11.8,4-11.8,11.7s4.1,11.7,11.8,11.7s11.8-4,11.8-11.7S507.6,748.7,500,748.7z
				 M544.2,700.8l-19.5,2.4v44c0,9,0.3,17.7,3,24.2H546c-1.7-6.3-1.7-15.6-1.7-22.9v-47.7H544.2L544.2,700.8z M534.3,673
				c-7.1,0-11.5,3-11.5,9.8c0,7,4.3,9.8,11.5,9.8s11.5-2.8,11.5-9.8C545.8,676,541.7,673,534.3,673z M588.4,699.1
				c-23.8,0-33.3,11.7-33.3,36.9c0,25.2,9.5,36.9,33.3,36.9s33.3-11.7,33.3-36.9S612.4,699.1,588.4,699.1z M588.4,757.1
				c-11.7,0-13.7-8-13.7-21.2c0-13.1,2-21.2,13.7-21.2s13.7,8,13.7,21.2C602,749.2,600.2,757.1,588.4,757.1z"/>
		</g>
	</g>
</g>
</svg>
