<?xml version="1.0" encoding="utf-8"?>
<!-- Generator: Adobe Illustrator 18.1.1, SVG Export Plug-In . SVG Version: 6.00 Build 0)  -->
<!DOCTYPE svg PUBLIC "-//W3C//DTD SVG 1.0//EN" "http://www.w3.org/TR/2001/REC-SVG-20010904/DTD/svg10.dtd">
<svg version="1.0" id="Layer_1" xmlns="http://www.w3.org/2000/svg" xmlns:xlink="http://www.w3.org/1999/xlink" x="0px" y="0px"
	 viewBox="18.7 141.5 577.3 505.8" enable-background="new 18.7 141.5 577.3 505.8" xml:space="preserve">
<g id="Rounded_Rectangle_1_3_" enable-background="new    ">
	<g id="Rounded_Rectangle_1">
		<g>
			<path fill="#404040" d="M407.3,197.8c-21.1-33.8-58.5-56.3-101.3-56.3s-80.2,22.5-101.3,56.3c-41.2,9.2-72,46-72,89.9
				c0,50.9,41.2,92.1,92.1,92.1h162.5c50.9,0,92.1-41.2,92.1-92.1C479.3,243.8,448.4,207,407.3,197.8z"/>
		</g>
	</g>
</g>
<g id="Rounded_Rectangle_1_2_" enable-background="new    ">
	<g id="Rounded_Rectangle_1_1_">
		<g>
			<path fill="#FFFFFF" d="M400.5,207.5c-18.7-33-53.9-55.2-94.5-55.2s-75.8,22.2-94.5,55.2c-38.5,6.2-68,39.8-68,80.2
				c0,45,36.3,81.2,81.2,81.2h162.5c45,0,81.2-36.3,81.2-81.2C468.5,247.3,439,213.8,400.5,207.5z"/>
		</g>
	</g>
</g>
<g id="Buttons_1_" enable-background="new    ">
	<g id="Buttons">
		<g>
			<path fill="#404040" d="M414.3,238.9c-6,0-10.8,4.9-10.8,10.8s4.9,10.8,10.8,10.8c6,0,10.8-4.9,10.8-10.8
				S420.3,238.9,414.3,238.9z M392.7,260.6c-6,0-10.8,4.9-10.8,10.8c0,6,4.9,10.8,10.8,10.8s10.8-4.9,10.8-10.8
				C403.2,265.5,398.3,260.6,392.7,260.6z M436.3,260.6c-6,0-10.8,4.9-10.8,10.8c0,6,4.9,10.8,10.8,10.8c6,0,10.8-4.9,10.8-10.8
				C446.8,265.5,441.9,260.6,436.3,260.6z M414.3,282.5c-6,0-10.8,4.9-10.8,10.8c0,6,4.9,10.8,10.8,10.8c6,0,10.8-4.9,10.8-10.8
				C425.2,287.4,420.3,282.5,414.3,282.5z"/>
		</g>
	</g>
</g>
<g id="Left_1_" enable-background="new    ">
	<g id="Left">
		<g>
			<circle fill="#404040" cx="262.7" cy="320.2" r="27.1"/>
		</g>
	</g>
</g>
<g id="Right_1_" enable-background="new    ">
	<g id="Right">
		<g>
			<circle fill="#404040" cx="349.3" cy="320.2" r="27.1"/>
		</g>
	</g>
</g>
<g id="D-Pad_1_" enable-background="new    ">
	<g id="D-Pad">
		<g>
			<path fill="#404040" d="M219.3,260.6h-10.8v-10.8c0-6-4.9-10.8-10.8-10.8c-6,0-10.8,4.9-10.8,10.8v10.8H176
				c-6,0-10.8,4.9-10.8,10.8c0,6,4.9,10.8,10.8,10.8h10.8v10.8c0,6,4.9,10.8,10.8,10.8c6,0,10.8-4.9,10.8-10.8v-10.8h10.8
				c6,0,10.8-4.9,10.8-10.8C230.2,265.5,225.3,260.6,219.3,260.6z"/>
		</g>
	</g>
</g>
<g id="clay_1_" enable-background="new    ">
	<g id="clay">
		<g>
			<path fill="#414141" d="M72.8,518.7c8.4,0,16.5,1.6,23.3,5.1l10.3-23.3c-9.7-6-21.1-7.9-33.6-7.9c-38.7,0-54.2,19-54.2,59.8
				c0,40.9,15.4,59.8,54.2,59.8c12.5,0,23.8-1.9,33.6-7.9l-10.3-23.3c-7,3.5-14.9,5.1-23.3,5.1c-19,0-22.2-12.5-22.2-34.1
				C50.6,530.6,53.6,518.7,72.8,518.7z M150,454.5l-31.7,3.8v112.7c0,14.6,0.5,28.7,4.9,39.3H153c-2.7-10.3-2.7-25.5-2.7-37.1V454.5
				H150z M268.1,537.9c0-27.4-18.1-45-48.2-45c-17.1,0-32.5,3-46,10.8l9.5,23.3c10-4.9,20.9-7.9,31.7-7.9c12.5,0,20.9,4.1,21.7,20.6
				c-55.2,3.2-68.8,15.2-68.8,37.4c0,21.4,11.4,35.2,40.1,35.2c17.1,0,26.8-6.5,33-17.1c1.4,5.7,3.2,11.4,5.4,16.8l24.6-6
				c-2.7-13-3-26.8-3-40.1L268.1,537.9L268.1,537.9z M236.4,572.8c-4.3,9.2-9.7,15.2-20.6,15.2c-12.5,0-16.5-3.5-16.5-11.9
				c0-9.2,9.7-14.1,37.1-15.7V572.8z M352.3,493.8l-23,89.6l-22.5-89.6l-34.1,4.9l37.1,108.6c-4.3,9.2-12.5,15.2-24.1,19.5
				l12.7,20.6c30.3-9.2,45-29.8,52.8-53.3l32.2-96.9L352.3,493.8z"/>
		</g>
	</g>
</g>
<g id="_x2E_io_1_" enable-background="new    ">
	<g id="_x2E_io">
		<g>
			<path fill="#008AFF" d="M398.3,573.6c-12.5,0-19.2,6.5-19.2,19c0,12.5,6.8,19,19.2,19c12.5,0,19.2-6.5,19.2-19
				C417.6,580.1,410.8,573.6,398.3,573.6z M470.1,495.7l-31.7,3.8v71.5c0,14.6,0.5,28.7,4.9,39.3h29.8c-2.7-10.3-2.7-25.5-2.7-37.1
				v-77.4H470.1z M454.1,450.4c-11.6,0-18.7,4.9-18.7,16c0,11.4,7,16,18.7,16c11.6,0,18.7-4.6,18.7-16
				C472.8,455.3,466,450.4,454.1,450.4z M541.9,492.9c-38.7,0-54.2,19-54.2,59.8c0,40.9,15.4,59.8,54.2,59.8
				c38.7,0,54.2-19,54.2-59.8C596,511.9,580.9,492.9,541.9,492.9z M541.9,587.2c-19,0-22.2-13-22.2-34.4c0-21.4,3.2-34.4,22.2-34.4
				s22.2,13,22.2,34.4C564.1,574.2,561.1,587.2,541.9,587.2z"/>
		</g>
	</g>
</g>
</svg>
