<?xml version="1.0" encoding="UTF-8" standalone="no"?><svg width="137" height="24" viewBox="0 0 137 24" xmlns="http://www.w3.org/2000/svg"><title>clay + games</title><g fill="none" fill-rule="evenodd"><path d="M6.476 6.269C2.497 6.269 0 9.046 0 12.565c0 3.52 2.497 6.297 6.476 6.297 1.948 0 3.43-.743 4.225-1.623.302-.33.467-.66.467-1.127 0-.742-.522-1.265-1.29-1.265-.439 0-.713.11-1.015.33-.44.33-1.18.88-2.36.88-2.113 0-3.21-1.65-3.21-3.492s1.097-3.492 3.21-3.492c1.18 0 1.92.55 2.36.88.302.22.576.33 1.015.33.768 0 1.29-.522 1.29-1.265 0-.467-.165-.797-.467-1.127-.795-.88-2.277-1.622-4.225-1.622zm7.628 10.833c0 .907.74 1.65 1.646 1.65.906 0 1.646-.743 1.646-1.65V1.65c0-.908-.74-1.65-1.646-1.65-.905 0-1.646.742-1.646 1.65v15.452zm19.07-4.537c0-3.767-2.47-6.296-6.339-6.296-3.704 0-6.365 2.53-6.365 6.296 0 3.465 2.222 6.297 5.954 6.297 1.729 0 2.936-.77 3.567-1.842v.055c0 .88.494 1.677 1.591 1.677 1.07 0 1.592-.798 1.592-1.677v-4.51zm-3.238 0c0 1.842-1.125 3.437-3.1 3.437-2.058 0-3.129-1.595-3.129-3.437 0-1.924 1.235-3.437 3.128-3.437 1.949 0 3.101 1.43 3.101 3.437zm13.857 4.29a145.233 145.233 0 0 0 3.073-8.359c.055-.137.11-.385.11-.605 0-.825-.576-1.512-1.454-1.512-.796 0-1.208.33-1.372.88l-2.58 7.918-3.073-7.918c-.22-.55-.658-.88-1.372-.88-.878 0-1.482.687-1.482 1.512 0 .22.055.413.138.605l3.923 9.706c-.603 1.375-1.29 2.062-2.442 2.97-.521.412-.795.77-.795 1.347 0 .742.686 1.374 1.481 1.374.275 0 .522-.055.741-.192 2.25-1.347 3.814-3.657 5.104-6.846z" fill="#FF8A00"/><path d="M54.044 12.425c0-3.272 2.497-5.472 5.57-5.472 3.074 0 5.57 2.227 5.57 5.472 0 3.244-2.496 5.471-5.57 5.471-3.073 0-5.57-2.2-5.57-5.471zm.659 10.393c1.235.66 2.826 1.1 4.966 1.1 4.363 0 6.23-2.777 6.23-6.38V6.762a.364.364 0 0 0-.358-.358.364.364 0 0 0-.356.358v2.887c-.96-2.007-3.073-3.355-5.57-3.355-3.513 0-6.284 2.53-6.284 6.132s2.771 6.131 6.284 6.131c2.497 0 4.554-1.32 5.57-3.354v2.42c0 3.134-1.537 5.663-5.516 5.663-1.81 0-3.237-.275-4.692-.99a.73.73 0 0 0-.329-.082c-.137 0-.247.11-.247.275 0 .165.192.275.302.33zM69.959 12.59c0 3.492 2.662 6.296 6.284 6.296 2.497 0 4.555-1.347 5.57-3.382v2.915c0 .192.164.357.357.357a.364.364 0 0 0 .356-.357v-5.83c0-3.491-2.661-6.296-6.283-6.296-3.622 0-6.284 2.805-6.284 6.297zm.714 0c0-3.19 2.387-5.637 5.57-5.637 3.183 0 5.57 2.447 5.57 5.637 0 3.19-2.387 5.636-5.57 5.636-3.183 0-5.57-2.447-5.57-5.636zm36.85-.963v6.792c0 .192.165.357.357.357a.364.364 0 0 0 .357-.357v-6.764c0-3.052-1.729-5.362-5.05-5.362-2.112 0-4.362 1.265-5.322 3.465-.604-2.007-2.223-3.465-4.775-3.465-2.03 0-4.17 1.128-5.049 3.08V6.76a.364.364 0 0 0-.356-.358.364.364 0 0 0-.357.358v11.658c0 .192.165.357.357.357a.364.364 0 0 0 .356-.357v-6.71c0-2.749 2.36-4.728 5.05-4.728 2.908 0 4.335 2.007 4.335 4.646v6.792c0 .192.164.357.356.357a.364.364 0 0 0 .357-.357v-6.71c0-2.666 2.47-4.728 5.049-4.728 2.908 0 4.335 2.007 4.335 4.646zm16.71.743c0-3.3-2.551-6.077-5.954-6.077-3.484 0-6.064 2.75-6.064 6.297 0 3.437 2.58 6.296 6.284 6.296 2.305 0 4.17-1.155 5.268-2.86a.444.444 0 0 0 .083-.247c0-.192-.165-.33-.357-.33-.11 0-.192.028-.275.165-1.07 1.677-2.77 2.64-4.72 2.64-3.155 0-5.542-2.502-5.542-5.554h10.921c.22 0 .357-.11.357-.33zm-.685-.303h-10.564c.164-2.887 2.387-5.169 5.295-5.169 2.909 0 5.159 2.42 5.269 5.17zm13.363 3.712c0-1.815-1.235-2.667-4.555-3.602-2.525-.715-3.979-1.32-3.979-2.914 0-1.705 1.674-2.365 3.896-2.365 1.208 0 2.717.44 3.65 1.018a.437.437 0 0 0 .22.082c.219 0 .329-.165.329-.33 0-.11-.055-.192-.193-.275-1.262-.77-2.689-1.1-4.006-1.1-2.689 0-4.61.99-4.61 2.997 0 1.815 1.647 2.75 4.748 3.547 2.579.66 3.786 1.43 3.786 2.97 0 1.43-1.4 2.474-3.841 2.474-1.345 0-3.21-.605-4.39-1.704a.347.347 0 0 0-.248-.11.317.317 0 0 0-.329.33c0 .082.055.164.11.22 1.207 1.154 3.21 1.87 4.857 1.87 2.88 0 4.555-1.293 4.555-3.108z" fill="#212121"/></g></svg>
