<?xml version="1.0" encoding="UTF-8" standalone="no"?>
<svg width="352px" height="352px" viewBox="0 0 352 352" version="1.1" xmlns="http://www.w3.org/2000/svg" xmlns:xlink="http://www.w3.org/1999/xlink" xmlns:sketch="http://www.bohemiancoding.com/sketch/ns">
    <!-- Generator: Sketch 3.3.3 (12081) - http://www.bohemiancoding.com/sketch -->
    <title>logo_standard_vector</title>
    <desc>Created with Sketch.</desc>
    <defs></defs>
    <g id="Logo" stroke="none" stroke-width="1" fill="none" fill-rule="evenodd" sketch:type="MSPage">
        <g id="logo_standard" sketch:type="MSArtboardGroup">
            <g id="Logo" sketch:type="MSLayerGroup" transform="translate(64.000000, 96.000000)">
                <path d="M52.0319436,32.1384565 C22.9540882,34.1742545 0,58.4063708 0,88 C0,118.934746 25.0724718,144 56.0009331,144 L167.999067,144 C198.929341,144 224,118.927946 224,88 C224,58.3999318 201.044357,34.1738041 171.968042,32.1384342 C159.064528,12.765014 137.022979,0 112,0 C86.9770118,0 64.9354547,12.7650238 52.0319436,32.1384565 Z" id="Cloud" fill="#FAFAFA" sketch:type="MSShapeGroup"></path>
                <path d="M52.5906717,40.1189216 L52.5906717,40.1189216 C27.5539556,41.8717914 8,62.7576528 8,88 C8,114.51394 29.4882209,136 56.0009331,136 L167.999067,136 C194.510427,136 216,114.510304 216,88 C216,62.7540503 196.44736,41.8715865 171.409401,40.1189054 C168.936651,39.9458106 166.683819,38.6362378 165.30972,36.5731563 C153.509344,18.8559927 133.682458,8 112,8 C90.3175333,8 70.490641,18.8560013 58.6902664,36.5731762 C57.3161845,38.6362334 55.06339,39.9458018 52.5906717,40.1189216 L52.5906717,40.1189216 Z M52.0319436,32.1384565 L52.0319436,32.1384565 L52.0319436,32.1384565 C64.9354547,12.7650238 86.9770118,0 112,0 C137.022979,0 159.064528,12.765014 171.968042,32.1384342 C201.044357,34.1738041 224,58.3999318 224,88 C224,118.927946 198.929341,144 167.999067,144 L56.0009331,144 C25.0724718,144 0,118.934746 0,88 C0,58.4063708 22.9540882,34.1742545 52.0319436,32.1384565 L52.0319436,32.1384565 Z" id="Outline" fill="#212121" sketch:type="MSShapeGroup"></path>
                <path d="M38,74 L29.9992205,74 C26.6866239,74 24,76.6862915 24,80 C24,83.3069658 26.6859425,86 29.9992205,86 L38,86 L38,94.0007795 C38,97.3133761 40.6862915,100 44,100 C47.3069658,100 50,97.3140575 50,94.0007795 L50,86 L58.0007795,86 C61.3133761,86 64,83.3137085 64,80 C64,76.6930342 61.3140575,74 58.0007795,74 L50,74 L50,65.9992205 C50,62.6866239 47.3137085,60 44,60 C40.6930342,60 38,62.6859425 38,65.9992205 L38,74 Z" id="Dpad" fill="#212121" sketch:type="MSShapeGroup"></path>
                <path d="M88,124 C96.836556,124 104,116.836556 104,108 C104,99.163444 96.836556,92 88,92 C79.163444,92 72,99.163444 72,108 C72,116.836556 79.163444,124 88,124 Z M136,124 C144.836556,124 152,116.836556 152,108 C152,99.163444 144.836556,92 136,92 C127.163444,92 120,99.163444 120,108 C120,116.836556 127.163444,124 136,124 Z" id="Joysticks" fill="#212121" sketch:type="MSShapeGroup"></path>
                <path d="M166,86 C169.313708,86 172,83.3137085 172,80 C172,76.6862915 169.313708,74 166,74 C162.686292,74 160,76.6862915 160,80 C160,83.3137085 162.686292,86 166,86 Z M180,72 C183.313708,72 186,69.3137085 186,66 C186,62.6862915 183.313708,60 180,60 C176.686292,60 174,62.6862915 174,66 C174,69.3137085 176.686292,72 180,72 Z M194,86 C197.313708,86 200,83.3137085 200,80 C200,76.6862915 197.313708,74 194,74 C190.686292,74 188,76.6862915 188,80 C188,83.3137085 190.686292,86 194,86 Z M180,100 C183.313708,100 186,97.3137085 186,94 C186,90.6862915 183.313708,88 180,88 C176.686292,88 174,90.6862915 174,94 C174,97.3137085 176.686292,100 180,100 Z" id="Buttons" fill="#212121" sketch:type="MSShapeGroup"></path>
            </g>
        </g>
    </g>
</svg>