<?xml version="1.0" encoding="utf-8"?>
<!-- Generator: Adobe Illustrator 18.1.1, SVG Export Plug-In . SVG Version: 6.00 Build 0)  -->
<!DOCTYPE svg PUBLIC "-//W3C//DTD SVG 1.0//EN" "http://www.w3.org/TR/2001/REC-SVG-20010904/DTD/svg10.dtd">
<svg version="1.0" id="Layer_1" xmlns="http://www.w3.org/2000/svg" xmlns:xlink="http://www.w3.org/1999/xlink" x="0px" y="0px"
	 viewBox="26.2 389.3 612 420.7" enable-background="new 26.2 389.3 612 420.7" xml:space="preserve">
<g id="Rounded_Rectangle_1_3_" enable-background="new    ">
	<g id="Rounded_Rectangle_1">
		<g>
			<path fill="#404040" d="M511.1,488.7c-37.3-59.7-103.3-99.4-178.8-99.4S190.7,429,153.4,488.7C80.8,504.9,26.2,570,26.2,647.4
				c0,89.9,72.6,162.5,162.5,162.5h286.9c89.9,0,162.5-72.6,162.5-162.5C638.3,570,583.7,504.9,511.1,488.7z"/>
		</g>
	</g>
</g>
<g id="Rounded_Rectangle_1_2_" enable-background="new    ">
	<g id="Rounded_Rectangle_1_1_">
		<g>
			<path fill="#FFFFFF" d="M499.2,505.9c-33-58.3-95.2-97.6-166.9-97.6s-133.9,39.3-166.9,97.6c-67.8,11-120,70.3-120,141.5
				c0,79.4,64.1,143.4,143.4,143.4h286.9c79.4,0,143.4-64.1,143.4-143.4C619.2,576.2,567,517,499.2,505.9z"/>
		</g>
	</g>
</g>
<g id="Buttons_1_" enable-background="new    ">
	<g id="Buttons">
		<g>
			<path fill="#404040" d="M523.6,561.4c-10.5,0-19.1,8.6-19.1,19.1c0,10.5,8.6,19.1,19.1,19.1s19.1-8.6,19.1-19.1
				C542.6,570,534.1,561.4,523.6,561.4z M485.3,599.6c-10.5,0-19.1,8.6-19.1,19.1s8.6,19.1,19.1,19.1c10.5,0,19.1-8.6,19.1-19.1
				C503.9,608.3,495.3,599.6,485.3,599.6z M562.3,599.6c-10.5,0-19.1,8.6-19.1,19.1s8.6,19.1,19.1,19.1c10.5,0,19.1-8.6,19.1-19.1
				C580.9,608.3,572.2,599.6,562.3,599.6z M523.6,638.4c-10.5,0-19.1,8.6-19.1,19.1c0,10.5,8.6,19.1,19.1,19.1s19.1-8.6,19.1-19.1
				C542.7,647,534.1,638.4,523.6,638.4z"/>
		</g>
	</g>
</g>
<g id="Left_1_" enable-background="new    ">
	<g id="Left">
		<g>
			<circle fill="#404040" cx="255.8" cy="704.9" r="47.8"/>
		</g>
	</g>
</g>
<g id="Right_1_" enable-background="new    ">
	<g id="Right">
		<g>
			<circle fill="#404040" cx="408.7" cy="704.9" r="47.8"/>
		</g>
	</g>
</g>
<g id="D-Pad_1_" enable-background="new    ">
	<g id="D-Pad">
		<g>
			<path fill="#404040" d="M179.2,599.6h-19.1v-19.1c0-10.5-8.6-19.1-19.1-19.1s-19.1,8.6-19.1,19.1v19.1h-19
				c-10.5,0-19.1,8.6-19.1,19.1s8.6,19.1,19.1,19.1h19.1v19.1c0,10.5,8.6,19.1,19.1,19.1c10.5,0,19.1-8.6,19.1-19.1v-19.1h19.1
				c10.5,0,19.1-8.6,19.1-19.1S189.7,599.6,179.2,599.6z"/>
		</g>
	</g>
</g>
</svg>
