<?xml version="1.0" encoding="utf-8"?>
<!-- Generator: Adobe Illustrator 18.1.1, SVG Export Plug-In . SVG Version: 6.00 Build 0)  -->
<!DOCTYPE svg PUBLIC "-//W3C//DTD SVG 1.0//EN" "http://www.w3.org/TR/2001/REC-SVG-20010904/DTD/svg10.dtd">
<svg version="1.0" id="Layer_1" xmlns="http://www.w3.org/2000/svg" xmlns:xlink="http://www.w3.org/1999/xlink" x="0px" y="0px"
	 viewBox="0 0 261 195.5" enable-background="new 0 0 261 195.5" xml:space="preserve">
<g>
	
		<radialGradient id="SVGID_1_" cx="301.9538" cy="147.3586" r="289.645" gradientTransform="matrix(0.8309 0 0 0.6227 -113.2173 6.6446)" gradientUnits="userSpaceOnUse">
		<stop  offset="5.617980e-003" style="stop-color:#FFFFFF"/>
		<stop  offset="0.2763" style="stop-color:#FCFCFC"/>
		<stop  offset="0.4516" style="stop-color:#F4F4F4"/>
		<stop  offset="0.5999" style="stop-color:#E5E5E5"/>
		<stop  offset="0.7331" style="stop-color:#D0D0D0"/>
		<stop  offset="0.8562" style="stop-color:#B5B5B5"/>
		<stop  offset="0.9704" style="stop-color:#949494"/>
		<stop  offset="1" style="stop-color:#8A8A8A"/>
	</radialGradient>
	<rect x="0.1" y="0" fill="url(#SVGID_1_)" width="260.9" height="195.5"/>
	<g>
		<g>
			<circle fill="#666666" cx="230" cy="73.4" r="1.5"/>
			<circle fill="#666666" cx="233.6" cy="69.8" r="1.5"/>
			<circle fill="#666666" cx="244.5" cy="58.9" r="1.5"/>
			<path fill="#666666" d="M236.1,65l0.1,0.1l0.1,0.1c0.3-0.3,0.6-0.4,0.9-0.4c0.3,0,0.7,0.1,0.9,0.4c0.3,0.3,0.4,0.6,0.4,0.9
				c0,0.3-0.1,0.7-0.4,0.9c-0.3,0.3-0.6,0.4-0.9,0.4c-0.3,0-0.7-0.1-0.9-0.4c-0.3-0.3-0.4-0.6-0.4-0.9c0-0.3,0.1-0.7,0.4-0.9
				l-0.1-0.1L236.1,65c-0.7,0.7-0.7,1.7,0,2.4c0.7,0.7,1.7,0.7,2.4,0c0.7-0.7,0.7-1.7,0-2.4C237.8,64.3,236.7,64.3,236.1,65z"/>
			<path fill="#666666" d="M239.7,61.4l0.1,0.1l0.1,0.1c0.3-0.3,0.6-0.4,0.9-0.4c0.3,0,0.7,0.1,0.9,0.4c0.3,0.3,0.4,0.6,0.4,0.9
				c0,0.3-0.1,0.7-0.4,0.9c-0.3,0.3-0.6,0.4-0.9,0.4c-0.3,0-0.7-0.1-0.9-0.4c-0.3-0.3-0.4-0.6-0.4-0.9c0-0.3,0.1-0.7,0.4-0.9
				l-0.1-0.1L239.7,61.4c-0.7,0.7-0.7,1.7,0,2.4c0.7,0.7,1.7,0.7,2.4,0c0.7-0.7,0.7-1.7,0-2.4C241.4,60.7,240.3,60.7,239.7,61.4z"/>
			<path fill="#666666" d="M246.9,54.1l0.1,0.1l0.1,0.1c0.3-0.3,0.6-0.4,0.9-0.4c0.3,0,0.7,0.1,0.9,0.4c0.3,0.3,0.4,0.6,0.4,0.9
				c0,0.3-0.1,0.7-0.4,0.9c-0.3,0.3-0.6,0.4-0.9,0.4c-0.3,0-0.7-0.1-0.9-0.4c-0.3-0.3-0.4-0.6-0.4-0.9c0-0.3,0.1-0.7,0.4-0.9
				l-0.1-0.1L246.9,54.1c-0.7,0.7-0.7,1.7,0,2.4c0.7,0.7,1.7,0.7,2.4,0c0.7-0.7,0.7-1.7,0-2.4C248.6,53.5,247.6,53.5,246.9,54.1z"/>
		</g>
		<g>
			<circle fill="#666666" cx="253.6" cy="60.6" r="1.5"/>
			<circle fill="#666666" cx="250" cy="64.2" r="1.5"/>
			<circle fill="#666666" cx="239.1" cy="75" r="1.5"/>
			<path fill="#666666" d="M245.2,66.6c-0.7,0.7-0.7,1.7,0,2.4c0.7,0.7,1.7,0.7,2.4,0l-0.1-0.1l-0.1-0.1c-0.3,0.3-0.6,0.4-0.9,0.4
				c-0.3,0-0.7-0.1-0.9-0.4c-0.3-0.3-0.4-0.6-0.4-0.9c0-0.3,0.1-0.7,0.4-0.9c0.3-0.3,0.6-0.4,0.9-0.4c0.3,0,0.7,0.1,0.9,0.4
				c0.3,0.3,0.4,0.6,0.4,0.9c0,0.3-0.1,0.7-0.4,0.9l0.1,0.1l0.1,0.1c0.7-0.7,0.7-1.7,0-2.4C246.9,66,245.8,66,245.2,66.6z"/>
			<path fill="#666666" d="M241.6,70.2c-0.7,0.7-0.7,1.7,0,2.4c0.7,0.7,1.7,0.7,2.4,0l-0.1-0.1l-0.1-0.1c-0.3,0.3-0.6,0.4-0.9,0.4
				c-0.3,0-0.7-0.1-0.9-0.4c-0.3-0.3-0.4-0.6-0.4-0.9c0-0.3,0.1-0.7,0.4-0.9c0.3-0.3,0.6-0.4,0.9-0.4c0.3,0,0.7,0.1,0.9,0.4
				c0.3,0.3,0.4,0.6,0.4,0.9c0,0.3-0.1,0.7-0.4,0.9l0.1,0.1l0.1,0.1c0.7-0.7,0.7-1.7,0-2.4C243.3,69.6,242.2,69.6,241.6,70.2z"/>
			<path fill="#666666" d="M234.3,77.5c-0.7,0.7-0.7,1.7,0,2.4c0.7,0.7,1.7,0.7,2.4,0l-0.1-0.1l-0.1-0.1c-0.3,0.3-0.6,0.4-0.9,0.4
				c-0.3,0-0.7-0.1-0.9-0.4c-0.3-0.3-0.4-0.6-0.4-0.9c0-0.3,0.1-0.7,0.4-0.9c0.3-0.3,0.6-0.4,0.9-0.4c0.3,0,0.7,0.1,0.9,0.4
				c0.3,0.3,0.4,0.6,0.4,0.9c0,0.3-0.1,0.7-0.4,0.9l0.1,0.1l0.1,0.1c0.7-0.7,0.7-1.7,0-2.4C236,76.8,235,76.8,234.3,77.5z"/>
		</g>
		<g>
			<circle fill="#666666" cx="131.2" cy="134.2" r="1.5"/>
			<circle fill="#666666" cx="134.8" cy="130.6" r="1.5"/>
			<circle fill="#666666" cx="145.7" cy="119.7" r="1.5"/>
			<path fill="#666666" d="M137.2,125.8l0.1,0.1l0.1,0.1c0.3-0.3,0.6-0.4,0.9-0.4c0.3,0,0.7,0.1,0.9,0.4c0.3,0.3,0.4,0.6,0.4,0.9
				c0,0.3-0.1,0.7-0.4,0.9c-0.3,0.3-0.6,0.4-0.9,0.4s-0.7-0.1-0.9-0.4c-0.3-0.3-0.4-0.6-0.4-0.9c0-0.3,0.1-0.7,0.4-0.9l-0.1-0.1
				L137.2,125.8c-0.7,0.7-0.7,1.7,0,2.4c0.7,0.7,1.7,0.7,2.4,0c0.7-0.7,0.7-1.7,0-2.4C138.9,125.1,137.9,125.1,137.2,125.8z"/>
			<path fill="#666666" d="M140.9,122.2l0.1,0.1l0.1,0.1c0.3-0.3,0.6-0.4,0.9-0.4c0.3,0,0.7,0.1,0.9,0.4c0.3,0.3,0.4,0.6,0.4,0.9
				c0,0.3-0.1,0.7-0.4,0.9c-0.3,0.3-0.6,0.4-0.9,0.4c-0.3,0-0.7-0.1-0.9-0.4c-0.3-0.3-0.4-0.6-0.4-0.9c0-0.3,0.1-0.7,0.4-0.9
				l-0.1-0.1L140.9,122.2c-0.7,0.7-0.7,1.7,0,2.4c0.7,0.7,1.7,0.7,2.4,0c0.7-0.7,0.7-1.7,0-2.4C142.6,121.5,141.5,121.5,140.9,122.2
				z"/>
			<path fill="#666666" d="M148.1,114.9l0.1,0.1l0.1,0.1c0.3-0.3,0.6-0.4,0.9-0.4c0.3,0,0.7,0.1,0.9,0.4c0.3,0.3,0.4,0.6,0.4,0.9
				c0,0.3-0.1,0.7-0.4,0.9c-0.3,0.3-0.6,0.4-0.9,0.4c-0.3,0-0.7-0.1-0.9-0.4c-0.3-0.3-0.4-0.6-0.4-0.9c0-0.3,0.1-0.7,0.4-0.9
				l-0.1-0.1L148.1,114.9c-0.7,0.7-0.7,1.7,0,2.4c0.7,0.7,1.7,0.7,2.4,0c0.7-0.7,0.7-1.7,0-2.4C149.8,114.3,148.8,114.3,148.1,114.9
				z"/>
		</g>
		<g>
			<circle fill="#666666" cx="167" cy="173.3" r="1.5"/>
			<circle fill="#666666" cx="163.4" cy="176.9" r="1.5"/>
			<circle fill="#666666" cx="152.5" cy="187.7" r="1.5"/>
			<path fill="#666666" d="M158.6,179.3c-0.7,0.7-0.7,1.7,0,2.4c0.7,0.7,1.7,0.7,2.4,0l-0.1-0.1l-0.1-0.1c-0.3,0.3-0.6,0.4-0.9,0.4
				c-0.3,0-0.7-0.1-0.9-0.4c-0.3-0.3-0.4-0.6-0.4-0.9c0-0.3,0.1-0.7,0.4-0.9c0.3-0.3,0.6-0.4,0.9-0.4s0.7,0.1,0.9,0.4
				c0.3,0.3,0.4,0.6,0.4,0.9c0,0.3-0.1,0.7-0.4,0.9l0.1,0.1l0.1,0.1c0.7-0.7,0.7-1.7,0-2.4C160.3,178.7,159.2,178.7,158.6,179.3z"/>
			<path fill="#666666" d="M154.9,182.9c-0.7,0.7-0.7,1.7,0,2.4c0.7,0.7,1.7,0.7,2.4,0l-0.1-0.1L157,185c-0.3,0.3-0.6,0.4-0.9,0.4
				c-0.3,0-0.7-0.1-0.9-0.4c-0.3-0.3-0.4-0.6-0.4-0.9c0-0.3,0.1-0.7,0.4-0.9c0.3-0.3,0.6-0.4,0.9-0.4c0.3,0,0.7,0.1,0.9,0.4
				c0.3,0.3,0.4,0.6,0.4,0.9c0,0.3-0.1,0.7-0.4,0.9l0.1,0.1l0.1,0.1c0.7-0.7,0.7-1.7,0-2.4C156.6,182.3,155.6,182.3,154.9,182.9z"/>
			<path fill="#666666" d="M147.7,190.2c-0.7,0.7-0.7,1.7,0,2.4c0.7,0.7,1.7,0.7,2.4,0l-0.1-0.1l-0.1-0.1c-0.3,0.3-0.6,0.4-0.9,0.4
				c-0.3,0-0.7-0.1-0.9-0.4c-0.3-0.3-0.4-0.6-0.4-0.9c0-0.3,0.1-0.7,0.4-0.9c0.3-0.3,0.6-0.4,0.9-0.4c0.3,0,0.7,0.1,0.9,0.4
				c0.3,0.3,0.4,0.6,0.4,0.9c0,0.3-0.1,0.7-0.4,0.9l0.1,0.1l0.1,0.1c0.7-0.7,0.7-1.7,0-2.4C149.4,189.5,148.3,189.5,147.7,190.2z"/>
		</g>
		<path fill="#8C8C8C" d="M193,55.9c-1.4-1.4-3.7-1.4-5.1,0l-6.1,6.1l0.1,0.1l0.1,0.1l6.1-6.1c0.6-0.6,1.5-0.9,2.3-1
			c0.8,0,1.7,0.3,2.3,1l6.1,6.1c0.6,0.6,0.9,1.5,1,2.3c0,0.8-0.3,1.7-1,2.3l-6.1,6.1c-0.6,0.6-1.5,0.9-2.3,1c-0.8,0-1.7-0.3-2.3-0.9
			l-6.1-6.1c-0.6-0.6-0.9-1.5-1-2.3c0-0.8,0.3-1.7,1-2.3l-0.1-0.1l-0.1-0.1c-1.4,1.4-1.4,3.7,0,5.1l6.1,6.1c1.4,1.4,3.7,1.4,5.1,0
			l6.1-6.1c1.4-1.4,1.4-3.7,0-5.1L193,55.9z"/>
		<circle fill="#7C7C7C" cx="185.1" cy="59.1" r="1.4"/>
		<circle fill="#979797" cx="195.7" cy="59.3" r="1.4"/>
		<path fill="#8C8C8C" d="M194.8,68.8l0.1,0.1l0.1,0.1c0.2-0.2,0.6-0.4,0.9-0.4c0.3,0,0.7,0.1,0.9,0.4c0.3,0.3,0.4,0.6,0.4,0.9
			c0,0.3-0.1,0.7-0.4,0.9c-0.3,0.3-0.6,0.4-0.9,0.4c-0.3,0-0.7-0.1-0.9-0.4c-0.2-0.3-0.4-0.6-0.4-0.9c0-0.3,0.1-0.7,0.4-0.9
			l-0.1-0.1L194.8,68.8c-0.6,0.6-0.6,1.7,0,2.3c0.6,0.6,1.7,0.6,2.3,0c0.6-0.6,0.6-1.7,0-2.3C196.5,68.2,195.4,68.2,194.8,68.8z"/>
		<polygon fill="#757575" points="183.5,68.5 184,70.2 184.5,71.9 185.7,70.7 187,69.4 185.3,69 		"/>
		<path fill="#3F3F3F" d="M257.4,29.8L242,14.4c-1.4-1.4-3.7-1.4-5.1,0l-8.9,8.9c-1.4,1.4-1.4,3.7,0,5.1l24.3,24.3
			c0.6,0.6,0.9,1.3,0.9,2.1c0,0.8-0.3,1.5-0.9,2.1l-20.5,20.5c-0.6,0.6-1.3,0.9-2.1,0.9c-0.8,0-1.5-0.3-2.1-0.9L213.1,63
			c-1.4-1.4-3.7-1.4-5.1,0l-11.2,11.2c-1.4,1.4-1.4,3.7,0,5.1l11.2,11.2c0.6,0.6,0.9,1.3,0.9,2.1c0,0.8-0.3,1.5-0.9,2.1l-33.2,33.2
			c-0.6,0.6-1.3,0.9-2.1,0.9c-0.8,0-1.5-0.3-2.1-0.9l-16.3-16.3c-1.4-1.4-3.7-1.4-5.1,0l-22.9,22.9c-1.4,1.4-1.4,3.7,0,5.1
			l26.6,26.6c0.6,0.6,0.9,1.3,0.9,2.1c0,0.8-0.3,1.5-0.9,2.1l-15.9,15.9l0.5,0.5l15.9-15.9c1.4-1.4,1.4-3.7,0-5.1l-26.6-26.6
			c-0.6-0.6-0.9-1.3-0.9-2.1c0-0.8,0.3-1.5,0.9-2.1l22.9-22.9c0.6-0.6,1.3-0.9,2.1-0.9c0.8,0,1.5,0.3,2.1,0.9l16.3,16.3
			c1.4,1.4,3.7,1.4,5.1,0l33.2-33.2c1.4-1.4,1.4-3.7,0-5.1l-11.2-11.2c-0.6-0.6-0.9-1.3-0.9-2.1c0-0.8,0.3-1.5,0.9-2.1l11.2-11.2
			c0.6-0.6,1.3-0.9,2.1-0.9c0.8,0,1.5,0.3,2.1,0.9l14.5,14.5c1.4,1.4,3.7,1.4,5.1,0l20.5-20.5c1.4-1.4,1.4-3.7,0-5.1l-24.3-24.3
			c-0.6-0.6-0.9-1.3-0.9-2.1c0-0.8,0.3-1.5,0.9-2.1l8.9-8.9c0.6-0.6,1.3-0.9,2.1-0.9c0.8,0,1.5,0.3,2.1,0.9L257,30.3
			c1.1,1.1,2.7,1.3,4,0.7v-0.7c-0.5,0.3-1,0.4-1.5,0.4C258.8,30.7,258,30.4,257.4,29.8z"/>
		<path fill="#666666" d="M258.1,21.9c0,0.8-0.3,1.5-0.9,2.1l-22.9,22.9c-0.6,0.6-1.3,0.9-2.1,0.9c-0.8,0-1.5-0.3-2.1-0.9
			l-16.3-16.3c-1.4-1.4-3.7-1.4-5.1,0l-33.2,33.2c-1.4,1.4-1.4,3.7,0,5.1l11.2,11.2c0.6,0.6,0.9,1.3,0.9,2.1c0,0.8-0.3,1.5-0.9,2.1
			l-11.2,11.2c-0.6,0.6-1.3,0.9-2.1,0.9c-0.8,0-1.5-0.3-2.1-0.9L156.8,81c-1.4-1.4-3.7-1.4-5.1,0l-20.5,20.5c-1.4,1.4-1.4,3.7,0,5.1
			l24.3,24.3c0.6,0.6,0.9,1.3,0.9,2.1c0,0.8-0.3,1.5-0.9,2.1l-8.9,8.9c-0.6,0.6-1.3,0.9-2.1,0.9c-0.8,0-1.5-0.3-2.1-0.9L127,128.6
			c-1.4-1.4-3.7-1.4-5.1,0l-18.7,18.7c-1.4,1.4-1.4,3.7,0,5.1l19.1,19.1l0.5-0.5L103.6,152c-0.6-0.6-0.9-1.3-0.9-2.1
			c0-0.8,0.3-1.5,0.9-2.1l18.7-18.7c0.6-0.6,1.3-0.9,2.1-0.9c0.8,0,1.5,0.3,2.1,0.9l15.4,15.4c1.4,1.4,3.7,1.4,5.1,0l8.9-8.9
			c1.4-1.4,1.4-3.7,0-5.1l-24.3-24.3c-0.6-0.6-0.9-1.3-0.9-2.1c0-0.8,0.3-1.5,0.9-2.1l20.5-20.6c0.6-0.6,1.3-0.9,2.1-0.9
			c0.8,0,1.5,0.3,2.1,0.9l14.5,14.5c1.4,1.4,3.7,1.4,5.1,0l11.2-11.2c1.4-1.4,1.4-3.7,0-5.1L176,68.4c-0.6-0.6-0.9-1.3-0.9-2.1
			c0-0.8,0.3-1.5,0.9-2.1L209.2,31c0.6-0.6,1.3-0.9,2.1-0.9c0.8,0,1.5,0.3,2.1,0.9l16.3,16.3c1.4,1.4,3.7,1.4,5.1,0l22.9-22.9
			c1.4-1.4,1.4-3.7,0-5.1L238.4,0h-0.9l19.8,19.8C257.8,20.4,258.1,21.1,258.1,21.9z"/>
		<path fill="#B2B2B2" d="M205.2,5.3l40.9,40.9c0.5,0.5,0.7,1.1,0.7,1.8c0,0.7-0.3,1.3-0.7,1.8l-10.9,10.9c-0.5,0.5-1.2,0.7-1.8,0.7
			c-0.7,0-1.3-0.2-1.8-0.7L204,33c-1.2-1.2-3.2-1.2-4.4,0l-9.6,9.6c-1.2,1.2-1.2,3.2,0,4.4l27.2,27.2c0.5,0.5,0.7,1.1,0.7,1.8
			c0,0.7-0.3,1.3-0.7,1.8l-15.7,15.7c-0.5,0.5-1.2,0.7-1.8,0.7c-0.7,0-1.3-0.2-1.8-0.7l-36.5-36.5c-1.2-1.2-3.2-1.2-4.4,0
			l-13.3,13.3c-1.2,1.2-1.2,3.2,0,4.4l23.6,23.6c0.5,0.5,0.7,1.1,0.7,1.8c0,0.7-0.3,1.3-0.7,1.8l-39.8,39.8
			c-0.5,0.5-1.2,0.7-1.8,0.7c-0.7,0-1.3-0.2-1.8-0.7l-16-16c-1.2-1.2-3.2-1.2-4.4,0L90,139.3l0.4,0.4l13.4-13.5
			c0.5-0.5,1.2-0.7,1.8-0.7c0.7,0,1.3,0.2,1.8,0.7l16,16c1.2,1.2,3.2,1.2,4.4,0l39.8-39.8c1.2-1.2,1.2-3.2,0-4.4l-23.6-23.6
			c-0.5-0.5-0.7-1.1-0.7-1.8c0-0.7,0.3-1.3,0.7-1.8l13.3-13.3c0.5-0.5,1.2-0.7,1.8-0.7c0.7,0,1.3,0.2,1.8,0.7L197.4,94
			c1.2,1.2,3.2,1.2,4.4,0l15.7-15.7c1.2-1.2,1.2-3.2,0-4.4l-27.2-27.2c-0.5-0.5-0.7-1.1-0.7-1.8c0-0.7,0.3-1.3,0.7-1.8l9.6-9.6
			c0.5-0.5,1.2-0.7,1.8-0.7c0.7,0,1.3,0.2,1.8,0.7L231.2,61c1.2,1.2,3.2,1.2,4.4,0l10.9-10.9c1.2-1.2,1.2-3.2,0-4.4L205.6,4.9
			c-0.5-0.5-0.7-1.1-0.7-1.8c0-0.7,0.3-1.3,0.7-1.8l1.3-1.3h-0.8l-0.9,0.9C204,2.1,204,4.1,205.2,5.3z"/>
		<path fill="#8C8C8C" d="M233.2,101.2c-0.6,0-1.3-0.2-1.8-0.7l-23.8-23.8c-1.2-1.2-3.2-1.2-4.4,0L187,92.9c-1.2,1.2-1.2,3.2,0,4.4
			l23.8,23.8c0.5,0.5,0.7,1.1,0.7,1.8c0,0.6-0.2,1.3-0.7,1.8l-6.4,6.4c-0.5,0.5-1.1,0.7-1.8,0.7c-0.7,0-1.3-0.2-1.8-0.7l-39.7-39.7
			c-1.2-1.2-3.2-1.2-4.4,0l-8.3,8.3c-1.2,1.2-1.2,3.2,0,4.4l38.5,38.5c0.5,0.5,0.7,1.1,0.7,1.8c0,0.6-0.2,1.3-0.7,1.8l-10.7,10.7
			c-0.5,0.5-1.1,0.7-1.8,0.7c-0.6,0-1.3-0.2-1.8-0.7L158,142.2c-1.2-1.2-3.2-1.2-4.4,0l-14.3,14.3c-1.2,1.2-1.2,3.2,0,4.4l12.7,12.7
			c0.5,0.5,0.7,1.1,0.7,1.8c0,0.7-0.2,1.3-0.7,1.8l-9.9,9.9c-0.5,0.5-1.1,0.7-1.8,0.7c-0.7,0-1.3-0.2-1.8-0.7l-30.2-30.2l-0.4,0.4
			l30.2,30.2c1.2,1.2,3.2,1.2,4.4,0l9.9-9.9c1.2-1.2,1.2-3.2,0-4.4l-12.7-12.7c-0.5-0.5-0.7-1.1-0.7-1.8c0-0.6,0.2-1.3,0.7-1.8
			l14.3-14.3c0.5-0.5,1.1-0.7,1.8-0.7c0.7,0,1.3,0.2,1.8,0.7l14.7,14.7c1.2,1.2,3.2,1.2,4.4,0l10.7-10.7c1.2-1.2,1.2-3.2,0-4.4
			l-38.5-38.5c-0.5-0.5-0.7-1.1-0.7-1.8c0-0.6,0.2-1.3,0.7-1.8l8.3-8.3c0.5-0.5,1.1-0.7,1.8-0.7c0.6,0,1.3,0.2,1.8,0.7l39.7,39.7
			c1.2,1.2,3.2,1.2,4.4,0l6.4-6.4c1.2-1.2,1.2-3.2,0-4.4l-23.8-23.8c-0.5-0.5-0.7-1.1-0.7-1.8c0-0.6,0.2-1.3,0.7-1.8L203.6,77
			c0.5-0.5,1.1-0.7,1.8-0.7c0.7,0,1.3,0.2,1.8,0.7l23.8,23.8c1.2,1.2,3.2,1.2,4.4,0L261,75.2v-0.8l-26,26
			C234.5,101,233.9,101.2,233.2,101.2z"/>
		<circle fill="#737373" cx="153" cy="95.6" r="4.7"/>
		<circle fill="#737373" cx="89.7" cy="140.3" r="4.7"/>
		<circle fill="#757575" cx="206.8" cy="89" r="4.7"/>
		<circle fill="#FFFFFF" cx="206.8" cy="89" r="2.3"/>
		<circle fill="#737373" cx="181.9" cy="151.8" r="4.7"/>
		<circle fill="#737373" cx="191" cy="112.1" r="4.7"/>
		<circle fill="#737373" cx="152.8" cy="170.9" r="7.3"/>
		<circle fill="#979797" cx="152.8" cy="170.9" r="4.4"/>
		<circle fill="#979797" cx="252.4" cy="83.1" r="4.7"/>
		<path fill="#7C7C7C" d="M259.4,76.1c0.5,0.5,1,0.8,1.6,1.1v-8.8c-0.6,0.2-1.1,0.6-1.6,1.1C257.5,71.3,257.5,74.3,259.4,76.1z"/>
		<circle fill="#757575" cx="242.1" cy="93.4" r="4.7"/>
		<circle fill="#979797" cx="150.5" cy="64.3" r="8.8"/>
		<circle fill="#737373" cx="150.5" cy="64.3" r="5.3"/>
		<circle fill="#979797" cx="136" cy="97.8" r="5.3"/>
		<circle fill="#979797" cx="125.9" cy="158.8" r="5.3"/>
		<circle fill="#757575" cx="207.5" cy="128.3" r="5.9"/>
		<path fill="#7C7C7C" d="M252.6,0c-0.3,1.4-0.1,3,0.7,4.4c1.6,2.7,5,3.6,7.7,2.3V0H252.6z"/>
		<path fill="#979797" d="M255.6,0c-0.4,0.9-0.4,2,0.1,2.9c0.9,1.5,2.8,1.9,4.3,1.1c0.4-0.3,0.8-0.6,1-1V0H255.6z"/>
		<circle fill="#757575" cx="205" cy="34.6" r="5.9"/>
		<circle fill="#979797" cx="164.7" cy="149.4" r="3"/>
		<circle fill="#979797" cx="136.7" cy="186" r="3"/>
		<circle fill="#757575" cx="115.5" cy="135.1" r="5.9"/>
		<circle fill="#979797" cx="115.5" cy="135.1" r="3.1"/>
		<path fill="#7C7C7C" d="M164.9,119.4c-4.9,4.9-4.9,12.9,0,17.9c4.9,4.9,12.9,4.9,17.9,0c4.9-4.9,4.9-12.9,0-17.9
			C177.8,114.5,169.8,114.5,164.9,119.4z"/>
		<circle fill="#979797" cx="173.8" cy="128.3" r="8"/>
		<path fill="#7C7C7C" d="M235.4,35.2c-2.9,2.9-2.9,7.6,0,10.4c2.9,2.9,7.6,2.9,10.4,0c2.9-2.9,2.9-7.6,0-10.4
			C242.9,32.4,238.2,32.4,235.4,35.2z"/>
		<circle fill="#737373" cx="240.6" cy="40.5" r="4.5"/>
		<circle fill="#7C7C7C" cx="233.1" cy="18.8" r="3"/>
		<g>
			<path fill="#8C8C8C" d="M221.2,96.5c-1.7-1.7-4.4-1.7-6.1,0l-7.2,7.2c-1.7,1.7-1.7,4.4,0,6.1l7.2,7.2c1.7,1.7,4.4,1.7,6.1,0
				l7.2-7.2l-0.1-0.1l-0.1-0.1l-7.2,7.2c-0.8,0.8-1.7,1.1-2.7,1.1c-1,0-2-0.4-2.7-1.1l-7.2-7.2c-0.8-0.8-1.1-1.7-1.1-2.7
				c0-1,0.4-2,1.1-2.7l7.2-7.2c0.8-0.8,1.7-1.1,2.7-1.1c1,0,2,0.4,2.7,1.1l7.2,7.2c0.8,0.8,1.1,1.7,1.1,2.7c0,1-0.4,2-1.1,2.7
				l0.1,0.1l0.1,0.1c1.7-1.7,1.7-4.4,0-6.1L221.2,96.5z"/>
			<circle fill="#757575" cx="224.6" cy="113.2" r="1.7"/>
			<circle fill="#979797" cx="211.9" cy="113" r="1.7"/>
			<path fill="#8C8C8C" d="M210.3,98.9c-0.8,0.8-0.8,2,0,2.7c0.8,0.8,2,0.8,2.7,0l-0.1-0.1l-0.1-0.1c-0.3,0.3-0.7,0.4-1.1,0.4
				c-0.4,0-0.8-0.1-1.1-0.4c-0.3-0.3-0.4-0.7-0.4-1.1c0-0.4,0.1-0.8,0.4-1.1c0.3-0.3,0.7-0.4,1.1-0.4c0.4,0,0.8,0.1,1.1,0.4
				c0.3,0.3,0.4,0.7,0.4,1.1c0,0.4-0.1,0.8-0.4,1.1l0.1,0.1l0.1,0.1c0.8-0.8,0.8-2,0-2.7C212.3,98.2,211,98.2,210.3,98.9z"/>
			<polygon fill="#7C7C7C" points="225.3,97.9 223.8,99.4 222.3,100.9 224.4,101.5 226.4,102 225.9,100 			"/>
		</g>
		<g>
			<path fill="#8C8C8C" d="M187.9,14.9c-1.7-1.7-4.4-1.7-6.1,0l-7.2,7.2c-1.7,1.7-1.7,4.4,0,6.1l7.2,7.2l0.1-0.1l0.1-0.1l-7.2-7.2
				c-0.8-0.8-1.1-1.7-1.1-2.7c0-1,0.4-2,1.1-2.7l7.2-7.2c0.8-0.8,1.7-1.1,2.7-1.1c1,0,2,0.4,2.7,1.1l7.2,7.2
				c0.8,0.8,1.1,1.7,1.1,2.7c0,1-0.4,2-1.1,2.7l-7.2,7.2c-0.8,0.8-1.7,1.1-2.7,1.1c-1,0-2-0.4-2.7-1.1l-0.1,0.1l-0.1,0.1
				c1.7,1.7,4.4,1.7,6.1,0l7.2-7.2c1.7-1.7,1.7-4.4,0-6.1L187.9,14.9z"/>
			<circle fill="#757575" cx="178.4" cy="31.6" r="1.7"/>
			<circle fill="#979797" cx="178.7" cy="18.9" r="1.7"/>
			<path fill="#8C8C8C" d="M190,17.3c-0.8,0.8-0.8,2,0,2.7l0.1-0.1l0.1-0.1c-0.3-0.3-0.4-0.7-0.4-1.1c0-0.4,0.1-0.8,0.4-1.1
				c0.3-0.3,0.7-0.4,1.1-0.4c0.4,0,0.8,0.1,1.1,0.4c0.3,0.3,0.4,0.7,0.4,1.1c0,0.4-0.1,0.8-0.4,1.1c-0.3,0.3-0.7,0.4-1.1,0.4
				c-0.4,0-0.8-0.1-1.1-0.4l-0.1,0.1L190,20c0.8,0.8,2,0.8,2.7,0c0.8-0.8,0.8-2,0-2.7C192,16.5,190.8,16.5,190,17.3z"/>
			<polygon fill="#7C7C7C" points="190.7,29.3 190.2,31.4 189.6,33.4 191.7,32.9 193.7,32.3 192.2,30.8 			"/>
		</g>
		<g>
			<path fill="#8C8C8C" d="M122.3,104.4c-1.7-1.7-4.4-1.7-6.1,0l-7.2,7.2c-1.7,1.7-1.7,4.4,0,6.1l7.2,7.2c1.7,1.7,4.4,1.7,6.1,0
				l7.2-7.2l-0.1-0.1l-0.1-0.1l-7.2,7.2c-0.8,0.8-1.7,1.1-2.7,1.1c-1,0-2-0.4-2.7-1.1l-7.2-7.2c-0.8-0.8-1.1-1.7-1.1-2.7
				c0-1,0.4-2,1.1-2.7l7.2-7.2c0.8-0.8,1.7-1.1,2.7-1.1c1,0,2,0.4,2.7,1.1l7.2,7.2c0.8,0.8,1.1,1.7,1.1,2.7c0,1-0.4,2-1.1,2.7
				l0.1,0.1l0.1,0.1c1.7-1.7,1.7-4.4,0-6.1L122.3,104.4z"/>
			<circle fill="#757575" cx="125.8" cy="121.1" r="1.7"/>
			<circle fill="#979797" cx="113.1" cy="120.8" r="1.7"/>
			<path fill="#8C8C8C" d="M111.5,106.8c-0.8,0.8-0.8,2,0,2.7c0.8,0.8,2,0.8,2.7,0l-0.1-0.1l-0.1-0.1c-0.3,0.3-0.7,0.4-1.1,0.4
				c-0.4,0-0.8-0.1-1.1-0.4c-0.3-0.3-0.4-0.7-0.4-1.1c0-0.4,0.1-0.8,0.4-1.1c0.3-0.3,0.7-0.4,1.1-0.4c0.4,0,0.8,0.1,1.1,0.4
				c0.3,0.3,0.4,0.7,0.4,1.1c0,0.4-0.1,0.8-0.4,1.1l0.1,0.1l0.1,0.1c0.8-0.8,0.8-2,0-2.7C113.4,106,112.2,106,111.5,106.8z"/>
			<polygon fill="#7C7C7C" points="126.5,105.8 125,107.3 123.5,108.8 125.5,109.3 127.6,109.9 127,107.8 			"/>
		</g>
		<path fill="#8C8C8C" d="M128.4,150.3l-0.1,0.1l-0.1,0.1l6.1,6.1c0.6,0.6,0.9,1.5,0.9,2.3c0,0.8-0.3,1.7-0.9,2.3l-6.1,6.1
			c-0.6,0.6-1.5,0.9-2.3,1c-0.8,0-1.7-0.3-2.3-1l-6.1-6.1c-0.6-0.6-0.9-1.5-1-2.3c0-0.8,0.3-1.7,0.9-2.3l6.1-6.1
			c0.6-0.6,1.5-1,2.3-1c0.8,0,1.7,0.3,2.3,1l0.1-0.1L128.4,150.3c-1.4-1.4-3.7-1.4-5.1,0l-6.1,6.1c-1.4,1.4-1.4,3.7,0,5.1l6.1,6.1
			c1.4,1.4,3.7,1.4,5.1,0l6.1-6.1c1.4-1.4,1.4-3.7,0-5.1L128.4,150.3z"/>
		<path fill="#8C8C8C" d="M258.3,11c-0.8,0-1.7-0.3-2.3-1l-6.1-6.1c-0.6-0.6-0.9-1.5-1-2.3c0-0.6,0.2-1.1,0.4-1.6H249
			c-0.7,1.4-0.5,3,0.6,4.2l6.1,6.1c1.4,1.4,3.7,1.4,5.1,0l0.2-0.2V9.6l-0.4,0.4C260,10.6,259.1,11,258.3,11z"/>
		<circle fill="#757575" cx="211" cy="11.2" r="4.7"/>
		<circle fill="#FFFFFF" cx="211" cy="11.2" r="2.3"/>
	</g>
	<g>
		<g>
			<circle fill="#666666" cx="111" cy="40" r="1.5"/>
			<circle fill="#666666" cx="107.4" cy="36.4" r="1.5"/>
			<circle fill="#666666" cx="96.6" cy="25.5" r="1.5"/>
			<path fill="#666666" d="M102.6,31.6c-0.7,0.7-0.7,1.7,0,2.4l0.1-0.1l0.1-0.1c-0.3-0.3-0.4-0.6-0.4-0.9c0-0.3,0.1-0.7,0.4-0.9
				c0.3-0.3,0.6-0.4,0.9-0.4c0.3,0,0.7,0.1,0.9,0.4c0.3,0.3,0.4,0.6,0.4,0.9c0,0.3-0.1,0.7-0.4,0.9c-0.3,0.3-0.6,0.4-0.9,0.4
				c-0.3,0-0.7-0.1-0.9-0.4l-0.1,0.1l-0.1,0.1c0.7,0.7,1.7,0.7,2.4,0c0.7-0.7,0.7-1.7,0-2.4C104.3,31,103.3,31,102.6,31.6z"/>
			<path fill="#666666" d="M99,28c-0.7,0.7-0.7,1.7,0,2.4l0.1-0.1l0.1-0.1c-0.3-0.3-0.4-0.6-0.4-0.9c0-0.3,0.1-0.7,0.4-0.9
				c0.3-0.3,0.6-0.4,0.9-0.4c0.3,0,0.7,0.1,0.9,0.4c0.3,0.3,0.4,0.6,0.4,0.9c0,0.3-0.1,0.7-0.4,0.9c-0.3,0.3-0.6,0.4-0.9,0.4
				c-0.3,0-0.7-0.1-0.9-0.4l-0.1,0.1L99,30.3c0.7,0.7,1.7,0.7,2.4,0c0.7-0.7,0.7-1.7,0-2.4C100.7,27.3,99.7,27.3,99,28z"/>
			<path fill="#666666" d="M91.8,20.7c-0.7,0.7-0.7,1.7,0,2.4l0.1-0.1l0.1-0.1c-0.3-0.3-0.4-0.6-0.4-0.9c0-0.3,0.1-0.7,0.4-0.9
				c0.3-0.3,0.6-0.4,0.9-0.4c0.3,0,0.7,0.1,0.9,0.4c0.3,0.3,0.4,0.6,0.4,0.9c0,0.3-0.1,0.7-0.4,0.9c-0.3,0.3-0.6,0.4-0.9,0.4
				s-0.7-0.1-0.9-0.4L91.9,23l-0.1,0.1c0.7,0.7,1.7,0.7,2.4,0c0.7-0.7,0.7-1.7,0-2.4C93.5,20.1,92.4,20.1,91.8,20.7z"/>
		</g>
		<g>
			<circle fill="#666666" cx="150.1" cy="4.2" r="1.5"/>
			<circle fill="#666666" cx="153.7" cy="7.8" r="1.5"/>
			<circle fill="#666666" cx="164.6" cy="18.7" r="1.5"/>
			<path fill="#666666" d="M158.4,10.4l-0.1,0.1c0.3,0.3,0.4,0.6,0.4,0.9c0,0.3-0.1,0.7-0.4,0.9c-0.3,0.3-0.6,0.4-0.9,0.4
				c-0.3,0-0.7-0.1-0.9-0.4c-0.3-0.3-0.4-0.6-0.4-0.9c0-0.3,0.1-0.7,0.4-0.9c0.3-0.3,0.6-0.4,0.9-0.4c0.3,0,0.7,0.1,0.9,0.4
				L158.4,10.4l0.1-0.1c-0.7-0.7-1.7-0.7-2.4,0c-0.7,0.7-0.7,1.7,0,2.4c0.7,0.7,1.7,0.7,2.4,0c0.7-0.7,0.7-1.7,0-2.4L158.4,10.4z"/>
			<path fill="#666666" d="M162,14l-0.1,0.1c0.3,0.3,0.4,0.6,0.4,0.9c0,0.3-0.1,0.7-0.4,0.9c-0.3,0.3-0.6,0.4-0.9,0.4
				c-0.3,0-0.7-0.1-0.9-0.4c-0.3-0.3-0.4-0.6-0.4-0.9c0-0.3,0.1-0.7,0.4-0.9c0.3-0.3,0.6-0.4,0.9-0.4c0.3,0,0.7,0.1,0.9,0.4L162,14
				l0.1-0.1c-0.7-0.7-1.7-0.7-2.4,0c-0.7,0.7-0.7,1.7,0,2.4c0.7,0.7,1.7,0.7,2.4,0c0.7-0.7,0.7-1.7,0-2.4L162,14z"/>
			<path fill="#666666" d="M169.3,21.3l-0.1,0.1c0.3,0.3,0.4,0.6,0.4,0.9c0,0.3-0.1,0.7-0.4,0.9c-0.3,0.3-0.6,0.4-0.9,0.4
				c-0.3,0-0.7-0.1-0.9-0.4c-0.3-0.3-0.4-0.6-0.4-0.9c0-0.3,0.1-0.7,0.4-0.9c0.3-0.3,0.6-0.4,0.9-0.4c0.3,0,0.7,0.1,0.9,0.4
				L169.3,21.3l0.1-0.1c-0.7-0.7-1.7-0.7-2.4,0c-0.7,0.7-0.7,1.7,0,2.4c0.7,0.7,1.7,0.7,2.4,0c0.7-0.7,0.7-1.7,0-2.4L169.3,21.3z"/>
		</g>
		<path fill="#3F3F3F" d="M88.4,17c-1.4,1.4-1.4,3.7,0,5.1L111.3,45c1.4,1.4,3.7,1.4,5.1,0L143,18.4c0.6-0.6,1.3-0.9,2.1-0.9
			c0.8,0,1.5,0.3,2.1,0.9l15.9,15.9l0.5-0.5l-15.9-15.9c-1.4-1.4-3.7-1.4-5.1,0l-26.6,26.6c-0.6,0.6-1.3,0.9-2.1,0.9
			c-0.8,0-1.5-0.3-2.1-0.9L88.8,21.6c-0.6-0.6-0.9-1.3-0.9-2.1c0-0.8,0.3-1.5,0.9-2.1l16.3-16.3c0.3-0.3,0.6-0.7,0.7-1.1h-0.7
			c-0.1,0.2-0.3,0.4-0.5,0.6L88.4,17z"/>
		<path fill="#666666" d="M57.8,19.5L78.4,40c1.4,1.4,3.7,1.4,5.1,0l24.3-24.3c0.6-0.6,1.3-0.9,2.1-0.9c0.8,0,1.5,0.3,2.1,0.9
			l8.9,8.9c0.6,0.6,0.9,1.3,0.9,2.1c0,0.8-0.3,1.5-0.9,2.1l-15.4,15.4c-1.4,1.4-1.4,3.7,0,5.1l18.7,18.7c1.4,1.4,3.7,1.4,5.1,0
			l19.1-19.1l-0.5-0.5l-19.1,19.1c-0.6,0.6-1.3,0.9-2.1,0.9c-0.8,0-1.5-0.3-2.1-0.9l-18.7-18.7c-0.6-0.6-0.9-1.3-0.9-2.1
			c0-0.8,0.3-1.5,0.9-2.1l15.4-15.4c1.4-1.4,1.4-3.7,0-5.1l-8.9-8.9c-1.4-1.4-3.7-1.4-5.1,0L83.1,39.6c-0.6,0.6-1.3,0.9-2.1,0.9
			c-0.8,0-1.5-0.3-2.1-0.9L58.3,19c-0.6-0.6-0.9-1.3-0.9-2.1c0-0.8,0.3-1.5,0.9-2.1L72.8,0.3C72.9,0.2,73,0.1,73.1,0h-0.9L57.8,14.4
			C56.4,15.8,56.4,18.1,57.8,19.5z"/>
		<path fill="#B2B2B2" d="M34,14.2l13.3,13.3c1.2,1.2,3.2,1.2,4.4,0L75.3,3.9c0.5-0.5,1.1-0.7,1.8-0.7c0.7,0,1.3,0.3,1.8,0.7
			l39.8,39.8c0.5,0.5,0.7,1.2,0.7,1.8c0,0.7-0.2,1.3-0.7,1.8l-16,16c-1.2,1.2-1.2,3.2,0,4.4l13.4,13.4l0.4-0.4l-13.5-13.5
			c-0.5-0.5-0.7-1.2-0.7-1.8c0-0.7,0.2-1.3,0.7-1.8l16-16c1.2-1.2,1.2-3.2,0-4.4L79.3,3.5c-1.2-1.2-3.2-1.2-4.4,0L51.3,27.1
			c-0.5,0.5-1.1,0.7-1.8,0.7c-0.7,0-1.3-0.3-1.8-0.7L34.4,13.8c-0.5-0.5-0.7-1.2-0.7-1.8c0-0.7,0.2-1.3,0.7-1.8L44.6,0h-0.8L34,9.8
			C32.8,11,32.8,13,34,14.2z"/>
		<path fill="#8C8C8C" d="M119,13.2c-1.2,1.2-1.2,3.2,0,4.4l14.3,14.3c1.2,1.2,3.2,1.2,4.4,0l12.7-12.7c0.5-0.5,1.1-0.7,1.8-0.7
			c0.7,0,1.3,0.2,1.8,0.7l9.9,9.9c0.5,0.5,0.7,1.1,0.7,1.8c0,0.7-0.2,1.3-0.7,1.8l-30.2,30.2l0.4,0.4l30.2-30.2
			c1.2-1.2,1.2-3.2,0-4.4l-9.9-9.9c-1.2-1.2-3.2-1.2-4.4,0l-12.7,12.7c-0.5,0.5-1.1,0.7-1.8,0.7s-1.3-0.2-1.8-0.7l-14.3-14.3
			c-0.5-0.5-0.7-1.1-0.7-1.8c0-0.6,0.2-1.3,0.7-1.8L133,0h-0.8L119,13.2z"/>
		<path fill="#8C8C8C" d="M68.2,14.4l8.3,8.3c1.2,1.2,3.2,1.2,4.4,0L103.6,0h-0.8L80.5,22.4c-0.5,0.5-1.1,0.7-1.8,0.7
			c-0.6,0-1.3-0.2-1.8-0.7L68.6,14c-0.5-0.5-0.7-1.1-0.7-1.8c0-0.6,0.2-1.3,0.7-1.8L79,0h-0.8l-10,10C67,11.3,67,13.2,68.2,14.4z"/>
		<circle fill="#737373" cx="72.5" cy="18.2" r="4.7"/>
		<circle fill="#737373" cx="117.1" cy="81.5" r="4.7"/>
		<circle fill="#737373" cx="147.7" cy="18.4" r="7.3"/>
		<circle fill="#979797" cx="147.7" cy="18.4" r="4.4"/>
		<circle fill="#979797" cx="41.1" cy="20.7" r="8.8"/>
		<circle fill="#737373" cx="41.1" cy="20.7" r="5.3"/>
		<circle fill="#979797" cx="74.6" cy="35.2" r="5.3"/>
		<circle fill="#979797" cx="135.6" cy="45.3" r="5.3"/>
		<circle fill="#979797" cx="126.2" cy="6.5" r="3"/>
		<circle fill="#979797" cx="162.9" cy="34.5" r="3"/>
		<circle fill="#757575" cx="111.9" cy="55.7" r="5.9"/>
		<circle fill="#979797" cx="111.9" cy="55.7" r="3.1"/>
		<path fill="#7C7C7C" d="M114.1,6.3c1.8-1.8,2.9-4,3.4-6.3H92.8c0.5,2.3,1.6,4.5,3.4,6.3C101.2,11.3,109.2,11.3,114.1,6.3z"/>
		<path fill="#979797" d="M110.8,3c0.9-0.9,1.5-1.9,1.9-3h-15c0.4,1.1,1,2.2,1.9,3C102.7,6.2,107.7,6.2,110.8,3z"/>
		<circle fill="#7C7C7C" cx="11.2" cy="8.1" r="8"/>
		<circle fill="#979797" cx="11.2" cy="8.1" r="5"/>
		<g>
			<path fill="#8C8C8C" d="M94.5,41.6l-0.1,0.1l-0.1,0.1l7.2,7.2c0.8,0.8,1.1,1.7,1.1,2.7c0,1-0.4,2-1.1,2.7l-7.2,7.2
				c-0.8,0.8-1.7,1.1-2.7,1.1c-1,0-2-0.4-2.7-1.1l-7.2-7.2c-0.8-0.8-1.1-1.7-1.1-2.7c0-1,0.4-2,1.1-2.7l7.2-7.2
				c0.8-0.8,1.7-1.1,2.7-1.1c1,0,2,0.4,2.7,1.1l0.1-0.1L94.5,41.6c-1.7-1.7-4.4-1.7-6.1,0l-7.2,7.2c-1.7,1.7-1.7,4.4,0,6.1l7.2,7.2
				c1.7,1.7,4.4,1.7,6.1,0l7.2-7.2c1.7-1.7,1.7-4.4,0-6.1L94.5,41.6z"/>
			<circle fill="#757575" cx="97.9" cy="45.4" r="1.7"/>
			<circle fill="#979797" cx="97.7" cy="58.1" r="1.7"/>
			<path fill="#8C8C8C" d="M86.2,57.2l-0.1,0.1c0.3,0.3,0.4,0.7,0.4,1.1c0,0.4-0.1,0.8-0.4,1.1c-0.3,0.3-0.7,0.4-1.1,0.4
				c-0.4,0-0.8-0.1-1.1-0.4c-0.3-0.3-0.4-0.7-0.4-1.1s0.1-0.8,0.4-1.1c0.3-0.3,0.7-0.4,1.1-0.4c0.4,0,0.8,0.1,1.1,0.4L86.2,57.2
				l0.1-0.1c-0.8-0.8-2-0.8-2.7,0c-0.8,0.8-0.8,2,0,2.7c0.8,0.8,2,0.8,2.7,0c0.8-0.8,0.8-2,0-2.7L86.2,57.2z"/>
			<polygon fill="#7C7C7C" points="82.6,44.7 84.1,46.2 85.6,47.7 86.2,45.7 86.7,43.6 84.7,44.2 			"/>
		</g>
		<path fill="#8C8C8C" d="M138.3,36.7c-1.4-1.4-3.7-1.4-5.1,0l-6.1,6.1l0.1,0.1l0.1,0.1l6.1-6.1c0.6-0.6,1.5-0.9,2.3-0.9
			c0.8,0,1.7,0.3,2.3,0.9l6.1,6.1c0.6,0.6,0.9,1.5,1,2.3c0,0.8-0.3,1.7-1,2.3l-6.1,6.1c-0.6,0.6-1.5,0.9-2.3,1
			c-0.8,0-1.7-0.3-2.3-0.9l-6.1-6.1c-0.6-0.6-1-1.5-1-2.3c0-0.8,0.3-1.7,1-2.3l-0.1-0.1l-0.1-0.1c-1.4,1.4-1.4,3.7,0,5.1l6.1,6.1
			c1.4,1.4,3.7,1.4,5.1,0l6.1-6.1c1.4-1.4,1.4-3.7,0-5.1L138.3,36.7z"/>
	</g>
	<g>
		<g>
			<circle fill="#666666" cx="38.5" cy="132.4" r="1.4"/>
			<circle fill="#666666" cx="42" cy="128.9" r="1.4"/>
			<path fill="#666666" d="M51.3,117.5c-0.6,0.6-0.6,1.5,0,2c0.6,0.6,1.5,0.6,2,0c0.6-0.6,0.6-1.5,0-2C52.8,117,51.9,117,51.3,117.5
				z"/>
			<path fill="#666666" d="M44.3,124.3l0.1,0.1l0.1,0.1c0.2-0.2,0.6-0.4,0.9-0.4c0.3,0,0.6,0.1,0.9,0.4c0.2,0.2,0.4,0.6,0.4,0.9
				c0,0.3-0.1,0.6-0.4,0.9c-0.2,0.2-0.6,0.4-0.9,0.4c-0.3,0-0.6-0.1-0.9-0.4c-0.2-0.2-0.4-0.6-0.4-0.9c0-0.3,0.1-0.6,0.4-0.9
				l-0.1-0.1L44.3,124.3c-0.6,0.6-0.6,1.6,0,2.3c0.6,0.6,1.6,0.6,2.3,0c0.6-0.6,0.6-1.6,0-2.3C45.9,123.7,44.9,123.7,44.3,124.3z"/>
			<path fill="#666666" d="M47.8,120.9l0.1,0.1l0.1,0.1c0.2-0.2,0.6-0.4,0.9-0.4c0.3,0,0.6,0.1,0.9,0.4c0.2,0.2,0.4,0.6,0.4,0.9
				c0,0.3-0.1,0.6-0.4,0.9c-0.2,0.2-0.6,0.4-0.9,0.4c-0.3,0-0.6-0.1-0.9-0.4c-0.2-0.2-0.4-0.6-0.4-0.9c0-0.3,0.1-0.6,0.4-0.9
				l-0.1-0.1L47.8,120.9c-0.6,0.6-0.6,1.6,0,2.3c0.6,0.6,1.6,0.6,2.3,0c0.6-0.6,0.6-1.6,0-2.3C49.4,120.2,48.4,120.2,47.8,120.9z"/>
			<path fill="#666666" d="M54.7,113.9l0.1,0.1l0.1,0.1c0.2-0.2,0.6-0.4,0.9-0.4c0.3,0,0.6,0.1,0.9,0.4c0.2,0.2,0.4,0.6,0.4,0.9
				c0,0.3-0.1,0.6-0.4,0.9c-0.2,0.2-0.6,0.4-0.9,0.4c-0.3,0-0.6-0.1-0.9-0.4c-0.2-0.2-0.4-0.6-0.4-0.9c0-0.3,0.1-0.6,0.4-0.9
				l-0.1-0.1L54.7,113.9c-0.6,0.6-0.6,1.6,0,2.3c0.6,0.6,1.6,0.6,2.3,0c0.6-0.6,0.6-1.6,0-2.3C56.3,113.3,55.3,113.3,54.7,113.9z"/>
		</g>
		<g>
			<circle fill="#666666" cx="13.7" cy="48.7" r="1.4"/>
			<circle fill="#666666" cx="10.3" cy="52.2" r="1.4"/>
			<path fill="#666666" d="M0.9,61.6c-0.2-0.2-0.5-0.3-0.8-0.4V64c0.3,0,0.6-0.2,0.8-0.4C1.5,63,1.5,62.1,0.9,61.6z"/>
			<path fill="#666666" d="M5.7,54.5c-0.6,0.6-0.6,1.6,0,2.3c0.6,0.6,1.6,0.6,2.3,0l-0.1-0.1l-0.1-0.1c-0.2,0.2-0.6,0.4-0.9,0.4
				c-0.3,0-0.6-0.1-0.9-0.4c-0.2-0.2-0.4-0.6-0.4-0.9c0-0.3,0.1-0.6,0.4-0.9c0.2-0.2,0.6-0.4,0.9-0.4c0.3,0,0.6,0.1,0.9,0.4
				C8,55,8.1,55.3,8.1,55.7c0,0.3-0.1,0.6-0.4,0.9l0.1,0.1l0.1,0.1c0.6-0.6,0.6-1.6,0-2.3C7.3,53.9,6.3,53.9,5.7,54.5z"/>
			<path fill="#666666" d="M2.2,58c-0.6,0.6-0.6,1.6,0,2.3c0.6,0.6,1.6,0.6,2.3,0l-0.1-0.1L4.3,60c-0.2,0.2-0.6,0.4-0.9,0.4
				c-0.3,0-0.6-0.1-0.9-0.4c-0.2-0.2-0.4-0.6-0.4-0.9c0-0.3,0.1-0.6,0.4-0.9C2.7,58,3,57.9,3.4,57.9c0.3,0,0.6,0.1,0.9,0.4
				c0.2,0.2,0.4,0.6,0.4,0.9c0,0.3-0.1,0.6-0.4,0.9l0.1,0.1l0.1,0.1c0.6-0.6,0.6-1.6,0-2.3C3.9,57.4,2.9,57.4,2.2,58z"/>
		</g>
		<g>
			<circle fill="#666666" cx="16.4" cy="19.4" r="1.4"/>
			<circle fill="#666666" cx="12.9" cy="22.9" r="1.4"/>
			<circle fill="#666666" cx="2.6" cy="33.2" r="1.4"/>
			<path fill="#666666" d="M8.4,25.2c-0.6,0.6-0.6,1.6,0,2.3c0.6,0.6,1.6,0.6,2.3,0l-0.1-0.1l-0.1-0.1c-0.2,0.2-0.6,0.4-0.9,0.4
				c-0.3,0-0.6-0.1-0.9-0.4c-0.2-0.2-0.4-0.6-0.4-0.9c0-0.3,0.1-0.6,0.4-0.9c0.2-0.2,0.6-0.4,0.9-0.4s0.6,0.1,0.9,0.4
				c0.2,0.2,0.4,0.6,0.4,0.9c0,0.3-0.1,0.6-0.4,0.9l0.1,0.1l0.1,0.1c0.6-0.6,0.6-1.6,0-2.3C10,24.6,9,24.6,8.4,25.2z"/>
			<path fill="#666666" d="M4.9,28.7c-0.6,0.6-0.6,1.6,0,2.3c0.6,0.6,1.6,0.6,2.3,0L7,30.8l-0.1-0.1C6.7,30.9,6.4,31,6,31
				c-0.3,0-0.6-0.1-0.9-0.4c-0.2-0.2-0.4-0.6-0.4-0.9c0-0.3,0.1-0.6,0.4-0.9c0.2-0.2,0.6-0.4,0.9-0.4c0.3,0,0.6,0.1,0.9,0.4
				c0.2,0.2,0.4,0.6,0.4,0.9c0,0.3-0.1,0.6-0.4,0.9L7,30.8l0.1,0.1c0.6-0.6,0.6-1.6,0-2.3C6.5,28,5.5,28,4.9,28.7z"/>
			<path fill="#666666" d="M0,37.6l0.1,0.1l0,0v-0.3C0.1,37.5,0.1,37.5,0,37.6z"/>
			<path fill="#666666" d="M0.1,37.7v0.2c0,0,0.1-0.1,0.1-0.1L0.1,37.7z"/>
			<path fill="#666666" d="M0.4,36.7c0,0.2-0.1,0.5-0.2,0.7v0.3l0.1,0.1c0.6-0.6,0.6-1.6,0-2.3c0,0-0.1-0.1-0.1-0.1V36
				C0.3,36.2,0.4,36.5,0.4,36.7z"/>
		</g>
		<g>
			<circle fill="#666666" cx="91.6" cy="114.4" r="1.4"/>
			<circle fill="#666666" cx="95.1" cy="110.9" r="1.4"/>
			<circle fill="#666666" cx="105.5" cy="100.6" r="1.4"/>
			<path fill="#666666" d="M97.4,106.3l0.1,0.1l0.1,0.1c0.2-0.2,0.6-0.4,0.9-0.4c0.3,0,0.6,0.1,0.9,0.4c0.2,0.2,0.4,0.6,0.4,0.9
				c0,0.3-0.1,0.6-0.4,0.9c-0.2,0.2-0.6,0.4-0.9,0.4c-0.3,0-0.6-0.1-0.9-0.4c-0.2-0.2-0.4-0.6-0.4-0.9c0-0.3,0.1-0.6,0.4-0.9
				l-0.1-0.1L97.4,106.3c-0.6,0.6-0.6,1.6,0,2.3c0.6,0.6,1.6,0.6,2.3,0c0.6-0.6,0.6-1.6,0-2.3C99.1,105.7,98.1,105.7,97.4,106.3z"/>
			<path fill="#666666" d="M100.9,102.9l0.1,0.1l0.1,0.1c0.2-0.2,0.6-0.4,0.9-0.4c0.3,0,0.6,0.1,0.9,0.4c0.2,0.2,0.4,0.6,0.4,0.9
				c0,0.3-0.1,0.6-0.4,0.9c-0.2,0.2-0.6,0.4-0.9,0.4c-0.3,0-0.6-0.1-0.9-0.4c-0.2-0.2-0.4-0.6-0.4-0.9c0-0.3,0.1-0.6,0.4-0.9
				L101,103L100.9,102.9c-0.6,0.6-0.6,1.6,0,2.3c0.6,0.6,1.6,0.6,2.3,0c0.6-0.6,0.6-1.6,0-2.3C102.5,102.3,101.5,102.3,100.9,102.9z
				"/>
			<path fill="#666666" d="M107.8,96l0.1,0.1l0.1,0.1c0.2-0.2,0.6-0.4,0.9-0.4c0.3,0,0.6,0.1,0.9,0.4c0.2,0.2,0.4,0.6,0.4,0.9
				c0,0.3-0.1,0.6-0.4,0.9c-0.2,0.2-0.6,0.4-0.9,0.4c-0.3,0-0.6-0.1-0.9-0.4c-0.2-0.2-0.4-0.6-0.4-0.9c0-0.3,0.1-0.6,0.4-0.9
				l-0.1-0.1L107.8,96c-0.6,0.6-0.6,1.6,0,2.3c0.6,0.6,1.6,0.6,2.3,0c0.6-0.6,0.6-1.6,0-2.3C109.4,95.3,108.4,95.3,107.8,96z"/>
		</g>
		<g>
			<circle fill="#666666" cx="41.5" cy="36.6" r="1.4"/>
			<path fill="#666666" d="M36.9,38.9L37,39l0.1,0.1c0.2-0.2,0.6-0.4,0.9-0.4c0.3,0,0.6,0.1,0.9,0.4c0.2,0.2,0.4,0.6,0.4,0.9
				c0,0.3-0.1,0.6-0.4,0.9c-0.2,0.2-0.6,0.4-0.9,0.4c-0.3,0-0.6-0.1-0.9-0.4c-0.2-0.2-0.4-0.6-0.4-0.9c0-0.3,0.1-0.6,0.4-0.9L37,39
				L36.9,38.9c-0.6,0.6-0.6,1.6,0,2.3c0.6,0.6,1.6,0.6,2.3,0c0.6-0.6,0.6-1.6,0-2.3C38.5,38.3,37.5,38.3,36.9,38.9z"/>
			<path fill="#666666" d="M43.8,32l0.1,0.1l0.1,0.1c0.2-0.2,0.6-0.4,0.9-0.4c0.3,0,0.6,0.1,0.9,0.4c0.2,0.2,0.4,0.6,0.4,0.9
				c0,0.3-0.1,0.6-0.4,0.9c-0.2,0.2-0.6,0.4-0.9,0.4c-0.3,0-0.6-0.1-0.9-0.4c-0.2-0.2-0.4-0.6-0.4-0.9c0-0.3,0.1-0.6,0.4-0.9
				l-0.1-0.1L43.8,32c-0.6,0.6-0.6,1.6,0,2.3c0.6,0.6,1.6,0.6,2.3,0c0.6-0.6,0.6-1.6,0-2.3C45.5,31.4,44.5,31.4,43.8,32z"/>
		</g>
		<path fill="#8C8C8C" d="M3.2,132.1l5.8-5.8c1.3-1.3,1.3-3.5,0-4.9l-5.8-5.8c-0.8-0.8-2-1.1-3.1-0.9v0.3c0.2,0,0.4-0.1,0.6-0.1
			c0.8,0,1.6,0.3,2.2,0.9l5.8,5.8c0.6,0.6,0.9,1.4,0.9,2.2c0,0.8-0.3,1.6-0.9,2.2L3,131.8c-0.6,0.6-1.4,0.9-2.2,0.9
			c-0.2,0-0.4,0-0.6-0.1v0.3C1.2,133.2,2.4,132.9,3.2,132.1z"/>
		<circle fill="#979797" cx="5.8" cy="118.9" r="1.4"/>
		<path fill="#8C8C8C" d="M4.9,128l0.1,0.1l0.1,0.1c0.2-0.2,0.5-0.4,0.9-0.4c0.3,0,0.6,0.1,0.9,0.4c0.2,0.2,0.4,0.6,0.4,0.9
			c0,0.3-0.1,0.6-0.4,0.9c-0.2,0.2-0.6,0.4-0.9,0.4c-0.3,0-0.6-0.1-0.9-0.4c-0.2-0.2-0.4-0.6-0.4-0.9c0-0.3,0.1-0.6,0.4-0.9L5,128.1
			L4.9,128c-0.6,0.6-0.6,1.6,0,2.2c0.6,0.6,1.6,0.6,2.2,0c0.6-0.6,0.6-1.6,0-2.2C6.5,127.4,5.5,127.4,4.9,128z"/>
		<path fill="#3F3F3F" d="M17.9,148.2L7.2,137.5c-0.6-0.6-0.8-1.3-0.8-2c0-0.7,0.3-1.5,0.8-2l10.7-10.7c0.6-0.6,1.3-0.8,2-0.8
			c0.7,0,1.5,0.3,2,0.8l13.8,13.8c1.4,1.4,3.6,1.4,4.9,0L60.3,117c1.4-1.4,1.4-3.6,0-4.9L37.1,88.9c-0.6-0.6-0.8-1.3-0.8-2
			c0-0.7,0.3-1.5,0.8-2l8.5-8.5c0.6-0.6,1.3-0.8,2-0.8c0.7,0,1.5,0.3,2,0.8l14.7,14.7c1.4,1.3,3.6,1.3,4.9,0L87,73.3
			c1.3-1.4,1.3-3.6,0-4.9L68.7,50.1l-0.4,0.4l18.3,18.3c0.6,0.6,0.8,1.3,0.8,2c0,0.7-0.3,1.5-0.8,2L68.7,90.7
			c-0.6,0.6-1.3,0.8-2,0.8c-0.7,0-1.5-0.3-2-0.8L50,76c-1.4-1.3-3.6-1.4-4.9,0l-8.5,8.5c-1.4,1.4-1.4,3.6,0,4.9l23.2,23.2
			c0.6,0.6,0.8,1.3,0.8,2c0,0.7-0.3,1.5-0.8,2l-19.6,19.6c-0.6,0.6-1.3,0.8-2,0.8c-0.7,0-1.5-0.3-2-0.8l-13.8-13.8
			c-1.4-1.4-3.6-1.4-4.9,0L6.7,133.1c-1.3,1.4-1.3,3.6,0,4.9l10.7,10.7c0.6,0.6,0.8,1.3,0.8,2c0,0.7-0.3,1.5-0.8,2L0.1,170v0.9
			l17.7-17.8C19.2,151.8,19.2,149.6,17.9,148.2z"/>
		<path fill="#666666" d="M20.6,91c0.7,0,1.5,0.3,2,0.8l15.6,15.6c1.4,1.3,3.6,1.3,4.9,0L65,85.6c1.3-1.4,1.3-3.6,0-4.9L39.6,55.3
			c-0.6-0.6-0.8-1.3-0.8-2c0-0.7,0.3-1.5,0.8-2l15.2-15.2l-0.4-0.4L39.1,50.8c-1.3,1.4-1.3,3.6,0,4.9l25.4,25.4
			c0.6,0.6,0.8,1.3,0.8,2c0,0.7-0.3,1.5-0.8,2L42.7,107c-0.6,0.6-1.3,0.8-2,0.8c-0.7,0-1.5-0.3-2-0.8L23.1,91.4
			c-1.4-1.3-3.6-1.3-4.9,0l-18,18v0.9l18.5-18.5C19.2,91.3,19.9,91,20.6,91z"/>
		<path fill="#B2B2B2" d="M11.6,152l15-15c1.2-1.2,1.2-3.1,0-4.2l-26-26c-0.2-0.2-0.4-0.4-0.5-0.7v1c0,0,0.1,0.1,0.1,0.1l26,26
			c0.5,0.5,0.7,1.1,0.7,1.7c0,0.6-0.2,1.3-0.7,1.7l-15,15c-0.5,0.5-1.1,0.7-1.7,0.7c-0.6,0-1.2-0.2-1.7-0.7l-7.7-7.7v0.8l7.3,7.3
			C8.6,153.2,10.5,153.2,11.6,152z"/>
		<path fill="#B2B2B2" d="M0.6,103.3l9.2-9.2c0.5-0.5,1.1-0.7,1.7-0.7c0.6,0,1.2,0.2,1.7,0.7l26.4,26.4c1.2,1.2,3.1,1.2,4.2,0
			l10.4-10.4c1.2-1.2,1.2-3.1,0-4.2l-39-39c-0.5-0.5-0.7-1.1-0.7-1.7c0-0.6,0.2-1.3,0.7-1.7l15.4-15.4c0.5-0.5,1.1-0.7,1.7-0.7
			c0.6,0,1.3,0.2,1.7,0.7l9.6,9.6c1.2,1.2,3.1,1.2,4.2,0L62,43.4l-0.4-0.4L47.5,57.3C47,57.7,46.4,58,45.7,58
			c-0.6,0-1.3-0.2-1.7-0.7l-9.6-9.6c-1.2-1.2-3.1-1.2-4.2,0L14.9,63.1c-1.2,1.2-1.2,3.1,0,4.2l39,39c0.5,0.5,0.7,1.1,0.7,1.7
			c0,0.6-0.2,1.3-0.7,1.7l-10.4,10.4c-0.5,0.5-1.1,0.7-1.7,0.7c-0.6,0-1.3-0.2-1.7-0.7L13.7,93.7c-1.2-1.2-3.1-1.2-4.2,0L0.2,103
			c0,0-0.1,0.1-0.1,0.1v1C0.3,103.8,0.4,103.5,0.6,103.3z"/>
		<path fill="#8C8C8C" d="M13.3,135.8c0.5-0.5,1.1-0.7,1.7-0.7c0.6,0,1.2,0.2,1.7,0.7l22.8,22.8c1.1,1.1,3,1.1,4.2,0l47-47
			c1.1-1.1,1.1-3,0-4.2L71,87.7c-0.5-0.5-0.7-1.1-0.7-1.7c0-0.6,0.2-1.2,0.7-1.7l15.9-15.9l-0.4-0.4L70.6,83.9c-1.1,1.1-1.1,3,0,4.2
			l19.7,19.7c0.5,0.5,0.7,1.1,0.7,1.7c0,0.6-0.2,1.2-0.7,1.7l-47,47c-0.5,0.5-1.1,0.7-1.7,0.7c-0.6,0-1.2-0.2-1.7-0.7l-22.8-22.8
			c-1.1-1.1-3-1.1-4.2,0L0.1,148.3v0.8L13.3,135.8z"/>
		<path fill="#8C8C8C" d="M14.5,187.8l6.1-6.1c1.1-1.1,1.1-3,0-4.2L0.1,157.1v0.8l20,20c0.5,0.5,0.7,1.1,0.7,1.7
			c0,0.6-0.2,1.2-0.7,1.7l-6.1,6.1c-0.5,0.5-1.1,0.7-1.7,0.7c-0.6,0-1.2-0.2-1.7-0.7L0.1,176.8v0.8l10.2,10.2
			C11.5,188.9,13.3,188.9,14.5,187.8z"/>
		<circle fill="#737373" cx="23.1" cy="55.8" r="7"/>
		<circle fill="#FFFFFF" cx="23.1" cy="55.8" r="3.6"/>
		<circle fill="#757575" cx="16.4" cy="147.3" r="4.5"/>
		<circle fill="#FFFFFF" cx="16.4" cy="147.3" r="2.2"/>
		<path fill="#737373" d="M4.4,172.4c1.7-1.7,1.7-4.6,0-6.3c-1.2-1.2-2.8-1.5-4.3-1.2v8.6C1.6,174,3.2,173.6,4.4,172.4z"/>
		<circle fill="#979797" cx="59.9" cy="141.6" r="4.5"/>
		<circle fill="#7C7C7C" cx="69.8" cy="131.7" r="4.5"/>
		<circle fill="#757575" cx="50" cy="151.5" r="4.5"/>
		<circle fill="#737373" cx="80.4" cy="121.1" r="4.5"/>
		<circle fill="#757575" cx="79.8" cy="97.5" r="5.7"/>
		<circle fill="#FFFFFF" cx="79.8" cy="97.5" r="2.4"/>
		<circle fill="#757575" cx="17" cy="184.8" r="5.7"/>
		<circle fill="#7C7C7C" cx="65.6" cy="63.5" r="5.7"/>
		<circle fill="#979797" cx="65.6" cy="63.5" r="3"/>
		<circle fill="#757575" cx="14.7" cy="95.3" r="5.7"/>
		<circle fill="#7C7C7C" cx="48.6" cy="100.9" r="7"/>
		<circle fill="#737373" cx="48.6" cy="100.9" r="4.3"/>
		<circle fill="#7C7C7C" cx="41.5" cy="80.2" r="2.9"/>
		<g>
			<path fill="#8C8C8C" d="M30.1,154.4c-1.6-1.6-4.2-1.6-5.8,0l-6.9,6.9c-1.6,1.6-1.6,4.2,0,5.8l6.9,6.9c1.6,1.6,4.2,1.6,5.8,0
				l6.9-6.9l-0.1-0.1l-0.1-0.1l-6.9,6.9c-0.7,0.7-1.7,1.1-2.6,1.1c-1,0-1.9-0.4-2.6-1.1l-6.9-6.9c-0.7-0.7-1.1-1.7-1.1-2.6
				c0-1,0.4-1.9,1.1-2.6l6.9-6.9c0.7-0.7,1.7-1.1,2.6-1.1c0.9,0,1.9,0.4,2.6,1.1l6.9,6.9c0.7,0.7,1.1,1.7,1.1,2.6
				c0,1-0.4,1.9-1.1,2.6l0.1,0.1l0.1,0.1c1.6-1.6,1.6-4.2,0-5.8L30.1,154.4z"/>
			<circle fill="#757575" cx="33.4" cy="170.4" r="1.6"/>
			<path fill="#979797" d="M20.1,169c-0.6,0.6-0.6,1.7,0,2.3c0.6,0.6,1.7,0.6,2.3,0c0.6-0.6,0.6-1.7,0-2.3
				C21.8,168.3,20.7,168.3,20.1,169z"/>
			<path fill="#8C8C8C" d="M19.7,156.7c-0.7,0.7-0.7,1.9,0,2.6c0.7,0.7,1.9,0.7,2.6,0l-0.1-0.1l-0.1-0.1c-0.3,0.3-0.7,0.4-1,0.4
				c-0.4,0-0.7-0.1-1-0.4c-0.3-0.3-0.4-0.7-0.4-1c0-0.4,0.1-0.7,0.4-1c0.3-0.3,0.7-0.4,1-0.4c0.4,0,0.7,0.1,1,0.4
				c0.3,0.3,0.4,0.7,0.4,1c0,0.4-0.1,0.7-0.4,1l0.1,0.1l0.1,0.1c0.7-0.7,0.7-1.9,0-2.6C21.6,156,20.4,156,19.7,156.7z"/>
			<polygon fill="#7C7C7C" points="34.1,155.8 32.6,157.2 31.2,158.6 33.1,159.2 35.1,159.7 34.6,157.7 			"/>
		</g>
		<g>
			<path fill="#8C8C8C" d="M24.3,23.8c-1.6-1.6-4.2-1.6-5.8,0l-6.9,6.9c-1.6,1.6-1.6,4.2,0,5.8l6.9,6.9l0.1-0.1l0.1-0.1l-6.9-6.9
				c-0.7-0.7-1.1-1.7-1.1-2.6c0-1,0.4-1.9,1.1-2.6l6.9-6.9c0.7-0.7,1.7-1.1,2.6-1.1c0.9,0,1.9,0.4,2.6,1.1l6.9,6.9
				c0.7,0.7,1.1,1.7,1.1,2.6c0,0.9-0.4,1.9-1.1,2.6L24,43.1c-0.7,0.7-1.7,1.1-2.6,1.1c-1,0-1.9-0.4-2.6-1.1l-0.1,0.1l-0.1,0.1
				c1.6,1.6,4.2,1.6,5.8,0l6.9-6.9c1.6-1.6,1.6-4.2,0-5.8L24.3,23.8z"/>
			<circle fill="#757575" cx="15.3" cy="39.7" r="1.6"/>
			<circle fill="#979797" cx="15.5" cy="27.6" r="1.6"/>
			<path fill="#8C8C8C" d="M26.3,26.1c-0.7,0.7-0.7,1.9,0,2.6l0.1-0.1l0.1-0.1c-0.3-0.3-0.4-0.7-0.4-1c0-0.4,0.1-0.7,0.4-1
				c0.3-0.3,0.7-0.4,1-0.4c0.4,0,0.7,0.1,1,0.4c0.3,0.3,0.4,0.7,0.4,1c0,0.4-0.1,0.7-0.4,1c-0.3,0.3-0.7,0.4-1,0.4
				c-0.4,0-0.7-0.1-1-0.4l-0.1,0.1l-0.1,0.1c0.7,0.7,1.9,0.7,2.6,0c0.7-0.7,0.7-1.9,0-2.6C28.2,25.4,27,25.4,26.3,26.1z"/>
			<polygon fill="#7C7C7C" points="27,37.6 26.5,39.5 26,41.5 27.9,41 29.9,40.4 28.4,39 			"/>
		</g>
		<g>
			<path fill="#8C8C8C" d="M9.7,88.1l6.9-6.9c1.6-1.6,1.6-4.2,0-5.8l-6.9-6.9l-0.1,0.1l-0.1,0.1l6.9,6.9c0.7,0.7,1.1,1.7,1.1,2.6
				c0,1-0.4,1.9-1.1,2.6l-6.9,6.9c-0.7,0.7-1.7,1.1-2.6,1.1c-0.9,0-1.9-0.4-2.6-1.1l-4.1-4.1v0.6l3.8,3.8
				C5.5,89.7,8.1,89.7,9.7,88.1z"/>
			<path fill="#8C8C8C" d="M4.2,68.8c0.7-0.7,1.7-1.1,2.6-1.1c1,0,1.9,0.4,2.6,1.1l0.1-0.1l0.1-0.1c-1.6-1.6-4.2-1.6-5.8,0l-3.8,3.8
				v0.6L4.2,68.8z"/>
			<circle fill="#757575" cx="13" cy="72.1" r="1.6"/>
			<path fill="#979797" d="M11.6,83.1c-0.6,0.6-0.6,1.7,0,2.3c0.6,0.6,1.7,0.6,2.3,0c0.6-0.6,0.6-1.7,0-2.3
				C13.3,82.4,12.2,82.4,11.6,83.1z"/>
			<path fill="#8C8C8C" d="M0.6,83.1c0.4,0,0.7,0.1,1,0.4l0.1-0.1l0.1-0.1c-0.5-0.5-1.2-0.6-1.8-0.5v0.4C0.3,83.1,0.5,83.1,0.6,83.1
				z"/>
			<path fill="#8C8C8C" d="M1.9,85.8c0.7-0.7,0.7-1.9,0-2.6l-0.1,0.1l-0.1,0.1c0.3,0.3,0.4,0.7,0.4,1c0,0.4-0.1,0.7-0.4,1
				C1.4,85.8,1,86,0.6,86c-0.2,0-0.3,0-0.5-0.1v0.4C0.8,86.4,1.4,86.3,1.9,85.8z"/>
			<polygon fill="#7C7C7C" points="1.8,72.4 2.3,70.4 0.3,70.9 0.1,71 0.1,73.2 1.2,74.3 			"/>
		</g>
		<g>
			<path fill="#8C8C8C" d="M97.5,84.7L97.5,84.7l-0.2,0.2l4.7,4.7c0.5,0.5,0.7,1.1,0.7,1.8c0,0.6-0.2,1.3-0.7,1.8l-4.7,4.7
				c-0.5,0.5-1.1,0.7-1.8,0.7c-0.6,0-1.3-0.2-1.8-0.7l-4.7-4.7c-0.5-0.5-0.7-1.1-0.7-1.8c0-0.6,0.2-1.3,0.7-1.8l4.7-4.7
				c0.5-0.5,1.1-0.7,1.8-0.7c0.6,0,1.3,0.2,1.8,0.7L97.5,84.7L97.5,84.7c-1.1-1.1-2.8-1.1-3.9,0l-4.7,4.7c-1.1,1.1-1.1,2.8,0,3.9
				l4.7,4.7c1.1,1.1,2.8,1.1,3.9,0l4.7-4.7c1.1-1.1,1.1-2.8,0-3.9L97.5,84.7z"/>
			<circle fill="#757575" cx="99.7" cy="87.1" r="1.1"/>
			<circle fill="#979797" cx="99.6" cy="95.3" r="1.1"/>
			<path fill="#8C8C8C" d="M92.2,94.7L92.2,94.7c0.1,0.3,0.2,0.5,0.2,0.8c0,0.3-0.1,0.5-0.3,0.7c-0.2,0.2-0.4,0.3-0.7,0.3
				c-0.3,0-0.5-0.1-0.7-0.3c-0.2-0.2-0.3-0.4-0.3-0.7c0-0.3,0.1-0.5,0.3-0.7c0.2-0.2,0.4-0.3,0.7-0.3C91.6,94.5,91.9,94.6,92.2,94.7
				L92.2,94.7L92.2,94.7c-0.4-0.6-1.2-0.6-1.7-0.1c-0.5,0.5-0.5,1.3,0,1.8c0.5,0.5,1.3,0.5,1.8,0C92.7,95.9,92.7,95.1,92.2,94.7
				L92.2,94.7z"/>
			<polygon fill="#7C7C7C" points="89.8,86.7 90.8,87.6 91.8,88.6 92.1,87.3 92.5,85.9 91.2,86.3 			"/>
		</g>
		<path fill="#8C8C8C" d="M68,55.6l-0.1,0.1l-0.1,0.1l5.8,5.8c0.6,0.6,0.9,1.4,0.9,2.2c0,0.8-0.3,1.6-0.9,2.2l-5.8,5.8
			c-0.6,0.6-1.4,0.9-2.2,0.9c-0.8,0-1.6-0.3-2.2-0.9L57.5,66c-0.6-0.6-0.9-1.4-0.9-2.2c0-0.8,0.3-1.6,0.9-2.2l5.8-5.8
			c0.6-0.6,1.4-0.9,2.2-0.9c0.8,0,1.6,0.3,2.2,0.9l0.1-0.1L68,55.6c-1.3-1.3-3.5-1.3-4.9,0l-5.8,5.8c-1.3,1.3-1.3,3.5,0,4.9l5.8,5.8
			c1.3,1.3,3.5,1.3,4.9,0l5.8-5.8c1.3-1.3,1.3-3.5,0-4.9L68,55.6z"/>
	</g>
	<polygon fill="#737373" points="48,35.7 49.5,37.2 51,38.7 51.5,36.7 52.1,34.6 50,35.2 	"/>
	<polygon fill="#757575" points="55.3,43 56.8,44.5 58.3,46 58.8,44 59.4,41.9 57.3,42.5 	"/>
	<circle fill="#979797" cx="63.4" cy="51.6" r="1.6"/>
</g>
</svg>
