<?xml version="1.0" encoding="utf-8"?>
<!-- Generator: Adobe Illustrator 18.1.1, SVG Export Plug-In . SVG Version: 6.00 Build 0)  -->
<!DOCTYPE svg PUBLIC "-//W3C//DTD SVG 1.0//EN" "http://www.w3.org/TR/2001/REC-SVG-20010904/DTD/svg10.dtd">
<svg version="1.0" xmlns="http://www.w3.org/2000/svg" xmlns:xlink="http://www.w3.org/1999/xlink" x="0px" y="0px"
	 viewBox="0 0 250 250" enable-background="new 0 0 250 250" xml:space="preserve">
<g id="Facebook_1_" display="none">
	<g id="Rounded_Rectangle_1" display="inline">
		<g>
			<path fill-rule="evenodd" clip-rule="evenodd" fill="#3C5B9A" d="M240,0H10C4.5,0,0,4.5,0,10v230c0,5.5,4.5,10,10,10h230
				c5.5,0,10-4.5,10-10V10C250,4.5,245.5,0,240,0z"/>
		</g>
	</g>
	<g id="Shape_6" display="inline">
		<g>
			<path fill-rule="evenodd" clip-rule="evenodd" fill="#FFFFFF" d="M192.2,74.9l19.8,0V41.5c-3.4-0.5-15.1-1.5-28.8-1.5
				c-28.5,0-48,17.4-48,49.3v27.5H103v37.3h32.2V250h38.5v-95.8h32.1l4.8-37.3h-36.9V93C173.7,82.2,176.7,74.9,192.2,74.9z"/>
		</g>
	</g>
</g>
<g id="Twitter_1_">
	<g id="Rounded_Rectangle_1_copy" display="none">
		<g display="inline">
			<path fill-rule="evenodd" clip-rule="evenodd" fill="#55ACEE" d="M240,0H10C4.5,0,0,4.5,0,10v230c0,5.5,4.5,10,10,10h230
				c5.5,0,10-4.5,10-10V10C250,4.5,245.5,0,240,0z"/>
		</g>
	</g>
	<g id="Shape_5">
		<g>
			<path fill-rule="evenodd" clip-rule="evenodd" fill="#FFFFFF" d="M213,70.9c-6.4,2.9-13.4,4.8-20.6,5.7
				c7.4-4.5,13.1-11.5,15.8-20c-6.9,4.1-14.6,7.1-22.8,8.8c-6.5-7-15.9-11.4-26.2-11.4c-19.8,0-35.9,16.2-35.9,36.1
				c0,2.8,0.3,5.6,0.9,8.2c-29.8-1.5-56.3-15.9-74-37.7c-3.1,5.3-4.9,11.5-4.9,18.1c0,12.5,6.3,23.6,16,30
				c-5.9-0.2-11.4-1.8-16.3-4.5c0,0.2,0,0.3,0,0.5c0,17.5,12.4,32.1,28.8,35.4c-3,0.8-6.2,1.3-9.5,1.3c-2.3,0-4.6-0.2-6.8-0.6
				c4.6,14.3,17.8,24.8,33.5,25.1c-12.3,9.7-27.8,15.5-44.6,15.5c-2.9,0-5.8-0.2-8.6-0.5C53.9,191,72.8,197,93,197
				c66,0,102.2-55,102.2-102.7c0-1.6,0-3.1-0.1-4.7C202.1,84.5,208.2,78.2,213,70.9z"/>
		</g>
	</g>
</g>
<g id="Google_x2B__1_" display="none">
	<g id="Rounded_Rectangle_1_copy_2">
		<g display="inline">
			<path fill-rule="evenodd" clip-rule="evenodd" fill="#DD4B39" d="M240,0H10C4.5,0,0,4.5,0,10v230c0,5.5,4.5,10,10,10h230
				c5.5,0,10-4.5,10-10V10C250,4.5,245.5,0,240,0z"/>
		</g>
	</g>
	<g id="Group_1_1_" display="inline">
		<g id="g">
			<g>
				<path fill-rule="evenodd" clip-rule="evenodd" fill="#FFFFFF" d="M142.4,149.7c-1.8-2.5-3.8-4.8-6.2-6.9
					c-2.4-2.1-4.8-4.3-7.2-6.4l-8.2-6.4c-1.2-1.1-2.5-2.3-3.9-3.8c-1.4-1.5-2.1-3.5-2.1-6.1s0.7-4.8,2.1-6.4
					c1.4-1.7,2.8-3.3,4.3-4.8c2.4-1.8,4.8-3.8,7.1-5.9c2.3-2.1,4.3-4.4,6.2-6.9s3.3-5.4,4.3-8.6c1.1-3.2,1.6-7,1.6-11.3
					c0-4.3-0.6-8.1-1.8-11.5c-1.2-3.4-2.7-6.3-4.3-8.9c-1.7-2.5-3.4-4.7-5.3-6.4c-1.8-1.8-3.4-3.2-4.8-4.3h14.2l14.6-8h-47.1
					c-6.2,0-13,0.8-20.2,2.3c-7.2,1.5-14.1,5-20.7,10.3c-4.9,4.3-8.5,9.2-11,14.6c-2.4,5.4-3.7,10.8-3.7,16.2
					c0,4.4,0.8,8.8,2.5,13.2c1.7,4.4,4.1,8.2,7.3,11.6c3.2,3.4,7.2,6.1,11.9,8.2c4.7,2.1,10.1,3.1,16.2,3.1c1.2,0,2.4,0,3.7-0.1
					c1.2-0.1,2.4-0.2,3.7-0.3c-0.6,1.4-1.1,2.7-1.6,4c-0.5,1.3-0.7,2.9-0.7,4.9c0,3.5,0.7,6.5,2.2,8.8c1.4,2.4,3,4.6,4.7,6.8
					c-2.6,0.2-5.6,0.4-9.1,0.7c-3.5,0.3-7.2,0.8-11.2,1.6c-4,0.8-8,1.8-12,3.1c-4,1.3-7.8,3-11.3,5.2c-6.7,4-11.3,8.6-13.8,13.9
					c-2.5,5.3-3.8,10-3.8,14.1c0,4.3,1,8.4,3,12.3c2,3.9,5,7.4,9.1,10.5c4.1,3.1,9.3,5.5,15.4,7.3c6.2,1.8,13.4,2.8,21.6,2.8
					c9.7,0,18.4-1.3,25.9-3.8c7.5-2.5,13.8-5.8,18.8-9.9c5-4.1,8.8-8.7,11.4-13.9c2.6-5.2,3.9-10.5,3.9-15.9c0-4-0.5-7.5-1.6-10.6
					C145.5,154.9,144.1,152.1,142.4,149.7z M99.1,110c-4.9,0-9.1-1.4-12.7-4.3c-3.6-2.8-6.5-6.3-8.9-10.5c-2.4-4.1-4.1-8.6-5.3-13.4
					c-1.1-4.8-1.7-9.1-1.7-12.9c0-3.1,0.3-6.1,1-9c0.7-2.9,2-5.6,4-8.1c1.8-2.3,4.2-4.1,7.1-5.5c2.9-1.4,5.9-2.1,8.9-2.1
					c4.7,0,8.9,1.4,12.4,4.3c3.6,2.8,6.6,6.4,9,10.7c2.4,4.3,4.3,8.9,5.5,13.8c1.2,4.9,1.8,9.4,1.8,13.6c0,2.2-0.3,4.8-0.9,8.1
					c-0.6,3.2-2.2,6.1-4.8,8.8c-1.8,1.8-4.2,3.4-7,4.6C104.8,109.4,102,110,99.1,110z M124.3,195.4c-5.7,4.7-14,7-25,7
					c-12.3,0-22.1-2.6-29.4-7.8c-7.2-5.2-10.9-11.9-10.9-20.2c0-4.1,0.8-7.6,2.4-10.3c1.6-2.8,3.5-5.1,5.6-6.9
					c2.1-1.8,4.3-3.3,6.5-4.2c2.2-1,3.9-1.7,5.1-2.2c2.4-0.8,4.9-1.4,7.5-2c2.6-0.5,5-0.9,7.3-1.1s4.3-0.4,5.9-0.5
					c1.7-0.1,2.7-0.1,3.2-0.1c1.2,0,2.2,0,2.9,0c0.7,0,1.5,0.1,2.4,0.2c4.3,3.1,8,5.8,11.2,8.3c3.2,2.4,5.8,4.8,7.8,7.1
					c2,2.3,3.5,4.6,4.5,7c1,2.4,1.5,5,1.5,7.9C132.9,184.8,130,190.7,124.3,195.4z"/>
			</g>
		</g>
		<g id="_x2B_">
			<g>
				<polygon fill-rule="evenodd" clip-rule="evenodd" fill="#FFFFFF" points="189.9,115.2 189.9,91.2 176.7,91.2 176.7,115.2 
					154.6,115.2 154.6,126.2 176.7,126.2 176.7,148.5 189.9,148.5 189.9,126.2 212,126.2 212,115.2 				"/>
			</g>
		</g>
	</g>
</g>
<g id="Pintrest_1_" display="none">
	<g id="Rounded_Rectangle_1_copy_2_1_" display="inline">
		<g>
			<path fill-rule="evenodd" clip-rule="evenodd" fill="#CB2027" d="M240,0H10C4.5,0,0,4.5,0,10v230c0,5.5,4.5,10,10,10h230
				c5.5,0,10-4.5,10-10V10C250,4.5,245.5,0,240,0z"/>
		</g>
	</g>
	<g id="Shape_4" display="inline">
		<g>
			<path fill-rule="evenodd" clip-rule="evenodd" fill="#FFFFFF" d="M125.5,38C77.2,38,38,77.2,38,125.5c0,37.1,23.1,68.7,55.6,81.5
				c-0.8-6.9-1.5-17.5,0.3-25.1c1.6-6.8,10.3-43.5,10.3-43.5s-2.6-5.2-2.6-13c0-12.2,7.1-21.2,15.8-21.2c7.5,0,11.1,5.6,11.1,12.3
				c0,7.5-4.8,18.7-7.2,29.1c-2.1,8.7,4.4,15.8,13,15.8c15.6,0,27.5-16.4,27.5-40.1c0-20.9-15.1-35.6-36.5-35.6
				c-24.9,0-39.5,18.7-39.5,38c0,7.5,2.9,15.6,6.5,20c0.7,0.9,0.8,1.6,0.6,2.5c-0.7,2.8-2.1,8.7-2.4,9.9c-0.4,1.6-1.3,1.9-2.9,1.2
				c-10.9-5.1-17.8-21.1-17.8-33.9c0-27.6,20.1-53,57.8-53c30.4,0,53.9,21.6,53.9,50.5c0,30.2-19,54.4-45.4,54.4
				c-8.9,0-17.2-4.6-20.1-10c0,0-4.4,16.7-5.5,20.8c-2,7.6-7.3,17.1-10.9,22.9c8.2,2.5,16.9,3.9,25.9,3.9
				c48.3,0,87.5-39.2,87.5-87.5C213,77.2,173.8,38,125.5,38z"/>
		</g>
	</g>
</g>
<g id="LinkedIn_1_" display="none">
	<g id="Rounded_Rectangle_1_copy_3">
		<g display="inline">
			<path fill-rule="evenodd" clip-rule="evenodd" fill="#0978B5" d="M240,0H10C4.5,0,0,4.5,0,10v230c0,5.5,4.5,10,10,10h230
				c5.5,0,10-4.5,10-10V10C250,4.5,245.5,0,240,0z"/>
		</g>
	</g>
	<g id="in" display="inline">
		<g>
			<path fill="#FFFFFF" d="M56.9,42C45.3,42,37.8,49.8,38,60.2c-0.2,9.9,7.3,18,18.6,18c11.8,0,19.3-8,19.3-18
				C75.7,49.8,68.4,42,56.9,42z M38.9,208h35.8V92.4H38.9V208z M171.7,89.8c-19.1,0-30.9,11.1-35.6,18.4h-0.7l-1.7-15.8h-31.1
				c0.5,10.2,0.9,22.5,0.9,36.9V208h35.8v-66.7c0-3.3,0.5-6.9,1.4-9c2.4-6.6,8.3-13.5,18.2-13.5c13,0,18.2,10.2,18.2,25.1V208H213
				v-68.6C213,105.4,195.3,89.8,171.7,89.8z"/>
		</g>
	</g>
</g>
<g id="YouTube_1_" display="none">
	<g id="Rounded_Rectangle_1_copy_4">
		<g display="inline">
			<path fill-rule="evenodd" clip-rule="evenodd" fill="#B31512" d="M240,0H10C4.5,0,0,4.5,0,10v230c0,5.5,4.5,10,10,10h230
				c5.5,0,10-4.5,10-10V10C250,4.5,245.5,0,240,0z"/>
		</g>
	</g>
	<g id="Shape_3" display="inline">
		<g>
			<path fill="#FFFFFF" d="M211.3,89.5c0,0-1.7-12.1-7-17.4c-6.7-7-14.1-7-17.5-7.4C162.3,63,125.5,63,125.5,63h-0.1
				c0,0-36.7,0-61.2,1.8c-3.4,0.4-10.9,0.4-17.5,7.4c-5.2,5.3-7,17.4-7,17.4S38,103.7,38,117.8v13.3c0,14.2,1.8,28.3,1.8,28.3
				s1.7,12.1,7,17.4c6.7,7,15.4,6.7,19.3,7.5c14,1.3,59.5,1.8,59.5,1.8s36.8-0.1,61.3-1.8c3.4-0.4,10.9-0.4,17.5-7.4
				c5.2-5.3,7-17.4,7-17.4s1.7-14.2,1.7-28.3v-13.3C213,103.7,211.3,89.5,211.3,89.5z M107.4,147.2l0-49.1l47.3,24.7L107.4,147.2z"
				/>
		</g>
	</g>
</g>
<g id="DeviantArt_1_" display="none">
	<g id="Rounded_Rectangle_1_copy_4_1_" display="inline">
		<g>
			<path fill-rule="evenodd" clip-rule="evenodd" fill="#05CC47" d="M240,0H10C4.5,0,0,4.5,0,10v230c0,5.5,4.5,10,10,10h230
				c5.5,0,10-4.5,10-10V10C250,4.5,245.5,0,240,0z"/>
		</g>
	</g>
	<g id="Shape_2" display="inline">
		<g>
			<polygon fill-rule="evenodd" clip-rule="evenodd" fill="#FFFFFF" points="177.4,73 179,69.8 179,38 179,38 147.3,38 144.1,41.2 
				129.1,69.8 124.4,73 71,73 71,116.7 100.4,116.7 103,119.9 72.6,178 72.6,178 71,181.2 71,213 71,213 102.7,213 105.9,209.8 
				120.9,181.2 125.6,178 179,178 179,134.3 149.6,134.3 147,131.1 177.4,73 			"/>
		</g>
	</g>
</g>
<g id="Behance_1_" display="none">
	<g id="Rounded_Rectangle_1_copy_4_2_">
		<g display="inline">
			<path fill-rule="evenodd" clip-rule="evenodd" fill="#4176FB" d="M240,0H10C4.5,0,0,4.5,0,10v230c0,5.5,4.5,10,10,10h230
				c5.5,0,10-4.5,10-10V10C250,4.5,245.5,0,240,0z"/>
		</g>
	</g>
	<g id="Shape_1" display="inline">
		<g>
			<path fill="#FFFFFF" d="M107.5,119.2c4.9-2.3,8.5-5.3,11-8.9c2.5-3.6,3.7-8.2,3.7-13.6c0-5-0.8-9.3-2.5-12.7
				c-1.7-3.4-4-6.2-7-8.2c-3-2.1-6.7-3.6-10.9-4.5c-4.2-0.9-8.9-1.4-14-1.4H37v108h52.2c4.8,0,9.5-0.6,14.1-1.8
				c4.6-1.2,8.7-3.1,12.2-5.6c3.5-2.5,6.4-5.8,8.5-9.8c2.1-4,3.1-8.7,3.1-14.2c0-6.8-1.6-12.5-4.9-17.3
				C119,124.5,114.1,121.2,107.5,119.2z M60.7,88.4h22.2c2.1,0,4.1,0.1,6.1,0.5c2,0.3,3.7,1,5.2,1.9c1.5,0.9,2.7,2.1,3.7,3.8
				c0.9,1.6,1.3,3.7,1.3,6.2c0,4.5-1.3,7.8-4,9.8c-2.8,2-6.2,3-10.4,3h-24V88.4z M102.1,152.3c-1,1.8-2.3,3.3-3.9,4.3
				c-1.6,1.1-3.5,1.8-5.6,2.3c-2.1,0.5-4.3,0.7-6.6,0.7H60.7v-29.7h25.8c5.1,0,9.2,1.2,12.4,3.5c3.1,2.4,4.7,6.4,4.7,11.9
				C103.5,148.2,103,150.5,102.1,152.3z M210.4,126.7c-1.4-5.6-3.7-10.5-6.8-14.8c-3.2-4.3-7.2-7.8-12.2-10.4
				c-4.9-2.6-10.7-3.9-17.3-3.9c-6,0-11.4,1.1-16.3,3.2c-4.9,2.1-9.1,5-12.6,8.7c-3.5,3.7-6.2,8-8.2,13.1c-1.9,5-2.9,10.5-2.9,16.4
				c0,6,0.9,11.6,2.8,16.7c1.9,5.1,4.5,9.4,7.9,13c3.5,3.6,7.6,6.4,12.6,8.4c5,2,10.5,3,16.6,3c8.8,0,16.4-2,22.6-6.1
				c6.3-4,10.9-10.8,13.9-20.2h-18.9c-0.7,2.4-2.6,4.7-5.7,6.9c-3.1,2.2-6.9,3.3-11.2,3.3c-6,0-10.6-1.6-13.8-4.7
				c-3.2-3.1-5.3-9-5.3-15.2h56.2C212.3,138,211.8,132.2,210.4,126.7z M155.6,130.5c0.1-1.5,0.4-3.3,1-5.1c0.5-2,1.5-3.8,2.9-5.5
				c1.4-1.7,3.2-3.1,5.4-4.3c2.3-1.2,5.1-1.8,8.5-1.8c5.3,0,9.6,1.5,12.1,4.4c2.6,2.8,4.4,6.9,4.9,12.4H155.6z M194.9,77.2h-43.6
				v10.7h43.6V77.2z"/>
		</g>
	</g>
</g>
<g id="Dribbble_1_" display="none">
	<g id="Rounded_Rectangle_1_copy_4_3_" display="inline">
		<g>
			<path fill-rule="evenodd" clip-rule="evenodd" fill="#EA4C89" d="M240,0H10C4.5,0,0,4.5,0,10v230c0,5.5,4.5,10,10,10h230
				c5.5,0,10-4.5,10-10V10C250,4.5,245.5,0,240,0z"/>
		</g>
	</g>
	<g id="ball" display="inline">
		<g>
			<path fill-rule="evenodd" clip-rule="evenodd" fill="#FFFFFF" d="M125.5,38C77.3,38,38,77.3,38,125.5S77.3,213,125.5,213
				s87.5-39.3,87.5-87.5S173.7,38,125.5,38z M183.4,78.3c10.4,12.7,16.7,28.9,16.9,46.6c-2.5-0.5-27.2-5.5-52-2.4
				c-0.5-1.3-1.1-2.6-1.6-3.9c-1.6-3.6-3.2-7.3-5-10.8C169.3,96.5,181.8,80.5,183.4,78.3z M125.5,50.9c19,0,36.3,7.1,49.5,18.8
				c-1.3,1.9-12.6,17-39.2,27c-12.2-22.5-25.8-41-27.9-43.8C113.6,51.6,119.5,50.9,125.5,50.9z M93.7,58c2,2.7,15.3,21.2,27.7,43.2
				c-35,9.3-65.8,9.2-69.1,9.1C57.2,87.1,72.8,67.8,93.7,58z M50.8,125.6c0-0.8,0-1.5,0-2.3c3.3,0.1,39.5,0.5,76.8-10.6
				c2.1,4.2,4.2,8.4,6.1,12.7c-1,0.3-2,0.6-2.9,0.9c-38.5,12.5-59.1,46.4-60.8,49.3C58,162.3,50.8,144.8,50.8,125.6z M125.5,200.4
				c-17.3,0-33.2-5.9-45.9-15.8c1.3-2.7,16.5-32,58.6-46.7c0.2-0.1,0.3-0.1,0.5-0.2c10.5,27.3,14.8,50.1,15.9,56.7
				C145.7,198.2,135.9,200.4,125.5,200.4z M167.3,187.6c-0.8-4.5-4.7-26.4-14.5-53.3c23.4-3.7,44,2.4,46.6,3.2
				C196,158.3,184,176.2,167.3,187.6z"/>
		</g>
	</g>
</g>
<g id="GitHub_1_" display="none">
	<g id="Rounded_Rectangle_1_copy_4_4_">
		<g display="inline">
			<path fill-rule="evenodd" clip-rule="evenodd" fill="#4183C4" d="M240,0H10C4.5,0,0,4.5,0,10v230c0,5.5,4.5,10,10,10h230
				c5.5,0,10-4.5,10-10V10C250,4.5,245.5,0,240,0z"/>
		</g>
	</g>
	<g id="Shape_7" display="inline">
		<g>
			<path fill-rule="evenodd" clip-rule="evenodd" fill="#FFFFFF" d="M125.5,42C77.2,42,38,80.8,38,128.6c0,38.3,25.1,70.8,59.8,82.2
				c4.4,0.8,6-1.9,6-4.2c0-2.1-0.1-7.5-0.1-14.7c-24.3,5.2-29.5-11.6-29.5-11.6c-4-10-9.7-12.7-9.7-12.7c-7.9-5.4,0.6-5.3,0.6-5.3
				c8.8,0.6,13.4,8.9,13.4,8.9c7.8,13.2,20.5,9.4,25.5,7.2c0.8-5.6,3.1-9.4,5.6-11.6c-19.4-2.2-39.9-9.6-39.9-42.8
				c0-9.5,3.4-17.2,9-23.2c-0.9-2.2-3.9-11,0.9-22.9c0,0,7.3-2.3,24.1,8.9c7-1.9,14.5-2.9,21.9-2.9c7.4,0,14.9,1,21.9,2.9
				c16.7-11.2,24-8.9,24-8.9c4.8,11.9,1.8,20.7,0.9,22.9c5.6,6.1,9,13.8,9,23.2c0,33.3-20.5,40.6-40,42.8c3.1,2.7,5.9,8,5.9,16
				c0,11.6-0.1,20.9-0.1,23.8c0,2.3,1.6,5,6,4.2c34.7-11.5,59.8-43.9,59.8-82.2C213,80.8,173.8,42,125.5,42z"/>
		</g>
	</g>
</g>
<g id="Web_1_" display="none">
	<g id="Rounded_Rectangle_1_copy_4_5_">
		<g display="inline">
			<path fill-rule="evenodd" clip-rule="evenodd" fill="#95A5A6" d="M240,0H10C4.5,0,0,4.5,0,10v230c0,5.5,4.5,10,10,10h230
				c5.5,0,10-4.5,10-10V10C250,4.5,245.5,0,240,0z"/>
		</g>
	</g>
	<g id="earth" display="inline">
		<g>
			<path fill-rule="evenodd" clip-rule="evenodd" fill="#FFFFFF" d="M125.5,36.8c-48.2,0-87.3,39-87.3,87.1
				c0,48.1,39.1,87.1,87.3,87.1c48.2,0,87.3-39,87.3-87.1C212.8,75.8,173.7,36.8,125.5,36.8z M112.4,193.7
				c-33.1-6.1-58.1-35-58.1-69.8c0-29.4,17.9-54.6,43.5-65.4c1.2-0.5,2.7,0,3.3,1.2c1.1,2.6-1.1,5.6-10.5,12.9
				c-11.9,9.2-13.9,16.9-11.6,32.1c2.3,15.2,11.3,15.6,16.9,27.1c5.6,11.5,0.5,21.2,9.1,40.9c3.8,7.9,8.6,12.8,10.6,16.7
				C116.5,191.7,114.7,194.1,112.4,193.7z M189.7,154.7c-9.3,19.2-26.9,33.6-48.3,38.4c-4.4,1-8.9-2.2-9.4-6.7l0,0
				c-0.5-6,4.1-18.2,13.3-27.7c16.5-17,3.9-25.8-12-27.9c-16-2.2-27,4.2-30.9-6.4c-3.9-10.6,3.1-15.1,5.5-15.9
				c2.4-0.8,6.9-3.3,14.3,5.6c3.1,3.1,7.3,3.6,7.2-0.3c-0.1-3.9-4.9-11.7,0.3-17.8c5.2-6.1,17.2-9.2,16.6-18.3
				c-0.5-9.1-8.3-12.9-17.5-10.5c-9.2,2.4-14.2,4.2-16.8-3.7c-0.6-1.8-1.1-3.5-1.5-5.1c-0.5-2.1,0.8-4.2,2.9-4.5
				c3.9-0.7,7.9-1.1,12-1.1c29,0,53.9,17.2,65,42c3.8,8.3-1,18.2-9.9,20.2l-0.2,0c-10.9,2.5-16.1,6.8-3.8,17.3c3,2,6.2,3.9,9.1,6.1
				C190.7,142.3,192.4,149.1,189.7,154.7z"/>
		</g>
	</g>
</g>
</svg>
