<?xml version='1.0'?><!DOCTYPE svg PUBLIC '-//W3C//DTD SVG 1.1//EN' 'http://www.w3.org/Graphics/SVG/1.1/DTD/svg11.dtd'>
<svg version='1.1' xmlns='http://www.w3.org/2000/svg' xmlns:xlink='http://www.w3.org/1999/xlink'>
  <defs>
    <style type='text/css'>
    .icon {display: none;}
    .icon:target {display: block;}
    </style>
  </defs>
  
      <svg class="icon" id="coin" viewBox="0 0 24 24">
        <path d="M11.99,2 C6.47,2 2,6.48 2,12 C2,17.52 6.47,22 11.99,22 C17.52,22 22,17.52 22,12 C22,6.48 17.52,2 11.99,2 L11.99,2 Z M16.23,18 L12,15.45 L7.77,18 L8.89,13.19 L5.16,9.96 L10.08,9.54 L12,5 L13.92,9.53 L18.84,9.95 L15.11,13.18 L16.23,18 L16.23,18 Z" />
      </svg>

      <svg class="icon" id="bomb" viewBox="0 0 24 24">
        <path d="M18.5037537,8.08961243 C18.9883871,7.47612269 20.423871,5.45594674 19.7484457,3.79852738 C19.3289736,2.77014029 18.2505572,2.17002299 16.5428152,2.01436316 C15.2819941,1.89530158 14.0056891,2.53770627 12.7680938,3.15442181 C10.7053372,4.18204645 9.36422287,4.72409923 8.14369501,3.58445114 C7.82815249,3.28967108 7.33331378,3.30656258 7.03835777,3.6221051 C6.74404692,3.93735436 6.76029326,4.43213442 7.07583578,4.72656258 C9.17765396,6.69037489 11.5553079,5.50527225 13.4657478,4.55365935 C14.5557771,4.01025759 15.5841642,3.49143061 16.4008798,3.57137196 C17.0083871,3.62632797 18.0614663,3.80591741 18.2995308,4.3877356 C18.5784751,5.0678529 17.9008798,6.28110803 17.3887977,6.97424586 L16.6139003,6.19940715 C16.308563,5.89406991 15.8137243,5.89406991 15.5080938,6.19940715 L14.419824,7.28838076 C13.5189443,6.92527225 12.5743109,6.74104938 11.6026393,6.74104938 C7.41055718,6.74104938 4,10.1516652 4,14.3437473 C4,18.5358294 7.41055718,21.9464453 11.6026393,21.9464453 C15.7947214,21.9464453 19.2052786,18.5358294 19.2052786,14.3437473 C19.2052786,13.1920758 18.9390029,12.0527209 18.4312023,11.0155948 L19.3775367,10.0692605 C19.6835777,9.76392328 19.6835777,9.26908457 19.3775367,8.96339542 L18.5037537,8.08961243 L18.5037537,8.08961243 Z" />
      </svg>

      <svg class="icon" id="play" viewBox="0 0 24 24">
        <path d="M12,2 C6.48,2 2,6.48 2,12 C2,17.52 6.48,22 12,22 C17.52,22 22,17.52 22,12 C22,6.48 17.52,2 12,2 L12,2 Z M10,16.5 L10,7.5 L16,12 L10,16.5 L10,16.5 Z" />
      </svg>

      <svg class="icon" id="brush" viewBox="0 0 24 24">
        <path d="M7.49875,14.00125 C5.83875,14.00125 4.49875,15.34125 4.49875,17.00125 C4.49875,18.31125 3.33875,19.00125 2.49875,19.00125 C3.41875,20.22125 4.98875,21.00125 6.49875,21.00125 C8.70875,21.00125 10.49875,19.21125 10.49875,17.00125 C10.49875,15.34125 9.15875,14.00125 7.49875,14.00125 L7.49875,14.00125 Z M21.20875,4.63125 L19.86875,3.29125 C19.47875,2.90125 18.84875,2.90125 18.45875,3.29125 L9.49875,12.25125 L12.24875,15.00125 L21.20875,6.04125 C21.59875,5.65125 21.59875,5.02125 21.20875,4.63125 L21.20875,4.63125 Z" />
      </svg>

      <svg class="icon" id="eraser" viewBox="0 0 24 24">
        <path d="M20.7922946,8.35598959 L15.6440007,3.20774764 C15.3670602,2.93080715 14.9180139,2.93075512 14.6410734,3.20774764 L6.64450142,11.2043717 L12.7956706,17.3555409 L20.7922946,9.35896886 C21.0692351,9.08208041 21.0692351,8.63303413 20.7922946,8.35598959 Z M5.37415465,12.4746664 L3.20774438,14.6410767 C2.93075187,14.9179651 2.93075187,15.3670114 3.20774438,15.6438999 L8.35603836,20.7923499 C8.63297885,21.0692384 9.08202513,21.0691343 9.35896561,20.7923499 L11.5253239,18.6258876 L5.37415465,12.4746664 Z" />
      </svg>

      <svg class="icon" id="undo" viewBox="0 0 24 24">
        <path d="M12.265,8.5 C9.615,8.5 7.215,9.49 5.365,11.1 L1.765,7.5 L1.765,16.5 L10.765,16.5 L7.145,12.88 C8.535,11.72 10.305,11 12.265,11 C15.805,11 18.815,13.31 19.865,16.5 L22.235,15.72 C20.845,11.53 16.915,8.5 12.265,8.5 L12.265,8.5 Z" />
      </svg>

      <svg class="icon" id="delete" viewBox="0 0 24 24">
        <path d="M6,19 C6,20.1 6.9,21 8,21 L16,21 C17.1,21 18,20.1 18,19 L18,7 L6,7 L6,19 L6,19 Z M19,4 L15.5,4 L14.5,3 L9.5,3 L8.5,4 L5,4 L5,6 L19,6 L19,4 L19,4 Z" />
      </svg>

      <svg class="icon" id="kik" viewBox="0 0 24 24">
        <path d="M4.50000017,18.298347 L4.50017421,5.74750616 L4.50187068,5.74752337 C4.50062816,5.72142937 4.5,5.69517882 4.5,5.66878517 C4.5,4.74701728 5.26609719,4 6.21076165,4 C7.15551323,4 7.9214362,4.74701728 7.9214362,5.66878517 C7.9214362,5.7068937 7.92012698,5.74470391 7.91755,5.78217532 L7.91755,5.78217532 L7.9780551,5.78278914 L7.99512787,11.9026389 L11.1556958,8.94992542 C11.4746889,8.57015514 11.9636837,8.32715812 12.5117477,8.32715812 C13.4727881,8.32715812 14.2516899,9.07392575 14.2516899,9.99519436 C14.2516899,10.4482743 14.063299,10.8592085 13.7575025,11.1598663 L13.7575025,11.1598663 L13.782537,11.1821671 L11.5173457,13.3132093 L14.6833,17.3903908 L14.6501007,17.4134064 L14.6501007,17.4134064 C14.8257249,17.6756637 14.9277194,17.9884945 14.9277194,18.3243912 C14.9277194,19.2496541 14.1535214,20 13.1983171,20 C12.5298108,20 11.9498172,19.6325886 11.6618296,19.0948774 L8.84362733,15.4957613 L7.96525052,16.2740672 L7.96516341,18.4397266 L7.90169383,18.4373626 C7.82920511,19.2841953 7.09689378,19.949572 6.20379318,19.949572 C5.26651096,19.949572 4.50645993,19.2168703 4.50004096,18.3106624 L4.50000015,18.2997957 C4.50000005,18.2995618 4.5,18.2993279 4.5,18.299094 C4.5,18.298845 4.50000006,18.298596 4.50000017,18.298347 Z M17.5746963,11.8221704 C18.6381733,11.8221704 19.5,12.6419173 19.5,13.653224 C19.5,14.6645308 18.6381733,15.4842776 17.5746963,15.4842776 C16.5113064,15.4842776 15.6495668,14.6645308 15.6495668,13.653224 C15.6495668,12.6420005 16.5113064,11.8221704 17.5746963,11.8221704 Z" />
      </svg>

      <svg class="icon" id="random" viewBox="0 0 24 24">
        <path d="M10.59,9.17 L5.41,4 L4,5.41 L9.17,10.58 L10.59,9.17 L10.59,9.17 Z M14.5,4 L16.54,6.04 L4,18.59 L5.41,20 L17.96,7.46 L20,9.5 L20,4 L14.5,4 L14.5,4 Z M14.83,13.41 L13.42,14.82 L16.55,17.95 L14.5,20 L20,20 L20,14.5 L17.96,16.54 L14.83,13.41 L14.83,13.41 Z" />
      </svg>

      <svg class="icon" id="draw" viewBox="0 0 24 24">
        <path d="M3.92731278,6.38325991 C4.69823789,5.60132159 5.469163,4.89647577 5.81057269,5.03964758 C6.36123348,5.25991189 5.81057269,6.17400881 5.48017621,6.71365639 C5.20484581,7.17621145 2.33039648,10.9977974 2.33039648,13.6629956 C2.33039648,15.0726872 2.85903084,16.2400881 3.8061674,16.9449339 C4.63215859,17.561674 5.72246696,17.7488987 6.71365639,17.4515419 C7.89207048,17.1101322 8.86123348,15.9096916 10.0837004,14.4008811 C11.4162996,12.7599119 13.2004405,10.6123348 14.5770925,10.6123348 C16.3722467,10.6123348 16.3942731,11.7246696 16.5154185,12.5837004 C12.3524229,13.2885463 10.5903084,16.6255507 10.5903084,18.4977974 C10.5903084,20.3700441 12.1762115,21.9008811 14.1255507,21.9008811 C15.9207048,21.9008811 18.8502203,20.4361233 19.2907489,15.1828194 L22,15.1828194 L22,12.4295154 L19.2797357,12.4295154 C19.1145374,10.6123348 18.0792952,7.80396476 14.8414097,7.80396476 C12.3634361,7.80396476 10.2378855,9.90748899 9.40088106,10.9317181 C8.76211454,11.7356828 7.13215859,13.6629956 6.87885463,13.9273128 C6.60352423,14.2577093 6.12995595,14.8524229 5.65638767,14.8524229 C5.16079295,14.8524229 4.86343612,13.938326 5.25991189,12.7378855 C5.64537445,11.5374449 6.80176211,9.58810573 7.29735683,8.86123348 C8.15638767,7.60572687 8.72907489,6.74669604 8.72907489,5.24889868 C8.72907489,2.85903084 6.92290749,2.09911894 5.96475771,2.09911894 C4.51101322,2.09911894 3.24449339,3.20044053 2.969163,3.47577093 C2.57268722,3.8722467 2.24229075,4.20264317 2,4.5 L3.92731278,6.38325991 L3.92731278,6.38325991 Z M14.1585903,19.2246696 C13.8171806,19.2246696 13.3436123,18.938326 13.3436123,18.4317181 C13.3436123,17.7709251 14.1475771,16.0088106 16.5044053,15.3920705 C16.1740088,18.3546256 14.9295154,19.2246696 14.1585903,19.2246696 L14.1585903,19.2246696 Z" />
      </svg>

      <svg class="icon" id="guess" viewBox="0 0 24 24">
        <path d="M12,2 C6.48,2 2,6.48 2,12 C2,17.52 6.48,22 12,22 C17.52,22 22,17.52 22,12 C22,6.48 17.52,2 12,2 L12,2 Z M13,19 L11,19 L11,17 L13,17 L13,19 L13,19 Z M15.07,11.25 L14.17,12.17 C13.45,12.9 13,13.5 13,15 L11,15 L11,14.5 C11,13.4 11.45,12.4 12.17,11.67 L13.41,10.41 C13.78,10.05 14,9.55 14,9 C14,7.9 13.1,7 12,7 C10.9,7 10,7.9 10,9 L8,9 C8,6.79 9.79,5 12,5 C14.21,5 16,6.79 16,9 C16,9.88 15.64,10.68 15.07,11.25 L15.07,11.25 Z" />
      </svg>

</svg>
