<?xml version='1.0'?><!DOCTYPE svg PUBLIC '-//W3C//DTD SVG 1.1//EN' 'http://www.w3.org/Graphics/SVG/1.1/DTD/svg11.dtd'>
<svg version='1.1' xmlns='http://www.w3.org/2000/svg' xmlns:xlink='http://www.w3.org/1999/xlink'>
  <defs>
    <style type='text/css'>
    .icon {display: none;}
    .icon:target {display: block;}
    </style>
  </defs>

      <svg class="icon" id="add" viewBox="0 0 24 24">
        <path d="M19,13 L13,13 L13,19 L11,19 L11,13 L5,13 L5,11 L11,11 L11,5 L13,5 L13,11 L19,11 L19,13 L19,13 Z" />
      </svg>

      <svg class="icon" id="add-circle" viewBox="0 0 24 24">
        <path d="M12,2 C6.48,2 2,6.48 2,12 C2,17.52 6.48,22 12,22 C17.52,22 22,17.52 22,12 C22,6.48 17.52,2 12,2 L12,2 Z M17,13 L13,13 L13,17 L11,17 L11,13 L7,13 L7,11 L11,11 L11,7 L13,7 L13,11 L17,11 L17,13 L17,13 Z" />
      </svg>

      <svg class="icon" id="ads" viewBox="0 0 24 24">
        <path d="M11,17 L13,17 L13,16 L14,16 C14.55,16 15,15.55 15,15 L15,12 C15,11.45 14.55,11 14,11 L11,11 L11,10 L15,10 L15,8 L13,8 L13,7 L11,7 L11,8 L10,8 C9.45,8 9,8.45 9,9 L9,12 C9,12.55 9.45,13 10,13 L13,13 L13,14 L9,14 L9,16 L11,16 L11,17 L11,17 Z M20,4 L4,4 C2.89,4 2.01,4.89 2.01,6 L2,18 C2,19.11 2.89,20 4,20 L20,20 C21.11,20 22,19.11 22,18 L22,6 C22,4.89 21.11,4 20,4 L20,4 Z M20,18 L4,18 L4,6 L20,6 L20,18 Z M6,20 L9,20 L9,21 L6,21 L6,20 Z M15,20 L18,20 L18,21 L15,21 L15,20 Z" />
      </svg>

      <svg class="icon" id="achievement" viewBox="0 0 24 24">
        <path d="M14.4647947,14.3112341 C20.0854532,10.4145044 20.7473959,6.98848698 20.9950223,4.25837024 C21.0611919,3.52716525 20.4581058,2.922793 19.7550972,3.00804183 C17.9942883,3.22180283 14.8655395,3.50493119 11.9999927,3.50493119 C9.13434038,3.50493119 6.00573226,3.22180283 4.24492332,3.00804183 C3.5417389,2.922793 2.93868794,3.52716525 3.00499823,4.25837024 C3.25248399,6.98848698 3.91442664,10.4145044 9.53508518,14.3112341 C10.3954313,14.9076108 10.9212023,15.943302 10.9150846,17.0168897 C10.9119554,17.5192554 10.5831112,17.9488584 10.1156342,18.0793421 C9.19428685,18.3362934 7.79245355,18.8663695 7.77874146,19.715353 C7.77726477,20.3555042 9.16106139,21 12.0008013,21 C14.8404358,21 16.2224745,20.3555042 16.2209978,19.715353 C16.2072857,18.8663695 14.8054524,18.3362934 13.884105,18.0793421 C13.416628,17.9488584 13.0877487,17.4867623 13.0846546,16.98436 C13.0785369,15.9106628 13.6044486,14.9077569 14.4647947,14.3113801 L14.4647947,14.3112341 L14.4647947,14.3112341 Z M6.96505161,10.4902243 C5.61419918,9.08327172 4.55478153,6.91108761 4.45633571,4.87851444 C4.44304553,4.60228631 4.69053128,4.3876856 4.95457703,4.42594718 L6.28032577,4.61831382 C6.73303591,4.68403027 7.07963551,5.07482407 7.09661741,5.54878568 C7.13388618,6.5814101 7.25799823,8.25542704 7.68518277,10.0486463 C7.79055495,10.490772 7.27480434,10.8128921 6.96505161,10.4902243 L6.96505161,10.4902243 L6.96505161,10.4902243 Z M16.3311165,10.0486463 C16.758301,8.25542704 16.8823779,6.5814101 16.9195412,5.54878568 C16.9366286,5.07482407 17.2832633,4.68403027 17.7359383,4.61831382 L19.061687,4.42594718 C19.3257328,4.3876856 19.5732537,4.60228631 19.5599635,4.87851444 C19.4614825,6.91108761 18.4020649,9.08327172 17.0512125,10.4902243 C16.7414949,10.8128921 16.2258849,10.490772 16.3311165,10.0486463 L16.3311165,10.0486463 L16.3311165,10.0486463 Z" />
      </svg>

      <svg class="icon" id="arrow-back" viewBox="0 0 24 24">
        <path d="M20,11 L7.83,11 L13.42,5.41 L12,4 L4,12 L12,20 L13.41,18.59 L7.83,13 L20,13 L20,11 L20,11 Z" />
      </svg>

      <svg class="icon" id="arrow-forward" viewBox="0 0 24 24">
        <path d="M20,11 L7.83,11 L13.42,5.41 L12,4 L4,12 L12,20 L13.41,18.59 L7.83,13 L20,13 L20,11 L20,11 Z" transform="translate(11.000000, 11.000000) rotate(-180.000000) translate(-11.000000, -11.000000) " />
      </svg>

      <svg class="icon" id="arrow-up" viewBox="0 0 24 24">
        <path d="M20,11 L7.83,11 L13.42,5.41 L12,4 L4,12 L12,20 L13.41,18.59 L7.83,13 L20,13 L20,11 L20,11 Z" transform="translate(11.000000, 11.000000) rotate(90.000000) translate(-11.000000, -11.000000) " />
      </svg>

      <svg class="icon" id="arrow-down" viewBox="0 0 24 24">
        <path d="M20,11 L7.83,11 L13.42,5.41 L12,4 L4,12 L12,20 L13.41,18.59 L7.83,13 L20,13 L20,11 L20,11 Z" transform="translate(11.000000, 11.000000) rotate(-90.000000) translate(-11.000000, -11.000000) " />
      </svg>

      <svg class="icon" id="badge" viewBox="0 0 24 24">
        <path d="M14.6527095,15.3828197 C14.2819399,15.2588754 13.9577108,15.0373147 13.719506,14.7451296 L12.84494,13.6726384 C12.6736896,13.4628355 12.5810707,13.2065485 12.5810707,12.9430741 L12.5810707,12.5219838 C12.5810707,12.1803851 12.8784173,11.9034733 13.2452385,11.9034733 L14.8749108,11.9034733 C15.6903771,11.9034733 16.3514365,11.2878143 16.3514365,10.5283674 L16.3514365,3.37233247 C16.3514365,2.61444807 15.6918052,2 14.8778511,2 L9.06797964,2 C8.25406754,2 7.59439424,2.61444807 7.59439424,3.37233247 L7.59439424,10.5283674 C7.59439424,11.2878143 8.25545367,11.9034733 9.07091992,11.9034733 L10.7202082,11.9034733 C11.0869034,11.9034733 11.3842079,12.1803851 11.3842079,12.5219838 L11.3842079,12.9875659 C11.3842079,13.2517044 11.291169,13.5084992 11.1194145,13.7185756 L10.2872726,14.7359891 C10.0506219,15.0254398 9.72945911,15.2451646 9.36234388,15.3692651 L7.47989126,16.0051193 C7.02637374,16.1583211 6.85554335,16.6725747 7.13692835,17.0375717 L8.22407666,18.4477554 C8.46648192,18.762245 8.5997187,19.1381794 8.60572528,19.5252075 L8.63433003,21.3384739 C8.64147071,21.7951889 9.11998062,22.1083894 9.58572131,21.9648359 L11.3765211,21.4298403 C11.7832882,21.3123803 12.2209702,21.3123803 12.6277372,21.4298403 L14.4157648,21.9648359 C14.8821775,22.1083894 15.3612335,21.7821421 15.3671561,21.3254271 L15.3902583,19.530559 C15.3952988,19.140406 15.5295436,18.7610732 15.7747212,18.4445133 L16.8621635,17.0406967 C17.1453547,16.6750747 16.9734322,16.1585946 16.5177725,16.0063302 L14.6527095,15.3828197 L14.6527095,15.3828197 Z" />
      </svg>

      <svg class="icon" id="calendar" viewBox="0 0 24 24">
        <path d="M19,4 L18,4 L18,2 L16,2 L16,4 L8,4 L8,2 L6,2 L6,4 L5,4 C3.89,4 3.01,4.9 3.01,6 L3,20 C3,21.1 3.89,22 5,22 L19,22 C20.1,22 21,21.1 21,20 L21,6 C21,4.9 20.1,4 19,4 L19,4 Z M19,20 L5,20 L5,9 L19,9 L19,20 L19,20 Z M7,11 L12,11 L12,16 L7,16 L7,11 Z" />
      </svg>

      <svg class="icon" id="challenge" viewBox="0 0 24 24">
        <path d="M12,1 L3,5 L3,11 C3,16.55 6.84,21.74 12,23 C17.16,21.74 21,16.55 21,11 L21,5 L12,1 Z M11,19 L11,13.5 L9,13.5 L13,6 L13,11.5 L15,11.5 L11,19 Z" />
      </svg>

      <svg class="icon" id="chat" viewBox="0 0 24 24">
        <path d="M20,2 L4,2 C2.9,2 2.01,2.9 2.01,4 L2,22 L6,18 L20,18 C21.1,18 22,17.1 22,16 L22,4 C22,2.9 21.1,2 20,2 L20,2 Z M6,9 L18,9 L18,11 L6,11 L6,9 L6,9 Z M14,14 L6,14 L6,12 L14,12 L14,14 L14,14 Z M18,8 L6,8 L6,6 L18,6 L18,8 L18,8 Z" />
      </svg>

      <svg class="icon" id="check" viewBox="0 0 24 24">
        <path d="M8.59,15.58 L4.42,11.41 L3,12.82 L8.59,18.41 L20.59,6.41 L19.18,5 L8.59,15.58 Z" />
      </svg>

      <svg class="icon" id="chevron-left" viewBox="0 0 24 24">
        <path d="M15.41,7.41 L14,6 L8,12 L14,18 L15.41,16.59 L10.83,12 L15.41,7.41 Z" />
      </svg>

      <svg class="icon" id="chevron-right" viewBox="0 0 24 24">
        <path d="M15.41,7.41 L14,6 L8,12 L14,18 L15.41,16.59 L10.83,12 L15.41,7.41 Z" transform="translate(11.705000, 12.000000) rotate(-180.000000) translate(-11.705000, -12.000000) " />
      </svg>

      <svg class="icon" id="close" viewBox="0 0 24 24">
        <path d="M19,6.41 L17.59,5 L12,10.59 L6.41,5 L5,6.41 L10.59,12 L5,17.59 L6.41,19 L12,13.41 L17.59,19 L19,17.59 L13.41,12 L19,6.41 Z" />
      </svg>

      <svg class="icon" id="close-circle" viewBox="0 0 24 24">
        <path d="M12,2 C6.47,2 2,6.47 2,12 C2,17.53 6.47,22 12,22 C17.53,22 22,17.53 22,12 C22,6.47 17.53,2 12,2 L12,2 Z M17,15.59 L15.59,17 L12,13.41 L8.41,17 L7,15.59 L10.59,12 L7,8.41 L8.41,7 L12,10.59 L15.59,7 L17,8.41 L13.41,12 L17,15.59 L17,15.59 Z" />
      </svg>

      <svg class="icon" id="cloud" viewBox="0 0 24 24">
        <path d="M18.7375,10.6625 C18.1141667,7.428125 15.3366667,5 12,5 C9.35083333,5 7.05,6.5375 5.90416667,8.7875 C3.145,9.0875 1,11.478125 1,14.375 C1,17.478125 3.46583333,20 6.5,20 L18.4166667,20 C20.9466667,20 23,17.9 23,15.3125 C23,12.8375 21.1208333,10.83125 18.7375,10.6625 L18.7375,10.6625 Z" />
      </svg>

      <svg class="icon" id="cloud-upload" viewBox="0 0 24 24">
        <path d="M18.7375,10.6625 C18.1141667,7.428125 15.3366667,5 12,5 C9.35083333,5 7.05,6.5375 5.90416667,8.7875 C3.145,9.0875 1,11.478125 1,14.375 C1,17.478125 3.46583333,20 6.5,20 L18.4166667,20 C20.9466667,20 23,17.9 23,15.3125 C23,12.8375 21.1208333,10.83125 18.7375,10.6625 L18.7375,10.6625 Z M13.8333333,13.4375 L13.8333333,17.1875 L10.1666667,17.1875 L10.1666667,13.4375 L7.41666667,13.4375 L12,8.75 L16.5833333,13.4375 L13.8333333,13.4375 L13.8333333,13.4375 Z" />
      </svg>

      <svg class="icon" id="computer" viewBox="0 0 24 24">
        <path d="M19.3333333,18.125 C20.3416667,18.125 21.1575,17.28125 21.1575,16.25 L21.1666667,6.875 C21.1666667,5.84375 20.3416667,5 19.3333333,5 L4.66666667,5 C3.65833333,5 2.83333333,5.84375 2.83333333,6.875 L2.83333333,16.25 C2.83333333,17.28125 3.65833333,18.125 4.66666667,18.125 L1,18.125 L1,20 L23,20 L23,18.125 L19.3333333,18.125 L19.3333333,18.125 Z M4.66666667,6.875 L19.3333333,6.875 L19.3333333,16.25 L4.66666667,16.25 L4.66666667,6.875 L4.66666667,6.875 Z" />
      </svg>

      <svg class="icon" id="controller" viewBox="0 0 24 24">
        <path d="M17.1220298,5 C15.8924505,5 14.0173592,6.13664343 12,6.13664343 C9.98264083,6.13664343 8.10750655,5 6.87779831,5 C2.94315301,5 1.19095089,12.3083641 1,16.926603 C1,20.3009935 3.0334293,20.7593625 4.4577837,18.9718315 C7.55420444,15.0857398 8.32264856,14.9333555 12,14.9333555 C15.6773514,14.9333555 16.4457956,15.0857398 19.5422163,18.9718315 C20.9665277,20.7593625 23,20.3009935 23,16.926603 C22.8090491,12.3083641 21.056847,5 17.1220298,5 L17.1220298,5 L17.1220298,5 Z M8.63399648,11.604865 C8.53027113,11.604865 8.44631118,11.6930614 8.44631118,11.8020681 L8.44631118,12.4157943 C8.44631118,12.742094 8.17775964,13.0027193 7.86022429,12.9670443 C7.58209083,12.9357387 7.37992524,12.6717351 7.37992524,12.3779573 L7.37992524,11.8020681 C7.37992524,11.6930614 7.29583638,11.604865 7.19223993,11.604865 L6.60808662,11.604865 C6.29746917,11.604865 6.04945645,11.3227086 6.0833584,10.9891118 C6.11317836,10.6970457 6.36432776,10.4845275 6.64409401,10.4845275 L7.19223993,10.4845275 C7.29596528,10.4845275 7.37992524,10.3961509 7.37992524,10.2871892 L7.37992524,9.67359815 C7.37992524,9.34729851 7.64847678,9.08667321 7.96601212,9.12234816 C8.24414558,9.15365382 8.44644008,9.41765743 8.44644008,9.71143521 L8.44644008,10.2871892 C8.44644008,10.3961509 8.53040003,10.4845275 8.63412538,10.4845275 L9.19382976,10.4845275 C9.46633438,10.4845275 9.71185494,10.690244 9.74257724,10.9746977 C9.77858463,11.3081593 9.52992738,11.604865 9.21814979,11.604865 L8.63399648,11.604865 L8.63399648,11.604865 Z M15.9771409,12.6163758 C15.1509904,12.6163758 14.4812444,11.9127416 14.4812444,11.0446062 C14.4812444,10.1765158 15.1509904,9.47283649 15.9771409,9.47283649 C16.8034632,9.47283649 17.4732093,10.1765158 17.4732093,11.0446062 C17.4732093,11.9127416 16.8034632,12.6163758 15.9771409,12.6163758 L15.9771409,12.6163758 L15.9771409,12.6163758 Z" />
      </svg>

      <svg class="icon" id="credit-card" viewBox="0 0 24 24">
        <path d="M20,4 L4,4 C2.89,4 2.01,4.89 2.01,6 L2,18 C2,19.11 2.89,20 4,20 L20,20 C21.11,20 22,19.11 22,18 L22,6 C22,4.89 21.11,4 20,4 L20,4 Z M20,18 L4,18 L4,12 L20,12 L20,18 L20,18 Z M20,8 L4,8 L4,6 L20,6 L20,8 L20,8 Z" />
      </svg>

      <svg class="icon" id="crown" viewBox="0 0 24 24">
        <path d="M18.3150356,11.0317669 C17.9183303,11.5178993 17.1856372,11.5286375 16.7751813,11.0543302 L12.6648639,6.30425724 C12.3131059,5.89798755 11.6878395,5.89863967 11.3369839,6.30586579 L7.26417984,11.0335059 C6.85578649,11.5076828 6.12498413,11.4998139 5.72655998,11.0172029 L2.2394463,6.79299814 C1.81919305,6.28412852 1,6.58462462 1,7.24774195 L1,17.4385245 C1,18.3008423 1.6908826,19 2.54329198,19 L21.4565361,19 C22.3089025,19 23,18.3008423 23,17.4385245 L23,7.26504482 C23,6.59984071 22.1766818,6.30043148 21.7580184,6.81330076 L18.3150356,11.0317669 L18.3150356,11.0317669 Z" />
      </svg>

      <svg class="icon" id="delete" viewBox="0 0 24 24">
        <path d="M6,19 C6,20.1 6.9,21 8,21 L16,21 C17.1,21 18,20.1 18,19 L18,7 L6,7 L6,19 L6,19 Z M19,4 L15.5,4 L14.5,3 L9.5,3 L8.5,4 L5,4 L5,6 L19,6 L19,4 L19,4 Z" />
      </svg>

      <svg class="icon" id="dev" viewBox="0 0 24 24">
        <path d="M5,4 C3.89,4 3,4.9 3,6 L3,18 C3,19.1 3.89,20 5,20 L12,20 L12,18 L5,18 L5,8 L19,8 L19,18 L12,18 L12,20 L19,20 C20.1,20 21,19.1 21,18 L21,6 C21,4.9 20.11,4 19,4 L5,4 Z M14.13125,15.508 L17,12.754 L14.13125,10 L13.25,10.852 L15.23125,12.754 L13.25,14.656 L14.13125,15.508 Z M10.75,14.656 L8.76875,12.754 L10.75,10.852 L9.86875,10 L7,12.754 L9.86875,15.508 L10.75,14.656 Z" />
      </svg>

      <svg class="icon" id="dice" viewBox="0 0 24 24">
        <path d="M3,4.99508929 C3,3.8932319 3.8926228,3 4.99508929,3 L19.0049107,3 C20.1067681,3 21,3.8926228 21,4.99508929 L21,19.0049107 C21,20.1067681 20.1073772,21 19.0049107,21 L4.99508929,21 C3.8932319,21 3,20.1073772 3,19.0049107 L3,4.99508929 Z M8,10 C9.1045695,10 10,9.1045695 10,8 C10,6.8954305 9.1045695,6 8,6 C6.8954305,6 6,6.8954305 6,8 C6,9.1045695 6.8954305,10 8,10 Z M16,10 C17.1045695,10 18,9.1045695 18,8 C18,6.8954305 17.1045695,6 16,6 C14.8954305,6 14,6.8954305 14,8 C14,9.1045695 14.8954305,10 16,10 Z M16,18 C17.1045695,18 18,17.1045695 18,16 C18,14.8954305 17.1045695,14 16,14 C14.8954305,14 14,14.8954305 14,16 C14,17.1045695 14.8954305,18 16,18 Z M8,18 C9.1045695,18 10,17.1045695 10,16 C10,14.8954305 9.1045695,14 8,14 C6.8954305,14 6,14.8954305 6,16 C6,17.1045695 6.8954305,18 8,18 Z M12,14 C13.1045695,14 14,13.1045695 14,12 C14,10.8954305 13.1045695,10 12,10 C10.8954305,10 10,10.8954305 10,12 C10,13.1045695 10.8954305,14 12,14 Z" />
      </svg>

      <svg class="icon" id="doc" viewBox="0 0 24 24">
        <path d="M6,2 C4.9,2 4.01,2.9 4.01,4 L4,20 C4,21.1 4.89,22 5.99,22 L18,22 C19.1,22 20,21.1 20,20 L20,8 L14,2 L6,2 L6,2 Z M13,9 L13,3.5 L18.5,9 L13,9 L13,9 Z" />
      </svg>

      <svg class="icon" id="edit" viewBox="0 0 24 24">
        <path d="M3,17.2525 L3,21.0025 L6.75,21.0025 L17.81,9.9425 L14.06,6.1925 L3,17.2525 L3,17.2525 Z M20.71,7.0425 C21.1,6.6525 21.1,6.0225 20.71,5.6325 L18.37,3.2925 C17.98,2.9025 17.35,2.9025 16.96,3.2925 L15.13,5.1225 L18.88,8.8725 L20.71,7.0425 L20.71,7.0425 Z" />
      </svg>

      <svg class="icon" id="folder" viewBox="0 0 24 24">
        <path d="M10,4 L4,4 C2.9,4 2.01,4.9 2.01,6 L2,18 C2,19.1 2.9,20 4,20 L20,20 C21.1,20 22,19.1 22,18 L22,8 C22,6.9 21.1,6 20,6 L12,6 L10,4 L10,4 Z" />
      </svg>

      <svg class="icon" id="globe" viewBox="0 0 24 24">
        <path d="M12,2 C6.48,2 2,6.48 2,12 C2,17.52 6.48,22 12,22 C17.52,22 22,17.52 22,12 C22,6.48 17.52,2 12,2 L12,2 Z M11,19.93 C7.05,19.44 4,16.08 4,12 C4,11.38 4.08,10.79 4.21,10.21 L9,15 L9,16 C9,17.1 9.9,18 11,18 L11,19.93 L11,19.93 Z M17.9,17.39 C17.64,16.58 16.9,16 16,16 L15,16 L15,13 C15,12.45 14.55,12 14,12 L8,12 L8,10 L10,10 C10.55,10 11,9.55 11,9 L11,7 L13,7 C14.1,7 15,6.1 15,5 L15,4.59 C17.93,5.78 20,8.65 20,12 C20,14.08 19.2,15.97 17.9,17.39 L17.9,17.39 Z" />
      </svg>

      <svg class="icon" id="grid" viewBox="0 0 24 24">
        <path d="M4,8 L8,8 L8,4 L4,4 L4,8 L4,8 Z M10,20 L14,20 L14,16 L10,16 L10,20 L10,20 Z M4,20 L8,20 L8,16 L4,16 L4,20 L4,20 Z M4,14 L8,14 L8,10 L4,10 L4,14 L4,14 Z M10,14 L14,14 L14,10 L10,10 L10,14 L10,14 Z M16,4 L16,8 L20,8 L20,4 L16,4 L16,4 Z M10,8 L14,8 L14,4 L10,4 L10,8 L10,8 Z M16,14 L20,14 L20,10 L16,10 L16,14 L16,14 Z M16,20 L20,20 L20,16 L16,16 L16,20 L16,20 Z" />
      </svg>

      <svg class="icon" id="group" viewBox="0 0 24 24">
        <path d="M16,11 C17.66,11 18.99,9.66 18.99,8 C18.99,6.34 17.66,5 16,5 C14.34,5 13,6.34 13,8 C13,9.66 14.34,11 16,11 L16,11 Z M8,11 C9.66,11 10.99,9.66 10.99,8 C10.99,6.34 9.66,5 8,5 C6.34,5 5,6.34 5,8 C5,9.66 6.34,11 8,11 L8,11 Z M8,13 C5.67,13 1,14.17 1,16.5 L1,19 L15,19 L15,16.5 C15,14.17 10.33,13 8,13 L8,13 Z M16,13 C15.71,13 15.38,13.02 15.03,13.05 C16.19,13.89 17,15.02 17,16.5 L17,19 L23,19 L23,16.5 C23,14.17 18.33,13 16,13 L16,13 Z" />
      </svg>

      <svg class="icon" id="happy" viewBox="0 0 24 24">
        <path d="M11.99,2 C6.47,2 2,6.48 2,12 C2,17.52 6.47,22 11.99,22 C17.52,22 22,17.52 22,12 C22,6.48 17.52,2 11.99,2 L11.99,2 Z M12,20 C7.58,20 4,16.42 4,12 C4,7.58 7.58,4 12,4 C16.42,4 20,7.58 20,12 C20,16.42 16.42,20 12,20 L12,20 Z M15.5,11 C16.33,11 17,10.33 17,9.5 C17,8.67 16.33,8 15.5,8 C14.67,8 14,8.67 14,9.5 C14,10.33 14.67,11 15.5,11 L15.5,11 Z M8.5,11 C9.33,11 10,10.33 10,9.5 C10,8.67 9.33,8 8.5,8 C7.67,8 7,8.67 7,9.5 C7,10.33 7.67,11 8.5,11 L8.5,11 Z M12,17.5 C14.33,17.5 16.31,16.04 17.11,14 L6.89,14 C7.69,16.04 9.67,17.5 12,17.5 L12,17.5 Z" />
      </svg>

      <svg class="icon" id="heart" viewBox="0 0 24 24">
        <path d="M12,21.35 L10.55,20.03 C5.4,15.36 2,12.28 2,8.5 C2,5.42 4.42,3 7.5,3 C9.24,3 10.91,3.81 12,5.09 C13.09,3.81 14.76,3 16.5,3 C19.58,3 22,5.42 22,8.5 C22,12.28 18.6,15.36 13.45,20.04 L12,21.35 L12,21.35 Z" />
      </svg>

      <svg class="icon" id="help" viewBox="0 0 24 24">
        <path d="M12,2 C6.48,2 2,6.48 2,12 C2,17.52 6.48,22 12,22 C17.52,22 22,17.52 22,12 C22,6.48 17.52,2 12,2 L12,2 Z M13,19 L11,19 L11,17 L13,17 L13,19 L13,19 Z M15.07,11.25 L14.17,12.17 C13.45,12.9 13,13.5 13,15 L11,15 L11,14.5 C11,13.4 11.45,12.4 12.17,11.67 L13.41,10.41 C13.78,10.05 14,9.55 14,9 C14,7.9 13.1,7 12,7 C10.9,7 10,7.9 10,9 L8,9 C8,6.79 9.79,5 12,5 C14.21,5 16,6.79 16,9 C16,9.88 15.64,10.68 15.07,11.25 L15.07,11.25 Z" />
      </svg>

      <svg class="icon" id="home" viewBox="0 0 24 24">
        <path d="M10,21 L10,15 L14,15 L14,21 L19,21 L19,13 L22,13 L12,4 L2,13 L5,13 L5,21 L10,21 Z" />
      </svg>

      <svg class="icon" id="info" viewBox="0 0 24 24">
        <path d="M12,2 C6.48,2 2,6.48 2,12 C2,17.52 6.48,22 12,22 C17.52,22 22,17.52 22,12 C22,6.48 17.52,2 12,2 L12,2 Z M13,17 L11,17 L11,11 L13,11 L13,17 L13,17 Z M13,9 L11,9 L11,7 L13,7 L13,9 L13,9 Z" />
      </svg>

      <svg class="icon" id="link" viewBox="0 0 24 24">
        <path d="M3.9,12 C3.9,10.29 5.29,8.9 7,8.9 L11,8.9 L11,7 L7,7 C4.24,7 2,9.24 2,12 C2,14.76 4.24,17 7,17 L11,17 L11,15.1 L7,15.1 C5.29,15.1 3.9,13.71 3.9,12 L3.9,12 Z M8,13 L16,13 L16,11 L8,11 L8,13 L8,13 Z M17,7 L13,7 L13,8.9 L17,8.9 C18.71,8.9 20.1,10.29 20.1,12 C20.1,13.71 18.71,15.1 17,15.1 L13,15.1 L13,17 L17,17 C19.76,17 22,14.76 22,12 C22,9.24 19.76,7 17,7 L17,7 Z" />
      </svg>

      <svg class="icon" id="lock" viewBox="0 0 24 24">
        <path d="M18,9 L17,9 L17,7 C17,4.24 14.76,2 12,2 C9.24,2 7,4.24 7,7 L7,9 L6,9 C4.9,9 4,9.9 4,11 L4,21 C4,22.1 4.9,23 6,23 L18,23 C19.1,23 20,22.1 20,21 L20,11 C20,9.9 19.1,9 18,9 L18,9 Z M12,18 C10.9,18 10,17.1 10,16 C10,14.9 10.9,14 12,14 C13.1,14 14,14.9 14,16 C14,17.1 13.1,18 12,18 L12,18 Z M15.1,9 L8.9,9 L8.9,7 C8.9,5.29 10.29,3.9 12,3.9 C13.71,3.9 15.1,5.29 15.1,7 L15.1,9 L15.1,9 Z" />
      </svg>

      <svg class="icon" id="mail" viewBox="0 0 24 24">
        <path d="M20,4 L4,4 C2.9,4 2.01,4.9 2.01,6 L2,18 C2,19.1 2.9,20 4,20 L20,20 C21.1,20 22,19.1 22,18 L22,6 C22,4.9 21.1,4 20,4 L20,4 Z M20,8 L12,13 L4,8 L4,6 L12,11 L20,6 L20,8 L20,8 Z" />
      </svg>

      <svg class="icon" id="menu" viewBox="0 0 24 24">
        <path d="M3,18 L21,18 L21,16 L3,16 L3,18 L3,18 Z M3,13 L21,13 L21,11 L3,11 L3,13 L3,13 Z M3,6 L3,8 L21,8 L21,6 L3,6 L3,6 Z" />
      </svg>

      <svg class="icon" id="music" viewBox="0 0 24 24">
        <path d="M19.5,2 L4.5,2 C3.125,2 2,3.125 2,4.5 L2,19.5 C2,20.875 3.125,22 4.5,22 L19.5,22 C20.875,22 22,20.875 22,19.5 L22,4.5 C22,3.125 20.875,2 19.5,2 Z M17,8.25 L13.25,8.25 L13.25,15.125 C13.25,16.85 11.85,18.25 10.125,18.25 C8.4,18.25 7,16.85 7,15.125 C7,13.4 8.4,12 10.125,12 C10.8375,12 11.475,12.2375 12,12.6375 L12,5.75 L17,5.75 L17,8.25 Z" />
      </svg>

      <svg class="icon" id="notifications" viewBox="0 0 24 24">
        <path d="M12.5,22 C13.6,22 14.5,21.1 14.5,20 L10.5,20 C10.5,21.1 11.4,22 12.5,22 L12.5,22 Z M19,16 L19,10.5 C19,7.43 16.87,4.86 14,4.18 L14,3.5 C14,2.67 13.33,2 12.5,2 C11.67,2 11,2.67 11,3.5 L11,4.18 C8.13,4.86 6,7.43 6,10.5 L6,16 L4,18 L4,19 L21,19 L21,18 L19,16 L19,16 Z" />
      </svg>

      <svg class="icon" id="package" viewBox="0 0 24 24">
        <path d="M4.1754931,8.95018789 C3.78514436,8.74537578 3.62254516,8.30532076 3.79667653,7.92479916 L3.80276176,7.91147836 C3.97421222,7.53693354 4.41945573,7.33481684 4.84780527,7.43712523 L11.5275219,9.03319871 C11.9395306,9.13171791 12.3772421,9.07882536 12.7474627,8.88577149 L20.5597991,4.81429581 C20.9431264,4.61448388 20.8682312,4.08833199 20.4418392,3.98555483 L12.4055405,2.04919558 C11.9885955,1.94880132 11.5453946,2.00333455 11.1720675,2.20115422 L3.54505415,6.24235537 C2.58903381,6.7488581 2,7.6851811 2,8.69830376 L2,16.7621898 C2,17.2092372 2.25992042,17.62226 2.68167408,17.8458228 L10.3989021,21.9327678 C10.7534203,22.1233216 11.1967063,21.8851098 11.1967063,21.5159168 L11.1967063,13.2331947 C11.1967063,12.86365 10.9810421,12.5223095 10.6314177,12.3387873 L4.1754931,8.95018789 L4.1754931,8.95018789 Z M19.3117726,6.3952906 L17.803315,7.20344489 L19.8036128,8.23801364 C20.1150663,8.39915229 20.1163429,8.81026094 19.8058257,8.97307934 L13.4288815,12.3159349 C13.0678951,12.5051605 12.8450393,12.8574389 12.8450393,13.238898 L12.8450393,21.4921268 C12.8450393,21.8612809 13.2883678,22.0994926 13.6430137,21.9089388 L21.3474755,17.8303144 C21.7512287,17.6164395 22,17.2210345 22,16.7932456 L22,8.47942864 C22,8.00804436 21.7171004,7.57490367 21.2640694,7.35278624 L19.3117726,6.3952906 L19.3117726,6.3952906 Z" />
      </svg>

      <svg class="icon" id="photos" viewBox="0 0 24 24">
        <path d="M21,19 L21,5 C21,3.9 20.1,3 19,3 L5,3 C3.9,3 3,3.9 3,5 L3,19 C3,20.1 3.9,21 5,21 L19,21 C20.1,21 21,20.1 21,19 L21,19 Z M8.5,13.5 L11,16.51 L14.5,12 L19,18 L5,18 L8.5,13.5 L8.5,13.5 Z" />
      </svg>

      <svg class="icon" id="play" viewBox="0 0 24 24">
        <path d="M7,5 L7,19 L18,12 L7,5 Z" />
      </svg>

      <svg class="icon" id="play-circle" viewBox="0 0 24 24">
        <path d="M12,2 C6.48,2 2,6.48 2,12 C2,17.52 6.48,22 12,22 C17.52,22 22,17.52 22,12 C22,6.48 17.52,2 12,2 L12,2 Z M10,16.5 L10,7.5 L16,12 L10,16.5 L10,16.5 Z" />
      </svg>

      <svg class="icon" id="profile" viewBox="0 0 24 24">
        <path d="M12,4 C9.79,4 8,5.79 8,8 C8,10.21 9.79,12 12,12 C14.21,12 16,10.21 16,8 C16,5.79 14.21,4 12,4 L12,4 Z M12,14 C9.33,14 4,15.34 4,18 L4,20 L20,20 L20,18 C20,15.33 14.67,14 12,14 L12,14 Z" />
      </svg>

      <svg class="icon" id="refresh" viewBox="0 0 24 24">
        <path d="M17.64,6.35 C16.19,4.9 14.2,4 11.99,4 C7.57,4 4,7.58 4,12 C4,16.42 7.57,20 11.99,20 C15.72,20 18.83,17.45 19.72,14 L17.64,14 C16.82,16.33 14.6,18 11.99,18 C8.68,18 5.99,15.31 5.99,12 C5.99,8.69 8.68,6 11.99,6 C13.65,6 15.13,6.69 16.21,7.78 L12.99,11 L19.99,11 L19.99,4 L17.64,6.35 L17.64,6.35 Z" />
      </svg>

      <svg class="icon" id="save" viewBox="0 0 24 24">
        <path d="M17,3 L5,3 C3.89,3 3,3.9 3,5 L3,19 C3,20.1 3.89,21 5,21 L19,21 C20.1,21 21,20.1 21,19 L21,7 L17,3 L17,3 Z M12,19 C10.34,19 9,17.66 9,16 C9,14.34 10.34,13 12,13 C13.66,13 15,14.34 15,16 C15,17.66 13.66,19 12,19 L12,19 Z M15,9 L5,9 L5,5 L15,5 L15,9 L15,9 Z" />
      </svg>

      <svg class="icon" id="search" viewBox="0 0 24 24">
        <path d="M15.5,14 L14.71,14 L14.43,13.73 C15.41,12.59 16,11.11 16,9.5 C16,5.91 13.09,3 9.5,3 C5.91,3 3,5.91 3,9.5 C3,13.09 5.91,16 9.5,16 C11.11,16 12.59,15.41 13.73,14.43 L14,14.71 L14,15.5 L19,20.49 L20.49,19 L15.5,14 L15.5,14 Z M9.5,14 C7.01,14 5,11.99 5,9.5 C5,7.01 7.01,5 9.5,5 C11.99,5 14,7.01 14,9.5 C14,11.99 11.99,14 9.5,14 L9.5,14 Z" />
      </svg>

      <svg class="icon" id="settings" viewBox="0 0 24 24">
        <path d="M19.1593316,12.98 C19.1993316,12.66 19.2293316,12.34 19.2293316,12 C19.2293316,11.66 19.1993316,11.34 19.1593316,11.02 L21.2693316,9.37 C21.4593316,9.22 21.5093316,8.95 21.3893316,8.73 L19.3893316,5.27 C19.2693316,5.05 18.9993316,4.97 18.7793316,5.05 L16.2893316,6.05 C15.7693316,5.65 15.2093316,5.32 14.5993316,5.07 L14.2193316,2.42 C14.1893316,2.18 13.9793316,2 13.7293316,2 L9.7293316,2 C9.4793316,2 9.2693316,2.18 9.2393316,2.42 L8.8593316,5.07 C8.2493316,5.32 7.6893316,5.66 7.1693316,6.05 L4.6793316,5.05 C4.4493316,4.96 4.1893316,5.05 4.0693316,5.27 L2.0693316,8.73 C1.9393316,8.95 1.9993316,9.22 2.1893316,9.37 L4.2993316,11.02 C4.2593316,11.34 4.2293316,11.67 4.2293316,12 C4.2293316,12.33 4.2593316,12.66 4.2993316,12.98 L2.1893316,14.63 C1.9993316,14.78 1.9493316,15.05 2.0693316,15.27 L4.0693316,18.73 C4.1893316,18.95 4.4593316,19.03 4.6793316,18.95 L7.1693316,17.95 C7.6893316,18.35 8.2493316,18.68 8.8593316,18.93 L9.2393316,21.58 C9.2693316,21.82 9.4793316,22 9.7293316,22 L13.7293316,22 C13.9793316,22 14.1893316,21.82 14.2193316,21.58 L14.5993316,18.93 C15.2093316,18.68 15.7693316,18.34 16.2893316,17.95 L18.7793316,18.95 C19.0093316,19.04 19.2693316,18.95 19.3893316,18.73 L21.3893316,15.27 C21.5093316,15.05 21.4593316,14.78 21.2693316,14.63 L19.1593316,12.98 L19.1593316,12.98 Z M11.7293316,15.5 C9.7993316,15.5 8.2293316,13.93 8.2293316,12 C8.2293316,10.07 9.7993316,8.5 11.7293316,8.5 C13.6593316,8.5 15.2293316,10.07 15.2293316,12 C15.2293316,13.93 13.6593316,15.5 11.7293316,15.5 L11.7293316,15.5 Z" />
      </svg>

      <svg class="icon" id="share" viewBox="0 0 24 24">
        <path d="M18,16.08 C17.24,16.08 16.56,16.38 16.04,16.85 L8.91,12.7 C8.96,12.47 9,12.24 9,12 C9,11.76 8.96,11.53 8.91,11.3 L15.96,7.19 C16.5,7.69 17.21,8 18,8 C19.66,8 21,6.66 21,5 C21,3.34 19.66,2 18,2 C16.34,2 15,3.34 15,5 C15,5.24 15.04,5.47 15.09,5.7 L8.04,9.81 C7.5,9.31 6.79,9 6,9 C4.34,9 3,10.34 3,12 C3,13.66 4.34,15 6,15 C6.79,15 7.5,14.69 8.04,14.19 L15.16,18.35 C15.11,18.56 15.08,18.78 15.08,19 C15.08,20.61 16.39,21.92 18,21.92 C19.61,21.92 20.92,20.61 20.92,19 C20.92,17.39 19.61,16.08 18,16.08 L18,16.08 Z" />
      </svg>

      <svg class="icon" id="smartphone" viewBox="0 0 24 24">
        <path d="M16,1 L8,1 C6.34,1 5,2.34 5,4 L5,20 C5,21.66 6.34,23 8,23 L16,23 C17.66,23 19,21.66 19,20 L19,4 C19,2.34 17.66,1 16,1 L16,1 Z M14,21 L10,21 L10,20 L14,20 L14,21 L14,21 Z M17.25,18 L6.75,18 L6.75,4 L17.25,4 L17.25,18 L17.25,18 Z" />
      </svg>

      <svg class="icon" id="star" viewBox="0 0 24 24">
        <path d="M12,18.27 L18.18,22 L16.54,14.97 L22,10.24 L14.81,9.63 L12,3 L9.19,9.63 L2,10.24 L7.46,14.97 L5.82,22 L12,18.27 Z" />
      </svg>

      <svg class="icon" id="star-half" viewBox="0 0 24 24">
        <path d="M12,3 L9.19,9.63 L2,10.24 L7.46,14.97 L5.82,22 L12,18.27 L12,3 Z" />
      </svg>

      <svg class="icon" id="stats" viewBox="0 0 24 24">
        <path d="M19,3 L5,3 C3.9,3 3,3.9 3,5 L3,19 C3,20.1 3.9,21 5,21 L19,21 C20.1,21 21,20.1 21,19 L21,5 C21,3.9 20.1,3 19,3 L19,3 Z M9,17 L7,17 L7,10 L9,10 L9,17 L9,17 Z M13,17 L11,17 L11,7 L13,7 L13,17 L13,17 Z M17,17 L15,17 L15,13 L17,13 L17,17 L17,17 Z" />
      </svg>

      <svg class="icon" id="ticket" viewBox="0 0 24 24">
        <path d="M20,12 C20,10.9 20.9,10 22,10 L22,6 C22,4.9 21.1,4 20,4 L4,4 C2.9,4 2.01,4.9 2.01,6 L2.01,10 C3.11,10 4,10.9 4,12 C4,13.1 3.11,14 2,14 L2,18 C2,19.1 2.9,20 4,20 L20,20 C21.1,20 22,19.1 22,18 L22,14 C20.9,14 20,13.1 20,12 Z M6,6 L18,6 L18,18 L6,18 L6,6 Z M7,7 L17,7 L17,17 L7,17 L7,7 Z" />
      </svg>

      <svg class="icon" id="time" viewBox="0 0 24 24">
        <path d="M11.99,2 C6.47,2 2,6.48 2,12 C2,17.52 6.47,22 11.99,22 C17.52,22 22,17.52 22,12 C22,6.48 17.52,2 11.99,2 L11.99,2 Z M12,20 C7.58,20 4,16.42 4,12 C4,7.58 7.58,4 12,4 C16.42,4 20,7.58 20,12 C20,16.42 16.42,20 12,20 L12,20 Z M12.5,7 L11,7 L11,13 L16.25,16.15 L17,14.92 L12.5,12.25 L12.5,7 Z" />
      </svg>

      <svg class="icon" id="tv" viewBox="0 0 24 24">
        <path d="M21,3 L3,3 C1.9,3 1,3.9 1,5 L1,17 C1,18.1 1.9,19 3,19 L8,19 L8,21 L16,21 L16,19 L21,19 C22.1,19 22.99,18.1 22.99,17 L23,5 C23,3.9 22.1,3 21,3 L21,3 Z M21,17 L3,17 L3,5 L21,5 L21,17 L21,17 Z" />
      </svg>

      <svg class="icon" id="zipped" viewBox="0 0 24 24">
        <path d="M14.1217172,1.38417139 C13.8749636,1.13815559 13.5404496,1 13.191603,1 L5.40145529,1 C4.62740744,1 4,1.62550321 4,2.39741268 L4,21.6025443 C4,22.3744538 4.62740744,23 5.40145529,23 L19.5987169,23 C20.3725926,23 21,22.3744538 21,21.6025443 L21,8.71316453 C21,8.41266 20.8803463,8.12427362 20.6671646,7.91181911 L14.1217172,1.38417139 L14.1217172,1.38417139 Z M19.1009056,20.6590899 C19.1009056,20.9066097 18.8996893,21.1072898 18.6514293,21.1072898 L6.31418097,21.1072898 C6.06592096,21.1072898 5.86470468,20.9066097 5.86470468,20.6590899 L5.86470468,3.31370871 C5.86470468,3.06631781 6.06592096,2.86563768 6.31400881,2.86563768 L7.54812101,2.86563768 C7.79633798,2.86563768 7.99755426,3.06631781 7.99755426,3.3138806 L7.99755426,4.23649355 C7.99755426,4.47430165 8.19085102,4.6670749 8.4292977,4.6670749 L9.34977074,4.6670749 C9.59196198,4.6670749 9.78809944,4.86285621 9.78809944,5.104231 L9.78809944,6.01373743 C9.78762599,6.25506925 9.59265064,6.45037786 9.35114805,6.45274133 L8.42946986,6.45274133 C8.19102318,6.45274133 7.99772643,6.64551458 7.99772643,6.88327972 L7.99772643,7.80778344 C7.99772643,8.04559154 8.19102318,8.23836479 8.42946986,8.23836479 L9.34421847,8.23836479 C9.58942257,8.2402126 9.78779815,8.43852926 9.7882716,8.68355669 L9.7882716,9.57866743 C9.78779815,9.82386675 9.58942257,10.0221834 9.3440463,10.0240312 L8.46252529,10.0240312 C8.22403557,10.0240312 8.03073881,10.2168045 8.03073881,10.4546126 L8.03073881,16.8689426 C8.03073881,17.4877852 8.53380104,17.9894425 9.1542789,17.9894425 L10.4846306,17.9894425 C11.1051085,17.9894425 11.6081707,17.4877852 11.6081707,16.8689426 L11.6081707,12.2891384 C11.6081707,12.0061235 11.378117,11.776738 11.0943482,11.776738 L10.3502999,11.776738 C10.040061,11.776738 9.78844377,11.5259952 9.78844377,11.2165955 L9.78844377,10.4623046 C9.79266178,10.2208009 9.98849795,10.0263517 10.2311626,10.0240312 L11.1472455,10.0240312 C11.3857352,10.0240312 11.579032,9.83125797 11.579032,9.59344987 L11.579032,8.66911803 C11.579032,8.43130993 11.3857352,8.23853668 11.1472455,8.23853668 L10.2313348,8.23853668 C9.98867011,8.23617321 9.79266178,8.04159513 9.78844377,7.80009141 L9.78844377,6.88448294 C9.79283394,6.64667483 9.98578637,6.45506183 10.2247495,6.45291322 L11.1472455,6.45291322 C11.3857352,6.45291322 11.579032,6.26013997 11.579032,6.02233187 L11.579032,5.09800004 C11.579032,4.86002004 11.3857352,4.66724679 11.1472455,4.66724679 L10.2244052,4.66724679 C9.98544204,4.66488332 9.79266178,4.4731414 9.78844377,4.23516141 L9.78844377,3.31400952 C9.78844377,3.0664897 9.98966005,2.86580957 10.2379201,2.86580957 L12.6514825,2.86580957 C13.2723477,2.86580957 13.7755391,3.36798259 13.7750656,3.98712592 L13.7720097,7.70628312 C13.7718376,8.01671423 14.024789,8.26827344 14.3362331,8.2669413 L18.1984667,8.25013917 C18.6964501,8.24794759 19.10125,8.64995244 19.10125,9.14641016 L19.1009056,20.6590899 L19.1009056,20.6590899 Z M10.2227266,14.8734 C10.5330086,14.8734 10.7844106,15.1241428 10.7844106,15.4335425 L10.7844106,16.1336884 C10.7844106,16.4430882 10.5330086,16.6940028 10.2227266,16.6940028 L9.38467693,16.6940028 C9.074438,16.6940028 8.8228208,16.4430882 8.8228208,16.1336884 L8.8228208,15.4335425 C8.8228208,15.1241428 9.074438,14.8734 9.38467693,14.8734 L10.2227266,14.8734 L10.2227266,14.8734 Z" />
      </svg>

      <svg class="icon" id="facebook" viewBox="0 0 24 24">
        <path d="M14.546789,7.32666667 L16,7.32666667 L16,5.1 C15.7504587,5.06666667 14.8917431,5 13.8862385,5 C11.7944954,5 10.3633028,6.16 10.3633028,8.28666667 L10.3633028,10.12 L8,10.12 L8,12.6066667 L10.3633028,12.6066667 L10.3633028,19 L13.1889908,19 L13.1889908,12.6133333 L15.5449541,12.6133333 L15.8972477,10.1266667 L13.1889908,10.1266667 L13.1889908,8.53333333 C13.1889908,7.81333333 13.4091743,7.32666667 14.546789,7.32666667 L14.546789,7.32666667 Z" />
      </svg>

      <svg class="icon" id="twitter" viewBox="0 0 24 24">
        <path d="M19,7.41818182 C18.4885845,7.66153846 17.9292237,7.82097902 17.3538813,7.8965035 C17.9452055,7.51888112 18.4006849,6.93146853 18.6164384,6.21818182 C18.0650685,6.56223776 17.4497717,6.81398601 16.7945205,6.95664336 C16.2751142,6.36923077 15.5239726,6 14.7009132,6 C13.1187215,6 11.8321918,7.35944056 11.8321918,9.02937063 C11.8321918,9.26433566 11.8561644,9.4993007 11.9041096,9.71748252 C9.52283105,9.59160839 7.40525114,8.38321678 5.99086758,6.55384615 C5.74315068,6.9986014 5.59931507,7.51888112 5.59931507,8.07272727 C5.59931507,9.12167832 6.10273973,10.0531469 6.87785388,10.5902098 C6.40639269,10.5734266 5.96689498,10.4391608 5.57534247,10.2125874 L5.57534247,10.2545455 C5.57534247,11.7230769 6.56621005,12.9482517 7.87671233,13.2251748 C7.6369863,13.2923077 7.38127854,13.3342657 7.11757991,13.3342657 C6.93378995,13.3342657 6.75,13.3174825 6.57420091,13.2839161 C6.94178082,14.4839161 7.99657534,15.365035 9.25114155,15.3902098 C8.26826484,16.2041958 7.02968037,16.6909091 5.68721461,16.6909091 C5.45547945,16.6909091 5.22374429,16.6741259 5,16.648951 C6.28652968,17.4965035 7.79680365,18 9.4109589,18 C14.6849315,18 17.5776256,13.3846154 17.5776256,9.38181818 C17.5776256,9.24755245 17.5776256,9.12167832 17.5696347,8.98741259 C18.1289954,8.55944056 18.6164384,8.03076923 19,7.41818182 L19,7.41818182 Z" />
      </svg>

      <svg class="icon" id="google-plus" viewBox="0 0 24 24">
        <path d="M13.3676301,14.0028555 C13.2219653,13.8029697 13.0601156,13.6190748 12.865896,13.4511708 C12.6716763,13.2832667 12.4774566,13.1073672 12.283237,12.9394632 L11.6196532,12.4277556 C11.5225434,12.3398058 11.417341,12.2438607 11.3040462,12.1239292 C11.1907514,12.0039977 11.134104,11.8440891 11.134104,11.6362079 C11.134104,11.4283267 11.1907514,11.2524272 11.3040462,11.1245003 C11.417341,10.988578 11.5306358,10.8606511 11.6520231,10.7407196 C11.8462428,10.5968018 12.0404624,10.4368932 12.2265896,10.2689891 C12.4127168,10.1010851 12.5745665,9.91719018 12.7283237,9.7173044 C12.8820809,9.51741862 12.9953757,9.28555111 13.0763006,9.02969732 C13.1653179,8.77384352 13.2057803,8.47001713 13.2057803,8.12621359 C13.2057803,7.78241005 13.1572254,7.47858367 13.0601156,7.20673901 C12.9630058,6.93489435 12.8416185,6.70302684 12.7121387,6.49514563 C12.5745665,6.29525985 12.4369942,6.11936037 12.283237,5.98343804 C12.1375723,5.83952027 12.0080925,5.72758424 11.8947977,5.63963449 L13.0439306,5.63963449 L14.2254335,5 L10.4138728,5 C9.91213873,5 9.36184971,5.06396345 8.77919075,5.18389492 C8.19653179,5.30382638 7.63815029,5.58366648 7.10404624,6.00742433 C6.70751445,6.35122787 6.41618497,6.743004 6.21387283,7.17475728 C6.01965318,7.60651057 5.91445087,8.03826385 5.91445087,8.47001713 C5.91445087,8.82181611 5.97919075,9.17361508 6.11676301,9.52541405 C6.25433526,9.87721302 6.44855491,10.1810394 6.70751445,10.4528841 C6.96647399,10.7247287 7.29017341,10.9406054 7.67052023,11.1085094 C8.05086705,11.2764135 8.48786127,11.3563678 8.98150289,11.3563678 C9.07861272,11.3563678 9.17572254,11.3563678 9.28092486,11.3483724 C9.37803468,11.3403769 9.47514451,11.3323815 9.58034682,11.3243861 C9.53179191,11.4363221 9.49132948,11.5402627 9.45086705,11.6442033 C9.41040462,11.7481439 9.39421965,11.8760708 9.39421965,12.0359794 C9.39421965,12.3158195 9.45086705,12.5556825 9.57225434,12.7395774 C9.68554913,12.9314677 9.8150289,13.1073672 9.95260116,13.2832667 C9.74219653,13.2992576 9.49942197,13.3152484 9.21618497,13.3392347 C8.93294798,13.363221 8.63352601,13.4031982 8.30982659,13.4671616 C7.98612717,13.5311251 7.66242775,13.6110794 7.33872832,13.71502 C7.0150289,13.8189606 6.70751445,13.9548829 6.42427746,14.1307824 C5.88208092,14.4505997 5.50982659,14.8183895 5.30751445,15.2421473 C5.10520231,15.6659052 5,16.0416905 5,16.3695031 C5,16.7133067 5.08092486,17.0411194 5.24277457,17.3529412 C5.40462428,17.664763 5.64739884,17.9446031 5.97919075,18.1924615 C6.31098266,18.4403198 6.73179191,18.6322102 7.22543353,18.7761279 C7.72716763,18.9200457 8.30982659,19 8.9734104,19 C9.7583815,19 10.4624277,18.8960594 11.0693642,18.6961736 C11.6763006,18.4962878 12.1861272,18.2324386 12.5907514,17.9046259 C12.9953757,17.5768132 13.3028902,17.2090234 13.5132948,16.793261 C13.7236994,16.3774986 13.8289017,15.9537407 13.8289017,15.5219874 C13.8289017,15.2021702 13.7884393,14.9223301 13.699422,14.6744717 C13.6184971,14.4186179 13.5052023,14.1947459 13.3676301,14.0028555 L13.3676301,14.0028555 Z M9.86358382,10.8286693 C9.46705202,10.8286693 9.12716763,10.7167333 8.83583815,10.4848658 C8.54450867,10.2609937 8.30982659,9.98115363 8.11560694,9.64534552 C7.92138728,9.31753284 7.78381503,8.95773844 7.6867052,8.57395774 C7.59768786,8.19017704 7.54913295,7.8463735 7.54913295,7.54254712 C7.54913295,7.29468875 7.5734104,7.05482581 7.6300578,6.82295831 C7.6867052,6.59109081 7.79190751,6.37521416 7.95375723,6.17532838 C8.09942197,5.99143347 8.29364162,5.84751571 8.5283237,5.73557967 C8.76300578,5.62364363 9.00578035,5.56767561 9.24855491,5.56767561 C9.62890173,5.56767561 9.96878613,5.67961165 10.2520231,5.91147915 C10.5433526,6.13535123 10.7861272,6.42318675 10.9803468,6.76699029 C11.1745665,7.11079383 11.3283237,7.47858367 11.4254335,7.87035979 C11.5225434,8.26213592 11.5710983,8.62193033 11.5710983,8.95773844 C11.5710983,9.13363792 11.5468208,9.34151913 11.4982659,9.60536836 C11.449711,9.86122216 11.3202312,10.0930897 11.1098266,10.3089663 C10.9641618,10.4528841 10.7699422,10.580811 10.5433526,10.6767561 C10.3248555,10.7806967 10.0982659,10.8286693 9.86358382,10.8286693 L9.86358382,10.8286693 Z M11.9028902,17.6567676 C11.4416185,18.0325528 10.7699422,18.2164477 9.87976879,18.2164477 C8.88439306,18.2164477 8.09132948,18.0085665 7.50057803,17.5928041 C6.91791908,17.1770417 6.61849711,16.6413478 6.61849711,15.977727 C6.61849711,15.6499143 6.68323699,15.3700742 6.81271676,15.1541976 C6.94219653,14.9303255 7.09595376,14.7464306 7.26589595,14.6025128 C7.43583815,14.4585951 7.61387283,14.3386636 7.79190751,14.2667047 C7.9699422,14.1867504 8.10751445,14.1307824 8.20462428,14.0908053 C8.39884393,14.0268418 8.60115607,13.9788692 8.81156069,13.9308966 C9.02196532,13.8909195 9.21618497,13.8589377 9.40231214,13.8429469 C9.58843931,13.826956 9.75028902,13.8109652 9.87976879,13.8029697 C10.017341,13.7949743 10.0982659,13.7949743 10.1387283,13.7949743 L10.3734104,13.7949743 C10.4300578,13.7949743 10.4947977,13.8029697 10.5676301,13.8109652 C10.9156069,14.0588235 11.2150289,14.2747002 11.4739884,14.474586 C11.732948,14.6664763 11.9433526,14.8583666 12.1052023,15.0422616 C12.267052,15.2261565 12.3884393,15.4100514 12.4693642,15.6019417 C12.550289,15.7938321 12.5907514,16.0017133 12.5907514,16.2335808 C12.5988439,16.8092519 12.3641618,17.2809823 11.9028902,17.6567676 Z M17.2115607,11.2444318 L17.2115607,9.32552827 L16.1433526,9.32552827 L16.1433526,11.2444318 L14.3549133,11.2444318 L14.3549133,12.1239292 L16.1433526,12.1239292 L16.1433526,13.9069103 L17.2115607,13.9069103 L17.2115607,12.1239292 L19,12.1239292 L19,11.2444318 L17.2115607,11.2444318 Z" />
      </svg>

      <svg class="icon" id="linkedin" viewBox="0 0 24 24">
        <path d="M6.51227863,5 C5.58429934,5 4.98431273,5.65783133 5.00031237,6.53493976 C4.98431273,7.36987952 5.58429934,8.05301205 6.48827917,8.05301205 C7.43225811,8.05301205 8.03224472,7.37831325 8.03224472,6.53493976 C8.01624508,5.65783133 7.43225811,5 6.51227863,5 L6.51227863,5 Z M5.07231076,19 L7.93624686,19 L7.93624686,9.25060241 L5.07231076,9.25060241 L5.07231076,19 L5.07231076,19 Z M15.6960737,9.0313253 C14.1681078,9.0313253 13.2241289,9.96746988 12.8481373,10.5831325 L12.7921385,10.5831325 L12.6561415,9.25060241 L10.1681971,9.25060241 C10.2081962,10.1108434 10.2401955,11.1481928 10.2401955,12.3626506 L10.2401955,19 L13.1041316,19 L13.1041316,13.3746988 C13.1041316,13.0963855 13.1441307,12.7927711 13.2161291,12.6156627 C13.4081248,12.0590361 13.8801142,11.4771084 14.6720966,11.4771084 C15.7120734,11.4771084 16.1280641,12.3373494 16.1280641,13.5939759 L16.1280641,19 L19,19 L19,13.2144578 C19,10.346988 17.5840316,9.0313253 15.6960737,9.0313253 L15.6960737,9.0313253 Z" />
      </svg>

      <svg class="icon" id="youtube" viewBox="0 0 24 24">
        <path d="M18.8560822,9.15272136 C18.8560822,9.15272136 18.7201599,8.16978067 18.2964021,7.73923639 C17.7607082,7.17059301 17.1690463,7.17059301 16.8972016,7.13809911 C14.938321,7 11.9960023,7 11.9960023,7 L11.9880069,7 C11.9880069,7 9.05368361,7 7.09480297,7.14622258 C6.82295831,7.17871649 6.22330097,7.17871649 5.69560251,7.74735987 C5.27984009,8.17790414 5.13592233,9.16084484 5.13592233,9.16084484 C5.13592233,9.16084484 5,10.3062551 5,11.4516653 L5,12.5320877 C5,13.6856214 5.14391776,14.8310317 5.14391776,14.8310317 C5.14391776,14.8310317 5.27984009,15.8139724 5.70359794,16.2445167 C6.23929183,16.81316 6.93489435,16.7887896 7.24671616,16.8537774 C8.36607653,16.9593826 12.0039977,17 12.0039977,17 C12.0039977,17 14.9463164,16.9918765 16.905197,16.8537774 C17.1770417,16.8212835 17.776699,16.8212835 18.3043975,16.2526401 C18.7201599,15.8220959 18.8640777,14.8391552 18.8640777,14.8391552 C18.8640777,14.8391552 19,13.6856214 19,12.5402112 L19,11.4597888 C18.9920046,10.3062551 18.8560822,9.15272136 18.8560822,9.15272136 L18.8560822,9.15272136 Z M10.5488292,13.8399675 L10.5488292,9.85134037 L14.3306682,11.8578392 L10.5488292,13.8399675 L10.5488292,13.8399675 Z" />
      </svg>

      <svg class="icon" id="github" viewBox="0 0 24 24">
        <path d="M12,5 C8.136,5 5,8.21527414 5,12.1763593 C5,15.3501995 7.008,18.0434059 9.784,18.9880999 C10.136,19.0543942 10.264,18.8306509 10.264,18.6400547 C10.264,18.4660321 10.256,18.0185455 10.256,17.4218967 C8.312,17.8528098 7.896,16.4606292 7.896,16.4606292 C7.576,15.6319503 7.12,15.408207 7.12,15.408207 C6.488,14.9607204 7.168,14.9690072 7.168,14.9690072 C7.872,15.0187279 8.24,15.7065314 8.24,15.7065314 C8.864,16.8003876 9.88,16.4854896 10.28,16.3031802 C10.344,15.83912 10.528,15.524222 10.728,15.3419127 C9.176,15.1596033 7.536,14.5463809 7.536,11.795167 C7.536,11.007922 7.808,10.3698393 8.256,9.87263194 C8.184,9.69032258 7.944,8.96108515 8.328,7.97495725 C8.328,7.97495725 8.912,7.78436111 10.256,8.71248148 C10.816,8.55503249 11.416,8.4721646 12.008,8.4721646 C12.6,8.4721646 13.2,8.55503249 13.76,8.71248148 C15.096,7.78436111 15.68,7.97495725 15.68,7.97495725 C16.064,8.96108515 15.824,9.69032258 15.752,9.87263194 C16.2,10.3781261 16.472,11.0162088 16.472,11.795167 C16.472,14.5546677 14.832,15.1596033 13.272,15.3419127 C13.52,15.565656 13.744,16.0048558 13.744,16.6677989 C13.744,17.6290665 13.736,18.3997378 13.736,18.6400547 C13.736,18.8306509 13.864,19.0543942 14.216,18.9880999 C16.992,18.0351191 19,15.3501995 19,12.1763593 C19,8.21527414 15.864,5 12,5 L12,5 Z" />
      </svg>

      <svg class="icon" id="kik" viewBox="0 0 24 24">
        <path d="M12.2543453,18.2644968 L9.76791226,15.0563329 L9.00595767,15.7384433 L9.00588211,17.6364356 L8.9863052,17.6356989 L8.9863052,17.6356989 C8.9427481,18.3962982 8.29890647,18.9999271 7.51068603,18.9999271 C6.69417659,18.9999271 6.0327178,18.3523124 6.0327178,17.5534418 C6.0327178,17.5437934 6.0328143,17.5341672 6.03300639,17.5245639 L6,17.5233218 L6.00015112,6.51292416 L6.0341232,6.51327236 C6.03354046,6.4964289 6.03324673,6.47951316 6.03324673,6.46252982 C6.03324673,5.65468885 6.69780351,5 7.51725982,5 C8.33679169,5 9.00119735,5.65468885 9.00119735,6.46252982 C9.00119735,6.48975355 9.00044277,6.51680357 8.99895309,6.54366067 L9.0170651,6.54384631 L9.03187501,11.9073065 L11.8247514,9.27119386 L11.825577,9.27193691 L11.825577,9.27193691 C12.1018069,8.97639443 12.5010378,8.79073378 12.9449395,8.79073378 C13.7786012,8.79073378 14.4542654,9.44520384 14.4542654,10.2526072 C14.4542654,10.6440457 14.2954558,10.9995899 14.0368252,11.262039 L14.0522067,11.2758822 L12.0872494,13.1435358 L14.8335804,16.7167936 L14.8129801,16.7312221 C14.9660903,16.9614492 15.0550489,17.2363069 15.0550489,17.53149 C15.0550489,18.342394 14.383465,19 13.5548658,19 C12.9989729,19 12.513635,18.704109 12.2543453,18.2644968 Z M17.3298808,11.8523905 C18.252402,11.8523905 19,12.5708198 19,13.457133 C19,14.3434462 18.252402,15.0618755 17.3298808,15.0618755 C16.4074352,15.0618755 15.6599127,14.3434462 15.6599127,13.457133 C15.6599127,12.5708928 16.4074352,11.8523905 17.3298808,11.8523905 Z" />
      </svg>

</svg>
