<?xml version="1.0" encoding="UTF-8" standalone="no"?><svg width="40" height="32" viewBox="0 0 40 32" xmlns="http://www.w3.org/2000/svg"><title>avatar_mask</title><path d="M20 .5c.87 0 3.696.062 5 .5 2.391-.876 7-1.5 11 0 3.478 1.713 4 16.544 4 17 0 .86-1.652 1.582-6-3 0 0-.565.884-1 2-.435 1.076-2.13 6.369-3 9-.87 2.631-1.913 6-4 6-1.391 0-4.26-.5-6-.5-1.74 0-4.609.5-6 .5-2.087 0-3.13-3.369-4-6-.87-2.631-2.565-7.924-3-9-.435-1.116-1-2-1-2-4.348 4.582-6 3.86-6 3 0-.895.522-15.287 4-17C8-.5 12.609.124 15 1c1.304-.438 4.13-.5 5-.5z" fill="#F44336" fill-rule="evenodd"/></svg>
