<?xml version="1.0" encoding="UTF-8" standalone="no"?><svg width="96" height="96" viewBox="0 0 96 96" xmlns="http://www.w3.org/2000/svg"><title>loading_spinner</title><g fill="#F44336" fill-rule="evenodd"><path d="M48 2a45.809 45.809 0 0 0-29 10.291c-.559.374-.93.998-.93 1.709A2 2 0 0 0 21 15.771c.104-.031.348-.233.366-.247A41.827 41.827 0 0 1 48 6a41.827 41.827 0 0 1 26.634 9.524c.018.014.262.216.366.246a2 2 0 0 0 2-3.46A45.716 45.716 0 0 0 48 2zM48.14 94a45.809 45.809 0 0 0 29-10.291c.559-.374.93-.998.93-1.709a2 2 0 0 0-2.93-1.771c-.104.031-.348.233-.366.247A41.827 41.827 0 0 1 48.14 90a41.827 41.827 0 0 1-26.634-9.524c-.018-.014-.262-.216-.366-.246a2 2 0 0 0-2 3.46 45.716 45.716 0 0 0 29 10.31z"/></g></svg>
