<?xml version="1.0" encoding="UTF-8" standalone="no"?><svg width="72" height="72" viewBox="0 0 72 72" xmlns="http://www.w3.org/2000/svg"><title>loading_dog_head</title><path d="M36 18.147c1.13 0 4.522 0 6.217.57 3.11-1.139 10.74-2.903 15.261-.57C62 20.375 62 40.327 62 40.92c0 1.118-2.826.833-8.478-5.124 0 0 0 1.396-.565 2.847-.566 1.4-4.522 9.096-5.653 12.516-1.13 3.42-3.391 6.841-5.652 6.841-2.26 0-3.391-.57-5.652-.57-2.26 0-3.391.57-5.652.57s-4.522-3.42-5.652-6.841c-1.13-3.42-5.087-11.117-5.653-12.516-.565-1.451-.565-2.847-.565-2.847C12.826 41.753 10 42.038 10 40.92c0-1.163 0-20.545 4.522-22.773 4.521-2.333 12.152-.569 15.26.57 1.696-.57 5.088-.57 6.218-.57z" fill="#F44336" fill-rule="evenodd"/></svg>
