<?xml version="1.0" encoding="UTF-8" standalone="no"?><svg xmlns="http://www.w3.org/2000/svg" width="160" height="144" viewBox="0 0 160 144" xmlns:xlink="http://www.w3.org/1999/xlink"><defs><rect id="a" width="144" height="60" rx="4"/><mask id="I" width="148" height="64" x="-2" y="-2"><path fill="#fff" d="M-2-2h148v64H-2z"/><use xlink:href="#a"/></mask><rect id="b" width="15" height="20" x="51.444" y="22.667" rx="2"/><mask id="J" width="15" height="20" x="0" y="0" fill="#fff"><use xlink:href="#b"/></mask><rect id="c" width="15" height="20" x="34.444" y="22.667" rx="2"/><mask id="K" width="15" height="20" x="0" y="0" fill="#fff"><use xlink:href="#c"/></mask><rect id="d" width="15" height="20" x="17.444" y="22.667" rx="2"/><mask id="L" width="15" height="20" x="0" y="0" fill="#fff"><use xlink:href="#d"/></mask><rect id="e" width="15" height="20" x=".444" y="22.667" rx="2"/><mask id="M" width="15" height="20" x="0" y="0" fill="#fff"><use xlink:href="#e"/></mask><path id="f" d="M51.444 5.385c0-1.1.832-2.304 1.874-2.695L58.01.928c.516-.194 1.36-.191 1.87 0L64.57 2.69c1.035.388 1.873 1.591 1.873 2.695v10.563c0 1.1-.83 2.304-1.873 2.696l-4.692 1.761c-.516.194-1.36.192-1.87 0l-4.691-1.761c-1.035-.389-1.874-1.592-1.874-2.696V5.385z"/><mask id="N" width="15" height="20" x="0" y="0" fill="#fff"><use xlink:href="#f"/></mask><rect id="g" width="15" height="20" x="34.444" y=".667" rx="2"/><mask id="O" width="15" height="20" x="0" y="0" fill="#fff"><use xlink:href="#g"/></mask><rect id="h" width="15" height="20" x="17.444" y=".667" rx="2"/><mask id="P" width="15" height="20" x="0" y="0" fill="#fff"><use xlink:href="#h"/></mask><rect id="i" width="15" height="20" x=".444" y=".667" rx="2"/><mask id="Q" width="15" height="20" x="0" y="0" fill="#fff"><use xlink:href="#i"/></mask><path id="j" d="M51.111 27.385c0-1.1.831-2.304 1.873-2.695l4.692-1.762c.517-.194 1.36-.191 1.87 0l4.692 1.762c1.034.388 1.873 1.591 1.873 2.695v10.563c0 1.1-.831 2.304-1.873 2.696l-4.692 1.761c-.516.194-1.36.192-1.87 0l-4.692-1.761c-1.034-.389-1.873-1.592-1.873-2.696V27.385z"/><mask id="R" width="15" height="20" x="0" y="0" fill="#fff"><use xlink:href="#j"/></mask><rect id="k" width="15" height="20" x="34.111" y="22.667" rx="2"/><mask id="S" width="15" height="20" x="0" y="0" fill="#fff"><use xlink:href="#k"/></mask><rect id="l" width="15" height="20" x="17.111" y="22.667" rx="2"/><mask id="T" width="15" height="20" x="0" y="0" fill="#fff"><use xlink:href="#l"/></mask><rect id="m" width="15" height="20" x=".111" y="22.667" rx="2"/><mask id="U" width="15" height="20" x="0" y="0" fill="#fff"><use xlink:href="#m"/></mask><rect id="n" width="15" height="20" x="51.111" y=".667" rx="2"/><mask id="V" width="15" height="20" x="0" y="0" fill="#fff"><use xlink:href="#n"/></mask><rect id="o" width="15" height="20" x="34.111" y=".667" rx="2"/><mask id="W" width="15" height="20" x="0" y="0" fill="#fff"><use xlink:href="#o"/></mask><rect id="p" width="15" height="20" x="17.111" y=".667" rx="2"/><mask id="X" width="15" height="20" x="0" y="0" fill="#fff"><use xlink:href="#p"/></mask><path id="q" d="M.111 5.385c0-1.1.831-2.304 1.873-2.695L6.676.928c.517-.194 1.36-.191 1.87 0l4.692 1.762c1.034.388 1.873 1.591 1.873 2.695v10.563c0 1.1-.831 2.304-1.873 2.696l-4.692 1.761c-.516.194-1.36.192-1.87 0l-4.692-1.761C.95 18.255.111 17.052.111 15.948V5.385z"/><mask id="Y" width="15" height="20" x="0" y="0" fill="#fff"><use xlink:href="#q"/></mask><path id="aa" d="M4 3.44c0-.123.004-.25.012-.384.007-.133.016-.258.026-.374a362.78 362.78 0 0 1 .043-.508c.33-.048.707-.088 1.132-.119A20.476 20.476 0 0 1 6.73 2c.371-.002.735.009 1.091.032.422.027.794.075 1.115.142.095.087.178.174.25.261.071.087.137.175.196.264.059.09.118.186.177.29l.196.337c.011.087.02.215.027.383.007.168.01.356.01.564a31.327 31.327 0 0 1-.026 1.318c-.007.21-.017.4-.029.573a4.21 4.21 0 0 1-.04.394c-.072.106-.146.22-.224.342a7.67 7.67 0 0 1-.24.357c-.084.116-.17.228-.26.335a2.077 2.077 0 0 1-.27.275l-.509.053a17.823 17.823 0 0 1-2.22.068c-.27-.01-.536-.028-.797-.056a5.678 5.678 0 0 1-.738-.126c-.023-.267-.037-.58-.043-.94a36.882 36.882 0 0 1-.003-1.126l.014-1.18.015-1.092L4 3.44zm2.305 2.293c0 .194.003.358.01.493.007.134.014.212.022.233.099.028.21.048.332.061a3.338 3.338 0 0 0 .713 0c.11-.013.205-.033.285-.06.071-.211.124-.443.158-.694.034-.251.052-.503.056-.754v-.12a8.562 8.562 0 0 0-.026-.603 4.35 4.35 0 0 0-.081-.577.777.777 0 0 0-.306-.163 1.74 1.74 0 0 0-.397-.066 1.522 1.522 0 0 0-.406.023 1.21 1.21 0 0 0-.34.107 6.954 6.954 0 0 0-.01.31 58.01 58.01 0 0 0-.01 1.18v.63zm3.954-2.395c.008-.182.023-.368.046-.557.024-.19.056-.368.096-.534a6.45 6.45 0 0 1 .668-.106c.24-.026.488-.046.743-.06.254-.013.512-.02.775-.023h.261a39.392 39.392 0 0 1 1.232.02l.632.024a.97.97 0 0 1 .047.254c.007.105.012.214.014.326v.11a8.376 8.376 0 0 1-.014.493 12.52 12.52 0 0 1-.9.012 6.988 6.988 0 0 0-.903.035.689.689 0 0 0-.079.215 2.282 2.282 0 0 0-.046.438 1.638 1.638 0 0 0 .067.464.684.684 0 0 0 .125.006l.264-.003a18.7 18.7 0 0 1 .344-.003h.363c.117 0 .226 0 .328.003.101.002.177.01.228.023a7.63 7.63 0 0 1 .04.603c0 .11-.008.214-.023.31a4.17 4.17 0 0 1-.417.027l-.426.006c-.143.002-.284.007-.424.014-.14.008-.278.026-.414.055a.895.895 0 0 0-.055.235 2.692 2.692 0 0 0-.015.22l.003.085a4.594 4.594 0 0 0 .056.56c.087.027.21.044.371.05a5.222 5.222 0 0 0 .511 0 53.038 53.038 0 0 1 .656-.018c.12 0 .222.005.305.014.027.18.043.373.046.578v.05c0 .187-.02.364-.063.53-.326.031-.644.057-.956.077-.311.02-.627.031-.946.033h-.107c-.285 0-.575-.007-.871-.02a13.969 13.969 0 0 1-1.045-.09 20.695 20.695 0 0 1-.058-1.05 52.94 52.94 0 0 1-.018-1.126v-.287c0-.288.002-.577.006-.868l.02-1.12c-.067 0-.146 0-.235-.002a10.877 10.877 0 0 0-.232-.003zm5.063-.047c.011-.214.02-.414.023-.597.004-.184.008-.318.012-.4.214-.057.449-.1.702-.133.254-.032.515-.053.784-.065.201-.008.403-.013.604-.015a42.966 42.966 0 0 1 .964.02 25.607 25.607 0 0 1 1.155.062 5.902 5.902 0 0 1-.012.612 2.692 2.692 0 0 1-.107.589 2.47 2.47 0 0 1-.456.052 9.828 9.828 0 0 1-.479 0l-.479-.014a4.238 4.238 0 0 0-.47.008c-.035.027-.06.085-.076.174a2.528 2.528 0 0 0-.026.3 4.756 4.756 0 0 0 0 .318c.004.1.006.177.006.23.091.03.214.05.369.056a15.148 15.148 0 0 0 .744.015c.085 0 .168 0 .252-.002h.07c.135 0 .25.005.345.015.023.098.04.188.049.27a1.294 1.294 0 0 1 .009.237 1.983 1.983 0 0 1-.09.502c-.147.02-.292.032-.434.038a21.005 21.005 0 0 0-.858.052c-.145.012-.29.037-.433.076a2.296 2.296 0 0 0-.008.24 65.45 65.45 0 0 0-.005.533 26.098 26.098 0 0 0 .025 1.284c-.076.03-.187.06-.335.085a5.054 5.054 0 0 1-.48.06c-.173.013-.349.02-.528.02a3.44 3.44 0 0 1-.474-.029 15.075 15.075 0 0 1-.067-1.175 39.234 39.234 0 0 1-.003-1.201c.006-.397.017-.778.033-1.145l.048-.988a.773.773 0 0 1-.188-.033c-.082-.022-.144-.04-.186-.05zm4.697.047c.008-.182.023-.368.046-.557.024-.19.055-.368.096-.534a6.45 6.45 0 0 1 .668-.106c.24-.026.488-.046.743-.06.254-.013.512-.02.775-.023h.261a39.392 39.392 0 0 1 1.232.02l.632.024a.97.97 0 0 1 .047.254c.007.105.012.214.014.326v.11a8.376 8.376 0 0 1-.014.493 12.52 12.52 0 0 1-.9.012 6.988 6.988 0 0 0-.903.035.689.689 0 0 0-.079.215 2.282 2.282 0 0 0-.046.438 1.638 1.638 0 0 0 .067.464.684.684 0 0 0 .125.006l.264-.003a18.7 18.7 0 0 1 .344-.003h.363c.117 0 .226 0 .328.003.101.002.177.01.228.023a7.63 7.63 0 0 1 .04.603c0 .11-.008.214-.023.31a4.17 4.17 0 0 1-.417.027l-.426.006c-.143.002-.284.007-.424.014-.14.008-.278.026-.414.055a.895.895 0 0 0-.055.235 2.692 2.692 0 0 0-.015.22l.003.085a4.594 4.594 0 0 0 .055.56c.088.027.211.044.372.05a5.222 5.222 0 0 0 .511 0 53.038 53.038 0 0 1 .656-.018c.12 0 .222.005.305.014.027.18.042.373.046.578v.05c0 .187-.02.364-.064.53-.325.031-.643.057-.955.077-.311.02-.627.031-.946.033h-.107c-.285 0-.575-.007-.871-.02a13.969 13.969 0 0 1-1.045-.09 20.695 20.695 0 0 1-.058-1.05c-.01-.368-.016-.743-.018-1.126v-.287c0-.288.002-.577.006-.868l.02-1.12c-.067 0-.146 0-.235-.002a10.877 10.877 0 0 0-.232-.003zm4.848 4.505c.035-.26.1-.576.196-.944s.206-.757.33-1.165c.126-.408.257-.816.396-1.224.138-.408.27-.785.393-1.129a2.055 2.055 0 0 1-.168-.017 13.226 13.226 0 0 0-.131-.034.501.501 0 0 1-.099-.033c.02-.075.039-.159.058-.25a11.072 11.072 0 0 1 .131-.54c.023-.082.05-.152.078-.208a7.608 7.608 0 0 1 1.115-.145 14.188 14.188 0 0 1 1.452-.023c.236.008.455.02.659.039.203.018.374.048.513.088.095.451.19.896.285 1.336.095.44.187.882.277 1.325.09.443.176.897.259 1.363.082.467.157.951.225 1.454-.151.03-.308.055-.47.071a11.755 11.755 0 0 1-.947.057h-.145c-.093 0-.178-.001-.256-.003a44.981 44.981 0 0 0-.083-.261 5.888 5.888 0 0 1-.117-.427 8.014 8.014 0 0 1-.055-.27 4.17 4.17 0 0 0-.48-.034l-.36-.003h-.176c-.178.002-.347.01-.507.026a2.86 2.86 0 0 0-.393.06 9.399 9.399 0 0 1-.103.225 1.75 1.75 0 0 0-.079.193 2.523 2.523 0 0 0-.06.205l-.06.25c-.11.028-.241.047-.392.059a6.817 6.817 0 0 1-.914.003 3.186 3.186 0 0 1-.372-.044zm2.415-2.353a3.145 3.145 0 0 0 .633.04c.12-.003.232-.009.335-.016.104-.008.175-.018.214-.03a7.78 7.78 0 0 0-.054-.443 12.48 12.48 0 0 0-.083-.493 6.79 6.79 0 0 0-.103-.463 2.742 2.742 0 0 0-.117-.361c-.045-.109-.094-.163-.148-.163a.032.032 0 0 0-.015.003c-.062.012-.114.065-.157.16a1.775 1.775 0 0 0-.062.166l-.102.31a27.11 27.11 0 0 0-.232.778c-.034.123-.06.231-.08.324-.02.093-.029.156-.029.188zm3.771-1.57a5.493 5.493 0 0 1 .13-1.461c.053-.024.156-.046.309-.069a7.81 7.81 0 0 1 .55-.056c.214-.016.451-.03.712-.04a50.21 50.21 0 0 1 1.603-.047c.164-.004.321-.006.47-.006h.259c.222.004.412.01.57.017.158.008.269.018.332.03.008.09.012.195.012.314a5.493 5.493 0 0 1-.044.695 8.113 8.113 0 0 1-.037.267c-.215.027-.426.05-.632.068-.206.019-.416.032-.631.04-.02.098-.039.242-.058.43a25.312 25.312 0 0 0-.105 1.409c-.013.27-.025.538-.035.802a46.885 46.885 0 0 0-.022 1.084c0 .104.001.2.005.29-.302.052-.604.101-.906.148-.199.03-.398.045-.598.043-.1 0-.201-.004-.302-.011a26.14 26.14 0 0 1-.11-2.533l.003-.47.012-1.016a4.336 4.336 0 0 0-.282-.008h-.075c-.128.002-.258.006-.39.013-.131.006-.26.018-.387.033a7.095 7.095 0 0 1-.353.035z"/><filter id="Z" width="200%" height="200%" x="-50%" y="-50%" filterUnits="objectBoundingBox"><feOffset in="SourceAlpha" result="shadowOffsetOuter1"/><feColorMatrix values="0 0 0 0 0.121568627 0 0 0 0 0.121568627 0 0 0 0 0.121568627 0 0 0 1 0" in="shadowOffsetOuter1"/></filter><rect id="r" width="144" height="60" rx="4"/><mask id="ab" width="148" height="64" x="-2" y="-2"><path fill="#fff" d="M-2-2h148v64H-2z"/><use xlink:href="#r"/></mask><rect id="s" width="15" height="20" x="51.444" y="22.667" rx="2"/><mask id="ac" width="15" height="20" x="0" y="0" fill="#fff"><use xlink:href="#s"/></mask><rect id="t" width="15" height="20" x="34.444" y="22.667" rx="2"/><mask id="ad" width="15" height="20" x="0" y="0" fill="#fff"><use xlink:href="#t"/></mask><rect id="u" width="15" height="20" x="17.444" y="22.667" rx="2"/><mask id="ae" width="15" height="20" x="0" y="0" fill="#fff"><use xlink:href="#u"/></mask><rect id="v" width="15" height="20" x=".444" y="22.667" rx="2"/><mask id="af" width="15" height="20" x="0" y="0" fill="#fff"><use xlink:href="#v"/></mask><rect id="w" width="15" height="20" x="51.444" y=".667" rx="2"/><mask id="ag" width="15" height="20" x="0" y="0" fill="#fff"><use xlink:href="#w"/></mask><path id="x" d="M34.444 5.385c0-1.1.832-2.304 1.874-2.695L41.01.928c.516-.194 1.36-.191 1.87 0L47.57 2.69c1.035.388 1.873 1.591 1.873 2.695v10.563c0 1.1-.83 2.304-1.873 2.696l-4.692 1.761c-.516.194-1.36.192-1.87 0l-4.691-1.761c-1.035-.389-1.874-1.592-1.874-2.696V5.385z"/><mask id="ah" width="15" height="20" x="0" y="0" fill="#fff"><use xlink:href="#x"/></mask><path id="y" d="M17.444 5.385c0-1.1.832-2.304 1.874-2.695L24.01.928c.516-.194 1.36-.191 1.87 0L30.57 2.69c1.035.388 1.873 1.591 1.873 2.695v10.563c0 1.1-.83 2.304-1.873 2.696l-4.692 1.761c-.516.194-1.36.192-1.87 0l-4.691-1.761c-1.035-.389-1.874-1.592-1.874-2.696V5.385z"/><mask id="ai" width="15" height="20" x="0" y="0" fill="#fff"><use xlink:href="#y"/></mask><rect id="z" width="15" height="20" x=".444" y=".667" rx="2"/><mask id="aj" width="15" height="20" x="0" y="0" fill="#fff"><use xlink:href="#z"/></mask><path id="A" d="M51.111 27.385c0-1.1.831-2.304 1.873-2.695l4.692-1.762c.517-.194 1.36-.191 1.87 0l4.692 1.762c1.034.388 1.873 1.591 1.873 2.695v10.563c0 1.1-.831 2.304-1.873 2.696l-4.692 1.761c-.516.194-1.36.192-1.87 0l-4.692-1.761c-1.034-.389-1.873-1.592-1.873-2.696V27.385z"/><mask id="ak" width="15" height="20" x="0" y="0" fill="#fff"><use xlink:href="#A"/></mask><rect id="B" width="15" height="20" x="34.111" y="22.667" rx="2"/><mask id="al" width="15" height="20" x="0" y="0" fill="#fff"><use xlink:href="#B"/></mask><rect id="C" width="15" height="20" x="17.111" y="22.667" rx="2"/><mask id="am" width="15" height="20" x="0" y="0" fill="#fff"><use xlink:href="#C"/></mask><rect id="D" width="15" height="20" x=".111" y="22.667" rx="2"/><mask id="an" width="15" height="20" x="0" y="0" fill="#fff"><use xlink:href="#D"/></mask><rect id="E" width="15" height="20" x="51.111" y=".667" rx="2"/><mask id="ao" width="15" height="20" x="0" y="0" fill="#fff"><use xlink:href="#E"/></mask><rect id="F" width="15" height="20" x="34.111" y=".667" rx="2"/><mask id="ap" width="15" height="20" x="0" y="0" fill="#fff"><use xlink:href="#F"/></mask><rect id="G" width="15" height="20" x="17.111" y=".667" rx="2"/><mask id="aq" width="15" height="20" x="0" y="0" fill="#fff"><use xlink:href="#G"/></mask><rect id="H" width="15" height="20" x=".111" y=".667" rx="2"/><mask id="ar" width="15" height="20" x="0" y="0" fill="#fff"><use xlink:href="#H"/></mask><path id="at" d="M4 2.366l.5-.069a18.366 18.366 0 0 1 .987-.113c.043-.004.08-.005.111-.005.065 0 .107.006.127.02.015.115.038.25.069.404a70.155 70.155 0 0 0 .308 1.472c.034.152.065.285.093.398.027.113.048.202.061.267a2.16 2.16 0 0 0 .093.259c.023.051.046.098.072.14.025.042.049.063.07.063.032 0 .06-.014.087-.042a.466.466 0 0 0 .07-.097.806.806 0 0 0 .05-.111l.031-.092c.12-.428.254-.871.403-1.33.149-.46.29-.902.423-1.325a3.59 3.59 0 0 1 .558-.024c.177.008.335.022.476.041.141.02.262.043.363.07.101.026.171.05.21.074-.14.392-.29.809-.45 1.25A270.045 270.045 0 0 0 7.28 7.7a8.97 8.97 0 0 1-.47.05 17.31 17.31 0 0 1-.509.034c-.17.009-.34.014-.508.016h-.1c-.13 0-.254-.003-.37-.009A31.16 31.16 0 0 1 4.8 6.053a46.447 46.447 0 0 1-.485-2.002c-.07-.323-.132-.63-.186-.92-.054-.29-.097-.545-.128-.765zM9.79 5.02v-.459c0-.302.002-.602.004-.899.004-.444.012-.85.023-1.217.134-.031.274-.054.422-.069.148-.015.297-.025.448-.03.15-.006.298-.01.442-.01h.41c0 .863-.013 1.73-.038 2.601-.026.871-.06 1.75-.106 2.639a.495.495 0 0 1-.163.05 5.843 5.843 0 0 1-.263.039 4.146 4.146 0 0 1-.313.028 9.48 9.48 0 0 1-.786.008 54.119 54.119 0 0 1-.08-2.681zm2.384.972a8.095 8.095 0 0 1 .006-.901c.017-.318.049-.626.095-.924.046-.297.106-.573.18-.827.075-.253.158-.46.25-.62.116-.068.28-.133.49-.195a8.02 8.02 0 0 1 .705-.168 13.668 13.668 0 0 1 1.585-.21 8.67 8.67 0 0 1 .646-.012c.188.005.32.029.394.07a4.677 4.677 0 0 1 .041.866c-.006.125-.02.254-.041.387-.208.015-.403.028-.585.038-.182.01-.357.022-.526.036a4.151 4.151 0 0 0-.49.072 2.332 2.332 0 0 0-.48.158 8.391 8.391 0 0 0-.223 1.288 4.613 4.613 0 0 0-.008.655c.013.203.053.367.117.492a.801.801 0 0 0 .295.114c.129.028.271.048.428.062a18.54 18.54 0 0 0 .962.053c.148.003.278.01.39.02.111.01.191.026.24.05a3.352 3.352 0 0 1-.009.357c-.01.138-.023.27-.04.396a2.218 2.218 0 0 1-.073.338c-.03.1-.065.166-.104.2-.31-.005-.634-.013-.975-.026-.341-.012-.683-.036-1.026-.07-.342-.034-.68-.085-1.013-.152a6.01 6.01 0 0 1-.946-.27c-.085-.116-.15-.286-.196-.511a5.065 5.065 0 0 1-.09-.766zm4.886-2.14a5.524 5.524 0 0 1 .132-1.474c.053-.024.157-.047.311-.07a7.93 7.93 0 0 1 .557-.056c.217-.016.457-.03.721-.041a50.98 50.98 0 0 1 1.622-.047c.167-.004.325-.006.476-.006h.262c.225.004.417.01.577.018a3 3 0 0 1 .336.029c.008.092.012.197.012.317a5.524 5.524 0 0 1-.044.701 8.16 8.16 0 0 1-.038.27c-.218.027-.43.05-.64.068-.208.019-.42.032-.638.04-.02.1-.04.244-.059.435a25.455 25.455 0 0 0-.106 1.42c-.013.274-.025.544-.035.81a47.145 47.145 0 0 0-.022 1.093c-.001.105 0 .203.004.293-.305.052-.61.102-.916.149a3.998 3.998 0 0 1-.91.032 26.287 26.287 0 0 1-.112-2.555c0-.156 0-.314.002-.474l.012-1.024a4.403 4.403 0 0 0-.285-.01h-.076c-.13.003-.26.007-.394.014a5.637 5.637 0 0 0-.392.034 7.203 7.203 0 0 1-.357.035zm5.48 1.908a133.844 133.844 0 0 1 .01-1.75c.005-.28.014-.525.027-.734.057-.064.13-.152.216-.263.087-.112.18-.225.276-.341.097-.116.19-.223.281-.32.09-.098.166-.166.226-.203.145-.011.31-.026.494-.044.184-.017.38-.034.586-.05A17.916 17.916 0 0 1 25.946 2c.212 0 .418.006.617.018.199.011.378.036.539.073.088.076.176.168.264.275.089.107.174.22.256.338a7.73 7.73 0 0 1 .447.718l.027.498c.011.195.02.399.025.61a65.335 65.335 0 0 1 .021 1.27c0 .197-.003.373-.009.529a4.081 4.081 0 0 1-.026.366c-.141.195-.275.393-.401.595a5.265 5.265 0 0 1-.419.578 4.322 4.322 0 0 1-.53.072c-.205.017-.424.03-.658.042-.234.012-.477.018-.728.018a23.33 23.33 0 0 1-1.45-.044 8.317 8.317 0 0 1-.618-.058 2.412 2.412 0 0 1-.201-.27 6.204 6.204 0 0 1-.417-.736 3.188 3.188 0 0 1-.14-.33c-.004-.24-.006-.507-.006-.802zm2.073-.046c.002.186.005.354.01.506.003.153.005.265.005.337.096.049.209.08.338.094a1.807 1.807 0 0 0 .394-.003c.133-.016.258-.047.374-.094a.895.895 0 0 0 .284-.173c.004-.195.01-.401.017-.619a19.016 19.016 0 0 0-.003-1.415c-.01-.25-.028-.498-.055-.746l-.349.009a4.148 4.148 0 0 0-.317.017c-.103.01-.203.027-.301.052a1.44 1.44 0 0 0-.303.115.923.923 0 0 0-.054.275 7.784 7.784 0 0 0-.028.471c-.006.184-.01.379-.012.586v.588zm4.046-2.256a5.502 5.502 0 0 1 .035-.624c.012-.107.026-.211.041-.312.016-.1.035-.19.056-.27.108-.035.268-.064.48-.087.213-.022.454-.04.723-.05.27-.013.556-.018.858-.018.303 0 .597.003.882.011.285.008.55.02.796.037.246.016.447.04.604.072.115.103.233.24.352.412.12.172.227.368.32.589.095.22.167.454.218.702a2.46 2.46 0 0 1 .044.761c-.088.111-.21.258-.364.439a7.739 7.739 0 0 1-.49.524c.034.056.078.137.131.241l.17.335.183.375c.063.13.12.252.175.363a18.636 18.636 0 0 1 .224.486 1.23 1.23 0 0 1-.304.129c-.134.04-.282.08-.445.115-.162.036-.329.069-.5.097-.17.028-.321.044-.455.048a6.72 6.72 0 0 1-.248-.317c-.073-.1-.145-.202-.216-.303l-.211-.306a31.413 31.413 0 0 0-.334-.474 1.097 1.097 0 0 0-.111-.132.368.368 0 0 0-.124-.083.168.168 0 0 0-.134.002c-.056.024-.09.072-.102.144a1.31 1.31 0 0 0-.018.21l.003.375v.185c-.002.187-.007.376-.015.567a2.716 2.716 0 0 1-.3.07c-.123.022-.261.039-.414.05a6.439 6.439 0 0 1-.49.018c-.175 0-.35-.01-.526-.03a26.898 26.898 0 0 1-.063-1.066 46.12 46.12 0 0 1-.034-2.197l.011-1.06a2.502 2.502 0 0 0-.19-.005.952.952 0 0 1-.218-.023zm2.218.797c0 .128.003.247.01.359.005.11.017.203.034.275a3.377 3.377 0 0 0 .628-.065c.114-.023.222-.056.324-.098a.672.672 0 0 0 .25-.17 1.454 1.454 0 0 0-.003-.266 5.305 5.305 0 0 0-.035-.28 2.95 2.95 0 0 0-.046-.238 2.132 2.132 0 0 1-.03-.142.443.443 0 0 0-.214-.111 1.893 1.893 0 0 0-.656-.067.44.44 0 0 0-.235.07 9.356 9.356 0 0 0-.027.733zM34.58 2.24c.153-.008.326-.02.52-.038s.382-.033.563-.045a11.773 11.773 0 0 1 .592-.028.67.67 0 0 1 .135.009c.024.107.069.236.135.386.067.15.137.3.212.45.074.15.143.289.207.415s.106.214.128.265a.26.26 0 0 0 .032.066l.063.093c.025.034.05.064.075.088.026.024.051.037.077.037a.206.206 0 0 0 .167-.08c.043-.052.073-.092.091-.12.124-.259.242-.526.354-.8.113-.274.239-.539.378-.795a9.05 9.05 0 0 1 .505-.014h.08a6.846 6.846 0 0 1 .884.064c.104.016.178.031.223.047-.145.232-.297.49-.455.774-.16.284-.322.578-.488.881l-.5.907c-.166.302-.327.582-.481.842l-.025 1.07c-.01.342-.02.662-.031.958-.137.028-.28.046-.426.056a5.91 5.91 0 0 1-.373.012h-.077c-.15-.002-.299-.007-.445-.015a7.85 7.85 0 0 0-.419-.012c0-.359-.004-.715-.014-1.07-.01-.354-.019-.71-.027-1.07a4.54 4.54 0 0 1-.295-.431 12.998 12.998 0 0 1-.33-.57 23.674 23.674 0 0 1-.337-.639 12.6 12.6 0 0 1-.307-.647c-.092-.21-.173-.405-.244-.586a3.227 3.227 0 0 1-.147-.46z"/><filter id="as" width="200%" height="200%" x="-50%" y="-50%" filterUnits="objectBoundingBox"><feOffset in="SourceAlpha" result="shadowOffsetOuter1"/><feColorMatrix values="0 0 0 0 0.121568627 0 0 0 0 0.121568627 0 0 0 0 0.121568627 0 0 0 1 0" in="shadowOffsetOuter1"/></filter></defs><g fill="none" fill-rule="evenodd"><g transform="translate(8 76)"><use fill="#292929" xlink:href="#a"/><use stroke="#0A0A0A" stroke-width="4" mask="url(#I)" xlink:href="#a"/><g fill="#2E2E2E" stroke="#1F1F1F" stroke-width="4" transform="translate(75.556 13.333)"><use mask="url(#J)" xlink:href="#b"/><use mask="url(#K)" xlink:href="#c"/><use mask="url(#L)" xlink:href="#d"/><use mask="url(#M)" xlink:href="#e"/><use mask="url(#N)" xlink:href="#f"/><use mask="url(#O)" xlink:href="#g"/><use mask="url(#P)" xlink:href="#h"/><use mask="url(#Q)" xlink:href="#i"/></g><g fill="#2E2E2E" stroke="#1F1F1F" stroke-width="4" transform="translate(1.889 13.333)"><use mask="url(#R)" xlink:href="#j"/><use mask="url(#S)" xlink:href="#k"/><use mask="url(#T)" xlink:href="#l"/><use mask="url(#U)" xlink:href="#m"/><use mask="url(#V)" xlink:href="#n"/><use mask="url(#W)" xlink:href="#o"/><use mask="url(#X)" xlink:href="#p"/><use mask="url(#Y)" xlink:href="#q"/></g><path fill="#0A0A0A" d="M0 4.01A4.008 4.008 0 0 1 4.002 0h135.996A4.001 4.001 0 0 1 144 4.01V10H0V4.01z"/><use fill="#000" filter="url(#Z)" xlink:href="#aa"/><use fill="#292929" xlink:href="#aa"/><g transform="translate(67)"><path fill="#292929" d="M1 4h8v3H1z"/><ellipse cx="5" cy="7" fill="#1F1F1F" rx="4" ry="1"/><path fill="#2E2E2E" d="M9 5l1-3.5-.547-.273a.495.495 0 0 0-.675.217L8 3h-.5L7.083.495A.601.601 0 0 0 6.51 0H3.49a.602.602 0 0 0-.573.495L2.5 3H2l-.778-1.556a.502.502 0 0 0-.675-.217L0 1.5 1 5c0-.552 1.79-1 4-1s4 .448 4 1z"/></g></g><g transform="translate(8 8)"><use fill="#292929" xlink:href="#r"/><use stroke="#0A0A0A" stroke-width="4" mask="url(#ab)" xlink:href="#r"/><g fill="#2E2E2E" stroke="#1F1F1F" stroke-width="4" transform="translate(75.556 13.333)"><use mask="url(#ac)" xlink:href="#s"/><use mask="url(#ad)" xlink:href="#t"/><use mask="url(#ae)" xlink:href="#u"/><use mask="url(#af)" xlink:href="#v"/><use mask="url(#ag)" xlink:href="#w"/><use mask="url(#ah)" xlink:href="#x"/><use mask="url(#ai)" xlink:href="#y"/><use mask="url(#aj)" xlink:href="#z"/></g><g fill="#2E2E2E" stroke="#1F1F1F" stroke-width="4" transform="translate(1.889 13.333)"><use mask="url(#ak)" xlink:href="#A"/><use mask="url(#al)" xlink:href="#B"/><use mask="url(#am)" xlink:href="#C"/><use mask="url(#an)" xlink:href="#D"/><use mask="url(#ao)" xlink:href="#E"/><use mask="url(#ap)" xlink:href="#F"/><use mask="url(#aq)" xlink:href="#G"/><use mask="url(#ar)" xlink:href="#H"/></g><path fill="#0A0A0A" d="M0 4.01A4.008 4.008 0 0 1 4.002 0h135.996A4.001 4.001 0 0 1 144 4.01V10H0V4.01z"/><use fill="#000" filter="url(#as)" xlink:href="#at"/><use fill="#292929" xlink:href="#at"/><g transform="translate(67)"><path fill="#292929" d="M1 4h8v3H1z"/><ellipse cx="5" cy="7" fill="#1F1F1F" rx="4" ry="1"/><path fill="#2E2E2E" d="M9 5l1-3.5-.547-.273a.495.495 0 0 0-.675.217L8 3h-.5L7.083.495A.601.601 0 0 0 6.51 0H3.49a.602.602 0 0 0-.573.495L2.5 3H2l-.778-1.556a.502.502 0 0 0-.675-.217L0 1.5 1 5c0-.552 1.79-1 4-1s4 .448 4 1z"/></g></g></g></svg>
