<?xml version="1.0" encoding="UTF-8" standalone="no"?><svg xmlns="http://www.w3.org/2000/svg" width="35" height="16" viewBox="0 0 35 16"><g fill="none" fill-rule="evenodd"><rect width="35" height="16" fill="#212121" fill-opacity=".24" rx="2"/><path fill="#FFF" d="M4 4.309a.3.3 0 0 1 .09-.218A.289.289 0 0 1 4.303 4h3.009c.591 0 1.07.116 1.437.349.367.232.629.512.786.84.157.327.235.647.235.96 0 .426-.1.771-.303 1.034-.202.263-.4.455-.595.577.315.213.571.486.77.817.198.332.297.7.297 1.103 0 .396-.096.771-.286 1.126-.191.354-.474.642-.848.863-.374.22-.82.331-1.336.331H4.303a.289.289 0 0 1-.213-.091.3.3 0 0 1-.09-.218V4.31zm1.067 3.028H7.2c.494 0 .868-.099 1.122-.297.255-.198.382-.484.382-.857s-.127-.66-.382-.857c-.254-.198-.628-.297-1.122-.297H5.067v2.308zm0 3.634h2.29c.479 0 .851-.123 1.117-.371s.398-.554.398-.92c0-.373-.127-.686-.381-.937-.255-.252-.633-.377-1.134-.377h-2.29v2.605zm7.488-2.502h3.435c.082 0 .153-.03.213-.092a.3.3 0 0 0 .09-.217v-.411a.3.3 0 0 0-.09-.218.289.289 0 0 0-.213-.091h-3.435V5.029h3.682c.082 0 .153-.03.213-.092a.3.3 0 0 0 .09-.217v-.411a.3.3 0 0 0-.09-.218.289.289 0 0 0-.213-.091h-4.446a.289.289 0 0 0-.213.091.3.3 0 0 0-.09.218v7.382a.3.3 0 0 0 .09.218c.06.06.13.091.213.091h4.536c.082 0 .153-.03.213-.091a.3.3 0 0 0 .09-.218v-.411a.3.3 0 0 0-.09-.217.289.289 0 0 0-.213-.092h-3.772V8.47zM23.209 4.09a.3.3 0 0 1 .09.218v.411a.3.3 0 0 1-.09.217.289.289 0 0 1-.214.092h-2.099v6.662a.3.3 0 0 1-.09.218.289.289 0 0 1-.213.091h-.46a.289.289 0 0 1-.214-.091.3.3 0 0 1-.09-.218V5.03H17.73a.289.289 0 0 1-.213-.092.3.3 0 0 1-.09-.217v-.411a.3.3 0 0 1 .09-.218A.289.289 0 0 1 17.73 4h5.265c.083 0 .154.03.214.091zm2.211 6.103l-.583 1.52c-.068.19-.214.286-.438.286h-.416a.236.236 0 0 1-.174-.074.244.244 0 0 1-.073-.177c0-.039.015-.092.045-.16l2.75-7.212c.098-.251.267-.377.506-.377h.674c.24 0 .408.126.505.377l2.74 7.212c.029.068.044.121.044.16a.244.244 0 0 1-.073.177.236.236 0 0 1-.174.074h-.415c-.225 0-.37-.095-.438-.286l-.584-1.52H25.42zm3.503-1.028l-1.55-4.08-1.56 4.08h3.11z"/></g></svg>
