<?xml version="1.0" encoding="UTF-8" standalone="no"?><svg xmlns="http://www.w3.org/2000/svg" width="160" height="160" viewBox="0 0 160 160" xmlns:xlink="http://www.w3.org/1999/xlink"><defs><path id="a" d="M48 24.003C48 15.165 55.155 8 64.005 8h31.99C104.835 8 112 15.173 112 24.003V34H96v-5.99A4.005 4.005 0 0 0 91.996 24H68.004A4 4 0 0 0 64 28.006v5.99C64 42.836 56.836 50 48 50c-2.21 0-4 1.787-4 4v26H28V49.992C28 41.16 35.164 34 44 34c2.21 0 4-1.787 4-4.006v-5.99z"/><mask id="j" width="88" height="76" x="-2" y="-2"><path fill="#fff" d="M26 6h88v76H26z"/><use xlink:href="#a"/></mask><path id="b" d="M10 1.998C10 .894 10.898 0 11.99 0h16.02C29.108 0 30 .898 30 1.998V6H10V1.998z"/><mask id="k" width="24" height="10" x="-2" y="-2"><path fill="#fff" d="M8-2h24V8H8z"/><use xlink:href="#b"/></mask><path id="c" d="M8 7.993C8 6.893 8.897 6 10.005 6h19.99C31.102 6 32 6.9 32 7.993V68H8V7.993z"/><mask id="l" width="28" height="66" x="-2" y="-2"><path fill="#fff" d="M6 4h28v66H6z"/><use xlink:href="#c"/></mask><path id="d" d="M10 30h60v72H10z"/><mask id="m" width="64" height="76" x="-2" y="-2"><path fill="#fff" d="M8 28h64v76H8z"/><use xlink:href="#d"/></mask><path id="e" d="M10 48s7.015 1.644 12 2c14 1 22-6 36-4 3.954.565 12 2 12 2v54H10V48z"/><mask id="n" width="64" height="60.361" x="-2" y="-2"><path fill="#fff" d="M8 43.639h64V104H8z"/><use xlink:href="#e"/></mask><path id="f" d="M7.102 103.795c.496-.991 1.803-1.795 2.901-1.795h59.994c1.106 0 2.401.796 2.9 1.795l2.205 4.41c.496.991.898 2.682.898 3.793V118H4v-6.002c0-1.103.398-2.794.898-3.793l2.204-4.41z"/><mask id="o" width="76" height="20" x="-2" y="-2"><path fill="#fff" d="M2 100h76v20H2z"/><use xlink:href="#f"/></mask><path id="g" d="M12 12c0-1.105.887-2 1.998-2H20V5.998C20 4.894 20.892 4 21.997 4h36.006A2 2 0 0 1 60 5.998V10h6.002c1.103 0 1.998.888 1.998 2v2H12v-2z"/><mask id="p" width="60" height="14" x="-2" y="-2"><path fill="#fff" d="M10 2h60v14H10z"/><use xlink:href="#g"/></mask><rect id="h" width="72" height="16" x="4" y="14" rx="4"/><mask id="q" width="76" height="20" x="-2" y="-2"><path fill="#fff" d="M2 12h76v20H2z"/><use xlink:href="#h"/></mask><path id="i" d="M54 2.009A2.01 2.01 0 0 1 56.009 0h7.982A2.01 2.01 0 0 1 66 2.009V12H54V2.009z"/><mask id="r" width="16" height="16" x="-2" y="-2"><path fill="#fff" d="M52-2h16v16H52z"/><use xlink:href="#i"/></mask></defs><g fill="none" fill-rule="evenodd"><use fill="#303030" xlink:href="#a"/><use stroke="#121212" stroke-width="4" mask="url(#j)" xlink:href="#a"/><g transform="translate(16 80)"><path fill="#121212" d="M0 70c0-1.105.892-2 1.997-2h36.006c1.103 0 1.997.888 1.997 2v2H0v-2z"/><use fill="#121212" xlink:href="#b"/><use stroke="#121212" stroke-width="4" mask="url(#k)" xlink:href="#b"/><use fill="#303030" xlink:href="#c"/><use stroke="#121212" stroke-width="4" mask="url(#l)" xlink:href="#c"/><path fill="#363636" d="M8 22h24v12H8z"/><path fill="#121212" d="M20 48C8.954 48 0 39.046 0 28S8.954 8 20 8s20 8.954 20 20-8.954 20-20 20zm0-8c6.627 0 12-5.373 12-12s-5.373-12-12-12S8 21.373 8 28s5.373 12 12 12z"/><circle cx="20" cy="28" r="4" fill="#121212"/><path fill="#121212" d="M14.704 15.96l3.863-1.035 6.73 25.114-3.864 1.036z"/><path fill="#121212" d="M6.925 29.433l25.114-6.73 1.036 3.864-25.114 6.73z"/></g><g transform="translate(64 30)"><path fill="#121212" d="M0 120c0-1.105.898-2 1.997-2h76.006c1.103 0 1.997.888 1.997 2v2H0v-2z"/><use fill="#303030" xlink:href="#d"/><use stroke="#121212" stroke-width="4" mask="url(#m)" xlink:href="#d"/><use fill="#262626" xlink:href="#e"/><use stroke="#121212" stroke-width="4" mask="url(#n)" xlink:href="#e"/><rect width="4" height="52" x="62" y="34" fill="#363636" rx="2"/><circle cx="24" cy="66" r="2" fill="#121212"/><circle cx="49" cy="81" r="3" fill="#121212"/><use fill="#303030" xlink:href="#f"/><use stroke="#121212" stroke-width="4" mask="url(#o)" xlink:href="#f"/><path fill="#262626" d="M74 110c1.104 0 2 .887 2 1.998V118H4v-6.002A2 2 0 0 1 6 110h68z"/><use fill="#121212" xlink:href="#g"/><use stroke="#121212" stroke-width="4" mask="url(#p)" xlink:href="#g"/><use fill="#303030" xlink:href="#h"/><use stroke="#121212" stroke-width="4" mask="url(#q)" xlink:href="#h"/><path fill="#262626" d="M76 20v6.004A4.002 4.002 0 0 1 72 30H8c-2.21 0-4-1.789-4-3.996V20v2.004A3.998 3.998 0 0 0 8 26h64c2.202 0 4-1.79 4-3.996V20z"/><g><use fill="#303030" xlink:href="#i"/><use stroke="#121212" stroke-width="4" mask="url(#r)" xlink:href="#i"/></g></g></g></svg>
