<?xml version="1.0" encoding="UTF-8" standalone="no"?><svg xmlns="http://www.w3.org/2000/svg" width="160" height="160" viewBox="0 0 160 160" xmlns:xlink="http://www.w3.org/1999/xlink"><defs><path id="a" d="M41 63H31v8c-4 1-4 2-4 2v8h18v-8s0-1-4-2v-8z"/><mask id="g" width="22" height="22" x="-2" y="-2"><path fill="#fff" d="M25 61h22v22H25z"/><use xlink:href="#a"/></mask><path id="b" d="M0 87.992s0 24.008 30 24h12c30 0 30-24 30-24 0-16-26-16-26-16s-1.652 8-10 8c-8.347 0-10-8-10-8s-26 0-26 16z"/><mask id="h" width="76" height="44" x="-2" y="-2"><path fill="#fff" d="M-1.999 69.992h76v44h-76z"/><use xlink:href="#b"/></mask><path id="c" d="M14 43.455V29.364S14 4 36 4s22 25.364 22 25.364v14.09S58 66 36 66 14 43.455 14 43.455z"/><mask id="i" width="48" height="66" x="-2" y="-2"><path fill="#fff" d="M12 2h48v66H12z"/><use xlink:href="#c"/></mask><path id="d" d="M41 63H31v8c-4 1-4 2-4 2v8h18v-8s0-1-4-2v-8z"/><mask id="j" width="22" height="22" x="-2" y="-2"><path fill="#fff" d="M25 61h22v22H25z"/><use xlink:href="#d"/></mask><path id="e" d="M0 88s0 24.008 30 24h12c30 0 30-24 30-24 0-16-26-16-26-16s-1.653 8-10 8c-8.348 0-10-8-10-8S0 72 0 88z"/><mask id="k" width="76" height="44" x="-2" y="-2"><path fill="#fff" d="M-2 70h76v44H-2z"/><use xlink:href="#e"/></mask><path id="f" d="M14 43.455V29.364S14 4 36 4s22 25.364 22 25.364v14.09S58 66 36 66 14 43.455 14 43.455z"/><mask id="l" width="48" height="66" x="-2" y="-2"><path fill="#fff" d="M12 2h48v66H12z"/><use xlink:href="#f"/></mask></defs><g fill="none" fill-rule="evenodd"><g transform="translate(16 24)"><use fill="#292929" xlink:href="#a"/><use stroke="#0A0A0A" stroke-width="4" mask="url(#g)" xlink:href="#a"/><path fill="#1F1F1F" d="M41 69.566V63H31v6.566c1.526.281 3.188.434 5 .434 1.812 0 3.474-.153 5-.434z"/><use fill="#292929" xlink:href="#b"/><use stroke="#0A0A0A" stroke-width="4" mask="url(#h)" xlink:href="#b"/><path fill="#1F1F1F" d="M.56 84.16A12.846 12.846 0 0 0 0 87.992s0 24.008 30 24h12c30 0 30-24 30-24 0-1.396-.197-2.67-.558-3.833-1.55 6.873-7.395 19.833-29.441 19.833H30C7.954 103.998 2.109 91.034.56 84.16z"/><use fill="#292929" xlink:href="#c"/><use stroke="#0A0A0A" stroke-width="4" mask="url(#i)" xlink:href="#c"/><path fill="#0A0A0A" d="M35.985 33A55.898 55.898 0 0 0 55 29.689v9.315a4.001 4.001 0 0 0 8 0V27C63 12.088 50.912 0 36 0H17a4 4 0 0 0-4 4v8.826A26.855 26.855 0 0 0 9 26.08c.005.311 0 .614 0 .919v12.004a4.001 4.001 0 0 0 8 0V29.7A55.9 55.9 0 0 0 35.985 33zM28 53h16s0 5-8 5-8-5-8-5z"/><circle cx="27" cy="45" r="3" fill="#0A0A0A"/><circle cx="45" cy="45" r="3" fill="#0A0A0A"/></g><g transform="translate(72 24)"><use fill="#292929" xlink:href="#d"/><use stroke="#0A0A0A" stroke-width="4" mask="url(#j)" xlink:href="#d"/><path fill="#1F1F1F" d="M41 69.566V63H31v6.566c1.526.281 3.188.434 5 .434 1.812 0 3.474-.153 5-.434z"/><use fill="#292929" xlink:href="#e"/><use stroke="#0A0A0A" stroke-width="4" mask="url(#k)" xlink:href="#e"/><path fill="#1F1F1F" d="M.559 84A12.846 12.846 0 0 0 0 87.834s0 24.008 30 24h12c30 0 30-24 30-24 0-1.396-.198-2.67-.56-3.833-1.549 6.873-7.394 19.833-29.44 19.833H30C7.953 103.84 2.108 90.875.559 84.001z"/><use fill="#292929" xlink:href="#f"/><use stroke="#0A0A0A" stroke-width="4" mask="url(#l)" xlink:href="#f"/><path fill="#0A0A0A" d="M51.014 27.08A21.923 21.923 0 0 1 36 33v4c-7.549 0-14.21-3.802-18.172-9.595A6.002 6.002 0 0 0 14.083 34H14v9.455s0 18.985 17 22.111V71c-4 1-4 2-4 2v1.593c-.76-1.439-1-2.6-1-2.6s-9.487 0-17 3.526V27C9 12.088 21.088 0 36 0s27 12.088 27 27v48.519c-7.513-3.527-17-3.527-17-3.527s-.24 1.164-1 2.604V73s0-1-4-2v-5.434c17-3.126 17-22.111 17-22.111V34h-.083a6 6 0 0 0-6.903-6.92z"/><path fill="#0A0A0A" d="M28 53h16s0 5-8 5-8-5-8-5z"/><circle cx="27" cy="45" r="3" fill="#0A0A0A"/><circle cx="45" cy="45" r="3" fill="#0A0A0A"/></g></g></svg>
