<?xml version="1.0" encoding="UTF-8" standalone="no"?><svg xmlns="http://www.w3.org/2000/svg" width="160" height="160" viewBox="0 0 160 160" xmlns:xlink="http://www.w3.org/1999/xlink"><defs><path id="a" d="M28 41.993A7.994 7.994 0 0 1 35.992 34H52l24.636-15.838c1.858-1.194 4.87-1.194 6.728 0L108 34h16.008A7.99 7.99 0 0 1 132 41.993v66.014c0 4.414-3.155 9.692-7.04 11.784l-41.437 22.312c-1.946 1.048-5.108 1.044-7.046 0L35.04 119.79c-3.888-2.094-7.04-7.367-7.04-11.784V41.993z"/><mask id="c" width="108" height="129.621" x="-2" y="-2"><path fill="#fff" d="M26 15.267h108v129.621H26z"/><use xlink:href="#a"/></mask><path id="b" d="M36 43.993c0-1.1.895-1.993 1.994-1.993H52l28-18 28 18h14.006c1.101 0 1.994.9 1.994 1.993v58.014c0 1.1-.782 2.42-1.752 2.949L80 128l-42.248-23.044c-.968-.528-1.752-1.856-1.752-2.949V43.993z"/><mask id="d" width="92" height="108" x="-2" y="-2"><path fill="#fff" d="M34 22h92v108H34z"/><use xlink:href="#b"/></mask></defs><g fill="none" fill-rule="evenodd"><use fill="#212121" xlink:href="#a"/><use stroke="#0C0C0C" stroke-width="4" mask="url(#c)" xlink:href="#a"/><path fill="#242424" d="M28 42.007C28 37.585 31.58 34 35.992 34H52l24.636-15.838c1.858-1.194 4.87-1.194 6.728 0L108 34h16.008c4.414 0 7.992 3.582 7.992 8.007v57.986c0 4.422-3.155 9.706-7.04 11.798l-41.437 22.312c-1.946 1.048-5.108 1.044-7.046 0L35.04 111.79c-3.888-2.094-7.04-7.373-7.04-11.798V42.007z"/><use fill="#0C0C0C" xlink:href="#b"/><use stroke="#0C0C0C" stroke-width="4" mask="url(#d)" xlink:href="#b"/><path fill="#242424" d="M80 70c-6.627 0-12-5.373-12-12s5.373-12 12-12 12 5.373 12 12-5.373 12-12 12zM64 90c0-8.837 7.162-16 16-16 8.837 0 16 7.162 16 16v11.996A4.002 4.002 0 0 1 91.996 106H68.004A4.002 4.002 0 0 1 64 101.996V90z"/><path fill="#242424" d="M90.816 75.61a11.698 11.698 0 0 1 4.92-1.077h.528c6.481 0 11.736 5.252 11.736 11.734v8.773a2.961 2.961 0 0 1-2.967 2.96H98v-8c0-5.883-2.82-11.105-7.184-14.39zm-1.622-7.052A9.066 9.066 0 0 0 96 71.6c4.97 0 9-3.94 9-8.8 0-4.86-4.03-8.8-9-8.8-.861 0-1.695.118-2.483.34.315 1.166.483 2.393.483 3.66 0 4.213-1.861 7.992-4.806 10.558zm-20.01 7.053a11.697 11.697 0 0 0-4.92-1.078h-.528C57.252 74.533 52 79.787 52 86.267v8.773A2.966 2.966 0 0 0 54.967 98H62v-8c0-5.882 2.82-11.105 7.183-14.39zm-2.7-21.272A9.196 9.196 0 0 0 64 54c-4.97 0-9 3.94-9 8.8 0 4.86 4.03 8.8 9 8.8a9.066 9.066 0 0 0 6.806-3.042A13.967 13.967 0 0 1 66 58c0-1.267.168-2.494.483-3.66z"/></g></svg>
