<?xml version="1.0" encoding="UTF-8" standalone="no"?><svg xmlns="http://www.w3.org/2000/svg" width="160" height="160" viewBox="0 0 160 160" xmlns:xlink="http://www.w3.org/1999/xlink"><defs><rect id="a" width="66" height="96" x="50.716" y="23.012" rx="8"/><mask id="d" width="70" height="100" x="-2" y="-2"><path fill="#fff" d="M48.716 21.012h70v100h-70z"/><use xlink:href="#a"/></mask><rect id="b" width="77" height="112" x="27.776" y="10.502" rx="8"/><mask id="e" width="81" height="116" x="-2" y="-2"><path fill="#fff" d="M25.776 8.502h81v116h-81z"/><use xlink:href="#b"/></mask><rect id="c" width="88" height="128" rx="8"/><mask id="f" width="92" height="132" x="-2" y="-2"><path fill="#fff" d="M-2-2h92v132H-2z"/><use xlink:href="#c"/></mask></defs><g fill="none" fill-rule="evenodd" transform="rotate(-10 153.44 -69.74)"><g transform="rotate(12 83.716 71.012)"><use fill="#292929" xlink:href="#a"/><use stroke="#0A0A0A" stroke-width="4" mask="url(#d)" xlink:href="#a"/></g><path fill="#1F1F1F" d="M116.493 28.907L69.237 18.862a7.992 7.992 0 0 0-9.483 6.162l-16.633 78.254c-.917 4.314 1.838 8.568 6.156 9.486l48.92 10.398a7.956 7.956 0 0 0 4.754-.446 8.011 8.011 0 0 0 .68-2.291l12.862-91.518z"/><g transform="rotate(8 66.276 66.502)"><use fill="#292929" xlink:href="#b"/><use stroke="#0A0A0A" stroke-width="4" mask="url(#e)" xlink:href="#b"/></g><path fill="#1F1F1F" d="M93.909 13.835v107.2c0 1.824-.61 3.506-1.637 4.852a7.966 7.966 0 0 1-3.591.314l-60.398-8.488a8.006 8.006 0 0 1-6.812-9.046L34.83 13.62c.616-4.38 4.665-7.433 9.042-6.817l50.038 7.032z"/><use fill="#292929" xlink:href="#c"/><use stroke="#0A0A0A" stroke-width="4" mask="url(#f)" xlink:href="#c"/><g fill="#0A0A0A"><g transform="rotate(135 25.408 57.541)"><path d="M8 24h12v34c0 12-6 16-6 16s-6-4-6-16V24z"/><path d="M0 21.998A2 2 0 0 1 1.991 20H26.01c1.1 0 1.991.887 1.991 1.998v4.004c0 1.103-.855 1.754-1.917 1.45L14 24 1.917 27.452C.858 27.755 0 27.113 0 26.002v-4.004zM8 19c0-.552.456-1 1.002-1h9.996A.999.999 0 0 1 20 19v1H8v-1z"/><path d="M11 4h6s1 2 1 7-1 9-1 9h-6s-1-4-1-9 1-7 1-7z"/><rect width="12" height="4" x="8" rx="2"/></g><g transform="rotate(-135 32.592 45.116)"><path d="M8 24h12v34c0 12-6 16-6 16s-6-4-6-16V24z"/><path d="M0 21.998A2 2 0 0 1 1.991 20H26.01c1.1 0 1.991.887 1.991 1.998v4.004c0 1.103-.855 1.754-1.917 1.45L14 24 1.917 27.452C.858 27.755 0 27.113 0 26.002v-4.004zM8 19c0-.552.456-1 1.002-1h9.996A.999.999 0 0 1 20 19v1H8v-1z"/><path d="M11 4h6s1 2 1 7-1 9-1 9h-6s-1-4-1-9 1-7 1-7z"/><rect width="12" height="4" x="8" rx="2"/></g></g></g></svg>
