<?xml version="1.0" encoding="UTF-8" standalone="no"?><svg xmlns="http://www.w3.org/2000/svg" width="160" height="160" viewBox="0 0 160 160" xmlns:xlink="http://www.w3.org/1999/xlink"><defs><path id="a" d="M0 24.993A7.994 7.994 0 0 1 7.992 17H24L48.636 1.162c1.858-1.194 4.87-1.194 6.728 0L80 17h16.008A7.99 7.99 0 0 1 104 24.993v66.014c0 4.414-3.155 9.692-7.04 11.784l-41.437 22.312c-1.946 1.048-5.108 1.044-7.046 0L7.04 102.79C3.152 100.697 0 95.424 0 91.007V24.993z"/><mask id="c" width="108" height="129.621" x="-2" y="-2"><path fill="#fff" d="M-2-1.733h108v129.621H-2z"/><use xlink:href="#a"/></mask><path id="b" d="M8 26.993C8 25.893 8.895 25 9.994 25H24L52 7l28 18h14.006c1.101 0 1.994.9 1.994 1.993v58.014c0 1.1-.782 2.42-1.752 2.949L52 111 9.752 87.956C8.784 87.428 8 86.1 8 85.007V26.993z"/><mask id="d" width="92" height="108" x="-2" y="-2"><path fill="#fff" d="M6 5h92v108H6z"/><use xlink:href="#b"/></mask></defs><g fill="none" fill-rule="evenodd" transform="translate(28 17)"><use fill="#1F1F1F" xlink:href="#a"/><use stroke="#0A0A0A" stroke-width="4" mask="url(#c)" xlink:href="#a"/><path fill="#292929" d="M0 25.007C0 20.585 3.58 17 7.992 17H24L48.636 1.162c1.858-1.194 4.87-1.194 6.728 0L80 17h16.008c4.414 0 7.992 3.582 7.992 8.007v57.986c0 4.422-3.155 9.706-7.04 11.798l-41.437 22.312c-1.946 1.048-5.108 1.044-7.046 0L7.04 94.79C3.152 92.697 0 87.418 0 82.993V25.007z"/><use fill="#0A0A0A" xlink:href="#b"/><use stroke="#0A0A0A" stroke-width="4" mask="url(#d)" xlink:href="#b"/><path fill="#292929" d="M52 53c-6.627 0-12-5.373-12-12s5.373-12 12-12 12 5.373 12 12-5.373 12-12 12zM36 73c0-8.837 7.162-16 16-16 8.837 0 16 7.162 16 16v11.996A4.002 4.002 0 0 1 63.996 89H40.004A4.002 4.002 0 0 1 36 84.996V73z"/><path fill="#292929" d="M62.816 58.61a11.698 11.698 0 0 1 4.92-1.077h.528C74.745 57.533 80 62.785 80 69.267v8.773A2.961 2.961 0 0 1 77.033 81H70v-8c0-5.883-2.82-11.105-7.184-14.39zm-1.622-7.052A9.066 9.066 0 0 0 68 54.6c4.97 0 9-3.94 9-8.8 0-4.86-4.03-8.8-9-8.8-.861 0-1.695.118-2.483.34.315 1.166.483 2.393.483 3.66 0 4.213-1.861 7.992-4.806 10.558zm-20.01 7.053a11.697 11.697 0 0 0-4.92-1.078h-.528C29.252 57.533 24 62.787 24 69.267v8.773A2.966 2.966 0 0 0 26.967 81H34v-8c0-5.882 2.82-11.105 7.183-14.39zm-2.7-21.272A9.196 9.196 0 0 0 36 37c-4.97 0-9 3.94-9 8.8 0 4.86 4.03 8.8 9 8.8a9.066 9.066 0 0 0 6.806-3.042A13.967 13.967 0 0 1 38 41c0-1.267.168-2.494.483-3.66z"/></g></svg>
