<?xml version="1.0" encoding="UTF-8" standalone="no"?><svg xmlns="http://www.w3.org/2000/svg" width="160" height="160" viewBox="0 0 160 160" xmlns:xlink="http://www.w3.org/1999/xlink"><defs><path id="a" d="M124 60.759V7.998C124 3.583 120.414 0 115.99 0H28.01C23.58 0 20 3.58 20 7.998v56.004C20 68.417 23.586 72 28.01 72h84.749l9.27 3.09c4.198 1.4 6.459-.868 5.06-5.061L124 60.759z"/><mask id="c" width="111.503" height="79.503" x="-2" y="-2"><path fill="#fff" d="M18-2h111.503v79.503H18z"/><use xlink:href="#a"/></mask><path id="b" d="M60.524 80.841v-18.84c0-4.426-3.581-8.001-7.998-8.001H8.523a7.995 7.995 0 0 0-7.999 8v22c0 4.425 3.581 8 7.999 8h40.733l9.27 3.09c4.198 1.4 6.458-.868 5.06-5.061l-3.062-9.188z"/><mask id="d" width="67.476" height="45.503" x="-2" y="-2"><path fill="#fff" d="M-1.476 52H66v45.503H-1.476z"/><use xlink:href="#b"/></mask></defs><g fill="none" fill-rule="evenodd" transform="translate(16 32)"><use fill="#292929" xlink:href="#a"/><use stroke="#0A0A0A" stroke-width="4" mask="url(#c)" xlink:href="#a"/><g fill="#0A0A0A" transform="translate(36 16)"><rect width="72" height="8" rx="4"/><rect width="72" height="8" y="16" rx="4"/><rect width="56" height="8" y="32" rx="4"/></g><g transform="matrix(-1 0 0 1 64.524 0)"><use fill="#292929" xlink:href="#b"/><use stroke="#0A0A0A" stroke-width="4" mask="url(#d)" xlink:href="#b"/></g><g fill="#0A0A0A" transform="translate(18 69)"><circle cx="16" cy="4" r="4"/><circle cx="4" cy="4" r="4"/><circle cx="28" cy="4" r="4"/></g></g></svg>
