<svg xmlns="http://www.w3.org/2000/svg" width="22" height="22" viewBox="0 0 22 22"><path fill="#FFF" fill-rule="evenodd" d="M0 7.009C0 5.899.89 5 1.991 5H20.01C21.109 5 22 5.902 22 7.009v7.982c0 1.11-.89 2.009-1.991 2.009H1.99C.891 17 0 16.098 0 14.991V7.01zm6.728 1.3l-1.551 2.75-1.55-2.75a1.076 1.076 0 0 0-.144-.163c-.046-.042-.115-.063-.208-.063H2.72a.21.21 0 0 0-.155.067.219.219 0 0 0-.065.158v5.384c0 .06.022.114.065.158a.21.21 0 0 0 .155.067h.661a.21.21 0 0 0 .155-.067.219.219 0 0 0 .066-.158v-3.259l1.06 1.875c.088.14.188.209.303.209h.424c.114 0 .215-.07.302-.209l1.061-1.875v3.259c0 .06.022.114.065.158a.21.21 0 0 0 .155.067h.661a.21.21 0 0 0 .156-.067.219.219 0 0 0 .065-.158V8.308a.219.219 0 0 0-.065-.158.21.21 0 0 0-.156-.067h-.555c-.092 0-.161.021-.208.063a1.076 1.076 0 0 0-.142.162zm6.35.316C12.673 8.208 12.091 8 11.33 8c-.762 0-1.344.21-1.747.63-.403.419-.62.962-.653 1.628a15.942 15.942 0 0 0 0 1.492c.033.667.25 1.208.653 1.625.403.417.985.625 1.747.625.761 0 1.343-.208 1.746-.625.403-.417.62-.958.653-1.625a15.942 15.942 0 0 0 0-1.492c-.033-.672-.25-1.216-.653-1.633zm-2.666.75c.232-.222.538-.333.919-.333.38 0 .686.11.918.333.23.222.357.53.38.925.01.139.016.372.016.7 0 .333-.006.57-.017.708-.022.395-.148.702-.38.921-.23.22-.537.33-.917.33-.381 0-.687-.11-.919-.33-.23-.22-.357-.526-.38-.92-.01-.278-.015-.515-.015-.709 0-.189.005-.422.016-.7.022-.394.148-.703.38-.925zM19.5 11c0-.272-.005-.478-.016-.617-.044-.727-.267-1.293-.67-1.695-.402-.403-.993-.605-1.77-.605h-2.016a.21.21 0 0 0-.155.067.219.219 0 0 0-.066.158v5.384c0 .06.022.114.066.158a.21.21 0 0 0 .155.067h2.056c.762 0 1.341-.202 1.739-.604.397-.403.617-.969.66-1.696.012-.14.017-.345.017-.617zm-3.591-1.875h1.094c.446 0 .782.114 1.008.342.225.227.35.533.37.916.012.14.017.345.017.617s-.005.478-.016.617c-.022.383-.143.689-.363.916-.22.228-.546.342-.976.342H15.91v-3.75z"/></svg>