<svg xmlns="http://www.w3.org/2000/svg" width="22" height="12" viewBox="0 0 22 12"><defs><linearGradient id="a" x1="50%" x2="50%" y1="0%" y2="100%"><stop stop-color="#4BAAEA" offset="0%"/><stop stop-color="#2598E6" offset="100%"/></linearGradient></defs><g fill="none" fill-rule="evenodd"><rect width="22" height="12" fill="url(#a)" rx="2"/><path fill="#FFF" d="M6.728 3.308c.049-.066.096-.12.142-.162.047-.042.116-.063.208-.063h.555a.21.21 0 0 1 .156.067.219.219 0 0 1 .065.158v5.384a.219.219 0 0 1-.065.158.21.21 0 0 1-.156.067h-.66a.21.21 0 0 1-.156-.067.219.219 0 0 1-.065-.158V5.433l-1.06 1.875c-.088.14-.189.209-.303.209h-.424c-.115 0-.215-.07-.302-.209L3.602 5.433v3.259a.219.219 0 0 1-.066.158.21.21 0 0 1-.155.067h-.66a.21.21 0 0 1-.156-.067.219.219 0 0 1-.065-.158V3.308c0-.06.022-.114.065-.158a.21.21 0 0 1 .155-.067h.555c.093 0 .162.021.208.063.047.042.094.096.143.162l1.55 2.75 1.552-2.75zm6.35.317c.402.417.62.961.652 1.633a15.942 15.942 0 0 1 0 1.492c-.033.667-.25 1.208-.653 1.625-.403.417-.985.625-1.746.625-.762 0-1.344-.208-1.747-.625-.403-.417-.62-.958-.653-1.625a15.942 15.942 0 0 1 0-1.492c.033-.666.25-1.21.653-1.629.403-.42.985-.629 1.747-.629.761 0 1.343.208 1.746.625zm-2.666.75c-.23.222-.357.53-.38.925-.01.278-.015.511-.015.7 0 .194.005.43.016.708.022.395.148.702.38.921.23.22.537.33.918.33.38 0 .686-.11.918-.33.23-.22.357-.526.38-.92.01-.14.016-.376.016-.709 0-.328-.006-.561-.017-.7-.022-.394-.148-.703-.38-.925-.23-.222-.537-.333-.917-.333-.381 0-.687.11-.919.333zM19.5 6c0 .272-.005.478-.016.617-.044.727-.264 1.293-.661 1.696-.398.402-.977.604-1.739.604h-2.056a.21.21 0 0 1-.155-.067.219.219 0 0 1-.066-.158V3.308c0-.06.022-.114.066-.158a.21.21 0 0 1 .155-.067h2.015c.778 0 1.369.202 1.771.604.403.403.626.969.67 1.696.01.14.016.345.016.617zm-3.591-1.875v3.75h1.134c.43 0 .755-.114.976-.342.22-.227.341-.533.363-.916.01-.14.016-.345.016-.617s-.005-.478-.016-.617c-.022-.383-.146-.689-.371-.916-.226-.228-.562-.342-1.008-.342h-1.094z"/></g></svg>