<svg xmlns="http://www.w3.org/2000/svg" width="22" height="12" viewBox="0 0 22 12"><defs><linearGradient id="a" x1="50%" x2="50%" y1="0%" y2="100%"><stop stop-color="#FFB321" offset="0%"/><stop stop-color="#E36126" offset="100%"/></linearGradient></defs><g fill="none" fill-rule="evenodd"><rect width="22" height="12" fill="url(#a)" rx="2"/><path fill="#FFF" d="M7.078 3.563c.377.319.566.781.566 1.387s-.189 1.07-.566 1.396c-.377.325-.906.487-1.587.487H4.14v1.859a.215.215 0 0 1-.068.158.22.22 0 0 1-.16.067h-.684a.22.22 0 0 1-.16-.067A.215.215 0 0 1 3 8.692V3.308c0-.06.023-.114.068-.158a.22.22 0 0 1 .16-.067h2.263c.68 0 1.21.16 1.587.48zm-1.63 2.229c.338 0 .599-.066.782-.196.182-.13.274-.346.274-.646 0-.3-.09-.512-.27-.638-.18-.125-.442-.187-.785-.187h-1.31v1.667h1.31zm7.118-2.225c.372.322.557.77.557 1.341 0 .406-.095.752-.287 1.038a1.695 1.695 0 0 1-.827.637l1.165 2.059a.205.205 0 0 1 .025.091c0 .05-.018.093-.054.13a.18.18 0 0 1-.131.054h-.718a.386.386 0 0 1-.363-.225L10.827 6.75H9.704v1.942a.215.215 0 0 1-.068.158.22.22 0 0 1-.16.067h-.684a.22.22 0 0 1-.16-.067.215.215 0 0 1-.068-.158V3.308c0-.06.023-.114.068-.158a.22.22 0 0 1 .16-.067h2.178c.693 0 1.225.161 1.596.484zm-1.638 2.141c.344 0 .605-.06.785-.179.18-.12.27-.326.27-.62 0-.295-.088-.5-.265-.613-.178-.114-.44-.171-.79-.171H9.704v1.583h1.224zm7.38-2.083c.416.417.641.961.675 1.633a15.41 15.41 0 0 1 0 1.492c-.034.667-.259 1.208-.675 1.625-.417.417-1.02.625-1.807.625-.788 0-1.39-.208-1.807-.625-.417-.417-.642-.958-.676-1.625-.01-.3-.016-.575-.016-.825 0-.189.005-.411.016-.667.034-.666.26-1.21.676-1.629C15.11 3.21 15.713 3 16.5 3s1.39.208 1.807.625zm-2.757.75c-.24.222-.37.53-.393.925-.01.278-.017.511-.017.7 0 .194.006.43.017.708.023.395.154.702.393.921.24.22.556.33.95.33.394 0 .71-.11.95-.33.239-.22.37-.526.392-.92.012-.14.017-.376.017-.709 0-.328-.005-.561-.017-.7-.022-.394-.153-.703-.392-.925-.24-.222-.556-.333-.95-.333-.394 0-.71.11-.95.333z"/></g></svg>