<svg xmlns="http://www.w3.org/2000/svg" width="22" height="12" viewBox="0 0 22 12"><defs><linearGradient id="a" x1="50%" x2="50%" y1="0%" y2="100%"><stop stop-color="#FA6D46" offset="0%"/><stop stop-color="#FA464E" offset="100%"/></linearGradient></defs><g fill="none" fill-rule="evenodd"><rect width="22" height="12" fill="url(#a)" rx="2"/><path fill="#FFF" d="M8.446 3.214c.05-.143.142-.214.276-.214h.635c.062 0 .114.023.16.069.044.045.066.1.066.162a.288.288 0 0 1-.017.086L7.694 8.71a.541.541 0 0 1-.122.222.271.271 0 0 1-.196.069h-.669a.271.271 0 0 1-.196-.069.541.541 0 0 1-.122-.222L4.517 3.317a.288.288 0 0 1-.017-.086c0-.062.022-.117.067-.162A.214.214 0 0 1 4.726 3h.635c.134 0 .226.071.276.214l1.404 4.089 1.405-4.089zm2.09 5.717a.225.225 0 0 1-.067-.162V3.23c0-.062.022-.117.067-.162A.214.214 0 0 1 10.695 3h.677c.061 0 .114.023.159.069.044.045.067.1.067.162V8.77a.225.225 0 0 1-.067.162.214.214 0 0 1-.159.069h-.677a.214.214 0 0 1-.159-.069zm6.404-5.438c.373.328.56.804.56 1.427s-.187 1.101-.56 1.436c-.374.334-.897.501-1.572.501h-1.337V8.77a.225.225 0 0 1-.067.162.214.214 0 0 1-.16.069h-.676a.214.214 0 0 1-.16-.069.225.225 0 0 1-.066-.162V3.23c0-.062.022-.117.067-.162A.214.214 0 0 1 13.128 3h2.24c.675 0 1.198.164 1.572.493zm-1.614 2.293c.335 0 .593-.067.774-.202.18-.134.271-.355.271-.664 0-.309-.089-.527-.267-.656-.178-.128-.438-.193-.778-.193h-1.295v1.715h1.295z"/></g></svg>