<?xml version="1.0" encoding="UTF-8" standalone="no"?>
<svg width="190px" height="124px" viewBox="0 0 190 124" version="1.1" xmlns="http://www.w3.org/2000/svg" xmlns:xlink="http://www.w3.org/1999/xlink">
    <!-- Generator: Sketch 39.1 (31720) - http://www.bohemiancoding.com/sketch -->
    <title>Graphic</title>
    <desc>Created with Sketch.</desc>
    <defs>
        <circle id="path-1" cx="8" cy="8" r="8"></circle>
        <mask id="mask-2" maskContentUnits="userSpaceOnUse" maskUnits="objectBoundingBox" x="0" y="0" width="16" height="16" fill="white">
            <use xlink:href="#path-1"></use>
        </mask>
        <circle id="path-3" cx="36" cy="8" r="8"></circle>
        <mask id="mask-4" maskContentUnits="userSpaceOnUse" maskUnits="objectBoundingBox" x="0" y="0" width="16" height="16" fill="white">
            <use xlink:href="#path-3"></use>
        </mask>
        <circle id="path-5" cx="64" cy="8" r="8"></circle>
        <mask id="mask-6" maskContentUnits="userSpaceOnUse" maskUnits="objectBoundingBox" x="0" y="0" width="16" height="16" fill="white">
            <use xlink:href="#path-5"></use>
        </mask>
    </defs>
    <g id="Onboarding" stroke="none" stroke-width="1" fill="none" fill-rule="evenodd">
        <g id="Onboarding---chat" transform="translate(-85.000000, -197.000000)">
            <g id="Promo" transform="translate(0.000000, 105.000000)">
                <g id="Graphic" transform="translate(0.000000, 72.000000)">
                    <g id="Bubbles" transform="translate(85.000000, 20.000000)">
                        <g id="White-bubble" fill="#FFFFFF">
                            <path d="M142,25 L142,12.0000511 C142,5.37052367 136.624678,0 129.994155,0 L12.0058447,0 C5.37572884,0 0,5.37191386 0,12.0000511 L0,75.9999489 C0,82.6294763 5.375322,88 12.0058447,88 L28,88 L24,84 L24,99 C24,102.563619 28.3085677,104.348287 30.8284271,101.828427 L45.8284271,86.8284271 L43,88 L62,88 L62,84 L43,84 L28,99 L28,84 L12.0058447,84 C7.58433876,84 4,80.4202137 4,75.9999489 L4,12.0000511 C4,7.58174486 7.5841763,4 12.0058447,4 L129.994155,4 C134.415661,4 138,7.5797863 138,12.0000511 L138,25 L142,25 L142,25 Z" id="Combined-Shape"></path>
                        </g>
                        <g id="Red-bubble" transform="translate(66.000000, 29.000000)">
                            <path d="M81,76 L96,91 L96,76 L112.003981,76 C116.42006,76 120,72.4172013 120,68.0023206 L120,11.9976794 C120,7.58068305 116.417164,4 112.003981,4 L11.9960194,4 C7.57993984,4 4,7.58279866 4,11.9976794 L4,68.0023206 C4,72.4193169 7.5828358,76 11.9960194,76 L81,76 Z M81,80 L11.9960194,80 C5.37273472,80 0,74.6274939 0,68.0023206 L0,11.9976794 C0,5.37327839 5.37118167,0 11.9960194,0 L112.003981,0 C118.627265,0 124,5.37250609 124,11.9976794 L124,68.0023206 C124,74.6267216 118.628818,80 112.003981,80 L96,80 L100,76 L100,91 C100,94.5636194 95.6914323,96.3482866 93.1715729,93.8284271 L78.1715729,78.8284271 L81,80 Z" fill="#fc4449"></path>
                            <g id="Chat-dots" transform="translate(26.000000, 32.000000)" stroke="#fc4449" stroke-width="4">
                                <use id="Dot-1" mask="url(#mask-2)" xlink:href="#path-1"></use>
                                <use id="Dot-2" mask="url(#mask-4)" xlink:href="#path-3"></use>
                                <use id="Dot-3" mask="url(#mask-6)" xlink:href="#path-5"></use>
                            </g>
                        </g>
                    </g>
                </g>
            </g>
        </g>
    </g>
</svg>
