<?xml version="1.0" encoding="UTF-8" standalone="no"?>
<svg width="144px" height="142px" viewBox="0 0 144 142" version="1.1" xmlns="http://www.w3.org/2000/svg" xmlns:xlink="http://www.w3.org/1999/xlink">
    <!-- Generator: Sketch 39.1 (31720) - http://www.bohemiancoding.com/sketch -->
    <title>Graphic</title>
    <desc>Created with Sketch.</desc>
    <defs></defs>
    <g id="Onboarding" stroke="none" stroke-width="1" fill="none" fill-rule="evenodd">
        <g id="Onboarding---support" transform="translate(-108.000000, -188.000000)">
            <g id="Promo" transform="translate(0.000000, 105.000000)">
                <g id="Graphic" transform="translate(0.000000, 72.000000)">
                    <g id="Envelope" transform="translate(108.000000, 11.000000)">
                        <path d="M128,40.2115417 L142.369562,50.7773959 C144.653534,52.4567875 144.513933,55.9134511 142.101972,57.403192 L140,54 L128,45.1764706 L128,40.2115417 Z" id="Combined-Shape" fill="#fc4449"></path>
                        <path d="M17,39.4762476 L1.6304382,50.7773959 C-0.653534291,52.4567875 -0.513933016,55.9134511 1.89802848,57.403192 L4,54 L17,44.4411765 L17,39.4762476 Z" id="Combined-Shape" fill="#fc4449"></path>
                        <path d="M92.4,19 L99.1523033,19 L74.3695618,0.777395949 C72.9598838,-0.259131983 71.0401162,-0.259131983 69.6304382,0.777395949 L44.8476967,19 L44.8476967,19 L51.6,19 L72,4 L92.4,19 L92.4,19 Z" id="Combined-Shape" fill="#fc4449"></path>
                        <path d="M124,62.3896699 L128,58.9779052 L128,31.0037689 C128,24.3764899 122.629266,19 116.00347,19 L28.99653,19 C22.3667312,19 17,24.3738008 17,31.0037689 L17,59.8308464 L17,59.8308464 L21,63.2426111 L21,31.0037689 C21,26.5834094 24.5754045,23 28.99653,23 L116.00347,23 C120.419832,23 124,26.5853357 124,31.0037689 L124,62.3896699 Z" id="Combined-Shape" fill="#FFFFFF"></path>
                        <g id="Warning-Shield" transform="translate(49.000000, 35.000000)" fill="#FFFFFF">
                            <path d="M6.375,0 C2.86542381,0 0,2.87875136 0,6.4 L0,36.1 C0,38.1045044 0.944926317,39.9945168 2.54313735,41.2148067 L21.8982184,55.7986607 C22.2544978,56.0671131 22.7455022,56.0671131 23.1017816,55.7986607 L42.4517816,41.2186607 C44.0550737,39.9945168 45,38.1045044 45,36.1 L45,6.4 C45,2.87875136 42.1345762,0 38.625,0 L6.375,0 L6.375,0 Z M43,6.4 L43,36.1 C43,37.4778592 42.3483052,38.7813591 41.2431373,39.6251933 L21.8982184,54.2013393 L23.1017816,54.2013393 L3.75178157,39.6213393 C2.65169481,38.7813591 2,37.4778592 2,36.1 L2,6.4 C2,3.98124864 3.97207619,2 6.375,2 L38.625,2 C41.0279238,2 43,3.98124864 43,6.4 L43,6.4 Z M19.8125,35.1 L20.8125,36.1 L20.8125,30.7 L19.8125,31.7 L25.1875,31.7 L24.1875,30.7 L24.1875,36.1 L25.1875,35.1 L19.8125,35.1 L19.8125,35.1 Z M26.1875,36.1 L26.1875,30.7 C26.1875,30.1477153 25.7397847,29.7 25.1875,29.7 L19.8125,29.7 C19.2602153,29.7 18.8125,30.1477153 18.8125,30.7 L18.8125,36.1 C18.8125,36.6522847 19.2602153,37.1 19.8125,37.1 L25.1875,37.1 C25.7397847,37.1 26.1875,36.6522847 26.1875,36.1 L26.1875,36.1 Z M19.8125,24.3 L20.8125,25.3 L20.8125,9.1 L19.8125,10.1 L25.1875,10.1 L24.1875,9.1 L24.1875,25.3 L25.1875,24.3 L19.8125,24.3 L19.8125,24.3 Z M26.1875,25.3 L26.1875,9.1 C26.1875,8.54771525 25.7397847,8.1 25.1875,8.1 L19.8125,8.1 C19.2602153,8.1 18.8125,8.54771525 18.8125,9.1 L18.8125,25.3 C18.8125,25.8522847 19.2602153,26.3 19.8125,26.3 L25.1875,26.3 C25.7397847,26.3 26.1875,25.8522847 26.1875,25.3 L26.1875,25.3 Z" id="Shape"></path>
                        </g>
                        <path d="M137.404214,50.9566642 C140.000825,48.741907 144,50.5871503 144,54 L144,130.002775 C144,136.627453 138.626742,142 132.000318,142 L11.9996816,142 C5.37535252,142 0,136.62797 0,130.002775 L0,54 C0,50.5871503 3.99917451,48.741907 6.59578642,50.9566642 L74.5957864,108.956664 L69.4042136,108.956664 L137.404214,50.9566642 Z M72,112 L4,54 L4,130.002775 C4,134.419521 7.58518252,138 11.9996816,138 L132.000318,138 C136.418421,138 140,134.417496 140,130.002775 L140,54 L72,112 Z" id="Mask" fill="#fc4449"></path>
                        <polygon id="Combined-Shape" fill="#fc4449" points="5.42371559 138.764717 5.92749023 140 138.056641 140 138.759989 138.924108 89.8644068 96.5 88.3385123 97.8239378 136.948211 140 137.694915 138 6.30508475 138 7.05178893 140 55.6614877 97.8239378 54.1355932 96.5"></polygon>
                    </g>
                </g>
            </g>
        </g>
    </g>
</svg>
