<?xml version="1.0" encoding="UTF-8" standalone="no"?>
<svg xmlns="http://www.w3.org/2000/svg" width="171" height="133" viewBox="0 0 171 133">
  <g fill="none" fill-rule="evenodd" transform="translate(-99 -21)">
    <g fill="#fc4449" transform="translate(99 21)">
      <path d="M43.6470588 57.2307692L43.6470588 0 47.6470588 4 11.9926024 4C7.57870236 4 4 7.58011138 4 11.9974446L4 57.2307692 0 53.2307692 47.6470588 53.2307692 43.6470588 57.2307692zM47.6470588 57.2307692L0 57.2307692 0 11.9974446C0 5.37126456 5.369271 0 11.9926024 0L47.6470588 0 47.6470588 57.2307692zM43.6470588 124L43.6470588 66.7692308 47.6470588 70.7692308.26325641e-14 70.7692308 4 66.7692308 4 112.002555C4 116.418262 7.58108285 120 11.9926024 120L47.6470588 120 43.6470588 124zM47.6470588 124L11.9926024 124C5.37310373 124-.42108547e-14 118.628561 0 112.002555L.26325641e-14 66.7692308 47.6470588 66.7692308 47.6470588 124zM100.823529 124L100.823529 66.7692308 104.823529 70.7692308 57.1764706 70.7692308 61.1764706 66.7692308 61.1764706 124 57.1764706 120 104.823529 120 100.823529 124zM104.823529 124L57.1764706 124 57.1764706 66.7692308 104.823529 66.7692308 104.823529 124zM114 67L161.647059 67C161.647059 51.6364178 161.640015 108 161.640015 108L157.649994 104.149994 157.649994 71 118 71 118 120 141.919998 120 146 124 114 124 114 67zM100.823529 57.2307692L100.823529 0 104.823529 4 57.1764706 4 61.1764706 0 61.1764706 57.2307692 57.1764706 53.2307692 104.823529 53.2307692 100.823529 57.2307692zM104.823529 57.2307692L57.1764706 57.2307692 57.1764706 0 104.823529 0 104.823529 57.2307692zM114.352941 53.2307692L162 53.2307692 158 57.2307692 158 11.9974446C158 7.58173808 154.418917 4 150.007398 4L114.352941 4 118.352941 0 118.352941 57.2307692 114.352941 53.2307692zM114.352941 57.2307692L114.352941 0 150.007398 0C156.626896 0 162 5.37143893 162 11.9974446L162 57.2307692 114.352941 57.2307692z"/>
    </g>
    <path stroke="#FFFFFF" stroke-width="3.294" d="M267.423775,144.146176 L249.250965,126.278725 C251.048276,121.762776 250.04977,116.461445 246.255447,112.730878 C242.261423,108.803966 236.270387,108.018583 231.477558,110.178385 L240.06471,118.621246 L234.073673,124.511615 L225.28682,116.068753 C222.890406,120.781048 223.888912,126.671416 227.882936,130.598329 C231.677259,134.328895 237.069191,135.310623 241.662319,133.543513 L259.835129,151.410963 C260.633934,152.196346 261.832141,152.196346 262.630946,151.410963 L267.224073,146.895014 C268.222579,146.109632 268.222579,144.735212 267.423775,144.146176 L267.423775,144.146176 Z"/>
  </g>
</svg>
