<?xml version="1.0" encoding="UTF-8" standalone="no"?><svg xmlns="http://www.w3.org/2000/svg" width="285" height="30" viewBox="0 0 285 30"><g fill="none" fill-rule="evenodd"><path fill="#1A1A1A" d="M5.796 29.622v-7.647h3.025l3.99 7.647h6.342l-4.998-8.992c3.192-1.428 5.166-4.496 5.166-9.075v-.84C19.321 3.823 15.331 0 9.41 0H0v29.622h5.796zM8.695 5.546c2.604 0 4.872 1.009 4.872 5.084v.84c0 3.908-2.352 5-4.872 5H5.796V5.547h2.899zM49.325 0H32.694v29.622h16.633v-5.546H38.489v-6.723h8.023V12.31h-8.023V5.588h10.837V0zm22.99 29.622c5.881 0 9.955-3.824 9.955-10.967V10.84C82.27 3.613 78.196 0 72.316 0H62.57v29.622h9.745zm-.671-24.076c4.032 0 4.872 2.731 4.872 5.925v5.756c0 5.798-2.1 6.89-4.872 6.89h-3.277V5.548h3.277z"/><path fill="#FFF" d="M105.71 29.663V2.44h8.265V0H95v2.44h8.223v27.223h2.488zm29.911-9.425l7.21 9.425h2.995l-7.675-9.845c4.597-.674 7.76-3.745 7.76-9.005V9.72c0-6.227-4.007-9.719-9.952-9.719h-8.603v29.663h2.488v-9.425h5.777zM129.844 2.44h5.904c4.47 0 7.674 2.188 7.674 7.195v1.178c0 4.755-3.247 7.027-7.674 7.027h-5.904V2.44zM159.713 0v29.663h2.488V0h-2.488zm26.58 29.663V2.44h8.264V0h-18.975v2.44h8.222v27.223h2.488zM207.937 0v29.663h2.488V0h-2.488zm17.345 0v19.691c0 6.101 4.09 10.309 9.952 10.309 5.819 0 9.951-4.208 9.951-10.309V0h-2.488v19.776c0 4.838-3.205 7.826-7.463 7.826-4.175 0-7.464-2.861-7.464-7.826V0h-2.488zm48.085 24.95l8.897-19.312v24.025h2.488V0h-2.361l-10.036 21.837L262.404 0h-2.361v29.663h2.488V5.68l8.855 19.27h1.982z"/></g></svg>
