<?xml version="1.0" encoding="UTF-8" standalone="no"?><svg width="283" height="30" viewBox="0 0 283 30" xmlns="http://www.w3.org/2000/svg"><title>rt_logo</title><g fill="none" fill-rule="evenodd"><path d="M5.796 29.622v-7.647h3.025l3.99 7.647h6.342l-4.998-8.992c3.192-1.428 5.166-4.496 5.166-9.075v-.84C19.321 3.823 15.331 0 9.41 0H0v29.622h5.796zM8.695 5.546c2.604 0 4.872 1.009 4.872 5.084v.84c0 3.908-2.352 5-4.872 5H5.796V5.547h2.899zM49.325 0H32.694v29.622h16.633v-5.546H38.489v-6.723h8.023V12.31h-8.023V5.588h10.837V0zm22.99 29.622c5.881 0 9.955-3.824 9.955-10.967V10.84C82.27 3.613 78.196 0 72.316 0H62.57v29.622h9.745zm-.671-24.076c4.032 0 4.872 2.731 4.872 5.925v5.756c0 5.798-2.1 6.89-4.872 6.89h-3.277V5.548h3.277z" fill="#fc4449"/><path d="M270.795 25.336L281.8 2.185v27.437h.84V0h-.672L270.29 24.496 258.698 0h-.714v29.622h.84V2.227l10.963 23.11h1.008zM223.023 0v19.664c0 6.092 4.116 10.336 9.955 10.336 5.838 0 9.955-4.244 9.955-10.336V0h-.84v19.664c0 5.588-3.78 9.496-9.115 9.496-5.334 0-9.115-3.908-9.115-9.496V0h-.84zm-15.891 0v29.622h.84V0h-.84zm-22.906 29.622V.84h9.325V0h-19.406v.84h9.241v28.782h.84zM159.724 0v29.622h.84V0h-.84zm-24.166 19.328l9.031 10.294h1.134l-9.03-10.294c5.334-.294 9.03-3.362 9.03-8.908V9.076c0-5.84-4.074-9.076-9.913-9.076h-8.232v29.622h.84V19.328h7.14zM128.418.84h7.392c5.335 0 9.073 2.9 9.073 8.236v1.344c0 5.252-3.738 8.067-9.073 8.067h-7.392V.84zm-23.746 28.782V.84h9.325V0H94.59v.84h9.241v28.782h.84z" fill="#FFF"/></g></svg>
