<?xml version="1.0" encoding="UTF-8" standalone="no"?><svg xmlns="http://www.w3.org/2000/svg" width="150" height="150" viewBox="0 0 150 150">
  <defs>
    <linearGradient id="a" x1="0%" y1="0%" y2="100%">
      <stop stop-color="#FD8242" offset="0%"/>
      <stop stop-color="#FA464E" offset="100%"/>
    </linearGradient>
    <linearGradient id="b" x1="0%" y1="0%" y2="100%">
      <stop stop-color="#FA6D46" offset="0%"/>
      <stop stop-color="#FA464E" offset="59.241%"/>
    </linearGradient>
    <linearGradient id="c" x1="0%" x2="24.458%" y1="0%" y2="24.458%">
      <stop stop-color="#FF7B56" offset="0%"/>
      <stop stop-color="#FA6D46" stop-opacity="0" offset="100%"/>
    </linearGradient>
    <linearGradient id="d" x1="50%" x2="50%" y1="0%" y2="100%">
      <stop stop-color="#FFFFFF" offset="0%"/>
      <stop stop-color="#F5F5F5" offset="100%"/>
    </linearGradient>
  </defs>
  <g fill="none" fill-rule="evenodd">
    <path fill="url(#a)" d="M130.083261,130.083261 C156.638913,103.527609 156.638913,60.4723907 130.083261,33.9167389 C103.527609,7.36108704 0,68 0,68 C0,68 7.36108704,103.527609 33.9167389,130.083261 C60.4723907,156.638913 103.527609,156.638913 130.083261,130.083261 Z"/>
    <path fill="url(#a)" d="M130.083261,130.083261 C103.527609,156.638913 60.4723907,156.638913 33.9167389,130.083261 C7.36108704,103.527609 68,0 68,0 C68,0 103.527609,7.36108704 130.083261,33.9167389 C156.638913,60.4723907 156.638913,103.527609 130.083261,130.083261 Z"/>
    <path fill="url(#b)" d="M130.083261,130.083261 C156.638913,103.527609 156.638913,60.4723907 130.083261,33.9167389 C103.527609,7.36108704 0,0 0,0 C0,0 7.36108704,103.527609 33.9167389,130.083261 C60.4723907,156.638913 103.527609,156.638913 130.083261,130.083261 Z"/>
    <path fill="url(#c)" d="M121.59798,121.59798 C143.46734,99.7286194 143.46734,64.2713806 121.59798,42.4020203 C99.7286194,20.5326599 18,18 18,18 C18,18 20.5326599,99.7286194 42.4020203,121.59798 C64.2713806,143.46734 99.7286194,143.46734 121.59798,121.59798 Z"/>
    <polygon fill="url(#d)" points="82 128.222 62.899 136 53.281 117.801 33.634 111.518 38 91.414 27 74.01 43.307 61.407 46.101 41.026 66.719 41.822 82 28 97.281 41.822 117.899 41.026 120.693 61.407 137 74.01 126 91.414 130.366 111.518 110.719 117.801 101.101 136"/>
  </g>
</svg>
