<?xml version="1.0" encoding="UTF-8" standalone="no"?><svg xmlns="http://www.w3.org/2000/svg" width="227" height="30" viewBox="0 0 227 30">
  <g fill="none" fill-rule="evenodd">
    <path fill="#FFFFFF" d="M10.0453875,0 C4.7136049,0 0.424997163,0.850463275 0.424997163,6.37847457 L0.424997163,7.22893784 C0.424997163,9.89629993 0.927266538,12.1770878 4.09542721,13.4914401 L13.5612731,17.3958397 C16.1885283,18.516905 16.5748894,20.2564889 16.5748894,21.9960729 L16.5748894,22.8465362 C16.5748894,25.9391299 14.2180869,26.7122783 10.7022013,26.7122783 L0.463633269,26.7122783 C0.193180529,26.7122783 0,26.866908 0,27.13751 L0,28.4132049 C0,28.7224643 0.115908317,28.8770939 0.386361058,28.8770939 C3.28406899,29.1863533 7.03177125,29.3023256 9.77493476,29.3023256 C14.7203563,29.3023256 19.5112334,28.8384365 19.5112334,22.8851936 L19.5112334,21.7254709 C19.5112334,19.3287108 18.9703279,16.777321 15.3771701,15.1923667 L6.56813798,11.4812542 C3.90224668,10.3988464 3.39997731,9.23912377 3.39997731,7.11296558 L3.39997731,6.49444683 C3.39997731,3.7497699 5.25451038,2.59004725 9.07948485,2.59004725 L17.6180642,2.59004725 C17.888517,2.59004725 18.0044253,2.43541756 18.0044253,2.12615819 L18.0044253,0.811805854 C18.0044253,0.579861324 17.888517,0.425231638 17.5794281,0.386574216 C14.6817202,0.115972265 12.7499149,0 10.0453875,0 Z M29.6467718,0.193287108 C29.337683,0.193287108 29.1445024,0.347916795 29.1445024,0.657176167 L29.1445024,2.28078788 C29.1445024,2.62870467 29.337683,2.78333436 29.6467718,2.78333436 L38.7262567,2.78333436 L38.7262567,28.606492 C38.7262567,28.9544088 38.8808011,29.1090385 39.228526,29.1090385 L41.1603313,29.1090385 C41.5080563,29.1090385 41.6626007,28.9544088 41.6626007,28.606492 L41.6626007,2.78333436 L50.7420856,2.78333436 C51.0511744,2.78333436 51.2057188,2.62870467 51.2057188,2.28078788 L51.2057188,0.657176167 C51.2057188,0.347916795 51.0511744,0.193287108 50.7420856,0.193287108 L29.6467718,0.193287108 Z M69.6093839,0 C66.4412232,0 65.9003177,0.541203903 64.8185068,4.44560349 L57.979916,28.5678346 C57.9026438,28.9930662 57.979916,29.1090385 58.3662771,29.1090385 L60.5685351,29.1090385 C60.8389879,29.1090385 60.9162601,28.9930662 61.0321684,28.606492 L63.5821514,19.6766276 L75.7138886,19.6766276 L78.2252354,28.606492 C78.3025077,28.9930662 78.3797799,29.1090385 78.6502326,29.1090385 L80.8524906,29.1090385 C81.2388517,29.1090385 81.3161239,28.9930662 81.2388517,28.5678346 L74.6320776,4.44560349 C73.5502667,0.541203903 73.0866334,0 69.6093839,0 Z M69.6093839,2.59004725 C71.0775559,2.59004725 71.1934642,2.89930662 71.8116419,5.14143707 L75.0184387,17.0479229 L64.2776013,17.0479229 L67.6389425,5.14143707 C68.2571202,2.89930662 68.3730285,2.59004725 69.6093839,2.59004725 Z M101.69023,0 C99.8743334,0 96.7834449,0.0386574216 94.3493702,0.193287108 C93.9630092,0.23194453 93.8471009,0.309259373 93.8471009,0.695833589 L93.8471009,28.606492 C93.8471009,28.9930662 93.9630092,29.1090385 94.3493702,29.1090385 L96.3198116,29.1090385 C96.7061727,29.1090385 96.822081,28.9930662 96.822081,28.606492 L96.822081,18.1689882 L103.5834,18.1303307 L110.074265,28.4132049 C110.42199,28.8770939 110.653807,29.1090385 111.387893,29.1090385 L113.087882,29.1090385 C113.590151,29.1090385 113.744695,28.7997791 113.474243,28.4518623 L106.867469,17.9370436 C111.658346,17.3958397 113.358334,15.5016261 113.358334,9.16180892 C113.358334,1.12106523 110.460626,0 101.69023,0 Z M101.49705,2.59004725 C108.528821,2.59004725 110.42199,3.20856599 110.42199,9.20046634 C110.42199,15.2696815 108.528821,15.5402835 101.49705,15.5402835 L96.822081,15.5402835 L96.822081,2.59004725 L101.49705,2.59004725 Z M127.396119,0.193287108 C127.009758,0.193287108 126.816578,0.386574216 126.816578,0.773148432 L126.816578,28.606492 C126.816578,28.9544088 127.009758,29.1090385 127.318847,29.1090385 L129.289289,29.1090385 C129.598377,29.1090385 129.791558,28.9544088 129.791558,28.606492 L129.791558,16.4680616 L143.623284,16.4680616 C143.971009,16.4680616 144.125553,16.2747745 144.125553,15.9655151 L144.125553,14.3419034 C144.125553,14.032644 143.971009,13.8393569 143.623284,13.8393569 L129.791558,13.8393569 L129.791558,2.78333436 L145.014184,2.78333436 C145.361909,2.78333436 145.516453,2.62870467 145.516453,2.28078788 L145.516453,0.657176167 C145.516453,0.347916795 145.361909,0.193287108 145.014184,0.193287108 L127.396119,0.193287108 Z M158.24061,0.193287108 C157.931522,0.193287108 157.776977,0.347916795 157.776977,0.657176167 L157.776977,28.606492 C157.776977,28.9544088 157.931522,29.1090385 158.24061,29.1090385 L160.211052,29.1090385 C160.558777,29.1090385 160.713321,28.9544088 160.713321,28.606492 L160.713321,0.657176167 C160.713321,0.347916795 160.558777,0.193287108 160.211052,0.193287108 L158.24061,0.193287108 Z M183.328322,0 C181.512425,0 178.421536,0.0386574216 175.987462,0.193287108 C175.601101,0.23194453 175.485192,0.309259373 175.485192,0.695833589 L175.485192,28.606492 C175.485192,28.9930662 175.601101,29.1090385 175.987462,29.1090385 L177.957903,29.1090385 C178.344264,29.1090385 178.460172,28.9930662 178.460172,28.606492 L178.460172,18.1689882 L185.221491,18.1303307 L191.712357,28.4132049 C192.060082,28.8770939 192.291898,29.1090385 193.025984,29.1090385 L194.725973,29.1090385 C195.228242,29.1090385 195.382787,28.7997791 195.112334,28.4518623 L188.50556,17.9370436 C193.296437,17.3958397 194.996426,15.5016261 194.996426,9.16180892 C194.996426,1.12106523 192.098718,0 183.328322,0 Z M183.135141,2.59004725 C190.166913,2.59004725 192.060082,3.20856599 192.060082,9.20046634 C192.060082,15.2696815 190.166913,15.5402835 183.135141,15.5402835 L178.460172,15.5402835 L178.460172,2.59004725 L183.135141,2.59004725 Z M209.034211,0.193287108 C208.64785,0.193287108 208.454669,0.386574216 208.454669,0.773148432 L208.454669,28.5291771 C208.454669,28.9157514 208.64785,29.1090385 209.034211,29.1090385 L226.497731,29.1090385 C226.806819,29.1090385 227,28.9544088 227,28.606492 L227,26.9828803 C227,26.6736209 226.806819,26.5189912 226.497731,26.5189912 L211.429649,26.5189912 L211.429649,16.4680616 L225.106831,16.4680616 C225.454556,16.4680616 225.6091,16.3134319 225.6091,15.9655151 L225.6091,14.3419034 C225.6091,14.032644 225.454556,13.8780144 225.106831,13.8780144 L211.429649,13.8780144 L211.429649,2.78333436 L226.497731,2.78333436 C226.806819,2.78333436 227,2.62870467 227,2.28078788 L227,0.657176167 C227,0.347916795 226.806819,0.193287108 226.497731,0.193287108 L209.034211,0.193287108 Z"/>
    <path fill="#FA464E" d="M168.138928,25.6685279 C166.940223,25.6685279 166.282868,26.2897492 166.282868,27.4545391 C166.282868,28.6581553 166.940223,29.3182029 168.138928,29.3182029 C169.298966,29.3182029 169.917653,28.6581553 169.917653,27.4545391 C169.917653,26.2897492 169.298966,25.6685279 168.138928,25.6685279 Z"/>
  </g>
</svg>
