<?xml version="1.0" encoding="UTF-8" standalone="no"?>
<svg width="72px" height="72px" viewBox="0 0 72 72" version="1.1" xmlns="http://www.w3.org/2000/svg" xmlns:xlink="http://www.w3.org/1999/xlink" xmlns:sketch="http://www.bohemiancoding.com/sketch/ns">
    <!-- Generator: Sketch 3.3.3 (12081) - http://www.bohemiancoding.com/sketch -->
    <title>cat_head_loading</title>
    <desc>Created with Sketch.</desc>
    <defs></defs>
    <g id="Assets" stroke="none" stroke-width="1" fill="none" fill-rule="evenodd" sketch:type="MSPage">
        <g id="cat_head_loading" sketch:type="MSArtboardGroup" fill="#00BCD4">
            <g id="Cat-icon" sketch:type="MSLayerGroup" transform="translate(9.000000, 14.000000)">
                <path d="M51.6707144,3.96660922 C51.9902138,4.84418604 52.1425793,5.82462795 52.1939085,6.9672844 C52.2707063,8.67690474 52.1124577,10.8456434 51.769397,13.3057927 C51.1450917,17.7827974 49.9821079,22.6985501 49.7799988,22.6699982 C52.6848145,27.8098145 51.9762586,36.2913613 45.6094207,42.6473869 C42.4636469,45.7899972 38.4716866,48.2252607 34.0360228,50.0886877 C32.506596,50.7312015 31.0283949,51.2595089 29.6504475,51.6831973 C28.8044397,51.9433261 28.1624522,52.1146029 27.7743471,52.2050293 L27.3355787,52.3072599 L26.8850562,52.3072599 L26.250427,52.3072599 L25.7998647,52.3072599 L25.3610598,52.2050115 C24.9729602,52.1145783 24.3309837,51.9432894 23.4849888,51.6831429 C22.1070669,51.259427 20.6288852,50.7310852 19.099468,50.0885297 C14.6641856,48.2251304 10.6724331,45.7899356 7.52713204,42.6480174 C1.16060514,36.2907887 0.689941406,27.4348145 3.34000015,22.7099991 C3.16758929,22.7251784 1.86835042,17.9223987 1.12188533,13.6957865 C0.69720404,11.2911688 0.467310418,9.1861513 0.487386747,7.51742792 C0.501040539,6.38253907 0.624432342,5.40472968 0.927926184,4.51728316 C1.51384313,2.80400309 2.77222015,1.42992175 4.81029759,1.15512823 C7.86604797,0.742070483 11.2621844,2.01912394 15.3913928,4.45557806 C16.9525873,5.37676644 20.877922,8.08843739 20.877922,8.08843739 C22.4346777,7.60515571 23.9999169,7.3599266 25.5649573,7.38010234 L27.522805,7.38040912 C29.886612,7.35083042 32.2014615,7.90136404 32.1599998,8.04999924 C32.1599998,8.04999924 34.8371386,5.88644633 37.2907174,4.27288089 C41.3108189,1.62911134 44.6545869,0.231494719 47.7908735,0.655398651 C49.8166347,0.92888102 51.0546647,2.27449059 51.6707144,3.96660922 Z" id="Shape-Copy-2" sketch:type="MSShapeGroup"></path>
            </g>
        </g>
    </g>
</svg>