<svg width="24" height="24" viewBox="0 0 24 24" xmlns="http://www.w3.org/2000/svg"><title>mod_icon</title><path d="M20.8 4H3.2c-1.22 0-2.19.89-2.19 2L1 18c0 1.11.98 2 2.2 2h17.6c1.22 0 2.2-.89 2.2-2V6c0-1.11-.98-2-2.2-2zM3 10c0-.55.45-1 1-1h4c.55 0 1 .45 1 1v5H7.75v-4.51H6.62v3.52H5.37V10.5H4.25V15H3v-5zm12 3.5c0 .83-.674 1.5-1.5 1.5h-2c-.828 0-1.5-.665-1.5-1.5v-3c0-.83.674-1.5 1.5-1.5h2c.828 0 1.5.665 1.5 1.5v3zm-3.5-3h2v3h-2v-3zm9.5 3c0 .83-.674 1.5-1.5 1.5H16V9h3.5c.828 0 1.5.665 1.5 1.5v3zm-3.5-3h2v3h-2v-3z" fill="#000" fill-rule="evenodd"/></svg>