<svg width="72" height="72" viewBox="0 0 72 72" xmlns="http://www.w3.org/2000/svg"><title>loading_cat_head</title><path d="M60.67 17.967c.32.877.473 1.858.524 3 .077 1.71-.082 3.88-.425 6.34-.625 4.476-1.788 9.392-1.99 9.363 2.905 5.14 2.196 13.62-4.17 19.977-3.146 3.143-7.138 5.578-11.574 7.442-1.53.64-3.008 1.17-4.386 1.593-.846.26-2.765.624-2.765.624h-.635s-1.92-.364-2.765-.624c-1.378-.424-2.856-.952-4.386-1.594-4.436-1.865-8.428-4.3-11.573-7.442C10.16 50.29 9.69 41.435 12.34 36.71c-.172.015-1.472-4.788-2.218-9.014-.425-2.405-.655-4.51-.635-6.18.014-1.133.137-2.11.44-3 .587-1.712 1.845-3.086 3.883-3.36 3.056-.414 6.452.863 10.58 3.3 1.563.92 5.488 3.632 5.488 3.632 1.557-.483 3.122-.728 4.687-.708h1.958c2.364-.03 4.678.52 4.637.67 0 0 2.677-2.164 5.13-3.777 4.02-2.644 7.365-4.042 10.5-3.618 2.027.274 3.265 1.62 3.88 3.312z" fill="#00BCD4" fill-rule="evenodd"/></svg>