<?xml version="1.0" encoding="UTF-8" standalone="no"?><svg width="72" height="72" viewBox="0 0 72 72" xmlns="http://www.w3.org/2000/svg"><title>locked</title><g fill="none" fill-rule="evenodd"><path fill="#263238" d="M0 .929L71.071 72H56.93L0 15.071V.93z"/><path d="M21.077 32.041l1.826 1.826-.558.558L19.82 31.9l4.022-4.021.698.698-3.463 3.464zm6.742 4.047c-.394.394-.808.671-1.241.832a2.186 2.186 0 0 1-1.27.101 2.272 2.272 0 0 1-1.113-.635 2.278 2.278 0 0 1-.632-1.11 2.22 2.22 0 0 1 .09-1.272c.155-.434.424-.844.807-1.23l.227-.227c.392-.393.808-.67 1.247-.83.44-.162.865-.195 1.277-.101.413.094.783.304 1.11.632.329.328.54.697.636 1.108.096.41.065.833-.092 1.266-.158.434-.432.848-.822 1.242l-.224.224zm-.489-.91c.446-.445.703-.87.772-1.277.07-.406-.05-.763-.36-1.073-.302-.302-.657-.42-1.064-.353-.407.066-.828.314-1.265.743l-.232.232c-.442.442-.697.87-.766 1.283-.07.413.049.773.355 1.078.31.31.665.43 1.067.36.403-.068.83-.33 1.283-.782l.21-.21zm3.657 5.271c-.47.389-.962.565-1.479.529-.516-.036-1.004-.283-1.462-.742a2.218 2.218 0 0 1-.62-1.074c-.091-.396-.064-.8.084-1.213.147-.412.403-.806.768-1.182l.375-.376c.38-.379.781-.646 1.205-.8.423-.155.839-.185 1.247-.09.408.095.776.307 1.106.636.444.444.68.922.71 1.434.03.512-.154 1.01-.55 1.494l-.696-.696c.256-.322.38-.615.373-.878-.007-.264-.142-.526-.403-.787-.304-.304-.649-.427-1.033-.368-.385.06-.794.301-1.227.727l-.356.356c-.435.435-.688.844-.761 1.228-.073.384.04.726.341 1.026.274.274.542.419.804.434.261.014.554-.104.878-.354l.696.696zm2.207 1.35l-.939.028-1.254 1.254-.699-.698 4.022-4.022.699.699-1.887 1.886.865-.09 2.585-.233.845.845-3.276.288-.66 3.82-.828-.83.527-2.946zm4.82 4.705l-1.652-1.652-1.237 1.237 1.93 1.931-.557.558-2.63-2.63 4.022-4.021 2.61 2.61-.563.563-1.912-1.91-1.11 1.11 1.652 1.651-.553.553zm-.947 2.643l4.021-4.022 1.188 1.188c.356.355.592.75.709 1.184a2.29 2.29 0 0 1-.035 1.313c-.14.442-.398.85-.773 1.226l-.202.202c-.381.381-.792.64-1.233.778-.441.137-.88.143-1.318.019a2.757 2.757 0 0 1-1.2-.73l-1.157-1.158zm4.157-2.76l-2.9 2.9.455.457c.367.366.763.533 1.188.5.425-.034.854-.263 1.287-.688l.224-.224c.436-.436.675-.864.715-1.284.04-.42-.12-.81-.48-1.171l-.49-.49z" fill="#FFF"/></g></svg>
