<?xml version="1.0" encoding="UTF-8" standalone="no"?>
<svg width="233px" height="358px" viewBox="0 0 233 358" version="1.1" xmlns="http://www.w3.org/2000/svg" xmlns:xlink="http://www.w3.org/1999/xlink">
    <!-- Generator: Sketch 3.6.1 (26313) - http://www.bohemiancoding.com/sketch -->
    <title>easter_mask</title>
    <desc>Created with Sketch.</desc>
    <defs></defs>
    <g id="Masks" stroke="none" stroke-width="1" fill="none" fill-rule="evenodd">
        <g id="easter_mask" fill="#000000">
            <path d="M220.964123,269.161702 C227.197597,241.669611 227.197597,208.309647 227.197597,172.346811 C227.197597,78.2668653 177.233113,2 115.598798,2 C53.964484,2 4,78.2668653 4,172.346811 C4,208.540522 4,242.097834 10.3542994,269.69046 C7.71209826,271.595677 6.37296217,274.96047 7.0776144,279.004012 L17.6027406,339.400898 C18.7887236,346.206486 25.3422764,351.720409 32.2411763,351.720409 L199.903375,351.720409 C206.798511,351.720409 213.356126,346.204776 214.541811,339.400898 L225.066937,279.004012 C225.842248,274.555007 224.146536,270.925753 220.964123,269.161702 L220.964123,269.161702 Z" id="Card"></path>
        </g>
    </g>
</svg>