<?xml version="1.0" encoding="UTF-8" standalone="no"?><svg width="233" height="358" viewBox="0 0 233 358" xmlns="http://www.w3.org/2000/svg"><title>fat_vol_2_mask</title><path d="M229 177l-.088 57.836-.267 18.418-.446 13.31-.626 10.736-.809 9.104-.993 7.933-1.182 7.032-1.376 6.298-1.575 5.68-1.782 5.143-1.997 4.664-2.221 4.23-2.462 3.83-2.72 3.457-2.998 3.105-3.305 2.771-3.652 2.45-4.05 2.14-4.52 1.84-5.1 1.545-5.852 1.258-6.903.973-8.555.694-11.84.415-37.096.138-37.265-.138-11.841-.415-8.555-.694-6.903-.973-5.852-1.258-5.1-1.545-4.52-1.84-4.05-2.14-3.652-2.45-3.305-2.771-2.998-3.105-2.72-3.457-2.462-3.83-2.221-4.23-1.997-4.664-1.782-5.142-1.575-5.68-1.376-6.299-1.182-7.032-.993-7.933-.809-9.104-.626-10.737-.446-13.308-.267-18.42L4 177.176l.088-58.01.267-18.42.446-13.308.626-10.737.809-9.104.993-7.934 1.182-7.031 1.376-6.298 1.575-5.68 1.782-5.143 1.997-4.664 2.221-4.23 2.462-3.83 2.72-3.457 2.998-3.105 3.305-2.771 3.652-2.45 4.05-2.14 4.52-1.84 5.1-1.545 5.852-1.258 6.903-.973 8.555-.694 11.84-.415L116.368 2l37.312.138 11.841.415 8.555.694 6.903.973 5.852 1.258 5.1 1.545 4.52 1.84 4.05 2.14 3.652 2.45 3.305 2.771 2.998 3.105 2.72 3.457 2.462 3.83 2.221 4.23 1.997 4.664 1.782 5.142 1.575 5.68 1.376 6.299 1.182 7.032.993 7.933.809 9.104.626 10.737.446 13.309.267 18.418.088 57.606z" fill="#000" fill-rule="evenodd"/></svg>
