<?xml version="1.0" encoding="UTF-8" standalone="no"?><svg width="233" height="358" viewBox="0 0 233 358" xmlns="http://www.w3.org/2000/svg"><title>flamin_mask</title><path d="M225.46 307.908l-.17-.011c-2.303.124-4.515.255-6.84.102-3.454-.227-6.88-.229-10.314-.241-3.205-.013-6.29.46-9.55.24 2.534-1.072 5.969-.69 8.779-1.135 3.537-.564 7.128-.844 10.603-1.704 1.676-.41 3.381-.423 5.072-.78a15.455 15.455 0 0 0 2.9-.935c.172-2.056.185-4.128.04-6.186-.303-3.886-1.325-8.022-1.117-11.93.146-2.997.936-5.628.93-8.764-.01-4.736-.911-9.171-.96-13.858-.013-1.293-.008-2.605.015-3.953l-.695-.046c-1.133-.074-3.546.288-4.3-.7.463-.177.945-.104 1.387-.257a9.99 9.99 0 0 0 1.628-.935 18.526 18.526 0 0 0 2.084-1.65c.111-2.66.28-5.316.511-7.864.406-4.458 1.263-8.705 1.452-13.417.19-4.582 1.483-8.915 1.182-13.712-.285-4.514-.984-8.92-1.095-13.538-.682-.045-1.374-.169-2.027-.212-1.196-.079-6.239.402-6.808-.969 2.008-.212 4.26-.022 6.185-.702a7.061 7.061 0 0 0 2.555-1.603l.148-.168c.23-4.23.953-8.21 1.591-12.283.397-2.537.626-5.049-.235-7.47-.577-1.601-1.684-2.398-1.864-4.254-.086-.907.178-2.072.176-3.02-.01-4.612-1.676-8.253-1.48-13.059.17-4.057.662-7.99.92-12.072-.88-.105-1.747-.204-2.604-.229-1.334-.04-3.361 1.024-4.592.187 1.652-.506 3.113-2.332 4.707-3.446.89-.57 1.734-1.246 2.52-2.022.15-.169.288-.355.412-.556.341-3.103.808-6.125.887-9.319.106-4.327-1.457-8.618-1.66-12.794-.23-4.443.45-8.884-.067-13.028-.36-2.884-1.032-6.07-1.338-9.184a29.742 29.742 0 0 0-3.474-.14c-1.373-.007-2.744-.233-4.137-.272-.999-.014-2.168.185-3.14-.207-2.986-1.181-6.553-1.082-9.75-1.293l-1.486-.098c.27-.42 1.783-.487 2.276-.569.75-.128 1.505-.195 2.26-.2 1.572.01 3.146.082 4.684.09 3.733.016 7.388-.603 11.185-.353l1.407.092c.016-.384.003-.77.023-1.15.218-4.225 1.405-8.534 2.054-12.56.632-3.907 1.14-9.338-.379-12.98-1.06-2.54-1.908-3.96-1.855-7.02.029-2.29.191-4.587.287-6.878.31-7.44 3.063-18.85-.536-25.338-1.219-2.2-1.695-2.81-1.463-5.686.18-2.218.438-4.045 1.35-5.996 1.849-3.972 3.096-7.407 3.107-12.152-3.713-.479-6.344-2.236-9.728-3.156-3.232-.875-6.432.67-9.94.44-3.723-.246-7.369-1.34-10.865-1.544-3.497-.204-6.62.893-10.346.423-3.433-.434-6.75-.762-10.276-.952-1.998-.132-3.609.69-5.523.74-1.769.046-3.689-.367-5.474-.62a108.957 108.957 0 0 0-21.255-.878 83.295 83.295 0 0 0-10.57 1.305c-3.502.644-7.41-.056-10.988.318-7.528.792-15.264-.416-22.824-.34-3.822.04-7.612 1.004-11.481 1.177-3.495.155-6.816.52-10.355-.343-7.083-1.732-13.834 3.48-21.078 1.035-1.53-.518-2.589-2.067-4.3-2.21-1.711-.145-3.526.6-5.304.76-3.244.307-6.591.9-9.925 1.285-6.736.78-13.712 4.53-20.507 1.671l-.069 1.652c-.183 4.38-1.901 6.694-3.501 10.251-1.518 3.375-4.239 4.363-5.152 7.95-2.244 8.843-.755 18.089-1.136 27.217-.367 8.795.596 17.23.422 26.075 1.353-.109 2.7-.27 4.048-.395a43.477 43.477 0 0 1 9.623.211c4.787.655 9.605.892 14.418.71 3.477-.136 7.356-1.35 10.792-.18-.725.472-1.824.364-2.68.406-1.289.066-2.518.689-3.824.89-3.253.51-6.594.357-9.884.677-4.998.49-10.003-.538-14.975-.063a22.242 22.242 0 0 0-5.437 1.059c-.724.26-1.466.55-2.194.897-.714 18.504-.668 37.084-.567 55.537.415-.014.801-.025 1.182-.016 1.028.026 2.074.017 3.09.094 3.808.308 7.577.942 11.433.794 3.369-.132 6.878-.422 10.31-.071-.43.373-1.101.448-1.63.596a42.747 42.747 0 0 1-12.043 1.239 44.765 44.765 0 0 0-6.2.483c-1.989.228-4.081.367-6.118.675-.013.296.004.594.004.891.063 11.424.138 22.842.043 34.26a930.476 930.476 0 0 1-.3 17.11c-.125 4.716.617 8.594.84 13.193.236 4.876-1.472 8.327-1.855 12.844a18.92 18.92 0 0 0 .617 6.391c.629 2.521.633 3.918.204 6.624a56.306 56.306 0 0 0-.506 4.87l.537.066c1.343.13 2.664.5 3.923 1.102 2.36 1.197 4.446 2.809 6.951 3.312-1.067.628-2.712.186-3.886.182-1.348.043-2.69.22-4.016.527-1.373.28-2.736 1.154-4.074 2.103-.063.516-.13 1.033-.214 1.548-.758 4.639.622 8.257.787 12.753.165 4.496 1.22 8.446 1.214 13.051-.006 4.605.386 9.23-.342 13.762-1.12 6.954-4.494 19.02 1.639 23.347 3.276 2.3 6.41 3.548 8.875 7.195 1.035 1.527 2.254 4.035 3.575 5.085 1.47 1.139 2.682 1.115 4.116 2.74 1.125 1.273 2.338 2.832 3.758 3.374 1.704.633 3.699-.168 5.163 1.235 1.336 1.281 2.27 3.328 3.637 4.782 1.22 1.3 2.355 2.505 3.52 3.915 2.12 2.557 4.684 4.84 6.93 7.39 1.397 1.592 1.873 2.832 3.826 3.232a29 29 0 0 0 5.481.36c11.231.036 22.899 2.138 34.075.592 23.514-3.26 47.22.686 70.907.536 9.228-.06 18.642.57 27.65-.67a70.288 70.288 0 0 1 13.5-.774c3.22.176 6.356.268 9.573.292 2.488.018 8.137 2.229 9.912-.452 1.66-2.495.569-8.464.694-11.472a339.46 339.46 0 0 1 2.29-27.434c.117-1.221.263-2.327.402-3.474z" fill="#000" fill-rule="evenodd"/></svg>
