<?xml version="1.0" encoding="UTF-8" standalone="no"?>
<svg width="233px" height="358px" viewBox="0 0 233 358" version="1.1" xmlns="http://www.w3.org/2000/svg" xmlns:xlink="http://www.w3.org/1999/xlink">
    <!-- Generator: Sketch 3.6.1 (26313) - http://www.bohemiancoding.com/sketch -->
    <title>hat_mask</title>
    <desc>Created with Sketch.</desc>
    <defs>
        <filter x="-50%" y="-50%" width="200%" height="200%" filterUnits="objectBoundingBox" id="filter-1">
            <feOffset dx="0" dy="2" in="SourceAlpha" result="shadowOffsetOuter1"></feOffset>
            <feGaussianBlur stdDeviation="2" in="shadowOffsetOuter1" result="shadowBlurOuter1"></feGaussianBlur>
            <feColorMatrix values="0 0 0 0 0   0 0 0 0 0   0 0 0 0 0  0 0 0 0.21 0" in="shadowBlurOuter1" type="matrix" result="shadowMatrixOuter1"></feColorMatrix>
            <feMerge>
                <feMergeNode in="shadowMatrixOuter1"></feMergeNode>
                <feMergeNode in="SourceGraphic"></feMergeNode>
            </feMerge>
        </filter>
        <path id="path-2" d="M214,244.482622 L214,14.5061479 C214,7.5875748 208.405903,2 201.505234,2 L31.494766,2 C24.5996358,2 19,7.59919312 19,14.5061479 L19,244.482622 L19,242.965244 L19,242.965244 C9.45916359,247.643721 4,253.073061 4,258.863334 C4,264.752306 9.64686044,270.267935 19.4914421,275.00001 L19,275 L19,334 L19.1658852,334 C19.0558048,334.330883 19,334.664305 19,335 C19,344.388841 62.6522369,352 116.5,352 C170.347763,352 214,344.388841 214,335 C214,334.664305 213.944195,334.330883 213.834115,334 L214,334 L214,275 L213.508579,275 C223.35314,270.267935 229,264.752306 229,258.863334 C229,253.073061 223.540836,247.643721 214,242.965244 L214,244.482622 L214,244.482622 Z"></path>
    </defs>
    <g id="Masks" stroke="none" stroke-width="1" fill="none" fill-rule="evenodd" filter="url(#filter-1)">
        <g id="hat_mask">
            <g id="Card">
                <use fill="#000000" fill-rule="evenodd" xlink:href="#path-2"></use>
                <use fill="none" xlink:href="#path-2"></use>
            </g>
        </g>
    </g>
</svg>