<?xml version="1.0" encoding="UTF-8" standalone="no"?><svg width="233" height="358" viewBox="0 0 233 358" xmlns="http://www.w3.org/2000/svg"><title>mad_cat_bite</title><path d="M67.5 2h149.007C223.407 2 229 7.604 229 14.508v324.984C229 346.4 223.41 352 216.502 352H16.498C9.596 352 4 346.399 4 339.5V61.115a9.979 9.979 0 0 0 7.933-2.892 9.962 9.962 0 0 0 2.91-6.466 7.5 7.5 0 0 0 14.23-4.684 7.5 7.5 0 0 0 12.344-8.155h.001a7.503 7.503 0 0 0 8.156-12.345 7.5 7.5 0 1 0 4.684-14.23 9.962 9.962 0 0 0 6.466-2.91A9.973 9.973 0 0 0 63.646 2h3.855z" fill="#000" fill-rule="evenodd"/></svg>
