<?xml version="1.0" encoding="UTF-8" standalone="no"?>
<svg width="233px" height="358px" viewBox="0 0 233 358" version="1.1" xmlns="http://www.w3.org/2000/svg" xmlns:xlink="http://www.w3.org/1999/xlink" xmlns:sketch="http://www.bohemiancoding.com/sketch/ns">
    <!-- Generator: Sketch 3.5.2 (25235) - http://www.bohemiancoding.com/sketch -->
    <title>new_year_mask</title>
    <desc>Created with Sketch.</desc>
    <defs></defs>
    <g id="Page-1" stroke="none" stroke-width="1" fill="none" fill-rule="evenodd" sketch:type="MSPage">
        <g id="new_year_mask" sketch:type="MSArtboardGroup" fill="#000000">
            <path d="M166.095327,15.2254206 L216.920491,28.7787975 C223.591819,30.5578185 229,37.5880076 229,44.4952293 L229,339.504771 C229,346.405695 223.410136,352 216.50183,352 L16.4981705,352 C9.59562152,352 4,346.411992 4,339.504771 L4,44.4952293 C4,37.5943047 9.40714363,30.558095 16.0795094,28.7787975 L62.5829549,16.3778787 C62.8656819,14.653944 63.3738428,13.030518 64.1178597,11.5238837 C65.1769581,9.37920949 66.6368273,7.52613407 68.4552389,6.03834274 C70.1946264,4.61520755 72.2024757,3.56061199 74.4176783,2.88858425 C76.3807649,2.29304111 78.4524956,2 80.6115784,2 C82.7237258,2 84.7649745,2.30896271 86.7055918,2.93273256 C88.8690041,3.62811508 90.8245375,4.70471415 92.5085944,6.14431117 C92.7531742,6.35338742 92.9905256,6.569455 93.2205371,6.79229398 C94.0178325,6.02977823 94.8883358,5.33765224 95.8273022,4.72088021 C98.6234377,2.88420296 101.930489,2 105.592776,2 C108.687062,2 111.527758,2.63120173 114.020965,3.93478295 C117.130864,3.81379614 120.34189,3.92176065 123.271469,4.25871478 L123.432532,4.12275248 L124.550152,3.17930694 C125.452295,2.41775838 126.594813,2 127.775413,2 L129.238001,2 L134.433449,2 L138.433449,2 C141.072055,2 143.233288,4.04387795 143.420315,6.63480127 L143.733486,6.14585099 L144.913664,4.30325055 C145.832871,2.86810046 147.419784,2 149.124073,2 L151.312222,2 L158.103414,2 L165.512064,2 C169.488953,2 171.874199,6.41786322 169.69254,9.74292127 L166.095327,15.2254206 L166.095327,15.2254206 Z" id="Card" sketch:type="MSShapeGroup"></path>
        </g>
    </g>
</svg>