<?xml version="1.0" encoding="UTF-8" standalone="no"?>
<svg width="233px" height="358px" viewBox="0 0 233 358" version="1.1" xmlns="http://www.w3.org/2000/svg" xmlns:xlink="http://www.w3.org/1999/xlink" xmlns:sketch="http://www.bohemiancoding.com/sketch/ns">
    <!-- Generator: Sketch 3.5.2 (25235) - http://www.bohemiancoding.com/sketch -->
    <title>thanksgiving_mask</title>
    <desc>Created with Sketch.</desc>
    <defs></defs>
    <g id="Page-1" stroke="none" stroke-width="1" fill="none" fill-rule="evenodd" sketch:type="MSPage">
        <g id="thanksgiving_mask" sketch:type="MSArtboardGroup" fill="#000000">
            <path d="M4,44.4952293 L4,339.504771 C4,346.411992 9.59562152,352 16.4981705,352 L216.50183,352 C223.410136,352 229,346.405695 229,339.504771 L229,44.4952293 C229,44.0604248 228.977827,43.6308477 228.93455,43.2075631 C229.346143,34.0037203 223.624749,25.2945986 214.438246,22.309723 L212.494578,21.678187 C208.199362,20.2825866 203.781673,20.3450791 199.776118,21.592728 C196.834392,17.3889914 192.353989,14.2478689 186.937731,13.0966077 L184.938697,12.6716999 C179.624358,11.5421023 174.354319,12.5296421 170.00456,15.0644505 C161.889404,6.99047588 150.703827,2 138.356014,2 L95.939533,2 C83.2850601,2 71.8546346,7.23641169 63.6970155,15.6611316 C59.1745958,12.6898146 53.512574,11.4573172 47.7993522,12.6716999 L45.8003183,13.0966077 C40.4124022,14.2418446 35.9505723,17.3561724 33.0082374,21.526824 C29.0601006,20.3433082 24.7236991,20.3075856 20.5054216,21.678187 L18.5617536,22.309723 C9.37515459,25.29463 3.65373643,34.0039032 4.06546299,43.2078531 C4.02217666,43.631083 4,44.0605643 4,44.4952293 Z" id="Card" sketch:type="MSShapeGroup"></path>
        </g>
    </g>
</svg>