<?xml version="1.0" encoding="UTF-8" standalone="no"?><svg width="180" height="180" viewBox="0 0 180 180" xmlns="http://www.w3.org/2000/svg"><title>Blue Cross</title><path d="M90.5 76.357l-42.42-42.42a9.996 9.996 0 0 0-14.15-.006c-3.905 3.906-3.902 10.24.007 14.148l42.42 42.42-42.42 42.42a9.996 9.996 0 0 0-.006 14.149c3.906 3.906 10.24 3.902 14.148-.006l42.42-42.42 42.42 42.42a9.996 9.996 0 0 0 14.149.006c3.906-3.906 3.902-10.24-.006-14.148l-42.42-42.42 42.42-42.42a9.996 9.996 0 0 0 .006-14.15c-3.906-3.905-10.24-3.902-14.148.007L90.5 76.357z" fill="#2196F3" fill-rule="evenodd"/></svg>
