<?xml version="1.0" encoding="UTF-8" standalone="no"?><svg width="38" height="18" viewBox="0 0 38 18" xmlns="http://www.w3.org/2000/svg"><title>lb_t4</title><path d="M0 1.995C0 .893.902 0 2.003 0h33.994C37.103 0 38 .893 38 1.995v14.01C38 17.107 37.098 18 35.997 18H2.003C.897 18 0 17.107 0 16.005V1.995zM30 9l-3-6h2l3 6-3 6h-2l3-6zm-4 0l-3-6h2l3 6-3 6h-2l3-6zm-4 0l-3-6h2l3 6-3 6h-2l3-6zm-4 0l-3-6h2l3 6-3 6h-2l3-6zm-5.782 6l-3.904-2.354L4.41 15l1.033-4.44L2 7.578l4.542-.387L8.314 3l1.772 4.182 4.542.387-3.443 2.98L12.218 15z" fill="#000" fill-rule="evenodd"/></svg>
