<?xml version="1.0" encoding="UTF-8" standalone="no"?><svg width="72" height="72" viewBox="0 0 72 72" xmlns="http://www.w3.org/2000/svg"><title>loading_trump_head</title><path d="M52.802 25.932c.407 1.316.627 2.713.627 4.16v10.635c0 4.137-10.328 18.698-13.144 20.09C37.896 62 37.1 62 35.506 62c-1.593 0-2.39 0-4.78-1.182-2.388-1.182-13.142-15.954-13.142-20.09v-1.183c-2.688-1.477-3.584-8.272-3.584-13 0-4.727 3.584-7.68 3.584-7.68 0-4.897 8.024-8.865 17.922-8.865 7.17 0 12.247 3.84 14.936 7.682 4.18 6.204 9.558 5.613 9.558 6.5 0 .376-3.083 1.073-7.198 1.75z" fill="#CC2C23" fill-rule="evenodd"/></svg>
