<?xml version="1.0" encoding="UTF-8" standalone="no"?>
<svg width="500px" height="500px" viewBox="0 0 500 500" version="1.1" xmlns="http://www.w3.org/2000/svg" xmlns:xlink="http://www.w3.org/1999/xlink" xmlns:sketch="http://www.bohemiancoding.com/sketch/ns">
    <!-- Generator: Sketch 3.3.1 (12005) - http://www.bohemiancoding.com/sketch -->
    <title>celebrate</title>
    <desc>Created with Sketch.</desc>
    <defs></defs>
    <g id="Page-1" stroke="none" stroke-width="1" fill="none" fill-rule="evenodd" sketch:type="MSPage">
        <g id="celebrate" sketch:type="MSArtboardGroup" fill="#FFA000">
            <path d="M214.890005,100.968655 C212.6864,94.0857358 200.557652,92.5021736 187.715186,90.8026322 C180.67614,89.8881808 172.678036,88.8265251 170.264777,87.0466904 C167.842596,85.2802379 164.443513,77.9690875 161.445897,71.5143989 C155.994874,59.7737351 150.847182,48.7021821 143.620785,48.6664962 L143.482503,48.6664962 C136.327478,48.7869362 131.112875,59.724667 125.568177,71.3359694 C122.517032,77.7549721 119.042116,85.0304366 116.619935,86.7745853 C114.166529,88.5365771 106.168425,89.5179395 99.1070759,90.3744013 C86.2690704,91.9356598 74.1269402,93.398782 71.860885,100.246016 C69.5992906,107.111092 78.4583173,115.528506 87.8615541,124.441061 C93.0137071,129.338952 98.8572745,134.879189 99.7717259,137.734062 C100.686177,140.588935 99.1338403,148.511206 97.7777758,155.483341 C95.284223,168.169681 92.9334138,180.18245 98.7546775,184.469219 C100.146428,185.472886 101.899498,185.976949 103.96482,185.932342 C109.897602,185.829745 118.439917,181.217341 126.696744,176.73876 C132.883788,173.348598 139.896069,169.543588 143.031968,169.498981 C146.047427,169.507903 153.086473,173.428892 159.295821,176.877043 C167.739999,181.5742 176.478585,186.427484 182.420289,186.329347 C184.275956,186.293662 185.859518,185.816363 187.153133,184.89299 C193.005622,180.677592 190.784174,168.669284 188.424443,155.933875 C187.13529,148.948359 185.681089,141.017166 186.604462,138.162293 C187.545678,135.320803 193.451695,129.834094 198.652916,124.980811 C208.127525,116.161931 217.075767,107.851575 214.890005,100.968655 L214.890005,100.968655 Z M183.401652,122.915489 C179.636788,126.42609 175.35894,130.409529 174.671986,132.46593 C174.002875,134.540173 175.05561,140.281144 175.996826,145.335161 C177.696367,154.559968 179.315615,163.258408 175.073453,166.305092 C174.141158,166.974203 172.990288,167.326601 171.656527,167.348905 C167.334071,167.420277 161.008744,163.900754 154.893072,160.510593 C150.396647,158.003658 145.302484,155.171089 143.112261,155.162167 C140.855128,155.197853 135.769886,157.950129 131.291304,160.399074 C125.313915,163.642031 119.12687,166.987585 114.817797,167.063418 C113.32345,167.090182 112.061061,166.733323 111.048473,166.010684 C106.841996,162.892627 108.541538,154.198648 110.334755,145.013987 C111.329499,139.959971 112.449145,134.227922 111.780034,132.153678 C111.128766,130.088356 106.891065,126.073692 103.161887,122.527405 C96.3548002,116.081637 89.9357975,109.988269 91.5728885,105.014545 C93.2144403,100.049743 102.011017,98.9925481 111.307196,97.8550598 C116.419202,97.2439386 122.218162,96.5302205 123.984615,95.25891 C125.737685,93.9875995 128.253541,88.7239281 130.474989,84.0713778 C134.480732,75.6628857 138.263439,67.7361534 143.437895,67.6558601 L143.531571,67.6558601 C148.777399,67.673703 152.506577,75.6896501 156.449869,84.1918177 C158.617788,88.8711324 161.075655,94.1571076 162.837647,95.446261 C164.581796,96.726493 170.380756,97.49374 175.470458,98.1628508 C184.78448,99.3806324 193.558753,100.531503 195.151237,105.523069 C196.74372,110.505714 190.271189,116.527711 183.401652,122.915489 L183.401652,122.915489 Z" id="Shape" sketch:type="MSShapeGroup" transform="translate(143.363276, 117.498654) rotate(-8.000000) translate(-143.363276, -117.498654) "></path>
            <path d="M436.454019,78.5709182 C434.997249,74.0207228 426.979114,72.9738534 418.489152,71.850312 C413.835744,71.2457818 408.548316,70.543937 406.952946,69.3673148 C405.351679,68.1995395 403.104596,63.3662469 401.122916,59.0991485 C397.519327,51.3375708 394.116264,44.0183322 389.339001,43.9947407 L389.247584,43.9947407 C384.517504,44.0743618 381.070208,51.3051326 377.404691,58.9811914 C375.387624,63.2246984 373.090409,68.0343995 371.489142,69.1874302 C369.867231,70.3522567 364.579804,71.0010208 359.911651,71.5672149 C351.424637,72.5993396 343.397656,73.5665879 341.899601,78.0931919 C340.404494,82.6315917 346.261065,88.1962183 352.477405,94.0881759 C355.883416,97.3260985 359.746511,100.988667 360.351042,102.87598 C360.955572,104.763294 359.929345,110.00059 359.032871,114.609764 C357.38442,122.996514 355.830335,130.937977 359.678686,133.771896 C360.598752,134.435405 361.75768,134.768634 363.123034,134.739144 C367.045107,134.671319 372.692304,131.622128 378.150769,128.661404 C382.240932,126.420219 386.876646,123.904784 388.949743,123.875295 C390.943218,123.881193 395.596626,126.4733 399.701533,128.752821 C405.283853,131.858042 411.060803,135.066475 414.988774,135.001599 C416.215528,134.978008 417.262398,134.662472 418.117587,134.052044 C421.98658,131.265308 420.518014,123.326794 418.958031,114.907606 C418.105791,110.289585 417.14444,105.046391 417.754869,103.159078 C418.377092,101.280611 422.281473,97.6534295 425.719922,94.4449961 C431.983445,88.614966 437.898994,83.1211137 436.454019,78.5709182 L436.454019,78.5709182 Z M415.637538,93.0796426 C413.148643,95.4004487 410.320622,98.0338412 409.866487,99.3932968 C409.424148,100.764548 410.120095,104.559818 410.742318,107.900953 C411.86586,113.999336 412.936321,119.749745 410.13189,121.763863 C409.515564,122.206202 408.754741,122.439167 407.873012,122.453912 C405.015501,122.501094 400.833921,120.17439 396.790941,117.933205 C393.818422,116.275908 390.450747,114.403339 389.002823,114.397441 C387.510666,114.421032 384.148888,116.240521 381.188165,117.859482 C377.236602,120.003353 373.146439,122.215048 370.297775,122.26518 C369.309884,122.282874 368.475337,122.04696 367.805931,121.569233 C365.025092,119.507933 366.148633,113.760473 367.334102,107.688631 C367.991713,104.347495 368.731894,100.558123 368.289555,99.1868719 C367.859012,97.8215184 365.05753,95.1674834 362.592227,92.8230859 C358.092163,88.5618853 353.848656,84.5336501 354.930912,81.2455957 C356.016118,77.9634391 361.831403,77.2645433 367.976969,76.5125667 C371.35644,76.1085636 375.190046,75.6367352 376.357821,74.7962908 C377.51675,73.9558464 379.179945,70.4761116 380.648511,67.40038 C383.296648,61.8416513 385.797339,56.6014067 389.218095,56.548326 L389.280022,56.548326 C392.747961,56.5601218 395.213265,61.8593449 397.820117,67.4800011 C399.253296,70.5734263 400.878155,74.0679056 402.042982,74.9201457 C403.196012,75.766488 407.029618,76.2737035 410.394345,76.7160427 C416.551706,77.5211 422.352247,78.2819233 423.405014,81.5817734 C424.457781,84.8757257 420.178887,88.8567781 415.637538,93.0796426 L415.637538,93.0796426 Z" id="Shape-Copy-10" sketch:type="MSShapeGroup" transform="translate(389.168765, 89.498654) rotate(-31.000000) translate(-389.168765, -89.498654) "></path>
            <path d="M148.64853,352.572264 C147.19176,348.022069 139.173625,346.9752 130.683662,345.851658 C126.030254,345.247128 120.742827,344.545283 119.147457,343.368661 C117.546189,342.200886 115.299106,337.367593 113.317427,333.100495 C109.713837,325.338917 106.310775,318.019678 101.533512,317.996087 L101.442095,317.996087 C96.7120149,318.075708 93.2647184,325.306479 89.5992012,332.982538 C87.5821347,337.226045 85.28492,342.035746 83.6836522,343.188777 C82.061742,344.353603 76.7743146,345.002367 72.106162,345.568561 C63.619148,346.600686 55.5921668,347.567934 54.0941115,352.094538 C52.5990051,356.632938 58.4555756,362.197565 64.6719152,368.089522 C68.0779267,371.327445 71.941022,374.990013 72.5455522,376.877327 C73.1500824,378.76464 72.1238556,384.001936 71.2273815,388.61111 C69.5789309,396.997861 68.024846,404.939323 71.8731967,407.773242 C72.7932622,408.436751 73.9521907,408.76998 75.3175443,408.740491 C79.2396181,408.672665 84.8868147,405.623474 90.3452799,402.662751 C94.4354427,400.421566 99.071157,397.90613 101.144253,397.876641 C103.137728,397.882539 107.791136,400.474646 111.896044,402.754167 C117.478364,405.859388 123.255313,409.067822 127.183285,409.002945 C128.410039,408.979354 129.456908,408.663819 130.312097,408.053391 C134.18109,405.266654 132.712524,397.32814 131.152542,388.908952 C130.300302,384.290931 129.338951,379.047738 129.949379,377.160424 C130.571603,375.281957 134.475983,371.654776 137.914433,368.446342 C144.177955,362.616312 150.093504,357.12246 148.64853,352.572264 L148.64853,352.572264 Z M127.832049,367.080989 C125.343154,369.401795 122.515132,372.035187 122.060998,373.394643 C121.618658,374.765894 122.314605,378.561164 122.936829,381.9023 C124.060371,388.000682 125.130831,393.751091 122.326401,395.765209 C121.710075,396.207548 120.949252,396.440513 120.067522,396.455258 C117.210011,396.502441 113.028432,394.175737 108.985452,391.934552 C106.012933,390.277254 102.645257,388.404685 101.197334,388.398787 C99.7051765,388.422379 96.3433989,390.241867 93.3826755,391.860828 C89.4311123,394.004699 85.3409496,396.216395 82.4922854,396.266526 C81.5043946,396.28422 80.6698481,396.048306 80.0004415,395.57058 C77.2196027,393.509279 78.3431441,387.761819 79.5286131,381.689977 C80.1862239,378.348842 80.9264048,374.55947 80.4840656,373.188218 C80.0535222,371.822865 77.2520409,369.16883 74.7867373,366.824432 C70.2866736,362.563232 66.0431666,358.534996 67.1254231,355.246942 C68.2106285,351.964785 74.0259139,351.26589 80.1714793,350.513913 C83.5509505,350.10991 87.3845565,349.638081 88.5523319,348.797637 C89.7112605,347.957193 91.3744557,344.477458 92.8430217,341.401726 C95.4911588,335.842998 97.9918495,330.602753 101.412606,330.549672 L101.474533,330.549672 C104.942472,330.561468 107.407776,335.860691 110.014628,341.481347 C111.447807,344.574773 113.072666,348.069252 114.237492,348.921492 C115.390523,349.767834 119.224129,350.27505 122.588856,350.717389 C128.746217,351.522446 134.546757,352.28327 135.599525,355.58312 C136.652292,358.877072 132.373398,362.858124 127.832049,367.080989 L127.832049,367.080989 Z" id="Shape-Copy-11" sketch:type="MSShapeGroup" transform="translate(101.363276, 363.500000) rotate(46.000000) translate(-101.363276, -363.500000) "></path>
            <path d="M440.072801,289.483197 C436.471206,278.233681 416.647853,275.645491 395.657992,272.867742 C384.153302,271.373154 371.081117,269.637972 367.13686,266.728992 C363.178022,263.841883 357.622525,251.892462 352.72319,241.342852 C343.813982,222.153788 335.40054,204.058325 323.589642,204 L323.36363,204 C311.669383,204.196848 303.146581,222.07359 294.084268,241.051225 C289.097445,251.54251 283.418007,263.433605 279.459169,266.28426 C275.449296,269.164078 262.377111,270.768027 250.835968,272.167837 C229.853397,274.719575 210.008172,277.110917 206.304508,288.302107 C202.608134,299.522461 217.08742,313.27997 232.456169,327.846744 C240.876902,335.851908 250.42769,344.90693 251.922279,349.572964 C253.416868,354.238997 250.879712,367.187241 248.663346,378.582571 C244.587857,399.317258 240.74567,418.951054 250.260004,425.957395 C252.534696,427.597797 255.399932,428.421644 258.775516,428.348737 C268.472117,428.181052 282.433765,420.642491 295.92881,413.32265 C306.04098,407.781735 317.501926,401.562787 322.627272,401.48988 C327.55577,401.504462 339.06046,407.912967 349.209083,413.548661 C363.010336,421.225745 377.292774,429.158002 387.003957,428.997608 C390.036879,428.939282 392.62507,428.15918 394.739366,426.650009 C404.304735,419.760319 400.673978,400.133814 396.817209,379.318929 C394.710203,367.901728 392.333442,354.938902 393.842613,350.272869 C395.380946,345.628707 405.033803,336.661173 413.534734,328.728916 C429.020133,314.315246 443.645233,300.732713 440.072801,289.483197 L440.072801,289.483197 Z M388.607906,325.353332 C382.454574,331.091095 375.462814,337.601671 374.34005,340.962673 C373.246448,344.352838 374.967048,353.735941 376.505381,361.996279 C379.283129,377.0734 381.929645,391.290222 374.996211,396.269755 C373.472459,397.363357 371.591464,397.93932 369.411551,397.975774 C362.346885,398.092424 352.008704,392.34008 342.013184,386.799164 C334.664181,382.701804 326.338227,378.072223 322.758504,378.057642 C319.069421,378.115967 310.758049,382.614315 303.438208,386.616898 C293.6687,391.91722 283.55653,397.385229 276.513735,397.50917 C274.071358,397.552914 272.008096,396.96966 270.353112,395.78857 C263.478003,390.692386 266.255751,376.482855 269.186604,361.47135 C270.812425,353.211012 272.642385,343.842491 271.548783,340.452326 C270.484344,337.076742 263.558201,330.515132 257.463194,324.719043 C246.33762,314.184014 235.846334,304.224948 238.522013,296.095842 C241.204982,287.981318 255.582199,286.253427 270.775972,284.394304 C279.131088,283.395481 288.608969,282.228973 291.496078,280.15113 C294.361314,278.073286 298.473256,269.470287 302.104014,261.86611 C308.651043,248.123182 314.833537,235.167648 323.290724,235.036415 L323.443828,235.036415 C332.017665,235.065578 338.112672,248.166926 344.557631,262.062958 C348.1009,269.710879 352.118064,278.350332 354.997881,280.457338 C357.848536,282.549763 367.326418,283.803759 375.645081,284.897361 C390.868016,286.887716 405.208779,288.768711 407.811551,296.926979 C410.414323,305.070666 399.83555,314.913081 388.607906,325.353332 L388.607906,325.353332 Z" id="Shape-Copy-9" sketch:type="MSShapeGroup" transform="translate(323.168765, 316.500000) scale(-1, 1) rotate(-15.000000) translate(-323.168765, -316.500000) "></path>
        </g>
    </g>
</svg>