<?xml version="1.0" encoding="UTF-8" standalone="no"?>
<svg width="500px" height="500px" viewBox="0 0 500 500" version="1.1" xmlns="http://www.w3.org/2000/svg" xmlns:xlink="http://www.w3.org/1999/xlink" xmlns:sketch="http://www.bohemiancoding.com/sketch/ns">
    <!-- Generator: Sketch 3.3.1 (12005) - http://www.bohemiancoding.com/sketch -->
    <title>sad</title>
    <desc>Created with Sketch.</desc>
    <defs></defs>
    <g id="Page-1" stroke="none" stroke-width="1" fill="none" fill-rule="evenodd" sketch:type="MSPage">
        <g id="sad" sketch:type="MSArtboardGroup" fill="#311B92">
            <g id="Group-+-Group" sketch:type="MSLayerGroup" transform="translate(-13.551546, 16.000000)">
                <g id="Group" sketch:type="MSShapeGroup">
                    <path d="M513.727344,377.485117 C496.520003,377.485117 496.520003,404.170698 513.727344,404.170698 C530.934686,404.170698 530.935931,377.485117 513.727344,377.485117 L513.727344,377.485117 Z" id="dot-20"></path>
                    <path d="M389.144797,377.485117 C371.937456,377.485117 371.937456,404.170698 389.144797,404.170698 C406.352139,404.170698 406.353385,377.485117 389.144797,377.485117 L389.144797,377.485117 Z" id="dot-19"></path>
                    <path d="M263.316425,377.485117 C246.109084,377.485117 246.109084,404.170698 263.316425,404.170698 C280.523767,404.170698 280.525012,377.485117 263.316425,377.485117 L263.316425,377.485117 Z" id="dot-18"></path>
                    <path d="M137.488053,377.485117 C120.280711,377.485117 120.280711,404.170698 137.488053,404.170698 C154.695394,404.170698 154.69664,377.485117 137.488053,377.485117 L137.488053,377.485117 Z" id="dot-17"></path>
                    <path d="M12.905506,377.485117 C-4.30183534,377.485117 -4.30183534,404.170698 12.905506,404.170698 C30.1128474,404.170698 30.1140932,377.485117 12.905506,377.485117 L12.905506,377.485117 Z" id="dot-16"></path>
                    <path d="M513.727344,251.656745 C496.520003,251.656745 496.520003,278.342326 513.727344,278.342326 C530.934686,278.342326 530.935931,251.656745 513.727344,251.656745 L513.727344,251.656745 Z" id="dot-15"></path>
                    <path d="M389.144797,251.656745 C371.937456,251.656745 371.937456,278.342326 389.144797,278.342326 C406.352139,278.342326 406.353385,251.656745 389.144797,251.656745 L389.144797,251.656745 Z" id="dot-14"></path>
                    <path d="M263.316425,251.656745 C246.109084,251.656745 246.109084,278.342326 263.316425,278.342326 C280.523767,278.342326 280.525012,251.656745 263.316425,251.656745 L263.316425,251.656745 Z" id="dot-13"></path>
                    <path d="M137.488053,251.656745 C120.280711,251.656745 120.280711,278.342326 137.488053,278.342326 C154.695394,278.342326 154.69664,251.656745 137.488053,251.656745 L137.488053,251.656745 Z" id="dot-12"></path>
                    <path d="M12.905506,251.656745 C-4.30183534,251.656745 -4.30183534,278.342326 12.905506,278.342326 C30.1128474,278.342326 30.1140932,251.656745 12.905506,251.656745 L12.905506,251.656745 Z" id="dot-11"></path>
                    <path d="M513.727344,125.828372 C496.520003,125.828372 496.520003,152.513954 513.727344,152.513954 C530.934686,152.513954 530.935931,125.828372 513.727344,125.828372 L513.727344,125.828372 Z" id="dot-10"></path>
                    <path d="M389.144797,125.828372 C371.937456,125.828372 371.937456,152.513954 389.144797,152.513954 C406.352139,152.513954 406.353385,125.828372 389.144797,125.828372 L389.144797,125.828372 Z" id="dot-9"></path>
                    <path d="M263.316425,125.828372 C246.109084,125.828372 246.109084,152.513954 263.316425,152.513954 C280.523767,152.513954 280.525012,125.828372 263.316425,125.828372 L263.316425,125.828372 Z" id="dot-8"></path>
                    <path d="M137.488053,125.828372 C120.280711,125.828372 120.280711,152.513954 137.488053,152.513954 C154.695394,152.513954 154.69664,125.828372 137.488053,125.828372 L137.488053,125.828372 Z" id="dot-7"></path>
                    <path d="M12.905506,125.828372 C-4.30183534,125.828372 -4.30183534,152.513954 12.905506,152.513954 C30.1128474,152.513954 30.1140932,125.828372 12.905506,125.828372 L12.905506,125.828372 Z" id="dot-6"></path>
                    <path d="M513.727344,-8.8817842e-15 C496.520003,-8.8817842e-15 496.520003,26.6855815 513.727344,26.6855815 C530.934686,26.6855815 530.935931,-8.8817842e-15 513.727344,-8.8817842e-15 L513.727344,-8.8817842e-15 Z" id="dot-5"></path>
                    <path d="M389.144797,-8.8817842e-15 C371.937456,-8.8817842e-15 371.937456,26.6855815 389.144797,26.6855815 C406.352139,26.6855815 406.353385,-8.8817842e-15 389.144797,-8.8817842e-15 L389.144797,-8.8817842e-15 Z" id="dot-4"></path>
                    <path d="M263.316425,-8.8817842e-15 C246.109084,-8.8817842e-15 246.109084,26.6855815 263.316425,26.6855815 C280.523767,26.6855815 280.525012,-8.8817842e-15 263.316425,-8.8817842e-15 L263.316425,-8.8817842e-15 Z" id="dot-3"></path>
                    <path d="M137.488053,-8.8817842e-15 C120.280711,-8.8817842e-15 120.280711,26.6855815 137.488053,26.6855815 C154.695394,26.6855815 154.69664,-8.8817842e-15 137.488053,-8.8817842e-15 L137.488053,-8.8817842e-15 Z" id="dot-2"></path>
                    <path d="M12.905506,-8.8817842e-15 C-4.30183534,-8.8817842e-15 -4.30183534,26.6855815 12.905506,26.6855815 C30.1128474,26.6855815 30.1140932,-8.8817842e-15 12.905506,-8.8817842e-15 L12.905506,-8.8817842e-15 Z" id="dot"></path>
                </g>
                <g id="Group" transform="translate(62.291273, 62.291273)" sketch:type="MSShapeGroup">
                    <path d="M389.144797,377.485117 C371.937456,377.485117 371.937456,404.170698 389.144797,404.170698 C406.352139,404.170698 406.353385,377.485117 389.144797,377.485117 L389.144797,377.485117 Z" id="dot-16-copy"></path>
                    <path d="M263.316425,377.485117 C246.109084,377.485117 246.109084,404.170698 263.316425,404.170698 C280.523767,404.170698 280.525012,377.485117 263.316425,377.485117 L263.316425,377.485117 Z" id="dot-15-copy"></path>
                    <path d="M137.488053,377.485117 C120.280711,377.485117 120.280711,404.170698 137.488053,404.170698 C154.695394,404.170698 154.69664,377.485117 137.488053,377.485117 L137.488053,377.485117 Z" id="dot-14-copy"></path>
                    <path d="M12.905506,377.485117 C-4.30183534,377.485117 -4.30183534,404.170698 12.905506,404.170698 C30.1128474,404.170698 30.1140932,377.485117 12.905506,377.485117 L12.905506,377.485117 Z" id="dot-13-copy"></path>
                    <path d="M389.144797,251.656745 C371.937456,251.656745 371.937456,278.342326 389.144797,278.342326 C406.352139,278.342326 406.353385,251.656745 389.144797,251.656745 L389.144797,251.656745 Z" id="dot-12-copy"></path>
                    <path d="M263.316425,251.656745 C246.109084,251.656745 246.109084,278.342326 263.316425,278.342326 C280.523767,278.342326 280.525012,251.656745 263.316425,251.656745 L263.316425,251.656745 Z" id="dot-11-copy"></path>
                    <path d="M137.488053,251.656745 C120.280711,251.656745 120.280711,278.342326 137.488053,278.342326 C154.695394,278.342326 154.69664,251.656745 137.488053,251.656745 L137.488053,251.656745 Z" id="dot-10-copy"></path>
                    <path d="M12.905506,251.656745 C-4.30183534,251.656745 -4.30183534,278.342326 12.905506,278.342326 C30.1128474,278.342326 30.1140932,251.656745 12.905506,251.656745 L12.905506,251.656745 Z" id="dot-9-copy"></path>
                    <path d="M389.144797,125.828372 C371.937456,125.828372 371.937456,152.513954 389.144797,152.513954 C406.352139,152.513954 406.353385,125.828372 389.144797,125.828372 L389.144797,125.828372 Z" id="dot-8-copy"></path>
                    <path d="M263.316425,125.828372 C246.109084,125.828372 246.109084,152.513954 263.316425,152.513954 C280.523767,152.513954 280.525012,125.828372 263.316425,125.828372 L263.316425,125.828372 Z" id="dot-7-copy"></path>
                    <path d="M137.488053,125.828372 C120.280711,125.828372 120.280711,152.513954 137.488053,152.513954 C154.695394,152.513954 154.69664,125.828372 137.488053,125.828372 L137.488053,125.828372 Z" id="dot-6-copy"></path>
                    <path d="M12.905506,125.828372 C-4.30183534,125.828372 -4.30183534,152.513954 12.905506,152.513954 C30.1128474,152.513954 30.1140932,125.828372 12.905506,125.828372 L12.905506,125.828372 Z" id="dot-5-copy"></path>
                    <path d="M389.144797,-8.8817842e-15 C371.937456,-8.8817842e-15 371.937456,26.6855815 389.144797,26.6855815 C406.352139,26.6855815 406.353385,-8.8817842e-15 389.144797,-8.8817842e-15 L389.144797,-8.8817842e-15 Z" id="dot-4-copy"></path>
                    <path d="M263.316425,-8.8817842e-15 C246.109084,-8.8817842e-15 246.109084,26.6855815 263.316425,26.6855815 C280.523767,26.6855815 280.525012,-8.8817842e-15 263.316425,-8.8817842e-15 L263.316425,-8.8817842e-15 Z" id="dot-3-copy"></path>
                    <path d="M137.488053,-8.8817842e-15 C120.280711,-8.8817842e-15 120.280711,26.6855815 137.488053,26.6855815 C154.695394,26.6855815 154.69664,-8.8817842e-15 137.488053,-8.8817842e-15 L137.488053,-8.8817842e-15 Z" id="dot-2-copy"></path>
                    <path d="M12.905506,-8.8817842e-15 C-4.30183534,-8.8817842e-15 -4.30183534,26.6855815 12.905506,26.6855815 C30.1128474,26.6855815 30.1140932,-8.8817842e-15 12.905506,-8.8817842e-15 L12.905506,-8.8817842e-15 Z" id="dot-copy"></path>
                </g>
            </g>
        </g>
    </g>
</svg>