<?xml version="1.0" encoding="UTF-8" standalone="no"?>
<svg width="512px" height="112px" viewBox="0 0 512 112" version="1.1" xmlns="http://www.w3.org/2000/svg" xmlns:xlink="http://www.w3.org/1999/xlink" xmlns:sketch="http://www.bohemiancoding.com/sketch/ns">
    <!-- Generator: Sketch 3.3.1 (12005) - http://www.bohemiancoding.com/sketch -->
    <title>tap_prompt</title>
    <desc>Created with Sketch.</desc>
    <defs></defs>
    <g id="Page-2" stroke="none" stroke-width="1" fill="none" fill-rule="evenodd" sketch:type="MSPage">
        <g id="Messenger-share" sketch:type="MSArtboardGroup" transform="translate(0.000000, -512.000000)">
            <g id="tap_prompt" sketch:type="MSLayerGroup" transform="translate(0.000000, 512.000000)">
                <rect id="Rectangle-249" fill="#EEEEEE" sketch:type="MSShapeGroup" x="0" y="0" width="512" height="112"></rect>
                <path d="M33.4545455,40.0145455 L18.9090909,40 C17.3090909,40 16,41.3090909 16,42.9090909 L16,69.0909091 C16,70.6909091 17.3090909,72 18.9090909,72 L33.4545455,72 C35.0545455,72 36.3636364,70.6909091 36.3636364,69.0909091 L36.3636364,42.9090909 C36.3636364,41.3090909 35.0545455,40.0145455 33.4545455,40.0145455 L33.4545455,40.0145455 Z M33.4545455,66.1818182 L18.9090909,66.1818182 L18.9090909,45.8181818 L33.4545455,45.8181818 L33.4545455,66.1818182 L33.4545455,66.1818182 Z" id="Shape" fill="#757575" sketch:type="MSShapeGroup"></path>
                <path d="M496,54 L471.66,54 L482.84,42.82 L480,40 L464,56 L480,72 L482.82,69.18 L471.66,58 L496,58 L496,54 L496,54 Z" id="Shape" fill="#757575" sketch:type="MSShapeGroup" transform="translate(480.000000, 56.000000) rotate(-90.000000) translate(-480.000000, -56.000000) "></path>
                <path d="M131.384,55.124 L134.12,55.268 L136.928,55.124 C137.504003,55.124 137.975998,55.3079982 138.344,55.676 C138.712002,56.0440018 138.896,56.5079972 138.896,57.068 C138.896,59.6920131 138.196007,61.7839922 136.796,63.344 C135.395993,64.9040078 133.568011,65.684 131.312,65.684 C129.055989,65.684 127.160008,64.7720091 125.624,62.948 C124.087992,61.1239909 123.32,58.908013 123.32,56.3 C123.32,53.691987 124.111992,51.484009 125.696,49.676 C127.280008,47.867991 129.279988,46.964 131.696,46.964 C133.248008,46.964 134.655994,47.2999966 135.92,47.972 C137.184006,48.6440034 137.816,49.3719961 137.816,50.156 C137.816,50.6040022 137.672001,50.9599987 137.384,51.224 C137.095999,51.4880013 136.728002,51.62 136.28,51.62 C135.831998,51.62 135.408002,51.4880013 135.008,51.224 C134.607998,50.9599987 134.144003,50.6920014 133.616,50.42 C133.087997,50.1479986 132.448004,50.012 131.696,50.012 C130.255993,50.012 129.068005,50.6279938 128.132,51.86 C127.195995,53.0920062 126.728,54.5639914 126.728,56.276 C126.728,57.9880086 127.171996,59.4799936 128.06,60.752 C128.948004,62.0240064 130.071993,62.66 131.432,62.66 C132.456005,62.66 133.327996,62.2720039 134.048,61.496 C134.768004,60.7199961 135.199999,59.628007 135.344,58.22 C135.167999,58.2039999 134.736003,58.196 134.048,58.196 L131.384,58.316 C130.791997,58.316 130.312002,58.1680015 129.944,57.872 C129.575998,57.5759985 129.392,57.1840024 129.392,56.696 C129.392,56.2079976 129.575998,55.8240014 129.944,55.544 C130.312002,55.2639986 130.791997,55.124 131.384,55.124 L131.384,55.124 Z M155.912,49.676 L155.672,59.18 C155.672,60.972009 155.100006,62.5039936 153.956,63.776 C152.811994,65.0480064 151.184011,65.684 149.072,65.684 C146.959989,65.684 145.332006,65.0520063 144.188,63.788 C143.043994,62.5239937 142.472,60.996009 142.472,59.204 L142.232,49.7 C142.232,47.9559913 142.839994,47.084 144.056,47.084 C145.272006,47.084 145.88,47.9559913 145.88,49.7 L145.712,57.404 C145.712,59.9480127 146.271994,61.5639966 147.392,62.252 C147.856002,62.5240014 148.419997,62.66 149.084,62.66 C149.748003,62.66 150.307998,62.5200014 150.764,62.24 C151.220002,61.9599986 151.559999,61.5640026 151.784,61.052 C152.216002,60.0919952 152.432,58.8680074 152.432,57.38 L152.264,49.676 C152.264,47.9319913 152.871994,47.06 154.088,47.06 C155.304006,47.06 155.912,47.9319913 155.912,49.676 L155.912,49.676 Z M166.304,65.324 L162.656,65.468 C162.063997,65.468 161.572002,65.2760019 161.18,64.892 C160.787998,64.5079981 160.592,63.9960032 160.592,63.356 L160.736,57.332 C159.743995,57.1879993 159.248,56.6680045 159.248,55.772 C159.248,55.3399978 159.383999,54.9880014 159.656,54.716 C159.928001,54.4439986 160.279998,54.2680004 160.712,54.188 L160.592,49.796 C160.415999,49.4599983 160.328,49.0680022 160.328,48.62 C160.328,47.6599952 161.087992,47.18 162.608,47.18 L166.256,47.324 L170.024,47.18 C170.632003,47.18 171.115998,47.3279985 171.476,47.624 C171.836002,47.9200015 172.016,48.3159975 172.016,48.812 C172.016,49.3080025 171.836002,49.6959986 171.476,49.976 C171.115998,50.2560014 170.632003,50.396 170.024,50.396 L166.256,50.252 C165.391996,50.252 164.640003,50.2759998 164,50.324 L164,54.308 C164.256001,54.3240001 164.599998,54.332 165.032,54.332 L168.896,54.164 C169.472003,54.164 169.943998,54.3119985 170.312,54.608 C170.680002,54.9040015 170.864,55.2959976 170.864,55.784 C170.864,56.2720024 170.680002,56.6559986 170.312,56.936 C169.943998,57.2160014 169.472003,57.356 168.896,57.356 L165.104,57.212 L164.768,57.212 C164.543999,57.2280001 164.288001,57.236 164,57.236 C164,59.4600111 164.016,61.1639941 164.048,62.348 C164.480002,62.3800002 165.231995,62.396 166.304,62.396 L170.072,62.252 C170.680003,62.252 171.163998,62.3919986 171.524,62.672 C171.884002,62.9520014 172.064,63.3399975 172.064,63.836 C172.064,64.3320025 171.884002,64.7279985 171.524,65.024 C171.163998,65.3200015 170.680003,65.468 170.072,65.468 L166.304,65.324 Z M186.512,60.212 C186.512,61.7640078 185.928006,63.0639948 184.76,64.112 C183.591994,65.1600052 182.080009,65.684 180.224,65.684 C178.735993,65.684 177.376006,65.3280036 176.144,64.616 C174.911994,63.9039964 174.296,63.1560039 174.296,62.372 C174.296,61.9399978 174.443999,61.5840014 174.74,61.304 C175.036001,61.0239986 175.403998,60.884 175.844,60.884 C176.284002,60.884 176.715998,61.0319985 177.14,61.328 C177.564002,61.6240015 178.027997,61.9199985 178.532,62.216 C179.036003,62.5120015 179.651996,62.66 180.38,62.66 C181.108004,62.66 181.747997,62.4400022 182.3,62 C182.852003,61.5599978 183.128,60.9640038 183.128,60.212 C183.128,59.411996 182.440007,58.6040041 181.064,57.788 C180.791999,57.6279992 180.348003,57.3720018 179.732,57.02 C179.115997,56.6679982 178.648002,56.396001 178.328,56.204 C178.007998,56.011999 177.588003,55.720002 177.068,55.328 C176.547997,54.935998 176.152001,54.5720017 175.88,54.236 C175.207997,53.4039958 174.872,52.5080048 174.872,51.548 C174.872,50.2999938 175.411995,49.2240045 176.492,48.32 C177.572005,47.4159955 178.843993,46.964 180.308,46.964 C181.772007,46.964 183.023995,47.2439972 184.064,47.804 C185.104005,48.3640028 185.624,48.9959965 185.624,49.7 C185.624,50.1640023 185.480001,50.5239987 185.192,50.78 C184.903999,51.0360013 184.544002,51.164 184.112,51.164 C183.679998,51.164 183.120003,50.968002 182.432,50.576 C181.743997,50.183998 181.100003,49.988 180.5,49.988 C179.899997,49.988 179.380002,50.1359985 178.94,50.432 C178.499998,50.7280015 178.28,51.0999978 178.28,51.548 C178.28,52.0280024 178.583997,52.4919978 179.192,52.94 C179.672002,53.2920018 180.299996,53.6919978 181.076,54.14 C181.852004,54.5880022 182.407998,54.911999 182.744,55.112 C183.080002,55.312001 183.531997,55.6279978 184.1,56.06 C184.668003,56.4920022 185.095999,56.8839982 185.384,57.236 C185.672001,57.5880018 185.931999,58.0279974 186.164,58.556 C186.396001,59.0840026 186.512,59.6359971 186.512,60.212 L186.512,60.212 Z M201.104,60.212 C201.104,61.7640078 200.520006,63.0639948 199.352,64.112 C198.183994,65.1600052 196.672009,65.684 194.816,65.684 C193.327993,65.684 191.968006,65.3280036 190.736,64.616 C189.503994,63.9039964 188.888,63.1560039 188.888,62.372 C188.888,61.9399978 189.035999,61.5840014 189.332,61.304 C189.628001,61.0239986 189.995998,60.884 190.436,60.884 C190.876002,60.884 191.307998,61.0319985 191.732,61.328 C192.156002,61.6240015 192.619997,61.9199985 193.124,62.216 C193.628003,62.5120015 194.243996,62.66 194.972,62.66 C195.700004,62.66 196.339997,62.4400022 196.892,62 C197.444003,61.5599978 197.72,60.9640038 197.72,60.212 C197.72,59.411996 197.032007,58.6040041 195.656,57.788 C195.383999,57.6279992 194.940003,57.3720018 194.324,57.02 C193.707997,56.6679982 193.240002,56.396001 192.92,56.204 C192.599998,56.011999 192.180003,55.720002 191.66,55.328 C191.139997,54.935998 190.744001,54.5720017 190.472,54.236 C189.799997,53.4039958 189.464,52.5080048 189.464,51.548 C189.464,50.2999938 190.003995,49.2240045 191.084,48.32 C192.164005,47.4159955 193.435993,46.964 194.9,46.964 C196.364007,46.964 197.615995,47.2439972 198.656,47.804 C199.696005,48.3640028 200.216,48.9959965 200.216,49.7 C200.216,50.1640023 200.072001,50.5239987 199.784,50.78 C199.495999,51.0360013 199.136002,51.164 198.704,51.164 C198.271998,51.164 197.712003,50.968002 197.024,50.576 C196.335997,50.183998 195.692003,49.988 195.092,49.988 C194.491997,49.988 193.972002,50.1359985 193.532,50.432 C193.091998,50.7280015 192.872,51.0999978 192.872,51.548 C192.872,52.0280024 193.175997,52.4919978 193.784,52.94 C194.264002,53.2920018 194.891996,53.6919978 195.668,54.14 C196.444004,54.5880022 196.999998,54.911999 197.336,55.112 C197.672002,55.312001 198.123997,55.6279978 198.692,56.06 C199.260003,56.4920022 199.687999,56.8839982 199.976,57.236 C200.264001,57.5880018 200.523999,58.0279974 200.756,58.556 C200.988001,59.0840026 201.104,59.6359971 201.104,60.212 L201.104,60.212 Z M227.072,64.124 C226.879999,64.6200025 226.636001,64.9839988 226.34,65.216 C226.043999,65.4480012 225.640003,65.564 225.128,65.564 C224.199995,65.564 223.536002,64.9800058 223.136,63.812 C222.927999,63.219997 222.688001,62.3880054 222.416,61.316 C221.791997,58.8839878 221.436,57.668 221.348,57.668 C221.26,57.668 221.080001,58.1519952 220.808,59.12 C220.535999,60.0880048 220.36,60.7159986 220.28,61.004 C220.007999,62.0440052 219.720002,63.063995 219.416,64.064 C219.111998,65.064005 218.464005,65.564 217.472,65.564 C216.479995,65.564 215.832002,65.1080046 215.528,64.196 C215.319999,63.7479978 214.752005,62.0560147 213.824,59.12 C212.895995,56.1839853 212.248002,54.1840053 211.88,53.12 C211.511998,52.0559947 211.248001,51.3000022 211.088,50.852 C210.735998,49.859995 210.56,49.1200024 210.56,48.632 C210.56,48.1439976 210.711998,47.7640014 211.016,47.492 C211.320002,47.2199986 211.703998,47.084 212.168,47.084 C213.032004,47.084 213.639998,47.6519943 213.992,48.788 C214.328002,49.9560058 214.895996,51.8199872 215.696,54.38 C216.912006,58.2520194 217.552,60.188 217.616,60.188 C217.744001,60.188 218.191996,58.684015 218.96,55.676 L219.344,54.164 C219.712002,52.6599925 220.359995,51.908 221.288,51.908 C221.880003,51.908 222.335998,52.0959981 222.656,52.472 C222.976002,52.8480019 223.231999,53.4119962 223.424,54.164 C224.528006,58.1480199 225.143999,60.14 225.272,60.14 C225.432001,60.14 226.51999,56.4120373 228.536,48.956 C228.888002,47.7079938 229.423996,47.084 230.144,47.084 C230.688003,47.084 231.103999,47.2479984 231.392,47.576 C231.680001,47.9040016 231.824,48.2359983 231.824,48.572 C231.824,48.9080017 231.776,49.279998 231.68,49.688 C231.584,50.096002 231.476001,50.4799982 231.356,50.84 C231.235999,51.2000018 231.048001,51.7599962 230.792,52.52 C230.535999,53.2800038 230.284001,54.0519961 230.036,54.836 C229.787999,55.6200039 229.440002,56.707993 228.992,58.1 C228.063995,61.0440147 227.424002,63.0519946 227.072,64.124 L227.072,64.124 Z M245.264,54.452 L245.12,49.7 C245.12,47.9559913 245.723994,47.084 246.932,47.084 C248.140006,47.084 248.744,47.9559913 248.744,49.7 C248.744,50.692005 248.688001,52.2359895 248.576,54.332 C249.056002,54.4280005 249.435999,54.6279985 249.716,54.932 C249.996001,55.2360015 250.136,55.5959979 250.136,56.012 C250.136,56.4280021 250.000001,56.7879985 249.728,57.092 C249.455999,57.3960015 249.072002,57.5799997 248.576,57.644 L248.744,62.972 C248.744,64.7000086 248.140006,65.564 246.932,65.564 C245.723994,65.564 245.12,64.7000086 245.12,62.972 L245.264,57.524 L241.928,57.452 L238.688,57.524 L238.856,62.972 C238.856,64.7000086 238.248006,65.564 237.032,65.564 C235.815994,65.564 235.208,64.7000086 235.208,62.972 L235.376,57.644 C234.879998,57.5799997 234.500001,57.3920016 234.236,57.08 C233.971999,56.7679984 233.84,56.408002 233.84,56 C233.84,55.591998 233.979999,55.2360015 234.26,54.932 C234.540001,54.6279985 234.911998,54.4280005 235.376,54.332 L235.232,49.724 C235.232,47.9799913 235.839994,47.108 237.056,47.108 C238.272006,47.108 238.88,47.9799913 238.88,49.724 C238.88,50.7480051 238.824001,52.3239894 238.712,54.452 L241.928,54.524 C243.016005,54.524 244.127994,54.5000002 245.264,54.452 L245.264,54.452 Z M262.184,60.02 C260.935994,59.9559997 259.904004,59.924 259.088,59.924 C258.271996,59.924 257.552003,59.9399998 256.928,59.972 C256.735999,60.4680025 256.500001,61.2079951 256.22,62.192 C255.939999,63.1760049 255.728001,63.8759979 255.584,64.292 C255.295999,65.1400042 254.768004,65.564 254,65.564 C253.551998,65.564 253.192001,65.4280014 252.92,65.156 C252.647999,64.8839986 252.512,64.5040024 252.512,64.016 C252.512,63.5279976 252.927996,62.2040108 253.76,60.044 C252.927996,59.851999 252.512,59.3720038 252.512,58.604 C252.512,57.5639948 253.255993,57.044 254.744,57.044 C254.968001,56.3559966 255.399997,55.116009 256.04,53.324 C256.680003,51.531991 257.091999,50.3600028 257.276,49.808 C257.460001,49.2559972 257.603999,48.8600012 257.708,48.62 C257.812001,48.3799988 257.951999,48.1240014 258.128,47.852 C258.464002,47.3399974 258.967997,47.084 259.64,47.084 C260.136002,47.084 260.575998,47.2359985 260.96,47.54 C261.200001,47.732001 261.415999,48.1039972 261.608,48.656 C261.800001,49.2080028 261.995999,49.783997 262.196,50.384 C262.396001,50.984003 262.611999,51.5999968 262.844,52.232 C263.076001,52.8640032 263.395998,53.779994 263.804,54.98 C264.212002,56.180006 264.448,56.8679991 264.512,57.044 C264.592,57.0279999 264.735999,57.02 264.944,57.02 C265.488003,57.02 265.935998,57.1759984 266.288,57.488 C266.640002,57.8000016 266.816,58.1799978 266.816,58.628 C266.816,59.3640037 266.368004,59.8519988 265.472,60.092 C266.368004,62.4120116 266.816,63.7559982 266.816,64.124 C266.816,64.4920018 266.668001,64.8239985 266.372,65.12 C266.075999,65.4160015 265.688002,65.564 265.208,65.564 C264.487996,65.564 263.960002,65.164004 263.624,64.364 C263.544,64.171999 263.064004,62.7240135 262.184,60.02 L262.184,60.02 Z M257.792,57.212 C258.192002,57.2440002 258.783996,57.26 259.568,57.26 C260.352004,57.26 260.943998,57.2440002 261.344,57.212 C260.303995,53.4359811 259.720001,51.548 259.592,51.548 C259.479999,51.548 259.016004,52.9639858 258.2,55.796 L257.792,57.212 Z M276.944,56.444 L277.136,62.972 C277.136,64.7000086 276.528006,65.564 275.312,65.564 C274.095994,65.564 273.488,64.7000086 273.488,62.972 L273.68,56.444 C273.68,55.1319934 273.624001,53.0680141 273.512,50.252 L270.656,50.396 C270.047997,50.396 269.564002,50.2520014 269.204,49.964 C268.843998,49.6759986 268.664,49.2840025 268.664,48.788 C268.664,48.2919975 268.843998,47.9000014 269.204,47.612 C269.564002,47.3239986 270.047997,47.18 270.656,47.18 L275.216,47.324 L279.776,47.18 C280.384003,47.18 280.867998,47.3239986 281.228,47.612 C281.588002,47.9000014 281.768,48.2919975 281.768,48.788 C281.768,49.2840025 281.588002,49.6759986 281.228,49.964 C280.867998,50.2520014 280.384003,50.396 279.776,50.396 L277.064,50.252 C276.984,52.3640106 276.944,54.4279899 276.944,56.444 L276.944,56.444 Z M292.928,47.18 L295.856,47.324 L298.784,47.18 C299.376003,47.18 299.851998,47.3239986 300.212,47.612 C300.572002,47.9000014 300.752,48.2879976 300.752,48.776 C300.752,49.2640024 300.572002,49.6519986 300.212,49.94 C299.851998,50.2280014 299.376003,50.372 298.784,50.372 L297.656,50.3 C297.543999,52.6680118 297.488,54.6799917 297.488,56.336 C297.488,57.9920083 297.543999,60.0039882 297.656,62.372 C298.232003,62.3079997 298.607999,62.276 298.784,62.276 C299.376003,62.276 299.851998,62.4199986 300.212,62.708 C300.572002,62.9960014 300.752,63.3839976 300.752,63.872 C300.752,64.3600024 300.572002,64.7479986 300.212,65.036 C299.851998,65.3240014 299.376003,65.468 298.784,65.468 L295.856,65.324 L292.928,65.492 C292.319997,65.492 291.836002,65.3480014 291.476,65.06 C291.115998,64.7719986 290.936,64.3800025 290.936,63.884 C290.936,63.3879975 291.115998,63.0000014 291.476,62.72 C291.836002,62.4399986 292.319997,62.3 292.928,62.3 L294.056,62.396 C294.168001,60.0279882 294.224,58.0120083 294.224,56.348 C294.224,54.6839917 294.168001,52.6680118 294.056,50.3 C293.575998,50.3480002 293.116002,50.372 292.676,50.372 C292.235998,50.372 291.836002,50.2320014 291.476,49.952 C291.115998,49.6719986 290.936,49.2840025 290.936,48.788 C290.936,48.2919975 291.115998,47.9000014 291.476,47.612 C291.836002,47.3239986 292.319997,47.18 292.928,47.18 L292.928,47.18 Z M303.512,50.972 L303.272,49.148 C303.272,48.6039973 303.451998,48.1240021 303.812,47.708 C304.172002,47.2919979 304.627997,47.084 305.18,47.084 C305.732003,47.084 306.167998,47.2759981 306.488,47.66 C306.808002,48.0440019 306.968,48.5079973 306.968,49.052 C306.968,50.1400054 306.624003,51.2599942 305.936,52.412 C305.247997,53.5640058 304.616003,54.14 304.04,54.14 C303.671998,54.14 303.400001,54.0280011 303.224,53.804 C303.047999,53.5799989 302.96,53.3400013 302.96,53.084 C302.96,52.8279987 303.051999,52.4920021 303.236,52.076 C303.420001,51.6599979 303.512,51.2920016 303.512,50.972 L303.512,50.972 Z M317.372,65.156 C316.963998,65.4280014 316.548002,65.564 316.124,65.564 C315.699998,65.564 315.280002,65.4160015 314.864,65.12 C314.447998,64.8239985 314.136001,64.3640031 313.928,63.74 C312.679994,59.9799812 311.700004,57.1160098 310.988,55.148 C310.275996,53.1799902 309.792001,51.8360036 309.536,51.116 C309.119998,49.9639942 308.912,49.1800021 308.912,48.764 C308.912,48.3479979 309.047999,47.9640018 309.32,47.612 C309.592001,47.2599982 309.983997,47.084 310.496,47.084 C311.344004,47.084 311.927998,47.579995 312.248,48.572 C312.616002,49.7240058 313.151996,51.4359886 313.856,53.708 C315.264007,58.300023 316.027999,60.596 316.148,60.596 C316.268001,60.596 316.747996,59.3240127 317.588,56.78 C318.428004,54.2359873 319.263996,51.564014 320.096,48.764 C320.432002,47.6439944 320.999996,47.084 321.8,47.084 C322.328003,47.084 322.747998,47.2519983 323.06,47.588 C323.372002,47.9240017 323.528,48.2759982 323.528,48.644 C323.528,49.0120018 323.352002,49.695995 323,50.696 C322.647998,51.696005 322.000005,53.4719872 321.056,56.024 C320.111995,58.5760128 319.192004,61.1719868 318.296,63.812 C318.087999,64.4360031 317.780002,64.8839986 317.372,65.156 L317.372,65.156 Z M332.48,65.324 L328.832,65.468 C328.239997,65.468 327.748002,65.2760019 327.356,64.892 C326.963998,64.5079981 326.768,63.9960032 326.768,63.356 L326.912,57.332 C325.919995,57.1879993 325.424,56.6680045 325.424,55.772 C325.424,55.3399978 325.559999,54.9880014 325.832,54.716 C326.104001,54.4439986 326.455998,54.2680004 326.888,54.188 L326.768,49.796 C326.591999,49.4599983 326.504,49.0680022 326.504,48.62 C326.504,47.6599952 327.263992,47.18 328.784,47.18 L332.432,47.324 L336.2,47.18 C336.808003,47.18 337.291998,47.3279985 337.652,47.624 C338.012002,47.9200015 338.192,48.3159975 338.192,48.812 C338.192,49.3080025 338.012002,49.6959986 337.652,49.976 C337.291998,50.2560014 336.808003,50.396 336.2,50.396 L332.432,50.252 C331.567996,50.252 330.816003,50.2759998 330.176,50.324 L330.176,54.308 C330.432001,54.3240001 330.775998,54.332 331.208,54.332 L335.072,54.164 C335.648003,54.164 336.119998,54.3119985 336.488,54.608 C336.856002,54.9040015 337.04,55.2959976 337.04,55.784 C337.04,56.2720024 336.856002,56.6559986 336.488,56.936 C336.119998,57.2160014 335.648003,57.356 335.072,57.356 L331.28,57.212 L330.944,57.212 C330.719999,57.2280001 330.464001,57.236 330.176,57.236 C330.176,59.4600111 330.192,61.1639941 330.224,62.348 C330.656002,62.3800002 331.407995,62.396 332.48,62.396 L336.248,62.252 C336.856003,62.252 337.339998,62.3919986 337.7,62.672 C338.060002,62.9520014 338.24,63.3399975 338.24,63.836 C338.24,64.3320025 338.060002,64.7279985 337.7,65.024 C337.339998,65.3200015 336.856003,65.468 336.248,65.468 L332.48,65.324 Z M349.544,56.324 L349.424,50.852 C348.767997,50.659999 348.44,50.2040036 348.44,49.484 C348.44,49.0039976 348.787997,48.564002 349.484,48.164 C350.180003,47.763998 350.975996,47.4720009 351.872,47.288 C352.768004,47.1039991 353.615996,47.012 354.416,47.012 C355.984008,47.012 357.387994,47.2759974 358.628,47.804 C359.868006,48.3320026 360.863996,49.0359956 361.616,49.916 C363.136008,51.724009 363.896,53.8839874 363.896,56.396 C363.896,58.8120121 363.160007,60.923991 361.688,62.732 C360.967996,63.6280045 360.004006,64.3439973 358.796,64.88 C357.587994,65.4160027 356.152008,65.684 354.488,65.684 C352.823992,65.684 351.384006,65.4440024 350.168,64.964 C348.951994,64.4839976 348.344,63.8840036 348.344,63.164 C348.344,62.4439964 348.719996,61.9960009 349.472,61.82 L349.544,56.324 Z M360.512,56.3 C360.512,54.5719914 359.988005,53.0920062 358.94,51.86 C357.891995,50.6279938 356.38401,50.012 354.416,50.012 C353.871997,50.012 353.360002,50.0839993 352.88,50.228 C352.832,51.2040049 352.808,53.2039849 352.808,56.228 C352.808,59.2520151 352.84,61.3399942 352.904,62.492 C353.416003,62.6040006 353.991997,62.66 354.632,62.66 C355.928006,62.66 357.031995,62.3480031 357.944,61.724 C359.656009,60.523994 360.512,58.7160121 360.512,56.3 L360.512,56.3 Z M367.832,62.972 L368.024,56.444 C368.024,55.2279939 367.976,53.420012 367.88,51.02 C367.207997,50.7479986 366.872,50.2840033 366.872,49.628 C366.872,49.1799978 367.115998,48.7760018 367.604,48.416 C368.092002,48.0559982 368.695996,47.772001 369.416,47.564 C370.856007,47.163998 372.103995,46.964 373.16,46.964 C375.544012,46.964 377.351994,47.5119945 378.584,48.608 C379.816006,49.7040055 380.432,51.0439921 380.432,52.628 C380.432,53.5560046 380.144003,54.4719955 379.568,55.376 C378.991997,56.2800045 378.224005,57.0119972 377.264,57.572 C378.864008,60.7560159 380.031996,62.4679988 380.768,62.708 C380.864,62.7400002 380.975999,62.7759998 381.104,62.816 C381.232001,62.8560002 381.312,62.8839999 381.344,62.9 C381.376,62.9160001 381.424,62.9359999 381.488,62.96 C381.552,62.9840001 381.592,63.0199998 381.608,63.068 C381.624,63.1800006 381.632,63.3079993 381.632,63.452 C381.632,64.060003 381.412002,64.567998 380.972,64.976 C380.531998,65.384002 380.040003,65.588 379.496,65.588 C378.631996,65.588 377.792004,65.0320056 376.976,63.92 C376.159996,62.8079944 375.200006,61.0360122 374.096,58.604 C373.679998,58.6360002 373.220003,58.652 372.716,58.652 C372.211997,58.652 371.736002,58.6040005 371.288,58.508 C371.416001,60.6840109 371.48,62.171996 371.48,62.972 C371.48,64.7000086 370.872006,65.564 369.656,65.564 C368.439994,65.564 367.832,64.7000086 367.832,62.972 L367.832,62.972 Z M371.288,55.268 C371.816003,55.1079992 372.419997,55.028 373.1,55.028 C373.780003,55.028 374.471996,55.131999 375.176,55.34 C375.608002,55.1639991 376.023998,54.8280025 376.424,54.332 C376.824002,53.8359975 377.024,53.3160027 377.024,52.772 C377.024,51.9239958 376.704003,51.2520025 376.064,50.756 C375.423997,50.2599975 374.496006,50.012 373.28,50.012 C372.735997,50.012 372.112004,50.107999 371.408,50.3 C371.328,53.2600148 371.288,54.9159982 371.288,55.268 L371.288,55.268 Z M393.056,60.02 C391.807994,59.9559997 390.776004,59.924 389.96,59.924 C389.143996,59.924 388.424003,59.9399998 387.8,59.972 C387.607999,60.4680025 387.372001,61.2079951 387.092,62.192 C386.811999,63.1760049 386.600001,63.8759979 386.456,64.292 C386.167999,65.1400042 385.640004,65.564 384.872,65.564 C384.423998,65.564 384.064001,65.4280014 383.792,65.156 C383.519999,64.8839986 383.384,64.5040024 383.384,64.016 C383.384,63.5279976 383.799996,62.2040108 384.632,60.044 C383.799996,59.851999 383.384,59.3720038 383.384,58.604 C383.384,57.5639948 384.127993,57.044 385.616,57.044 C385.840001,56.3559966 386.271997,55.116009 386.912,53.324 C387.552003,51.531991 387.963999,50.3600028 388.148,49.808 C388.332001,49.2559972 388.475999,48.8600012 388.58,48.62 C388.684001,48.3799988 388.823999,48.1240014 389,47.852 C389.336002,47.3399974 389.839997,47.084 390.512,47.084 C391.008002,47.084 391.447998,47.2359985 391.832,47.54 C392.072001,47.732001 392.287999,48.1039972 392.48,48.656 C392.672001,49.2080028 392.867999,49.783997 393.068,50.384 C393.268001,50.984003 393.483999,51.5999968 393.716,52.232 C393.948001,52.8640032 394.267998,53.779994 394.676,54.98 C395.084002,56.180006 395.32,56.8679991 395.384,57.044 C395.464,57.0279999 395.607999,57.02 395.816,57.02 C396.360003,57.02 396.807998,57.1759984 397.16,57.488 C397.512002,57.8000016 397.688,58.1799978 397.688,58.628 C397.688,59.3640037 397.240004,59.8519988 396.344,60.092 C397.240004,62.4120116 397.688,63.7559982 397.688,64.124 C397.688,64.4920018 397.540001,64.8239985 397.244,65.12 C396.947999,65.4160015 396.560002,65.564 396.08,65.564 C395.359996,65.564 394.832002,65.164004 394.496,64.364 C394.416,64.171999 393.936004,62.7240135 393.056,60.02 L393.056,60.02 Z M388.664,57.212 C389.064002,57.2440002 389.655996,57.26 390.44,57.26 C391.224004,57.26 391.815998,57.2440002 392.216,57.212 C391.175995,53.4359811 390.592001,51.548 390.464,51.548 C390.351999,51.548 389.888004,52.9639858 389.072,55.796 L388.664,57.212 Z M416.048,64.124 C415.855999,64.6200025 415.612001,64.9839988 415.316,65.216 C415.019999,65.4480012 414.616003,65.564 414.104,65.564 C413.175995,65.564 412.512002,64.9800058 412.112,63.812 C411.903999,63.219997 411.664001,62.3880054 411.392,61.316 C410.767997,58.8839878 410.412,57.668 410.324,57.668 C410.236,57.668 410.056001,58.1519952 409.784,59.12 C409.511999,60.0880048 409.336,60.7159986 409.256,61.004 C408.983999,62.0440052 408.696002,63.063995 408.392,64.064 C408.087998,65.064005 407.440005,65.564 406.448,65.564 C405.455995,65.564 404.808002,65.1080046 404.504,64.196 C404.295999,63.7479978 403.728005,62.0560147 402.8,59.12 C401.871995,56.1839853 401.224002,54.1840053 400.856,53.12 C400.487998,52.0559947 400.224001,51.3000022 400.064,50.852 C399.711998,49.859995 399.536,49.1200024 399.536,48.632 C399.536,48.1439976 399.687998,47.7640014 399.992,47.492 C400.296002,47.2199986 400.679998,47.084 401.144,47.084 C402.008004,47.084 402.615998,47.6519943 402.968,48.788 C403.304002,49.9560058 403.871996,51.8199872 404.672,54.38 C405.888006,58.2520194 406.528,60.188 406.592,60.188 C406.720001,60.188 407.167996,58.684015 407.936,55.676 L408.32,54.164 C408.688002,52.6599925 409.335995,51.908 410.264,51.908 C410.856003,51.908 411.311998,52.0959981 411.632,52.472 C411.952002,52.8480019 412.207999,53.4119962 412.4,54.164 C413.504006,58.1480199 414.119999,60.14 414.248,60.14 C414.408001,60.14 415.49599,56.4120373 417.512,48.956 C417.864002,47.7079938 418.399996,47.084 419.12,47.084 C419.664003,47.084 420.079999,47.2479984 420.368,47.576 C420.656001,47.9040016 420.8,48.2359983 420.8,48.572 C420.8,48.9080017 420.752,49.279998 420.656,49.688 C420.56,50.096002 420.452001,50.4799982 420.332,50.84 C420.211999,51.2000018 420.024001,51.7599962 419.768,52.52 C419.511999,53.2800038 419.260001,54.0519961 419.012,54.836 C418.763999,55.6200039 418.416002,56.707993 417.968,58.1 C417.039995,61.0440147 416.400002,63.0519946 416.048,64.124 L416.048,64.124 Z M437.36,56.204 L437.432,63.404 C437.432,64.8440072 436.832006,65.564 435.632,65.564 C434.927996,65.564 434.376002,65.2360033 433.976,64.58 L427.688,54.044 C427.656,54.4280019 427.64,55.0679955 427.64,55.964 L427.808,62.972 C427.808,64.7000086 427.200006,65.564 425.984,65.564 C424.767994,65.564 424.16,64.7000086 424.16,62.972 L424.352,56.444 C424.352,55.851997 424.32,54.7720078 424.256,53.204 C424.192,51.6359922 424.16,50.3080054 424.16,49.22 C424.16,47.7959929 424.751994,47.084 425.936,47.084 C426.752004,47.084 427.343998,47.4039968 427.712,48.044 L434.12,59.036 L434.096,56.204 L433.904,49.676 C433.904,47.9479914 434.511994,47.084 435.728,47.084 C436.944006,47.084 437.552,47.9479914 437.552,49.676 L437.36,56.204 Z" id="GUESS-WHAT-I’VE-DRAW" fill="#757575" sketch:type="MSShapeGroup"></path>
            </g>
        </g>
    </g>
</svg>