<?xml version="1.0" encoding="UTF-8" standalone="no"?>
<svg width="512px" height="112px" viewBox="0 0 512 112" version="1.1" xmlns="http://www.w3.org/2000/svg" xmlns:xlink="http://www.w3.org/1999/xlink" xmlns:sketch="http://www.bohemiancoding.com/sketch/ns">
    <!-- Generator: Sketch 3.3.2 (12043) - http://www.bohemiancoding.com/sketch -->
    <title>tap_prompt</title>
    <desc>Created with Sketch.</desc>
    <defs></defs>
    <g id="Page-2" stroke="none" stroke-width="1" fill="none" fill-rule="evenodd" sketch:type="MSPage">
        <g id="Messenger-share" sketch:type="MSArtboardGroup" transform="translate(0.000000, -512.000000)">
            <g id="tap_prompt" sketch:type="MSLayerGroup" transform="translate(0.000000, 512.000000)">
                <rect id="Rectangle-249" fill="#03A9F4" sketch:type="MSShapeGroup" x="0" y="0" width="512" height="112"></rect>
                <path d="M49.4545455,40.0145455 L34.9090909,40 C33.3090909,40 32,41.3090909 32,42.9090909 L32,69.0909091 C32,70.6909091 33.3090909,72 34.9090909,72 L49.4545455,72 C51.0545455,72 52.3636364,70.6909091 52.3636364,69.0909091 L52.3636364,42.9090909 C52.3636364,41.3090909 51.0545455,40.0145455 49.4545455,40.0145455 L49.4545455,40.0145455 Z M49.4545455,66.1818182 L34.9090909,66.1818182 L34.9090909,45.8181818 L49.4545455,45.8181818 L49.4545455,66.1818182 L49.4545455,66.1818182 Z" id="Shape" fill="#FFFFFF" sketch:type="MSShapeGroup"></path>
                <path d="M480,54 L455.66,54 L466.84,42.82 L464,40 L448,56 L464,72 L466.82,69.18 L455.66,58 L480,58 L480,54 L480,54 Z" id="Shape" fill="#FFFFFF" sketch:type="MSShapeGroup" transform="translate(464.000000, 56.000000) rotate(-90.000000) translate(-464.000000, -56.000000) "></path>
                <path d="M106.064,55.16 L108.8,55.304 L111.608,55.16 C112.184003,55.16 112.655998,55.3439982 113.024,55.712 C113.392002,56.0800018 113.576,56.5439972 113.576,57.104 C113.576,59.7280131 112.876007,61.8199922 111.476,63.38 C110.075993,64.9400078 108.248011,65.72 105.992,65.72 C103.735989,65.72 101.840008,64.8080091 100.304,62.984 C98.7679923,61.1599909 98,58.944013 98,56.336 C98,53.727987 98.7919921,51.520009 100.376,49.712 C101.960008,47.903991 103.959988,47 106.376,47 C107.928008,47 109.335994,47.3359966 110.6,48.008 C111.864006,48.6800034 112.496,49.4079961 112.496,50.192 C112.496,50.6400022 112.352001,50.9959987 112.064,51.26 C111.775999,51.5240013 111.408002,51.656 110.96,51.656 C110.511998,51.656 110.088002,51.5240013 109.688,51.26 C109.287998,50.9959987 108.824003,50.7280014 108.296,50.456 C107.767997,50.1839986 107.128004,50.048 106.376,50.048 C104.935993,50.048 103.748005,50.6639938 102.812,51.896 C101.875995,53.1280062 101.408,54.5999914 101.408,56.312 C101.408,58.0240086 101.851996,59.5159936 102.74,60.788 C103.628004,62.0600064 104.751993,62.696 106.112,62.696 C107.136005,62.696 108.007996,62.3080039 108.728,61.532 C109.448004,60.7559961 109.879999,59.664007 110.024,58.256 C109.847999,58.2399999 109.416003,58.232 108.728,58.232 L106.064,58.352 C105.471997,58.352 104.992002,58.2040015 104.624,57.908 C104.255998,57.6119985 104.072,57.2200024 104.072,56.732 C104.072,56.2439976 104.255998,55.8600014 104.624,55.58 C104.992002,55.2999986 105.471997,55.16 106.064,55.16 L106.064,55.16 Z M130.592,49.712 L130.352,59.216 C130.352,61.008009 129.780006,62.5399936 128.636,63.812 C127.491994,65.0840064 125.864011,65.72 123.752,65.72 C121.639989,65.72 120.012006,65.0880063 118.868,63.824 C117.723994,62.5599937 117.152,61.032009 117.152,59.24 L116.912,49.736 C116.912,47.9919913 117.519994,47.12 118.736,47.12 C119.952006,47.12 120.56,47.9919913 120.56,49.736 L120.392,57.44 C120.392,59.9840127 120.951994,61.5999966 122.072,62.288 C122.536002,62.5600014 123.099997,62.696 123.764,62.696 C124.428003,62.696 124.987998,62.5560014 125.444,62.276 C125.900002,61.9959986 126.239999,61.6000026 126.464,61.088 C126.896002,60.1279952 127.112,58.9040074 127.112,57.416 L126.944,49.712 C126.944,47.9679913 127.551994,47.096 128.768,47.096 C129.984006,47.096 130.592,47.9679913 130.592,49.712 L130.592,49.712 Z M140.984,65.36 L137.336,65.504 C136.743997,65.504 136.252002,65.3120019 135.86,64.928 C135.467998,64.5439981 135.272,64.0320032 135.272,63.392 L135.416,57.368 C134.423995,57.2239993 133.928,56.7040045 133.928,55.808 C133.928,55.3759978 134.063999,55.0240014 134.336,54.752 C134.608001,54.4799986 134.959998,54.3040004 135.392,54.224 L135.272,49.832 C135.095999,49.4959983 135.008,49.1040022 135.008,48.656 C135.008,47.6959952 135.767992,47.216 137.288,47.216 L140.936,47.36 L144.704,47.216 C145.312003,47.216 145.795998,47.3639985 146.156,47.66 C146.516002,47.9560015 146.696,48.3519975 146.696,48.848 C146.696,49.3440025 146.516002,49.7319986 146.156,50.012 C145.795998,50.2920014 145.312003,50.432 144.704,50.432 L140.936,50.288 C140.071996,50.288 139.320003,50.3119998 138.68,50.36 L138.68,54.344 C138.936001,54.3600001 139.279998,54.368 139.712,54.368 L143.576,54.2 C144.152003,54.2 144.623998,54.3479985 144.992,54.644 C145.360002,54.9400015 145.544,55.3319976 145.544,55.82 C145.544,56.3080024 145.360002,56.6919986 144.992,56.972 C144.623998,57.2520014 144.152003,57.392 143.576,57.392 L139.784,57.248 L139.448,57.248 C139.223999,57.2640001 138.968001,57.272 138.68,57.272 C138.68,59.4960111 138.696,61.1999941 138.728,62.384 C139.160002,62.4160002 139.911995,62.432 140.984,62.432 L144.752,62.288 C145.360003,62.288 145.843998,62.4279986 146.204,62.708 C146.564002,62.9880014 146.744,63.3759975 146.744,63.872 C146.744,64.3680025 146.564002,64.7639985 146.204,65.06 C145.843998,65.3560015 145.360003,65.504 144.752,65.504 L140.984,65.36 Z M161.192,60.248 C161.192,61.8000078 160.608006,63.0999948 159.44,64.148 C158.271994,65.1960052 156.760009,65.72 154.904,65.72 C153.415993,65.72 152.056006,65.3640036 150.824,64.652 C149.591994,63.9399964 148.976,63.1920039 148.976,62.408 C148.976,61.9759978 149.123999,61.6200014 149.42,61.34 C149.716001,61.0599986 150.083998,60.92 150.524,60.92 C150.964002,60.92 151.395998,61.0679985 151.82,61.364 C152.244002,61.6600015 152.707997,61.9559985 153.212,62.252 C153.716003,62.5480015 154.331996,62.696 155.06,62.696 C155.788004,62.696 156.427997,62.4760022 156.98,62.036 C157.532003,61.5959978 157.808,61.0000038 157.808,60.248 C157.808,59.447996 157.120007,58.6400041 155.744,57.824 C155.471999,57.6639992 155.028003,57.4080018 154.412,57.056 C153.795997,56.7039982 153.328002,56.432001 153.008,56.24 C152.687998,56.047999 152.268003,55.756002 151.748,55.364 C151.227997,54.971998 150.832001,54.6080017 150.56,54.272 C149.887997,53.4399958 149.552,52.5440048 149.552,51.584 C149.552,50.3359938 150.091995,49.2600045 151.172,48.356 C152.252005,47.4519955 153.523993,47 154.988,47 C156.452007,47 157.703995,47.2799972 158.744,47.84 C159.784005,48.4000028 160.304,49.0319965 160.304,49.736 C160.304,50.2000023 160.160001,50.5599987 159.872,50.816 C159.583999,51.0720013 159.224002,51.2 158.792,51.2 C158.359998,51.2 157.800003,51.004002 157.112,50.612 C156.423997,50.219998 155.780003,50.024 155.18,50.024 C154.579997,50.024 154.060002,50.1719985 153.62,50.468 C153.179998,50.7640015 152.96,51.1359978 152.96,51.584 C152.96,52.0640024 153.263997,52.5279978 153.872,52.976 C154.352002,53.3280018 154.979996,53.7279978 155.756,54.176 C156.532004,54.6240022 157.087998,54.947999 157.424,55.148 C157.760002,55.348001 158.211997,55.6639978 158.78,56.096 C159.348003,56.5280022 159.775999,56.9199982 160.064,57.272 C160.352001,57.6240018 160.611999,58.0639974 160.844,58.592 C161.076001,59.1200026 161.192,59.6719971 161.192,60.248 L161.192,60.248 Z M175.784,60.248 C175.784,61.8000078 175.200006,63.0999948 174.032,64.148 C172.863994,65.1960052 171.352009,65.72 169.496,65.72 C168.007993,65.72 166.648006,65.3640036 165.416,64.652 C164.183994,63.9399964 163.568,63.1920039 163.568,62.408 C163.568,61.9759978 163.715999,61.6200014 164.012,61.34 C164.308001,61.0599986 164.675998,60.92 165.116,60.92 C165.556002,60.92 165.987998,61.0679985 166.412,61.364 C166.836002,61.6600015 167.299997,61.9559985 167.804,62.252 C168.308003,62.5480015 168.923996,62.696 169.652,62.696 C170.380004,62.696 171.019997,62.4760022 171.572,62.036 C172.124003,61.5959978 172.4,61.0000038 172.4,60.248 C172.4,59.447996 171.712007,58.6400041 170.336,57.824 C170.063999,57.6639992 169.620003,57.4080018 169.004,57.056 C168.387997,56.7039982 167.920002,56.432001 167.6,56.24 C167.279998,56.047999 166.860003,55.756002 166.34,55.364 C165.819997,54.971998 165.424001,54.6080017 165.152,54.272 C164.479997,53.4399958 164.144,52.5440048 164.144,51.584 C164.144,50.3359938 164.683995,49.2600045 165.764,48.356 C166.844005,47.4519955 168.115993,47 169.58,47 C171.044007,47 172.295995,47.2799972 173.336,47.84 C174.376005,48.4000028 174.896,49.0319965 174.896,49.736 C174.896,50.2000023 174.752001,50.5599987 174.464,50.816 C174.175999,51.0720013 173.816002,51.2 173.384,51.2 C172.951998,51.2 172.392003,51.004002 171.704,50.612 C171.015997,50.219998 170.372003,50.024 169.772,50.024 C169.171997,50.024 168.652002,50.1719985 168.212,50.468 C167.771998,50.7640015 167.552,51.1359978 167.552,51.584 C167.552,52.0640024 167.855997,52.5279978 168.464,52.976 C168.944002,53.3280018 169.571996,53.7279978 170.348,54.176 C171.124004,54.6240022 171.679998,54.947999 172.016,55.148 C172.352002,55.348001 172.803997,55.6639978 173.372,56.096 C173.940003,56.5280022 174.367999,56.9199982 174.656,57.272 C174.944001,57.6240018 175.203999,58.0639974 175.436,58.592 C175.668001,59.1200026 175.784,59.6719971 175.784,60.248 L175.784,60.248 Z M201.752,64.16 C201.559999,64.6560025 201.316001,65.0199988 201.02,65.252 C200.723999,65.4840012 200.320003,65.6 199.808,65.6 C198.879995,65.6 198.216002,65.0160058 197.816,63.848 C197.607999,63.255997 197.368001,62.4240054 197.096,61.352 C196.471997,58.9199878 196.116,57.704 196.028,57.704 C195.94,57.704 195.760001,58.1879952 195.488,59.156 C195.215999,60.1240048 195.04,60.7519986 194.96,61.04 C194.687999,62.0800052 194.400002,63.099995 194.096,64.1 C193.791998,65.100005 193.144005,65.6 192.152,65.6 C191.159995,65.6 190.512002,65.1440046 190.208,64.232 C189.999999,63.7839978 189.432005,62.0920147 188.504,59.156 C187.575995,56.2199853 186.928002,54.2200053 186.56,53.156 C186.191998,52.0919947 185.928001,51.3360022 185.768,50.888 C185.415998,49.895995 185.24,49.1560024 185.24,48.668 C185.24,48.1799976 185.391998,47.8000014 185.696,47.528 C186.000002,47.2559986 186.383998,47.12 186.848,47.12 C187.712004,47.12 188.319998,47.6879943 188.672,48.824 C189.008002,49.9920058 189.575996,51.8559872 190.376,54.416 C191.592006,58.2880194 192.232,60.224 192.296,60.224 C192.424001,60.224 192.871996,58.720015 193.64,55.712 L194.024,54.2 C194.392002,52.6959925 195.039995,51.944 195.968,51.944 C196.560003,51.944 197.015998,52.1319981 197.336,52.508 C197.656002,52.8840019 197.911999,53.4479962 198.104,54.2 C199.208006,58.1840199 199.823999,60.176 199.952,60.176 C200.112001,60.176 201.19999,56.4480373 203.216,48.992 C203.568002,47.7439938 204.103996,47.12 204.824,47.12 C205.368003,47.12 205.783999,47.2839984 206.072,47.612 C206.360001,47.9400016 206.504,48.2719983 206.504,48.608 C206.504,48.9440017 206.456,49.315998 206.36,49.724 C206.264,50.132002 206.156001,50.5159982 206.036,50.876 C205.915999,51.2360018 205.728001,51.7959962 205.472,52.556 C205.215999,53.3160038 204.964001,54.0879961 204.716,54.872 C204.467999,55.6560039 204.120002,56.743993 203.672,58.136 C202.743995,61.0800147 202.104002,63.0879946 201.752,64.16 L201.752,64.16 Z M219.944,54.488 L219.8,49.736 C219.8,47.9919913 220.403994,47.12 221.612,47.12 C222.820006,47.12 223.424,47.9919913 223.424,49.736 C223.424,50.728005 223.368001,52.2719895 223.256,54.368 C223.736002,54.4640005 224.115999,54.6639985 224.396,54.968 C224.676001,55.2720015 224.816,55.6319979 224.816,56.048 C224.816,56.4640021 224.680001,56.8239985 224.408,57.128 C224.135999,57.4320015 223.752002,57.6159997 223.256,57.68 L223.424,63.008 C223.424,64.7360086 222.820006,65.6 221.612,65.6 C220.403994,65.6 219.8,64.7360086 219.8,63.008 L219.944,57.56 L216.608,57.488 L213.368,57.56 L213.536,63.008 C213.536,64.7360086 212.928006,65.6 211.712,65.6 C210.495994,65.6 209.888,64.7360086 209.888,63.008 L210.056,57.68 C209.559998,57.6159997 209.180001,57.4280016 208.916,57.116 C208.651999,56.8039984 208.52,56.444002 208.52,56.036 C208.52,55.627998 208.659999,55.2720015 208.94,54.968 C209.220001,54.6639985 209.591998,54.4640005 210.056,54.368 L209.912,49.76 C209.912,48.0159913 210.519994,47.144 211.736,47.144 C212.952006,47.144 213.56,48.0159913 213.56,49.76 C213.56,50.7840051 213.504001,52.3599894 213.392,54.488 L216.608,54.56 C217.696005,54.56 218.807994,54.5360002 219.944,54.488 L219.944,54.488 Z M236.864,60.056 C235.615994,59.9919997 234.584004,59.96 233.768,59.96 C232.951996,59.96 232.232003,59.9759998 231.608,60.008 C231.415999,60.5040025 231.180001,61.2439951 230.9,62.228 C230.619999,63.2120049 230.408001,63.9119979 230.264,64.328 C229.975999,65.1760042 229.448004,65.6 228.68,65.6 C228.231998,65.6 227.872001,65.4640014 227.6,65.192 C227.327999,64.9199986 227.192,64.5400024 227.192,64.052 C227.192,63.5639976 227.607996,62.2400108 228.44,60.08 C227.607996,59.887999 227.192,59.4080038 227.192,58.64 C227.192,57.5999948 227.935993,57.08 229.424,57.08 C229.648001,56.3919966 230.079997,55.152009 230.72,53.36 C231.360003,51.567991 231.771999,50.3960028 231.956,49.844 C232.140001,49.2919972 232.283999,48.8960012 232.388,48.656 C232.492001,48.4159988 232.631999,48.1600014 232.808,47.888 C233.144002,47.3759974 233.647997,47.12 234.32,47.12 C234.816002,47.12 235.255998,47.2719985 235.64,47.576 C235.880001,47.768001 236.095999,48.1399972 236.288,48.692 C236.480001,49.2440028 236.675999,49.819997 236.876,50.42 C237.076001,51.020003 237.291999,51.6359968 237.524,52.268 C237.756001,52.9000032 238.075998,53.815994 238.484,55.016 C238.892002,56.216006 239.128,56.9039991 239.192,57.08 C239.272,57.0639999 239.415999,57.056 239.624,57.056 C240.168003,57.056 240.615998,57.2119984 240.968,57.524 C241.320002,57.8360016 241.496,58.2159978 241.496,58.664 C241.496,59.4000037 241.048004,59.8879988 240.152,60.128 C241.048004,62.4480116 241.496,63.7919982 241.496,64.16 C241.496,64.5280018 241.348001,64.8599985 241.052,65.156 C240.755999,65.4520015 240.368002,65.6 239.888,65.6 C239.167996,65.6 238.640002,65.200004 238.304,64.4 C238.224,64.207999 237.744004,62.7600135 236.864,60.056 L236.864,60.056 Z M232.472,57.248 C232.872002,57.2800002 233.463996,57.296 234.248,57.296 C235.032004,57.296 235.623998,57.2800002 236.024,57.248 C234.983995,53.4719811 234.400001,51.584 234.272,51.584 C234.159999,51.584 233.696004,52.9999858 232.88,55.832 L232.472,57.248 Z M251.624,56.48 L251.816,63.008 C251.816,64.7360086 251.208006,65.6 249.992,65.6 C248.775994,65.6 248.168,64.7360086 248.168,63.008 L248.36,56.48 C248.36,55.1679934 248.304001,53.1040141 248.192,50.288 L245.336,50.432 C244.727997,50.432 244.244002,50.2880014 243.884,50 C243.523998,49.7119986 243.344,49.3200025 243.344,48.824 C243.344,48.3279975 243.523998,47.9360014 243.884,47.648 C244.244002,47.3599986 244.727997,47.216 245.336,47.216 L249.896,47.36 L254.456,47.216 C255.064003,47.216 255.547998,47.3599986 255.908,47.648 C256.268002,47.9360014 256.448,48.3279975 256.448,48.824 C256.448,49.3200025 256.268002,49.7119986 255.908,50 C255.547998,50.2880014 255.064003,50.432 254.456,50.432 L251.744,50.288 C251.664,52.4000106 251.624,54.4639899 251.624,56.48 L251.624,56.48 Z M267.608,47.216 L270.536,47.36 L273.464,47.216 C274.056003,47.216 274.531998,47.3599986 274.892,47.648 C275.252002,47.9360014 275.432,48.3239976 275.432,48.812 C275.432,49.3000024 275.252002,49.6879986 274.892,49.976 C274.531998,50.2640014 274.056003,50.408 273.464,50.408 L272.336,50.336 C272.223999,52.7040118 272.168,54.7159917 272.168,56.372 C272.168,58.0280083 272.223999,60.0399882 272.336,62.408 C272.912003,62.3439997 273.287999,62.312 273.464,62.312 C274.056003,62.312 274.531998,62.4559986 274.892,62.744 C275.252002,63.0320014 275.432,63.4199976 275.432,63.908 C275.432,64.3960024 275.252002,64.7839986 274.892,65.072 C274.531998,65.3600014 274.056003,65.504 273.464,65.504 L270.536,65.36 L267.608,65.528 C266.999997,65.528 266.516002,65.3840014 266.156,65.096 C265.795998,64.8079986 265.616,64.4160025 265.616,63.92 C265.616,63.4239975 265.795998,63.0360014 266.156,62.756 C266.516002,62.4759986 266.999997,62.336 267.608,62.336 L268.736,62.432 C268.848001,60.0639882 268.904,58.0480083 268.904,56.384 C268.904,54.7199917 268.848001,52.7040118 268.736,50.336 C268.255998,50.3840002 267.796002,50.408 267.356,50.408 C266.915998,50.408 266.516002,50.2680014 266.156,49.988 C265.795998,49.7079986 265.616,49.3200025 265.616,48.824 C265.616,48.3279975 265.795998,47.9360014 266.156,47.648 C266.516002,47.3599986 266.999997,47.216 267.608,47.216 L267.608,47.216 Z M278.192,51.008 L277.952,49.184 C277.952,48.6399973 278.131998,48.1600021 278.492,47.744 C278.852002,47.3279979 279.307997,47.12 279.86,47.12 C280.412003,47.12 280.847998,47.3119981 281.168,47.696 C281.488002,48.0800019 281.648,48.5439973 281.648,49.088 C281.648,50.1760054 281.304003,51.2959942 280.616,52.448 C279.927997,53.6000058 279.296003,54.176 278.72,54.176 C278.351998,54.176 278.080001,54.0640011 277.904,53.84 C277.727999,53.6159989 277.64,53.3760013 277.64,53.12 C277.64,52.8639987 277.731999,52.5280021 277.916,52.112 C278.100001,51.6959979 278.192,51.3280016 278.192,51.008 L278.192,51.008 Z M292.052,65.192 C291.643998,65.4640014 291.228002,65.6 290.804,65.6 C290.379998,65.6 289.960002,65.4520015 289.544,65.156 C289.127998,64.8599985 288.816001,64.4000031 288.608,63.776 C287.359994,60.0159812 286.380004,57.1520098 285.668,55.184 C284.955996,53.2159902 284.472001,51.8720036 284.216,51.152 C283.799998,49.9999942 283.592,49.2160021 283.592,48.8 C283.592,48.3839979 283.727999,48.0000018 284,47.648 C284.272001,47.2959982 284.663997,47.12 285.176,47.12 C286.024004,47.12 286.607998,47.615995 286.928,48.608 C287.296002,49.7600058 287.831996,51.4719886 288.536,53.744 C289.944007,58.336023 290.707999,60.632 290.828,60.632 C290.948001,60.632 291.427996,59.3600127 292.268,56.816 C293.108004,54.2719873 293.943996,51.600014 294.776,48.8 C295.112002,47.6799944 295.679996,47.12 296.48,47.12 C297.008003,47.12 297.427998,47.2879983 297.74,47.624 C298.052002,47.9600017 298.208,48.3119982 298.208,48.68 C298.208,49.0480018 298.032002,49.731995 297.68,50.732 C297.327998,51.732005 296.680005,53.5079872 295.736,56.06 C294.791995,58.6120128 293.872004,61.2079868 292.976,63.848 C292.767999,64.4720031 292.460002,64.9199986 292.052,65.192 L292.052,65.192 Z M307.16,65.36 L303.512,65.504 C302.919997,65.504 302.428002,65.3120019 302.036,64.928 C301.643998,64.5439981 301.448,64.0320032 301.448,63.392 L301.592,57.368 C300.599995,57.2239993 300.104,56.7040045 300.104,55.808 C300.104,55.3759978 300.239999,55.0240014 300.512,54.752 C300.784001,54.4799986 301.135998,54.3040004 301.568,54.224 L301.448,49.832 C301.271999,49.4959983 301.184,49.1040022 301.184,48.656 C301.184,47.6959952 301.943992,47.216 303.464,47.216 L307.112,47.36 L310.88,47.216 C311.488003,47.216 311.971998,47.3639985 312.332,47.66 C312.692002,47.9560015 312.872,48.3519975 312.872,48.848 C312.872,49.3440025 312.692002,49.7319986 312.332,50.012 C311.971998,50.2920014 311.488003,50.432 310.88,50.432 L307.112,50.288 C306.247996,50.288 305.496003,50.3119998 304.856,50.36 L304.856,54.344 C305.112001,54.3600001 305.455998,54.368 305.888,54.368 L309.752,54.2 C310.328003,54.2 310.799998,54.3479985 311.168,54.644 C311.536002,54.9400015 311.72,55.3319976 311.72,55.82 C311.72,56.3080024 311.536002,56.6919986 311.168,56.972 C310.799998,57.2520014 310.328003,57.392 309.752,57.392 L305.96,57.248 L305.624,57.248 C305.399999,57.2640001 305.144001,57.272 304.856,57.272 C304.856,59.4960111 304.872,61.1999941 304.904,62.384 C305.336002,62.4160002 306.087995,62.432 307.16,62.432 L310.928,62.288 C311.536003,62.288 312.019998,62.4279986 312.38,62.708 C312.740002,62.9880014 312.92,63.3759975 312.92,63.872 C312.92,64.3680025 312.740002,64.7639985 312.38,65.06 C312.019998,65.3560015 311.536003,65.504 310.928,65.504 L307.16,65.36 Z M324.224,56.36 L324.104,50.888 C323.447997,50.695999 323.12,50.2400036 323.12,49.52 C323.12,49.0399976 323.467997,48.600002 324.164,48.2 C324.860003,47.799998 325.655996,47.5080009 326.552,47.324 C327.448004,47.1399991 328.295996,47.048 329.096,47.048 C330.664008,47.048 332.067994,47.3119974 333.308,47.84 C334.548006,48.3680026 335.543996,49.0719956 336.296,49.952 C337.816008,51.760009 338.576,53.9199874 338.576,56.432 C338.576,58.8480121 337.840007,60.959991 336.368,62.768 C335.647996,63.6640045 334.684006,64.3799973 333.476,64.916 C332.267994,65.4520027 330.832008,65.72 329.168,65.72 C327.503992,65.72 326.064006,65.4800024 324.848,65 C323.631994,64.5199976 323.024,63.9200036 323.024,63.2 C323.024,62.4799964 323.399996,62.0320009 324.152,61.856 L324.224,56.36 Z M335.192,56.336 C335.192,54.6079914 334.668005,53.1280062 333.62,51.896 C332.571995,50.6639938 331.06401,50.048 329.096,50.048 C328.551997,50.048 328.040002,50.1199993 327.56,50.264 C327.512,51.2400049 327.488,53.2399849 327.488,56.264 C327.488,59.2880151 327.52,61.3759942 327.584,62.528 C328.096003,62.6400006 328.671997,62.696 329.312,62.696 C330.608006,62.696 331.711995,62.3840031 332.624,61.76 C334.336009,60.559994 335.192,58.7520121 335.192,56.336 L335.192,56.336 Z M342.512,63.008 L342.704,56.48 C342.704,55.2639939 342.656,53.456012 342.56,51.056 C341.887997,50.7839986 341.552,50.3200033 341.552,49.664 C341.552,49.2159978 341.795998,48.8120018 342.284,48.452 C342.772002,48.0919982 343.375996,47.808001 344.096,47.6 C345.536007,47.199998 346.783995,47 347.84,47 C350.224012,47 352.031994,47.5479945 353.264,48.644 C354.496006,49.7400055 355.112,51.0799921 355.112,52.664 C355.112,53.5920046 354.824003,54.5079955 354.248,55.412 C353.671997,56.3160045 352.904005,57.0479972 351.944,57.608 C353.544008,60.7920159 354.711996,62.5039988 355.448,62.744 C355.544,62.7760002 355.655999,62.8119998 355.784,62.852 C355.912001,62.8920002 355.992,62.9199999 356.024,62.936 C356.056,62.9520001 356.104,62.9719999 356.168,62.996 C356.232,63.0200001 356.272,63.0559998 356.288,63.104 C356.304,63.2160006 356.312,63.3439993 356.312,63.488 C356.312,64.096003 356.092002,64.603998 355.652,65.012 C355.211998,65.420002 354.720003,65.624 354.176,65.624 C353.311996,65.624 352.472004,65.0680056 351.656,63.956 C350.839996,62.8439944 349.880006,61.0720122 348.776,58.64 C348.359998,58.6720002 347.900003,58.688 347.396,58.688 C346.891997,58.688 346.416002,58.6400005 345.968,58.544 C346.096001,60.7200109 346.16,62.207996 346.16,63.008 C346.16,64.7360086 345.552006,65.6 344.336,65.6 C343.119994,65.6 342.512,64.7360086 342.512,63.008 L342.512,63.008 Z M345.968,55.304 C346.496003,55.1439992 347.099997,55.064 347.78,55.064 C348.460003,55.064 349.151996,55.167999 349.856,55.376 C350.288002,55.1999991 350.703998,54.8640025 351.104,54.368 C351.504002,53.8719975 351.704,53.3520027 351.704,52.808 C351.704,51.9599958 351.384003,51.2880025 350.744,50.792 C350.103997,50.2959975 349.176006,50.048 347.96,50.048 C347.415997,50.048 346.792004,50.143999 346.088,50.336 C346.008,53.2960148 345.968,54.9519982 345.968,55.304 L345.968,55.304 Z M367.736,60.056 C366.487994,59.9919997 365.456004,59.96 364.64,59.96 C363.823996,59.96 363.104003,59.9759998 362.48,60.008 C362.287999,60.5040025 362.052001,61.2439951 361.772,62.228 C361.491999,63.2120049 361.280001,63.9119979 361.136,64.328 C360.847999,65.1760042 360.320004,65.6 359.552,65.6 C359.103998,65.6 358.744001,65.4640014 358.472,65.192 C358.199999,64.9199986 358.064,64.5400024 358.064,64.052 C358.064,63.5639976 358.479996,62.2400108 359.312,60.08 C358.479996,59.887999 358.064,59.4080038 358.064,58.64 C358.064,57.5999948 358.807993,57.08 360.296,57.08 C360.520001,56.3919966 360.951997,55.152009 361.592,53.36 C362.232003,51.567991 362.643999,50.3960028 362.828,49.844 C363.012001,49.2919972 363.155999,48.8960012 363.26,48.656 C363.364001,48.4159988 363.503999,48.1600014 363.68,47.888 C364.016002,47.3759974 364.519997,47.12 365.192,47.12 C365.688002,47.12 366.127998,47.2719985 366.512,47.576 C366.752001,47.768001 366.967999,48.1399972 367.16,48.692 C367.352001,49.2440028 367.547999,49.819997 367.748,50.42 C367.948001,51.020003 368.163999,51.6359968 368.396,52.268 C368.628001,52.9000032 368.947998,53.815994 369.356,55.016 C369.764002,56.216006 370,56.9039991 370.064,57.08 C370.144,57.0639999 370.287999,57.056 370.496,57.056 C371.040003,57.056 371.487998,57.2119984 371.84,57.524 C372.192002,57.8360016 372.368,58.2159978 372.368,58.664 C372.368,59.4000037 371.920004,59.8879988 371.024,60.128 C371.920004,62.4480116 372.368,63.7919982 372.368,64.16 C372.368,64.5280018 372.220001,64.8599985 371.924,65.156 C371.627999,65.4520015 371.240002,65.6 370.76,65.6 C370.039996,65.6 369.512002,65.200004 369.176,64.4 C369.096,64.207999 368.616004,62.7600135 367.736,60.056 L367.736,60.056 Z M363.344,57.248 C363.744002,57.2800002 364.335996,57.296 365.12,57.296 C365.904004,57.296 366.495998,57.2800002 366.896,57.248 C365.855995,53.4719811 365.272001,51.584 365.144,51.584 C365.031999,51.584 364.568004,52.9999858 363.752,55.832 L363.344,57.248 Z M390.728,64.16 C390.535999,64.6560025 390.292001,65.0199988 389.996,65.252 C389.699999,65.4840012 389.296003,65.6 388.784,65.6 C387.855995,65.6 387.192002,65.0160058 386.792,63.848 C386.583999,63.255997 386.344001,62.4240054 386.072,61.352 C385.447997,58.9199878 385.092,57.704 385.004,57.704 C384.916,57.704 384.736001,58.1879952 384.464,59.156 C384.191999,60.1240048 384.016,60.7519986 383.936,61.04 C383.663999,62.0800052 383.376002,63.099995 383.072,64.1 C382.767998,65.100005 382.120005,65.6 381.128,65.6 C380.135995,65.6 379.488002,65.1440046 379.184,64.232 C378.975999,63.7839978 378.408005,62.0920147 377.48,59.156 C376.551995,56.2199853 375.904002,54.2200053 375.536,53.156 C375.167998,52.0919947 374.904001,51.3360022 374.744,50.888 C374.391998,49.895995 374.216,49.1560024 374.216,48.668 C374.216,48.1799976 374.367998,47.8000014 374.672,47.528 C374.976002,47.2559986 375.359998,47.12 375.824,47.12 C376.688004,47.12 377.295998,47.6879943 377.648,48.824 C377.984002,49.9920058 378.551996,51.8559872 379.352,54.416 C380.568006,58.2880194 381.208,60.224 381.272,60.224 C381.400001,60.224 381.847996,58.720015 382.616,55.712 L383,54.2 C383.368002,52.6959925 384.015995,51.944 384.944,51.944 C385.536003,51.944 385.991998,52.1319981 386.312,52.508 C386.632002,52.8840019 386.887999,53.4479962 387.08,54.2 C388.184006,58.1840199 388.799999,60.176 388.928,60.176 C389.088001,60.176 390.17599,56.4480373 392.192,48.992 C392.544002,47.7439938 393.079996,47.12 393.8,47.12 C394.344003,47.12 394.759999,47.2839984 395.048,47.612 C395.336001,47.9400016 395.48,48.2719983 395.48,48.608 C395.48,48.9440017 395.432,49.315998 395.336,49.724 C395.24,50.132002 395.132001,50.5159982 395.012,50.876 C394.891999,51.2360018 394.704001,51.7959962 394.448,52.556 C394.191999,53.3160038 393.940001,54.0879961 393.692,54.872 C393.443999,55.6560039 393.096002,56.743993 392.648,58.136 C391.719995,61.0800147 391.080002,63.0879946 390.728,64.16 L390.728,64.16 Z M412.04,56.24 L412.112,63.44 C412.112,64.8800072 411.512006,65.6 410.312,65.6 C409.607996,65.6 409.056002,65.2720033 408.656,64.616 L402.368,54.08 C402.336,54.4640019 402.32,55.1039955 402.32,56 L402.488,63.008 C402.488,64.7360086 401.880006,65.6 400.664,65.6 C399.447994,65.6 398.84,64.7360086 398.84,63.008 L399.032,56.48 C399.032,55.887997 399,54.8080078 398.936,53.24 C398.872,51.6719922 398.84,50.3440054 398.84,49.256 C398.84,47.8319929 399.431994,47.12 400.616,47.12 C401.432004,47.12 402.023998,47.4399968 402.392,48.08 L408.8,59.072 L408.776,56.24 L408.584,49.712 C408.584,47.9839914 409.191994,47.12 410.408,47.12 C411.624006,47.12 412.232,47.9839914 412.232,49.712 L412.04,56.24 Z" id="GUESS-WHAT-I’VE-DRAW" fill="#FFFFFF" sketch:type="MSShapeGroup"></path>
            </g>
        </g>
    </g>
</svg>