<?xml version="1.0" encoding="UTF-8" standalone="no"?>
<svg xmlns="http://www.w3.org/2000/svg" width="112" height="176" viewBox="0 0 112 176" xmlns:xlink="http://www.w3.org/1999/xlink">
  <defs>
    <path id="a" d="M96,0.08 L16,0 C7.16,0 0,7.16 0,16 L0,160 C0,168.84 7.16,176 16,176 L96,176 C104.84,176 112,168.84 112,160 L112,16 C112,7.16 104.84,0.08 96,0.08 L96,0.08 Z M15,150 L15,26 L97,26 L97,150 L15,150 Z"/>
    <mask id="c" width="112" height="176" x="0" y="0" fill="white">
      <use xlink:href="#a"/>
    </mask>
    <polygon id="b" points="68 88 68 56 44 56 44 88 24 88 56 120 88 88"/>
    <mask id="d" width="64" height="64" x="0" y="0" fill="white">
      <use xlink:href="#b"/>
    </mask>
  </defs>
  <g fill="none" fill-rule="evenodd">
    <use stroke="#fc4449" stroke-width="8" mask="url(#c)" xlink:href="#a"/>
    <use stroke="#FFFFFF" stroke-width="4" mask="url(#d)" xlink:href="#b"/>
  </g>
</svg>
