<?xml version="1.0" encoding="UTF-8" standalone="no"?>
<svg xmlns="http://www.w3.org/2000/svg" width="225" height="132" viewBox="0 0 225 132" xmlns:xlink="http://www.w3.org/1999/xlink">
  <defs>
    <path id="a" d="M217,116.557085 C217,120.667693 213.667487,124 209.561787,124 L7.43821304,124 C3.33020141,124 0,120.667276 0,116.557085 L0,7.44291549 C0,3.33230677 3.33251326,2.35993927e-14 7.43821304,2.33479911e-14 L209.561787,-6.64996817e-15 C213.669799,-6.90151133e-15 217,3.33272438 217,7.44291549 L217,116.557085 L217,116.557085 Z"/>
    <mask id="d" width="225" height="132" x="-4" y="-4">
      <rect width="225" height="132" x="-4" y="-4" fill="white"/>
      <use fill="black" xlink:href="#a"/>
    </mask>
    <circle id="b" cx="48" cy="48" r="48"/>
    <mask id="e" width="100" height="100" x="-2" y="-2">
      <rect width="100" height="100" x="-2" y="-2" fill="white"/>
      <use fill="black" xlink:href="#b"/>
    </mask>
    <polygon id="c" points="48 16.615 20.8 63.692 75.2 63.692"/>
    <mask id="f" width="58.4" height="51.077" x="-2" y="-2">
      <rect width="58.4" height="51.077" x="18.8" y="14.615" fill="white"/>
      <use fill="black" xlink:href="#c"/>
    </mask>
  </defs>
  <g fill="none" fill-rule="evenodd" transform="translate(4 4)">
    <use stroke="#fc4449" stroke-width="8" mask="url(#d)" transform="matrix(-1 0 0 1 217 0)" xlink:href="#a"/>
    <g transform="translate(60 15)">
      <use stroke="#FFFFFF" stroke-width="4" mask="url(#e)" xlink:href="#b"/>
      <use stroke="#fc4449" stroke-width="4" mask="url(#f)" stroke-linejoin="round" xlink:href="#c"/>
      <rect width="2" height="31.385" x="47" y="16.615" fill="#fc4449"/>
      <rect width="2" height="31.385" x="60.61" y="40.154" fill="#fc4449" transform="rotate(-60 61.61 55.846)"/>
      <rect width="2" height="31.385" x="33.39" y="40.154" fill="#fc4449" transform="rotate(60 34.39 55.846)"/>
      <rect width="2" height="10.303" x="58.115" y="54.291" fill="#fc4449"/>
      <rect width="2" height="10.303" x="51.352" y="27.501" fill="#fc4449" transform="rotate(-120 52.352 32.653)"/>
      <rect width="2" height="10.303" x="31.533" y="46.754" fill="#fc4449" transform="rotate(120 32.533 51.905)"/>
    </g>
    <path fill="#FFFFFF" d="M150.037441 114.66672L151.607281 111.25176 151.607281 115.5 152.046241 115.5 152.046241 110.2548 151.629601 110.2548 149.858881 114.11616 148.103041 110.2548 147.686401 110.2548 147.686401 115.5 148.125361 115.5 148.125361 111.2592 149.687761 114.66672 150.037441 114.66672zM155.180961 113.0448L156.951681 113.0448 156.951681 112.65048 155.180961 112.65048 155.180961 110.68632 157.651041 110.68632 157.651041 110.2548 154.742001 110.2548 154.742001 115.5 157.651041 115.5 157.651041 115.07592 155.180961 115.07592 155.180961 113.0448zM162.511841 114.66672L164.081681 111.25176 164.081681 115.5 164.520641 115.5 164.520641 110.2548 164.104001 110.2548 162.333281 114.11616 160.577441 110.2548 160.160801 110.2548 160.160801 115.5 160.599761 115.5 160.599761 111.2592 162.162161 114.66672 162.511841 114.66672zM167.2164 115.5L168.80112 115.5C169.84272 115.5 170.49744 115.10568 170.49744 114.10128L170.49744 114.04176C170.49744 113.38704 170.17752 113.02248 169.61208 112.85136 170.14776 112.68768 170.4528 112.32312 170.4528 111.65352L170.4528 111.57912C170.4528 110.59704 169.79064 110.2548 168.74904 110.2548L167.2164 110.2548 167.2164 115.5zM170.06592 113.98224L170.06592 114.06408C170.06592 114.8304 169.56 115.07592 168.79368 115.07592L167.65536 115.07592 167.65536 113.02992 168.90528 113.02992C169.58976 113.02992 170.06592 113.32752 170.06592 113.98224L170.06592 113.98224zM167.65536 110.68632L168.7416 110.68632C169.50792 110.68632 170.01384 110.8872 170.01384 111.61632L170.01384 111.7056C170.01384 112.36776 169.61208 112.66536 168.93504 112.66536L167.65536 112.66536 167.65536 110.68632zM173.40896 113.0448L175.17968 113.0448 175.17968 112.65048 173.40896 112.65048 173.40896 110.68632 175.87904 110.68632 175.87904 110.2548 172.97 110.2548 172.97 115.5 175.87904 115.5 175.87904 115.07592 173.40896 115.07592 173.40896 113.0448zM179.84704 113.83344L181.11928 115.5 181.64752 115.5 180.29344 113.75904C181.1044 113.64 181.6624 113.09688 181.6624 112.16688L181.6624 111.97344C181.6624 110.87232 180.9556 110.2548 179.90656 110.2548L178.3888 110.2548 178.3888 115.5 178.82776 115.5 178.82776 113.83344 179.84704 113.83344zM178.82776 110.68632L179.86936 110.68632C180.658 110.68632 181.22344 111.0732 181.22344 111.95856L181.22344 112.16688C181.22344 113.0076 180.65056 113.40936 179.86936 113.40936L178.82776 113.40936 178.82776 110.68632zM188.80232 115.58184C189.82904 115.58184 190.55816 114.83784 190.55816 113.77392L190.55816 111.966C190.55816 110.89464 189.82904 110.15064 188.80232 110.15064 187.76072 110.15064 187.03904 110.89464 187.03904 111.966L187.03904 113.77392C187.03904 114.83784 187.76072 115.58184 188.80232 115.58184L188.80232 115.58184zM188.80232 111.41544C189.0032 111.41544 189.23384 111.46752 189.23384 111.92136L189.23384 113.81856C189.23384 114.26496 188.98832 114.31704 188.80232 114.31704 188.61632 114.31704 188.36336 114.26496 188.36336 113.81856L188.36336 111.92136C188.36336 111.46752 188.594 111.41544 188.80232 111.41544L188.80232 111.41544zM194.50384 115.58184C195.53056 115.58184 196.25968 114.83784 196.25968 113.77392L196.25968 111.966C196.25968 110.89464 195.53056 110.15064 194.50384 110.15064 193.46224 110.15064 192.74056 110.89464 192.74056 111.966L192.74056 113.77392C192.74056 114.83784 193.46224 115.58184 194.50384 115.58184L194.50384 115.58184zM194.50384 111.41544C194.70472 111.41544 194.93536 111.46752 194.93536 111.92136L194.93536 113.81856C194.93536 114.26496 194.68984 114.31704 194.50384 114.31704 194.31784 114.31704 194.06488 114.26496 194.06488 113.81856L194.06488 111.92136C194.06488 111.46752 194.29552 111.41544 194.50384 111.41544L194.50384 111.41544zM200.20536 115.58184C201.23208 115.58184 201.9612 114.83784 201.9612 113.77392L201.9612 111.966C201.9612 110.89464 201.23208 110.15064 200.20536 110.15064 199.16376 110.15064 198.44208 110.89464 198.44208 111.966L198.44208 113.77392C198.44208 114.83784 199.16376 115.58184 200.20536 115.58184L200.20536 115.58184zM200.20536 111.41544C200.40624 111.41544 200.63688 111.46752 200.63688 111.92136L200.63688 113.81856C200.63688 114.26496 200.39136 114.31704 200.20536 114.31704 200.01936 114.31704 199.7664 114.26496 199.7664 113.81856L199.7664 111.92136C199.7664 111.46752 199.99704 111.41544 200.20536 111.41544L200.20536 111.41544zM204.0692 112.02552L204.6644 112.02552 204.6644 115.5 205.98872 115.5 205.98872 110.24736 204.76856 110.24736C204.76856 110.65656 204.61976 110.76072 204.0692 110.76072L204.0692 112.02552zM10.93184 113.0448L12.70256 113.0448 12.70256 112.65048 10.93184 112.65048 10.93184 110.68632 13.40192 110.68632 13.40192 110.2548 10.49288 110.2548 10.49288 115.5 13.40192 115.5 13.40192 115.07592 10.93184 115.07592 10.93184 113.0448zM15.9116799 110.2548L15.9116799 115.5 18.6570399 115.5 18.6570399 115.07592 16.3506399 115.07592 16.3506399 110.2548 15.9116799 110.2548zM20.9807999 110.2548L20.9807999 115.5 21.4197599 115.5 21.4197599 110.2548 20.9807999 110.2548zM25.6704798 115.5L25.6704798 110.68632 27.1287198 110.68632 27.1287198 110.2548 23.7807198 110.2548 23.7807198 110.68632 25.2315198 110.68632 25.2315198 115.5 25.6704798 115.5zM29.9286398 113.0448L31.6993598 113.0448 31.6993598 112.65048 29.9286398 112.65048 29.9286398 110.68632 32.3987198 110.68632 32.3987198 110.2548 29.4896798 110.2548 29.4896798 115.5 32.3987198 115.5 32.3987198 115.07592 29.9286398 115.07592 29.9286398 113.0448z"/>
  </g>
</svg>
