<?xml version="1.0" encoding="UTF-8" standalone="no"?><svg xmlns="http://www.w3.org/2000/svg" width="118" height="104" viewBox="0 0 118 104" xmlns:xlink="http://www.w3.org/1999/xlink"><defs><path id="a" d="M54 .077L1.2 91.462h105.6z"/><mask id="b" width="117.6" height="103.385" x="-6" y="-6"><path fill="#fff" d="M-4.8-5.923h117.6V97.462H-4.8z"/><use xlink:href="#a"/></mask></defs><g fill="none" fill-rule="evenodd" transform="translate(5 6)"><use stroke="#FF0926" stroke-width="12" mask="url(#b)" stroke-linejoin="round" xlink:href="#a"/><path fill="#fc4449" d="M30.404 73.446L.7 90.596l1 1.732L54 62.132l20.577 11.88v19.2h2V75.167l29.723 17.16 1-1.731L55 60.4V36.662l16.608-9.588-1-1.732L55 34.353V.077h-2V60.4L32.404 72.291l-16.588-9.577-1 1.732 15.588 9zM53.96 61h.078l-.039.068-.04-.068z"/></g></svg>
