<?xml version="1.0" encoding="UTF-8" standalone="no"?><svg width="296" height="200" viewBox="0 0 296 200" xmlns="http://www.w3.org/2000/svg"><title>on_starter</title><g fill="#0D47A1" fill-rule="evenodd"><path d="M12 19.254C12 15.8 14.796 13 18.24 13h99.52c3.446 0 6.24 2.802 6.24 6.254v162.492c0 3.454-2.796 6.254-6.24 6.254H18.24c-3.446 0-6.24-2.802-6.24-6.254V19.254zM68 133c17.673 0 32-14.327 32-32 0-17.673-14.327-32-32-32-17.673 0-32 14.327-32 32 0 17.673 14.327 32 32 32zm19.188-46.026c.25.683.367 1.445.407 2.334.06 1.33-.063 3.016-.33 4.93-.485 3.482-1.39 7.305-1.547 7.283 2.26 4 1.708 10.596-3.244 15.54-2.447 2.443-5.552 4.337-9.002 5.787-1.19.5-2.34.91-3.41 1.24-.66.202-2.15.485-2.15.485h-.495s-1.493-.283-2.15-.485c-1.073-.33-2.222-.74-3.412-1.24-3.45-1.45-6.554-3.344-9-5.787-4.952-4.945-5.318-11.833-3.257-15.508-.134.012-1.145-3.723-1.725-7.01-.33-1.87-.51-3.508-.494-4.806.01-.883.106-1.643.342-2.334.455-1.332 1.434-2.4 3.02-2.615 2.376-.32 5.017.672 8.23 2.567 1.213.717 4.266 2.826 4.266 2.826 1.21-.376 2.43-.567 3.646-.55h1.523c1.838-.024 3.64.404 3.606.52 0 0 2.083-1.683 3.99-2.938 3.128-2.056 5.728-3.143 8.168-2.813 1.576.21 2.54 1.258 3.018 2.574zM131 12h7.2c3.447 0 6.24 2.802 6.24 6.254v162.492c0 3.454-2.796 6.254-6.24 6.254H131c.923-1.888 1.44-4.01 1.44-6.254V18.254c0-2.243-.517-4.365-1.44-6.254zm20 0h7.2c3.447 0 6.24 2.802 6.24 6.254v162.492c0 3.454-2.796 6.254-6.24 6.254H151c.923-1.888 1.44-4.01 1.44-6.254V18.254c0-2.243-.517-4.365-1.44-6.254zm20 0h7.2c3.447 0 6.24 2.802 6.24 6.254v162.492c0 3.454-2.796 6.254-6.24 6.254H171c.923-1.888 1.44-4.01 1.44-6.254V18.254c0-2.243-.517-4.365-1.44-6.254zm20 0h7.2c3.447 0 6.24 2.802 6.24 6.254v162.492c0 3.454-2.796 6.254-6.24 6.254H191c.923-1.888 1.44-4.01 1.44-6.254V18.254c0-2.243-.517-4.365-1.44-6.254zm20 0h7.2c3.447 0 6.24 2.802 6.24 6.254v162.492c0 3.454-2.796 6.254-6.24 6.254H211c.923-1.888 1.44-4.01 1.44-6.254V18.254c0-2.243-.517-4.365-1.44-6.254zm20 0h7.2c3.447 0 6.24 2.802 6.24 6.254v162.492c0 3.454-2.796 6.254-6.24 6.254H231c.923-1.888 1.44-4.01 1.44-6.254V18.254c0-2.243-.517-4.365-1.44-6.254zm20 0h7.2c3.447 0 6.24 2.802 6.24 6.254v162.492c0 3.454-2.796 6.254-6.24 6.254H251c.923-1.888 1.44-4.01 1.44-6.254V18.254c0-2.243-.517-4.365-1.44-6.254zm20 0h7.2c3.447 0 6.24 2.802 6.24 6.254v162.492c0 3.454-2.796 6.254-6.24 6.254H271c.923-1.888 1.44-4.01 1.44-6.254V18.254c0-2.243-.517-4.365-1.44-6.254z"/></g></svg>
