<svg xmlns='http://www.w3.org/2000/svg'>
  <defs>
    <style type='text/css'>
    .icon {display: none;}
    .icon:target {display: block;}
    </style>
  </defs>

      <svg class="icon" id="ic_add" viewBox="0 0 24 24">
        <path d="M19 13h-6v6h-2v-6H5v-2h6V5h2v6h6v2z"/>
      </svg>

      <svg class="icon" id="ic_add_circle" viewBox="0 0 24 24">
        <path d="M12 2C6.48 2 2 6.48 2 12s4.48 10 10 10 10-4.48 10-10S17.52 2 12 2zm5 11h-4v4h-2v-4H7v-2h4V7h2v4h4v2z"/>
      </svg>

      <svg class="icon" id="ic_add_friend" viewBox="0 0 24 24">
        <path d="M15 12c2.21 0 4-1.79 4-4s-1.79-4-4-4-4 1.79-4 4 1.79 4 4 4zm-9-2V7H4v3H1v2h3v3h2v-3h3v-2H6zm9 4c-2.67 0-8 1.34-8 4v2h16v-2c0-2.66-5.33-4-8-4z"/>
      </svg>

      <svg class="icon" id="ic_add_lock" viewBox="0 0 24 24">
        <path d="M18 8h-1V6c0-2.76-2.24-5-5-5S7 3.24 7 6v2H6c-1.1 0-2 .9-2 2v10c0 1.1.9 2 2 2h12c1.1 0 2-.9 2-2V10c0-1.1-.9-2-2-2zM8.9 6c0-1.71 1.39-3.1 3.1-3.1s3.1 1.39 3.1 3.1v2H8.9V6zM16 16h-3v3h-2v-3H8v-2h3v-3h2v3h3v2z"/>
      </svg>

      <svg class="icon" id="ic_add_small" viewBox="0 0 16 16"><!-- Note the smaller viewbox -->
        <path d="M13 9H9v4H7V9H3V7h4V3h2v4h4z"/>
      </svg>

      <svg class="icon" id="ic_add_sticker" viewBox="0 0 24 24">
        <path d="M12 20.896L8.705 21.95c-.526.17-1.156-.09-1.41-.584L5.71 18.29l-3.076-1.584c-.49-.253-.754-.88-.585-1.41L3.103 12 2.05 8.705c-.17-.526.09-1.156.584-1.41L5.71 5.71l1.584-3.076c.253-.49.88-.754 1.41-.585L12 3.103l3.295-1.055c.526-.17 1.156.09 1.41.584L18.29 5.71l3.076 1.584c.49.253.754.88.585 1.41L20.897 12l1.055 3.295c.17.526-.09 1.156-.584 1.41L18.29 18.29l-1.584 3.076c-.253.49-.88.754-1.41.585L12 20.897zM16 13h-3v3h-2v-3H8v-2h3V8h2v3h3v2z" fill-rule="evenodd"/>
      </svg>

      <svg class="icon" id="ic_award" viewBox="0 0 24 24">
        <path d="M15.2,10.7L16.6,16L12,12.2L7.4,16L8.8,10.8L4.6,7.3L10,7L12,2L14,7L19.4,7.3L15.2,10.7M14,19.1H13V16L12,15L11,16V19.1H10A2,2 0 0,0 8,21.1V22.1H16V21.1A2,2 0 0,0 14,19.1Z"/>
      </svg>

      <svg class="icon" id="ic_back" viewBox="0 0 24 24">
        <path d="M20 11H7.83l5.59-5.59L12 4l-8 8 8 8 1.41-1.41L7.83 13H20v-2z"/>
      </svg>

      <svg class="icon" id="ic_badge" viewBox="0 0 24 24">
        <path d="M12,1 L3,5 L3,11 C3,16.55 6.84,21.74 12,23 C17.16,21.74 21,16.55 21,11 L21,5 L12,1 L12,1 Z"/>
      </svg>

      <svg class="icon" id="ic_bar_graph" viewBox="0 0 24 24">
        <path d="M19 3H5c-1.1 0-2 .9-2 2v14c0 1.1.9 2 2 2h14c1.1 0 2-.9 2-2V5c0-1.1-.9-2-2-2zM9 17H7v-7h2v7zm4 0h-2V7h2v10zm4 0h-2v-4h2v4z"/>
      </svg>

      <svg class="icon" id="ic_block" viewBox="0 0 24 24">
        <path d="M12 2C6.48 2 2 6.48 2 12s4.48 10 10 10 10-4.48 10-10S17.52 2 12 2zM4 12c0-4.42 3.58-8 8-8 1.85 0 3.55.63 4.9 1.69L5.69 16.9C4.63 15.55 4 13.85 4 12zm8 8c-1.85 0-3.55-.63-4.9-1.69L18.31 7.1C19.37 8.45 20 10.15 20 12c0 4.42-3.58 8-8 8z"/>
      </svg>

      <svg class="icon" id="ic_bold" viewBox="0 0 24 24">
        <path d="M15.6 10.79c.97-.67 1.65-1.77 1.65-2.79 0-2.26-1.75-4-4-4H7v14h7.04c2.09 0 3.71-1.7 3.71-3.79 0-1.52-.86-2.82-2.15-3.42zM10 6.5h3c.83 0 1.5.67 1.5 1.5s-.67 1.5-1.5 1.5h-3v-3zm3.5 9H10v-3h3.5c.83 0 1.5.67 1.5 1.5s-.67 1.5-1.5 1.5z"/>
      </svg>

      <svg class="icon" id="ic_camera" viewBox="0 0 24 24">
        <path d="M9 3L7.17 5H4c-1.1 0-2 .9-2 2v12c0 1.1.9 2 2 2h16c1.1 0 2-.9 2-2V7c0-1.1-.9-2-2-2h-3.17L15 3H9zm3 15c-2.76 0-5-2.24-5-5s2.24-5 5-5 5 2.24 5 5-2.24 5-5 5zm0-1.8a3.2 3.2 0 1 0 0-6.4 3.2 3.2 0 0 0 0 6.4z"/>
      </svg>

      <svg class="icon" id="ic_cards" viewBox="0 0 24 24">
        <path d="M21.65 4.1l-1.34-.56v9.03l2.43-5.86c.41-1.02-.08-2.19-1.09-2.61zM2.15 7.8l4.96 11.97c.31.75 1.04 1.21 1.81 1.23.26 0 .53-.04.79-.15l7.37-3.05c.75-.31 1.21-1.03 1.23-1.8.01-.27-.04-.54-.15-.8L13.2 3.23c-.31-.76-1.05-1.22-1.83-1.23-.26 0-.52.05-.77.15L3.24 5.2c-1.02.42-1.51 1.59-1.09 2.6zM18.3 4c0-1.1-.9-2-2-2h-1.45l3.45 8.34V4z"/>
      </svg>

      <svg class="icon" id="ic_castle" viewBox="0 0 24 24">
        <path d="M18 10h4v12h-5c0-5-5-7-5-7s-5 2-5 7H2V10h4v3h2V8h8v5h2v-3zm-4 3v-2c0-1.1-.9-2-2-2s-2 .9-2 2v2h4zm2-6H8l4-5 4 5zm6 2h-4l2-4 2 4zM6 9H2l2-4 2 4z"/>
      </svg>

      <svg class="icon" id="ic_cat" viewBox="0 0 24 24">
        <path d="M21.79 3.31c.124.34.183.718.203 1.16.03.66-.032 1.5-.164 2.45-.243 1.73-.693 3.632-.77 3.62 1.122 1.988.848 5.268-1.613 7.725-1.217 1.215-2.76 2.157-4.475 2.877-.59.25-1.163.453-1.696.617-.327.1-1.07.24-1.07.24h-.244s-.742-.14-1.07-.24c-.532-.165-1.104-.37-1.695-.618-1.715-.72-3.26-1.662-4.475-2.877-2.46-2.458-2.643-5.882-1.62-7.71-.065.007-.568-1.85-.856-3.484-.164-.93-.253-1.743-.246-2.388.006-.44.053-.817.17-1.16.227-.662.714-1.194 1.502-1.3 1.18-.16 2.495.334 4.09 1.276.605.356 2.122 1.405 2.122 1.405.602-.187 1.208-.282 1.813-.274h.757c.914-.012 1.81.2 1.793.258 0 0 1.035-.836 1.983-1.46 1.555-1.023 2.848-1.563 4.06-1.4.783.107 1.262.627 1.5 1.28z"/>
      </svg>

      <svg class="icon" id="ic_chat" viewBox="0 0 24 24">
        <path d="M21 6h-2v9H6v2c0 .55.45 1 1 1h11l4 4V7c0-.55-.45-1-1-1zm-4 6V3c0-.55-.45-1-1-1H3c-.55 0-1 .45-1 1v14l4-4h10c.55 0 1-.45 1-1z"/>
      </svg>

      <svg class="icon" id="ic_chat_bubble" viewBox="0 0 24 24">
        <path d="M20 2H4c-1.1 0-1.99.9-1.99 2L2 22l4-4h14c1.1 0 2-.9 2-2V4c0-1.1-.9-2-2-2zM6 9h12v2H6V9zm8 5H6v-2h8v2zm4-6H6V6h12v2z"/>
      </svg>

      <svg class="icon" id="ic_check" viewBox="0 0 24 24">
        <path d="M9 16.2L4.8 12l-1.4 1.4L9 19 21 7l-1.4-1.4L9 16.2z"/>
      </svg>

      <svg class="icon" id="ic_check_small" viewBox="0 0 16 16"><!-- Note the smaller viewbox -->
        <path d="M12.435 4L14 5.588 6.706 13 2 8.235l1.565-1.588 3.141 3.177z"/>
      </svg>

      <svg class="icon" id="ic_chevron_left" viewBox="0 0 24 24">
        <path d="M15.41 7.41L14 6l-6 6 6 6 1.41-1.41L10.83 12z"/>
      </svg>

      <svg class="icon" id="ic_chevron_right" viewBox="0 0 24 24">
        <path d="M10 6L8.59 7.41 13.17 12l-4.58 4.59L10 18l6-6z"/>
      </svg>

      <svg class="icon" id="ic_clear" viewBox="0 0 24 24">
        <path d="M12 2C6.47 2 2 6.47 2 12s4.47 10 10 10 10-4.47 10-10S17.53 2 12 2zm5 13.59L15.59 17 12 13.41 8.41 17 7 15.59 10.59 12 7 8.41 8.41 7 12 10.59 15.59 7 17 8.41 13.41 12 17 15.59z"/>
      </svg>

      <svg class="icon" id="ic_close" viewBox="0 0 24 24">
        <path d="M19 6.41L17.59 5 12 10.59 6.41 5 5 6.41 10.59 12 5 17.59 6.41 19 12 13.41 17.59 19 19 17.59 13.41 12z"/>
      </svg>

      <svg class="icon" id="ic_comment" viewBox="0 0 24 24">
        <path d="M21.99 4c0-1.1-.89-2-1.99-2H4c-1.1 0-2 .9-2 2v12c0 1.1.9 2 2 2h14l4 4-.01-18zM18 14H6v-2h12v2zm0-3H6V9h12v2zm0-3H6V6h12v2z"/>
      </svg>

      <svg class="icon" id="ic_compass" viewBox="0 0 24 24">
        <path d="M12 10.9c-.61 0-1.1.49-1.1 1.1s.49 1.1 1.1 1.1c.61 0 1.1-.49 1.1-1.1s-.49-1.1-1.1-1.1zM12 2C6.48 2 2 6.48 2 12s4.48 10 10 10 10-4.48 10-10S17.52 2 12 2zm2.19 12.19L6 18l3.81-8.19L18 6l-3.81 8.19z"/>
      </svg>

      <svg class="icon" id="ic_controller" viewBox="0 0 24 24">
        <path d="M21 6H3c-1.1 0-2 .9-2 2v8c0 1.1.9 2 2 2h18c1.1 0 2-.9 2-2V8c0-1.1-.9-2-2-2zm-10 7H8v3H6v-3H3v-2h3V8h2v3h3v2zm4.5 2c-.83 0-1.5-.67-1.5-1.5s.67-1.5 1.5-1.5 1.5.67 1.5 1.5-.67 1.5-1.5 1.5zm4-3c-.83 0-1.5-.67-1.5-1.5S18.67 9 19.5 9s1.5.67 1.5 1.5-.67 1.5-1.5 1.5z"/>
      </svg>

      <svg class="icon" id="ic_copy" viewBox="0 0 24 24">
        <path d="M16 1H4c-1.1 0-2 .9-2 2v14h2V3h12V1zm3 4H8c-1.1 0-2 .9-2 2v14c0 1.1.9 2 2 2h11c1.1 0 2-.9 2-2V7c0-1.1-.9-2-2-2zm0 16H8V7h11v14z"/>
      </svg>

      <svg class="icon" id="ic_count_down" viewBox="0 0 24 24">
        <path d="M16.24 7.76C15.07 6.59 13.54 6 12 6v6l-4.24 4.24c2.34 2.34 6.14 2.34 8.49 0 2.34-2.34 2.34-6.14-.01-8.48zM12 2C6.48 2 2 6.48 2 12s4.48 10 10 10 10-4.48 10-10S17.52 2 12 2zm0 18c-4.42 0-8-3.58-8-8s3.58-8 8-8 8 3.58 8 8-3.58 8-8 8z"/>
      </svg>

      <svg class="icon" id="ic_cp" viewBox="0 0 24 24">
        <path d="M19,4 L5,4 C3.89,4 3,4.9 3,6 L3,18 C3,19.1 3.89,20 5,20 L19,20 C20.1,20 21,19.1 21,18 L21,6 C21,4.9 20.1,4 19,4 L19,4 Z M11,11 L9.5,11 L9.5,10.5 L7.5,10.5 L7.5,13.5 L9.5,13.5 L9.5,13 L11,13 L11,14 C11,14.55 10.55,15 10,15 L7,15 C6.45,15 6,14.55 6,14 L6,10 C6,9.45 6.45,9 7,9 L10,9 C10.55,9 11,9.45 11,10 L11,11 Z M18,11.5 C18,12.35 17.35,13 16.5,13 L14.5,13 L14.5,15 L13,15 L13,9 L16.5,9 C17.35,9 18,9.65 18,10.5 L18,11.5 Z M14.5,10.5 L16.5,10.5 L16.5,11.5 L14.5,11.5 L14.5,10.5 Z"/>
      </svg>

      <svg class="icon" id="ic_crown" viewBox="0 0 24 24">
        <path d="M4.222 16.467L2 4l6.111 7.933L12 4l3.889 7.933L22 4l-2.222 12.467H4.222zm15.556 3.4c0 .626-.498 1.133-1.111 1.133H5.333a1.122 1.122 0 0 1-1.11-1.133v-1.134h15.555v1.134z"/>
      </svg>

      <svg class="icon" id="ic_date" viewBox="0 0 24 24">
        <path d="M19 3h-1V1h-2v2H8V1H6v2H5c-1.11 0-1.99.9-1.99 2L3 19c0 1.1.89 2 2 2h14c1.1 0 2-.9 2-2V5c0-1.1-.9-2-2-2zm0 16H5V8h14v11zM7 10h5v5H7z"/>
      </svg>

      <svg class="icon" id="ic_delete" viewBox="0 0 24 24">
        <path d="M6 19c0 1.1.9 2 2 2h8c1.1 0 2-.9 2-2V7H6v12zM19 4h-3.5l-1-1h-5l-1 1H5v2h14V4z"/>
      </svg>

      <svg class="icon" id="ic_dev" viewBox="0 0 24 24">
        <path d="M20.8 4H3.2c-1.22 0-2.19.89-2.19 2L1 18c0 1.11.98 2 2.2 2h17.6c1.22 0 2.2-.89 2.2-2V6c0-1.11-.98-2-2.2-2zM8.5 13.5c0 .83-.674 1.5-1.5 1.5H3.5V9H7c.828 0 1.5.665 1.5 1.5v3zm-3.5-3h2v3H5v-3zm9-.24h-2.5v1.12H14v1.26h-2.5v1.11H14V15h-4V9h4v1.26zM18.75 15h-1.5L15.5 9H17l1 3.43L19 9h1.5l-1.75 6z"/>
      </svg>

      <svg class="icon" id="ic_discord" viewBox="0 0 24 24">
        <path d="M18.891 2H5.11C3.946 2 3 2.92 3 4.06v13.52c0 1.14.946 2.06 2.109 2.06h11.664l-.546-1.85 1.317 1.19 1.245 1.12L21 22V4.06C21 2.92 20.054 2 18.891 2zm-3.97 13.06s-.37-.43-.679-.81c1.348-.37 1.862-1.19 1.862-1.19-.422.27-.823.46-1.183.59-.514.21-1.008.35-1.491.43-.988.18-1.893.13-2.664-.01a8.822 8.822 0 0 1-1.512-.43 6.11 6.11 0 0 1-.751-.34c-.031-.02-.062-.03-.093-.05a.142.142 0 0 1-.04-.03c-.186-.1-.289-.17-.289-.17s.494.8 1.8 1.18c-.308.38-.689.83-.689.83-2.273-.07-3.137-1.52-3.137-1.52 0-3.22 1.481-5.83 1.481-5.83 1.481-1.08 2.89-1.05 2.89-1.05l.103.12c-1.851.52-2.705 1.31-2.705 1.31s.226-.12.607-.29c1.1-.47 1.975-.6 2.335-.63.061-.01.113-.02.175-.02a8.95 8.95 0 0 1 2.077-.02c.977.11 2.027.39 3.096.96 0 0-.812-.75-2.56-1.27l.143-.16s1.41-.03 2.89 1.05c0 0 1.482 2.61 1.482 5.83 0 0-.875 1.45-3.148 1.52zm-1.028-4.67c-.587 0-1.05.5-1.05 1.11 0 .61.474 1.11 1.05 1.11.586 0 1.049-.5 1.049-1.11 0-.61-.463-1.11-1.05-1.11zm-3.755 0c-.586 0-1.049.5-1.049 1.11 0 .61.473 1.11 1.05 1.11.586 0 1.048-.5 1.048-1.11.01-.61-.462-1.11-1.049-1.11z"/>
      </svg>

      <svg class="icon" id="ic_dog" viewBox="0 0 24 24">
        <path d="M4.5 11C5.88 11 7 9.88 7 8.5S5.88 6 4.5 6 2 7.12 2 8.5 3.12 11 4.5 11zM9 7c1.38 0 2.5-1.12 2.5-2.5S10.38 2 9 2 6.5 3.12 6.5 4.5 7.62 7 9 7zm6 0c1.38 0 2.5-1.12 2.5-2.5S16.38 2 15 2s-2.5 1.12-2.5 2.5S13.62 7 15 7zm4.5 4c1.38 0 2.5-1.12 2.5-2.5S20.88 6 19.5 6 17 7.12 17 8.5s1.12 2.5 2.5 2.5zm-2.16 2.86c-.87-1.02-1.6-1.89-2.48-2.91-.46-.54-1.05-1.08-1.75-1.32-.11-.04-.22-.07-.33-.09-.25-.04-.52-.04-.78-.04s-.53 0-.79.05c-.11.02-.22.05-.33.09-.7.24-1.28.78-1.75 1.32-.87 1.02-1.6 1.89-2.48 2.91-1.31 1.31-2.92 2.76-2.62 4.79.29 1.02 1.02 2.03 2.33 2.32.73.15 3.06-.44 5.54-.44h.18c2.48 0 4.81.58 5.54.44 1.31-.29 2.04-1.31 2.33-2.32.31-2.04-1.3-3.49-2.61-4.8z"/>
      </svg>

      <svg class="icon" id="ic_download" viewBox="0 0 24 24">
        <path d="M19 9h-4V3H9v6H5l7 7 7-7zM5 18v2h14v-2H5z"/>
      </svg>

      <svg class="icon" id="ic_drop" viewBox="0 0 24 24">
        <path d="M12,22 C8.13833333,22 5,18.797619 5,14.8571429 C5,10.0952381 12,2 12,2 C12,2 19,10.0952381 19,14.8571429 C19,18.797619 15.8616667,22 12,22 L12,22 Z"/>
      </svg>

      <svg class="icon" id="ic_edit" viewBox="0 0 24 24">
        <path d="M3 17.25V21h3.75L17.81 9.94l-3.75-3.75L3 17.25zM20.71 7.04c.39-.39.39-1.02 0-1.41l-2.34-2.34c-.39-.39-1.02-.39-1.41 0l-1.83 1.83 3.75 3.75 1.83-1.83z"/>
      </svg>

      <svg class="icon" id="ic_email" viewBox="0 0 24 24">
        <path d="M20 4H4c-1.1 0-1.99.9-1.99 2L2 18c0 1.1.9 2 2 2h16c1.1 0 2-.9 2-2V6c0-1.1-.9-2-2-2zm0 4l-8 5-8-5V6l8 5 8-5v2z"/>
      </svg>

      <svg class="icon" id="ic_emote" viewBox="0 0 24 24">
        <path d="M11.99 2C6.47 2 2 6.47 2 12s4.47 10 9.99 10S22 17.53 22 12 17.52 2 11.99 2zM12 20c-4.42 0-8-3.58-8-8s3.58-8 8-8 8 3.58 8 8-3.58 8-8 8zm1-10.06L14.06 11l1.06-1.06L16.18 11l1.06-1.06-2.12-2.12zm-4.12 0L9.94 11 11 9.94 8.88 7.82 6.76 9.94 7.82 11zM12 17.5c2.33 0 4.31-1.46 5.11-3.5H6.89c.8 2.04 2.78 3.5 5.11 3.5z"/>
      </svg>

      <svg class="icon" id="ic_expand_less" viewBox="0 0 24 24">
        <path d="M12 8l-6 6 1.41 1.41L12 10.83l4.59 4.58L18 14z"/>
      </svg>

      <svg class="icon" id="ic_expand_more" viewBox="0 0 24 24">
        <path d="M16.59 8.59L12 13.17 7.41 8.59 6 10l6 6 6-6z"/>
      </svg>

      <svg class="icon" id="ic_external_link" viewBox="0 0 24 24">
        <path d="M19 4H5c-1.11 0-2 .9-2 2v12c0 1.1.89 2 2 2h4v-2H5V8h14v10h-4v2h4c1.1 0 2-.9 2-2V6c0-1.1-.89-2-2-2zm-7 6l-4 4h3v6h2v-6h3l-4-4z"/>
      </svg>

      <svg class="icon" id="ic_eye" viewBox="0 0 24 24">
        <path d="M12 4.5C7 4.5 2.73 7.61 1 12c1.73 4.39 6 7.5 11 7.5s9.27-3.11 11-7.5c-1.73-4.39-6-7.5-11-7.5zM12 17c-2.76 0-5-2.24-5-5s2.24-5 5-5 5 2.24 5 5-2.24 5-5 5zm0-8c-1.66 0-3 1.34-3 3s1.34 3 3 3 3-1.34 3-3-1.34-3-3-3z"/>
      </svg>

      <svg class="icon" id="ic_facebook" viewBox="0 0 24 24">
        <path d="M20.897 2H3.104C2.494 2 2 2.494 2 3.104v17.792C2 21.506 2.494 22 3.104 22h9.58v-7.745h-2.607v-3.02h2.606V9.012c0-2.582 1.577-3.99 3.883-3.99.777-.002 1.555.038 2.33.12v2.697h-1.6c-1.253 0-1.5.596-1.5 1.47v1.927h2.99l-.388 3.02H15.8V22h5.096c.61 0 1.104-.494 1.104-1.104V3.104C22 2.494 21.506 2 20.897 2z"/>
      </svg>

      <svg class="icon" id="ic_feedback" viewBox="0 0 24 24">
        <path d="M20 2H4c-1.1 0-1.99.9-1.99 2L2 22l4-4h14c1.1 0 2-.9 2-2V4c0-1.1-.9-2-2-2zm-7 12h-2v-2h2v2zm0-4h-2V6h2v4z"/>
      </svg>

      <svg class="icon" id="ic_filter" viewBox="0 0 24 24">
        <path d="M10 18h4v-2h-4v2zM3 6v2h18V6H3zm3 7h12v-2H6v2z"/>
      </svg>

      <svg class="icon" id="ic_fire" viewBox="0 0 24 24">
        <path d="M13.5.67s.74 2.65.74 4.8c0 2.06-1.35 3.73-3.41 3.73-2.07 0-3.63-1.67-3.63-3.73l.03-.36C5.21 7.51 4 10.62 4 14c0 4.42 3.58 8 8 8s8-3.58 8-8C20 8.61 17.41 3.8 13.5.67zM11.71 19c-1.78 0-3.22-1.4-3.22-3.14 0-1.62 1.05-2.76 2.81-3.12 1.77-.36 3.6-1.21 4.62-2.58.39 1.29.59 2.65.59 4.04 0 2.65-2.15 4.8-4.8 4.8z"/>
      </svg>

      <svg class="icon" id="ic_focus" viewBox="0 0 24 24">
        <path d="M12 8c-2.21 0-4 1.79-4 4s1.79 4 4 4 4-1.79 4-4-1.79-4-4-4zm-7 7H3v4c0 1.1.9 2 2 2h4v-2H5v-4zM5 5h4V3H5c-1.1 0-2 .9-2 2v4h2V5zm14-2h-4v2h4v4h2V5c0-1.1-.9-2-2-2zm0 16h-4v2h4c1.1 0 2-.9 2-2v-4h-2v4z"/>
      </svg>

      <svg class="icon" id="ic_format_bold" viewBox="0 0 24 24">
        <path d="M15.6 10.79c.97-.67 1.65-1.77 1.65-2.79 0-2.26-1.75-4-4-4H7v14h7.04c2.09 0 3.71-1.7 3.71-3.79 0-1.52-.86-2.82-2.15-3.42zM10 6.5h3c.83 0 1.5.67 1.5 1.5s-.67 1.5-1.5 1.5h-3v-3zm3.5 9H10v-3h3.5c.83 0 1.5.67 1.5 1.5s-.67 1.5-1.5 1.5z"/>
      </svg>

      <svg class="icon" id="ic_format_bullet_list" viewBox="0 0 24 24">
        <path d="M4 10.5c-.83 0-1.5.67-1.5 1.5s.67 1.5 1.5 1.5 1.5-.67 1.5-1.5-.67-1.5-1.5-1.5zm0-6c-.83 0-1.5.67-1.5 1.5S3.17 7.5 4 7.5 5.5 6.83 5.5 6 4.83 4.5 4 4.5zm0 12c-.83 0-1.5.68-1.5 1.5s.68 1.5 1.5 1.5 1.5-.68 1.5-1.5-.67-1.5-1.5-1.5zM7 19h14v-2H7v2zm0-6h14v-2H7v2zm0-8v2h14V5H7z"/>
      </svg>

      <svg class="icon" id="ic_format_italic" viewBox="0 0 24 24">
        <path d="M10 4v3h2.21l-3.42 8H6v3h8v-3h-2.21l3.42-8H18V4z"/>
      </svg>

      <svg class="icon" id="ic_format_underline" viewBox="0 0 24 24">
        <path d="M12 17c3.31 0 6-2.69 6-6V3h-2.5v8c0 1.93-1.57 3.5-3.5 3.5S8.5 12.93 8.5 11V3H6v8c0 3.31 2.69 6 6 6zm-7 2v2h14v-2H5z"/>
      </svg>

      <svg class="icon" id="ic_forward" viewBox="0 0 24 24">
        <path d="M12 4l-1.41 1.41L16.17 11H4v2h12.17l-5.58 5.59L12 20l8-8z"/>
      </svg>

      <svg class="icon" id="ic_friends" viewBox="0 0 24 24">
        <path d="M16 11c1.66 0 2.99-1.34 2.99-3S17.66 5 16 5c-1.66 0-3 1.34-3 3s1.34 3 3 3zm-8 0c1.66 0 2.99-1.34 2.99-3S9.66 5 8 5C6.34 5 5 6.34 5 8s1.34 3 3 3zm0 2c-2.33 0-7 1.17-7 3.5V19h14v-2.5c0-2.33-4.67-3.5-7-3.5zm8 0c-.29 0-.62.02-.97.05 1.16.84 1.97 1.97 1.97 3.45V19h6v-2.5c0-2.33-4.67-3.5-7-3.5z"/>
      </svg>

      <svg class="icon" id="ic_gem" viewBox="0 0 24 24">
        <path d="M16,9 L19,9 L14,16 L16,9 Z M10,9 L14,9 L12,17 L10,9 Z M5,9 L8,9 L10,16 L5,9 Z M15,4 L17,4 L19,7 L16,7 L15,4 Z M11,4 L13,4 L14,7 L10,7 L11,4 Z M7,4 L9,4 L8,7 L5,7 L7,4 Z M6,2 L2,8 L12,22 L22,8 L18,2 L6,2 L6,2 Z"/>
      </svg>

      <svg class="icon" id="ic_get" viewBox="0 0 24 24">
        <path d="M5 3h14a2 2 0 0 1 2 2v14a2 2 0 0 1-2 2H5a2 2 0 0 1-2-2V5a2 2 0 0 1 2-2m7 14l5-5h-3V8h-4v4H7l5 5z"/>
      </svg>

      <svg class="icon" id="ic_global" viewBox="0 0 24 24">
        <path d="M12 2C6.48 2 2 6.48 2 12s4.48 10 10 10 10-4.48 10-10S17.52 2 12 2zm-1 17.93c-3.95-.49-7-3.85-7-7.93 0-.62.08-1.21.21-1.79L9 15v1c0 1.1.9 2 2 2v1.93zm6.9-2.54c-.26-.81-1-1.39-1.9-1.39h-1v-3c0-.55-.45-1-1-1H8v-2h2c.55 0 1-.45 1-1V7h2c1.1 0 2-.9 2-2v-.41c2.93 1.19 5 4.06 5 7.41 0 2.08-.8 3.97-2.1 5.39z"/>
      </svg>

      <svg class="icon" id="ic_gold" viewBox="0 0 24 24">
        <path d="M12 22c5.523 0 10-4.477 10-10S17.523 2 12 2 2 6.477 2 12s4.477 10 10 10zm2.4-15H9.6C8.64 7 8 7.833 8 8.667v6.666C8 16.167 8.64 17 9.6 17h4.8c.96 0 1.6-.833 1.6-1.667V12h-2.4v2.5h-3.2v-5H16v-.833C16 7.833 15.36 7 14.4 7z" fill-rule="evenodd"/>
      </svg>

      <svg class="icon" id="ic_grid" viewBox="0 0 24 24">
        <path d="M13 13v8h8v-8h-8zM3 21h8v-8H3v8zM3 3v8h8V3H3zm10 0v8h8V3h-8"/>
      </svg>

      <svg class="icon" id="ic_group" viewBox="0 0 24 24">
        <path d="M12 2C6.48 2 2 6.48 2 12s4.48 10 10 10 10-4.48 10-10S17.52 2 12 2zM8 17.5c-1.38 0-2.5-1.12-2.5-2.5s1.12-2.5 2.5-2.5 2.5 1.12 2.5 2.5-1.12 2.5-2.5 2.5zM9.5 8c0-1.38 1.12-2.5 2.5-2.5s2.5 1.12 2.5 2.5-1.12 2.5-2.5 2.5S9.5 9.38 9.5 8zm6.5 9.5c-1.38 0-2.5-1.12-2.5-2.5s1.12-2.5 2.5-2.5 2.5 1.12 2.5 2.5-1.12 2.5-2.5 2.5z"/>
      </svg>

      <svg class="icon" id="ic_hashtag" viewBox="0 0 24 24">
        <path d="M3,5A2,2 0 0,1 5,3H19A2,2 0 0,1 21,5V19A2,2 0 0,1 19,21H5C3.89,21 3,20.1 3,19V5M7,18H9L9.35,16H13.35L13,18H15L15.35,16H17.35L17.71,14H15.71L16.41,10H18.41L18.76,8H16.76L17.12,6H15.12L14.76,8H10.76L11.12,6H9.12L8.76,8H6.76L6.41,10H8.41L7.71,14H5.71L5.35,16H7.35L7,18M10.41,10H14.41L13.71,14H9.71L10.41,10Z"/>
      </svg>

      <svg class="icon" id="ic_heart" viewBox="0 0 24 24">
        <path d="M12 21.35l-1.45-1.32C5.4 15.36 2 12.28 2 8.5 2 5.42 4.42 3 7.5 3c1.74 0 3.41.81 4.5 2.09C13.09 3.81 14.76 3 16.5 3 19.58 3 22 5.42 22 8.5c0 3.78-3.4 6.86-8.55 11.54L12 21.35z"/>
      </svg>

      <svg class="icon" id="ic_history" viewBox="0 0 24 24">
        <path d="M13 3c-4.97 0-9 4.03-9 9H1l3.89 3.89.07.14L9 12H6c0-3.87 3.13-7 7-7s7 3.13 7 7-3.13 7-7 7c-1.93 0-3.68-.79-4.94-2.06l-1.42 1.42C8.27 19.99 10.51 21 13 21c4.97 0 9-4.03 9-9s-4.03-9-9-9zm-1 5v5l4.28 2.54.72-1.21-3.5-2.08V8H12z"/>
      </svg>

      <svg class="icon" id="ic_home" viewBox="0 0 24 24">
        <path d="M10 20v-6h4v6h5v-8h3L12 3 2 12h3v8z"/>
      </svg>

      <svg class="icon" id="ic_image" viewBox="0 0 24 24">
        <path d="M21 19V5c0-1.1-.9-2-2-2H5c-1.1 0-2 .9-2 2v14c0 1.1.9 2 2 2h14c1.1 0 2-.9 2-2zM8.5 13.5l2.5 3.01L14.5 12l4.5 6H5l3.5-4.5z"/>
      </svg>

      <svg class="icon" id="ic_inbox" viewBox="0 0 24 24">
        <path d="M21.99 8c0-.72-.37-1.35-.94-1.7L12 1 2.95 6.3C2.38 6.65 2 7.28 2 8v10c0 1.1.9 2 2 2h16c1.1 0 2-.9 2-2l-.01-10zM12 13L3.74 7.84 12 3l8.26 4.84L12 13z"/>
      </svg>

      <svg class="icon" id="ic_info" viewBox="0 0 24 24">
        <path d="M11 17h2v-6h-2v6zm1-15C6.48 2 2 6.48 2 12s4.48 10 10 10 10-4.48 10-10S17.52 2 12 2zm0 18c-4.41 0-8-3.59-8-8s3.59-8 8-8 8 3.59 8 8-3.59 8-8 8zM11 9h2V7h-2v2z"/>
      </svg>

      <svg class="icon" id="ic_inventory" viewBox="0 0 24 24">
        <path d="M4 11h5V5H4v6zm0 7h5v-6H4v6zm6 0h5v-6h-5v6zm6 0h5v-6h-5v6zm-6-7h5V5h-5v6zm6-6v6h5V5h-5z"/>
      </svg>

      <svg class="icon" id="ic_kik" viewBox="0 0 24 24">
        <path d="M11.698 20.054l-3.06-4.124-.938.877v2.44h-.025C7.622 20.223 6.83 21 5.86 21c-1.006 0-1.82-.833-1.82-1.86v-.037L4 19.1V4.946h.042V4.88C4.04 3.842 4.858 3 5.866 3c1.01 0 1.827.842 1.827 1.88 0 .035 0 .07-.003.105h.023l.02 6.896 3.436-3.388c.34-.38.83-.618 1.378-.618 1.026 0 1.857.84 1.857 1.88 0 .503-.195.96-.514 1.297l.02.02-2.418 2.4 3.38 4.594-.025.02c.188.295.298.648.298 1.028 0 1.043-.827 1.888-1.847 1.888-.684 0-1.28-.38-1.6-.946zm6.246-8.244c1.136 0 2.056.924 2.056 2.063 0 1.14-.92 2.064-2.056 2.064-1.135 0-2.055-.924-2.055-2.064 0-1.14.92-2.063 2.054-2.063z"/>
      </svg>

      <svg class="icon" id="ic_leave" viewBox="0 0 24 24">
        <path d="M10.09 15.59L11.5 17l5-5-5-5-1.41 1.41L12.67 11H3v2h9.67l-2.58 2.59zM19 3H5c-1.11 0-2 .9-2 2v4h2V5h14v14H5v-4H3v4c0 1.1.89 2 2 2h14c1.1 0 2-.9 2-2V5c0-1.1-.9-2-2-2z"/>
      </svg>

      <svg class="icon" id="ic_lens" viewBox="0 0 24 24">
        <path d="M9.4 10.5l4.77-8.26C13.47 2.09 12.75 2 12 2c-2.4 0-4.6.85-6.32 2.25l3.66 6.35.06-.1zM21.54 9c-.92-2.92-3.15-5.26-6-6.34L11.88 9h9.66zm.26 1h-7.49l.29.5 4.76 8.25C21 16.97 22 14.61 22 12c0-.69-.07-1.35-.2-2zM8.54 12l-3.9-6.75C3.01 7.03 2 9.39 2 12c0 .69.07 1.35.2 2h7.49l-1.15-2zm-6.08 3c.92 2.92 3.15 5.26 6 6.34L12.12 15H2.46zm11.27 0l-3.9 6.76c.7.15 1.42.24 2.17.24 2.4 0 4.6-.85 6.32-2.25l-3.66-6.35-.93 1.6z"/>
      </svg>

      <svg class="icon" id="ic_light" viewBox="0 0 24 24">
        <path d="M9 21c0 .55.45 1 1 1h4c.55 0 1-.45 1-1v-1H9v1zm3-19C8.14 2 5 5.14 5 9c0 2.38 1.19 4.47 3 5.74V17c0 .55.45 1 1 1h6c.55 0 1-.45 1-1v-2.26c1.81-1.27 3-3.36 3-5.74 0-3.86-3.14-7-7-7zm2.85 11.1l-.85.6V16h-4v-2.3l-.85-.6C7.8 12.16 7 10.63 7 9c0-2.76 2.24-5 5-5s5 2.24 5 5c0 1.63-.8 3.16-2.15 4.1z"/>
      </svg>

      <svg class="icon" id="ic_link" viewBox="0 0 24 24">
        <path d="M3.9 12c0-1.71 1.39-3.1 3.1-3.1h4V7H7c-2.76 0-5 2.24-5 5s2.24 5 5 5h4v-1.9H7c-1.71 0-3.1-1.39-3.1-3.1zM8 13h8v-2H8v2zm9-6h-4v1.9h4c1.71 0 3.1 1.39 3.1 3.1s-1.39 3.1-3.1 3.1h-4V17h4c2.76 0 5-2.24 5-5s-2.24-5-5-5z"/>
      </svg>

      <svg class="icon" id="ic_location" viewBox="0 0 24 24">
        <path d="M12 2C8.13 2 5 5.13 5 9c0 5.25 7 13 7 13s7-7.75 7-13c0-3.87-3.13-7-7-7zm0 9.5c-1.38 0-2.5-1.12-2.5-2.5s1.12-2.5 2.5-2.5 2.5 1.12 2.5 2.5-1.12 2.5-2.5 2.5z"/>
      </svg>

      <svg class="icon" id="ic_lock_circle" viewBox="0 0 24 24">
        <path d="M12 22c5.523 0 10-4.477 10-10S17.523 2 12 2 2 6.477 2 12s4.477 10 10 10zm3.75-12.667h-.625V8.095C15.125 6.387 13.725 5 12 5S8.875 6.387 8.875 8.095v1.238H8.25C7.562 9.333 7 9.89 7 10.57v6.192C7 17.442 7.563 18 8.25 18h7.5c.688 0 1.25-.557 1.25-1.238v-6.19c0-.682-.563-1.24-1.25-1.24zM12 14.905c-.688 0-1.25-.557-1.25-1.238 0-.68.563-1.238 1.25-1.238.688 0 1.25.556 1.25 1.237 0 .68-.563 1.238-1.25 1.238zm1.938-5.572h-3.876V8.095c0-1.058.87-1.92 1.938-1.92 1.07 0 1.938.862 1.938 1.92v1.238z" fill-rule="evenodd"/>
      </svg>

      <svg class="icon" id="ic_lock_outline" viewBox="0 0 24 24">
        <path d="M12 17c1.1 0 2-.9 2-2s-.9-2-2-2-2 .9-2 2 .9 2 2 2zm6-9h-1V6c0-2.76-2.24-5-5-5S7 3.24 7 6v2H6c-1.1 0-2 .9-2 2v10c0 1.1.9 2 2 2h12c1.1 0 2-.9 2-2V10c0-1.1-.9-2-2-2zM8.9 6c0-1.71 1.39-3.1 3.1-3.1s3.1 1.39 3.1 3.1v2H8.9V6zM18 20H6V10h12v10z"/>
      </svg>

      <svg class="icon" id="ic_lock_small" viewBox="0 0 24 24">
        <path d="M22 22V12h-2.5V9.5a7.5 7.5 0 0 0-15 0V12H2v10h20zM12 7a2.5 2.5 0 0 1 2.5 2.5V12h-5V9.5A2.5 2.5 0 0 1 12 7z"/>
      </svg>

      <svg class="icon" id="ic_menu" viewBox="0 0 24 24">
        <path d="M3 18h18v-2H3v2zm0-5h18v-2H3v2zm0-7v2h18V6H3z"/>
      </svg>

      <svg class="icon" id="ic_mod" viewBox="0 0 24 24">
        <path d="M20.8 4H3.2c-1.22 0-2.19.89-2.19 2L1 18c0 1.11.98 2 2.2 2h17.6c1.22 0 2.2-.89 2.2-2V6c0-1.11-.98-2-2.2-2zM3 10c0-.55.45-1 1-1h4c.55 0 1 .45 1 1v5H7.75v-4.51H6.62v3.52H5.37V10.5H4.25V15H3v-5zm12 3.5c0 .83-.674 1.5-1.5 1.5h-2c-.828 0-1.5-.665-1.5-1.5v-3c0-.83.674-1.5 1.5-1.5h2c.828 0 1.5.665 1.5 1.5v3zm-3.5-3h2v3h-2v-3zm9.5 3c0 .83-.674 1.5-1.5 1.5H16V9h3.5c.828 0 1.5.665 1.5 1.5v3zm-3.5-3h2v3h-2v-3z"/>
      </svg>

      <svg class="icon" id="ic_new" viewBox="0 0 24 24">
        <path d="M23 12l-2.44-2.78.34-3.68-3.61-.82-1.89-3.18L12 3 8.6 1.54 6.71 4.72l-3.61.81.34 3.68L1 12l2.44 2.78-.34 3.69 3.61.82 1.89 3.18L12 21l3.4 1.46 1.89-3.18 3.61-.82-.34-3.68L23 12zm-10 5h-2v-2h2v2zm0-4h-2V7h2v6z"/>
      </svg>

      <!-- View box of 48 x 48 -->
      <svg class="icon" id="ic_new_trade" viewBox="0 0 48 48">
        <path d="M14 24c0 5.52 4.48 10 10 10s10-4.48 10-10-4.48-10-10-10-10 4.48-10 10zm7 5.5L17.5 26l3.5-3.5V25h4v2h-4v2.5zm6-11l3.5 3.5-3.5 3.5V23h-4v-2h4v-2.5zM9 23v-3H7v3H4v2h3v3h2v-3h3v-2H9z"/>
      </svg>

      <svg class="icon" id="ic_notes" viewBox="0 0 24 24">
        <path d="M19 3h-4.18C14.4 1.84 13.3 1 12 1c-1.3 0-2.4.84-2.82 2H5c-1.1 0-2 .9-2 2v14c0 1.1.9 2 2 2h14c1.1 0 2-.9 2-2V5c0-1.1-.9-2-2-2zm-7 0c.55 0 1 .45 1 1s-.45 1-1 1-1-.45-1-1 .45-1 1-1zm2 14H7v-2h7v2zm3-4H7v-2h10v2zm0-4H7V7h10v2z"/>
      </svg>

      <svg class="icon" id="ic_notifications" viewBox="0 0 24 24">
        <path d="M12 22c1.1 0 2-.9 2-2h-4c0 1.1.89 2 2 2zm6-6v-5c0-3.07-1.64-5.64-4.5-6.32V4c0-.83-.67-1.5-1.5-1.5s-1.5.67-1.5 1.5v.68C7.63 5.36 6 7.92 6 11v5l-2 2v1h16v-1l-2-2z"/>
      </svg>

      <svg class="icon" id="ic_notifications_none" viewBox="0 0 24 24">
        <path d="M12 22c1.1 0 2-.9 2-2h-4c0 1.1.9 2 2 2zm6-6v-5c0-3.07-1.63-5.64-4.5-6.32V4c0-.83-.67-1.5-1.5-1.5s-1.5.67-1.5 1.5v.68C7.64 5.36 6 7.92 6 11v5l-2 2v1h16v-1l-2-2zm-2 1H8v-6c0-2.48 1.51-4.5 4-4.5s4 2.02 4 4.5v6z"/>
      </svg>

      <svg class="icon" id="ic_off_topic" viewBox="0 0 24 24">
        <path d="M6 10c-1.1 0-2 .9-2 2s.9 2 2 2 2-.9 2-2-.9-2-2-2zm12 0c-1.1 0-2 .9-2 2s.9 2 2 2 2-.9 2-2-.9-2-2-2zm-6 0c-1.1 0-2 .9-2 2s.9 2 2 2 2-.9 2-2-.9-2-2-2z"/>
      </svg>

      <svg class="icon" id="ic_overflow" viewBox="0 0 24 24">
        <path d="M12 8c1.1 0 2-.9 2-2s-.9-2-2-2-2 .9-2 2 .9 2 2 2zm0 2c-1.1 0-2 .9-2 2s.9 2 2 2 2-.9 2-2-.9-2-2-2zm0 6c-1.1 0-2 .9-2 2s.9 2 2 2 2-.9 2-2-.9-2-2-2z"/>
      </svg>

      <svg class="icon" id="ic_palette" viewBox="0 0 24 24">
        <path d="M12 3c-4.97 0-9 4.03-9 9s4.03 9 9 9c.83 0 1.5-.67 1.5-1.5 0-.39-.15-.74-.39-1.01-.23-.26-.38-.61-.38-.99 0-.83.67-1.5 1.5-1.5H16c2.76 0 5-2.24 5-5 0-4.42-4.03-8-9-8zm-5.5 9c-.83 0-1.5-.67-1.5-1.5S5.67 9 6.5 9 8 9.67 8 10.5 7.33 12 6.5 12zm3-4C8.67 8 8 7.33 8 6.5S8.67 5 9.5 5s1.5.67 1.5 1.5S10.33 8 9.5 8zm5 0c-.83 0-1.5-.67-1.5-1.5S13.67 5 14.5 5s1.5.67 1.5 1.5S15.33 8 14.5 8zm3 4c-.83 0-1.5-.67-1.5-1.5S16.67 9 17.5 9s1.5.67 1.5 1.5-.67 1.5-1.5 1.5z"/>
      </svg>

      <svg class="icon" id="ic_perma_ban" viewBox="0 0 24 24">
        <path d="M8.27,3L3,8.27V15.73L8.27,21H15.73L21,15.73V8.27L15.73,3M8.41,7L12,10.59L15.59,7L17,8.41L13.41,12L17,15.59L15.59,17L12,13.41L8.41,17L7,15.59L10.59,12L7,8.41"/>
      </svg>

      <svg class="icon" id="ic_profile" viewBox="0 0 24 24">
        <path d="M12 12c2.21 0 4-1.79 4-4s-1.79-4-4-4-4 1.79-4 4 1.79 4 4 4zm0 2c-2.67 0-8 1.34-8 4v2h16v-2c0-2.66-5.33-4-8-4z"/>
      </svg>

      <svg class="icon" id="ic_radius" viewBox="0 0 24 24">
        <path d="M11 4.07V2.05c-2.01.2-3.84 1-5.32 2.21L7.1 5.69c1.11-.86 2.44-1.44 3.9-1.62zm7.32.19C16.84 3.05 15.01 2.25 13 2.05v2.02c1.46.18 2.79.76 3.9 1.62l1.42-1.43zM19.93 11h2.02c-.2-2.01-1-3.84-2.21-5.32L18.31 7.1c.86 1.11 1.44 2.44 1.62 3.9zM5.69 7.1L4.26 5.68C3.05 7.16 2.25 8.99 2.05 11h2.02c.18-1.46.76-2.79 1.62-3.9zM4.07 13H2.05c.2 2.01 1 3.84 2.21 5.32l1.43-1.43c-.86-1.1-1.44-2.43-1.62-3.89zM15 12c0-1.66-1.34-3-3-3s-3 1.34-3 3 1.34 3 3 3 3-1.34 3-3zm3.31 4.9l1.43 1.43c1.21-1.48 2.01-3.32 2.21-5.32h-2.02c-.18 1.45-.76 2.78-1.62 3.89zM13 19.93v2.02c2.01-.2 3.84-1 5.32-2.21l-1.43-1.43c-1.1.86-2.43 1.44-3.89 1.62zm-7.32-.19C7.16 20.95 9 21.75 11 21.95v-2.02c-1.46-.18-2.79-.76-3.9-1.62l-1.42 1.43z"/>
      </svg>

      <svg class="icon" id="ic_range" viewBox="0 0 24 24">
        <path d="M21 3L3 10.53v.98l6.84 2.65L12.48 21h.98L21 3z"/>
      </svg>

      <svg class="icon" id="ic_refresh" viewBox="0 0 24 24">
        <path d="M17.65 6.35C16.2 4.9 14.21 4 12 4c-4.42 0-7.99 3.58-7.99 8s3.57 8 7.99 8c3.73 0 6.84-2.55 7.73-6h-2.08c-.82 2.33-3.04 4-5.65 4-3.31 0-6-2.69-6-6s2.69-6 6-6c1.66 0 3.14.69 4.22 1.78L13 11h7V4l-2.35 2.35z"/>
      </svg>

      <svg class="icon" id="ic_remove_friend" viewBox="0 0 24 24">
        <path d="M15 12c2.21 0 4-1.79 4-4s-1.79-4-4-4-4 1.79-4 4 1.79 4 4 4zM1 10v2h8v-2H1zm14 4c-2.67 0-8 1.34-8 4v2h16v-2c0-2.66-5.33-4-8-4z"/>
      </svg>

      <svg class="icon" id="ic_remove_lock" viewBox="0 0 24 24">
        <path d="M21 21.78L4.22 5 3 6.22l2.04 2.04C4.42 8.6 4 9.25 4 10v10c0 1.1.9 2 2 2h12c.23 0 .45-.05.66-.12L19.78 23 21 21.78zM8.9 6c0-1.71 1.39-3.1 3.1-3.1s3.1 1.39 3.1 3.1v2H9.66L20 18.34V10c0-1.1-.9-2-2-2h-1V6c0-2.76-2.24-5-5-5-2.56 0-4.64 1.93-4.94 4.4L8.9 7.24V6z"/>
      </svg>

      <svg class="icon" id="ic_reply" viewBox="0 0 24 24">
        <path d="M10 9V5l-7 7 7 7v-4.1c5 0 8.5 1.6 11 5.1-1-5-4-10-11-11z"/>
      </svg>

      <svg class="icon" id="ic_reset" viewBox="0 0 24 24">
        <path d="M14 12c0-1.1-.9-2-2-2s-2 .9-2 2 .9 2 2 2 2-.9 2-2zm-2-9c-4.97 0-9 4.03-9 9H0l4 4 4-4H5c0-3.87 3.13-7 7-7s7 3.13 7 7-3.13 7-7 7c-1.51 0-2.91-.49-4.06-1.3l-1.42 1.44C8.04 20.3 9.94 21 12 21c4.97 0 9-4.03 9-9s-4.03-9-9-9zs"/>
      </svg>

      <svg class="icon" id="ic_reward" viewBox="0 0 24 24">
        <path d="M20 7h-2.18c.11-.31.18-.65.18-1 0-1.66-1.34-3-3-3-1.05 0-1.96.54-2.5 1.35l-.5.67-.5-.68C10.96 3.54 10.05 3 9 3 7.34 3 6 4.34 6 6c0 .35.07.69.18 1H4c-1.11 0-1.99.89-1.99 2L2 20c0 1.11.89 2 2 2h16c1.11 0 2-.89 2-2V9c0-1.11-.89-2-2-2zm-5-2c.55 0 1 .45 1 1s-.45 1-1 1-1-.45-1-1 .45-1 1-1zM9 5c.55 0 1 .45 1 1s-.45 1-1 1-1-.45-1-1 .45-1 1-1zM4 20V9h5.08L7 11.83 8.62 13 11 9.76l1-1.36 1 1.36L15.38 13 17 11.83 14.92 9H20v11H4z"/>
      </svg>

      <svg class="icon" id="ic_rotate_left" viewBox="0 0 24 24">
        <path d="M7.11 8.53L5.7 7.11C4.8 8.27 4.24 9.61 4.07 11h2.02c.14-.87.49-1.72 1.02-2.47zM6.09 13H4.07c.17 1.39.72 2.73 1.62 3.89l1.41-1.42c-.52-.75-.87-1.59-1.01-2.47zm1.01 5.32c1.16.9 2.51 1.44 3.9 1.61V17.9c-.87-.15-1.71-.49-2.46-1.03L7.1 18.32zM13 4.07V1L8.45 5.55 13 10V6.09c2.84.48 5 2.94 5 5.91s-2.16 5.43-5 5.91v2.02c3.95-.49 7-3.85 7-7.93s-3.05-7.44-7-7.93z"/>
      </svg>

      <svg class="icon" id="ic_rotate_right" viewBox="0 0 24 24">
        <path d="M15.55 5.55L11 1v3.07C7.06 4.56 4 7.92 4 12s3.05 7.44 7 7.93v-2.02c-2.84-.48-5-2.94-5-5.91s2.16-5.43 5-5.91V10l4.55-4.45zM19.93 11c-.17-1.39-.72-2.73-1.62-3.89l-1.42 1.42c.54.75.88 1.6 1.02 2.47h2.02zM13 17.9v2.02c1.39-.17 2.74-.71 3.9-1.61l-1.44-1.44c-.75.54-1.59.89-2.46 1.03zm3.89-2.42l1.42 1.41c.9-1.16 1.45-2.5 1.62-3.89h-2.02c-.14.87-.48 1.72-1.02 2.48z"/>
      </svg>

      <svg class="icon" id="ic_score" viewBox="0 0 24 24">
        <path d="M12 2C6.48 2 2 6.48 2 12s4.48 10 10 10 10-4.48 10-10S17.52 2 12 2zm1.88 11.88L12 18l-1.88-4.12L6 12l4.12-1.88L12 6l1.88 4.12L18 12l-4.12 1.88z"/>
      </svg>

      <svg class="icon" id="ic_search" viewBox="0 0 24 24">
        <path d="M15.5 14h-.79l-.28-.27C15.41 12.59 16 11.11 16 9.5 16 5.91 13.09 3 9.5 3S3 5.91 3 9.5 5.91 16 9.5 16c1.61 0 3.09-.59 4.23-1.57l.27.28v.79l5 4.99L20.49 19l-4.99-5zm-6 0C7.01 14 5 11.99 5 9.5S7.01 5 9.5 5 14 7.01 14 9.5 11.99 14 9.5 14z"/>
      </svg>

      <svg class="icon" id="ic_send" viewBox="0 0 24 24">
        <path d="M2.01 21L23 12 2.01 3 2 10l15 2-15 2z"/>
      </svg>

      <svg class="icon" id="ic_settings" viewBox="0 0 24 24">
        <path d="M19.43 12.98c.04-.32.07-.64.07-.98s-.03-.66-.07-.98l2.11-1.65c.19-.15.24-.42.12-.64l-2-3.46c-.12-.22-.39-.3-.61-.22l-2.49 1c-.52-.4-1.08-.73-1.69-.98l-.38-2.65C14.46 2.18 14.25 2 14 2h-4c-.25 0-.46.18-.49.42l-.38 2.65c-.61.25-1.17.59-1.69.98l-2.49-1c-.23-.09-.49 0-.61.22l-2 3.46c-.13.22-.07.49.12.64l2.11 1.65c-.04.32-.07.65-.07.98s.03.66.07.98l-2.11 1.65c-.19.15-.24.42-.12.64l2 3.46c.12.22.39.3.61.22l2.49-1c.52.4 1.08.73 1.69.98l.38 2.65c.03.24.24.42.49.42h4c.25 0 .46-.18.49-.42l.38-2.65c.61-.25 1.17-.59 1.69-.98l2.49 1c.23.09.49 0 .61-.22l2-3.46c.12-.22.07-.49-.12-.64l-2.11-1.65zM12 15.5c-1.93 0-3.5-1.57-3.5-3.5s1.57-3.5 3.5-3.5 3.5 1.57 3.5 3.5-1.57 3.5-3.5 3.5z"/>
      </svg>

      <svg class="icon" id="ic_share" viewBox="0 0 24 24">
        <path d="M18 16.08c-.76 0-1.44.3-1.96.77L8.91 12.7c.05-.23.09-.46.09-.7s-.04-.47-.09-.7l7.05-4.11c.54.5 1.25.81 2.04.81 1.66 0 3-1.34 3-3s-1.34-3-3-3-3 1.34-3 3c0 .24.04.47.09.7L8.04 9.81C7.5 9.31 6.79 9 6 9c-1.66 0-3 1.34-3 3s1.34 3 3 3c.79 0 1.5-.31 2.04-.81l7.12 4.16c-.05.21-.08.43-.08.65 0 1.61 1.31 2.92 2.92 2.92 1.61 0 2.92-1.31 2.92-2.92s-1.31-2.92-2.92-2.92z"/>
      </svg>

      <svg class="icon" id="ic_shop" viewBox="0 0 24 24">
        <path d="M20 4H4v2h16V4zm1 10v-2l-1-5H4l-1 5v2h1v6h10v-6h4v6h2v-6h1zm-9 4H6v-4h6v4z"/>
      </svg>

      <svg class="icon" id="ic_speed" viewBox="0 0 24 24">
        <path d="M4 18l8.5-6L4 6v12zm9-12v12l8.5-6L13 6z"/>
      </svg>

      <svg class="icon" id="ic_star" viewBox="0 0 24 24">
        <path d="M12 17.27L18.18 21l-1.64-7.03L22 9.24l-7.19-.61L12 2 9.19 8.63 2 9.24l5.46 4.73L5.82 21z"/>
      </svg>

      <svg class="icon" id="ic_star_outline" viewBox="0 0 24 24">
        <path d="M22 9.24l-7.19-.62L12 2 9.19 8.63 2 9.24l5.46 4.73L5.82 21 12 17.27 18.18 21l-1.63-7.03L22 9.24zM12 15.4l-3.76 2.27 1-4.28-3.32-2.88 4.38-.38L12 6.1l1.71 4.04 4.38.38-3.32 2.88 1 4.28L12 15.4z"/>
      </svg>

      <svg class="icon" id="ic_stats" viewBox="0 0 24 24">
        <path d="M23 8c0 1.1-.9 2-2 2-.18 0-.35-.02-.51-.07l-3.56 3.55c.05.16.07.34.07.52 0 1.1-.9 2-2 2s-2-.9-2-2c0-.18.02-.36.07-.52l-2.55-2.55c-.16.05-.34.07-.52.07s-.36-.02-.52-.07l-4.55 4.56c.05.16.07.33.07.51 0 1.1-.9 2-2 2s-2-.9-2-2 .9-2 2-2c.18 0 .35.02.51.07l4.56-4.55C8.02 9.36 8 9.18 8 9c0-1.1.9-2 2-2s2 .9 2 2c0 .18-.02.36-.07.52l2.55 2.55c.16-.05.34-.07.52-.07s.36.02.52.07l3.55-3.56C19.02 8.35 19 8.18 19 8c0-1.1.9-2 2-2s2 .9 2 2z"/>
      </svg>

      <svg class="icon" id="ic_subtract_circle" viewBox="0 0 24 24">
        <path d="M12 2C6.48 2 2 6.48 2 12s4.48 10 10 10 10-4.48 10-10S17.52 2 12 2zm5 11H7v-2h10v2z"/>
      </svg>

      <svg class="icon" id="ic_suggestions" viewBox="0 0 24 24">
        <path d="M12 6c0-.55-.45-1-1-1H5.82l.66-3.18.02-.23c0-.31-.13-.59-.33-.8L5.38 0 .44 4.94C.17 5.21 0 5.59 0 6v6.5c0 .83.67 1.5 1.5 1.5h6.75c.62 0 1.15-.38 1.38-.91l2.26-5.29c.07-.17.11-.36.11-.55V6zm10.5 4h-6.75c-.62 0-1.15.38-1.38.91l-2.26 5.29c-.07.17-.11.36-.11.55V18c0 .55.45 1 1 1h5.18l-.66 3.18-.02.24c0 .31.13.59.33.8l.79.78 4.94-4.94c.27-.27.44-.65.44-1.06v-6.5c0-.83-.67-1.5-1.5-1.5z"/>
      </svg>

      <svg class="icon" id="ic_sword" viewBox="0 0 24 24">
        <path d="M16.91 5.087h2.003l-9.39 9.39-1.044-.981 8.43-8.41zM3.304 19.818l.876.877a1.04 1.04 0 0 0 1.472 0l3.255-3.255 2.796 2.775 1.471-1.471-1.481-1.482L21 7.956V3h-4.956l-9.307 9.306-1.482-1.481-1.471 1.471 2.786 2.786-3.256 3.255a1.042 1.042 0 0 0-.01 1.481z"/>
      </svg>

      <svg class="icon" id="ic_target" viewBox="0 0 24 24">
        <path d="M11,2V4.07C7.38,4.53 4.53,7.38 4.07,11H2V13H4.07C4.53,16.62 7.38,19.47 11,19.93V22H13V19.93C16.62,19.47 19.47,16.62 19.93,13H22V11H19.93C19.47,7.38 16.62,4.53 13,4.07V2M11,6.08V8H13V6.09C15.5,6.5 17.5,8.5 17.92,11H16V13H17.91C17.5,15.5 15.5,17.5 13,17.92V16H11V17.91C8.5,17.5 6.5,15.5 6.08,13H8V11H6.09C6.5,8.5 8.5,6.5 11,6.08M12,11A1,1 0 0,0 11,12A1,1 0 0,0 12,13A1,1 0 0,0 13,12A1,1 0 0,0 12,11Z"/>
      </svg>

      <svg class="icon" id="ic_text" viewBox="0 0 24 24">
        <path d="M2.5 4v3h5v12h3V7h5V4h-13zm19 5h-9v3h3v7h3v-7h3V9z"/>
      </svg>

      <svg class="icon" id="ic_ticket" viewBox="0 0 24 24">
        <path d="M20 12c0-1.1.9-2 2-2V6c0-1.1-.9-2-2-2H4c-1.1 0-1.99.9-1.99 2v4c1.1 0 1.99.9 1.99 2s-.89 2-2 2v4c0 1.1.9 2 2 2h16c1.1 0 2-.9 2-2v-4c-1.1 0-2-.9-2-2zm-4.42 4.8L12 14.5l-3.58 2.3 1.08-4.12-3.29-2.69 4.24-.25L12 5.8l1.54 3.95 4.24.25-3.29 2.69 1.09 4.11z"/>
      </svg>

      <svg class="icon" id="ic_time" viewBox="0 0 24 24">
        <path d="M11.99 2C6.47 2 2 6.48 2 12s4.47 10 9.99 10C17.52 22 22 17.52 22 12S17.52 2 11.99 2zM12 20c-4.42 0-8-3.58-8-8s3.58-8 8-8 8 3.58 8 8-3.58 8-8 8zM12.5 7H11v6l5.25 3.15.75-1.23-4.5-2.67z"/>
      </svg>

      <svg class="icon" id="ic_titanium" viewBox="0 0 24 24">
        <path d="M12 22c5.523 0 10-4.477 10-10S17.523 2 12 2 2 6.477 2 12s4.477 10 10 10zm-1.333-12v7h2.666v-7H16V7H8v3h2.667z" fill-rule="evenodd"/>
      </svg>

      <svg class="icon" id="ic_trade" viewBox="0 0 24 24">
        <path d="M6.99 11L3 15l3.99 4v-3H14v-2H6.99v-3zM21 9l-3.99-4v3H10v2h7.01v3L21 9z"/>
      </svg>

      <svg class="icon" id="ic_trade_circle" viewBox="0 0 24 24">
        <path d="M2 12c0 5.52 4.48 10 10 10s10-4.48 10-10S17.52 2 12 2 2 6.48 2 12zm7 5.5L5.5 14 9 10.5V13h4v2H9v2.5zm6-11l3.5 3.5-3.5 3.5V11h-4V9h4V6.5z"/>
      </svg>

      <svg class="icon" id="ic_trophy" viewBox="0 0 24 24">
        <path d="M20.2,2H19.5H18C17.1,2 16,3 16,4H8C8,3 6.9,2 6,2H4.5H3.8H2V11C2,12 3,13 4,13H6.2C6.6,15 7.9,16.7 11,17V19.1C8.8,19.3 8,20.4 8,21.7V22H16V21.7C16,20.4 15.2,19.3 13,19.1V17C16.1,16.7 17.4,15 17.8,13H20C21,13 22,12 22,11V2H20.2M4,11V4H6V6V11C5.1,11 4.3,11 4,11M20,11C19.7,11 18.9,11 18,11V6V4H20V11Z"/>
      </svg>

      <svg class="icon" id="ic_twitter" viewBox="0 0 24 24">
        <path d="M22 5.892c-.75.325-1.543.54-2.356.633.856-.504 1.497-1.297 1.804-2.232-.806.47-1.687.802-2.606.98-1.272-1.33-3.293-1.657-4.93-.795-1.637.863-2.483 2.698-2.063 4.478-3.3-.163-6.375-1.696-8.46-4.22-1.087 1.846-.53 4.206 1.27 5.392-.65-.02-1.288-.193-1.857-.504v.05c0 1.924 1.377 3.58 3.292 3.96-.604.163-1.238.188-1.853.073.536 1.646 2.077 2.774 3.833 2.807-1.454 1.123-3.25 1.73-5.096 1.728-.328 0-.655-.02-.98-.056C3.877 19.373 6.06 20.002 8.292 20c7.547 0 11.674-6.153 11.674-11.49 0-.174-.004-.348-.012-.522.804-.573 1.496-1.283 2.046-2.096z"/>
      </svg>

      <svg class="icon" id="ic_upload" viewBox="0 0 24 24">
        <path d="M9 16h6v-6h4l-7-7-7 7h4zm-4 2h14v2H5z"/>
      </svg>

      <svg class="icon" id="ic_upload_cloud" viewBox="0 0 24 24">
        <path d="M19.35 10.04C18.67 6.59 15.64 4 12 4 9.11 4 6.6 5.64 5.35 8.04 2.34 8.36 0 10.91 0 14c0 3.31 2.69 6 6 6h13c2.76 0 5-2.24 5-5 0-2.64-2.05-4.78-4.65-4.96zM14 13v4h-4v-4H7l5-5 5 5h-3z"/>
      </svg>

      <svg class="icon" id="ic_video" viewBox="0 0 24 24">
        <path d="M21 3H3c-1.11 0-2 .89-2 2v12c0 1.1.89 2 2 2h5v2h8v-2h5c1.1 0 1.99-.9 1.99-2L23 5c0-1.11-.9-2-2-2zm0 14H3V5h18v12zm-5-6l-7 4V7z"/>
      </svg>

      <svg class="icon" id="ic_vote_down" viewBox="0 0 24 24">
        <path d="M22 10.8h-7.5V4h-5v6.8H2L12 21z"/>
      </svg>

      <svg class="icon" id="ic_vote_up" viewBox="0 0 24 24">
        <path d="M2 14.2h7.5V21h5v-6.8H22L12 4z"/>
      </svg>

      <svg class="icon" id="ic_warning" viewBox="0 0 24 24">
        <path d="M1 21h22L12 2 1 21zm12-3h-2v-2h2v2zm0-4h-2v-4h2v4z"/>
      </svg>

      <svg class="icon" id="ic_wishlist" viewBox="0 0 24 24">
        <path d="M21.41 11.58l-9-9C12.05 2.22 11.55 2 11 2H4c-1.1 0-2 .9-2 2v7c0 .55.22 1.05.59 1.42l9 9c.36.36.86.58 1.41.58.55 0 1.05-.22 1.41-.59l7-7c.37-.36.59-.86.59-1.41 0-.55-.23-1.06-.59-1.42zM5.5 7C4.67 7 4 6.33 4 5.5S4.67 4 5.5 4 7 4.67 7 5.5 6.33 7 5.5 7zm11.77 8.27L13 19.54l-4.27-4.27C8.28 14.81 8 14.19 8 13.5c0-1.38 1.12-2.5 2.5-2.5.69 0 1.32.28 1.77.74l.73.72.73-.73c.45-.45 1.08-.73 1.77-.73 1.38 0 2.5 1.12 2.5 2.5 0 .69-.28 1.32-.73 1.77z"/>
      </svg>

      <svg class="icon" id="ic_wrench" viewBox="0 0 24 24">
        <path d="M19.7380793,16.3470584 L11.4777113,8.03661632 C12.2946708,5.93617491 11.8408044,3.47043934 10.1161122,1.73529209 C8.30064672,-0.0911787015 5.57744848,-0.45647286 3.39888989,0.548086075 L7.3021407,4.47499828 L4.57894246,7.21470446 L0.584918381,3.28779226 C-0.504360915,5.47955721 -0.0504945418,8.2192634 1.76497095,10.0457342 C3.48966317,11.7808814 5.94054158,12.2374991 8.0283269,11.4155873 L16.2886949,19.7260294 C16.651788,20.0913235 17.1964276,20.0913235 17.5595207,19.7260294 L19.6473061,17.625588 C20.1011724,17.2602938 20.1011724,16.621029 19.7380793,16.3470584 L19.7380793,16.3470584 Z"/>
      </svg>

      <svg class="icon" id="ic_youtube" viewBox="0 0 24 24">
        <path d="M21.8 8.02s-.196-1.371-.795-1.975c-.76-.793-1.613-.797-2.004-.844C16.202 5 12.004 5 12.004 5h-.008s-4.199 0-6.997.201c-.392.047-1.243.05-2.004.843-.6.605-.795 1.976-.795 1.976S2 9.63 2 11.242v1.51c0 1.61.2 3.221.2 3.221s.196 1.372.795 1.976c.76.793 1.76.768 2.205.851 1.6.153 6.8.2 6.8.2s4.202-.006 7.001-.208c.392-.046 1.243-.05 2.004-.843.6-.604.795-1.976.795-1.976s.2-1.61.2-3.221v-1.51c0-1.611-.2-3.222-.2-3.222zM9.935 14.582V8.99l5.404 2.806-5.404 2.787z"/>
      </svg>

      <svg class="icon" id="ic_google" viewBox="0 0 24 24">
        <path fill="#4285F4" d="M20.64 12.205c0-.639-.057-1.252-.164-1.841H12v3.481h4.844a4.14 4.14 0 0 1-1.796 2.716v2.259h2.908c1.702-1.567 2.684-3.875 2.684-6.615z"/>
        <path fill="#34A853" d="M12 21c2.43 0 4.467-.806 5.956-2.18l-2.908-2.259c-.806.54-1.837.86-3.048.86-2.344 0-4.328-1.584-5.036-3.711H3.957v2.332A8.997 8.997 0 0 0 12 21z"/>
        <path fill="#FBBC05" d="M6.964 13.71A5.41 5.41 0 0 1 6.682 12c0-.593.102-1.17.282-1.71V7.958H3.957A8.996 8.996 0 0 0 3 12c0 1.452.348 2.827.957 4.042l3.007-2.332z"/>
        <path fill="#EA4335" d="M12 6.58c1.321 0 2.508.454 3.44 1.345l2.582-2.58C16.463 3.891 14.426 3 12 3a8.997 8.997 0 0 0-8.043 4.958l3.007 2.332C7.672 8.163 9.656 6.58 12 6.58z"/>
      </svg>

</svg>
