<?xml version="1.0" encoding="UTF-8" standalone="no"?>
<svg width="55px" height="75px" viewBox="0 0 55 75" version="1.1" xmlns="http://www.w3.org/2000/svg" xmlns:xlink="http://www.w3.org/1999/xlink" xmlns:sketch="http://www.bohemiancoding.com/sketch/ns">
    <!-- Generator: Sketch 3.2.2 (9983) - http://www.bohemiancoding.com/sketch -->
    <title>mascot</title>
    <desc>Created with Sketch.</desc>
    <defs></defs>
    <g id="Page-1" stroke="none" stroke-width="1" fill="none" fill-rule="evenodd" sketch:type="MSPage">
        <g id="Artboard-1" sketch:type="MSArtboardGroup">
            <g id="mascot" sketch:type="MSLayerGroup" transform="translate(27.500000, 37.500000) scale(-1, 1) translate(-27.500000, -37.500000) ">
                <path d="M12.3775333,75 C12.3729511,74.7019628 12.3706579,74.3966928 12.3706579,74.0840146 C12.3706579,70.1030365 14.3448684,61.7792409 15.3710526,58.4489781 C15.4493742,58.1948556 15.5272653,57.9414096 15.6048598,57.6888491 L6.79322368,52.3922628 C6.79322368,52.3922628 0.916907895,45.551562 1.66302632,44.3618102 C2.41059211,43.1713139 8.07993421,45.8687299 8.07993421,45.8687299 L17.3747169,52.1945827 L17.3747169,52.1945827 C17.6001747,51.5606089 17.8312258,50.9458549 18.0707826,50.3548626 C7.52722165,46.7429954 0,37.2473184 0,26.1015766 C0,11.8468492 12.3121694,0.291109489 27.5,0.291109489 C42.6878306,0.291109489 55,11.8468492 55,26.1015766 C55,36.9899796 47.8163507,46.3036333 37.6546441,50.095327 L37.6546441,50.095327 C39.795383,51.4433422 45.8109009,55.4116444 46.9960526,58.1489343 C48.3156216,61.1966816 42.484238,69.7986103 40.2760326,72.1176538 C40.4473273,72.8073204 40.545605,73.7108726 40.5361612,75 L12.3775333,75 Z M34.2082671,51.1386535 C34.0709927,51.1709505 33.933309,51.2022791 33.7952247,51.232631 C33.8039818,51.2735592 33.8127937,51.3146794 33.8216622,51.3559925 L34.2082671,51.1386535 L34.2082671,51.1386535 Z M35.3464966,57.5444387 C35.391031,57.7008903 35.4365074,57.858953 35.4829605,58.0186423 C35.9142763,59.5002482 36.0669737,61.4650511 37.6308553,66.8211679 C38.3044115,69.1273041 39.1578803,69.7592839 39.7652437,70.8247086 C40.5159243,68.0532151 42.1427898,62.9743943 40.5371711,61.1545839 C39.5850864,60.0754899 37.5019861,58.7481304 35.3464966,57.5444387 L35.3464966,57.5444387 Z" id="Shape" fill="#B2B3B3" sketch:type="MSShapeGroup"></path>
                <path d="M26.5375,8.08852555 C10.3523026,8.86432117 4.70539474,22.571781 5.91105263,29.3171825 C7.11671053,36.0625839 14.6307237,47.6689927 28.1136842,46.7956642 C41.5980921,45.9223358 49.9906579,33.1581898 50.3119737,27.4417226 C50.6340132,21.726 42.72125,7.31272993 26.5375,8.08852555 L26.5375,8.08852555 Z" id="Shape" fill="#8C888A" sketch:type="MSShapeGroup"></path>
                <ellipse id="Oval" fill="#5DBC61" sketch:type="MSShapeGroup" cx="16.7359211" cy="20.1208029" rx="2.14789474" ry="3.47693431"></ellipse>
                <ellipse id="Oval" fill="#5DBC61" sketch:type="MSShapeGroup" cx="37.6308553" cy="19.3762774" rx="2.14789474" ry="3.47693431"></ellipse>
            </g>
        </g>
    </g>
</svg>