<?xml version="1.0" encoding="UTF-8" standalone="no"?>
<svg width="500px" height="500px" viewBox="0 0 500 500" version="1.1" xmlns="http://www.w3.org/2000/svg" xmlns:xlink="http://www.w3.org/1999/xlink" xmlns:sketch="http://www.bohemiancoding.com/sketch/ns">
    <!-- Generator: Sketch Beta 3.3 (11920) - http://www.bohemiancoding.com/sketch -->
    <title>spirals</title>
    <desc>Created with Sketch Beta.</desc>
    <defs></defs>
    <g id="Page-1" stroke="none" stroke-width="1" fill="none" fill-rule="evenodd" sketch:type="MSPage">
        <g id="spirals" sketch:type="MSArtboardGroup" fill="#039BE5">
            <path d="M130.447071,6.21186059 C82.2293937,-12.1606783 26.3610419,11.6171543 6.55528123,59.1318704 C-7.98168302,94.00011 3.06094992,124.329814 25.9037759,150.728395 C47.0267357,175.147765 75.1997819,185.460137 107.099205,178.334977 C137.790627,171.510111 156.204115,150.585073 163.349749,120.18712 C169.69005,93.1401769 159.807644,74.2694228 131.586824,57.4324788 C106.689713,42.6429945 78.1617737,42.9637632 59.932557,58.2036886 C40.9662548,74.1806996 37.4719235,103.090831 52.1658597,123.224186 C67.7811527,144.695213 95.8654757,150.844418 115.766785,137.099138 C126.40675,129.728283 132.617378,119.804928 130.610868,106.557863 C128.870527,95.1057383 121.745367,87.6598096 110.429739,84.9776373 C104.355609,83.5580652 98.1313312,84.4794221 94.11831,89.7209191 C89.3613786,95.9110724 92.7533369,100.579281 98.3360771,104.237409 C104.8197,108.523425 112.19738,113.5943 104.362434,121.531619 C100.868102,125.073724 93.1833034,126.356799 87.7780097,125.756211 C69.69894,123.674627 59.1067483,108.591673 61.7616211,90.539903 C64.4164939,72.378935 81.9973483,59.1045709 100.765729,61.0906069 C121.049231,63.2267899 145.011335,85.0049368 148.0484,103.971239 C151.37211,124.875803 137.046716,148.291918 115.186671,157.737532 C88.9860109,169.100934 61.8298697,162.808407 41.4508203,140.709492 C21.0035222,118.474079 16.894953,79.7497901 32.7968904,52.5049256 C46.5967692,29.0000877 66.8734456,12.449788 94.8076215,14.8862651 C128.918301,17.8755563 158.49727,31.525288 175.381988,64.6122376 C186.499694,86.4586332 186.45192,110.78928 192.935543,134.19857 C214.010728,81.1488876 186.404146,27.5259166 130.447071,6.21186059 L130.447071,6.21186059 Z" id="Shape" sketch:type="MSShapeGroup"></path>
            <path d="M499.370853,357.411272 C492.086069,280.85481 422.865334,222.352387 346.023594,227.232683 C256.83338,232.948437 193.766505,297.166614 200.490921,382.230481 C220.093614,351.654764 230.760983,316.962888 256.2832,290.707099 C294.948595,251.012665 343.201376,244.583715 393.104697,255.373347 C434.042129,264.227162 455.662146,296.779451 464.964256,336.453507 C475.672379,382.301801 452.625971,435.720157 413.644732,458.420157 C374.867265,480.946952 333.349088,477.910776 300.990381,450.147087 C274.001019,427.029358 263.883829,387.324736 277.903218,358.980302 C290.516593,333.244127 334.418881,312.775411 364.23046,318.674558 C391.85151,324.145788 411.097605,350.778552 406.879562,377.900365 C402.661519,404.828596 380.868297,421.660014 354.194778,416.647267 C346.176421,415.108802 335.855461,409.882097 332.401556,403.279942 C324.688854,388.506603 337.485623,384.522896 348.611475,381.28295 C358.198863,378.521864 365.035353,373.376666 361.031268,362.424018 C357.577364,353.18304 349.171843,349.097448 339.900299,348.475949 C322.610398,347.324647 309.120812,354.782636 301.581314,370.340491 C292.870139,388.39453 297.363271,405.27689 309.324582,420.447581 C331.637418,448.822581 374.317085,452.459879 406.115424,428.741028 C435.967757,406.489323 443.731402,363.707771 423.731357,332.581874 C404.475074,302.770294 363.89424,289.729002 321.84626,299.836003 C274.143658,311.379585 251.76969,333.936945 248.876154,375.292106 C245.636208,421.772087 262.671396,459.805794 303.405058,483.055973 C345.799446,507.325003 390.476061,504.981646 431.342174,479.500183 C475.560306,451.899511 504.709632,413.570337 499.370853,357.411272 L499.370853,357.411272 Z" id="Shape" sketch:type="MSShapeGroup"></path>
            <path d="M106.712118,318.891581 C81.4408636,314.356412 56.3122884,331.121252 50.9753961,356.195473 C47.0686959,374.587538 55.2727664,388.396874 68.8782745,399.223529 C81.4646435,409.207696 96.1742191,411.674013 111.131785,405.243245 C125.511839,399.084247 132.601651,387.139936 133.284474,371.632034 C133.889163,357.822698 127.332701,349.506522 111.987862,343.857094 C98.4265167,338.917666 84.4982812,341.693122 77.0008139,350.834801 C69.1942077,360.40112 70.1420071,374.876294 79.1953603,383.348738 C88.8262256,392.429268 103.097571,392.847115 111.570015,384.276154 C116.108582,379.683234 118.238583,374.268208 116.023653,367.96653 C114.12126,362.537916 109.94279,359.538249 104.171065,359.269876 C101.072881,359.130594 98.120775,360.166718 96.6294346,363.095045 C94.8799124,366.560118 96.9487649,368.52366 100.026565,369.814569 C103.59695,371.302513 107.680301,373.0928 104.558338,377.695912 C103.168911,379.764765 99.5475698,381.089646 96.8434539,381.300268 C87.8002921,381.952517 81.2370358,375.548926 80.8701457,366.468396 C80.4998584,357.340306 87.8716319,349.227958 97.237521,348.470398 C107.354176,347.644895 121.092172,356.096956 124.295666,365.085764 C127.852462,375.001988 123.011551,387.768405 113.176858,394.416589 C101.412595,402.382861 87.5387131,401.812143 75.5434448,392.870895 C63.4870282,383.882087 57.915734,365.320166 63.1846836,350.518867 C67.77081,337.742259 76.1651197,327.792064 90.059384,326.406034 C106.997477,324.721057 122.732986,328.685509 134.045431,343.310156 C141.495339,352.985184 143.710268,364.88873 149.04716,375.735768 C154.499555,347.848723 136.042944,324.157134 106.712118,318.891581 L106.712118,318.891581 Z" id="Shape" sketch:type="MSShapeGroup"></path>
            <path d="M329.796388,97.7820314 C327.757703,88.1372019 331.572543,80.3825925 338.105028,74.0800485 C343.45703,68.9145335 350.404132,68.9344496 357.17561,71.4837119 C365.000831,74.4385385 370.620795,83.1129102 370.119271,91.1155658 C369.617748,99.071147 365.055148,104.901136 357.76404,106.9362 C351.673331,108.636312 344.822189,106.202925 342.02126,101.334341 C339.473808,96.9220175 340.781029,88.4287014 344.59768,84.6029975 C348.142748,81.0561191 353.985411,80.8605791 357.559447,84.1594114 C361.122621,87.4455697 361.450331,92.3195853 358.073645,95.7650725 C357.052492,96.7952786 355.267284,97.8055686 353.954631,97.6661559 C351.010668,97.3348242 351.686005,95.0643875 352.307026,93.090882 C352.839329,91.4052547 352.757854,89.8825775 350.751759,89.3973486 C349.035352,88.9917842 347.610445,89.8318819 346.600155,91.1391031 C344.717177,93.579732 344.494479,96.3028075 346.042504,98.9552714 C347.845817,102.025974 350.782538,103.034453 354.208109,102.775544 C360.602991,102.284883 365.361131,96.333587 364.99721,89.2995786 C364.660446,82.6946719 359.109283,77.3137008 352.535156,77.1923936 C346.239854,77.0910024 340.292179,81.7984469 337.634284,89.0026475 C334.62514,97.1791164 335.738632,102.717606 341.563189,107.233131 C348.106537,112.31174 355.406697,113.546539 362.858944,109.829468 C370.63528,105.972985 374.707219,99.1381375 374.978803,90.5886942 C375.275734,81.3313236 372.500152,73.2345191 363.677315,68.4691369 C351.657036,61.9837268 336.174976,66.4159668 329.302107,78.2533791 C321.332041,91.9900642 324.58742,107.645938 337.809907,115.067405 C335.222624,109.145078 331.152495,104.144324 329.796388,97.7820314 L329.796388,97.7820314 Z" id="Shape" sketch:type="MSShapeGroup"></path>
        </g>
    </g>
</svg>